%TF.GenerationSoftware,KiCad,Pcbnew,9.0.7*%
%TF.CreationDate,2026-08-29T21:30:05+01:00*%
%TF.ProjectId,CubeMate-pcb,43756265-4d61-4746-952d-7063622e6b69,rev?*%
%TF.SameCoordinates,Original*%
%TF.FileFunction,Legend,Top*%
%TF.FilePolarity,Positive*%
%FSLAX46Y46*%
G04 Gerber Fmt 4.6, Leading zero omitted, Abs format (unit mm)*
G04 Created by KiCad (PCBNEW 9.0.7) date 2026-08-29 21:30:05*
%MOMM*%
%LPD*%
G01*
G04 APERTURE LIST*
%ADD10C,0.100000*%
%ADD11C,0.150000*%
%ADD12C,0.120000*%
%ADD13C,0.127000*%
%ADD14C,0.200000*%
G04 APERTURE END LIST*
D10*
X153586027Y-46397419D02*
X154157455Y-46397419D01*
X153871741Y-47397419D02*
X153871741Y-46397419D01*
X154490789Y-47397419D02*
X154490789Y-46397419D01*
X154490789Y-46397419D02*
X154824122Y-47111704D01*
X154824122Y-47111704D02*
X155157455Y-46397419D01*
X155157455Y-46397419D02*
X155157455Y-47397419D01*
X156205074Y-47302180D02*
X156157455Y-47349800D01*
X156157455Y-47349800D02*
X156014598Y-47397419D01*
X156014598Y-47397419D02*
X155919360Y-47397419D01*
X155919360Y-47397419D02*
X155776503Y-47349800D01*
X155776503Y-47349800D02*
X155681265Y-47254561D01*
X155681265Y-47254561D02*
X155633646Y-47159323D01*
X155633646Y-47159323D02*
X155586027Y-46968847D01*
X155586027Y-46968847D02*
X155586027Y-46825990D01*
X155586027Y-46825990D02*
X155633646Y-46635514D01*
X155633646Y-46635514D02*
X155681265Y-46540276D01*
X155681265Y-46540276D02*
X155776503Y-46445038D01*
X155776503Y-46445038D02*
X155919360Y-46397419D01*
X155919360Y-46397419D02*
X156014598Y-46397419D01*
X156014598Y-46397419D02*
X156157455Y-46445038D01*
X156157455Y-46445038D02*
X156205074Y-46492657D01*
X156586027Y-46492657D02*
X156633646Y-46445038D01*
X156633646Y-46445038D02*
X156728884Y-46397419D01*
X156728884Y-46397419D02*
X156966979Y-46397419D01*
X156966979Y-46397419D02*
X157062217Y-46445038D01*
X157062217Y-46445038D02*
X157109836Y-46492657D01*
X157109836Y-46492657D02*
X157157455Y-46587895D01*
X157157455Y-46587895D02*
X157157455Y-46683133D01*
X157157455Y-46683133D02*
X157109836Y-46825990D01*
X157109836Y-46825990D02*
X156538408Y-47397419D01*
X156538408Y-47397419D02*
X157157455Y-47397419D01*
X157538408Y-46492657D02*
X157586027Y-46445038D01*
X157586027Y-46445038D02*
X157681265Y-46397419D01*
X157681265Y-46397419D02*
X157919360Y-46397419D01*
X157919360Y-46397419D02*
X158014598Y-46445038D01*
X158014598Y-46445038D02*
X158062217Y-46492657D01*
X158062217Y-46492657D02*
X158109836Y-46587895D01*
X158109836Y-46587895D02*
X158109836Y-46683133D01*
X158109836Y-46683133D02*
X158062217Y-46825990D01*
X158062217Y-46825990D02*
X157490789Y-47397419D01*
X157490789Y-47397419D02*
X158109836Y-47397419D01*
X158728884Y-46397419D02*
X158824122Y-46397419D01*
X158824122Y-46397419D02*
X158919360Y-46445038D01*
X158919360Y-46445038D02*
X158966979Y-46492657D01*
X158966979Y-46492657D02*
X159014598Y-46587895D01*
X159014598Y-46587895D02*
X159062217Y-46778371D01*
X159062217Y-46778371D02*
X159062217Y-47016466D01*
X159062217Y-47016466D02*
X159014598Y-47206942D01*
X159014598Y-47206942D02*
X158966979Y-47302180D01*
X158966979Y-47302180D02*
X158919360Y-47349800D01*
X158919360Y-47349800D02*
X158824122Y-47397419D01*
X158824122Y-47397419D02*
X158728884Y-47397419D01*
X158728884Y-47397419D02*
X158633646Y-47349800D01*
X158633646Y-47349800D02*
X158586027Y-47302180D01*
X158586027Y-47302180D02*
X158538408Y-47206942D01*
X158538408Y-47206942D02*
X158490789Y-47016466D01*
X158490789Y-47016466D02*
X158490789Y-46778371D01*
X158490789Y-46778371D02*
X158538408Y-46587895D01*
X158538408Y-46587895D02*
X158586027Y-46492657D01*
X158586027Y-46492657D02*
X158633646Y-46445038D01*
X158633646Y-46445038D02*
X158728884Y-46397419D01*
X159538408Y-47397419D02*
X159728884Y-47397419D01*
X159728884Y-47397419D02*
X159824122Y-47349800D01*
X159824122Y-47349800D02*
X159871741Y-47302180D01*
X159871741Y-47302180D02*
X159966979Y-47159323D01*
X159966979Y-47159323D02*
X160014598Y-46968847D01*
X160014598Y-46968847D02*
X160014598Y-46587895D01*
X160014598Y-46587895D02*
X159966979Y-46492657D01*
X159966979Y-46492657D02*
X159919360Y-46445038D01*
X159919360Y-46445038D02*
X159824122Y-46397419D01*
X159824122Y-46397419D02*
X159633646Y-46397419D01*
X159633646Y-46397419D02*
X159538408Y-46445038D01*
X159538408Y-46445038D02*
X159490789Y-46492657D01*
X159490789Y-46492657D02*
X159443170Y-46587895D01*
X159443170Y-46587895D02*
X159443170Y-46825990D01*
X159443170Y-46825990D02*
X159490789Y-46921228D01*
X159490789Y-46921228D02*
X159538408Y-46968847D01*
X159538408Y-46968847D02*
X159633646Y-47016466D01*
X159633646Y-47016466D02*
X159824122Y-47016466D01*
X159824122Y-47016466D02*
X159919360Y-46968847D01*
X159919360Y-46968847D02*
X159966979Y-46921228D01*
X159966979Y-46921228D02*
X160014598Y-46825990D01*
X158606265Y-84711704D02*
X159082455Y-84711704D01*
X158511027Y-84997419D02*
X158844360Y-83997419D01*
X158844360Y-83997419D02*
X159177693Y-84997419D01*
X159415789Y-84997419D02*
X159939598Y-84330752D01*
X159415789Y-84330752D02*
X159939598Y-84997419D01*
X160320551Y-84997419D02*
X160320551Y-84330752D01*
X160320551Y-83997419D02*
X160272932Y-84045038D01*
X160272932Y-84045038D02*
X160320551Y-84092657D01*
X160320551Y-84092657D02*
X160368170Y-84045038D01*
X160368170Y-84045038D02*
X160320551Y-83997419D01*
X160320551Y-83997419D02*
X160320551Y-84092657D01*
X160749122Y-84949800D02*
X160844360Y-84997419D01*
X160844360Y-84997419D02*
X161034836Y-84997419D01*
X161034836Y-84997419D02*
X161130074Y-84949800D01*
X161130074Y-84949800D02*
X161177693Y-84854561D01*
X161177693Y-84854561D02*
X161177693Y-84806942D01*
X161177693Y-84806942D02*
X161130074Y-84711704D01*
X161130074Y-84711704D02*
X161034836Y-84664085D01*
X161034836Y-84664085D02*
X160891979Y-84664085D01*
X160891979Y-84664085D02*
X160796741Y-84616466D01*
X160796741Y-84616466D02*
X160749122Y-84521228D01*
X160749122Y-84521228D02*
X160749122Y-84473609D01*
X160749122Y-84473609D02*
X160796741Y-84378371D01*
X160796741Y-84378371D02*
X160891979Y-84330752D01*
X160891979Y-84330752D02*
X161034836Y-84330752D01*
X161034836Y-84330752D02*
X161130074Y-84378371D01*
X162130074Y-84997419D02*
X161558646Y-84997419D01*
X161844360Y-84997419D02*
X161844360Y-83997419D01*
X161844360Y-83997419D02*
X161749122Y-84140276D01*
X161749122Y-84140276D02*
X161653884Y-84235514D01*
X161653884Y-84235514D02*
X161558646Y-84283133D01*
X163891979Y-84997419D02*
X163558646Y-84521228D01*
X163320551Y-84997419D02*
X163320551Y-83997419D01*
X163320551Y-83997419D02*
X163701503Y-83997419D01*
X163701503Y-83997419D02*
X163796741Y-84045038D01*
X163796741Y-84045038D02*
X163844360Y-84092657D01*
X163844360Y-84092657D02*
X163891979Y-84187895D01*
X163891979Y-84187895D02*
X163891979Y-84330752D01*
X163891979Y-84330752D02*
X163844360Y-84425990D01*
X163844360Y-84425990D02*
X163796741Y-84473609D01*
X163796741Y-84473609D02*
X163701503Y-84521228D01*
X163701503Y-84521228D02*
X163320551Y-84521228D01*
X164272932Y-84711704D02*
X164749122Y-84711704D01*
X164177694Y-84997419D02*
X164511027Y-83997419D01*
X164511027Y-83997419D02*
X164844360Y-84997419D01*
X178103884Y-40248609D02*
X178437217Y-40248609D01*
X178580074Y-40772419D02*
X178103884Y-40772419D01*
X178103884Y-40772419D02*
X178103884Y-39772419D01*
X178103884Y-39772419D02*
X178580074Y-39772419D01*
X178961027Y-40724800D02*
X179103884Y-40772419D01*
X179103884Y-40772419D02*
X179341979Y-40772419D01*
X179341979Y-40772419D02*
X179437217Y-40724800D01*
X179437217Y-40724800D02*
X179484836Y-40677180D01*
X179484836Y-40677180D02*
X179532455Y-40581942D01*
X179532455Y-40581942D02*
X179532455Y-40486704D01*
X179532455Y-40486704D02*
X179484836Y-40391466D01*
X179484836Y-40391466D02*
X179437217Y-40343847D01*
X179437217Y-40343847D02*
X179341979Y-40296228D01*
X179341979Y-40296228D02*
X179151503Y-40248609D01*
X179151503Y-40248609D02*
X179056265Y-40200990D01*
X179056265Y-40200990D02*
X179008646Y-40153371D01*
X179008646Y-40153371D02*
X178961027Y-40058133D01*
X178961027Y-40058133D02*
X178961027Y-39962895D01*
X178961027Y-39962895D02*
X179008646Y-39867657D01*
X179008646Y-39867657D02*
X179056265Y-39820038D01*
X179056265Y-39820038D02*
X179151503Y-39772419D01*
X179151503Y-39772419D02*
X179389598Y-39772419D01*
X179389598Y-39772419D02*
X179532455Y-39820038D01*
X179961027Y-40772419D02*
X179961027Y-39772419D01*
X179961027Y-39772419D02*
X180341979Y-39772419D01*
X180341979Y-39772419D02*
X180437217Y-39820038D01*
X180437217Y-39820038D02*
X180484836Y-39867657D01*
X180484836Y-39867657D02*
X180532455Y-39962895D01*
X180532455Y-39962895D02*
X180532455Y-40105752D01*
X180532455Y-40105752D02*
X180484836Y-40200990D01*
X180484836Y-40200990D02*
X180437217Y-40248609D01*
X180437217Y-40248609D02*
X180341979Y-40296228D01*
X180341979Y-40296228D02*
X179961027Y-40296228D01*
X180865789Y-39772419D02*
X181484836Y-39772419D01*
X181484836Y-39772419D02*
X181151503Y-40153371D01*
X181151503Y-40153371D02*
X181294360Y-40153371D01*
X181294360Y-40153371D02*
X181389598Y-40200990D01*
X181389598Y-40200990D02*
X181437217Y-40248609D01*
X181437217Y-40248609D02*
X181484836Y-40343847D01*
X181484836Y-40343847D02*
X181484836Y-40581942D01*
X181484836Y-40581942D02*
X181437217Y-40677180D01*
X181437217Y-40677180D02*
X181389598Y-40724800D01*
X181389598Y-40724800D02*
X181294360Y-40772419D01*
X181294360Y-40772419D02*
X181008646Y-40772419D01*
X181008646Y-40772419D02*
X180913408Y-40724800D01*
X180913408Y-40724800D02*
X180865789Y-40677180D01*
X181865789Y-39867657D02*
X181913408Y-39820038D01*
X181913408Y-39820038D02*
X182008646Y-39772419D01*
X182008646Y-39772419D02*
X182246741Y-39772419D01*
X182246741Y-39772419D02*
X182341979Y-39820038D01*
X182341979Y-39820038D02*
X182389598Y-39867657D01*
X182389598Y-39867657D02*
X182437217Y-39962895D01*
X182437217Y-39962895D02*
X182437217Y-40058133D01*
X182437217Y-40058133D02*
X182389598Y-40200990D01*
X182389598Y-40200990D02*
X181818170Y-40772419D01*
X181818170Y-40772419D02*
X182437217Y-40772419D01*
X183580075Y-40724800D02*
X183722932Y-40772419D01*
X183722932Y-40772419D02*
X183961027Y-40772419D01*
X183961027Y-40772419D02*
X184056265Y-40724800D01*
X184056265Y-40724800D02*
X184103884Y-40677180D01*
X184103884Y-40677180D02*
X184151503Y-40581942D01*
X184151503Y-40581942D02*
X184151503Y-40486704D01*
X184151503Y-40486704D02*
X184103884Y-40391466D01*
X184103884Y-40391466D02*
X184056265Y-40343847D01*
X184056265Y-40343847D02*
X183961027Y-40296228D01*
X183961027Y-40296228D02*
X183770551Y-40248609D01*
X183770551Y-40248609D02*
X183675313Y-40200990D01*
X183675313Y-40200990D02*
X183627694Y-40153371D01*
X183627694Y-40153371D02*
X183580075Y-40058133D01*
X183580075Y-40058133D02*
X183580075Y-39962895D01*
X183580075Y-39962895D02*
X183627694Y-39867657D01*
X183627694Y-39867657D02*
X183675313Y-39820038D01*
X183675313Y-39820038D02*
X183770551Y-39772419D01*
X183770551Y-39772419D02*
X184008646Y-39772419D01*
X184008646Y-39772419D02*
X184151503Y-39820038D01*
X184484837Y-39772419D02*
X185103884Y-39772419D01*
X185103884Y-39772419D02*
X184770551Y-40153371D01*
X184770551Y-40153371D02*
X184913408Y-40153371D01*
X184913408Y-40153371D02*
X185008646Y-40200990D01*
X185008646Y-40200990D02*
X185056265Y-40248609D01*
X185056265Y-40248609D02*
X185103884Y-40343847D01*
X185103884Y-40343847D02*
X185103884Y-40581942D01*
X185103884Y-40581942D02*
X185056265Y-40677180D01*
X185056265Y-40677180D02*
X185008646Y-40724800D01*
X185008646Y-40724800D02*
X184913408Y-40772419D01*
X184913408Y-40772419D02*
X184627694Y-40772419D01*
X184627694Y-40772419D02*
X184532456Y-40724800D01*
X184532456Y-40724800D02*
X184484837Y-40677180D01*
X186294361Y-40772419D02*
X186294361Y-39772419D01*
X186294361Y-39772419D02*
X186627694Y-40486704D01*
X186627694Y-40486704D02*
X186961027Y-39772419D01*
X186961027Y-39772419D02*
X186961027Y-40772419D01*
X187437218Y-40772419D02*
X187437218Y-40105752D01*
X187437218Y-39772419D02*
X187389599Y-39820038D01*
X187389599Y-39820038D02*
X187437218Y-39867657D01*
X187437218Y-39867657D02*
X187484837Y-39820038D01*
X187484837Y-39820038D02*
X187437218Y-39772419D01*
X187437218Y-39772419D02*
X187437218Y-39867657D01*
X187913408Y-40105752D02*
X187913408Y-40772419D01*
X187913408Y-40200990D02*
X187961027Y-40153371D01*
X187961027Y-40153371D02*
X188056265Y-40105752D01*
X188056265Y-40105752D02*
X188199122Y-40105752D01*
X188199122Y-40105752D02*
X188294360Y-40153371D01*
X188294360Y-40153371D02*
X188341979Y-40248609D01*
X188341979Y-40248609D02*
X188341979Y-40772419D01*
X188818170Y-40772419D02*
X188818170Y-40105752D01*
X188818170Y-39772419D02*
X188770551Y-39820038D01*
X188770551Y-39820038D02*
X188818170Y-39867657D01*
X188818170Y-39867657D02*
X188865789Y-39820038D01*
X188865789Y-39820038D02*
X188818170Y-39772419D01*
X188818170Y-39772419D02*
X188818170Y-39867657D01*
X190803884Y-66697419D02*
X190803884Y-65697419D01*
X190803884Y-65697419D02*
X191137217Y-66411704D01*
X191137217Y-66411704D02*
X191470550Y-65697419D01*
X191470550Y-65697419D02*
X191470550Y-66697419D01*
X191946741Y-66697419D02*
X191946741Y-66030752D01*
X191946741Y-65697419D02*
X191899122Y-65745038D01*
X191899122Y-65745038D02*
X191946741Y-65792657D01*
X191946741Y-65792657D02*
X191994360Y-65745038D01*
X191994360Y-65745038D02*
X191946741Y-65697419D01*
X191946741Y-65697419D02*
X191946741Y-65792657D01*
X192422931Y-66030752D02*
X192422931Y-66697419D01*
X192422931Y-66125990D02*
X192470550Y-66078371D01*
X192470550Y-66078371D02*
X192565788Y-66030752D01*
X192565788Y-66030752D02*
X192708645Y-66030752D01*
X192708645Y-66030752D02*
X192803883Y-66078371D01*
X192803883Y-66078371D02*
X192851502Y-66173609D01*
X192851502Y-66173609D02*
X192851502Y-66697419D01*
X193327693Y-66697419D02*
X193327693Y-66030752D01*
X193327693Y-65697419D02*
X193280074Y-65745038D01*
X193280074Y-65745038D02*
X193327693Y-65792657D01*
X193327693Y-65792657D02*
X193375312Y-65745038D01*
X193375312Y-65745038D02*
X193327693Y-65697419D01*
X193327693Y-65697419D02*
X193327693Y-65792657D01*
X194470550Y-65697419D02*
X195089597Y-65697419D01*
X195089597Y-65697419D02*
X194756264Y-66078371D01*
X194756264Y-66078371D02*
X194899121Y-66078371D01*
X194899121Y-66078371D02*
X194994359Y-66125990D01*
X194994359Y-66125990D02*
X195041978Y-66173609D01*
X195041978Y-66173609D02*
X195089597Y-66268847D01*
X195089597Y-66268847D02*
X195089597Y-66506942D01*
X195089597Y-66506942D02*
X195041978Y-66602180D01*
X195041978Y-66602180D02*
X194994359Y-66649800D01*
X194994359Y-66649800D02*
X194899121Y-66697419D01*
X194899121Y-66697419D02*
X194613407Y-66697419D01*
X194613407Y-66697419D02*
X194518169Y-66649800D01*
X194518169Y-66649800D02*
X194470550Y-66602180D01*
X195946740Y-65697419D02*
X195756264Y-65697419D01*
X195756264Y-65697419D02*
X195661026Y-65745038D01*
X195661026Y-65745038D02*
X195613407Y-65792657D01*
X195613407Y-65792657D02*
X195518169Y-65935514D01*
X195518169Y-65935514D02*
X195470550Y-66125990D01*
X195470550Y-66125990D02*
X195470550Y-66506942D01*
X195470550Y-66506942D02*
X195518169Y-66602180D01*
X195518169Y-66602180D02*
X195565788Y-66649800D01*
X195565788Y-66649800D02*
X195661026Y-66697419D01*
X195661026Y-66697419D02*
X195851502Y-66697419D01*
X195851502Y-66697419D02*
X195946740Y-66649800D01*
X195946740Y-66649800D02*
X195994359Y-66602180D01*
X195994359Y-66602180D02*
X196041978Y-66506942D01*
X196041978Y-66506942D02*
X196041978Y-66268847D01*
X196041978Y-66268847D02*
X195994359Y-66173609D01*
X195994359Y-66173609D02*
X195946740Y-66125990D01*
X195946740Y-66125990D02*
X195851502Y-66078371D01*
X195851502Y-66078371D02*
X195661026Y-66078371D01*
X195661026Y-66078371D02*
X195565788Y-66125990D01*
X195565788Y-66125990D02*
X195518169Y-66173609D01*
X195518169Y-66173609D02*
X195470550Y-66268847D01*
X196661026Y-65697419D02*
X196756264Y-65697419D01*
X196756264Y-65697419D02*
X196851502Y-65745038D01*
X196851502Y-65745038D02*
X196899121Y-65792657D01*
X196899121Y-65792657D02*
X196946740Y-65887895D01*
X196946740Y-65887895D02*
X196994359Y-66078371D01*
X196994359Y-66078371D02*
X196994359Y-66316466D01*
X196994359Y-66316466D02*
X196946740Y-66506942D01*
X196946740Y-66506942D02*
X196899121Y-66602180D01*
X196899121Y-66602180D02*
X196851502Y-66649800D01*
X196851502Y-66649800D02*
X196756264Y-66697419D01*
X196756264Y-66697419D02*
X196661026Y-66697419D01*
X196661026Y-66697419D02*
X196565788Y-66649800D01*
X196565788Y-66649800D02*
X196518169Y-66602180D01*
X196518169Y-66602180D02*
X196470550Y-66506942D01*
X196470550Y-66506942D02*
X196422931Y-66316466D01*
X196422931Y-66316466D02*
X196422931Y-66078371D01*
X196422931Y-66078371D02*
X196470550Y-65887895D01*
X196470550Y-65887895D02*
X196518169Y-65792657D01*
X196518169Y-65792657D02*
X196565788Y-65745038D01*
X196565788Y-65745038D02*
X196661026Y-65697419D01*
X161577693Y-72047419D02*
X161006265Y-72047419D01*
X161291979Y-72047419D02*
X161291979Y-71047419D01*
X161291979Y-71047419D02*
X161196741Y-71190276D01*
X161196741Y-71190276D02*
X161101503Y-71285514D01*
X161101503Y-71285514D02*
X161006265Y-71333133D01*
X162196741Y-71047419D02*
X162291979Y-71047419D01*
X162291979Y-71047419D02*
X162387217Y-71095038D01*
X162387217Y-71095038D02*
X162434836Y-71142657D01*
X162434836Y-71142657D02*
X162482455Y-71237895D01*
X162482455Y-71237895D02*
X162530074Y-71428371D01*
X162530074Y-71428371D02*
X162530074Y-71666466D01*
X162530074Y-71666466D02*
X162482455Y-71856942D01*
X162482455Y-71856942D02*
X162434836Y-71952180D01*
X162434836Y-71952180D02*
X162387217Y-71999800D01*
X162387217Y-71999800D02*
X162291979Y-72047419D01*
X162291979Y-72047419D02*
X162196741Y-72047419D01*
X162196741Y-72047419D02*
X162101503Y-71999800D01*
X162101503Y-71999800D02*
X162053884Y-71952180D01*
X162053884Y-71952180D02*
X162006265Y-71856942D01*
X162006265Y-71856942D02*
X161958646Y-71666466D01*
X161958646Y-71666466D02*
X161958646Y-71428371D01*
X161958646Y-71428371D02*
X162006265Y-71237895D01*
X162006265Y-71237895D02*
X162053884Y-71142657D01*
X162053884Y-71142657D02*
X162101503Y-71095038D01*
X162101503Y-71095038D02*
X162196741Y-71047419D01*
X163149122Y-71047419D02*
X163244360Y-71047419D01*
X163244360Y-71047419D02*
X163339598Y-71095038D01*
X163339598Y-71095038D02*
X163387217Y-71142657D01*
X163387217Y-71142657D02*
X163434836Y-71237895D01*
X163434836Y-71237895D02*
X163482455Y-71428371D01*
X163482455Y-71428371D02*
X163482455Y-71666466D01*
X163482455Y-71666466D02*
X163434836Y-71856942D01*
X163434836Y-71856942D02*
X163387217Y-71952180D01*
X163387217Y-71952180D02*
X163339598Y-71999800D01*
X163339598Y-71999800D02*
X163244360Y-72047419D01*
X163244360Y-72047419D02*
X163149122Y-72047419D01*
X163149122Y-72047419D02*
X163053884Y-71999800D01*
X163053884Y-71999800D02*
X163006265Y-71952180D01*
X163006265Y-71952180D02*
X162958646Y-71856942D01*
X162958646Y-71856942D02*
X162911027Y-71666466D01*
X162911027Y-71666466D02*
X162911027Y-71428371D01*
X162911027Y-71428371D02*
X162958646Y-71237895D01*
X162958646Y-71237895D02*
X163006265Y-71142657D01*
X163006265Y-71142657D02*
X163053884Y-71095038D01*
X163053884Y-71095038D02*
X163149122Y-71047419D01*
X164339598Y-71380752D02*
X164339598Y-72047419D01*
X163911027Y-71380752D02*
X163911027Y-71904561D01*
X163911027Y-71904561D02*
X163958646Y-71999800D01*
X163958646Y-71999800D02*
X164053884Y-72047419D01*
X164053884Y-72047419D02*
X164196741Y-72047419D01*
X164196741Y-72047419D02*
X164291979Y-71999800D01*
X164291979Y-71999800D02*
X164339598Y-71952180D01*
X165149122Y-71523609D02*
X164815789Y-71523609D01*
X164815789Y-72047419D02*
X164815789Y-71047419D01*
X164815789Y-71047419D02*
X165291979Y-71047419D01*
X141181265Y-28986704D02*
X141657455Y-28986704D01*
X141086027Y-29272419D02*
X141419360Y-28272419D01*
X141419360Y-28272419D02*
X141752693Y-29272419D01*
X141990789Y-29272419D02*
X142514598Y-28605752D01*
X141990789Y-28605752D02*
X142514598Y-29272419D01*
X142895551Y-29272419D02*
X142895551Y-28605752D01*
X142895551Y-28272419D02*
X142847932Y-28320038D01*
X142847932Y-28320038D02*
X142895551Y-28367657D01*
X142895551Y-28367657D02*
X142943170Y-28320038D01*
X142943170Y-28320038D02*
X142895551Y-28272419D01*
X142895551Y-28272419D02*
X142895551Y-28367657D01*
X143324122Y-29224800D02*
X143419360Y-29272419D01*
X143419360Y-29272419D02*
X143609836Y-29272419D01*
X143609836Y-29272419D02*
X143705074Y-29224800D01*
X143705074Y-29224800D02*
X143752693Y-29129561D01*
X143752693Y-29129561D02*
X143752693Y-29081942D01*
X143752693Y-29081942D02*
X143705074Y-28986704D01*
X143705074Y-28986704D02*
X143609836Y-28939085D01*
X143609836Y-28939085D02*
X143466979Y-28939085D01*
X143466979Y-28939085D02*
X143371741Y-28891466D01*
X143371741Y-28891466D02*
X143324122Y-28796228D01*
X143324122Y-28796228D02*
X143324122Y-28748609D01*
X143324122Y-28748609D02*
X143371741Y-28653371D01*
X143371741Y-28653371D02*
X143466979Y-28605752D01*
X143466979Y-28605752D02*
X143609836Y-28605752D01*
X143609836Y-28605752D02*
X143705074Y-28653371D01*
X144133646Y-28367657D02*
X144181265Y-28320038D01*
X144181265Y-28320038D02*
X144276503Y-28272419D01*
X144276503Y-28272419D02*
X144514598Y-28272419D01*
X144514598Y-28272419D02*
X144609836Y-28320038D01*
X144609836Y-28320038D02*
X144657455Y-28367657D01*
X144657455Y-28367657D02*
X144705074Y-28462895D01*
X144705074Y-28462895D02*
X144705074Y-28558133D01*
X144705074Y-28558133D02*
X144657455Y-28700990D01*
X144657455Y-28700990D02*
X144086027Y-29272419D01*
X144086027Y-29272419D02*
X144705074Y-29272419D01*
X145895551Y-29272419D02*
X145895551Y-28272419D01*
X145895551Y-28272419D02*
X146133646Y-28272419D01*
X146133646Y-28272419D02*
X146276503Y-28320038D01*
X146276503Y-28320038D02*
X146371741Y-28415276D01*
X146371741Y-28415276D02*
X146419360Y-28510514D01*
X146419360Y-28510514D02*
X146466979Y-28700990D01*
X146466979Y-28700990D02*
X146466979Y-28843847D01*
X146466979Y-28843847D02*
X146419360Y-29034323D01*
X146419360Y-29034323D02*
X146371741Y-29129561D01*
X146371741Y-29129561D02*
X146276503Y-29224800D01*
X146276503Y-29224800D02*
X146133646Y-29272419D01*
X146133646Y-29272419D02*
X145895551Y-29272419D01*
X146895551Y-28748609D02*
X147228884Y-28748609D01*
X147371741Y-29272419D02*
X146895551Y-29272419D01*
X146895551Y-29272419D02*
X146895551Y-28272419D01*
X146895551Y-28272419D02*
X147371741Y-28272419D01*
X148371741Y-29177180D02*
X148324122Y-29224800D01*
X148324122Y-29224800D02*
X148181265Y-29272419D01*
X148181265Y-29272419D02*
X148086027Y-29272419D01*
X148086027Y-29272419D02*
X147943170Y-29224800D01*
X147943170Y-29224800D02*
X147847932Y-29129561D01*
X147847932Y-29129561D02*
X147800313Y-29034323D01*
X147800313Y-29034323D02*
X147752694Y-28843847D01*
X147752694Y-28843847D02*
X147752694Y-28700990D01*
X147752694Y-28700990D02*
X147800313Y-28510514D01*
X147800313Y-28510514D02*
X147847932Y-28415276D01*
X147847932Y-28415276D02*
X147943170Y-28320038D01*
X147943170Y-28320038D02*
X148086027Y-28272419D01*
X148086027Y-28272419D02*
X148181265Y-28272419D01*
X148181265Y-28272419D02*
X148324122Y-28320038D01*
X148324122Y-28320038D02*
X148371741Y-28367657D01*
X172808646Y-76472419D02*
X173475312Y-76472419D01*
X173475312Y-76472419D02*
X172808646Y-77472419D01*
X172808646Y-77472419D02*
X173475312Y-77472419D01*
X174046741Y-76996228D02*
X174046741Y-77472419D01*
X173713408Y-76472419D02*
X174046741Y-76996228D01*
X174046741Y-76996228D02*
X174380074Y-76472419D01*
X174713408Y-77091466D02*
X175475313Y-77091466D01*
X176522931Y-77377180D02*
X176475312Y-77424800D01*
X176475312Y-77424800D02*
X176332455Y-77472419D01*
X176332455Y-77472419D02*
X176237217Y-77472419D01*
X176237217Y-77472419D02*
X176094360Y-77424800D01*
X176094360Y-77424800D02*
X175999122Y-77329561D01*
X175999122Y-77329561D02*
X175951503Y-77234323D01*
X175951503Y-77234323D02*
X175903884Y-77043847D01*
X175903884Y-77043847D02*
X175903884Y-76900990D01*
X175903884Y-76900990D02*
X175951503Y-76710514D01*
X175951503Y-76710514D02*
X175999122Y-76615276D01*
X175999122Y-76615276D02*
X176094360Y-76520038D01*
X176094360Y-76520038D02*
X176237217Y-76472419D01*
X176237217Y-76472419D02*
X176332455Y-76472419D01*
X176332455Y-76472419D02*
X176475312Y-76520038D01*
X176475312Y-76520038D02*
X176522931Y-76567657D01*
X176951503Y-77472419D02*
X176951503Y-76472419D01*
X176951503Y-76472419D02*
X177332455Y-76472419D01*
X177332455Y-76472419D02*
X177427693Y-76520038D01*
X177427693Y-76520038D02*
X177475312Y-76567657D01*
X177475312Y-76567657D02*
X177522931Y-76662895D01*
X177522931Y-76662895D02*
X177522931Y-76805752D01*
X177522931Y-76805752D02*
X177475312Y-76900990D01*
X177475312Y-76900990D02*
X177427693Y-76948609D01*
X177427693Y-76948609D02*
X177332455Y-76996228D01*
X177332455Y-76996228D02*
X176951503Y-76996228D01*
X177903884Y-76567657D02*
X177951503Y-76520038D01*
X177951503Y-76520038D02*
X178046741Y-76472419D01*
X178046741Y-76472419D02*
X178284836Y-76472419D01*
X178284836Y-76472419D02*
X178380074Y-76520038D01*
X178380074Y-76520038D02*
X178427693Y-76567657D01*
X178427693Y-76567657D02*
X178475312Y-76662895D01*
X178475312Y-76662895D02*
X178475312Y-76758133D01*
X178475312Y-76758133D02*
X178427693Y-76900990D01*
X178427693Y-76900990D02*
X177856265Y-77472419D01*
X177856265Y-77472419D02*
X178475312Y-77472419D01*
X179427693Y-77472419D02*
X178856265Y-77472419D01*
X179141979Y-77472419D02*
X179141979Y-76472419D01*
X179141979Y-76472419D02*
X179046741Y-76615276D01*
X179046741Y-76615276D02*
X178951503Y-76710514D01*
X178951503Y-76710514D02*
X178856265Y-76758133D01*
X180046741Y-76472419D02*
X180141979Y-76472419D01*
X180141979Y-76472419D02*
X180237217Y-76520038D01*
X180237217Y-76520038D02*
X180284836Y-76567657D01*
X180284836Y-76567657D02*
X180332455Y-76662895D01*
X180332455Y-76662895D02*
X180380074Y-76853371D01*
X180380074Y-76853371D02*
X180380074Y-77091466D01*
X180380074Y-77091466D02*
X180332455Y-77281942D01*
X180332455Y-77281942D02*
X180284836Y-77377180D01*
X180284836Y-77377180D02*
X180237217Y-77424800D01*
X180237217Y-77424800D02*
X180141979Y-77472419D01*
X180141979Y-77472419D02*
X180046741Y-77472419D01*
X180046741Y-77472419D02*
X179951503Y-77424800D01*
X179951503Y-77424800D02*
X179903884Y-77377180D01*
X179903884Y-77377180D02*
X179856265Y-77281942D01*
X179856265Y-77281942D02*
X179808646Y-77091466D01*
X179808646Y-77091466D02*
X179808646Y-76853371D01*
X179808646Y-76853371D02*
X179856265Y-76662895D01*
X179856265Y-76662895D02*
X179903884Y-76567657D01*
X179903884Y-76567657D02*
X179951503Y-76520038D01*
X179951503Y-76520038D02*
X180046741Y-76472419D01*
X180761027Y-76567657D02*
X180808646Y-76520038D01*
X180808646Y-76520038D02*
X180903884Y-76472419D01*
X180903884Y-76472419D02*
X181141979Y-76472419D01*
X181141979Y-76472419D02*
X181237217Y-76520038D01*
X181237217Y-76520038D02*
X181284836Y-76567657D01*
X181284836Y-76567657D02*
X181332455Y-76662895D01*
X181332455Y-76662895D02*
X181332455Y-76758133D01*
X181332455Y-76758133D02*
X181284836Y-76900990D01*
X181284836Y-76900990D02*
X180713408Y-77472419D01*
X180713408Y-77472419D02*
X181332455Y-77472419D01*
X176602693Y-55972419D02*
X176031265Y-55972419D01*
X176316979Y-55972419D02*
X176316979Y-54972419D01*
X176316979Y-54972419D02*
X176221741Y-55115276D01*
X176221741Y-55115276D02*
X176126503Y-55210514D01*
X176126503Y-55210514D02*
X176031265Y-55258133D01*
X177031265Y-55972419D02*
X177031265Y-54972419D01*
X177602693Y-55972419D02*
X177174122Y-55400990D01*
X177602693Y-54972419D02*
X177031265Y-55543847D01*
X138152693Y-46647419D02*
X137581265Y-46647419D01*
X137866979Y-46647419D02*
X137866979Y-45647419D01*
X137866979Y-45647419D02*
X137771741Y-45790276D01*
X137771741Y-45790276D02*
X137676503Y-45885514D01*
X137676503Y-45885514D02*
X137581265Y-45933133D01*
X138771741Y-45647419D02*
X138866979Y-45647419D01*
X138866979Y-45647419D02*
X138962217Y-45695038D01*
X138962217Y-45695038D02*
X139009836Y-45742657D01*
X139009836Y-45742657D02*
X139057455Y-45837895D01*
X139057455Y-45837895D02*
X139105074Y-46028371D01*
X139105074Y-46028371D02*
X139105074Y-46266466D01*
X139105074Y-46266466D02*
X139057455Y-46456942D01*
X139057455Y-46456942D02*
X139009836Y-46552180D01*
X139009836Y-46552180D02*
X138962217Y-46599800D01*
X138962217Y-46599800D02*
X138866979Y-46647419D01*
X138866979Y-46647419D02*
X138771741Y-46647419D01*
X138771741Y-46647419D02*
X138676503Y-46599800D01*
X138676503Y-46599800D02*
X138628884Y-46552180D01*
X138628884Y-46552180D02*
X138581265Y-46456942D01*
X138581265Y-46456942D02*
X138533646Y-46266466D01*
X138533646Y-46266466D02*
X138533646Y-46028371D01*
X138533646Y-46028371D02*
X138581265Y-45837895D01*
X138581265Y-45837895D02*
X138628884Y-45742657D01*
X138628884Y-45742657D02*
X138676503Y-45695038D01*
X138676503Y-45695038D02*
X138771741Y-45647419D01*
X139724122Y-45647419D02*
X139819360Y-45647419D01*
X139819360Y-45647419D02*
X139914598Y-45695038D01*
X139914598Y-45695038D02*
X139962217Y-45742657D01*
X139962217Y-45742657D02*
X140009836Y-45837895D01*
X140009836Y-45837895D02*
X140057455Y-46028371D01*
X140057455Y-46028371D02*
X140057455Y-46266466D01*
X140057455Y-46266466D02*
X140009836Y-46456942D01*
X140009836Y-46456942D02*
X139962217Y-46552180D01*
X139962217Y-46552180D02*
X139914598Y-46599800D01*
X139914598Y-46599800D02*
X139819360Y-46647419D01*
X139819360Y-46647419D02*
X139724122Y-46647419D01*
X139724122Y-46647419D02*
X139628884Y-46599800D01*
X139628884Y-46599800D02*
X139581265Y-46552180D01*
X139581265Y-46552180D02*
X139533646Y-46456942D01*
X139533646Y-46456942D02*
X139486027Y-46266466D01*
X139486027Y-46266466D02*
X139486027Y-46028371D01*
X139486027Y-46028371D02*
X139533646Y-45837895D01*
X139533646Y-45837895D02*
X139581265Y-45742657D01*
X139581265Y-45742657D02*
X139628884Y-45695038D01*
X139628884Y-45695038D02*
X139724122Y-45647419D01*
X140914598Y-45980752D02*
X140914598Y-46647419D01*
X140486027Y-45980752D02*
X140486027Y-46504561D01*
X140486027Y-46504561D02*
X140533646Y-46599800D01*
X140533646Y-46599800D02*
X140628884Y-46647419D01*
X140628884Y-46647419D02*
X140771741Y-46647419D01*
X140771741Y-46647419D02*
X140866979Y-46599800D01*
X140866979Y-46599800D02*
X140914598Y-46552180D01*
X141724122Y-46123609D02*
X141390789Y-46123609D01*
X141390789Y-46647419D02*
X141390789Y-45647419D01*
X141390789Y-45647419D02*
X141866979Y-45647419D01*
X143586027Y-63747419D02*
X144157455Y-63747419D01*
X143871741Y-64747419D02*
X143871741Y-63747419D01*
X144490789Y-64747419D02*
X144490789Y-63747419D01*
X144490789Y-63747419D02*
X144824122Y-64461704D01*
X144824122Y-64461704D02*
X145157455Y-63747419D01*
X145157455Y-63747419D02*
X145157455Y-64747419D01*
X146205074Y-64652180D02*
X146157455Y-64699800D01*
X146157455Y-64699800D02*
X146014598Y-64747419D01*
X146014598Y-64747419D02*
X145919360Y-64747419D01*
X145919360Y-64747419D02*
X145776503Y-64699800D01*
X145776503Y-64699800D02*
X145681265Y-64604561D01*
X145681265Y-64604561D02*
X145633646Y-64509323D01*
X145633646Y-64509323D02*
X145586027Y-64318847D01*
X145586027Y-64318847D02*
X145586027Y-64175990D01*
X145586027Y-64175990D02*
X145633646Y-63985514D01*
X145633646Y-63985514D02*
X145681265Y-63890276D01*
X145681265Y-63890276D02*
X145776503Y-63795038D01*
X145776503Y-63795038D02*
X145919360Y-63747419D01*
X145919360Y-63747419D02*
X146014598Y-63747419D01*
X146014598Y-63747419D02*
X146157455Y-63795038D01*
X146157455Y-63795038D02*
X146205074Y-63842657D01*
X146586027Y-63842657D02*
X146633646Y-63795038D01*
X146633646Y-63795038D02*
X146728884Y-63747419D01*
X146728884Y-63747419D02*
X146966979Y-63747419D01*
X146966979Y-63747419D02*
X147062217Y-63795038D01*
X147062217Y-63795038D02*
X147109836Y-63842657D01*
X147109836Y-63842657D02*
X147157455Y-63937895D01*
X147157455Y-63937895D02*
X147157455Y-64033133D01*
X147157455Y-64033133D02*
X147109836Y-64175990D01*
X147109836Y-64175990D02*
X146538408Y-64747419D01*
X146538408Y-64747419D02*
X147157455Y-64747419D01*
X147538408Y-63842657D02*
X147586027Y-63795038D01*
X147586027Y-63795038D02*
X147681265Y-63747419D01*
X147681265Y-63747419D02*
X147919360Y-63747419D01*
X147919360Y-63747419D02*
X148014598Y-63795038D01*
X148014598Y-63795038D02*
X148062217Y-63842657D01*
X148062217Y-63842657D02*
X148109836Y-63937895D01*
X148109836Y-63937895D02*
X148109836Y-64033133D01*
X148109836Y-64033133D02*
X148062217Y-64175990D01*
X148062217Y-64175990D02*
X147490789Y-64747419D01*
X147490789Y-64747419D02*
X148109836Y-64747419D01*
X148728884Y-63747419D02*
X148824122Y-63747419D01*
X148824122Y-63747419D02*
X148919360Y-63795038D01*
X148919360Y-63795038D02*
X148966979Y-63842657D01*
X148966979Y-63842657D02*
X149014598Y-63937895D01*
X149014598Y-63937895D02*
X149062217Y-64128371D01*
X149062217Y-64128371D02*
X149062217Y-64366466D01*
X149062217Y-64366466D02*
X149014598Y-64556942D01*
X149014598Y-64556942D02*
X148966979Y-64652180D01*
X148966979Y-64652180D02*
X148919360Y-64699800D01*
X148919360Y-64699800D02*
X148824122Y-64747419D01*
X148824122Y-64747419D02*
X148728884Y-64747419D01*
X148728884Y-64747419D02*
X148633646Y-64699800D01*
X148633646Y-64699800D02*
X148586027Y-64652180D01*
X148586027Y-64652180D02*
X148538408Y-64556942D01*
X148538408Y-64556942D02*
X148490789Y-64366466D01*
X148490789Y-64366466D02*
X148490789Y-64128371D01*
X148490789Y-64128371D02*
X148538408Y-63937895D01*
X148538408Y-63937895D02*
X148586027Y-63842657D01*
X148586027Y-63842657D02*
X148633646Y-63795038D01*
X148633646Y-63795038D02*
X148728884Y-63747419D01*
X149538408Y-64747419D02*
X149728884Y-64747419D01*
X149728884Y-64747419D02*
X149824122Y-64699800D01*
X149824122Y-64699800D02*
X149871741Y-64652180D01*
X149871741Y-64652180D02*
X149966979Y-64509323D01*
X149966979Y-64509323D02*
X150014598Y-64318847D01*
X150014598Y-64318847D02*
X150014598Y-63937895D01*
X150014598Y-63937895D02*
X149966979Y-63842657D01*
X149966979Y-63842657D02*
X149919360Y-63795038D01*
X149919360Y-63795038D02*
X149824122Y-63747419D01*
X149824122Y-63747419D02*
X149633646Y-63747419D01*
X149633646Y-63747419D02*
X149538408Y-63795038D01*
X149538408Y-63795038D02*
X149490789Y-63842657D01*
X149490789Y-63842657D02*
X149443170Y-63937895D01*
X149443170Y-63937895D02*
X149443170Y-64175990D01*
X149443170Y-64175990D02*
X149490789Y-64271228D01*
X149490789Y-64271228D02*
X149538408Y-64318847D01*
X149538408Y-64318847D02*
X149633646Y-64366466D01*
X149633646Y-64366466D02*
X149824122Y-64366466D01*
X149824122Y-64366466D02*
X149919360Y-64318847D01*
X149919360Y-64318847D02*
X149966979Y-64271228D01*
X149966979Y-64271228D02*
X150014598Y-64175990D01*
D11*
X139133333Y-52434580D02*
X139085714Y-52482200D01*
X139085714Y-52482200D02*
X138942857Y-52529819D01*
X138942857Y-52529819D02*
X138847619Y-52529819D01*
X138847619Y-52529819D02*
X138704762Y-52482200D01*
X138704762Y-52482200D02*
X138609524Y-52386961D01*
X138609524Y-52386961D02*
X138561905Y-52291723D01*
X138561905Y-52291723D02*
X138514286Y-52101247D01*
X138514286Y-52101247D02*
X138514286Y-51958390D01*
X138514286Y-51958390D02*
X138561905Y-51767914D01*
X138561905Y-51767914D02*
X138609524Y-51672676D01*
X138609524Y-51672676D02*
X138704762Y-51577438D01*
X138704762Y-51577438D02*
X138847619Y-51529819D01*
X138847619Y-51529819D02*
X138942857Y-51529819D01*
X138942857Y-51529819D02*
X139085714Y-51577438D01*
X139085714Y-51577438D02*
X139133333Y-51625057D01*
X139514286Y-51625057D02*
X139561905Y-51577438D01*
X139561905Y-51577438D02*
X139657143Y-51529819D01*
X139657143Y-51529819D02*
X139895238Y-51529819D01*
X139895238Y-51529819D02*
X139990476Y-51577438D01*
X139990476Y-51577438D02*
X140038095Y-51625057D01*
X140038095Y-51625057D02*
X140085714Y-51720295D01*
X140085714Y-51720295D02*
X140085714Y-51815533D01*
X140085714Y-51815533D02*
X140038095Y-51958390D01*
X140038095Y-51958390D02*
X139466667Y-52529819D01*
X139466667Y-52529819D02*
X140085714Y-52529819D01*
X142888095Y-68404819D02*
X142888095Y-69214342D01*
X142888095Y-69214342D02*
X142935714Y-69309580D01*
X142935714Y-69309580D02*
X142983333Y-69357200D01*
X142983333Y-69357200D02*
X143078571Y-69404819D01*
X143078571Y-69404819D02*
X143269047Y-69404819D01*
X143269047Y-69404819D02*
X143364285Y-69357200D01*
X143364285Y-69357200D02*
X143411904Y-69309580D01*
X143411904Y-69309580D02*
X143459523Y-69214342D01*
X143459523Y-69214342D02*
X143459523Y-68404819D01*
X144459523Y-69404819D02*
X143888095Y-69404819D01*
X144173809Y-69404819D02*
X144173809Y-68404819D01*
X144173809Y-68404819D02*
X144078571Y-68547676D01*
X144078571Y-68547676D02*
X143983333Y-68642914D01*
X143983333Y-68642914D02*
X143888095Y-68690533D01*
X176683333Y-57829819D02*
X176350000Y-57353628D01*
X176111905Y-57829819D02*
X176111905Y-56829819D01*
X176111905Y-56829819D02*
X176492857Y-56829819D01*
X176492857Y-56829819D02*
X176588095Y-56877438D01*
X176588095Y-56877438D02*
X176635714Y-56925057D01*
X176635714Y-56925057D02*
X176683333Y-57020295D01*
X176683333Y-57020295D02*
X176683333Y-57163152D01*
X176683333Y-57163152D02*
X176635714Y-57258390D01*
X176635714Y-57258390D02*
X176588095Y-57306009D01*
X176588095Y-57306009D02*
X176492857Y-57353628D01*
X176492857Y-57353628D02*
X176111905Y-57353628D01*
X177635714Y-57829819D02*
X177064286Y-57829819D01*
X177350000Y-57829819D02*
X177350000Y-56829819D01*
X177350000Y-56829819D02*
X177254762Y-56972676D01*
X177254762Y-56972676D02*
X177159524Y-57067914D01*
X177159524Y-57067914D02*
X177064286Y-57115533D01*
X150438095Y-42529819D02*
X150438095Y-43339342D01*
X150438095Y-43339342D02*
X150485714Y-43434580D01*
X150485714Y-43434580D02*
X150533333Y-43482200D01*
X150533333Y-43482200D02*
X150628571Y-43529819D01*
X150628571Y-43529819D02*
X150819047Y-43529819D01*
X150819047Y-43529819D02*
X150914285Y-43482200D01*
X150914285Y-43482200D02*
X150961904Y-43434580D01*
X150961904Y-43434580D02*
X151009523Y-43339342D01*
X151009523Y-43339342D02*
X151009523Y-42529819D01*
X151438095Y-42625057D02*
X151485714Y-42577438D01*
X151485714Y-42577438D02*
X151580952Y-42529819D01*
X151580952Y-42529819D02*
X151819047Y-42529819D01*
X151819047Y-42529819D02*
X151914285Y-42577438D01*
X151914285Y-42577438D02*
X151961904Y-42625057D01*
X151961904Y-42625057D02*
X152009523Y-42720295D01*
X152009523Y-42720295D02*
X152009523Y-42815533D01*
X152009523Y-42815533D02*
X151961904Y-42958390D01*
X151961904Y-42958390D02*
X151390476Y-43529819D01*
X151390476Y-43529819D02*
X152009523Y-43529819D01*
X193686905Y-54604819D02*
X193686905Y-53604819D01*
X193686905Y-53604819D02*
X193925000Y-53604819D01*
X193925000Y-53604819D02*
X194067857Y-53652438D01*
X194067857Y-53652438D02*
X194163095Y-53747676D01*
X194163095Y-53747676D02*
X194210714Y-53842914D01*
X194210714Y-53842914D02*
X194258333Y-54033390D01*
X194258333Y-54033390D02*
X194258333Y-54176247D01*
X194258333Y-54176247D02*
X194210714Y-54366723D01*
X194210714Y-54366723D02*
X194163095Y-54461961D01*
X194163095Y-54461961D02*
X194067857Y-54557200D01*
X194067857Y-54557200D02*
X193925000Y-54604819D01*
X193925000Y-54604819D02*
X193686905Y-54604819D01*
X195210714Y-54604819D02*
X194639286Y-54604819D01*
X194925000Y-54604819D02*
X194925000Y-53604819D01*
X194925000Y-53604819D02*
X194829762Y-53747676D01*
X194829762Y-53747676D02*
X194734524Y-53842914D01*
X194734524Y-53842914D02*
X194639286Y-53890533D01*
X165408333Y-69959580D02*
X165360714Y-70007200D01*
X165360714Y-70007200D02*
X165217857Y-70054819D01*
X165217857Y-70054819D02*
X165122619Y-70054819D01*
X165122619Y-70054819D02*
X164979762Y-70007200D01*
X164979762Y-70007200D02*
X164884524Y-69911961D01*
X164884524Y-69911961D02*
X164836905Y-69816723D01*
X164836905Y-69816723D02*
X164789286Y-69626247D01*
X164789286Y-69626247D02*
X164789286Y-69483390D01*
X164789286Y-69483390D02*
X164836905Y-69292914D01*
X164836905Y-69292914D02*
X164884524Y-69197676D01*
X164884524Y-69197676D02*
X164979762Y-69102438D01*
X164979762Y-69102438D02*
X165122619Y-69054819D01*
X165122619Y-69054819D02*
X165217857Y-69054819D01*
X165217857Y-69054819D02*
X165360714Y-69102438D01*
X165360714Y-69102438D02*
X165408333Y-69150057D01*
X166360714Y-70054819D02*
X165789286Y-70054819D01*
X166075000Y-70054819D02*
X166075000Y-69054819D01*
X166075000Y-69054819D02*
X165979762Y-69197676D01*
X165979762Y-69197676D02*
X165884524Y-69292914D01*
X165884524Y-69292914D02*
X165789286Y-69340533D01*
X146841666Y-30679819D02*
X146841666Y-31394104D01*
X146841666Y-31394104D02*
X146794047Y-31536961D01*
X146794047Y-31536961D02*
X146698809Y-31632200D01*
X146698809Y-31632200D02*
X146555952Y-31679819D01*
X146555952Y-31679819D02*
X146460714Y-31679819D01*
X147222619Y-30679819D02*
X147841666Y-30679819D01*
X147841666Y-30679819D02*
X147508333Y-31060771D01*
X147508333Y-31060771D02*
X147651190Y-31060771D01*
X147651190Y-31060771D02*
X147746428Y-31108390D01*
X147746428Y-31108390D02*
X147794047Y-31156009D01*
X147794047Y-31156009D02*
X147841666Y-31251247D01*
X147841666Y-31251247D02*
X147841666Y-31489342D01*
X147841666Y-31489342D02*
X147794047Y-31584580D01*
X147794047Y-31584580D02*
X147746428Y-31632200D01*
X147746428Y-31632200D02*
X147651190Y-31679819D01*
X147651190Y-31679819D02*
X147365476Y-31679819D01*
X147365476Y-31679819D02*
X147270238Y-31632200D01*
X147270238Y-31632200D02*
X147222619Y-31584580D01*
X183638095Y-31079819D02*
X183638095Y-31889342D01*
X183638095Y-31889342D02*
X183685714Y-31984580D01*
X183685714Y-31984580D02*
X183733333Y-32032200D01*
X183733333Y-32032200D02*
X183828571Y-32079819D01*
X183828571Y-32079819D02*
X184019047Y-32079819D01*
X184019047Y-32079819D02*
X184114285Y-32032200D01*
X184114285Y-32032200D02*
X184161904Y-31984580D01*
X184161904Y-31984580D02*
X184209523Y-31889342D01*
X184209523Y-31889342D02*
X184209523Y-31079819D01*
X185161904Y-31079819D02*
X184685714Y-31079819D01*
X184685714Y-31079819D02*
X184638095Y-31556009D01*
X184638095Y-31556009D02*
X184685714Y-31508390D01*
X184685714Y-31508390D02*
X184780952Y-31460771D01*
X184780952Y-31460771D02*
X185019047Y-31460771D01*
X185019047Y-31460771D02*
X185114285Y-31508390D01*
X185114285Y-31508390D02*
X185161904Y-31556009D01*
X185161904Y-31556009D02*
X185209523Y-31651247D01*
X185209523Y-31651247D02*
X185209523Y-31889342D01*
X185209523Y-31889342D02*
X185161904Y-31984580D01*
X185161904Y-31984580D02*
X185114285Y-32032200D01*
X185114285Y-32032200D02*
X185019047Y-32079819D01*
X185019047Y-32079819D02*
X184780952Y-32079819D01*
X184780952Y-32079819D02*
X184685714Y-32032200D01*
X184685714Y-32032200D02*
X184638095Y-31984580D01*
X176466666Y-79304819D02*
X176466666Y-80019104D01*
X176466666Y-80019104D02*
X176419047Y-80161961D01*
X176419047Y-80161961D02*
X176323809Y-80257200D01*
X176323809Y-80257200D02*
X176180952Y-80304819D01*
X176180952Y-80304819D02*
X176085714Y-80304819D01*
X177419047Y-79304819D02*
X176942857Y-79304819D01*
X176942857Y-79304819D02*
X176895238Y-79781009D01*
X176895238Y-79781009D02*
X176942857Y-79733390D01*
X176942857Y-79733390D02*
X177038095Y-79685771D01*
X177038095Y-79685771D02*
X177276190Y-79685771D01*
X177276190Y-79685771D02*
X177371428Y-79733390D01*
X177371428Y-79733390D02*
X177419047Y-79781009D01*
X177419047Y-79781009D02*
X177466666Y-79876247D01*
X177466666Y-79876247D02*
X177466666Y-80114342D01*
X177466666Y-80114342D02*
X177419047Y-80209580D01*
X177419047Y-80209580D02*
X177371428Y-80257200D01*
X177371428Y-80257200D02*
X177276190Y-80304819D01*
X177276190Y-80304819D02*
X177038095Y-80304819D01*
X177038095Y-80304819D02*
X176942857Y-80257200D01*
X176942857Y-80257200D02*
X176895238Y-80209580D01*
X190041666Y-83954819D02*
X190041666Y-84669104D01*
X190041666Y-84669104D02*
X189994047Y-84811961D01*
X189994047Y-84811961D02*
X189898809Y-84907200D01*
X189898809Y-84907200D02*
X189755952Y-84954819D01*
X189755952Y-84954819D02*
X189660714Y-84954819D01*
X191041666Y-84954819D02*
X190470238Y-84954819D01*
X190755952Y-84954819D02*
X190755952Y-83954819D01*
X190755952Y-83954819D02*
X190660714Y-84097676D01*
X190660714Y-84097676D02*
X190565476Y-84192914D01*
X190565476Y-84192914D02*
X190470238Y-84240533D01*
X199768095Y-70619819D02*
X199768095Y-71429342D01*
X199768095Y-71429342D02*
X199815714Y-71524580D01*
X199815714Y-71524580D02*
X199863333Y-71572200D01*
X199863333Y-71572200D02*
X199958571Y-71619819D01*
X199958571Y-71619819D02*
X200149047Y-71619819D01*
X200149047Y-71619819D02*
X200244285Y-71572200D01*
X200244285Y-71572200D02*
X200291904Y-71524580D01*
X200291904Y-71524580D02*
X200339523Y-71429342D01*
X200339523Y-71429342D02*
X200339523Y-70619819D01*
X201244285Y-70619819D02*
X201053809Y-70619819D01*
X201053809Y-70619819D02*
X200958571Y-70667438D01*
X200958571Y-70667438D02*
X200910952Y-70715057D01*
X200910952Y-70715057D02*
X200815714Y-70857914D01*
X200815714Y-70857914D02*
X200768095Y-71048390D01*
X200768095Y-71048390D02*
X200768095Y-71429342D01*
X200768095Y-71429342D02*
X200815714Y-71524580D01*
X200815714Y-71524580D02*
X200863333Y-71572200D01*
X200863333Y-71572200D02*
X200958571Y-71619819D01*
X200958571Y-71619819D02*
X201149047Y-71619819D01*
X201149047Y-71619819D02*
X201244285Y-71572200D01*
X201244285Y-71572200D02*
X201291904Y-71524580D01*
X201291904Y-71524580D02*
X201339523Y-71429342D01*
X201339523Y-71429342D02*
X201339523Y-71191247D01*
X201339523Y-71191247D02*
X201291904Y-71096009D01*
X201291904Y-71096009D02*
X201244285Y-71048390D01*
X201244285Y-71048390D02*
X201149047Y-71000771D01*
X201149047Y-71000771D02*
X200958571Y-71000771D01*
X200958571Y-71000771D02*
X200863333Y-71048390D01*
X200863333Y-71048390D02*
X200815714Y-71096009D01*
X200815714Y-71096009D02*
X200768095Y-71191247D01*
X201419048Y-61078866D02*
X202180953Y-61078866D01*
X201800000Y-61459819D02*
X201800000Y-60697914D01*
X186179048Y-67428866D02*
X186940953Y-67428866D01*
X201419048Y-67428866D02*
X202180953Y-67428866D01*
X186179048Y-61078866D02*
X186940953Y-61078866D01*
X186560000Y-61459819D02*
X186560000Y-60697914D01*
X158891666Y-82254819D02*
X158891666Y-82969104D01*
X158891666Y-82969104D02*
X158844047Y-83111961D01*
X158844047Y-83111961D02*
X158748809Y-83207200D01*
X158748809Y-83207200D02*
X158605952Y-83254819D01*
X158605952Y-83254819D02*
X158510714Y-83254819D01*
X159320238Y-82350057D02*
X159367857Y-82302438D01*
X159367857Y-82302438D02*
X159463095Y-82254819D01*
X159463095Y-82254819D02*
X159701190Y-82254819D01*
X159701190Y-82254819D02*
X159796428Y-82302438D01*
X159796428Y-82302438D02*
X159844047Y-82350057D01*
X159844047Y-82350057D02*
X159891666Y-82445295D01*
X159891666Y-82445295D02*
X159891666Y-82540533D01*
X159891666Y-82540533D02*
X159844047Y-82683390D01*
X159844047Y-82683390D02*
X159272619Y-83254819D01*
X159272619Y-83254819D02*
X159891666Y-83254819D01*
X176191666Y-72979819D02*
X176191666Y-73694104D01*
X176191666Y-73694104D02*
X176144047Y-73836961D01*
X176144047Y-73836961D02*
X176048809Y-73932200D01*
X176048809Y-73932200D02*
X175905952Y-73979819D01*
X175905952Y-73979819D02*
X175810714Y-73979819D01*
X177096428Y-73313152D02*
X177096428Y-73979819D01*
X176858333Y-72932200D02*
X176620238Y-73646485D01*
X176620238Y-73646485D02*
X177239285Y-73646485D01*
X199796666Y-36494819D02*
X199796666Y-37209104D01*
X199796666Y-37209104D02*
X199749047Y-37351961D01*
X199749047Y-37351961D02*
X199653809Y-37447200D01*
X199653809Y-37447200D02*
X199510952Y-37494819D01*
X199510952Y-37494819D02*
X199415714Y-37494819D01*
X200701428Y-36494819D02*
X200510952Y-36494819D01*
X200510952Y-36494819D02*
X200415714Y-36542438D01*
X200415714Y-36542438D02*
X200368095Y-36590057D01*
X200368095Y-36590057D02*
X200272857Y-36732914D01*
X200272857Y-36732914D02*
X200225238Y-36923390D01*
X200225238Y-36923390D02*
X200225238Y-37304342D01*
X200225238Y-37304342D02*
X200272857Y-37399580D01*
X200272857Y-37399580D02*
X200320476Y-37447200D01*
X200320476Y-37447200D02*
X200415714Y-37494819D01*
X200415714Y-37494819D02*
X200606190Y-37494819D01*
X200606190Y-37494819D02*
X200701428Y-37447200D01*
X200701428Y-37447200D02*
X200749047Y-37399580D01*
X200749047Y-37399580D02*
X200796666Y-37304342D01*
X200796666Y-37304342D02*
X200796666Y-37066247D01*
X200796666Y-37066247D02*
X200749047Y-36971009D01*
X200749047Y-36971009D02*
X200701428Y-36923390D01*
X200701428Y-36923390D02*
X200606190Y-36875771D01*
X200606190Y-36875771D02*
X200415714Y-36875771D01*
X200415714Y-36875771D02*
X200320476Y-36923390D01*
X200320476Y-36923390D02*
X200272857Y-36971009D01*
X200272857Y-36971009D02*
X200225238Y-37066247D01*
D12*
%TO.C,C2*%
X136215000Y-42865000D02*
X138565000Y-42865000D01*
X136215000Y-48620563D02*
X136215000Y-42865000D01*
X137279437Y-49685000D02*
X136215000Y-48620563D01*
X137279437Y-49685000D02*
X138565000Y-49685000D01*
X137383750Y-50318750D02*
X138171250Y-50318750D01*
X137777500Y-50712500D02*
X137777500Y-49925000D01*
X141970563Y-49685000D02*
X140685000Y-49685000D01*
X141970563Y-49685000D02*
X143035000Y-48620563D01*
X143035000Y-42865000D02*
X140685000Y-42865000D01*
X143035000Y-48620563D02*
X143035000Y-42865000D01*
D13*
%TO.C,U1*%
X137390000Y-59905000D02*
X157710000Y-59905000D01*
X137390000Y-75145000D02*
X137390000Y-59905000D01*
X157710000Y-59905000D02*
X157710000Y-75145000D01*
X157710000Y-75145000D02*
X137390000Y-75145000D01*
D14*
X138760000Y-75725000D02*
G75*
G02*
X138560000Y-75725000I-100000J0D01*
G01*
X138560000Y-75725000D02*
G75*
G02*
X138760000Y-75725000I100000J0D01*
G01*
D12*
%TO.C,R1*%
X176085436Y-54565000D02*
X177539564Y-54565000D01*
X176085436Y-56385000D02*
X177539564Y-56385000D01*
D13*
%TO.C,U2*%
X145090000Y-37280000D02*
X165410000Y-37280000D01*
X145090000Y-52520000D02*
X145090000Y-37280000D01*
X165410000Y-37280000D02*
X165410000Y-52520000D01*
X165410000Y-52520000D02*
X145090000Y-52520000D01*
D14*
X164240000Y-36700000D02*
G75*
G02*
X164040000Y-36700000I-100000J0D01*
G01*
X164040000Y-36700000D02*
G75*
G02*
X164240000Y-36700000I100000J0D01*
G01*
D12*
%TO.C,D1*%
X201715000Y-55070000D02*
X201715000Y-51980000D01*
X196165000Y-53525000D02*
G75*
G02*
X201715000Y-51980170I2990000J0D01*
G01*
X201715000Y-55069830D02*
G75*
G02*
X196165000Y-53525000I-2560000J1544830D01*
G01*
X201655000Y-53525000D02*
G75*
G02*
X196655000Y-53525000I-2500000J0D01*
G01*
X196655000Y-53525000D02*
G75*
G02*
X201655000Y-53525000I2500000J0D01*
G01*
%TO.C,C1*%
X160065000Y-69204437D02*
X160065000Y-74960000D01*
X160065000Y-74960000D02*
X162415000Y-74960000D01*
X161129437Y-68140000D02*
X160065000Y-69204437D01*
X161129437Y-68140000D02*
X162415000Y-68140000D01*
X165322500Y-67112500D02*
X165322500Y-67900000D01*
X165716250Y-67506250D02*
X164928750Y-67506250D01*
X165820563Y-68140000D02*
X164535000Y-68140000D01*
X165820563Y-68140000D02*
X166885000Y-69204437D01*
X166885000Y-69204437D02*
X166885000Y-74960000D01*
X166885000Y-74960000D02*
X164535000Y-74960000D01*
%TO.C,J3*%
X149000000Y-31625000D02*
X149750000Y-31625000D01*
X149750000Y-28675000D02*
X155300000Y-28675000D01*
X149750000Y-31625000D02*
X149750000Y-28675000D01*
X160650000Y-34175000D02*
X161900000Y-34175000D01*
X160850000Y-28675000D02*
X155300000Y-28675000D01*
X160850000Y-31625000D02*
X160850000Y-28675000D01*
X161600000Y-31625000D02*
X160850000Y-31625000D01*
X161900000Y-34175000D02*
X161900000Y-32925000D01*
X150800000Y-33875000D02*
X149000000Y-33875000D01*
X149000000Y-33125000D01*
X150800000Y-33125000D01*
X150800000Y-33875000D01*
X158300000Y-33875000D02*
X152300000Y-33875000D01*
X152300000Y-33125000D01*
X158300000Y-33125000D01*
X158300000Y-33875000D01*
X161600000Y-33875000D02*
X159800000Y-33875000D01*
X159800000Y-33125000D01*
X161600000Y-33125000D01*
X161600000Y-33875000D01*
X161610000Y-33885000D02*
X148990000Y-33885000D01*
X148990000Y-27915000D01*
X161610000Y-27915000D01*
X161610000Y-33885000D01*
%TO.C,U5*%
X173375000Y-28665000D02*
X173375000Y-51985000D01*
X173375000Y-51985000D02*
X192475000Y-51985000D01*
X179741667Y-28665000D02*
X173375000Y-28665000D01*
X179741667Y-29025000D02*
X179741667Y-28665000D01*
X186108333Y-28665000D02*
X186108333Y-29025000D01*
X186108333Y-29025000D02*
X179741667Y-29025000D01*
X192475000Y-28665000D02*
X186108333Y-28665000D01*
X192475000Y-51985000D02*
X192475000Y-28665000D01*
%TO.C,J5*%
X171075000Y-84880000D02*
X171075000Y-83500000D01*
X172455000Y-84880000D02*
X171075000Y-84880000D01*
X173725000Y-82120000D02*
X181455000Y-82120000D01*
X173725000Y-84880000D02*
X173725000Y-82120000D01*
X173725000Y-84880000D02*
X181455000Y-84880000D01*
X181455000Y-84880000D02*
X181455000Y-82120000D01*
%TO.C,J1*%
X185617500Y-73625000D02*
X185617500Y-72575000D01*
X185817500Y-72775000D02*
X188417500Y-72775000D01*
X185817500Y-87475000D02*
X185817500Y-72775000D01*
X186667500Y-72575000D02*
X185617500Y-72575000D01*
X192317500Y-72775000D02*
X195017500Y-72775000D01*
X195017500Y-72775000D02*
X195017500Y-74675000D01*
X195017500Y-78675000D02*
X195017500Y-87475000D01*
X195017500Y-87475000D02*
X185817500Y-87475000D01*
D11*
%TO.C,U6*%
X185290000Y-58465000D02*
X185290000Y-69895000D01*
X185290000Y-69895000D02*
X203070000Y-69895000D01*
X189100000Y-63545000D02*
X190370000Y-62275000D01*
X190370000Y-64815000D02*
X189100000Y-63545000D01*
X199260000Y-63545000D02*
X189100000Y-63545000D01*
X203070000Y-58465000D02*
X185290000Y-58465000D01*
X203070000Y-69895000D02*
X203070000Y-58465000D01*
D12*
%TO.C,J2*%
X144725000Y-80000000D02*
X144725000Y-81250000D01*
X145025000Y-82550000D02*
X145775000Y-82550000D01*
X145775000Y-82550000D02*
X145775000Y-85500000D01*
X145775000Y-85500000D02*
X151325000Y-85500000D01*
X145975000Y-80000000D02*
X144725000Y-80000000D01*
X156875000Y-82550000D02*
X156875000Y-85500000D01*
X156875000Y-85500000D02*
X151325000Y-85500000D01*
X157625000Y-82550000D02*
X156875000Y-82550000D01*
X145015000Y-80290000D02*
X157635000Y-80290000D01*
X157635000Y-86260000D01*
X145015000Y-86260000D01*
X145015000Y-80290000D01*
X145025000Y-80300000D02*
X146825000Y-80300000D01*
X146825000Y-81050000D01*
X145025000Y-81050000D01*
X145025000Y-80300000D01*
X148325000Y-80300000D02*
X154325000Y-80300000D01*
X154325000Y-81050000D01*
X148325000Y-81050000D01*
X148325000Y-80300000D01*
X155825000Y-80300000D02*
X157625000Y-80300000D01*
X157625000Y-81050000D01*
X155825000Y-81050000D01*
X155825000Y-80300000D01*
%TO.C,J4*%
X168526261Y-71884624D02*
X168526261Y-70504624D01*
X169906261Y-71884624D02*
X168526261Y-71884624D01*
X171176261Y-69124624D02*
X183986261Y-69124624D01*
X171176261Y-71884624D02*
X171176261Y-69124624D01*
X171176261Y-71884624D02*
X183986261Y-71884624D01*
X183986261Y-71884624D02*
X183986261Y-69124624D01*
%TO.C,J6*%
X197480000Y-38040000D02*
X198860000Y-38040000D01*
X197480000Y-39420000D02*
X197480000Y-38040000D01*
X197480000Y-40690000D02*
X197480000Y-48420000D01*
X197480000Y-40690000D02*
X200130000Y-40690000D01*
X197480000Y-48420000D02*
X202780000Y-48420000D01*
X200130000Y-38040000D02*
X202780000Y-38040000D01*
X200130000Y-40690000D02*
X200130000Y-38040000D01*
X202780000Y-38040000D02*
X202780000Y-48420000D01*
%TD*%
M02*
