%TF.GenerationSoftware,KiCad,Pcbnew,9.0.7*%
%TF.CreationDate,2026-08-25T22:36:57+01:00*%
%TF.ProjectId,CubeMate-pcb,43756265-4d61-4746-952d-7063622e6b69,rev?*%
%TF.SameCoordinates,Original*%
%TF.FileFunction,Soldermask,Bot*%
%TF.FilePolarity,Negative*%
%FSLAX46Y46*%
G04 Gerber Fmt 4.6, Leading zero omitted, Abs format (unit mm)*
G04 Created by KiCad (PCBNEW 9.0.7) date 2026-08-25 22:36:57*
%MOMM*%
%LPD*%
G01*
G04 APERTURE LIST*
G04 Aperture macros list*
%AMRoundRect*
0 Rectangle with rounded corners*
0 $1 Rounding radius*
0 $2 $3 $4 $5 $6 $7 $8 $9 X,Y pos of 4 corners*
0 Add a 4 corners polygon primitive as box body*
4,1,4,$2,$3,$4,$5,$6,$7,$8,$9,$2,$3,0*
0 Add four circle primitives for the rounded corners*
1,1,$1+$1,$2,$3*
1,1,$1+$1,$4,$5*
1,1,$1+$1,$6,$7*
1,1,$1+$1,$8,$9*
0 Add four rect primitives between the rounded corners*
20,1,$1+$1,$2,$3,$4,$5,0*
20,1,$1+$1,$4,$5,$6,$7,0*
20,1,$1+$1,$6,$7,$8,$9,0*
20,1,$1+$1,$8,$9,$2,$3,0*%
G04 Aperture macros list end*
%ADD10RoundRect,0.102000X0.754000X-0.754000X0.754000X0.754000X-0.754000X0.754000X-0.754000X-0.754000X0*%
%ADD11C,1.712000*%
%ADD12RoundRect,0.102000X-0.754000X0.754000X-0.754000X-0.754000X0.754000X-0.754000X0.754000X0.754000X0*%
%ADD13R,1.800000X1.800000*%
%ADD14C,1.800000*%
%ADD15RoundRect,0.250000X0.600000X0.725000X-0.600000X0.725000X-0.600000X-0.725000X0.600000X-0.725000X0*%
%ADD16O,1.700000X1.950000*%
%ADD17R,1.700000X4.000000*%
%ADD18R,3.500000X3.500000*%
%ADD19RoundRect,0.750000X1.000000X-0.750000X1.000000X0.750000X-1.000000X0.750000X-1.000000X-0.750000X0*%
%ADD20RoundRect,0.875000X0.875000X-0.875000X0.875000X0.875000X-0.875000X0.875000X-0.875000X-0.875000X0*%
%ADD21C,1.524000*%
%ADD22R,1.524000X1.524000*%
%ADD23RoundRect,0.250000X-0.600000X-0.725000X0.600000X-0.725000X0.600000X0.725000X-0.600000X0.725000X0*%
%ADD24R,1.700000X1.700000*%
%ADD25C,1.700000*%
G04 APERTURE END LIST*
D10*
%TO.C,U1*%
X138660000Y-73875000D03*
D11*
X141200000Y-73875000D03*
X143740000Y-73875000D03*
X146280000Y-73875000D03*
X148820000Y-73875000D03*
X151360000Y-73875000D03*
X153900000Y-73875000D03*
X156440000Y-73875000D03*
X138660000Y-61175000D03*
X141200000Y-61175000D03*
X143740000Y-61175000D03*
X146280000Y-61175000D03*
X148820000Y-61175000D03*
X151360000Y-61175000D03*
X153900000Y-61175000D03*
X156440000Y-61175000D03*
X156440000Y-66255000D03*
X156440000Y-63715000D03*
%TD*%
D12*
%TO.C,U2*%
X164140000Y-38550000D03*
D11*
X161600000Y-38550000D03*
X159060000Y-38550000D03*
X156520000Y-38550000D03*
X153980000Y-38550000D03*
X151440000Y-38550000D03*
X148900000Y-38550000D03*
X146360000Y-38550000D03*
X164140000Y-51250000D03*
X161600000Y-51250000D03*
X159060000Y-51250000D03*
X156520000Y-51250000D03*
X153980000Y-51250000D03*
X151440000Y-51250000D03*
X148900000Y-51250000D03*
X146360000Y-51250000D03*
X146360000Y-46170000D03*
X146360000Y-48710000D03*
%TD*%
D13*
%TO.C,D1*%
X200425000Y-53525000D03*
D14*
X197885000Y-53525000D03*
%TD*%
D15*
%TO.C,J3*%
X159050000Y-31425000D03*
D16*
X156550000Y-31425000D03*
X154050000Y-31425000D03*
X151550000Y-31425000D03*
%TD*%
D11*
%TO.C,U5*%
X175375000Y-35245000D03*
X175375000Y-45405000D03*
X175375000Y-47945000D03*
X175375000Y-50485000D03*
X190475000Y-50485000D03*
X190475000Y-47945000D03*
X175375000Y-42865000D03*
X190475000Y-45405000D03*
X190475000Y-42865000D03*
X190475000Y-40325000D03*
X190475000Y-37785000D03*
X190475000Y-35245000D03*
X175375000Y-30165000D03*
X175375000Y-40325000D03*
X175375000Y-37785000D03*
X190475000Y-32705000D03*
X190475000Y-30165000D03*
X175375000Y-32705000D03*
%TD*%
D17*
%TO.C,J5*%
X172455000Y-83500000D03*
X174995000Y-83500000D03*
X177535000Y-83500000D03*
X180075000Y-83500000D03*
%TD*%
D18*
%TO.C,J1*%
X190417500Y-73675000D03*
D19*
X190417500Y-79675000D03*
D20*
X195117500Y-76675000D03*
%TD*%
D21*
%TO.C,U6*%
X201800000Y-59481000D03*
D22*
X201800000Y-68625000D03*
D21*
X186560000Y-59481000D03*
X186560000Y-68625000D03*
%TD*%
D23*
%TO.C,J2*%
X147575000Y-82750000D03*
D16*
X150075000Y-82750000D03*
X152575000Y-82750000D03*
X155075000Y-82750000D03*
%TD*%
D24*
%TO.C,J4*%
X169906261Y-70504624D03*
D17*
X172446261Y-70504624D03*
X174986261Y-70504624D03*
X177526261Y-70504624D03*
X180066261Y-70504624D03*
D25*
X182606261Y-70504624D03*
%TD*%
D24*
%TO.C,J6*%
X198860000Y-39420000D03*
D25*
X201400000Y-39420000D03*
X198860000Y-41960000D03*
X201400000Y-41960000D03*
X198860000Y-44500000D03*
X201400000Y-44500000D03*
X198860000Y-47040000D03*
X201400000Y-47040000D03*
%TD*%
M02*
