%TF.GenerationSoftware,KiCad,Pcbnew,9.0.7*%
%TF.CreationDate,2026-08-25T22:36:57+01:00*%
%TF.ProjectId,CubeMate-pcb,43756265-4d61-4746-952d-7063622e6b69,rev?*%
%TF.SameCoordinates,Original*%
%TF.FileFunction,Legend,Bot*%
%TF.FilePolarity,Positive*%
%FSLAX46Y46*%
G04 Gerber Fmt 4.6, Leading zero omitted, Abs format (unit mm)*
G04 Created by KiCad (PCBNEW 9.0.7) date 2026-08-25 22:36:57*
%MOMM*%
%LPD*%
G01*
G04 APERTURE LIST*
%ADD10C,0.100000*%
%ADD11C,0.400000*%
G04 APERTURE END LIST*
D10*
G36*
X179526814Y-57895000D02*
G01*
X179526814Y-54882020D01*
X178330268Y-54882020D01*
X176908042Y-57016275D01*
X176621179Y-57462506D01*
X176301343Y-56979272D01*
X174862630Y-54882020D01*
X173792847Y-54882020D01*
X173792847Y-57895000D01*
X174559281Y-57895000D01*
X174559281Y-55371849D01*
X176305373Y-57895000D01*
X177022714Y-57895000D01*
X178760380Y-55328801D01*
X178760380Y-57895000D01*
X179526814Y-57895000D01*
G37*
G36*
X173169295Y-57895000D02*
G01*
X172324825Y-57895000D01*
X171665003Y-56980554D01*
X169152477Y-56980554D01*
X168451622Y-57895000D01*
X167545603Y-57895000D01*
X168559987Y-56652292D01*
X169398307Y-56652292D01*
X171435293Y-56652292D01*
X170775471Y-55771369D01*
X170589327Y-55484486D01*
X170451605Y-55197643D01*
X170287597Y-55457470D01*
X170025523Y-55820462D01*
X169398307Y-56652292D01*
X168559987Y-56652292D01*
X170005006Y-54882020D01*
X170861566Y-54882020D01*
X173169295Y-57895000D01*
G37*
G36*
X166003576Y-57895000D02*
G01*
X166003576Y-55230799D01*
X167983408Y-55230799D01*
X167983408Y-54882020D01*
X163220673Y-54882020D01*
X163220673Y-55230799D01*
X165208565Y-55230799D01*
X165208565Y-57895000D01*
X166003576Y-57895000D01*
G37*
G36*
X162387194Y-57895000D02*
G01*
X162387194Y-54882020D01*
X158042480Y-54882020D01*
X158042480Y-55230799D01*
X161591817Y-55230799D01*
X161591817Y-56159898D01*
X158267794Y-56159898D01*
X158267794Y-56508677D01*
X161591817Y-56508677D01*
X161591817Y-57546221D01*
X157902896Y-57546221D01*
X157902896Y-57895000D01*
X162387194Y-57895000D01*
G37*
D11*
X183090414Y-53984438D02*
X180614223Y-53984438D01*
X180614223Y-53984438D02*
X181947557Y-54746342D01*
X181947557Y-54746342D02*
X181376128Y-54746342D01*
X181376128Y-54746342D02*
X180995176Y-54841580D01*
X180995176Y-54841580D02*
X180804700Y-54936819D01*
X180804700Y-54936819D02*
X180614223Y-55127295D01*
X180614223Y-55127295D02*
X180614223Y-55603485D01*
X180614223Y-55603485D02*
X180804700Y-55793961D01*
X180804700Y-55793961D02*
X180995176Y-55889200D01*
X180995176Y-55889200D02*
X181376128Y-55984438D01*
X181376128Y-55984438D02*
X182518985Y-55984438D01*
X182518985Y-55984438D02*
X182899938Y-55889200D01*
X182899938Y-55889200D02*
X183090414Y-55793961D01*
M02*
