%TF.GenerationSoftware,KiCad,Pcbnew,9.0.7*%
%TF.CreationDate,2026-08-25T22:36:57+01:00*%
%TF.ProjectId,CubeMate-pcb,43756265-4d61-4746-952d-7063622e6b69,rev?*%
%TF.SameCoordinates,Original*%
%TF.FileFunction,Copper,L2,Bot*%
%TF.FilePolarity,Positive*%
%FSLAX46Y46*%
G04 Gerber Fmt 4.6, Leading zero omitted, Abs format (unit mm)*
G04 Created by KiCad (PCBNEW 9.0.7) date 2026-08-25 22:36:57*
%MOMM*%
%LPD*%
G01*
G04 APERTURE LIST*
G04 Aperture macros list*
%AMRoundRect*
0 Rectangle with rounded corners*
0 $1 Rounding radius*
0 $2 $3 $4 $5 $6 $7 $8 $9 X,Y pos of 4 corners*
0 Add a 4 corners polygon primitive as box body*
4,1,4,$2,$3,$4,$5,$6,$7,$8,$9,$2,$3,0*
0 Add four circle primitives for the rounded corners*
1,1,$1+$1,$2,$3*
1,1,$1+$1,$4,$5*
1,1,$1+$1,$6,$7*
1,1,$1+$1,$8,$9*
0 Add four rect primitives between the rounded corners*
20,1,$1+$1,$2,$3,$4,$5,0*
20,1,$1+$1,$4,$5,$6,$7,0*
20,1,$1+$1,$6,$7,$8,$9,0*
20,1,$1+$1,$8,$9,$2,$3,0*%
G04 Aperture macros list end*
%TA.AperFunction,ComponentPad*%
%ADD10R,1.508000X1.508000*%
%TD*%
%TA.AperFunction,ComponentPad*%
%ADD11C,1.508000*%
%TD*%
%TA.AperFunction,ComponentPad*%
%ADD12R,1.800000X1.800000*%
%TD*%
%TA.AperFunction,ComponentPad*%
%ADD13C,1.800000*%
%TD*%
%TA.AperFunction,ComponentPad*%
%ADD14RoundRect,0.250000X0.600000X0.725000X-0.600000X0.725000X-0.600000X-0.725000X0.600000X-0.725000X0*%
%TD*%
%TA.AperFunction,ComponentPad*%
%ADD15O,1.700000X1.950000*%
%TD*%
%TA.AperFunction,ComponentPad*%
%ADD16R,1.700000X4.000000*%
%TD*%
%TA.AperFunction,ComponentPad*%
%ADD17R,3.500000X3.500000*%
%TD*%
%TA.AperFunction,ComponentPad*%
%ADD18RoundRect,0.750000X1.000000X-0.750000X1.000000X0.750000X-1.000000X0.750000X-1.000000X-0.750000X0*%
%TD*%
%TA.AperFunction,ComponentPad*%
%ADD19RoundRect,0.875000X0.875000X-0.875000X0.875000X0.875000X-0.875000X0.875000X-0.875000X-0.875000X0*%
%TD*%
%TA.AperFunction,ComponentPad*%
%ADD20C,1.524000*%
%TD*%
%TA.AperFunction,ComponentPad*%
%ADD21R,1.524000X1.524000*%
%TD*%
%TA.AperFunction,ComponentPad*%
%ADD22RoundRect,0.250000X-0.600000X-0.725000X0.600000X-0.725000X0.600000X0.725000X-0.600000X0.725000X0*%
%TD*%
%TA.AperFunction,ComponentPad*%
%ADD23R,1.700000X1.700000*%
%TD*%
%TA.AperFunction,ComponentPad*%
%ADD24C,1.700000*%
%TD*%
%TA.AperFunction,Conductor*%
%ADD25C,0.500000*%
%TD*%
G04 APERTURE END LIST*
D10*
%TO.P,U1,1,GND*%
%TO.N,Net-(A1-IN-)*%
X138660000Y-73875000D03*
D11*
%TO.P,U1,2,VIO*%
%TO.N,Net-(A1-OUT+)*%
X141200000Y-73875000D03*
%TO.P,U1,3,M1B*%
%TO.N,Net-(J2-Pin_1)*%
X143740000Y-73875000D03*
%TO.P,U1,4,M1A*%
%TO.N,Net-(J2-Pin_2)*%
X146280000Y-73875000D03*
%TO.P,U1,5,M2A*%
%TO.N,Net-(J2-Pin_3)*%
X148820000Y-73875000D03*
%TO.P,U1,6,M2B*%
%TO.N,Net-(J2-Pin_4)*%
X151360000Y-73875000D03*
%TO.P,U1,7,GND*%
%TO.N,Net-(A1-IN-)*%
X153900000Y-73875000D03*
%TO.P,U1,8,VM*%
%TO.N,Net-(A1-IN+)*%
X156440000Y-73875000D03*
%TO.P,U1,9,DIR*%
%TO.N,Net-(U1-DIR)*%
X138660000Y-61175000D03*
%TO.P,U1,10,STEP*%
%TO.N,Net-(U1-STEP)*%
X141200000Y-61175000D03*
%TO.P,U1,11,PDN*%
%TO.N,unconnected-(U1-PDN-Pad11)*%
X143740000Y-61175000D03*
%TO.P,U1,12,UART*%
%TO.N,Net-(U1-UART)*%
X146280000Y-61175000D03*
%TO.P,U1,13,SPRD*%
%TO.N,unconnected-(U1-SPRD-Pad13)*%
X148820000Y-61175000D03*
%TO.P,U1,14,MS2*%
%TO.N,unconnected-(U1-MS2-Pad14)*%
X151360000Y-61175000D03*
%TO.P,U1,15,MS1*%
%TO.N,unconnected-(U1-MS1-Pad15)*%
X153900000Y-61175000D03*
%TO.P,U1,16,~{EN}*%
%TO.N,Net-(A1-IN-)*%
X156440000Y-61175000D03*
%TO.P,U1,17,INDEX*%
%TO.N,unconnected-(U1-INDEX-Pad17)*%
X156440000Y-66255000D03*
%TO.P,U1,18,DIAG*%
%TO.N,unconnected-(U1-DIAG-Pad18)*%
X156440000Y-63715000D03*
%TD*%
D10*
%TO.P,U2,1,GND*%
%TO.N,Net-(A1-IN-)*%
X164140000Y-38550000D03*
D11*
%TO.P,U2,2,VIO*%
%TO.N,Net-(A1-OUT+)*%
X161600000Y-38550000D03*
%TO.P,U2,3,M1B*%
%TO.N,Net-(J3-Pin_1)*%
X159060000Y-38550000D03*
%TO.P,U2,4,M1A*%
%TO.N,Net-(J3-Pin_2)*%
X156520000Y-38550000D03*
%TO.P,U2,5,M2A*%
%TO.N,Net-(J3-Pin_3)*%
X153980000Y-38550000D03*
%TO.P,U2,6,M2B*%
%TO.N,Net-(J3-Pin_4)*%
X151440000Y-38550000D03*
%TO.P,U2,7,GND*%
%TO.N,Net-(A1-IN-)*%
X148900000Y-38550000D03*
%TO.P,U2,8,VM*%
%TO.N,Net-(A1-IN+)*%
X146360000Y-38550000D03*
%TO.P,U2,9,DIR*%
%TO.N,Net-(U2-DIR)*%
X164140000Y-51250000D03*
%TO.P,U2,10,STEP*%
%TO.N,Net-(U2-STEP)*%
X161600000Y-51250000D03*
%TO.P,U2,11,PDN*%
%TO.N,unconnected-(U2-PDN-Pad11)*%
X159060000Y-51250000D03*
%TO.P,U2,12,UART*%
%TO.N,Net-(U1-UART)*%
X156520000Y-51250000D03*
%TO.P,U2,13,SPRD*%
%TO.N,unconnected-(U2-SPRD-Pad13)*%
X153980000Y-51250000D03*
%TO.P,U2,14,MS2*%
%TO.N,unconnected-(U2-MS2-Pad14)*%
X151440000Y-51250000D03*
%TO.P,U2,15,MS1*%
%TO.N,Net-(A1-OUT+)*%
X148900000Y-51250000D03*
%TO.P,U2,16,~{EN}*%
%TO.N,Net-(A1-IN-)*%
X146360000Y-51250000D03*
%TO.P,U2,17,INDEX*%
%TO.N,unconnected-(U2-INDEX-Pad17)*%
X146360000Y-46170000D03*
%TO.P,U2,18,DIAG*%
%TO.N,unconnected-(U2-DIAG-Pad18)*%
X146360000Y-48710000D03*
%TD*%
D12*
%TO.P,D1,1,K*%
%TO.N,Net-(A1-IN-)*%
X200425000Y-53525000D03*
D13*
%TO.P,D1,2,A*%
%TO.N,Net-(D1-A)*%
X197885000Y-53525000D03*
%TD*%
D14*
%TO.P,J3,1,Pin_1*%
%TO.N,Net-(J3-Pin_1)*%
X159050000Y-31425000D03*
D15*
%TO.P,J3,2,Pin_2*%
%TO.N,Net-(J3-Pin_2)*%
X156550000Y-31425000D03*
%TO.P,J3,3,Pin_3*%
%TO.N,Net-(J3-Pin_3)*%
X154050000Y-31425000D03*
%TO.P,J3,4,Pin_4*%
%TO.N,Net-(J3-Pin_4)*%
X151550000Y-31425000D03*
%TD*%
D11*
%TO.P,U5,2,3V3*%
%TO.N,Net-(A1-OUT+)*%
X175375000Y-35245000D03*
%TO.P,U5,4,GPIO4/ADC1_CH3*%
%TO.N,Net-(U1-STEP)*%
X175375000Y-45405000D03*
%TO.P,U5,5,GPIO5/ADC1_CH4*%
%TO.N,Net-(U1-UART)*%
X175375000Y-47945000D03*
%TO.P,U5,6,GPIO6/ADC1_CH5*%
%TO.N,Net-(U5-GPIO6{slash}ADC1_CH5)*%
X175375000Y-50485000D03*
%TO.P,U5,7,GPIO7/ADC1_CH6*%
%TO.N,Net-(D1-A)*%
X190475000Y-50485000D03*
%TO.P,U5,12,GPIO8/ADC1_CH7*%
%TO.N,Net-(J6-Pin_7)*%
X190475000Y-47945000D03*
%TO.P,U5,13,GPIO3/ADC1_CH2*%
%TO.N,Net-(U1-DIR)*%
X175375000Y-42865000D03*
%TO.P,U5,15,GPIO9/ADC1_CH8*%
%TO.N,Net-(J6-Pin_5)*%
X190475000Y-45405000D03*
%TO.P,U5,16,GPIO10/ADC1_CH9*%
%TO.N,Net-(J6-Pin_3)*%
X190475000Y-42865000D03*
%TO.P,U5,17,GPIO11/ADC2_CH0*%
%TO.N,Net-(J6-Pin_1)*%
X190475000Y-40325000D03*
%TO.P,U5,18,GPIO12/ADC2_CH1*%
%TO.N,Net-(J4-Pin_2)*%
X190475000Y-37785000D03*
%TO.P,U5,19,GPIO13/ADC2_CH2*%
%TO.N,Net-(J4-Pin_3)*%
X190475000Y-35245000D03*
%TO.P,U5,21,5V*%
%TO.N,unconnected-(U5-5V-Pad21)*%
X175375000Y-30165000D03*
%TO.P,U5,40,GPIO2/ADC1_CH1*%
%TO.N,Net-(U2-STEP)*%
X175375000Y-40325000D03*
%TO.P,U5,41,GPIO1/ADC1_CH0*%
%TO.N,Net-(U2-DIR)*%
X175375000Y-37785000D03*
%TO.P,U5,42,GPIO44/U0RXD*%
%TO.N,unconnected-(U5-GPIO44{slash}U0RXD-Pad42)*%
X190475000Y-32705000D03*
%TO.P,U5,43,GPIO43/U0TXD*%
%TO.N,unconnected-(U5-GPIO43{slash}U0TXD-Pad43)*%
X190475000Y-30165000D03*
%TO.P,U5,44,GND*%
%TO.N,Net-(A1-IN-)*%
X175375000Y-32705000D03*
%TD*%
D16*
%TO.P,J5,1,Pin_1*%
%TO.N,unconnected-(J5-Pin_1-Pad1)*%
X172455000Y-83500000D03*
%TO.P,J5,2,Pin_2*%
%TO.N,unconnected-(J5-Pin_2-Pad2)*%
X174995000Y-83500000D03*
%TO.P,J5,3,Pin_3*%
%TO.N,unconnected-(J5-Pin_3-Pad3)*%
X177535000Y-83500000D03*
%TO.P,J5,4,Pin_4*%
%TO.N,unconnected-(J5-Pin_4-Pad4)*%
X180075000Y-83500000D03*
%TD*%
D17*
%TO.P,J1,1*%
%TO.N,Net-(A1-IN+)*%
X190417500Y-73675000D03*
D18*
%TO.P,J1,2*%
%TO.N,Net-(A1-IN-)*%
X190417500Y-79675000D03*
D19*
%TO.P,J1,3*%
X195117500Y-76675000D03*
%TD*%
D20*
%TO.P,U6,1*%
%TO.N,Net-(A1-IN+)*%
X201800000Y-59481000D03*
D21*
%TO.P,U6,2*%
%TO.N,Net-(A1-IN-)*%
X201800000Y-68625000D03*
D20*
%TO.P,U6,3*%
%TO.N,Net-(A1-OUT+)*%
X186560000Y-59481000D03*
%TO.P,U6,4*%
%TO.N,Net-(A1-IN-)*%
X186560000Y-68625000D03*
%TD*%
D22*
%TO.P,J2,1,Pin_1*%
%TO.N,Net-(J2-Pin_1)*%
X147575000Y-82750000D03*
D15*
%TO.P,J2,2,Pin_2*%
%TO.N,Net-(J2-Pin_2)*%
X150075000Y-82750000D03*
%TO.P,J2,3,Pin_3*%
%TO.N,Net-(J2-Pin_3)*%
X152575000Y-82750000D03*
%TO.P,J2,4,Pin_4*%
%TO.N,Net-(J2-Pin_4)*%
X155075000Y-82750000D03*
%TD*%
D23*
%TO.P,J4,1,Pin_1*%
%TO.N,Net-(A1-OUT+)*%
X169906261Y-70504624D03*
D16*
%TO.P,J4,2,Pin_2*%
%TO.N,Net-(A1-IN-)*%
X172446261Y-70504624D03*
%TO.P,J4,3,Pin_3*%
%TO.N,Net-(J4-Pin_3)*%
X174986261Y-70504624D03*
%TO.P,J4,4,Pin_4*%
%TO.N,Net-(J4-Pin_2)*%
X177526261Y-70504624D03*
%TO.P,J4,5*%
%TO.N,Net-(A1-OUT+)*%
X180066261Y-70504624D03*
D24*
%TO.P,J4,6*%
%TO.N,Net-(A1-IN-)*%
X182606261Y-70504624D03*
%TD*%
D23*
%TO.P,J6,1,Pin_1*%
%TO.N,Net-(J6-Pin_1)*%
X198860000Y-39420000D03*
D24*
%TO.P,J6,2,Pin_2*%
%TO.N,Net-(A1-IN-)*%
X201400000Y-39420000D03*
%TO.P,J6,3,Pin_3*%
%TO.N,Net-(J6-Pin_3)*%
X198860000Y-41960000D03*
%TO.P,J6,4,Pin_4*%
%TO.N,Net-(A1-IN-)*%
X201400000Y-41960000D03*
%TO.P,J6,5,Pin_5*%
%TO.N,Net-(J6-Pin_5)*%
X198860000Y-44500000D03*
%TO.P,J6,6,Pin_6*%
%TO.N,Net-(A1-IN-)*%
X201400000Y-44500000D03*
%TO.P,J6,7,Pin_7*%
%TO.N,Net-(J6-Pin_7)*%
X198860000Y-47040000D03*
%TO.P,J6,8,Pin_8*%
%TO.N,Net-(A1-IN-)*%
X201400000Y-47040000D03*
%TD*%
D25*
%TO.N,Net-(A1-OUT+)*%
X169906261Y-74393739D02*
X169906261Y-71504624D01*
X141200000Y-76100000D02*
X141200000Y-73875000D01*
X143500000Y-78400000D02*
X141200000Y-76100000D01*
X180066261Y-71504624D02*
X180066261Y-68608739D01*
X186560000Y-61075000D02*
X186560000Y-59481000D01*
X157200000Y-78400000D02*
X143500000Y-78400000D01*
X157200000Y-78400000D02*
X165900000Y-78400000D01*
X165900000Y-78400000D02*
X169906261Y-74393739D01*
X180066261Y-67568739D02*
X186560000Y-61075000D01*
X158400000Y-78400000D02*
X157200000Y-78400000D01*
X180400000Y-58775000D02*
X173150000Y-66025000D01*
X180400000Y-40270000D02*
X180400000Y-58775000D01*
X180066261Y-70504624D02*
X180066261Y-67568739D01*
X175375000Y-35245000D02*
X180400000Y-40270000D01*
X169906261Y-69268739D02*
X173150000Y-66025000D01*
X169906261Y-71504624D02*
X169906261Y-69268739D01*
%TO.N,Net-(U1-DIR)*%
X169650000Y-50900000D02*
X169650000Y-46000000D01*
X169650000Y-46000000D02*
X172785000Y-42865000D01*
X138660000Y-61175000D02*
X144235000Y-55600000D01*
X172785000Y-42865000D02*
X175375000Y-42865000D01*
X164950000Y-55600000D02*
X169650000Y-50900000D01*
X144235000Y-55600000D02*
X164950000Y-55600000D01*
%TO.N,Net-(U1-STEP)*%
X172795000Y-45405000D02*
X175375000Y-45405000D01*
X145225000Y-57150000D02*
X165625000Y-57150000D01*
X171150000Y-47050000D02*
X172795000Y-45405000D01*
X171150000Y-51625000D02*
X171150000Y-47050000D01*
X141200000Y-61175000D02*
X145225000Y-57150000D01*
X165625000Y-57150000D02*
X171150000Y-51625000D01*
%TO.N,Net-(A1-IN-)*%
X172496261Y-74596261D02*
X172496261Y-74771261D01*
X182606261Y-74968739D02*
X182606261Y-70504624D01*
X183325000Y-68625000D02*
X186560000Y-68625000D01*
X172496261Y-74771261D02*
X173700000Y-75975000D01*
X181600000Y-75975000D02*
X182606261Y-74968739D01*
X173700000Y-75975000D02*
X181600000Y-75975000D01*
X149575000Y-35550000D02*
X148900000Y-36225000D01*
X199275000Y-57825000D02*
X200425000Y-56675000D01*
X163325000Y-35550000D02*
X149575000Y-35550000D01*
X172446261Y-74596261D02*
X172496261Y-74596261D01*
X195425000Y-57825000D02*
X199275000Y-57825000D01*
X200425000Y-56675000D02*
X200425000Y-53525000D01*
X186560000Y-66690000D02*
X195425000Y-57825000D01*
X182606261Y-70504624D02*
X182606261Y-69343739D01*
X164140000Y-36365000D02*
X163325000Y-35550000D01*
X172446261Y-71504624D02*
X172446261Y-74596261D01*
X182606261Y-69343739D02*
X183325000Y-68625000D01*
X148900000Y-36225000D02*
X148900000Y-38550000D01*
X186560000Y-68625000D02*
X186560000Y-66690000D01*
X164140000Y-38550000D02*
X164140000Y-36365000D01*
%TO.N,Net-(U1-UART)*%
X172862500Y-49362500D02*
X172862500Y-55262500D01*
X148675000Y-69225000D02*
X146280000Y-66830000D01*
X172862500Y-55262500D02*
X158900000Y-69225000D01*
X146280000Y-66830000D02*
X146280000Y-61175000D01*
X172862500Y-49362500D02*
X174280000Y-47945000D01*
X158900000Y-69225000D02*
X148675000Y-69225000D01*
X175375000Y-47945000D02*
X174280000Y-47945000D01*
%TO.N,Net-(U2-DIR)*%
X175375000Y-37785000D02*
X170565000Y-37785000D01*
X170565000Y-37785000D02*
X164140000Y-44210000D01*
X164140000Y-44210000D02*
X164140000Y-51250000D01*
%TO.N,Net-(J4-Pin_2)*%
X183675000Y-60175000D02*
X183675000Y-60975000D01*
X189140000Y-37785000D02*
X190475000Y-37785000D01*
X183675000Y-60175000D02*
X183675000Y-43250000D01*
X183675000Y-60975000D02*
X177526261Y-67123739D01*
X177526261Y-67123739D02*
X177526261Y-70504624D01*
X177526261Y-71504624D02*
X177526261Y-68651261D01*
X183675000Y-43250000D02*
X189140000Y-37785000D01*
%TO.N,Net-(J4-Pin_3)*%
X174986261Y-71504624D02*
X174986261Y-68788739D01*
X182150000Y-41750000D02*
X186537500Y-37362500D01*
X186537500Y-37362500D02*
X183850000Y-40050000D01*
X190475000Y-35245000D02*
X188655000Y-35245000D01*
X182150000Y-60375000D02*
X182150000Y-41750000D01*
X188655000Y-35245000D02*
X186537500Y-37362500D01*
X174986261Y-70504624D02*
X174986261Y-67538739D01*
X174986261Y-67538739D02*
X182150000Y-60375000D01*
%TD*%
M02*
