%TF.GenerationSoftware,KiCad,Pcbnew,9.0.7*%
%TF.CreationDate,2026-08-29T21:30:05+01:00*%
%TF.ProjectId,CubeMate-pcb,43756265-4d61-4746-952d-7063622e6b69,rev?*%
%TF.SameCoordinates,Original*%
%TF.FileFunction,Legend,Bot*%
%TF.FilePolarity,Positive*%
%FSLAX46Y46*%
G04 Gerber Fmt 4.6, Leading zero omitted, Abs format (unit mm)*
G04 Created by KiCad (PCBNEW 9.0.7) date 2026-08-29 21:30:05*
%MOMM*%
%LPD*%
G01*
G04 APERTURE LIST*
%ADD10C,0.000000*%
G04 APERTURE END LIST*
D10*
G36*
X172617709Y-60792709D02*
G01*
X172750000Y-60925000D01*
X173001354Y-61136667D01*
X173133646Y-61268959D01*
X173265938Y-61388021D01*
X173279167Y-61388021D01*
X173371771Y-61480625D01*
X170236459Y-61480625D01*
X170196772Y-61493854D01*
X170157084Y-61507084D01*
X170130625Y-61520313D01*
X170090939Y-61546771D01*
X170011562Y-61626146D01*
X169985105Y-61665834D01*
X169971876Y-61692292D01*
X169958646Y-61718751D01*
X169945417Y-61798125D01*
X169945417Y-63332708D01*
X169958646Y-63359167D01*
X172511875Y-63372396D01*
X172551563Y-63359167D01*
X172578021Y-63345938D01*
X172604479Y-63332708D01*
X172630938Y-63306250D01*
X172644167Y-63306250D01*
X172657396Y-63293021D01*
X172697084Y-63240104D01*
X172710313Y-63213646D01*
X172723542Y-63187188D01*
X172723542Y-62816771D01*
X172697084Y-62750625D01*
X172604479Y-62658021D01*
X172525105Y-62618334D01*
X170223229Y-62618334D01*
X170223229Y-62009792D01*
X172829376Y-62009792D01*
X172908750Y-62023021D01*
X173001354Y-62049479D01*
X173067500Y-62075938D01*
X173120417Y-62102396D01*
X173199792Y-62142083D01*
X173239480Y-62168542D01*
X173292396Y-62208230D01*
X173437917Y-62353750D01*
X173464375Y-62393438D01*
X173490833Y-62433125D01*
X173543750Y-62538958D01*
X173556979Y-62578646D01*
X173570209Y-62618334D01*
X173583438Y-62671250D01*
X173596667Y-62724167D01*
X173596667Y-63359167D01*
X173583438Y-63425313D01*
X173570209Y-63478229D01*
X173543750Y-63544375D01*
X173490833Y-63650208D01*
X173464375Y-63689896D01*
X173411459Y-63756042D01*
X173345313Y-63822188D01*
X173279167Y-63875104D01*
X173239480Y-63901563D01*
X173199792Y-63928021D01*
X173146875Y-63954479D01*
X173067500Y-63994167D01*
X173027813Y-64007396D01*
X172988126Y-64020625D01*
X172895522Y-64047083D01*
X172789688Y-64060313D01*
X169006147Y-64060313D01*
X168992918Y-62075938D01*
X168992918Y-62023021D01*
X169006147Y-61560000D01*
X169019375Y-61493854D01*
X169059063Y-61374792D01*
X169085522Y-61308646D01*
X169138438Y-61216042D01*
X169164896Y-61176355D01*
X169191355Y-61136667D01*
X169231042Y-61083750D01*
X169310418Y-61004375D01*
X169376563Y-60951459D01*
X169495626Y-60872084D01*
X169522083Y-60858855D01*
X169548542Y-60845625D01*
X169641146Y-60805938D01*
X169680834Y-60792709D01*
X169720521Y-60779480D01*
X169773438Y-60766250D01*
X169839584Y-60753021D01*
X169932188Y-60739792D01*
X172551563Y-60739792D01*
X172617709Y-60792709D01*
G37*
G36*
X164508230Y-60753021D02*
G01*
X164574375Y-60766250D01*
X164627293Y-60779480D01*
X164666979Y-60792709D01*
X164706667Y-60805938D01*
X164772813Y-60832396D01*
X164799271Y-60845625D01*
X164825730Y-60858855D01*
X164958022Y-60938229D01*
X165010938Y-60977917D01*
X165169688Y-61136667D01*
X165209376Y-61189584D01*
X165235835Y-61229271D01*
X165262292Y-61268959D01*
X165301980Y-61348334D01*
X165328439Y-61414480D01*
X165368125Y-61533542D01*
X165381355Y-61599688D01*
X165394584Y-61705521D01*
X165394584Y-63094584D01*
X165381355Y-63200417D01*
X165368125Y-63266563D01*
X165315209Y-63425313D01*
X165301980Y-63451771D01*
X165288751Y-63478229D01*
X165235835Y-63570834D01*
X165209376Y-63610521D01*
X165169688Y-63663438D01*
X165024168Y-63808959D01*
X164971250Y-63848646D01*
X164931564Y-63875104D01*
X164891876Y-63901563D01*
X164825730Y-63941250D01*
X164799271Y-63954479D01*
X164772813Y-63967709D01*
X164666979Y-64007396D01*
X164627293Y-64020625D01*
X164574375Y-64033854D01*
X164521459Y-64047083D01*
X164442085Y-64060313D01*
X161452293Y-64060313D01*
X161399377Y-63994167D01*
X161028959Y-63650208D01*
X160751147Y-63359167D01*
X164177500Y-63359167D01*
X164230418Y-63345938D01*
X164256876Y-63332708D01*
X164283334Y-63319479D01*
X164323022Y-63293021D01*
X164402396Y-63213646D01*
X164442085Y-63134271D01*
X164455314Y-63094584D01*
X164455314Y-61731979D01*
X164442085Y-61665834D01*
X164402396Y-61586459D01*
X164296563Y-61480625D01*
X164270104Y-61467396D01*
X164243647Y-61454167D01*
X164203959Y-61440938D01*
X161915313Y-61440938D01*
X161875626Y-61454167D01*
X161849168Y-61467396D01*
X161822709Y-61480625D01*
X161730105Y-61573229D01*
X161690418Y-61652604D01*
X161677189Y-61705521D01*
X161690418Y-62142083D01*
X164243647Y-62142083D01*
X164243647Y-62684479D01*
X160737917Y-62671250D01*
X160737917Y-61679063D01*
X160751147Y-61573229D01*
X160764376Y-61507084D01*
X160804064Y-61388021D01*
X160830521Y-61321875D01*
X160843751Y-61295417D01*
X160856980Y-61268959D01*
X160896668Y-61202813D01*
X160923126Y-61163125D01*
X160976043Y-61096979D01*
X161042188Y-61030834D01*
X161055418Y-61030834D01*
X161134792Y-60951459D01*
X161174481Y-60925000D01*
X161214167Y-60898542D01*
X161372918Y-60819167D01*
X161439063Y-60792709D01*
X161478751Y-60779480D01*
X161531667Y-60766250D01*
X161597814Y-60753021D01*
X161690418Y-60739792D01*
X164428855Y-60739792D01*
X164508230Y-60753021D01*
G37*
G36*
X183253958Y-58649584D02*
G01*
X183267187Y-58649584D01*
X183545000Y-58927396D01*
X181653229Y-58927396D01*
X181600313Y-58980313D01*
X181600313Y-59006771D01*
X181587083Y-59033230D01*
X181600313Y-59086146D01*
X181613542Y-59125834D01*
X181640000Y-59165521D01*
X181692917Y-59218438D01*
X181719375Y-59231667D01*
X181745833Y-59244896D01*
X181785521Y-59258125D01*
X182843854Y-59258125D01*
X182857083Y-59284584D01*
X182870312Y-59350730D01*
X182896771Y-59390417D01*
X182949687Y-59535938D01*
X183015833Y-59760834D01*
X183029062Y-59787292D01*
X182817396Y-59787292D01*
X182804167Y-59800521D01*
X182222083Y-59787292D01*
X182089792Y-59787292D01*
X182076562Y-59800521D01*
X181931042Y-59800521D01*
X181904583Y-59813750D01*
X181864896Y-59853438D01*
X181851667Y-59893125D01*
X181851667Y-59972500D01*
X181864896Y-60025417D01*
X181878125Y-60051875D01*
X181891354Y-60078334D01*
X181970729Y-60157709D01*
X182050104Y-60197396D01*
X183611146Y-60197396D01*
X183783125Y-60356146D01*
X184193229Y-60766250D01*
X181811979Y-60766250D01*
X181759062Y-60753021D01*
X181706146Y-60739792D01*
X181666458Y-60726563D01*
X181626771Y-60713334D01*
X181547396Y-60673646D01*
X181507708Y-60647188D01*
X181468021Y-60620730D01*
X181401875Y-60567813D01*
X181322500Y-60488438D01*
X181282812Y-60435521D01*
X181243125Y-60382605D01*
X181203438Y-60316459D01*
X181190208Y-60290000D01*
X181176979Y-60263542D01*
X181137292Y-60157709D01*
X181124062Y-60104792D01*
X181110833Y-60038646D01*
X181110833Y-59866667D01*
X181124062Y-59813750D01*
X181137292Y-59760834D01*
X181176979Y-59681459D01*
X181203438Y-59641771D01*
X181282812Y-59562396D01*
X181256354Y-59535938D01*
X181216667Y-59522709D01*
X181176979Y-59496250D01*
X181097604Y-59430105D01*
X181031458Y-59363959D01*
X180991771Y-59311042D01*
X180952083Y-59258125D01*
X180912396Y-59191980D01*
X180885938Y-59125834D01*
X180872708Y-59086146D01*
X180859479Y-59046459D01*
X180846250Y-58993542D01*
X180833021Y-58927396D01*
X180833021Y-58795105D01*
X180846250Y-58742188D01*
X180859479Y-58689271D01*
X180872708Y-58649584D01*
X180885938Y-58623125D01*
X180899167Y-58596667D01*
X180925625Y-58556980D01*
X181044688Y-58437917D01*
X181097604Y-58411459D01*
X181176979Y-58371771D01*
X181216667Y-58358542D01*
X181282812Y-58345313D01*
X182949687Y-58345313D01*
X183253958Y-58649584D01*
G37*
G36*
X180833021Y-60051875D02*
G01*
X180846250Y-60131251D01*
X180859479Y-60197396D01*
X180872708Y-60250313D01*
X180885938Y-60290000D01*
X180899167Y-60329688D01*
X180925625Y-60395834D01*
X180952083Y-60448750D01*
X180991771Y-60528125D01*
X181018229Y-60567813D01*
X181137292Y-60726563D01*
X181190208Y-60779480D01*
X181282812Y-60845625D01*
X181282812Y-64060313D01*
X180198021Y-64060313D01*
X180198021Y-60594271D01*
X180250937Y-60528125D01*
X180462604Y-60303230D01*
X180713958Y-60038646D01*
X180727187Y-60025417D01*
X180766875Y-59998959D01*
X180833021Y-59932813D01*
X180833021Y-60051875D01*
G37*
G36*
X174284583Y-60065105D02*
G01*
X174403646Y-60170938D01*
X174588854Y-60342917D01*
X174787292Y-60541354D01*
X175104792Y-60819167D01*
X175263542Y-60977917D01*
X175263542Y-64060313D01*
X174152292Y-64047083D01*
X174152292Y-59959271D01*
X174284583Y-60065105D01*
G37*
G36*
X166691042Y-59668230D02*
G01*
X166783646Y-59707917D01*
X166929168Y-59774063D01*
X167101147Y-59840209D01*
X167445104Y-59959271D01*
X167511251Y-59985730D01*
X167577396Y-60025417D01*
X167815522Y-60118021D01*
X167987501Y-60170938D01*
X168053646Y-60197396D01*
X168080105Y-60210625D01*
X168106564Y-60739792D01*
X168754792Y-60739792D01*
X168754792Y-61480625D01*
X168093334Y-61493854D01*
X168093334Y-63200417D01*
X168080105Y-63266563D01*
X168066876Y-63319479D01*
X168053646Y-63372396D01*
X168027187Y-63438542D01*
X167987501Y-63517917D01*
X167947813Y-63584063D01*
X167921356Y-63623750D01*
X167855209Y-63689896D01*
X167855209Y-63703125D01*
X167802293Y-63756042D01*
X167789063Y-63756042D01*
X167722918Y-63822188D01*
X167670001Y-63861875D01*
X167630314Y-63888334D01*
X167471563Y-63967709D01*
X167405418Y-63994167D01*
X167365730Y-64007396D01*
X167326043Y-64020625D01*
X167273126Y-64033854D01*
X167206980Y-64047083D01*
X167101147Y-64060313D01*
X165659167Y-64060313D01*
X165659167Y-63332708D01*
X166810105Y-63332708D01*
X166876251Y-63319479D01*
X166955625Y-63279792D01*
X167048229Y-63187188D01*
X167061459Y-63160729D01*
X167074688Y-63134271D01*
X167087917Y-63094584D01*
X167074688Y-61480625D01*
X165659167Y-61480625D01*
X165659167Y-60739792D01*
X167087917Y-60726563D01*
X167087917Y-60528125D01*
X167074688Y-60501667D01*
X166995313Y-60409063D01*
X166863021Y-60250313D01*
X166704272Y-60078334D01*
X166624897Y-59985730D01*
X166624897Y-59655000D01*
X166651354Y-59655000D01*
X166691042Y-59668230D01*
G37*
G36*
X175435521Y-59363959D02*
G01*
X175739792Y-59655000D01*
X176044063Y-59959271D01*
X176652605Y-60528125D01*
X176970104Y-60832396D01*
X177287605Y-61136667D01*
X177591876Y-61440938D01*
X177644792Y-61467396D01*
X177697708Y-61427709D01*
X178015209Y-61110209D01*
X178319479Y-60832396D01*
X178623750Y-60528125D01*
X178848646Y-60329688D01*
X178861875Y-60316459D01*
X179166146Y-60025417D01*
X179179375Y-60012188D01*
X179205834Y-59972500D01*
X179523333Y-59681459D01*
X179880521Y-59324271D01*
X179986354Y-59231667D01*
X180608125Y-59231667D01*
X180621354Y-59258125D01*
X180621354Y-59284584D01*
X180634583Y-59311042D01*
X180700729Y-59430105D01*
X180727187Y-59469792D01*
X180753646Y-59509480D01*
X180793334Y-59562396D01*
X180859479Y-59641771D01*
X180806563Y-59707917D01*
X180528750Y-59985730D01*
X180370000Y-60157709D01*
X180224479Y-60329688D01*
X180198021Y-60356146D01*
X180092188Y-60448750D01*
X179338125Y-61216042D01*
X178438542Y-62089167D01*
X177975521Y-62538958D01*
X177644792Y-62856459D01*
X177512500Y-62750625D01*
X177366979Y-62618334D01*
X177181771Y-62446354D01*
X176996563Y-62261146D01*
X176798126Y-62075938D01*
X176652605Y-61956875D01*
X176612917Y-61903959D01*
X176493855Y-61811355D01*
X176335104Y-61665834D01*
X176176354Y-61520313D01*
X175991146Y-61335104D01*
X175819167Y-61189584D01*
X175647188Y-61017605D01*
X175501667Y-60898542D01*
X175316459Y-60713334D01*
X175170937Y-60594271D01*
X174998959Y-60422292D01*
X174853438Y-60303230D01*
X174377188Y-59866667D01*
X174165521Y-59668230D01*
X174165521Y-59231667D01*
X175290000Y-59231667D01*
X175435521Y-59363959D01*
G37*
M02*
