M48
; DRILL file {KiCad 9.0.7} date 2026-08-30T01:35:55+0100
; FORMAT={-:-/ absolute / metric / decimal}
; #@! TF.CreationDate,2026-08-30T01:35:55+01:00
; #@! TF.GenerationSoftware,Kicad,Pcbnew,9.0.7
; #@! TF.FileFunction,Plated,1,2,PTH
FMAT,2
METRIC
; #@! TA.AperFunction,Plated,PTH,ComponentDrill
T1C0.762
; #@! TA.AperFunction,Plated,PTH,ComponentDrill
T2C0.900
; #@! TA.AperFunction,Plated,PTH,ComponentDrill
T3C0.950
; #@! TA.AperFunction,Plated,PTH,ComponentDrill
T4C1.000
%
G90
G05
T1
X173.425Y-55.475
X180.225Y-55.475
X186.56Y-59.481
X186.56Y-68.625
X201.8Y-59.481
X201.8Y-68.625
T2
X197.885Y-53.525
X200.425Y-53.525
T3
X147.575Y-82.75
X150.075Y-82.75
X151.55Y-31.425
X152.575Y-82.75
X154.05Y-31.425
X155.075Y-82.75
X156.55Y-31.425
X159.05Y-31.425
T4
X138.66Y-61.175
X138.66Y-73.875
X139.6Y-44.45
X139.625Y-48.05
X141.2Y-61.175
X141.2Y-73.875
X143.74Y-61.175
X143.74Y-73.875
X146.28Y-61.175
X146.28Y-73.875
X146.36Y-38.55
X146.36Y-46.17
X146.36Y-48.71
X146.36Y-51.25
X148.82Y-61.175
X148.82Y-73.875
X148.9Y-38.55
X148.9Y-51.25
X151.36Y-61.175
X151.36Y-73.875
X151.44Y-38.55
X151.44Y-51.25
X153.9Y-61.175
X153.9Y-73.875
X153.98Y-38.55
X153.98Y-51.25
X156.44Y-61.175
X156.44Y-63.715
X156.44Y-66.255
X156.44Y-73.875
X156.52Y-38.55
X156.52Y-51.25
X159.06Y-38.55
X159.06Y-51.25
X161.6Y-38.55
X161.6Y-51.25
X163.475Y-69.75
X163.5Y-73.35
X164.14Y-38.55
X164.14Y-51.25
X169.906Y-70.505
X172.446Y-70.505
X172.455Y-83.5
X174.986Y-70.505
X174.995Y-83.5
X175.375Y-30.165
X175.375Y-32.705
X175.375Y-35.245
X175.375Y-37.785
X175.375Y-40.325
X175.375Y-42.865
X175.375Y-45.405
X175.375Y-47.945
X175.375Y-50.485
X177.526Y-70.505
X177.535Y-83.5
X180.066Y-70.505
X180.075Y-83.5
X182.606Y-70.505
X190.475Y-30.165
X190.475Y-32.705
X190.475Y-35.245
X190.475Y-37.785
X190.475Y-40.325
X190.475Y-42.865
X190.475Y-45.405
X190.475Y-47.945
X190.475Y-50.485
X198.86Y-39.42
X198.86Y-41.96
X198.86Y-44.5
X198.86Y-47.04
X201.4Y-39.42
X201.4Y-41.96
X201.4Y-44.5
X201.4Y-47.04
T4
G00X189.417Y-73.675
M15
G01X191.417Y-73.675
M16
G05
G00X189.417Y-79.675
M15
G01X191.417Y-79.675
M16
G05
G00X195.117Y-77.675
M15
G01X195.117Y-75.675
M16
G05
M30
