%TF.GenerationSoftware,KiCad,Pcbnew,9.0.7*%
%TF.CreationDate,2026-08-29T21:30:05+01:00*%
%TF.ProjectId,CubeMate-pcb,43756265-4d61-4746-952d-7063622e6b69,rev?*%
%TF.SameCoordinates,Original*%
%TF.FileFunction,Copper,L1,Top*%
%TF.FilePolarity,Positive*%
%FSLAX46Y46*%
G04 Gerber Fmt 4.6, Leading zero omitted, Abs format (unit mm)*
G04 Created by KiCad (PCBNEW 9.0.7) date 2026-08-29 21:30:05*
%MOMM*%
%LPD*%
G01*
G04 APERTURE LIST*
G04 Aperture macros list*
%AMRoundRect*
0 Rectangle with rounded corners*
0 $1 Rounding radius*
0 $2 $3 $4 $5 $6 $7 $8 $9 X,Y pos of 4 corners*
0 Add a 4 corners polygon primitive as box body*
4,1,4,$2,$3,$4,$5,$6,$7,$8,$9,$2,$3,0*
0 Add four circle primitives for the rounded corners*
1,1,$1+$1,$2,$3*
1,1,$1+$1,$4,$5*
1,1,$1+$1,$6,$7*
1,1,$1+$1,$8,$9*
0 Add four rect primitives between the rounded corners*
20,1,$1+$1,$2,$3,$4,$5,0*
20,1,$1+$1,$4,$5,$6,$7,0*
20,1,$1+$1,$6,$7,$8,$9,0*
20,1,$1+$1,$8,$9,$2,$3,0*%
G04 Aperture macros list end*
%TA.AperFunction,SMDPad,CuDef*%
%ADD10RoundRect,0.250000X0.550000X-1.500000X0.550000X1.500000X-0.550000X1.500000X-0.550000X-1.500000X0*%
%TD*%
%TA.AperFunction,ComponentPad*%
%ADD11R,1.508000X1.508000*%
%TD*%
%TA.AperFunction,ComponentPad*%
%ADD12C,1.508000*%
%TD*%
%TA.AperFunction,SMDPad,CuDef*%
%ADD13RoundRect,0.250000X-0.312500X-0.625000X0.312500X-0.625000X0.312500X0.625000X-0.312500X0.625000X0*%
%TD*%
%TA.AperFunction,ComponentPad*%
%ADD14R,1.800000X1.800000*%
%TD*%
%TA.AperFunction,ComponentPad*%
%ADD15C,1.800000*%
%TD*%
%TA.AperFunction,SMDPad,CuDef*%
%ADD16RoundRect,0.250000X-0.550000X1.500000X-0.550000X-1.500000X0.550000X-1.500000X0.550000X1.500000X0*%
%TD*%
%TA.AperFunction,ComponentPad*%
%ADD17RoundRect,0.250000X0.600000X0.725000X-0.600000X0.725000X-0.600000X-0.725000X0.600000X-0.725000X0*%
%TD*%
%TA.AperFunction,ComponentPad*%
%ADD18O,1.700000X1.950000*%
%TD*%
%TA.AperFunction,ComponentPad*%
%ADD19C,1.524000*%
%TD*%
%TA.AperFunction,ComponentPad*%
%ADD20R,1.700000X4.000000*%
%TD*%
%TA.AperFunction,ComponentPad*%
%ADD21R,3.500000X3.500000*%
%TD*%
%TA.AperFunction,ComponentPad*%
%ADD22RoundRect,0.750000X1.000000X-0.750000X1.000000X0.750000X-1.000000X0.750000X-1.000000X-0.750000X0*%
%TD*%
%TA.AperFunction,ComponentPad*%
%ADD23RoundRect,0.875000X0.875000X-0.875000X0.875000X0.875000X-0.875000X0.875000X-0.875000X-0.875000X0*%
%TD*%
%TA.AperFunction,ComponentPad*%
%ADD24R,1.524000X1.524000*%
%TD*%
%TA.AperFunction,ComponentPad*%
%ADD25RoundRect,0.250000X-0.600000X-0.725000X0.600000X-0.725000X0.600000X0.725000X-0.600000X0.725000X0*%
%TD*%
%TA.AperFunction,ComponentPad*%
%ADD26R,1.700000X1.700000*%
%TD*%
%TA.AperFunction,ComponentPad*%
%ADD27C,1.700000*%
%TD*%
%TA.AperFunction,Conductor*%
%ADD28C,1.000000*%
%TD*%
%TA.AperFunction,Conductor*%
%ADD29C,0.500000*%
%TD*%
%TA.AperFunction,Conductor*%
%ADD30C,1.750000*%
%TD*%
%TA.AperFunction,Conductor*%
%ADD31C,2.000000*%
%TD*%
G04 APERTURE END LIST*
D10*
%TO.P,C2,1*%
%TO.N,Net-(A1-IN+)*%
X139625000Y-49075000D03*
%TO.P,C2,2*%
%TO.N,Net-(A1-IN-)*%
X139625000Y-43475000D03*
%TD*%
D11*
%TO.P,U1,1,GND*%
%TO.N,Net-(A1-IN-)*%
X138660000Y-73875000D03*
D12*
%TO.P,U1,2,VIO*%
%TO.N,Net-(A1-OUT+)*%
X141200000Y-73875000D03*
%TO.P,U1,3,M1B*%
%TO.N,Net-(J2-Pin_1)*%
X143740000Y-73875000D03*
%TO.P,U1,4,M1A*%
%TO.N,Net-(J2-Pin_2)*%
X146280000Y-73875000D03*
%TO.P,U1,5,M2A*%
%TO.N,Net-(J2-Pin_3)*%
X148820000Y-73875000D03*
%TO.P,U1,6,M2B*%
%TO.N,Net-(J2-Pin_4)*%
X151360000Y-73875000D03*
%TO.P,U1,7,GND*%
%TO.N,Net-(A1-IN-)*%
X153900000Y-73875000D03*
%TO.P,U1,8,VM*%
%TO.N,Net-(A1-IN+)*%
X156440000Y-73875000D03*
%TO.P,U1,9,DIR*%
%TO.N,Net-(U1-DIR)*%
X138660000Y-61175000D03*
%TO.P,U1,10,STEP*%
%TO.N,Net-(U1-STEP)*%
X141200000Y-61175000D03*
%TO.P,U1,11,PDN*%
%TO.N,unconnected-(U1-PDN-Pad11)*%
X143740000Y-61175000D03*
%TO.P,U1,12,UART*%
%TO.N,Net-(U1-UART)*%
X146280000Y-61175000D03*
%TO.P,U1,13,SPRD*%
%TO.N,unconnected-(U1-SPRD-Pad13)*%
X148820000Y-61175000D03*
%TO.P,U1,14,MS2*%
%TO.N,unconnected-(U1-MS2-Pad14)*%
X151360000Y-61175000D03*
%TO.P,U1,15,MS1*%
%TO.N,unconnected-(U1-MS1-Pad15)*%
X153900000Y-61175000D03*
%TO.P,U1,16,~{EN}*%
%TO.N,Net-(A1-IN-)*%
X156440000Y-61175000D03*
%TO.P,U1,17,INDEX*%
%TO.N,unconnected-(U1-INDEX-Pad17)*%
X156440000Y-66255000D03*
%TO.P,U1,18,DIAG*%
%TO.N,unconnected-(U1-DIAG-Pad18)*%
X156440000Y-63715000D03*
%TD*%
D13*
%TO.P,R1,1*%
%TO.N,Net-(U5-GPIO6{slash}ADC1_CH5)*%
X175350000Y-55475000D03*
%TO.P,R1,2*%
%TO.N,Net-(U1-UART)*%
X178275000Y-55475000D03*
%TD*%
D11*
%TO.P,U2,1,GND*%
%TO.N,Net-(A1-IN-)*%
X164140000Y-38550000D03*
D12*
%TO.P,U2,2,VIO*%
%TO.N,Net-(A1-OUT+)*%
X161600000Y-38550000D03*
%TO.P,U2,3,M1B*%
%TO.N,Net-(J3-Pin_1)*%
X159060000Y-38550000D03*
%TO.P,U2,4,M1A*%
%TO.N,Net-(J3-Pin_2)*%
X156520000Y-38550000D03*
%TO.P,U2,5,M2A*%
%TO.N,Net-(J3-Pin_3)*%
X153980000Y-38550000D03*
%TO.P,U2,6,M2B*%
%TO.N,Net-(J3-Pin_4)*%
X151440000Y-38550000D03*
%TO.P,U2,7,GND*%
%TO.N,Net-(A1-IN-)*%
X148900000Y-38550000D03*
%TO.P,U2,8,VM*%
%TO.N,Net-(A1-IN+)*%
X146360000Y-38550000D03*
%TO.P,U2,9,DIR*%
%TO.N,Net-(U2-DIR)*%
X164140000Y-51250000D03*
%TO.P,U2,10,STEP*%
%TO.N,Net-(U2-STEP)*%
X161600000Y-51250000D03*
%TO.P,U2,11,PDN*%
%TO.N,unconnected-(U2-PDN-Pad11)*%
X159060000Y-51250000D03*
%TO.P,U2,12,UART*%
%TO.N,Net-(U1-UART)*%
X156520000Y-51250000D03*
%TO.P,U2,13,SPRD*%
%TO.N,unconnected-(U2-SPRD-Pad13)*%
X153980000Y-51250000D03*
%TO.P,U2,14,MS2*%
%TO.N,unconnected-(U2-MS2-Pad14)*%
X151440000Y-51250000D03*
%TO.P,U2,15,MS1*%
%TO.N,Net-(A1-OUT+)*%
X148900000Y-51250000D03*
%TO.P,U2,16,~{EN}*%
%TO.N,Net-(A1-IN-)*%
X146360000Y-51250000D03*
%TO.P,U2,17,INDEX*%
%TO.N,unconnected-(U2-INDEX-Pad17)*%
X146360000Y-46170000D03*
%TO.P,U2,18,DIAG*%
%TO.N,unconnected-(U2-DIAG-Pad18)*%
X146360000Y-48710000D03*
%TD*%
D14*
%TO.P,D1,1,K*%
%TO.N,Net-(A1-IN-)*%
X200425000Y-53525000D03*
D15*
%TO.P,D1,2,A*%
%TO.N,Net-(D1-A)*%
X197885000Y-53525000D03*
%TD*%
D12*
%TO.P,,17,INDEX*%
%TO.N,Net-(A1-IN+)*%
X163475000Y-69750000D03*
%TD*%
%TO.P,,17,INDEX*%
%TO.N,Net-(A1-IN-)*%
X139600000Y-44450000D03*
%TD*%
D16*
%TO.P,C1,1*%
%TO.N,Net-(A1-IN+)*%
X163475000Y-68750000D03*
%TO.P,C1,2*%
%TO.N,Net-(A1-IN-)*%
X163475000Y-74350000D03*
%TD*%
D17*
%TO.P,J3,1,Pin_1*%
%TO.N,Net-(J3-Pin_1)*%
X159050000Y-31425000D03*
D18*
%TO.P,J3,2,Pin_2*%
%TO.N,Net-(J3-Pin_2)*%
X156550000Y-31425000D03*
%TO.P,J3,3,Pin_3*%
%TO.N,Net-(J3-Pin_3)*%
X154050000Y-31425000D03*
%TO.P,J3,4,Pin_4*%
%TO.N,Net-(J3-Pin_4)*%
X151550000Y-31425000D03*
%TD*%
D19*
%TO.P,,3*%
%TO.N,Net-(U1-UART)*%
X180225000Y-55475000D03*
%TD*%
D12*
%TO.P,U5,2,3V3*%
%TO.N,Net-(A1-OUT+)*%
X175375000Y-35245000D03*
%TO.P,U5,4,GPIO4/ADC1_CH3*%
%TO.N,Net-(U1-STEP)*%
X175375000Y-45405000D03*
%TO.P,U5,5,GPIO5/ADC1_CH4*%
%TO.N,Net-(U1-UART)*%
X175375000Y-47945000D03*
%TO.P,U5,6,GPIO6/ADC1_CH5*%
%TO.N,Net-(U5-GPIO6{slash}ADC1_CH5)*%
X175375000Y-50485000D03*
%TO.P,U5,7,GPIO7/ADC1_CH6*%
%TO.N,Net-(D1-A)*%
X190475000Y-50485000D03*
%TO.P,U5,12,GPIO8/ADC1_CH7*%
%TO.N,Net-(J6-Pin_7)*%
X190475000Y-47945000D03*
%TO.P,U5,13,GPIO3/ADC1_CH2*%
%TO.N,Net-(U1-DIR)*%
X175375000Y-42865000D03*
%TO.P,U5,15,GPIO9/ADC1_CH8*%
%TO.N,Net-(J6-Pin_5)*%
X190475000Y-45405000D03*
%TO.P,U5,16,GPIO10/ADC1_CH9*%
%TO.N,Net-(J6-Pin_3)*%
X190475000Y-42865000D03*
%TO.P,U5,17,GPIO11/ADC2_CH0*%
%TO.N,Net-(J6-Pin_1)*%
X190475000Y-40325000D03*
%TO.P,U5,18,GPIO12/ADC2_CH1*%
%TO.N,Net-(J4-Pin_2)*%
X190475000Y-37785000D03*
%TO.P,U5,19,GPIO13/ADC2_CH2*%
%TO.N,Net-(J4-Pin_3)*%
X190475000Y-35245000D03*
%TO.P,U5,21,5V*%
%TO.N,unconnected-(U5-5V-Pad21)*%
X175375000Y-30165000D03*
%TO.P,U5,40,GPIO2/ADC1_CH1*%
%TO.N,Net-(U2-STEP)*%
X175375000Y-40325000D03*
%TO.P,U5,41,GPIO1/ADC1_CH0*%
%TO.N,Net-(U2-DIR)*%
X175375000Y-37785000D03*
%TO.P,U5,42,GPIO44/U0RXD*%
%TO.N,unconnected-(U5-GPIO44{slash}U0RXD-Pad42)*%
X190475000Y-32705000D03*
%TO.P,U5,43,GPIO43/U0TXD*%
%TO.N,unconnected-(U5-GPIO43{slash}U0TXD-Pad43)*%
X190475000Y-30165000D03*
%TO.P,U5,44,GND*%
%TO.N,Net-(A1-IN-)*%
X175375000Y-32705000D03*
%TD*%
%TO.P,,17,INDEX*%
%TO.N,Net-(A1-IN-)*%
X163500000Y-73350000D03*
%TD*%
D20*
%TO.P,J5,1,Pin_1*%
%TO.N,unconnected-(J5-Pin_1-Pad1)*%
X172455000Y-83500000D03*
%TO.P,J5,2,Pin_2*%
%TO.N,unconnected-(J5-Pin_2-Pad2)*%
X174995000Y-83500000D03*
%TO.P,J5,3,Pin_3*%
%TO.N,unconnected-(J5-Pin_3-Pad3)*%
X177535000Y-83500000D03*
%TO.P,J5,4,Pin_4*%
%TO.N,unconnected-(J5-Pin_4-Pad4)*%
X180075000Y-83500000D03*
%TD*%
D21*
%TO.P,J1,1*%
%TO.N,Net-(A1-IN+)*%
X190417500Y-73675000D03*
D22*
%TO.P,J1,2*%
%TO.N,Net-(A1-IN-)*%
X190417500Y-79675000D03*
D23*
%TO.P,J1,3*%
X195117500Y-76675000D03*
%TD*%
D19*
%TO.P,U6,1*%
%TO.N,Net-(A1-IN+)*%
X201800000Y-59481000D03*
D24*
%TO.P,U6,2*%
%TO.N,Net-(A1-IN-)*%
X201800000Y-68625000D03*
D19*
%TO.P,U6,3*%
%TO.N,Net-(A1-OUT+)*%
X186560000Y-59481000D03*
%TO.P,U6,4*%
%TO.N,Net-(A1-IN-)*%
X186560000Y-68625000D03*
%TD*%
D12*
%TO.P,,17,INDEX*%
%TO.N,Net-(A1-IN+)*%
X139625000Y-48050000D03*
%TD*%
D25*
%TO.P,J2,1,Pin_1*%
%TO.N,Net-(J2-Pin_1)*%
X147575000Y-82750000D03*
D18*
%TO.P,J2,2,Pin_2*%
%TO.N,Net-(J2-Pin_2)*%
X150075000Y-82750000D03*
%TO.P,J2,3,Pin_3*%
%TO.N,Net-(J2-Pin_3)*%
X152575000Y-82750000D03*
%TO.P,J2,4,Pin_4*%
%TO.N,Net-(J2-Pin_4)*%
X155075000Y-82750000D03*
%TD*%
D26*
%TO.P,J4,1,Pin_1*%
%TO.N,Net-(A1-OUT+)*%
X169906261Y-70504624D03*
D20*
%TO.P,J4,2,Pin_2*%
%TO.N,Net-(A1-IN-)*%
X172446261Y-70504624D03*
%TO.P,J4,3,Pin_3*%
%TO.N,Net-(J4-Pin_3)*%
X174986261Y-70504624D03*
%TO.P,J4,4,Pin_4*%
%TO.N,Net-(J4-Pin_2)*%
X177526261Y-70504624D03*
%TO.P,J4,5*%
%TO.N,Net-(A1-OUT+)*%
X180066261Y-70504624D03*
D27*
%TO.P,J4,6*%
%TO.N,Net-(A1-IN-)*%
X182606261Y-70504624D03*
%TD*%
D26*
%TO.P,J6,1,Pin_1*%
%TO.N,Net-(J6-Pin_1)*%
X198860000Y-39420000D03*
D27*
%TO.P,J6,2,Pin_2*%
%TO.N,Net-(A1-IN-)*%
X201400000Y-39420000D03*
%TO.P,J6,3,Pin_3*%
%TO.N,Net-(J6-Pin_3)*%
X198860000Y-41960000D03*
%TO.P,J6,4,Pin_4*%
%TO.N,Net-(A1-IN-)*%
X201400000Y-41960000D03*
%TO.P,J6,5,Pin_5*%
%TO.N,Net-(J6-Pin_5)*%
X198860000Y-44500000D03*
%TO.P,J6,6,Pin_6*%
%TO.N,Net-(A1-IN-)*%
X201400000Y-44500000D03*
%TO.P,J6,7,Pin_7*%
%TO.N,Net-(J6-Pin_7)*%
X198860000Y-47040000D03*
%TO.P,J6,8,Pin_8*%
%TO.N,Net-(A1-IN-)*%
X201400000Y-47040000D03*
%TD*%
D19*
%TO.P,,3*%
%TO.N,Net-(U5-GPIO6{slash}ADC1_CH5)*%
X173425000Y-55475000D03*
%TD*%
D28*
%TO.N,Net-(J2-Pin_2)*%
X146280000Y-73875000D02*
X146280000Y-76005000D01*
X146280000Y-76005000D02*
X150075000Y-79800000D01*
X150075000Y-79800000D02*
X150075000Y-82750000D01*
D29*
%TO.N,Net-(A1-OUT+)*%
X186560000Y-40710000D02*
X186560000Y-59481000D01*
X172630000Y-35245000D02*
X175375000Y-35245000D01*
X162550000Y-40775000D02*
X167100000Y-40775000D01*
X181095000Y-35245000D02*
X186560000Y-40710000D01*
X148900000Y-49250000D02*
X154725000Y-43425000D01*
X161600000Y-42250000D02*
X161600000Y-38550000D01*
X154725000Y-43425000D02*
X160425000Y-43425000D01*
X161600000Y-39825000D02*
X162550000Y-40775000D01*
X167100000Y-40775000D02*
X172630000Y-35245000D01*
X148900000Y-51250000D02*
X148900000Y-49250000D01*
X175375000Y-35245000D02*
X181095000Y-35245000D01*
X161600000Y-38550000D02*
X161600000Y-39825000D01*
X160425000Y-43425000D02*
X161600000Y-42250000D01*
D30*
%TO.N,Net-(A1-IN+)*%
X156440000Y-72610000D02*
X160500000Y-68550000D01*
X157800000Y-56850000D02*
X145525000Y-56850000D01*
X160500000Y-68550000D02*
X162250000Y-68550000D01*
X145525000Y-56850000D02*
X142850000Y-54175000D01*
X190417500Y-69032500D02*
X190417500Y-73675000D01*
X199969000Y-59481000D02*
X201800000Y-59481000D01*
X144775000Y-38550000D02*
X146360000Y-38550000D01*
X194425000Y-65025000D02*
X190417500Y-69032500D01*
D31*
X165975000Y-65025000D02*
X163375000Y-62425000D01*
D30*
X142850000Y-47050000D02*
X142850000Y-47625000D01*
D31*
X163375000Y-62425000D02*
X162450000Y-61500000D01*
D30*
X142850000Y-44275000D02*
X142850000Y-40475000D01*
X162250000Y-68550000D02*
X163375000Y-67425000D01*
X194425000Y-65025000D02*
X199969000Y-59481000D01*
D31*
X165975000Y-65025000D02*
X194425000Y-65025000D01*
D30*
X142850000Y-54175000D02*
X142850000Y-47050000D01*
X163375000Y-67425000D02*
X163375000Y-62425000D01*
X142850000Y-40475000D02*
X144775000Y-38550000D01*
X142850000Y-44275000D02*
X142850000Y-45725000D01*
X141375000Y-49100000D02*
X140025000Y-49100000D01*
X156440000Y-73875000D02*
X156440000Y-72610000D01*
X142850000Y-47050000D02*
X142850000Y-44275000D01*
D31*
X162450000Y-61500000D02*
X157800000Y-56850000D01*
D30*
X142850000Y-47625000D02*
X141375000Y-49100000D01*
X142850000Y-44275000D02*
X142850000Y-45350000D01*
D28*
%TO.N,Net-(J2-Pin_1)*%
X147600000Y-79900000D02*
X147575000Y-79925000D01*
X143740000Y-73875000D02*
X143740000Y-76040000D01*
X147575000Y-79925000D02*
X147575000Y-82750000D01*
X143740000Y-76040000D02*
X147600000Y-79900000D01*
D31*
%TO.N,Net-(A1-IN-)*%
X201800000Y-68625000D02*
X198450000Y-68625000D01*
D30*
X147700000Y-35325000D02*
X148900000Y-36525000D01*
X155625000Y-77150000D02*
X158175000Y-77150000D01*
D29*
X188175000Y-40175000D02*
X188175000Y-53025000D01*
D31*
X198450000Y-68625000D02*
X195117500Y-71957500D01*
D29*
X153900000Y-72850000D02*
X153900000Y-73875000D01*
D31*
X195117500Y-78907500D02*
X194350000Y-79675000D01*
D29*
X200425000Y-55075000D02*
X199825000Y-55675000D01*
X180705000Y-32705000D02*
X188175000Y-40175000D01*
D30*
X136525000Y-40775000D02*
X136525000Y-60025000D01*
D29*
X158800000Y-61950000D02*
X158800000Y-66950000D01*
D30*
X139800000Y-66100000D02*
X150575000Y-66100000D01*
X139650000Y-37750000D02*
X139550000Y-37750000D01*
D29*
X158025000Y-61175000D02*
X158800000Y-61950000D01*
X145400000Y-51250000D02*
X144650000Y-50500000D01*
X201400000Y-41960000D02*
X201400000Y-44500000D01*
X201400000Y-49800000D02*
X200425000Y-50775000D01*
X158800000Y-66950000D02*
X153900000Y-71850000D01*
X146360000Y-51250000D02*
X145400000Y-51250000D01*
X138660000Y-73875000D02*
X138660000Y-72990000D01*
D30*
X153900000Y-69425000D02*
X153900000Y-73875000D01*
D29*
X140550000Y-71100000D02*
X152150000Y-71100000D01*
X144650000Y-50500000D02*
X144650000Y-44875000D01*
X153900000Y-71850000D02*
X153900000Y-72850000D01*
X156440000Y-61175000D02*
X158025000Y-61175000D01*
D30*
X142075000Y-35325000D02*
X147700000Y-35325000D01*
X161100000Y-74225000D02*
X166750000Y-74225000D01*
D29*
X165420000Y-32705000D02*
X164140000Y-33985000D01*
D30*
X158175000Y-77150000D02*
X161100000Y-74225000D01*
D29*
X138660000Y-72990000D02*
X140550000Y-71100000D01*
D30*
X153900000Y-75425000D02*
X155625000Y-77150000D01*
D31*
X195117500Y-71957500D02*
X195117500Y-76675000D01*
D29*
X201400000Y-39420000D02*
X201400000Y-41960000D01*
X152150000Y-71100000D02*
X153900000Y-72850000D01*
X199825000Y-55675000D02*
X190825000Y-55675000D01*
D30*
X153900000Y-73875000D02*
X153900000Y-75425000D01*
D29*
X164140000Y-33985000D02*
X164140000Y-38550000D01*
X201400000Y-47040000D02*
X201400000Y-49800000D01*
D31*
X195117500Y-76675000D02*
X195117500Y-78907500D01*
D30*
X136525000Y-62825000D02*
X139800000Y-66100000D01*
X139550000Y-37750000D02*
X136525000Y-40775000D01*
D29*
X200425000Y-53525000D02*
X200425000Y-55075000D01*
X148900000Y-40625000D02*
X148900000Y-38550000D01*
D30*
X166750000Y-74225000D02*
X172200000Y-79675000D01*
X139650000Y-43425000D02*
X139650000Y-37750000D01*
D29*
X201400000Y-47040000D02*
X201400000Y-44500000D01*
D31*
X194350000Y-79675000D02*
X190417500Y-79675000D01*
D30*
X172200000Y-79675000D02*
X190417500Y-79675000D01*
D29*
X175375000Y-32705000D02*
X180705000Y-32705000D01*
D30*
X150575000Y-66100000D02*
X153900000Y-69425000D01*
D29*
X175375000Y-32705000D02*
X165420000Y-32705000D01*
X200425000Y-50775000D02*
X200425000Y-53525000D01*
D30*
X136525000Y-60025000D02*
X136525000Y-62825000D01*
D29*
X144650000Y-44875000D02*
X148900000Y-40625000D01*
D30*
X148900000Y-36525000D02*
X148900000Y-38550000D01*
X139650000Y-37750000D02*
X142075000Y-35325000D01*
D29*
X188175000Y-53025000D02*
X190825000Y-55675000D01*
D28*
%TO.N,Net-(J2-Pin_4)*%
X151360000Y-75735000D02*
X155075000Y-79450000D01*
X151360000Y-73875000D02*
X151360000Y-75735000D01*
X155075000Y-79450000D02*
X155075000Y-82750000D01*
D29*
%TO.N,Net-(U1-UART)*%
X172380000Y-47945000D02*
X175375000Y-47945000D01*
X177770000Y-47945000D02*
X175375000Y-47945000D01*
X178275000Y-48450000D02*
X177770000Y-47945000D01*
X156520000Y-51250000D02*
X156520000Y-53520000D01*
X156520000Y-53520000D02*
X157525000Y-54525000D01*
X178275000Y-55475000D02*
X180225000Y-55475000D01*
X178275000Y-55475000D02*
X178275000Y-48450000D01*
X157525000Y-54525000D02*
X165800000Y-54525000D01*
X165800000Y-54525000D02*
X172380000Y-47945000D01*
D28*
%TO.N,Net-(J2-Pin_3)*%
X148820000Y-75820000D02*
X152575000Y-79575000D01*
X148820000Y-73875000D02*
X148820000Y-75820000D01*
X152575000Y-79575000D02*
X152575000Y-82750000D01*
D29*
%TO.N,Net-(U2-STEP)*%
X169475000Y-40325000D02*
X175375000Y-40325000D01*
X161600000Y-48200000D02*
X169475000Y-40325000D01*
X161600000Y-51250000D02*
X161600000Y-48200000D01*
%TO.N,Net-(J6-Pin_1)*%
X196980000Y-39420000D02*
X196075000Y-40325000D01*
X196075000Y-40325000D02*
X190475000Y-40325000D01*
X198860000Y-39420000D02*
X196980000Y-39420000D01*
%TO.N,Net-(J6-Pin_7)*%
X196290000Y-47040000D02*
X198860000Y-47040000D01*
X190475000Y-47945000D02*
X195355000Y-47945000D01*
X195355000Y-47945000D02*
X196275000Y-47025000D01*
X196275000Y-47025000D02*
X196290000Y-47040000D01*
%TO.N,Net-(J6-Pin_5)*%
X196700000Y-44500000D02*
X195795000Y-45405000D01*
X198860000Y-44500000D02*
X196700000Y-44500000D01*
X195795000Y-45405000D02*
X190475000Y-45405000D01*
%TO.N,Net-(U5-GPIO6{slash}ADC1_CH5)*%
X175375000Y-50485000D02*
X175375000Y-55450000D01*
X175375000Y-55450000D02*
X175350000Y-55475000D01*
X175350000Y-55475000D02*
X173425000Y-55475000D01*
%TO.N,Net-(D1-A)*%
X197885000Y-51435000D02*
X196935000Y-50485000D01*
X196935000Y-50485000D02*
X190475000Y-50485000D01*
X197885000Y-53525000D02*
X197885000Y-51435000D01*
%TO.N,Net-(J6-Pin_3)*%
X190475000Y-42865000D02*
X195160000Y-42865000D01*
X196065000Y-41960000D02*
X198860000Y-41960000D01*
X195160000Y-42865000D02*
X196065000Y-41960000D01*
D28*
%TO.N,Net-(J3-Pin_1)*%
X159060000Y-38550000D02*
X159060000Y-31435000D01*
X159060000Y-31435000D02*
X159050000Y-31425000D01*
%TO.N,Net-(J3-Pin_2)*%
X156520000Y-38550000D02*
X156520000Y-31455000D01*
X156520000Y-31455000D02*
X156550000Y-31425000D01*
%TO.N,Net-(J3-Pin_3)*%
X153980000Y-38550000D02*
X153980000Y-31495000D01*
X153980000Y-31495000D02*
X154050000Y-31425000D01*
%TO.N,Net-(J3-Pin_4)*%
X151440000Y-38550000D02*
X151440000Y-31535000D01*
X151440000Y-31535000D02*
X151550000Y-31425000D01*
%TD*%
M02*
