%TF.GenerationSoftware,KiCad,Pcbnew,9.0.7*%
%TF.CreationDate,2026-08-25T13:18:00+01:00*%
%TF.ProjectId,OnstepX Controller v2-2,4f6e7374-6570-4582-9043-6f6e74726f6c,rev?*%
%TF.SameCoordinates,Original*%
%TF.FileFunction,Legend,Bot*%
%TF.FilePolarity,Positive*%
%FSLAX46Y46*%
G04 Gerber Fmt 4.6, Leading zero omitted, Abs format (unit mm)*
G04 Created by KiCad (PCBNEW 9.0.7) date 2026-08-25 13:18:00*
%MOMM*%
%LPD*%
G01*
G04 APERTURE LIST*
%ADD10C,0.400000*%
%ADD11C,0.100000*%
G04 APERTURE END LIST*
D10*
X165690414Y-54134438D02*
X163214223Y-54134438D01*
X163214223Y-54134438D02*
X164547557Y-54896342D01*
X164547557Y-54896342D02*
X163976128Y-54896342D01*
X163976128Y-54896342D02*
X163595176Y-54991580D01*
X163595176Y-54991580D02*
X163404700Y-55086819D01*
X163404700Y-55086819D02*
X163214223Y-55277295D01*
X163214223Y-55277295D02*
X163214223Y-55753485D01*
X163214223Y-55753485D02*
X163404700Y-55943961D01*
X163404700Y-55943961D02*
X163595176Y-56039200D01*
X163595176Y-56039200D02*
X163976128Y-56134438D01*
X163976128Y-56134438D02*
X165118985Y-56134438D01*
X165118985Y-56134438D02*
X165499938Y-56039200D01*
X165499938Y-56039200D02*
X165690414Y-55943961D01*
D11*
G36*
X162126814Y-58045000D02*
G01*
X162126814Y-55032020D01*
X160930268Y-55032020D01*
X159508042Y-57166275D01*
X159221179Y-57612506D01*
X158901343Y-57129272D01*
X157462630Y-55032020D01*
X156392847Y-55032020D01*
X156392847Y-58045000D01*
X157159281Y-58045000D01*
X157159281Y-55521849D01*
X158905373Y-58045000D01*
X159622714Y-58045000D01*
X161360380Y-55478801D01*
X161360380Y-58045000D01*
X162126814Y-58045000D01*
G37*
G36*
X155769295Y-58045000D02*
G01*
X154924825Y-58045000D01*
X154265003Y-57130554D01*
X151752477Y-57130554D01*
X151051622Y-58045000D01*
X150145603Y-58045000D01*
X151159987Y-56802292D01*
X151998307Y-56802292D01*
X154035293Y-56802292D01*
X153375471Y-55921369D01*
X153189327Y-55634486D01*
X153051605Y-55347643D01*
X152887597Y-55607470D01*
X152625523Y-55970462D01*
X151998307Y-56802292D01*
X151159987Y-56802292D01*
X152605006Y-55032020D01*
X153461566Y-55032020D01*
X155769295Y-58045000D01*
G37*
G36*
X148603576Y-58045000D02*
G01*
X148603576Y-55380799D01*
X150583408Y-55380799D01*
X150583408Y-55032020D01*
X145820673Y-55032020D01*
X145820673Y-55380799D01*
X147808565Y-55380799D01*
X147808565Y-58045000D01*
X148603576Y-58045000D01*
G37*
G36*
X144987194Y-58045000D02*
G01*
X144987194Y-55032020D01*
X140642480Y-55032020D01*
X140642480Y-55380799D01*
X144191817Y-55380799D01*
X144191817Y-56309898D01*
X140867794Y-56309898D01*
X140867794Y-56658677D01*
X144191817Y-56658677D01*
X144191817Y-57696221D01*
X140502896Y-57696221D01*
X140502896Y-58045000D01*
X144987194Y-58045000D01*
G37*
M02*
