ISO-10303-21;
HEADER;
FILE_DESCRIPTION(('FreeCAD Model'),'2;1');
FILE_NAME('Open CASCADE Shape Model','2026-08-25T01:11:01',(''),(''),
  'Open CASCADE STEP processor 7.8','FreeCAD','Unknown');
FILE_SCHEMA(('AUTOMOTIVE_DESIGN { 1 0 10303 214 1 1 1 1 }'));
ENDSEC;
DATA;
#1 = APPLICATION_PROTOCOL_DEFINITION('international standard',
  'automotive_design',2000,#2);
#2 = APPLICATION_CONTEXT(
  'core data for automotive mechanical design processes');
#3 = SHAPE_DEFINITION_REPRESENTATION(#4,#10);
#4 = PRODUCT_DEFINITION_SHAPE('','',#5);
#5 = PRODUCT_DEFINITION('design','',#6,#9);
#6 = PRODUCT_DEFINITION_FORMATION('','',#7);
#7 = PRODUCT('side plate 1','side plate 1','',(#8));
#8 = PRODUCT_CONTEXT('',#2,'mechanical');
#9 = PRODUCT_DEFINITION_CONTEXT('part definition',#2,'design');
#10 = ADVANCED_BREP_SHAPE_REPRESENTATION('',(#11,#15),#1598);
#11 = AXIS2_PLACEMENT_3D('',#12,#13,#14);
#12 = CARTESIAN_POINT('',(0.,0.,0.));
#13 = DIRECTION('',(0.,0.,1.));
#14 = DIRECTION('',(1.,0.,-0.));
#15 = MANIFOLD_SOLID_BREP('',#16);
#16 = CLOSED_SHELL('',(#17,#73,#203,#227,#251,#275,#299,#447,#484,#509,
    #534,#559,#584,#609,#634,#659,#684,#709,#733,#757,#774,#791,#808,
    #825,#842,#859,#876,#893,#910,#927,#1031,#1062,#1086,#1110,#1134,
    #1158,#1182,#1206,#1230,#1255,#1279,#1297,#1386,#1417,#1442,#1466,
    #1491,#1515,#1540,#1564,#1582));
#17 = ADVANCED_FACE('',(#18),#68,.T.);
#18 = FACE_BOUND('',#19,.T.);
#19 = EDGE_LOOP('',(#20,#30,#38,#46,#54,#62));
#20 = ORIENTED_EDGE('',*,*,#21,.F.);
#21 = EDGE_CURVE('',#22,#24,#26,.T.);
#22 = VERTEX_POINT('',#23);
#23 = CARTESIAN_POINT('',(2.E-15,-60.500206,-2.109000000004E-03));
#24 = VERTEX_POINT('',#25);
#25 = CARTESIAN_POINT('',(-1.2E-14,65.499908,-2.109000000004E-03));
#26 = LINE('',#27,#28);
#27 = CARTESIAN_POINT('',(0.,-61.000206,-2.109000000004E-03));
#28 = VECTOR('',#29,1.);
#29 = DIRECTION('',(0.,1.,0.));
#30 = ORIENTED_EDGE('',*,*,#31,.T.);
#31 = EDGE_CURVE('',#22,#32,#34,.T.);
#32 = VERTEX_POINT('',#33);
#33 = CARTESIAN_POINT('',(-0.5,-61.000206,-2.109000000004E-03));
#34 = LINE('',#35,#36);
#35 = CARTESIAN_POINT('',(-0.25,-60.750206,-2.10899999999E-03));
#36 = VECTOR('',#37,1.);
#37 = DIRECTION('',(-0.707106781187,-0.707106781187,1.6E-16));
#38 = ORIENTED_EDGE('',*,*,#39,.T.);
#39 = EDGE_CURVE('',#32,#40,#42,.T.);
#40 = VERTEX_POINT('',#41);
#41 = CARTESIAN_POINT('',(-3.,-61.000206,-2.109000000004E-03));
#42 = LINE('',#43,#44);
#43 = CARTESIAN_POINT('',(0.,-61.000206,-2.109000000004E-03));
#44 = VECTOR('',#45,1.);
#45 = DIRECTION('',(-1.,0.,2.2E-16));
#46 = ORIENTED_EDGE('',*,*,#47,.F.);
#47 = EDGE_CURVE('',#48,#40,#50,.T.);
#48 = VERTEX_POINT('',#49);
#49 = CARTESIAN_POINT('',(-3.,65.999908,-2.109000000004E-03));
#50 = LINE('',#51,#52);
#51 = CARTESIAN_POINT('',(-3.,-30.16196237539,-2.109000000004E-03));
#52 = VECTOR('',#53,1.);
#53 = DIRECTION('',(0.,-1.,0.));
#54 = ORIENTED_EDGE('',*,*,#55,.F.);
#55 = EDGE_CURVE('',#56,#48,#58,.T.);
#56 = VERTEX_POINT('',#57);
#57 = CARTESIAN_POINT('',(-0.5,65.999908,-2.109000000004E-03));
#58 = LINE('',#59,#60);
#59 = CARTESIAN_POINT('',(0.,65.999908,-2.109000000004E-03));
#60 = VECTOR('',#61,1.);
#61 = DIRECTION('',(-1.,0.,2.2E-16));
#62 = ORIENTED_EDGE('',*,*,#63,.F.);
#63 = EDGE_CURVE('',#24,#56,#64,.T.);
#64 = LINE('',#65,#66);
#65 = CARTESIAN_POINT('',(31.5000285,33.9998795,-2.109000000011E-03));
#66 = VECTOR('',#67,1.);
#67 = DIRECTION('',(-0.707106781187,0.707106781187,1.6E-16));
#68 = PLANE('',#69);
#69 = AXIS2_PLACEMENT_3D('',#70,#71,#72);
#70 = CARTESIAN_POINT('',(0.,-61.000206,-2.109000000004E-03));
#71 = DIRECTION('',(-2.2E-16,0.,-1.));
#72 = DIRECTION('',(0.,1.,0.));
#73 = ADVANCED_FACE('',(#74,#99,#110,#121,#132,#143,#154,#165,#176,#187)
  ,#198,.T.);
#74 = FACE_BOUND('',#75,.T.);
#75 = EDGE_LOOP('',(#76,#77,#85,#93));
#76 = ORIENTED_EDGE('',*,*,#21,.T.);
#77 = ORIENTED_EDGE('',*,*,#78,.T.);
#78 = EDGE_CURVE('',#24,#79,#81,.T.);
#79 = VERTEX_POINT('',#80);
#80 = CARTESIAN_POINT('',(-2.5E-14,65.499908,124.018199));
#81 = LINE('',#82,#83);
#82 = CARTESIAN_POINT('',(-1.377E-14,65.499908,-2.109000000004E-03));
#83 = VECTOR('',#84,1.);
#84 = DIRECTION('',(-2.2E-16,0.,1.));
#85 = ORIENTED_EDGE('',*,*,#86,.T.);
#86 = EDGE_CURVE('',#79,#87,#89,.T.);
#87 = VERTEX_POINT('',#88);
#88 = CARTESIAN_POINT('',(-1.2E-14,-60.500206,124.018199));
#89 = LINE('',#90,#91);
#90 = CARTESIAN_POINT('',(0.,65.999908,124.018199));
#91 = VECTOR('',#92,1.);
#92 = DIRECTION('',(0.,-1.,0.));
#93 = ORIENTED_EDGE('',*,*,#94,.T.);
#94 = EDGE_CURVE('',#87,#22,#95,.T.);
#95 = LINE('',#96,#97);
#96 = CARTESIAN_POINT('',(-1.377E-14,-60.500206,124.018199));
#97 = VECTOR('',#98,1.);
#98 = DIRECTION('',(2.2E-16,0.,-1.));
#99 = FACE_BOUND('',#100,.T.);
#100 = EDGE_LOOP('',(#101));
#101 = ORIENTED_EDGE('',*,*,#102,.F.);
#102 = EDGE_CURVE('',#103,#103,#105,.T.);
#103 = VERTEX_POINT('',#104);
#104 = CARTESIAN_POINT('',(-1.4E-14,61.000019,30.999981));
#105 = CIRCLE('',#106,4.);
#106 = AXIS2_PLACEMENT_3D('',#107,#108,#109);
#107 = CARTESIAN_POINT('',(-1.4E-14,61.000019,34.999981));
#108 = DIRECTION('',(1.,-0.,0.));
#109 = DIRECTION('',(0.,0.,-1.));
#110 = FACE_BOUND('',#111,.T.);
#111 = EDGE_LOOP('',(#112));
#112 = ORIENTED_EDGE('',*,*,#113,.F.);
#113 = EDGE_CURVE('',#114,#114,#116,.T.);
#114 = VERTEX_POINT('',#115);
#115 = CARTESIAN_POINT('',(-1.4E-14,30.,0.999987));
#116 = CIRCLE('',#117,4.);
#117 = AXIS2_PLACEMENT_3D('',#118,#119,#120);
#118 = CARTESIAN_POINT('',(-1.4E-14,30.,4.999987));
#119 = DIRECTION('',(1.,-0.,0.));
#120 = DIRECTION('',(0.,0.,-1.));
#121 = FACE_BOUND('',#122,.T.);
#122 = EDGE_LOOP('',(#123));
#123 = ORIENTED_EDGE('',*,*,#124,.F.);
#124 = EDGE_CURVE('',#125,#125,#127,.T.);
#125 = VERTEX_POINT('',#126);
#126 = CARTESIAN_POINT('',(-1.4E-14,60.999943,60.999992));
#127 = CIRCLE('',#128,4.);
#128 = AXIS2_PLACEMENT_3D('',#129,#130,#131);
#129 = CARTESIAN_POINT('',(-1.4E-14,60.999943,64.999992));
#130 = DIRECTION('',(1.,-0.,0.));
#131 = DIRECTION('',(0.,0.,-1.));
#132 = FACE_BOUND('',#133,.T.);
#133 = EDGE_LOOP('',(#134));
#134 = ORIENTED_EDGE('',*,*,#135,.F.);
#135 = EDGE_CURVE('',#136,#136,#138,.T.);
#136 = VERTEX_POINT('',#137);
#137 = CARTESIAN_POINT('',(-1.4E-14,60.999996,91.));
#138 = CIRCLE('',#139,4.);
#139 = AXIS2_PLACEMENT_3D('',#140,#141,#142);
#140 = CARTESIAN_POINT('',(-1.4E-14,60.999996,95.));
#141 = DIRECTION('',(1.,-0.,0.));
#142 = DIRECTION('',(0.,0.,-1.));
#143 = FACE_BOUND('',#144,.T.);
#144 = EDGE_LOOP('',(#145));
#145 = ORIENTED_EDGE('',*,*,#146,.F.);
#146 = EDGE_CURVE('',#147,#147,#149,.T.);
#147 = VERTEX_POINT('',#148);
#148 = CARTESIAN_POINT('',(-1.4E-14,0.,0.999649));
#149 = CIRCLE('',#150,4.);
#150 = AXIS2_PLACEMENT_3D('',#151,#152,#153);
#151 = CARTESIAN_POINT('',(-1.4E-14,0.,4.999649));
#152 = DIRECTION('',(1.,-0.,0.));
#153 = DIRECTION('',(0.,0.,-1.));
#154 = FACE_BOUND('',#155,.T.);
#155 = EDGE_LOOP('',(#156));
#156 = ORIENTED_EDGE('',*,*,#157,.F.);
#157 = EDGE_CURVE('',#158,#158,#160,.T.);
#158 = VERTEX_POINT('',#159);
#159 = CARTESIAN_POINT('',(-1.4E-14,-30.000401,0.999297));
#160 = CIRCLE('',#161,4.);
#161 = AXIS2_PLACEMENT_3D('',#162,#163,#164);
#162 = CARTESIAN_POINT('',(-1.4E-14,-30.000401,4.999297));
#163 = DIRECTION('',(1.,-0.,0.));
#164 = DIRECTION('',(0.,0.,-1.));
#165 = FACE_BOUND('',#166,.T.);
#166 = EDGE_LOOP('',(#167));
#167 = ORIENTED_EDGE('',*,*,#168,.F.);
#168 = EDGE_CURVE('',#169,#169,#171,.T.);
#169 = VERTEX_POINT('',#170);
#170 = CARTESIAN_POINT('',(-1.4E-14,-56.000278,30.999886));
#171 = CIRCLE('',#172,4.);
#172 = AXIS2_PLACEMENT_3D('',#173,#174,#175);
#173 = CARTESIAN_POINT('',(-1.4E-14,-56.000278,34.999886));
#174 = DIRECTION('',(1.,-0.,0.));
#175 = DIRECTION('',(0.,0.,-1.));
#176 = FACE_BOUND('',#177,.T.);
#177 = EDGE_LOOP('',(#178));
#178 = ORIENTED_EDGE('',*,*,#179,.F.);
#179 = EDGE_CURVE('',#180,#180,#182,.T.);
#180 = VERTEX_POINT('',#181);
#181 = CARTESIAN_POINT('',(-1.4E-14,-56.000004,60.999992));
#182 = CIRCLE('',#183,4.);
#183 = AXIS2_PLACEMENT_3D('',#184,#185,#186);
#184 = CARTESIAN_POINT('',(-1.4E-14,-56.000004,64.999992));
#185 = DIRECTION('',(1.,-0.,0.));
#186 = DIRECTION('',(0.,0.,-1.));
#187 = FACE_BOUND('',#188,.T.);
#188 = EDGE_LOOP('',(#189));
#189 = ORIENTED_EDGE('',*,*,#190,.F.);
#190 = EDGE_CURVE('',#191,#191,#193,.T.);
#191 = VERTEX_POINT('',#192);
#192 = CARTESIAN_POINT('',(-1.4E-14,-56.000015,91.000008));
#193 = CIRCLE('',#194,4.);
#194 = AXIS2_PLACEMENT_3D('',#195,#196,#197);
#195 = CARTESIAN_POINT('',(-1.4E-14,-56.000015,95.000008));
#196 = DIRECTION('',(1.,-0.,0.));
#197 = DIRECTION('',(0.,0.,-1.));
#198 = PLANE('',#199);
#199 = AXIS2_PLACEMENT_3D('',#200,#201,#202);
#200 = CARTESIAN_POINT('',(-1.377E-14,2.499851,62.008045));
#201 = DIRECTION('',(1.,0.,0.));
#202 = DIRECTION('',(0.,0.,1.));
#203 = ADVANCED_FACE('',(#204),#222,.T.);
#204 = FACE_BOUND('',#205,.F.);
#205 = EDGE_LOOP('',(#206,#214,#215,#216));
#206 = ORIENTED_EDGE('',*,*,#207,.F.);
#207 = EDGE_CURVE('',#87,#208,#210,.T.);
#208 = VERTEX_POINT('',#209);
#209 = CARTESIAN_POINT('',(-0.5,-61.000206,124.018199));
#210 = LINE('',#211,#212);
#211 = CARTESIAN_POINT('',(31.5000285,-29.0001775,124.018199));
#212 = VECTOR('',#213,1.);
#213 = DIRECTION('',(-0.707106781187,-0.707106781187,1.6E-16));
#214 = ORIENTED_EDGE('',*,*,#94,.T.);
#215 = ORIENTED_EDGE('',*,*,#31,.T.);
#216 = ORIENTED_EDGE('',*,*,#217,.F.);
#217 = EDGE_CURVE('',#208,#32,#218,.T.);
#218 = LINE('',#219,#220);
#219 = CARTESIAN_POINT('',(-0.5,-61.000206,124.018199));
#220 = VECTOR('',#221,1.);
#221 = DIRECTION('',(2.2E-16,0.,-1.));
#222 = PLANE('',#223);
#223 = AXIS2_PLACEMENT_3D('',#224,#225,#226);
#224 = CARTESIAN_POINT('',(-0.25,-60.750206,124.018199));
#225 = DIRECTION('',(0.707106781187,-0.707106781187,0.));
#226 = DIRECTION('',(-1.1E-16,-1.1E-16,1.));
#227 = ADVANCED_FACE('',(#228),#246,.T.);
#228 = FACE_BOUND('',#229,.F.);
#229 = EDGE_LOOP('',(#230,#231,#232,#240));
#230 = ORIENTED_EDGE('',*,*,#63,.F.);
#231 = ORIENTED_EDGE('',*,*,#78,.T.);
#232 = ORIENTED_EDGE('',*,*,#233,.T.);
#233 = EDGE_CURVE('',#79,#234,#236,.T.);
#234 = VERTEX_POINT('',#235);
#235 = CARTESIAN_POINT('',(-0.5,65.999908,124.018199));
#236 = LINE('',#237,#238);
#237 = CARTESIAN_POINT('',(-0.25,65.749908,124.018199));
#238 = VECTOR('',#239,1.);
#239 = DIRECTION('',(-0.707106781187,0.707106781187,1.6E-16));
#240 = ORIENTED_EDGE('',*,*,#241,.F.);
#241 = EDGE_CURVE('',#56,#234,#242,.T.);
#242 = LINE('',#243,#244);
#243 = CARTESIAN_POINT('',(-0.5,65.999908,-2.109000000004E-03));
#244 = VECTOR('',#245,1.);
#245 = DIRECTION('',(-2.2E-16,0.,1.));
#246 = PLANE('',#247);
#247 = AXIS2_PLACEMENT_3D('',#248,#249,#250);
#248 = CARTESIAN_POINT('',(-0.25,65.749908,-2.109000000004E-03));
#249 = DIRECTION('',(0.707106781187,0.707106781187,0.));
#250 = DIRECTION('',(1.1E-16,-1.1E-16,-1.));
#251 = ADVANCED_FACE('',(#252),#270,.T.);
#252 = FACE_BOUND('',#253,.T.);
#253 = EDGE_LOOP('',(#254,#255,#256,#264));
#254 = ORIENTED_EDGE('',*,*,#39,.F.);
#255 = ORIENTED_EDGE('',*,*,#217,.F.);
#256 = ORIENTED_EDGE('',*,*,#257,.T.);
#257 = EDGE_CURVE('',#208,#258,#260,.T.);
#258 = VERTEX_POINT('',#259);
#259 = CARTESIAN_POINT('',(-3.,-61.000206,124.018199));
#260 = LINE('',#261,#262);
#261 = CARTESIAN_POINT('',(-2.754E-14,-61.000206,124.018199));
#262 = VECTOR('',#263,1.);
#263 = DIRECTION('',(-1.,0.,2.2E-16));
#264 = ORIENTED_EDGE('',*,*,#265,.F.);
#265 = EDGE_CURVE('',#40,#258,#266,.T.);
#266 = LINE('',#267,#268);
#267 = CARTESIAN_POINT('',(-3.,-61.000206,84.312335441251));
#268 = VECTOR('',#269,1.);
#269 = DIRECTION('',(0.,0.,1.));
#270 = PLANE('',#271);
#271 = AXIS2_PLACEMENT_3D('',#272,#273,#274);
#272 = CARTESIAN_POINT('',(-2.754E-14,-61.000206,124.018199));
#273 = DIRECTION('',(-0.,-1.,-0.));
#274 = DIRECTION('',(2.2E-16,0.,-1.));
#275 = ADVANCED_FACE('',(#276),#294,.T.);
#276 = FACE_BOUND('',#277,.T.);
#277 = EDGE_LOOP('',(#278,#286,#287,#288));
#278 = ORIENTED_EDGE('',*,*,#279,.F.);
#279 = EDGE_CURVE('',#234,#280,#282,.T.);
#280 = VERTEX_POINT('',#281);
#281 = CARTESIAN_POINT('',(-3.,65.999908,124.018199));
#282 = LINE('',#283,#284);
#283 = CARTESIAN_POINT('',(-2.754E-14,65.999908,124.018199));
#284 = VECTOR('',#285,1.);
#285 = DIRECTION('',(-1.,0.,2.2E-16));
#286 = ORIENTED_EDGE('',*,*,#241,.F.);
#287 = ORIENTED_EDGE('',*,*,#55,.T.);
#288 = ORIENTED_EDGE('',*,*,#289,.F.);
#289 = EDGE_CURVE('',#280,#48,#290,.T.);
#290 = LINE('',#291,#292);
#291 = CARTESIAN_POINT('',(-3.,65.999908,22.302181441251));
#292 = VECTOR('',#293,1.);
#293 = DIRECTION('',(0.,0.,-1.));
#294 = PLANE('',#295);
#295 = AXIS2_PLACEMENT_3D('',#296,#297,#298);
#296 = CARTESIAN_POINT('',(0.,65.999908,-2.109000000004E-03));
#297 = DIRECTION('',(0.,1.,0.));
#298 = DIRECTION('',(-2.2E-16,0.,1.));
#299 = ADVANCED_FACE('',(#300,#343,#354,#365,#376,#387,#398,#409,#420,
    #431),#442,.F.);
#300 = FACE_BOUND('',#301,.F.);
#301 = EDGE_LOOP('',(#302,#312,#320,#328,#334,#335,#336,#337));
#302 = ORIENTED_EDGE('',*,*,#303,.F.);
#303 = EDGE_CURVE('',#304,#306,#308,.T.);
#304 = VERTEX_POINT('',#305);
#305 = CARTESIAN_POINT('',(-3.,55.898239,10.078942));
#306 = VERTEX_POINT('',#307);
#307 = CARTESIAN_POINT('',(-3.,55.898239,124.018199));
#308 = LINE('',#309,#310);
#309 = CARTESIAN_POINT('',(-3.,55.898239,10.078942));
#310 = VECTOR('',#311,1.);
#311 = DIRECTION('',(0.,0.,1.));
#312 = ORIENTED_EDGE('',*,*,#313,.T.);
#313 = EDGE_CURVE('',#304,#314,#316,.T.);
#314 = VERTEX_POINT('',#315);
#315 = CARTESIAN_POINT('',(-3.,-50.896221,10.078942));
#316 = LINE('',#317,#318);
#317 = CARTESIAN_POINT('',(-3.,55.898239,10.078942));
#318 = VECTOR('',#319,1.);
#319 = DIRECTION('',(0.,-1.,0.));
#320 = ORIENTED_EDGE('',*,*,#321,.T.);
#321 = EDGE_CURVE('',#314,#322,#324,.T.);
#322 = VERTEX_POINT('',#323);
#323 = CARTESIAN_POINT('',(-3.,-50.896221,124.018199));
#324 = LINE('',#325,#326);
#325 = CARTESIAN_POINT('',(-3.,-50.896221,10.078942));
#326 = VECTOR('',#327,1.);
#327 = DIRECTION('',(0.,0.,1.));
#328 = ORIENTED_EDGE('',*,*,#329,.F.);
#329 = EDGE_CURVE('',#258,#322,#330,.T.);
#330 = LINE('',#331,#332);
#331 = CARTESIAN_POINT('',(-3.,33.338094624608,124.018199));
#332 = VECTOR('',#333,1.);
#333 = DIRECTION('',(0.,1.,0.));
#334 = ORIENTED_EDGE('',*,*,#265,.F.);
#335 = ORIENTED_EDGE('',*,*,#47,.F.);
#336 = ORIENTED_EDGE('',*,*,#289,.F.);
#337 = ORIENTED_EDGE('',*,*,#338,.F.);
#338 = EDGE_CURVE('',#306,#280,#339,.T.);
#339 = LINE('',#340,#341);
#340 = CARTESIAN_POINT('',(-3.,33.338094624608,124.018199));
#341 = VECTOR('',#342,1.);
#342 = DIRECTION('',(0.,1.,0.));
#343 = FACE_BOUND('',#344,.F.);
#344 = EDGE_LOOP('',(#345));
#345 = ORIENTED_EDGE('',*,*,#346,.T.);
#346 = EDGE_CURVE('',#347,#347,#349,.T.);
#347 = VERTEX_POINT('',#348);
#348 = CARTESIAN_POINT('',(-3.,61.000019,32.749981));
#349 = CIRCLE('',#350,2.25);
#350 = AXIS2_PLACEMENT_3D('',#351,#352,#353);
#351 = CARTESIAN_POINT('',(-3.,61.000019,34.999981));
#352 = DIRECTION('',(-1.,-0.,-0.));
#353 = DIRECTION('',(0.,0.,-1.));
#354 = FACE_BOUND('',#355,.F.);
#355 = EDGE_LOOP('',(#356));
#356 = ORIENTED_EDGE('',*,*,#357,.T.);
#357 = EDGE_CURVE('',#358,#358,#360,.T.);
#358 = VERTEX_POINT('',#359);
#359 = CARTESIAN_POINT('',(-3.,30.,2.749987));
#360 = CIRCLE('',#361,2.25);
#361 = AXIS2_PLACEMENT_3D('',#362,#363,#364);
#362 = CARTESIAN_POINT('',(-3.,30.,4.999987));
#363 = DIRECTION('',(-1.,-0.,-0.));
#364 = DIRECTION('',(0.,0.,-1.));
#365 = FACE_BOUND('',#366,.F.);
#366 = EDGE_LOOP('',(#367));
#367 = ORIENTED_EDGE('',*,*,#368,.T.);
#368 = EDGE_CURVE('',#369,#369,#371,.T.);
#369 = VERTEX_POINT('',#370);
#370 = CARTESIAN_POINT('',(-3.,60.999943,62.749992));
#371 = CIRCLE('',#372,2.25);
#372 = AXIS2_PLACEMENT_3D('',#373,#374,#375);
#373 = CARTESIAN_POINT('',(-3.,60.999943,64.999992));
#374 = DIRECTION('',(-1.,-0.,-0.));
#375 = DIRECTION('',(0.,0.,-1.));
#376 = FACE_BOUND('',#377,.F.);
#377 = EDGE_LOOP('',(#378));
#378 = ORIENTED_EDGE('',*,*,#379,.T.);
#379 = EDGE_CURVE('',#380,#380,#382,.T.);
#380 = VERTEX_POINT('',#381);
#381 = CARTESIAN_POINT('',(-3.,60.999996,92.75));
#382 = CIRCLE('',#383,2.25);
#383 = AXIS2_PLACEMENT_3D('',#384,#385,#386);
#384 = CARTESIAN_POINT('',(-3.,60.999996,95.));
#385 = DIRECTION('',(-1.,-0.,-0.));
#386 = DIRECTION('',(0.,0.,-1.));
#387 = FACE_BOUND('',#388,.F.);
#388 = EDGE_LOOP('',(#389));
#389 = ORIENTED_EDGE('',*,*,#390,.T.);
#390 = EDGE_CURVE('',#391,#391,#393,.T.);
#391 = VERTEX_POINT('',#392);
#392 = CARTESIAN_POINT('',(-3.,0.,2.749649));
#393 = CIRCLE('',#394,2.25);
#394 = AXIS2_PLACEMENT_3D('',#395,#396,#397);
#395 = CARTESIAN_POINT('',(-3.,0.,4.999649));
#396 = DIRECTION('',(-1.,-0.,-0.));
#397 = DIRECTION('',(0.,0.,-1.));
#398 = FACE_BOUND('',#399,.F.);
#399 = EDGE_LOOP('',(#400));
#400 = ORIENTED_EDGE('',*,*,#401,.T.);
#401 = EDGE_CURVE('',#402,#402,#404,.T.);
#402 = VERTEX_POINT('',#403);
#403 = CARTESIAN_POINT('',(-3.,-30.000401,2.749297));
#404 = CIRCLE('',#405,2.25);
#405 = AXIS2_PLACEMENT_3D('',#406,#407,#408);
#406 = CARTESIAN_POINT('',(-3.,-30.000401,4.999297));
#407 = DIRECTION('',(-1.,-0.,-0.));
#408 = DIRECTION('',(0.,0.,-1.));
#409 = FACE_BOUND('',#410,.F.);
#410 = EDGE_LOOP('',(#411));
#411 = ORIENTED_EDGE('',*,*,#412,.T.);
#412 = EDGE_CURVE('',#413,#413,#415,.T.);
#413 = VERTEX_POINT('',#414);
#414 = CARTESIAN_POINT('',(-3.,-56.000278,32.749886));
#415 = CIRCLE('',#416,2.25);
#416 = AXIS2_PLACEMENT_3D('',#417,#418,#419);
#417 = CARTESIAN_POINT('',(-3.,-56.000278,34.999886));
#418 = DIRECTION('',(-1.,-0.,-0.));
#419 = DIRECTION('',(0.,0.,-1.));
#420 = FACE_BOUND('',#421,.F.);
#421 = EDGE_LOOP('',(#422));
#422 = ORIENTED_EDGE('',*,*,#423,.T.);
#423 = EDGE_CURVE('',#424,#424,#426,.T.);
#424 = VERTEX_POINT('',#425);
#425 = CARTESIAN_POINT('',(-3.,-56.000004,62.749992));
#426 = CIRCLE('',#427,2.25);
#427 = AXIS2_PLACEMENT_3D('',#428,#429,#430);
#428 = CARTESIAN_POINT('',(-3.,-56.000004,64.999992));
#429 = DIRECTION('',(-1.,-0.,-0.));
#430 = DIRECTION('',(0.,0.,-1.));
#431 = FACE_BOUND('',#432,.F.);
#432 = EDGE_LOOP('',(#433));
#433 = ORIENTED_EDGE('',*,*,#434,.T.);
#434 = EDGE_CURVE('',#435,#435,#437,.T.);
#435 = VERTEX_POINT('',#436);
#436 = CARTESIAN_POINT('',(-3.,-56.000015,92.750008));
#437 = CIRCLE('',#438,2.25);
#438 = AXIS2_PLACEMENT_3D('',#439,#440,#441);
#439 = CARTESIAN_POINT('',(-3.,-56.000015,95.000008));
#440 = DIRECTION('',(-1.,-0.,-0.));
#441 = DIRECTION('',(0.,0.,-1.));
#442 = PLANE('',#443);
#443 = AXIS2_PLACEMENT_3D('',#444,#445,#446);
#444 = CARTESIAN_POINT('',(-3.,0.676281249217,44.606471882503));
#445 = DIRECTION('',(1.,0.,0.));
#446 = DIRECTION('',(0.,0.,1.));
#447 = ADVANCED_FACE('',(#448),#479,.T.);
#448 = FACE_BOUND('',#449,.T.);
#449 = EDGE_LOOP('',(#450,#451,#452,#453,#454,#462,#470,#476,#477,#478)
  );
#450 = ORIENTED_EDGE('',*,*,#86,.F.);
#451 = ORIENTED_EDGE('',*,*,#233,.T.);
#452 = ORIENTED_EDGE('',*,*,#279,.T.);
#453 = ORIENTED_EDGE('',*,*,#338,.F.);
#454 = ORIENTED_EDGE('',*,*,#455,.F.);
#455 = EDGE_CURVE('',#456,#306,#458,.T.);
#456 = VERTEX_POINT('',#457);
#457 = CARTESIAN_POINT('',(-5.,55.898239,124.018199));
#458 = LINE('',#459,#460);
#459 = CARTESIAN_POINT('',(-2.5,55.898239,124.018199));
#460 = VECTOR('',#461,1.);
#461 = DIRECTION('',(1.,0.,-2.2E-16));
#462 = ORIENTED_EDGE('',*,*,#463,.T.);
#463 = EDGE_CURVE('',#456,#464,#466,.T.);
#464 = VERTEX_POINT('',#465);
#465 = CARTESIAN_POINT('',(-5.,-50.896221,124.018199));
#466 = LINE('',#467,#468);
#467 = CARTESIAN_POINT('',(-5.,65.999908,124.018199));
#468 = VECTOR('',#469,1.);
#469 = DIRECTION('',(0.,-1.,0.));
#470 = ORIENTED_EDGE('',*,*,#471,.T.);
#471 = EDGE_CURVE('',#464,#322,#472,.T.);
#472 = LINE('',#473,#474);
#473 = CARTESIAN_POINT('',(-2.5,-50.896221,124.018199));
#474 = VECTOR('',#475,1.);
#475 = DIRECTION('',(1.,0.,-2.2E-16));
#476 = ORIENTED_EDGE('',*,*,#329,.F.);
#477 = ORIENTED_EDGE('',*,*,#257,.F.);
#478 = ORIENTED_EDGE('',*,*,#207,.F.);
#479 = PLANE('',#480);
#480 = AXIS2_PLACEMENT_3D('',#481,#482,#483);
#481 = CARTESIAN_POINT('',(-2.754E-14,65.999908,124.018199));
#482 = DIRECTION('',(2.2E-16,0.,1.));
#483 = DIRECTION('',(0.,-1.,0.));
#484 = ADVANCED_FACE('',(#485),#504,.F.);
#485 = FACE_BOUND('',#486,.T.);
#486 = EDGE_LOOP('',(#487,#495,#496,#497));
#487 = ORIENTED_EDGE('',*,*,#488,.F.);
#488 = EDGE_CURVE('',#103,#489,#491,.T.);
#489 = VERTEX_POINT('',#490);
#490 = CARTESIAN_POINT('',(-1.75,61.000019,32.749981));
#491 = LINE('',#492,#493);
#492 = CARTESIAN_POINT('',(-1.4E-14,61.000019,30.999981));
#493 = VECTOR('',#494,1.);
#494 = DIRECTION('',(-0.707106781187,0.,0.707106781187));
#495 = ORIENTED_EDGE('',*,*,#102,.T.);
#496 = ORIENTED_EDGE('',*,*,#488,.T.);
#497 = ORIENTED_EDGE('',*,*,#498,.F.);
#498 = EDGE_CURVE('',#489,#489,#499,.T.);
#499 = CIRCLE('',#500,2.25);
#500 = AXIS2_PLACEMENT_3D('',#501,#502,#503);
#501 = CARTESIAN_POINT('',(-1.75,61.000019,34.999981));
#502 = DIRECTION('',(1.,-0.,0.));
#503 = DIRECTION('',(0.,0.,-1.));
#504 = CONICAL_SURFACE('',#505,4.,0.785398163397);
#505 = AXIS2_PLACEMENT_3D('',#506,#507,#508);
#506 = CARTESIAN_POINT('',(-1.4E-14,61.000019,34.999981));
#507 = DIRECTION('',(1.,0.,0.));
#508 = DIRECTION('',(0.,0.,-1.));
#509 = ADVANCED_FACE('',(#510),#529,.F.);
#510 = FACE_BOUND('',#511,.T.);
#511 = EDGE_LOOP('',(#512,#520,#521,#522));
#512 = ORIENTED_EDGE('',*,*,#513,.F.);
#513 = EDGE_CURVE('',#114,#514,#516,.T.);
#514 = VERTEX_POINT('',#515);
#515 = CARTESIAN_POINT('',(-1.75,30.,2.749987));
#516 = LINE('',#517,#518);
#517 = CARTESIAN_POINT('',(-1.4E-14,30.,0.999987));
#518 = VECTOR('',#519,1.);
#519 = DIRECTION('',(-0.707106781187,0.,0.707106781187));
#520 = ORIENTED_EDGE('',*,*,#113,.T.);
#521 = ORIENTED_EDGE('',*,*,#513,.T.);
#522 = ORIENTED_EDGE('',*,*,#523,.F.);
#523 = EDGE_CURVE('',#514,#514,#524,.T.);
#524 = CIRCLE('',#525,2.25);
#525 = AXIS2_PLACEMENT_3D('',#526,#527,#528);
#526 = CARTESIAN_POINT('',(-1.75,30.,4.999987));
#527 = DIRECTION('',(1.,-0.,0.));
#528 = DIRECTION('',(0.,0.,-1.));
#529 = CONICAL_SURFACE('',#530,4.,0.785398163397);
#530 = AXIS2_PLACEMENT_3D('',#531,#532,#533);
#531 = CARTESIAN_POINT('',(-1.4E-14,30.,4.999987));
#532 = DIRECTION('',(1.,0.,0.));
#533 = DIRECTION('',(0.,0.,-1.));
#534 = ADVANCED_FACE('',(#535),#554,.F.);
#535 = FACE_BOUND('',#536,.T.);
#536 = EDGE_LOOP('',(#537,#545,#546,#547));
#537 = ORIENTED_EDGE('',*,*,#538,.F.);
#538 = EDGE_CURVE('',#125,#539,#541,.T.);
#539 = VERTEX_POINT('',#540);
#540 = CARTESIAN_POINT('',(-1.75,60.999943,62.749992));
#541 = LINE('',#542,#543);
#542 = CARTESIAN_POINT('',(-1.4E-14,60.999943,60.999992));
#543 = VECTOR('',#544,1.);
#544 = DIRECTION('',(-0.707106781187,0.,0.707106781187));
#545 = ORIENTED_EDGE('',*,*,#124,.T.);
#546 = ORIENTED_EDGE('',*,*,#538,.T.);
#547 = ORIENTED_EDGE('',*,*,#548,.F.);
#548 = EDGE_CURVE('',#539,#539,#549,.T.);
#549 = CIRCLE('',#550,2.25);
#550 = AXIS2_PLACEMENT_3D('',#551,#552,#553);
#551 = CARTESIAN_POINT('',(-1.75,60.999943,64.999992));
#552 = DIRECTION('',(1.,-0.,0.));
#553 = DIRECTION('',(0.,0.,-1.));
#554 = CONICAL_SURFACE('',#555,4.,0.785398163397);
#555 = AXIS2_PLACEMENT_3D('',#556,#557,#558);
#556 = CARTESIAN_POINT('',(-1.4E-14,60.999943,64.999992));
#557 = DIRECTION('',(1.,0.,0.));
#558 = DIRECTION('',(0.,0.,-1.));
#559 = ADVANCED_FACE('',(#560),#579,.F.);
#560 = FACE_BOUND('',#561,.T.);
#561 = EDGE_LOOP('',(#562,#570,#571,#572));
#562 = ORIENTED_EDGE('',*,*,#563,.F.);
#563 = EDGE_CURVE('',#136,#564,#566,.T.);
#564 = VERTEX_POINT('',#565);
#565 = CARTESIAN_POINT('',(-1.75,60.999996,92.75));
#566 = LINE('',#567,#568);
#567 = CARTESIAN_POINT('',(-1.4E-14,60.999996,91.));
#568 = VECTOR('',#569,1.);
#569 = DIRECTION('',(-0.707106781187,0.,0.707106781187));
#570 = ORIENTED_EDGE('',*,*,#135,.T.);
#571 = ORIENTED_EDGE('',*,*,#563,.T.);
#572 = ORIENTED_EDGE('',*,*,#573,.F.);
#573 = EDGE_CURVE('',#564,#564,#574,.T.);
#574 = CIRCLE('',#575,2.25);
#575 = AXIS2_PLACEMENT_3D('',#576,#577,#578);
#576 = CARTESIAN_POINT('',(-1.75,60.999996,95.));
#577 = DIRECTION('',(1.,-0.,0.));
#578 = DIRECTION('',(0.,0.,-1.));
#579 = CONICAL_SURFACE('',#580,4.,0.785398163397);
#580 = AXIS2_PLACEMENT_3D('',#581,#582,#583);
#581 = CARTESIAN_POINT('',(-1.4E-14,60.999996,95.));
#582 = DIRECTION('',(1.,0.,0.));
#583 = DIRECTION('',(0.,0.,-1.));
#584 = ADVANCED_FACE('',(#585),#604,.F.);
#585 = FACE_BOUND('',#586,.T.);
#586 = EDGE_LOOP('',(#587,#595,#596,#597));
#587 = ORIENTED_EDGE('',*,*,#588,.F.);
#588 = EDGE_CURVE('',#147,#589,#591,.T.);
#589 = VERTEX_POINT('',#590);
#590 = CARTESIAN_POINT('',(-1.75,0.,2.749649));
#591 = LINE('',#592,#593);
#592 = CARTESIAN_POINT('',(-1.4E-14,0.,0.999649));
#593 = VECTOR('',#594,1.);
#594 = DIRECTION('',(-0.707106781187,0.,0.707106781187));
#595 = ORIENTED_EDGE('',*,*,#146,.T.);
#596 = ORIENTED_EDGE('',*,*,#588,.T.);
#597 = ORIENTED_EDGE('',*,*,#598,.F.);
#598 = EDGE_CURVE('',#589,#589,#599,.T.);
#599 = CIRCLE('',#600,2.25);
#600 = AXIS2_PLACEMENT_3D('',#601,#602,#603);
#601 = CARTESIAN_POINT('',(-1.75,0.,4.999649));
#602 = DIRECTION('',(1.,-0.,0.));
#603 = DIRECTION('',(0.,0.,-1.));
#604 = CONICAL_SURFACE('',#605,4.,0.785398163397);
#605 = AXIS2_PLACEMENT_3D('',#606,#607,#608);
#606 = CARTESIAN_POINT('',(-1.4E-14,0.,4.999649));
#607 = DIRECTION('',(1.,0.,0.));
#608 = DIRECTION('',(0.,0.,-1.));
#609 = ADVANCED_FACE('',(#610),#629,.F.);
#610 = FACE_BOUND('',#611,.T.);
#611 = EDGE_LOOP('',(#612,#620,#621,#622));
#612 = ORIENTED_EDGE('',*,*,#613,.F.);
#613 = EDGE_CURVE('',#158,#614,#616,.T.);
#614 = VERTEX_POINT('',#615);
#615 = CARTESIAN_POINT('',(-1.75,-30.000401,2.749297));
#616 = LINE('',#617,#618);
#617 = CARTESIAN_POINT('',(-1.4E-14,-30.000401,0.999297));
#618 = VECTOR('',#619,1.);
#619 = DIRECTION('',(-0.707106781187,0.,0.707106781187));
#620 = ORIENTED_EDGE('',*,*,#157,.T.);
#621 = ORIENTED_EDGE('',*,*,#613,.T.);
#622 = ORIENTED_EDGE('',*,*,#623,.F.);
#623 = EDGE_CURVE('',#614,#614,#624,.T.);
#624 = CIRCLE('',#625,2.25);
#625 = AXIS2_PLACEMENT_3D('',#626,#627,#628);
#626 = CARTESIAN_POINT('',(-1.75,-30.000401,4.999297));
#627 = DIRECTION('',(1.,-0.,0.));
#628 = DIRECTION('',(0.,0.,-1.));
#629 = CONICAL_SURFACE('',#630,4.,0.785398163397);
#630 = AXIS2_PLACEMENT_3D('',#631,#632,#633);
#631 = CARTESIAN_POINT('',(-1.4E-14,-30.000401,4.999297));
#632 = DIRECTION('',(1.,0.,0.));
#633 = DIRECTION('',(0.,0.,-1.));
#634 = ADVANCED_FACE('',(#635),#654,.F.);
#635 = FACE_BOUND('',#636,.T.);
#636 = EDGE_LOOP('',(#637,#645,#646,#647));
#637 = ORIENTED_EDGE('',*,*,#638,.F.);
#638 = EDGE_CURVE('',#169,#639,#641,.T.);
#639 = VERTEX_POINT('',#640);
#640 = CARTESIAN_POINT('',(-1.75,-56.000278,32.749886));
#641 = LINE('',#642,#643);
#642 = CARTESIAN_POINT('',(-1.4E-14,-56.000278,30.999886));
#643 = VECTOR('',#644,1.);
#644 = DIRECTION('',(-0.707106781187,0.,0.707106781187));
#645 = ORIENTED_EDGE('',*,*,#168,.T.);
#646 = ORIENTED_EDGE('',*,*,#638,.T.);
#647 = ORIENTED_EDGE('',*,*,#648,.F.);
#648 = EDGE_CURVE('',#639,#639,#649,.T.);
#649 = CIRCLE('',#650,2.25);
#650 = AXIS2_PLACEMENT_3D('',#651,#652,#653);
#651 = CARTESIAN_POINT('',(-1.75,-56.000278,34.999886));
#652 = DIRECTION('',(1.,-0.,0.));
#653 = DIRECTION('',(0.,0.,-1.));
#654 = CONICAL_SURFACE('',#655,4.,0.785398163397);
#655 = AXIS2_PLACEMENT_3D('',#656,#657,#658);
#656 = CARTESIAN_POINT('',(-1.4E-14,-56.000278,34.999886));
#657 = DIRECTION('',(1.,0.,0.));
#658 = DIRECTION('',(0.,0.,-1.));
#659 = ADVANCED_FACE('',(#660),#679,.F.);
#660 = FACE_BOUND('',#661,.T.);
#661 = EDGE_LOOP('',(#662,#670,#671,#672));
#662 = ORIENTED_EDGE('',*,*,#663,.F.);
#663 = EDGE_CURVE('',#180,#664,#666,.T.);
#664 = VERTEX_POINT('',#665);
#665 = CARTESIAN_POINT('',(-1.75,-56.000004,62.749992));
#666 = LINE('',#667,#668);
#667 = CARTESIAN_POINT('',(-1.4E-14,-56.000004,60.999992));
#668 = VECTOR('',#669,1.);
#669 = DIRECTION('',(-0.707106781187,0.,0.707106781187));
#670 = ORIENTED_EDGE('',*,*,#179,.T.);
#671 = ORIENTED_EDGE('',*,*,#663,.T.);
#672 = ORIENTED_EDGE('',*,*,#673,.F.);
#673 = EDGE_CURVE('',#664,#664,#674,.T.);
#674 = CIRCLE('',#675,2.25);
#675 = AXIS2_PLACEMENT_3D('',#676,#677,#678);
#676 = CARTESIAN_POINT('',(-1.75,-56.000004,64.999992));
#677 = DIRECTION('',(1.,-0.,0.));
#678 = DIRECTION('',(0.,0.,-1.));
#679 = CONICAL_SURFACE('',#680,4.,0.785398163397);
#680 = AXIS2_PLACEMENT_3D('',#681,#682,#683);
#681 = CARTESIAN_POINT('',(-1.4E-14,-56.000004,64.999992));
#682 = DIRECTION('',(1.,0.,0.));
#683 = DIRECTION('',(0.,0.,-1.));
#684 = ADVANCED_FACE('',(#685),#704,.F.);
#685 = FACE_BOUND('',#686,.T.);
#686 = EDGE_LOOP('',(#687,#695,#696,#697));
#687 = ORIENTED_EDGE('',*,*,#688,.F.);
#688 = EDGE_CURVE('',#191,#689,#691,.T.);
#689 = VERTEX_POINT('',#690);
#690 = CARTESIAN_POINT('',(-1.75,-56.000015,92.750008));
#691 = LINE('',#692,#693);
#692 = CARTESIAN_POINT('',(-1.4E-14,-56.000015,91.000008));
#693 = VECTOR('',#694,1.);
#694 = DIRECTION('',(-0.707106781187,0.,0.707106781187));
#695 = ORIENTED_EDGE('',*,*,#190,.T.);
#696 = ORIENTED_EDGE('',*,*,#688,.T.);
#697 = ORIENTED_EDGE('',*,*,#698,.F.);
#698 = EDGE_CURVE('',#689,#689,#699,.T.);
#699 = CIRCLE('',#700,2.25);
#700 = AXIS2_PLACEMENT_3D('',#701,#702,#703);
#701 = CARTESIAN_POINT('',(-1.75,-56.000015,95.000008));
#702 = DIRECTION('',(1.,-0.,0.));
#703 = DIRECTION('',(0.,0.,-1.));
#704 = CONICAL_SURFACE('',#705,4.,0.785398163397);
#705 = AXIS2_PLACEMENT_3D('',#706,#707,#708);
#706 = CARTESIAN_POINT('',(-1.4E-14,-56.000015,95.000008));
#707 = DIRECTION('',(1.,0.,0.));
#708 = DIRECTION('',(0.,0.,-1.));
#709 = ADVANCED_FACE('',(#710),#728,.F.);
#710 = FACE_BOUND('',#711,.F.);
#711 = EDGE_LOOP('',(#712,#720,#726,#727));
#712 = ORIENTED_EDGE('',*,*,#713,.F.);
#713 = EDGE_CURVE('',#714,#456,#716,.T.);
#714 = VERTEX_POINT('',#715);
#715 = CARTESIAN_POINT('',(-5.,55.898239,10.078942));
#716 = LINE('',#717,#718);
#717 = CARTESIAN_POINT('',(-5.,55.898239,10.078942));
#718 = VECTOR('',#719,1.);
#719 = DIRECTION('',(0.,0.,1.));
#720 = ORIENTED_EDGE('',*,*,#721,.T.);
#721 = EDGE_CURVE('',#714,#304,#722,.T.);
#722 = LINE('',#723,#724);
#723 = CARTESIAN_POINT('',(-5.,55.898239,10.078942));
#724 = VECTOR('',#725,1.);
#725 = DIRECTION('',(1.,0.,0.));
#726 = ORIENTED_EDGE('',*,*,#303,.T.);
#727 = ORIENTED_EDGE('',*,*,#455,.F.);
#728 = PLANE('',#729);
#729 = AXIS2_PLACEMENT_3D('',#730,#731,#732);
#730 = CARTESIAN_POINT('',(-5.,55.898239,10.078942));
#731 = DIRECTION('',(0.,-1.,0.));
#732 = DIRECTION('',(0.,0.,1.));
#733 = ADVANCED_FACE('',(#734),#752,.T.);
#734 = FACE_BOUND('',#735,.T.);
#735 = EDGE_LOOP('',(#736,#737,#738,#746));
#736 = ORIENTED_EDGE('',*,*,#721,.T.);
#737 = ORIENTED_EDGE('',*,*,#313,.T.);
#738 = ORIENTED_EDGE('',*,*,#739,.F.);
#739 = EDGE_CURVE('',#740,#314,#742,.T.);
#740 = VERTEX_POINT('',#741);
#741 = CARTESIAN_POINT('',(-5.,-50.896221,10.078942));
#742 = LINE('',#743,#744);
#743 = CARTESIAN_POINT('',(-5.,-50.896221,10.078942));
#744 = VECTOR('',#745,1.);
#745 = DIRECTION('',(1.,0.,0.));
#746 = ORIENTED_EDGE('',*,*,#747,.F.);
#747 = EDGE_CURVE('',#714,#740,#748,.T.);
#748 = LINE('',#749,#750);
#749 = CARTESIAN_POINT('',(-5.,55.898239,10.078942));
#750 = VECTOR('',#751,1.);
#751 = DIRECTION('',(0.,-1.,0.));
#752 = PLANE('',#753);
#753 = AXIS2_PLACEMENT_3D('',#754,#755,#756);
#754 = CARTESIAN_POINT('',(-5.,55.898239,10.078942));
#755 = DIRECTION('',(0.,0.,-1.));
#756 = DIRECTION('',(0.,-1.,0.));
#757 = ADVANCED_FACE('',(#758),#769,.T.);
#758 = FACE_BOUND('',#759,.T.);
#759 = EDGE_LOOP('',(#760,#766,#767,#768));
#760 = ORIENTED_EDGE('',*,*,#761,.F.);
#761 = EDGE_CURVE('',#740,#464,#762,.T.);
#762 = LINE('',#763,#764);
#763 = CARTESIAN_POINT('',(-5.,-50.896221,10.078942));
#764 = VECTOR('',#765,1.);
#765 = DIRECTION('',(0.,0.,1.));
#766 = ORIENTED_EDGE('',*,*,#739,.T.);
#767 = ORIENTED_EDGE('',*,*,#321,.T.);
#768 = ORIENTED_EDGE('',*,*,#471,.F.);
#769 = PLANE('',#770);
#770 = AXIS2_PLACEMENT_3D('',#771,#772,#773);
#771 = CARTESIAN_POINT('',(-5.,-50.896221,10.078942));
#772 = DIRECTION('',(0.,-1.,0.));
#773 = DIRECTION('',(0.,0.,1.));
#774 = ADVANCED_FACE('',(#775),#786,.F.);
#775 = FACE_BOUND('',#776,.T.);
#776 = EDGE_LOOP('',(#777,#783,#784,#785));
#777 = ORIENTED_EDGE('',*,*,#778,.F.);
#778 = EDGE_CURVE('',#489,#347,#779,.T.);
#779 = LINE('',#780,#781);
#780 = CARTESIAN_POINT('',(-1.75,61.000019,32.749981));
#781 = VECTOR('',#782,1.);
#782 = DIRECTION('',(-1.,0.,6.E-17));
#783 = ORIENTED_EDGE('',*,*,#498,.T.);
#784 = ORIENTED_EDGE('',*,*,#778,.T.);
#785 = ORIENTED_EDGE('',*,*,#346,.T.);
#786 = CYLINDRICAL_SURFACE('',#787,2.25);
#787 = AXIS2_PLACEMENT_3D('',#788,#789,#790);
#788 = CARTESIAN_POINT('',(-1.75,61.000019,34.999981));
#789 = DIRECTION('',(-1.,-0.,-0.));
#790 = DIRECTION('',(0.,0.,-1.));
#791 = ADVANCED_FACE('',(#792),#803,.F.);
#792 = FACE_BOUND('',#793,.T.);
#793 = EDGE_LOOP('',(#794,#800,#801,#802));
#794 = ORIENTED_EDGE('',*,*,#795,.F.);
#795 = EDGE_CURVE('',#514,#358,#796,.T.);
#796 = LINE('',#797,#798);
#797 = CARTESIAN_POINT('',(-1.75,30.,2.749987));
#798 = VECTOR('',#799,1.);
#799 = DIRECTION('',(-1.,0.,6.E-17));
#800 = ORIENTED_EDGE('',*,*,#523,.T.);
#801 = ORIENTED_EDGE('',*,*,#795,.T.);
#802 = ORIENTED_EDGE('',*,*,#357,.T.);
#803 = CYLINDRICAL_SURFACE('',#804,2.25);
#804 = AXIS2_PLACEMENT_3D('',#805,#806,#807);
#805 = CARTESIAN_POINT('',(-1.75,30.,4.999987));
#806 = DIRECTION('',(-1.,-0.,-0.));
#807 = DIRECTION('',(0.,0.,-1.));
#808 = ADVANCED_FACE('',(#809),#820,.F.);
#809 = FACE_BOUND('',#810,.T.);
#810 = EDGE_LOOP('',(#811,#817,#818,#819));
#811 = ORIENTED_EDGE('',*,*,#812,.F.);
#812 = EDGE_CURVE('',#539,#369,#813,.T.);
#813 = LINE('',#814,#815);
#814 = CARTESIAN_POINT('',(-1.75,60.999943,62.749992));
#815 = VECTOR('',#816,1.);
#816 = DIRECTION('',(-1.,0.,6.E-17));
#817 = ORIENTED_EDGE('',*,*,#548,.T.);
#818 = ORIENTED_EDGE('',*,*,#812,.T.);
#819 = ORIENTED_EDGE('',*,*,#368,.T.);
#820 = CYLINDRICAL_SURFACE('',#821,2.25);
#821 = AXIS2_PLACEMENT_3D('',#822,#823,#824);
#822 = CARTESIAN_POINT('',(-1.75,60.999943,64.999992));
#823 = DIRECTION('',(-1.,-0.,-0.));
#824 = DIRECTION('',(0.,0.,-1.));
#825 = ADVANCED_FACE('',(#826),#837,.F.);
#826 = FACE_BOUND('',#827,.T.);
#827 = EDGE_LOOP('',(#828,#834,#835,#836));
#828 = ORIENTED_EDGE('',*,*,#829,.F.);
#829 = EDGE_CURVE('',#564,#380,#830,.T.);
#830 = LINE('',#831,#832);
#831 = CARTESIAN_POINT('',(-1.75,60.999996,92.75));
#832 = VECTOR('',#833,1.);
#833 = DIRECTION('',(-1.,0.,6.E-17));
#834 = ORIENTED_EDGE('',*,*,#573,.T.);
#835 = ORIENTED_EDGE('',*,*,#829,.T.);
#836 = ORIENTED_EDGE('',*,*,#379,.T.);
#837 = CYLINDRICAL_SURFACE('',#838,2.25);
#838 = AXIS2_PLACEMENT_3D('',#839,#840,#841);
#839 = CARTESIAN_POINT('',(-1.75,60.999996,95.));
#840 = DIRECTION('',(-1.,-0.,-0.));
#841 = DIRECTION('',(0.,0.,-1.));
#842 = ADVANCED_FACE('',(#843),#854,.F.);
#843 = FACE_BOUND('',#844,.T.);
#844 = EDGE_LOOP('',(#845,#851,#852,#853));
#845 = ORIENTED_EDGE('',*,*,#846,.F.);
#846 = EDGE_CURVE('',#589,#391,#847,.T.);
#847 = LINE('',#848,#849);
#848 = CARTESIAN_POINT('',(-1.75,0.,2.749649));
#849 = VECTOR('',#850,1.);
#850 = DIRECTION('',(-1.,0.,6.E-17));
#851 = ORIENTED_EDGE('',*,*,#598,.T.);
#852 = ORIENTED_EDGE('',*,*,#846,.T.);
#853 = ORIENTED_EDGE('',*,*,#390,.T.);
#854 = CYLINDRICAL_SURFACE('',#855,2.25);
#855 = AXIS2_PLACEMENT_3D('',#856,#857,#858);
#856 = CARTESIAN_POINT('',(-1.75,0.,4.999649));
#857 = DIRECTION('',(-1.,-0.,-0.));
#858 = DIRECTION('',(0.,0.,-1.));
#859 = ADVANCED_FACE('',(#860),#871,.F.);
#860 = FACE_BOUND('',#861,.T.);
#861 = EDGE_LOOP('',(#862,#868,#869,#870));
#862 = ORIENTED_EDGE('',*,*,#863,.F.);
#863 = EDGE_CURVE('',#614,#402,#864,.T.);
#864 = LINE('',#865,#866);
#865 = CARTESIAN_POINT('',(-1.75,-30.000401,2.749297));
#866 = VECTOR('',#867,1.);
#867 = DIRECTION('',(-1.,0.,6.E-17));
#868 = ORIENTED_EDGE('',*,*,#623,.T.);
#869 = ORIENTED_EDGE('',*,*,#863,.T.);
#870 = ORIENTED_EDGE('',*,*,#401,.T.);
#871 = CYLINDRICAL_SURFACE('',#872,2.25);
#872 = AXIS2_PLACEMENT_3D('',#873,#874,#875);
#873 = CARTESIAN_POINT('',(-1.75,-30.000401,4.999297));
#874 = DIRECTION('',(-1.,-0.,-0.));
#875 = DIRECTION('',(0.,0.,-1.));
#876 = ADVANCED_FACE('',(#877),#888,.F.);
#877 = FACE_BOUND('',#878,.T.);
#878 = EDGE_LOOP('',(#879,#885,#886,#887));
#879 = ORIENTED_EDGE('',*,*,#880,.F.);
#880 = EDGE_CURVE('',#639,#413,#881,.T.);
#881 = LINE('',#882,#883);
#882 = CARTESIAN_POINT('',(-1.75,-56.000278,32.749886));
#883 = VECTOR('',#884,1.);
#884 = DIRECTION('',(-1.,0.,6.E-17));
#885 = ORIENTED_EDGE('',*,*,#648,.T.);
#886 = ORIENTED_EDGE('',*,*,#880,.T.);
#887 = ORIENTED_EDGE('',*,*,#412,.T.);
#888 = CYLINDRICAL_SURFACE('',#889,2.25);
#889 = AXIS2_PLACEMENT_3D('',#890,#891,#892);
#890 = CARTESIAN_POINT('',(-1.75,-56.000278,34.999886));
#891 = DIRECTION('',(-1.,-0.,-0.));
#892 = DIRECTION('',(0.,0.,-1.));
#893 = ADVANCED_FACE('',(#894),#905,.F.);
#894 = FACE_BOUND('',#895,.T.);
#895 = EDGE_LOOP('',(#896,#902,#903,#904));
#896 = ORIENTED_EDGE('',*,*,#897,.F.);
#897 = EDGE_CURVE('',#664,#424,#898,.T.);
#898 = LINE('',#899,#900);
#899 = CARTESIAN_POINT('',(-1.75,-56.000004,62.749992));
#900 = VECTOR('',#901,1.);
#901 = DIRECTION('',(-1.,0.,6.E-17));
#902 = ORIENTED_EDGE('',*,*,#673,.T.);
#903 = ORIENTED_EDGE('',*,*,#897,.T.);
#904 = ORIENTED_EDGE('',*,*,#423,.T.);
#905 = CYLINDRICAL_SURFACE('',#906,2.25);
#906 = AXIS2_PLACEMENT_3D('',#907,#908,#909);
#907 = CARTESIAN_POINT('',(-1.75,-56.000004,64.999992));
#908 = DIRECTION('',(-1.,-0.,-0.));
#909 = DIRECTION('',(0.,0.,-1.));
#910 = ADVANCED_FACE('',(#911),#922,.F.);
#911 = FACE_BOUND('',#912,.T.);
#912 = EDGE_LOOP('',(#913,#919,#920,#921));
#913 = ORIENTED_EDGE('',*,*,#914,.F.);
#914 = EDGE_CURVE('',#689,#435,#915,.T.);
#915 = LINE('',#916,#917);
#916 = CARTESIAN_POINT('',(-1.75,-56.000015,92.750008));
#917 = VECTOR('',#918,1.);
#918 = DIRECTION('',(-1.,0.,6.E-17));
#919 = ORIENTED_EDGE('',*,*,#698,.T.);
#920 = ORIENTED_EDGE('',*,*,#914,.T.);
#921 = ORIENTED_EDGE('',*,*,#434,.T.);
#922 = CYLINDRICAL_SURFACE('',#923,2.25);
#923 = AXIS2_PLACEMENT_3D('',#924,#925,#926);
#924 = CARTESIAN_POINT('',(-1.75,-56.000015,95.000008));
#925 = DIRECTION('',(-1.,-0.,-0.));
#926 = DIRECTION('',(0.,0.,-1.));
#927 = ADVANCED_FACE('',(#928,#934),#1026,.F.);
#928 = FACE_BOUND('',#929,.F.);
#929 = EDGE_LOOP('',(#930,#931,#932,#933));
#930 = ORIENTED_EDGE('',*,*,#463,.T.);
#931 = ORIENTED_EDGE('',*,*,#761,.F.);
#932 = ORIENTED_EDGE('',*,*,#747,.F.);
#933 = ORIENTED_EDGE('',*,*,#713,.T.);
#934 = FACE_BOUND('',#935,.F.);
#935 = EDGE_LOOP('',(#936,#946,#955,#963,#972,#980,#988,#996,#1004,#1012
    ,#1020));
#936 = ORIENTED_EDGE('',*,*,#937,.T.);
#937 = EDGE_CURVE('',#938,#940,#942,.T.);
#938 = VERTEX_POINT('',#939);
#939 = CARTESIAN_POINT('',(-5.,-6.013483,69.993011));
#940 = VERTEX_POINT('',#941);
#941 = CARTESIAN_POINT('',(-5.,-7.011064,69.993011));
#942 = LINE('',#943,#944);
#943 = CARTESIAN_POINT('',(-5.,-6.013483,69.993011));
#944 = VECTOR('',#945,1.);
#945 = DIRECTION('',(0.,-1.,0.));
#946 = ORIENTED_EDGE('',*,*,#947,.T.);
#947 = EDGE_CURVE('',#940,#948,#950,.T.);
#948 = VERTEX_POINT('',#949);
#949 = CARTESIAN_POINT('',(-5.,-9.997357,72.979304));
#950 = CIRCLE('',#951,2.986293);
#951 = AXIS2_PLACEMENT_3D('',#952,#953,#954);
#952 = CARTESIAN_POINT('',(-5.,-7.011064,72.979304));
#953 = DIRECTION('',(-1.,0.,0.));
#954 = DIRECTION('',(0.,-1.,0.));
#955 = ORIENTED_EDGE('',*,*,#956,.T.);
#956 = EDGE_CURVE('',#948,#957,#959,.T.);
#957 = VERTEX_POINT('',#958);
#958 = CARTESIAN_POINT('',(-5.,-9.997357,77.008357));
#959 = LINE('',#960,#961);
#960 = CARTESIAN_POINT('',(-5.,-9.997357,72.979304));
#961 = VECTOR('',#962,1.);
#962 = DIRECTION('',(0.,0.,1.));
#963 = ORIENTED_EDGE('',*,*,#964,.T.);
#964 = EDGE_CURVE('',#957,#965,#967,.T.);
#965 = VERTEX_POINT('',#966);
#966 = CARTESIAN_POINT('',(-5.,-7.006424,79.99929));
#967 = CIRCLE('',#968,2.990933);
#968 = AXIS2_PLACEMENT_3D('',#969,#970,#971);
#969 = CARTESIAN_POINT('',(-5.,-7.006424,77.008357));
#970 = DIRECTION('',(-1.,0.,0.));
#971 = DIRECTION('',(0.,-1.,0.));
#972 = ORIENTED_EDGE('',*,*,#973,.T.);
#973 = EDGE_CURVE('',#965,#974,#976,.T.);
#974 = VERTEX_POINT('',#975);
#975 = CARTESIAN_POINT('',(-5.,0.,79.99929));
#976 = LINE('',#977,#978);
#977 = CARTESIAN_POINT('',(-5.,-7.006424,79.99929));
#978 = VECTOR('',#979,1.);
#979 = DIRECTION('',(0.,1.,0.));
#980 = ORIENTED_EDGE('',*,*,#981,.F.);
#981 = EDGE_CURVE('',#982,#974,#984,.T.);
#982 = VERTEX_POINT('',#983);
#983 = CARTESIAN_POINT('',(-5.,0.,59.99929));
#984 = LINE('',#985,#986);
#985 = CARTESIAN_POINT('',(-5.,0.,59.99929));
#986 = VECTOR('',#987,1.);
#987 = DIRECTION('',(0.,0.,1.));
#988 = ORIENTED_EDGE('',*,*,#989,.T.);
#989 = EDGE_CURVE('',#982,#990,#992,.T.);
#990 = VERTEX_POINT('',#991);
#991 = CARTESIAN_POINT('',(-5.,-3.,59.99929));
#992 = LINE('',#993,#994);
#993 = CARTESIAN_POINT('',(-5.,0.,59.99929));
#994 = VECTOR('',#995,1.);
#995 = DIRECTION('',(0.,-1.,0.));
#996 = ORIENTED_EDGE('',*,*,#997,.T.);
#997 = EDGE_CURVE('',#990,#998,#1000,.T.);
#998 = VERTEX_POINT('',#999);
#999 = CARTESIAN_POINT('',(-5.,-3.,69.99929));
#1000 = LINE('',#1001,#1002);
#1001 = CARTESIAN_POINT('',(-5.,-3.,59.99929));
#1002 = VECTOR('',#1003,1.);
#1003 = DIRECTION('',(0.,0.,1.));
#1004 = ORIENTED_EDGE('',*,*,#1005,.T.);
#1005 = EDGE_CURVE('',#998,#1006,#1008,.T.);
#1006 = VERTEX_POINT('',#1007);
#1007 = CARTESIAN_POINT('',(-5.,-7.001974,59.99596));
#1008 = LINE('',#1009,#1010);
#1009 = CARTESIAN_POINT('',(-5.,-3.,69.99929));
#1010 = VECTOR('',#1011,1.);
#1011 = DIRECTION('',(0.,-0.371442043925,-0.928456142208));
#1012 = ORIENTED_EDGE('',*,*,#1013,.T.);
#1013 = EDGE_CURVE('',#1006,#1014,#1016,.T.);
#1014 = VERTEX_POINT('',#1015);
#1015 = CARTESIAN_POINT('',(-5.,-9.995481,59.99596));
#1016 = LINE('',#1017,#1018);
#1017 = CARTESIAN_POINT('',(-5.,-7.001974,59.99596));
#1018 = VECTOR('',#1019,1.);
#1019 = DIRECTION('',(0.,-1.,0.));
#1020 = ORIENTED_EDGE('',*,*,#1021,.T.);
#1021 = EDGE_CURVE('',#1014,#938,#1022,.T.);
#1022 = LINE('',#1023,#1024);
#1023 = CARTESIAN_POINT('',(-5.,-9.995481,59.99596));
#1024 = VECTOR('',#1025,1.);
#1025 = DIRECTION('',(0.,0.370042624072,0.929014777261));
#1026 = PLANE('',#1027);
#1027 = AXIS2_PLACEMENT_3D('',#1028,#1029,#1030);
#1028 = CARTESIAN_POINT('',(-5.,2.499851,62.008045));
#1029 = DIRECTION('',(1.,0.,0.));
#1030 = DIRECTION('',(0.,0.,1.));
#1031 = ADVANCED_FACE('',(#1032),#1057,.F.);
#1032 = FACE_BOUND('',#1033,.F.);
#1033 = EDGE_LOOP('',(#1034,#1042,#1050,#1056));
#1034 = ORIENTED_EDGE('',*,*,#1035,.T.);
#1035 = EDGE_CURVE('',#938,#1036,#1038,.T.);
#1036 = VERTEX_POINT('',#1037);
#1037 = CARTESIAN_POINT('',(-4.8,-6.013483,69.993011));
#1038 = LINE('',#1039,#1040);
#1039 = CARTESIAN_POINT('',(-5.,-6.013483,69.993011));
#1040 = VECTOR('',#1041,1.);
#1041 = DIRECTION('',(1.,0.,0.));
#1042 = ORIENTED_EDGE('',*,*,#1043,.T.);
#1043 = EDGE_CURVE('',#1036,#1044,#1046,.T.);
#1044 = VERTEX_POINT('',#1045);
#1045 = CARTESIAN_POINT('',(-4.8,-7.011064,69.993011));
#1046 = LINE('',#1047,#1048);
#1047 = CARTESIAN_POINT('',(-4.8,-6.013483,69.993011));
#1048 = VECTOR('',#1049,1.);
#1049 = DIRECTION('',(0.,-1.,0.));
#1050 = ORIENTED_EDGE('',*,*,#1051,.F.);
#1051 = EDGE_CURVE('',#940,#1044,#1052,.T.);
#1052 = LINE('',#1053,#1054);
#1053 = CARTESIAN_POINT('',(-5.,-7.011064,69.993011));
#1054 = VECTOR('',#1055,1.);
#1055 = DIRECTION('',(1.,0.,0.));
#1056 = ORIENTED_EDGE('',*,*,#937,.F.);
#1057 = PLANE('',#1058);
#1058 = AXIS2_PLACEMENT_3D('',#1059,#1060,#1061);
#1059 = CARTESIAN_POINT('',(-5.,-6.013483,69.993011));
#1060 = DIRECTION('',(0.,0.,-1.));
#1061 = DIRECTION('',(0.,-1.,0.));
#1062 = ADVANCED_FACE('',(#1063),#1081,.F.);
#1063 = FACE_BOUND('',#1064,.F.);
#1064 = EDGE_LOOP('',(#1065,#1073,#1079,#1080));
#1065 = ORIENTED_EDGE('',*,*,#1066,.T.);
#1066 = EDGE_CURVE('',#1014,#1067,#1069,.T.);
#1067 = VERTEX_POINT('',#1068);
#1068 = CARTESIAN_POINT('',(-4.8,-9.995481,59.99596));
#1069 = LINE('',#1070,#1071);
#1070 = CARTESIAN_POINT('',(-5.,-9.995481,59.99596));
#1071 = VECTOR('',#1072,1.);
#1072 = DIRECTION('',(1.,0.,0.));
#1073 = ORIENTED_EDGE('',*,*,#1074,.T.);
#1074 = EDGE_CURVE('',#1067,#1036,#1075,.T.);
#1075 = LINE('',#1076,#1077);
#1076 = CARTESIAN_POINT('',(-4.8,-9.995481,59.99596));
#1077 = VECTOR('',#1078,1.);
#1078 = DIRECTION('',(0.,0.370042624072,0.929014777261));
#1079 = ORIENTED_EDGE('',*,*,#1035,.F.);
#1080 = ORIENTED_EDGE('',*,*,#1021,.F.);
#1081 = PLANE('',#1082);
#1082 = AXIS2_PLACEMENT_3D('',#1083,#1084,#1085);
#1083 = CARTESIAN_POINT('',(-5.,-9.995481,59.99596));
#1084 = DIRECTION('',(0.,-0.929014777261,0.370042624072));
#1085 = DIRECTION('',(0.,0.370042624072,0.929014777261));
#1086 = ADVANCED_FACE('',(#1087),#1105,.F.);
#1087 = FACE_BOUND('',#1088,.F.);
#1088 = EDGE_LOOP('',(#1089,#1097,#1103,#1104));
#1089 = ORIENTED_EDGE('',*,*,#1090,.T.);
#1090 = EDGE_CURVE('',#1006,#1091,#1093,.T.);
#1091 = VERTEX_POINT('',#1092);
#1092 = CARTESIAN_POINT('',(-4.8,-7.001974,59.99596));
#1093 = LINE('',#1094,#1095);
#1094 = CARTESIAN_POINT('',(-5.,-7.001974,59.99596));
#1095 = VECTOR('',#1096,1.);
#1096 = DIRECTION('',(1.,0.,0.));
#1097 = ORIENTED_EDGE('',*,*,#1098,.T.);
#1098 = EDGE_CURVE('',#1091,#1067,#1099,.T.);
#1099 = LINE('',#1100,#1101);
#1100 = CARTESIAN_POINT('',(-4.8,-7.001974,59.99596));
#1101 = VECTOR('',#1102,1.);
#1102 = DIRECTION('',(0.,-1.,0.));
#1103 = ORIENTED_EDGE('',*,*,#1066,.F.);
#1104 = ORIENTED_EDGE('',*,*,#1013,.F.);
#1105 = PLANE('',#1106);
#1106 = AXIS2_PLACEMENT_3D('',#1107,#1108,#1109);
#1107 = CARTESIAN_POINT('',(-5.,-7.001974,59.99596));
#1108 = DIRECTION('',(0.,0.,-1.));
#1109 = DIRECTION('',(0.,-1.,0.));
#1110 = ADVANCED_FACE('',(#1111),#1129,.F.);
#1111 = FACE_BOUND('',#1112,.F.);
#1112 = EDGE_LOOP('',(#1113,#1121,#1127,#1128));
#1113 = ORIENTED_EDGE('',*,*,#1114,.T.);
#1114 = EDGE_CURVE('',#998,#1115,#1117,.T.);
#1115 = VERTEX_POINT('',#1116);
#1116 = CARTESIAN_POINT('',(-4.8,-3.,69.99929));
#1117 = LINE('',#1118,#1119);
#1118 = CARTESIAN_POINT('',(-5.,-3.,69.99929));
#1119 = VECTOR('',#1120,1.);
#1120 = DIRECTION('',(1.,0.,0.));
#1121 = ORIENTED_EDGE('',*,*,#1122,.T.);
#1122 = EDGE_CURVE('',#1115,#1091,#1123,.T.);
#1123 = LINE('',#1124,#1125);
#1124 = CARTESIAN_POINT('',(-4.8,-3.,69.99929));
#1125 = VECTOR('',#1126,1.);
#1126 = DIRECTION('',(0.,-0.371442043925,-0.928456142208));
#1127 = ORIENTED_EDGE('',*,*,#1090,.F.);
#1128 = ORIENTED_EDGE('',*,*,#1005,.F.);
#1129 = PLANE('',#1130);
#1130 = AXIS2_PLACEMENT_3D('',#1131,#1132,#1133);
#1131 = CARTESIAN_POINT('',(-5.,-3.,69.99929));
#1132 = DIRECTION('',(0.,0.928456142208,-0.371442043925));
#1133 = DIRECTION('',(0.,-0.371442043925,-0.928456142208));
#1134 = ADVANCED_FACE('',(#1135),#1153,.F.);
#1135 = FACE_BOUND('',#1136,.F.);
#1136 = EDGE_LOOP('',(#1137,#1145,#1151,#1152));
#1137 = ORIENTED_EDGE('',*,*,#1138,.T.);
#1138 = EDGE_CURVE('',#990,#1139,#1141,.T.);
#1139 = VERTEX_POINT('',#1140);
#1140 = CARTESIAN_POINT('',(-4.8,-3.,59.99929));
#1141 = LINE('',#1142,#1143);
#1142 = CARTESIAN_POINT('',(-5.,-3.,59.99929));
#1143 = VECTOR('',#1144,1.);
#1144 = DIRECTION('',(1.,0.,0.));
#1145 = ORIENTED_EDGE('',*,*,#1146,.T.);
#1146 = EDGE_CURVE('',#1139,#1115,#1147,.T.);
#1147 = LINE('',#1148,#1149);
#1148 = CARTESIAN_POINT('',(-4.8,-3.,59.99929));
#1149 = VECTOR('',#1150,1.);
#1150 = DIRECTION('',(0.,0.,1.));
#1151 = ORIENTED_EDGE('',*,*,#1114,.F.);
#1152 = ORIENTED_EDGE('',*,*,#997,.F.);
#1153 = PLANE('',#1154);
#1154 = AXIS2_PLACEMENT_3D('',#1155,#1156,#1157);
#1155 = CARTESIAN_POINT('',(-5.,-3.,59.99929));
#1156 = DIRECTION('',(0.,-1.,0.));
#1157 = DIRECTION('',(0.,0.,1.));
#1158 = ADVANCED_FACE('',(#1159),#1177,.F.);
#1159 = FACE_BOUND('',#1160,.F.);
#1160 = EDGE_LOOP('',(#1161,#1169,#1175,#1176));
#1161 = ORIENTED_EDGE('',*,*,#1162,.T.);
#1162 = EDGE_CURVE('',#982,#1163,#1165,.T.);
#1163 = VERTEX_POINT('',#1164);
#1164 = CARTESIAN_POINT('',(-4.8,0.,59.99929));
#1165 = LINE('',#1166,#1167);
#1166 = CARTESIAN_POINT('',(-5.,0.,59.99929));
#1167 = VECTOR('',#1168,1.);
#1168 = DIRECTION('',(1.,0.,0.));
#1169 = ORIENTED_EDGE('',*,*,#1170,.T.);
#1170 = EDGE_CURVE('',#1163,#1139,#1171,.T.);
#1171 = LINE('',#1172,#1173);
#1172 = CARTESIAN_POINT('',(-4.8,0.,59.99929));
#1173 = VECTOR('',#1174,1.);
#1174 = DIRECTION('',(0.,-1.,0.));
#1175 = ORIENTED_EDGE('',*,*,#1138,.F.);
#1176 = ORIENTED_EDGE('',*,*,#989,.F.);
#1177 = PLANE('',#1178);
#1178 = AXIS2_PLACEMENT_3D('',#1179,#1180,#1181);
#1179 = CARTESIAN_POINT('',(-5.,0.,59.99929));
#1180 = DIRECTION('',(0.,0.,-1.));
#1181 = DIRECTION('',(0.,-1.,0.));
#1182 = ADVANCED_FACE('',(#1183),#1201,.T.);
#1183 = FACE_BOUND('',#1184,.T.);
#1184 = EDGE_LOOP('',(#1185,#1186,#1194,#1200));
#1185 = ORIENTED_EDGE('',*,*,#1162,.T.);
#1186 = ORIENTED_EDGE('',*,*,#1187,.T.);
#1187 = EDGE_CURVE('',#1163,#1188,#1190,.T.);
#1188 = VERTEX_POINT('',#1189);
#1189 = CARTESIAN_POINT('',(-4.8,0.,79.99929));
#1190 = LINE('',#1191,#1192);
#1191 = CARTESIAN_POINT('',(-4.8,0.,59.99929));
#1192 = VECTOR('',#1193,1.);
#1193 = DIRECTION('',(0.,0.,1.));
#1194 = ORIENTED_EDGE('',*,*,#1195,.F.);
#1195 = EDGE_CURVE('',#974,#1188,#1196,.T.);
#1196 = LINE('',#1197,#1198);
#1197 = CARTESIAN_POINT('',(-5.,0.,79.99929));
#1198 = VECTOR('',#1199,1.);
#1199 = DIRECTION('',(1.,0.,0.));
#1200 = ORIENTED_EDGE('',*,*,#981,.F.);
#1201 = PLANE('',#1202);
#1202 = AXIS2_PLACEMENT_3D('',#1203,#1204,#1205);
#1203 = CARTESIAN_POINT('',(-5.,0.,59.99929));
#1204 = DIRECTION('',(0.,-1.,0.));
#1205 = DIRECTION('',(0.,0.,1.));
#1206 = ADVANCED_FACE('',(#1207),#1225,.F.);
#1207 = FACE_BOUND('',#1208,.F.);
#1208 = EDGE_LOOP('',(#1209,#1217,#1223,#1224));
#1209 = ORIENTED_EDGE('',*,*,#1210,.T.);
#1210 = EDGE_CURVE('',#965,#1211,#1213,.T.);
#1211 = VERTEX_POINT('',#1212);
#1212 = CARTESIAN_POINT('',(-4.8,-7.006424,79.99929));
#1213 = LINE('',#1214,#1215);
#1214 = CARTESIAN_POINT('',(-5.,-7.006424,79.99929));
#1215 = VECTOR('',#1216,1.);
#1216 = DIRECTION('',(1.,0.,0.));
#1217 = ORIENTED_EDGE('',*,*,#1218,.T.);
#1218 = EDGE_CURVE('',#1211,#1188,#1219,.T.);
#1219 = LINE('',#1220,#1221);
#1220 = CARTESIAN_POINT('',(-4.8,-7.006424,79.99929));
#1221 = VECTOR('',#1222,1.);
#1222 = DIRECTION('',(0.,1.,0.));
#1223 = ORIENTED_EDGE('',*,*,#1195,.F.);
#1224 = ORIENTED_EDGE('',*,*,#973,.F.);
#1225 = PLANE('',#1226);
#1226 = AXIS2_PLACEMENT_3D('',#1227,#1228,#1229);
#1227 = CARTESIAN_POINT('',(-5.,-7.006424,79.99929));
#1228 = DIRECTION('',(0.,0.,1.));
#1229 = DIRECTION('',(0.,1.,0.));
#1230 = ADVANCED_FACE('',(#1231),#1250,.F.);
#1231 = FACE_BOUND('',#1232,.F.);
#1232 = EDGE_LOOP('',(#1233,#1241,#1248,#1249));
#1233 = ORIENTED_EDGE('',*,*,#1234,.T.);
#1234 = EDGE_CURVE('',#957,#1235,#1237,.T.);
#1235 = VERTEX_POINT('',#1236);
#1236 = CARTESIAN_POINT('',(-4.8,-9.997357,77.008357));
#1237 = LINE('',#1238,#1239);
#1238 = CARTESIAN_POINT('',(-5.,-9.997357,77.008357));
#1239 = VECTOR('',#1240,1.);
#1240 = DIRECTION('',(1.,0.,0.));
#1241 = ORIENTED_EDGE('',*,*,#1242,.T.);
#1242 = EDGE_CURVE('',#1235,#1211,#1243,.T.);
#1243 = CIRCLE('',#1244,2.990933);
#1244 = AXIS2_PLACEMENT_3D('',#1245,#1246,#1247);
#1245 = CARTESIAN_POINT('',(-4.8,-7.006424,77.008357));
#1246 = DIRECTION('',(-1.,0.,0.));
#1247 = DIRECTION('',(0.,-1.,0.));
#1248 = ORIENTED_EDGE('',*,*,#1210,.F.);
#1249 = ORIENTED_EDGE('',*,*,#964,.F.);
#1250 = CYLINDRICAL_SURFACE('',#1251,2.990933);
#1251 = AXIS2_PLACEMENT_3D('',#1252,#1253,#1254);
#1252 = CARTESIAN_POINT('',(-5.,-7.006424,77.008357));
#1253 = DIRECTION('',(-1.,0.,0.));
#1254 = DIRECTION('',(0.,-1.,0.));
#1255 = ADVANCED_FACE('',(#1256),#1274,.F.);
#1256 = FACE_BOUND('',#1257,.F.);
#1257 = EDGE_LOOP('',(#1258,#1266,#1272,#1273));
#1258 = ORIENTED_EDGE('',*,*,#1259,.T.);
#1259 = EDGE_CURVE('',#948,#1260,#1262,.T.);
#1260 = VERTEX_POINT('',#1261);
#1261 = CARTESIAN_POINT('',(-4.8,-9.997357,72.979304));
#1262 = LINE('',#1263,#1264);
#1263 = CARTESIAN_POINT('',(-5.,-9.997357,72.979304));
#1264 = VECTOR('',#1265,1.);
#1265 = DIRECTION('',(1.,0.,0.));
#1266 = ORIENTED_EDGE('',*,*,#1267,.T.);
#1267 = EDGE_CURVE('',#1260,#1235,#1268,.T.);
#1268 = LINE('',#1269,#1270);
#1269 = CARTESIAN_POINT('',(-4.8,-9.997357,72.979304));
#1270 = VECTOR('',#1271,1.);
#1271 = DIRECTION('',(0.,0.,1.));
#1272 = ORIENTED_EDGE('',*,*,#1234,.F.);
#1273 = ORIENTED_EDGE('',*,*,#956,.F.);
#1274 = PLANE('',#1275);
#1275 = AXIS2_PLACEMENT_3D('',#1276,#1277,#1278);
#1276 = CARTESIAN_POINT('',(-5.,-9.997357,72.979304));
#1277 = DIRECTION('',(0.,-1.,0.));
#1278 = DIRECTION('',(0.,0.,1.));
#1279 = ADVANCED_FACE('',(#1280),#1292,.F.);
#1280 = FACE_BOUND('',#1281,.F.);
#1281 = EDGE_LOOP('',(#1282,#1283,#1290,#1291));
#1282 = ORIENTED_EDGE('',*,*,#1051,.T.);
#1283 = ORIENTED_EDGE('',*,*,#1284,.T.);
#1284 = EDGE_CURVE('',#1044,#1260,#1285,.T.);
#1285 = CIRCLE('',#1286,2.986293);
#1286 = AXIS2_PLACEMENT_3D('',#1287,#1288,#1289);
#1287 = CARTESIAN_POINT('',(-4.8,-7.011064,72.979304));
#1288 = DIRECTION('',(-1.,0.,0.));
#1289 = DIRECTION('',(0.,-1.,0.));
#1290 = ORIENTED_EDGE('',*,*,#1259,.F.);
#1291 = ORIENTED_EDGE('',*,*,#947,.F.);
#1292 = CYLINDRICAL_SURFACE('',#1293,2.986293);
#1293 = AXIS2_PLACEMENT_3D('',#1294,#1295,#1296);
#1294 = CARTESIAN_POINT('',(-5.,-7.011064,72.979304));
#1295 = DIRECTION('',(-1.,0.,0.));
#1296 = DIRECTION('',(0.,-1.,0.));
#1297 = ADVANCED_FACE('',(#1298,#1311),#1381,.F.);
#1298 = FACE_BOUND('',#1299,.F.);
#1299 = EDGE_LOOP('',(#1300,#1301,#1302,#1303,#1304,#1305,#1306,#1307,
    #1308,#1309,#1310));
#1300 = ORIENTED_EDGE('',*,*,#1284,.F.);
#1301 = ORIENTED_EDGE('',*,*,#1043,.F.);
#1302 = ORIENTED_EDGE('',*,*,#1074,.F.);
#1303 = ORIENTED_EDGE('',*,*,#1098,.F.);
#1304 = ORIENTED_EDGE('',*,*,#1122,.F.);
#1305 = ORIENTED_EDGE('',*,*,#1146,.F.);
#1306 = ORIENTED_EDGE('',*,*,#1170,.F.);
#1307 = ORIENTED_EDGE('',*,*,#1187,.T.);
#1308 = ORIENTED_EDGE('',*,*,#1218,.F.);
#1309 = ORIENTED_EDGE('',*,*,#1242,.F.);
#1310 = ORIENTED_EDGE('',*,*,#1267,.F.);
#1311 = FACE_BOUND('',#1312,.F.);
#1312 = EDGE_LOOP('',(#1313,#1323,#1332,#1340,#1349,#1357,#1366,#1374));
#1313 = ORIENTED_EDGE('',*,*,#1314,.T.);
#1314 = EDGE_CURVE('',#1315,#1317,#1319,.T.);
#1315 = VERTEX_POINT('',#1316);
#1316 = CARTESIAN_POINT('',(-4.8,-3.009873,76.012488));
#1317 = VERTEX_POINT('',#1318);
#1318 = CARTESIAN_POINT('',(-4.8,-3.009873,73.947159));
#1319 = LINE('',#1320,#1321);
#1320 = CARTESIAN_POINT('',(-4.8,-3.009873,76.012488));
#1321 = VECTOR('',#1322,1.);
#1322 = DIRECTION('',(0.,0.,-1.));
#1323 = ORIENTED_EDGE('',*,*,#1324,.T.);
#1324 = EDGE_CURVE('',#1317,#1325,#1327,.T.);
#1325 = VERTEX_POINT('',#1326);
#1326 = CARTESIAN_POINT('',(-4.8,-3.941354,73.015678));
#1327 = CIRCLE('',#1328,0.931481);
#1328 = AXIS2_PLACEMENT_3D('',#1329,#1330,#1331);
#1329 = CARTESIAN_POINT('',(-4.8,-3.941354,73.947159));
#1330 = DIRECTION('',(-1.,0.,0.));
#1331 = DIRECTION('',(0.,-1.,0.));
#1332 = ORIENTED_EDGE('',*,*,#1333,.T.);
#1333 = EDGE_CURVE('',#1325,#1334,#1336,.T.);
#1334 = VERTEX_POINT('',#1335);
#1335 = CARTESIAN_POINT('',(-4.8,-6.072758,73.015678));
#1336 = LINE('',#1337,#1338);
#1337 = CARTESIAN_POINT('',(-4.8,-3.941354,73.015678));
#1338 = VECTOR('',#1339,1.);
#1339 = DIRECTION('',(0.,-1.,0.));
#1340 = ORIENTED_EDGE('',*,*,#1341,.T.);
#1341 = EDGE_CURVE('',#1334,#1342,#1344,.T.);
#1342 = VERTEX_POINT('',#1343);
#1343 = CARTESIAN_POINT('',(-4.8,-7.027973,73.970893));
#1344 = CIRCLE('',#1345,0.955215);
#1345 = AXIS2_PLACEMENT_3D('',#1346,#1347,#1348);
#1346 = CARTESIAN_POINT('',(-4.8,-6.072758,73.970893));
#1347 = DIRECTION('',(-1.,0.,0.));
#1348 = DIRECTION('',(0.,-1.,0.));
#1349 = ORIENTED_EDGE('',*,*,#1350,.T.);
#1350 = EDGE_CURVE('',#1342,#1351,#1353,.T.);
#1351 = VERTEX_POINT('',#1352);
#1352 = CARTESIAN_POINT('',(-4.8,-7.027973,75.967674));
#1353 = LINE('',#1354,#1355);
#1354 = CARTESIAN_POINT('',(-4.8,-7.027973,73.970893));
#1355 = VECTOR('',#1356,1.);
#1356 = DIRECTION('',(0.,0.,1.));
#1357 = ORIENTED_EDGE('',*,*,#1358,.T.);
#1358 = EDGE_CURVE('',#1351,#1359,#1361,.T.);
#1359 = VERTEX_POINT('',#1360);
#1360 = CARTESIAN_POINT('',(-4.8,-6.021396,76.974251));
#1361 = CIRCLE('',#1362,1.006577);
#1362 = AXIS2_PLACEMENT_3D('',#1363,#1364,#1365);
#1363 = CARTESIAN_POINT('',(-4.8,-6.021396,75.967674));
#1364 = DIRECTION('',(-1.,0.,0.));
#1365 = DIRECTION('',(0.,-1.,0.));
#1366 = ORIENTED_EDGE('',*,*,#1367,.T.);
#1367 = EDGE_CURVE('',#1359,#1368,#1370,.T.);
#1368 = VERTEX_POINT('',#1369);
#1369 = CARTESIAN_POINT('',(-4.8,-3.971636,76.974251));
#1370 = LINE('',#1371,#1372);
#1371 = CARTESIAN_POINT('',(-4.8,-6.021396,76.974251));
#1372 = VECTOR('',#1373,1.);
#1373 = DIRECTION('',(0.,1.,0.));
#1374 = ORIENTED_EDGE('',*,*,#1375,.T.);
#1375 = EDGE_CURVE('',#1368,#1315,#1376,.T.);
#1376 = CIRCLE('',#1377,0.961763);
#1377 = AXIS2_PLACEMENT_3D('',#1378,#1379,#1380);
#1378 = CARTESIAN_POINT('',(-4.8,-3.971636,76.012488));
#1379 = DIRECTION('',(-1.,0.,0.));
#1380 = DIRECTION('',(0.,-1.,0.));
#1381 = PLANE('',#1382);
#1382 = AXIS2_PLACEMENT_3D('',#1383,#1384,#1385);
#1383 = CARTESIAN_POINT('',(-4.8,-4.565587050017,69.890708758951));
#1384 = DIRECTION('',(1.,0.,0.));
#1385 = DIRECTION('',(0.,0.,1.));
#1386 = ADVANCED_FACE('',(#1387),#1412,.T.);
#1387 = FACE_BOUND('',#1388,.T.);
#1388 = EDGE_LOOP('',(#1389,#1397,#1398,#1406));
#1389 = ORIENTED_EDGE('',*,*,#1390,.T.);
#1390 = EDGE_CURVE('',#1391,#1315,#1393,.T.);
#1391 = VERTEX_POINT('',#1392);
#1392 = CARTESIAN_POINT('',(-5.,-3.009873,76.012488));
#1393 = LINE('',#1394,#1395);
#1394 = CARTESIAN_POINT('',(-5.,-3.009873,76.012488));
#1395 = VECTOR('',#1396,1.);
#1396 = DIRECTION('',(1.,0.,0.));
#1397 = ORIENTED_EDGE('',*,*,#1314,.T.);
#1398 = ORIENTED_EDGE('',*,*,#1399,.F.);
#1399 = EDGE_CURVE('',#1400,#1317,#1402,.T.);
#1400 = VERTEX_POINT('',#1401);
#1401 = CARTESIAN_POINT('',(-5.,-3.009873,73.947159));
#1402 = LINE('',#1403,#1404);
#1403 = CARTESIAN_POINT('',(-5.,-3.009873,73.947159));
#1404 = VECTOR('',#1405,1.);
#1405 = DIRECTION('',(1.,0.,0.));
#1406 = ORIENTED_EDGE('',*,*,#1407,.F.);
#1407 = EDGE_CURVE('',#1391,#1400,#1408,.T.);
#1408 = LINE('',#1409,#1410);
#1409 = CARTESIAN_POINT('',(-5.,-3.009873,76.012488));
#1410 = VECTOR('',#1411,1.);
#1411 = DIRECTION('',(0.,0.,-1.));
#1412 = PLANE('',#1413);
#1413 = AXIS2_PLACEMENT_3D('',#1414,#1415,#1416);
#1414 = CARTESIAN_POINT('',(-5.,-3.009873,76.012488));
#1415 = DIRECTION('',(0.,1.,0.));
#1416 = DIRECTION('',(0.,0.,-1.));
#1417 = ADVANCED_FACE('',(#1418),#1437,.T.);
#1418 = FACE_BOUND('',#1419,.T.);
#1419 = EDGE_LOOP('',(#1420,#1421,#1422,#1430));
#1420 = ORIENTED_EDGE('',*,*,#1399,.T.);
#1421 = ORIENTED_EDGE('',*,*,#1324,.T.);
#1422 = ORIENTED_EDGE('',*,*,#1423,.F.);
#1423 = EDGE_CURVE('',#1424,#1325,#1426,.T.);
#1424 = VERTEX_POINT('',#1425);
#1425 = CARTESIAN_POINT('',(-5.,-3.941354,73.015678));
#1426 = LINE('',#1427,#1428);
#1427 = CARTESIAN_POINT('',(-5.,-3.941354,73.015678));
#1428 = VECTOR('',#1429,1.);
#1429 = DIRECTION('',(1.,0.,0.));
#1430 = ORIENTED_EDGE('',*,*,#1431,.F.);
#1431 = EDGE_CURVE('',#1400,#1424,#1432,.T.);
#1432 = CIRCLE('',#1433,0.931481);
#1433 = AXIS2_PLACEMENT_3D('',#1434,#1435,#1436);
#1434 = CARTESIAN_POINT('',(-5.,-3.941354,73.947159));
#1435 = DIRECTION('',(-1.,0.,0.));
#1436 = DIRECTION('',(0.,-1.,0.));
#1437 = CYLINDRICAL_SURFACE('',#1438,0.931481);
#1438 = AXIS2_PLACEMENT_3D('',#1439,#1440,#1441);
#1439 = CARTESIAN_POINT('',(-5.,-3.941354,73.947159));
#1440 = DIRECTION('',(-1.,0.,0.));
#1441 = DIRECTION('',(0.,-1.,0.));
#1442 = ADVANCED_FACE('',(#1443),#1461,.T.);
#1443 = FACE_BOUND('',#1444,.T.);
#1444 = EDGE_LOOP('',(#1445,#1446,#1447,#1455));
#1445 = ORIENTED_EDGE('',*,*,#1423,.T.);
#1446 = ORIENTED_EDGE('',*,*,#1333,.T.);
#1447 = ORIENTED_EDGE('',*,*,#1448,.F.);
#1448 = EDGE_CURVE('',#1449,#1334,#1451,.T.);
#1449 = VERTEX_POINT('',#1450);
#1450 = CARTESIAN_POINT('',(-5.,-6.072758,73.015678));
#1451 = LINE('',#1452,#1453);
#1452 = CARTESIAN_POINT('',(-5.,-6.072758,73.015678));
#1453 = VECTOR('',#1454,1.);
#1454 = DIRECTION('',(1.,0.,0.));
#1455 = ORIENTED_EDGE('',*,*,#1456,.F.);
#1456 = EDGE_CURVE('',#1424,#1449,#1457,.T.);
#1457 = LINE('',#1458,#1459);
#1458 = CARTESIAN_POINT('',(-5.,-3.941354,73.015678));
#1459 = VECTOR('',#1460,1.);
#1460 = DIRECTION('',(0.,-1.,0.));
#1461 = PLANE('',#1462);
#1462 = AXIS2_PLACEMENT_3D('',#1463,#1464,#1465);
#1463 = CARTESIAN_POINT('',(-5.,-3.941354,73.015678));
#1464 = DIRECTION('',(0.,0.,-1.));
#1465 = DIRECTION('',(0.,-1.,0.));
#1466 = ADVANCED_FACE('',(#1467),#1486,.T.);
#1467 = FACE_BOUND('',#1468,.T.);
#1468 = EDGE_LOOP('',(#1469,#1470,#1471,#1479));
#1469 = ORIENTED_EDGE('',*,*,#1448,.T.);
#1470 = ORIENTED_EDGE('',*,*,#1341,.T.);
#1471 = ORIENTED_EDGE('',*,*,#1472,.F.);
#1472 = EDGE_CURVE('',#1473,#1342,#1475,.T.);
#1473 = VERTEX_POINT('',#1474);
#1474 = CARTESIAN_POINT('',(-5.,-7.027973,73.970893));
#1475 = LINE('',#1476,#1477);
#1476 = CARTESIAN_POINT('',(-5.,-7.027973,73.970893));
#1477 = VECTOR('',#1478,1.);
#1478 = DIRECTION('',(1.,0.,0.));
#1479 = ORIENTED_EDGE('',*,*,#1480,.F.);
#1480 = EDGE_CURVE('',#1449,#1473,#1481,.T.);
#1481 = CIRCLE('',#1482,0.955215);
#1482 = AXIS2_PLACEMENT_3D('',#1483,#1484,#1485);
#1483 = CARTESIAN_POINT('',(-5.,-6.072758,73.970893));
#1484 = DIRECTION('',(-1.,0.,0.));
#1485 = DIRECTION('',(0.,-1.,0.));
#1486 = CYLINDRICAL_SURFACE('',#1487,0.955215);
#1487 = AXIS2_PLACEMENT_3D('',#1488,#1489,#1490);
#1488 = CARTESIAN_POINT('',(-5.,-6.072758,73.970893));
#1489 = DIRECTION('',(-1.,0.,0.));
#1490 = DIRECTION('',(0.,-1.,0.));
#1491 = ADVANCED_FACE('',(#1492),#1510,.T.);
#1492 = FACE_BOUND('',#1493,.T.);
#1493 = EDGE_LOOP('',(#1494,#1495,#1496,#1504));
#1494 = ORIENTED_EDGE('',*,*,#1472,.T.);
#1495 = ORIENTED_EDGE('',*,*,#1350,.T.);
#1496 = ORIENTED_EDGE('',*,*,#1497,.F.);
#1497 = EDGE_CURVE('',#1498,#1351,#1500,.T.);
#1498 = VERTEX_POINT('',#1499);
#1499 = CARTESIAN_POINT('',(-5.,-7.027973,75.967674));
#1500 = LINE('',#1501,#1502);
#1501 = CARTESIAN_POINT('',(-5.,-7.027973,75.967674));
#1502 = VECTOR('',#1503,1.);
#1503 = DIRECTION('',(1.,0.,0.));
#1504 = ORIENTED_EDGE('',*,*,#1505,.F.);
#1505 = EDGE_CURVE('',#1473,#1498,#1506,.T.);
#1506 = LINE('',#1507,#1508);
#1507 = CARTESIAN_POINT('',(-5.,-7.027973,73.970893));
#1508 = VECTOR('',#1509,1.);
#1509 = DIRECTION('',(0.,0.,1.));
#1510 = PLANE('',#1511);
#1511 = AXIS2_PLACEMENT_3D('',#1512,#1513,#1514);
#1512 = CARTESIAN_POINT('',(-5.,-7.027973,73.970893));
#1513 = DIRECTION('',(0.,-1.,0.));
#1514 = DIRECTION('',(0.,0.,1.));
#1515 = ADVANCED_FACE('',(#1516),#1535,.T.);
#1516 = FACE_BOUND('',#1517,.T.);
#1517 = EDGE_LOOP('',(#1518,#1519,#1520,#1528));
#1518 = ORIENTED_EDGE('',*,*,#1497,.T.);
#1519 = ORIENTED_EDGE('',*,*,#1358,.T.);
#1520 = ORIENTED_EDGE('',*,*,#1521,.F.);
#1521 = EDGE_CURVE('',#1522,#1359,#1524,.T.);
#1522 = VERTEX_POINT('',#1523);
#1523 = CARTESIAN_POINT('',(-5.,-6.021396,76.974251));
#1524 = LINE('',#1525,#1526);
#1525 = CARTESIAN_POINT('',(-5.,-6.021396,76.974251));
#1526 = VECTOR('',#1527,1.);
#1527 = DIRECTION('',(1.,0.,0.));
#1528 = ORIENTED_EDGE('',*,*,#1529,.F.);
#1529 = EDGE_CURVE('',#1498,#1522,#1530,.T.);
#1530 = CIRCLE('',#1531,1.006577);
#1531 = AXIS2_PLACEMENT_3D('',#1532,#1533,#1534);
#1532 = CARTESIAN_POINT('',(-5.,-6.021396,75.967674));
#1533 = DIRECTION('',(-1.,0.,0.));
#1534 = DIRECTION('',(0.,-1.,0.));
#1535 = CYLINDRICAL_SURFACE('',#1536,1.006577);
#1536 = AXIS2_PLACEMENT_3D('',#1537,#1538,#1539);
#1537 = CARTESIAN_POINT('',(-5.,-6.021396,75.967674));
#1538 = DIRECTION('',(-1.,0.,0.));
#1539 = DIRECTION('',(0.,-1.,0.));
#1540 = ADVANCED_FACE('',(#1541),#1559,.T.);
#1541 = FACE_BOUND('',#1542,.T.);
#1542 = EDGE_LOOP('',(#1543,#1544,#1545,#1553));
#1543 = ORIENTED_EDGE('',*,*,#1521,.T.);
#1544 = ORIENTED_EDGE('',*,*,#1367,.T.);
#1545 = ORIENTED_EDGE('',*,*,#1546,.F.);
#1546 = EDGE_CURVE('',#1547,#1368,#1549,.T.);
#1547 = VERTEX_POINT('',#1548);
#1548 = CARTESIAN_POINT('',(-5.,-3.971636,76.974251));
#1549 = LINE('',#1550,#1551);
#1550 = CARTESIAN_POINT('',(-5.,-3.971636,76.974251));
#1551 = VECTOR('',#1552,1.);
#1552 = DIRECTION('',(1.,0.,0.));
#1553 = ORIENTED_EDGE('',*,*,#1554,.F.);
#1554 = EDGE_CURVE('',#1522,#1547,#1555,.T.);
#1555 = LINE('',#1556,#1557);
#1556 = CARTESIAN_POINT('',(-5.,-6.021396,76.974251));
#1557 = VECTOR('',#1558,1.);
#1558 = DIRECTION('',(0.,1.,0.));
#1559 = PLANE('',#1560);
#1560 = AXIS2_PLACEMENT_3D('',#1561,#1562,#1563);
#1561 = CARTESIAN_POINT('',(-5.,-6.021396,76.974251));
#1562 = DIRECTION('',(0.,0.,1.));
#1563 = DIRECTION('',(0.,1.,0.));
#1564 = ADVANCED_FACE('',(#1565),#1577,.T.);
#1565 = FACE_BOUND('',#1566,.T.);
#1566 = EDGE_LOOP('',(#1567,#1568,#1569,#1570));
#1567 = ORIENTED_EDGE('',*,*,#1546,.T.);
#1568 = ORIENTED_EDGE('',*,*,#1375,.T.);
#1569 = ORIENTED_EDGE('',*,*,#1390,.F.);
#1570 = ORIENTED_EDGE('',*,*,#1571,.F.);
#1571 = EDGE_CURVE('',#1547,#1391,#1572,.T.);
#1572 = CIRCLE('',#1573,0.961763);
#1573 = AXIS2_PLACEMENT_3D('',#1574,#1575,#1576);
#1574 = CARTESIAN_POINT('',(-5.,-3.971636,76.012488));
#1575 = DIRECTION('',(-1.,0.,0.));
#1576 = DIRECTION('',(0.,-1.,0.));
#1577 = CYLINDRICAL_SURFACE('',#1578,0.961763);
#1578 = AXIS2_PLACEMENT_3D('',#1579,#1580,#1581);
#1579 = CARTESIAN_POINT('',(-5.,-3.971636,76.012488));
#1580 = DIRECTION('',(-1.,0.,0.));
#1581 = DIRECTION('',(0.,-1.,0.));
#1582 = ADVANCED_FACE('',(#1583),#1593,.F.);
#1583 = FACE_BOUND('',#1584,.F.);
#1584 = EDGE_LOOP('',(#1585,#1586,#1587,#1588,#1589,#1590,#1591,#1592));
#1585 = ORIENTED_EDGE('',*,*,#1407,.F.);
#1586 = ORIENTED_EDGE('',*,*,#1571,.F.);
#1587 = ORIENTED_EDGE('',*,*,#1554,.F.);
#1588 = ORIENTED_EDGE('',*,*,#1529,.F.);
#1589 = ORIENTED_EDGE('',*,*,#1505,.F.);
#1590 = ORIENTED_EDGE('',*,*,#1480,.F.);
#1591 = ORIENTED_EDGE('',*,*,#1456,.F.);
#1592 = ORIENTED_EDGE('',*,*,#1431,.F.);
#1593 = PLANE('',#1594);
#1594 = AXIS2_PLACEMENT_3D('',#1595,#1596,#1597);
#1595 = CARTESIAN_POINT('',(-5.,2.499851,62.008045));
#1596 = DIRECTION('',(1.,0.,0.));
#1597 = DIRECTION('',(0.,0.,1.));
#1598 = ( GEOMETRIC_REPRESENTATION_CONTEXT(3) 
GLOBAL_UNCERTAINTY_ASSIGNED_CONTEXT((#1602)) 
GLOBAL_UNIT_ASSIGNED_CONTEXT((#1599,#1600,#1601)) REPRESENTATION_CONTEXT
('Context #1','3D Context with UNIT and UNCERTAINTY') );
#1599 = ( LENGTH_UNIT() NAMED_UNIT(*) SI_UNIT(.MILLI.,.METRE.) );
#1600 = ( NAMED_UNIT(*) PLANE_ANGLE_UNIT() SI_UNIT($,.RADIAN.) );
#1601 = ( NAMED_UNIT(*) SI_UNIT($,.STERADIAN.) SOLID_ANGLE_UNIT() );
#1602 = UNCERTAINTY_MEASURE_WITH_UNIT(LENGTH_MEASURE(1.E-05),#1599,
  'distance_accuracy_value','confusion accuracy');
#1603 = PRODUCT_RELATED_PRODUCT_CATEGORY('part',$,(#7));
#1604 = MECHANICAL_DESIGN_GEOMETRIC_PRESENTATION_REPRESENTATION('',(
    #1605),#1598);
#1605 = STYLED_ITEM('color',(#1606),#15);
#1606 = PRESENTATION_STYLE_ASSIGNMENT((#1607,#1613));
#1607 = SURFACE_STYLE_USAGE(.BOTH.,#1608);
#1608 = SURFACE_SIDE_STYLE('',(#1609));
#1609 = SURFACE_STYLE_FILL_AREA(#1610);
#1610 = FILL_AREA_STYLE('',(#1611));
#1611 = FILL_AREA_STYLE_COLOUR('',#1612);
#1612 = COLOUR_RGB('',0.678431390124,0.709803936702,0.741176476869);
#1613 = CURVE_STYLE('',#1614,POSITIVE_LENGTH_MEASURE(0.1),#1615);
#1614 = DRAUGHTING_PRE_DEFINED_CURVE_FONT('continuous');
#1615 = COLOUR_RGB('',9.803921802644E-02,9.803921802644E-02,
  9.803921802644E-02);
ENDSEC;
END-ISO-10303-21;
