ISO-10303-21;
HEADER;
FILE_DESCRIPTION(('FreeCAD Model'),'2;1');
FILE_NAME('Open CASCADE Shape Model','2026-07-26T17:03:23',(''),(''),
  'Open CASCADE STEP processor 7.8','FreeCAD','Unknown');
FILE_SCHEMA(('AUTOMOTIVE_DESIGN { 1 0 10303 214 1 1 1 1 }'));
ENDSEC;
DATA;
#1 = APPLICATION_PROTOCOL_DEFINITION('international standard',
  'automotive_design',2000,#2);
#2 = APPLICATION_CONTEXT(
  'core data for automotive mechanical design processes');
#3 = SHAPE_DEFINITION_REPRESENTATION(#4,#10);
#4 = PRODUCT_DEFINITION_SHAPE('','',#5);
#5 = PRODUCT_DEFINITION('design','',#6,#9);
#6 = PRODUCT_DEFINITION_FORMATION('','',#7);
#7 = PRODUCT('RA Drive Plate','RA Drive Plate','',(#8));
#8 = PRODUCT_CONTEXT('',#2,'mechanical');
#9 = PRODUCT_DEFINITION_CONTEXT('part definition',#2,'design');
#10 = ADVANCED_BREP_SHAPE_REPRESENTATION('',(#11,#15),#1433);
#11 = AXIS2_PLACEMENT_3D('',#12,#13,#14);
#12 = CARTESIAN_POINT('',(0.,0.,0.));
#13 = DIRECTION('',(0.,0.,1.));
#14 = DIRECTION('',(1.,0.,-0.));
#15 = MANIFOLD_SOLID_BREP('',#16);
#16 = CLOSED_SHELL('',(#17,#90,#154,#244,#400,#450,#475,#500,#525,#570,
    #595,#620,#645,#670,#695,#720,#745,#770,#795,#820,#845,#862,#887,
    #912,#929,#954,#979,#1004,#1021,#1038,#1055,#1080,#1105,#1130,#1139,
    #1148,#1157,#1182,#1207,#1232,#1241,#1250,#1259,#1297,#1317,#1326,
    #1335,#1344,#1353,#1362,#1371,#1396,#1421));
#17 = ADVANCED_FACE('',(#18,#52,#63,#74),#85,.F.);
#18 = FACE_BOUND('',#19,.F.);
#19 = EDGE_LOOP('',(#20,#30,#38,#46));
#20 = ORIENTED_EDGE('',*,*,#21,.T.);
#21 = EDGE_CURVE('',#22,#24,#26,.T.);
#22 = VERTEX_POINT('',#23);
#23 = CARTESIAN_POINT('',(-58.012798,60.999961538433,0.));
#24 = VERTEX_POINT('',#25);
#25 = CARTESIAN_POINT('',(-58.012798,60.999961538433,10.));
#26 = LINE('',#27,#28);
#27 = CARTESIAN_POINT('',(-58.012798,60.999961538433,0.));
#28 = VECTOR('',#29,1.);
#29 = DIRECTION('',(0.,0.,1.));
#30 = ORIENTED_EDGE('',*,*,#31,.T.);
#31 = EDGE_CURVE('',#24,#32,#34,.T.);
#32 = VERTEX_POINT('',#33);
#33 = CARTESIAN_POINT('',(-58.012798,-56.00003846156,10.));
#34 = LINE('',#35,#36);
#35 = CARTESIAN_POINT('',(-58.012798,60.999961538433,10.));
#36 = VECTOR('',#37,1.);
#37 = DIRECTION('',(0.,-1.,0.));
#38 = ORIENTED_EDGE('',*,*,#39,.F.);
#39 = EDGE_CURVE('',#40,#32,#42,.T.);
#40 = VERTEX_POINT('',#41);
#41 = CARTESIAN_POINT('',(-58.012798,-56.00003846156,0.));
#42 = LINE('',#43,#44);
#43 = CARTESIAN_POINT('',(-58.012798,-56.00003846156,0.));
#44 = VECTOR('',#45,1.);
#45 = DIRECTION('',(0.,0.,1.));
#46 = ORIENTED_EDGE('',*,*,#47,.F.);
#47 = EDGE_CURVE('',#22,#40,#48,.T.);
#48 = LINE('',#49,#50);
#49 = CARTESIAN_POINT('',(-58.012798,60.999961538433,0.));
#50 = VECTOR('',#51,1.);
#51 = DIRECTION('',(0.,-1.,0.));
#52 = FACE_BOUND('',#53,.F.);
#53 = EDGE_LOOP('',(#54));
#54 = ORIENTED_EDGE('',*,*,#55,.T.);
#55 = EDGE_CURVE('',#56,#56,#58,.T.);
#56 = VERTEX_POINT('',#57);
#57 = CARTESIAN_POINT('',(-58.012798,28.349998,4.999998));
#58 = CIRCLE('',#59,1.65);
#59 = AXIS2_PLACEMENT_3D('',#60,#61,#62);
#60 = CARTESIAN_POINT('',(-58.012798,29.999998,4.999998));
#61 = DIRECTION('',(-1.,0.,0.));
#62 = DIRECTION('',(0.,-1.,0.));
#63 = FACE_BOUND('',#64,.F.);
#64 = EDGE_LOOP('',(#65));
#65 = ORIENTED_EDGE('',*,*,#66,.T.);
#66 = EDGE_CURVE('',#67,#67,#69,.T.);
#67 = VERTEX_POINT('',#68);
#68 = CARTESIAN_POINT('',(-58.012798,-31.64999,4.999971));
#69 = CIRCLE('',#70,1.65);
#70 = AXIS2_PLACEMENT_3D('',#71,#72,#73);
#71 = CARTESIAN_POINT('',(-58.012798,-29.99999,4.999971));
#72 = DIRECTION('',(-1.,0.,0.));
#73 = DIRECTION('',(0.,-1.,0.));
#74 = FACE_BOUND('',#75,.F.);
#75 = EDGE_LOOP('',(#76));
#76 = ORIENTED_EDGE('',*,*,#77,.T.);
#77 = EDGE_CURVE('',#78,#78,#80,.T.);
#78 = VERTEX_POINT('',#79);
#79 = CARTESIAN_POINT('',(-58.012798,-1.65,4.99991));
#80 = CIRCLE('',#81,1.65);
#81 = AXIS2_PLACEMENT_3D('',#82,#83,#84);
#82 = CARTESIAN_POINT('',(-58.012798,0.,4.99991));
#83 = DIRECTION('',(-1.,0.,0.));
#84 = DIRECTION('',(0.,-1.,0.));
#85 = PLANE('',#86);
#86 = AXIS2_PLACEMENT_3D('',#87,#88,#89);
#87 = CARTESIAN_POINT('',(-58.012798,60.999961538433,0.));
#88 = DIRECTION('',(1.,0.,0.));
#89 = DIRECTION('',(0.,-1.,0.));
#90 = ADVANCED_FACE('',(#91,#116,#127,#138),#149,.F.);
#91 = FACE_BOUND('',#92,.F.);
#92 = EDGE_LOOP('',(#93,#103,#109,#110));
#93 = ORIENTED_EDGE('',*,*,#94,.T.);
#94 = EDGE_CURVE('',#95,#97,#99,.T.);
#95 = VERTEX_POINT('',#96);
#96 = CARTESIAN_POINT('',(57.987202,60.999961538433,0.));
#97 = VERTEX_POINT('',#98);
#98 = CARTESIAN_POINT('',(57.987202,60.999961538433,10.));
#99 = LINE('',#100,#101);
#100 = CARTESIAN_POINT('',(57.987202,60.999961538433,0.));
#101 = VECTOR('',#102,1.);
#102 = DIRECTION('',(0.,0.,1.));
#103 = ORIENTED_EDGE('',*,*,#104,.T.);
#104 = EDGE_CURVE('',#97,#24,#105,.T.);
#105 = LINE('',#106,#107);
#106 = CARTESIAN_POINT('',(57.987202,60.999961538433,10.));
#107 = VECTOR('',#108,1.);
#108 = DIRECTION('',(-1.,0.,0.));
#109 = ORIENTED_EDGE('',*,*,#21,.F.);
#110 = ORIENTED_EDGE('',*,*,#111,.F.);
#111 = EDGE_CURVE('',#95,#22,#112,.T.);
#112 = LINE('',#113,#114);
#113 = CARTESIAN_POINT('',(57.987202,60.999961538433,0.));
#114 = VECTOR('',#115,1.);
#115 = DIRECTION('',(-1.,0.,0.));
#116 = FACE_BOUND('',#117,.F.);
#117 = EDGE_LOOP('',(#118));
#118 = ORIENTED_EDGE('',*,*,#119,.T.);
#119 = EDGE_CURVE('',#120,#120,#122,.T.);
#120 = VERTEX_POINT('',#121);
#121 = CARTESIAN_POINT('',(28.35,60.999961538433,5.));
#122 = CIRCLE('',#123,1.65);
#123 = AXIS2_PLACEMENT_3D('',#124,#125,#126);
#124 = CARTESIAN_POINT('',(30.,60.999961538433,5.));
#125 = DIRECTION('',(0.,1.,-2.22044604925E-16));
#126 = DIRECTION('',(-1.,0.,0.));
#127 = FACE_BOUND('',#128,.F.);
#128 = EDGE_LOOP('',(#129));
#129 = ORIENTED_EDGE('',*,*,#130,.T.);
#130 = EDGE_CURVE('',#131,#131,#133,.T.);
#131 = VERTEX_POINT('',#132);
#132 = CARTESIAN_POINT('',(-1.65,60.999961538433,5.000001));
#133 = CIRCLE('',#134,1.65);
#134 = AXIS2_PLACEMENT_3D('',#135,#136,#137);
#135 = CARTESIAN_POINT('',(0.,60.999961538433,5.000001));
#136 = DIRECTION('',(0.,1.,-2.22044604925E-16));
#137 = DIRECTION('',(-1.,0.,0.));
#138 = FACE_BOUND('',#139,.F.);
#139 = EDGE_LOOP('',(#140));
#140 = ORIENTED_EDGE('',*,*,#141,.T.);
#141 = EDGE_CURVE('',#142,#142,#144,.T.);
#142 = VERTEX_POINT('',#143);
#143 = CARTESIAN_POINT('',(-31.650004,60.999961538433,4.999991));
#144 = CIRCLE('',#145,1.65);
#145 = AXIS2_PLACEMENT_3D('',#146,#147,#148);
#146 = CARTESIAN_POINT('',(-30.000004,60.999961538433,4.999991));
#147 = DIRECTION('',(0.,1.,-2.22044604925E-16));
#148 = DIRECTION('',(-1.,0.,0.));
#149 = PLANE('',#150);
#150 = AXIS2_PLACEMENT_3D('',#151,#152,#153);
#151 = CARTESIAN_POINT('',(57.987202,60.999961538433,0.));
#152 = DIRECTION('',(0.,-1.,0.));
#153 = DIRECTION('',(-1.,0.,0.));
#154 = ADVANCED_FACE('',(#155,#173,#184,#195,#206,#217,#228),#239,.F.);
#155 = FACE_BOUND('',#156,.F.);
#156 = EDGE_LOOP('',(#157,#158,#166,#172));
#157 = ORIENTED_EDGE('',*,*,#47,.T.);
#158 = ORIENTED_EDGE('',*,*,#159,.T.);
#159 = EDGE_CURVE('',#40,#160,#162,.T.);
#160 = VERTEX_POINT('',#161);
#161 = CARTESIAN_POINT('',(57.987202,-56.00003846156,0.));
#162 = LINE('',#163,#164);
#163 = CARTESIAN_POINT('',(-58.012798,-56.00003846156,0.));
#164 = VECTOR('',#165,1.);
#165 = DIRECTION('',(1.,0.,0.));
#166 = ORIENTED_EDGE('',*,*,#167,.T.);
#167 = EDGE_CURVE('',#160,#95,#168,.T.);
#168 = LINE('',#169,#170);
#169 = CARTESIAN_POINT('',(57.987202,-56.00003846156,0.));
#170 = VECTOR('',#171,1.);
#171 = DIRECTION('',(0.,1.,0.));
#172 = ORIENTED_EDGE('',*,*,#111,.T.);
#173 = FACE_BOUND('',#174,.F.);
#174 = EDGE_LOOP('',(#175));
#175 = ORIENTED_EDGE('',*,*,#176,.T.);
#176 = EDGE_CURVE('',#177,#177,#179,.T.);
#177 = VERTEX_POINT('',#178);
#178 = CARTESIAN_POINT('',(-44.450015,-7.999982,0.));
#179 = CIRCLE('',#180,3.45);
#180 = AXIS2_PLACEMENT_3D('',#181,#182,#183);
#181 = CARTESIAN_POINT('',(-41.000015,-7.999982,0.));
#182 = DIRECTION('',(0.,0.,-1.));
#183 = DIRECTION('',(-1.,0.,0.));
#184 = FACE_BOUND('',#185,.F.);
#185 = EDGE_LOOP('',(#186));
#186 = ORIENTED_EDGE('',*,*,#187,.T.);
#187 = EDGE_CURVE('',#188,#188,#190,.T.);
#188 = VERTEX_POINT('',#189);
#189 = CARTESIAN_POINT('',(36.5,0.,0.));
#190 = CIRCLE('',#191,36.5);
#191 = AXIS2_PLACEMENT_3D('',#192,#193,#194);
#192 = CARTESIAN_POINT('',(0.,0.,0.));
#193 = DIRECTION('',(0.,0.,-1.));
#194 = DIRECTION('',(1.,0.,0.));
#195 = FACE_BOUND('',#196,.F.);
#196 = EDGE_LOOP('',(#197));
#197 = ORIENTED_EDGE('',*,*,#198,.T.);
#198 = EDGE_CURVE('',#199,#199,#201,.T.);
#199 = VERTEX_POINT('',#200);
#200 = CARTESIAN_POINT('',(46.55,-7.999997,0.));
#201 = CIRCLE('',#202,3.45);
#202 = AXIS2_PLACEMENT_3D('',#203,#204,#205);
#203 = CARTESIAN_POINT('',(50.,-7.999997,0.));
#204 = DIRECTION('',(0.,0.,-1.));
#205 = DIRECTION('',(-1.,0.,0.));
#206 = FACE_BOUND('',#207,.F.);
#207 = EDGE_LOOP('',(#208));
#208 = ORIENTED_EDGE('',*,*,#209,.T.);
#209 = EDGE_CURVE('',#210,#210,#212,.T.);
#210 = VERTEX_POINT('',#211);
#211 = CARTESIAN_POINT('',(36.549954,10.000055,0.));
#212 = CIRCLE('',#213,3.45);
#213 = AXIS2_PLACEMENT_3D('',#214,#215,#216);
#214 = CARTESIAN_POINT('',(39.999954,10.000055,0.));
#215 = DIRECTION('',(0.,0.,-1.));
#216 = DIRECTION('',(-1.,0.,0.));
#217 = FACE_BOUND('',#218,.F.);
#218 = EDGE_LOOP('',(#219));
#219 = ORIENTED_EDGE('',*,*,#220,.T.);
#220 = EDGE_CURVE('',#221,#221,#223,.T.);
#221 = VERTEX_POINT('',#222);
#222 = CARTESIAN_POINT('',(6.549999,40.,0.));
#223 = CIRCLE('',#224,3.45);
#224 = AXIS2_PLACEMENT_3D('',#225,#226,#227);
#225 = CARTESIAN_POINT('',(9.999999,40.,0.));
#226 = DIRECTION('',(0.,0.,-1.));
#227 = DIRECTION('',(-1.,0.,0.));
#228 = FACE_BOUND('',#229,.F.);
#229 = EDGE_LOOP('',(#230));
#230 = ORIENTED_EDGE('',*,*,#231,.T.);
#231 = EDGE_CURVE('',#232,#232,#234,.T.);
#232 = VERTEX_POINT('',#233);
#233 = CARTESIAN_POINT('',(36.55,50.,0.));
#234 = CIRCLE('',#235,3.45);
#235 = AXIS2_PLACEMENT_3D('',#236,#237,#238);
#236 = CARTESIAN_POINT('',(40.,50.,0.));
#237 = DIRECTION('',(0.,0.,-1.));
#238 = DIRECTION('',(-1.,0.,0.));
#239 = PLANE('',#240);
#240 = AXIS2_PLACEMENT_3D('',#241,#242,#243);
#241 = CARTESIAN_POINT('',(-1.187139278007E-02,2.318958068277,0.));
#242 = DIRECTION('',(0.,0.,1.));
#243 = DIRECTION('',(1.,0.,0.));
#244 = ADVANCED_FACE('',(#245,#263,#274,#285,#296,#307,#318,#329,#340,
    #351,#362,#373,#384),#395,.T.);
#245 = FACE_BOUND('',#246,.T.);
#246 = EDGE_LOOP('',(#247,#248,#256,#262));
#247 = ORIENTED_EDGE('',*,*,#31,.T.);
#248 = ORIENTED_EDGE('',*,*,#249,.T.);
#249 = EDGE_CURVE('',#32,#250,#252,.T.);
#250 = VERTEX_POINT('',#251);
#251 = CARTESIAN_POINT('',(57.987202,-56.00003846156,10.));
#252 = LINE('',#253,#254);
#253 = CARTESIAN_POINT('',(-58.012798,-56.00003846156,10.));
#254 = VECTOR('',#255,1.);
#255 = DIRECTION('',(1.,0.,0.));
#256 = ORIENTED_EDGE('',*,*,#257,.T.);
#257 = EDGE_CURVE('',#250,#97,#258,.T.);
#258 = LINE('',#259,#260);
#259 = CARTESIAN_POINT('',(57.987202,-56.00003846156,10.));
#260 = VECTOR('',#261,1.);
#261 = DIRECTION('',(0.,1.,0.));
#262 = ORIENTED_EDGE('',*,*,#104,.T.);
#263 = FACE_BOUND('',#264,.T.);
#264 = EDGE_LOOP('',(#265));
#265 = ORIENTED_EDGE('',*,*,#266,.F.);
#266 = EDGE_CURVE('',#267,#267,#269,.T.);
#267 = VERTEX_POINT('',#268);
#268 = CARTESIAN_POINT('',(-29.17082562299,-14.47464792224,10.));
#269 = CIRCLE('',#270,2.05);
#270 = AXIS2_PLACEMENT_3D('',#271,#272,#273);
#271 = CARTESIAN_POINT('',(-28.14582562299,-16.25,10.));
#272 = DIRECTION('',(0.,0.,1.));
#273 = DIRECTION('',(-0.5,0.866025403784,0.));
#274 = FACE_BOUND('',#275,.T.);
#275 = EDGE_LOOP('',(#276));
#276 = ORIENTED_EDGE('',*,*,#277,.F.);
#277 = EDGE_CURVE('',#278,#278,#280,.T.);
#278 = VERTEX_POINT('',#279);
#279 = CARTESIAN_POINT('',(-2.05,-32.5,10.));
#280 = CIRCLE('',#281,2.05);
#281 = AXIS2_PLACEMENT_3D('',#282,#283,#284);
#282 = CARTESIAN_POINT('',(0.,-32.5,10.));
#283 = DIRECTION('',(0.,-0.,1.));
#284 = DIRECTION('',(-1.,0.,0.));
#285 = FACE_BOUND('',#286,.T.);
#286 = EDGE_LOOP('',(#287));
#287 = ORIENTED_EDGE('',*,*,#288,.F.);
#288 = EDGE_CURVE('',#289,#289,#291,.T.);
#289 = VERTEX_POINT('',#290);
#290 = CARTESIAN_POINT('',(-42.500015,-7.999982,10.));
#291 = CIRCLE('',#292,1.5);
#292 = AXIS2_PLACEMENT_3D('',#293,#294,#295);
#293 = CARTESIAN_POINT('',(-41.000015,-7.999982,10.));
#294 = DIRECTION('',(0.,-0.,1.));
#295 = DIRECTION('',(-1.,0.,0.));
#296 = FACE_BOUND('',#297,.T.);
#297 = EDGE_LOOP('',(#298));
#298 = ORIENTED_EDGE('',*,*,#299,.F.);
#299 = EDGE_CURVE('',#300,#300,#302,.T.);
#300 = VERTEX_POINT('',#301);
#301 = CARTESIAN_POINT('',(7.,0.,10.));
#302 = CIRCLE('',#303,7.);
#303 = AXIS2_PLACEMENT_3D('',#304,#305,#306);
#304 = CARTESIAN_POINT('',(0.,0.,10.));
#305 = DIRECTION('',(0.,0.,1.));
#306 = DIRECTION('',(1.,0.,0.));
#307 = FACE_BOUND('',#308,.T.);
#308 = EDGE_LOOP('',(#309));
#309 = ORIENTED_EDGE('',*,*,#310,.F.);
#310 = EDGE_CURVE('',#311,#311,#313,.T.);
#311 = VERTEX_POINT('',#312);
#312 = CARTESIAN_POINT('',(27.120825622994,-18.02535207775,10.));
#313 = CIRCLE('',#314,2.05);
#314 = AXIS2_PLACEMENT_3D('',#315,#316,#317);
#315 = CARTESIAN_POINT('',(28.145825622994,-16.25,10.));
#316 = DIRECTION('',(0.,0.,1.));
#317 = DIRECTION('',(-0.5,-0.866025403784,0.));
#318 = FACE_BOUND('',#319,.T.);
#319 = EDGE_LOOP('',(#320));
#320 = ORIENTED_EDGE('',*,*,#321,.F.);
#321 = EDGE_CURVE('',#322,#322,#324,.T.);
#322 = VERTEX_POINT('',#323);
#323 = CARTESIAN_POINT('',(48.5,-7.999997,10.));
#324 = CIRCLE('',#325,1.5);
#325 = AXIS2_PLACEMENT_3D('',#326,#327,#328);
#326 = CARTESIAN_POINT('',(50.,-7.999997,10.));
#327 = DIRECTION('',(0.,-0.,1.));
#328 = DIRECTION('',(-1.,0.,0.));
#329 = FACE_BOUND('',#330,.T.);
#330 = EDGE_LOOP('',(#331));
#331 = ORIENTED_EDGE('',*,*,#332,.F.);
#332 = EDGE_CURVE('',#333,#333,#335,.T.);
#333 = VERTEX_POINT('',#334);
#334 = CARTESIAN_POINT('',(-27.12082562299,18.025352077758,10.));
#335 = CIRCLE('',#336,2.05);
#336 = AXIS2_PLACEMENT_3D('',#337,#338,#339);
#337 = CARTESIAN_POINT('',(-28.14582562299,16.25,10.));
#338 = DIRECTION('',(0.,-0.,1.));
#339 = DIRECTION('',(0.5,0.866025403784,0.));
#340 = FACE_BOUND('',#341,.T.);
#341 = EDGE_LOOP('',(#342));
#342 = ORIENTED_EDGE('',*,*,#343,.F.);
#343 = EDGE_CURVE('',#344,#344,#346,.T.);
#344 = VERTEX_POINT('',#345);
#345 = CARTESIAN_POINT('',(2.05,32.5,10.));
#346 = CIRCLE('',#347,2.05);
#347 = AXIS2_PLACEMENT_3D('',#348,#349,#350);
#348 = CARTESIAN_POINT('',(-3.980102097229E-15,32.5,10.));
#349 = DIRECTION('',(0.,-0.,1.));
#350 = DIRECTION('',(1.,1.224646799147E-16,0.));
#351 = FACE_BOUND('',#352,.T.);
#352 = EDGE_LOOP('',(#353));
#353 = ORIENTED_EDGE('',*,*,#354,.F.);
#354 = EDGE_CURVE('',#355,#355,#357,.T.);
#355 = VERTEX_POINT('',#356);
#356 = CARTESIAN_POINT('',(29.170825622994,14.474647922242,10.));
#357 = CIRCLE('',#358,2.05);
#358 = AXIS2_PLACEMENT_3D('',#359,#360,#361);
#359 = CARTESIAN_POINT('',(28.145825622994,16.25,10.));
#360 = DIRECTION('',(-0.,0.,1.));
#361 = DIRECTION('',(0.5,-0.866025403784,0.));
#362 = FACE_BOUND('',#363,.T.);
#363 = EDGE_LOOP('',(#364));
#364 = ORIENTED_EDGE('',*,*,#365,.F.);
#365 = EDGE_CURVE('',#366,#366,#368,.T.);
#366 = VERTEX_POINT('',#367);
#367 = CARTESIAN_POINT('',(38.499954,10.000055,10.));
#368 = CIRCLE('',#369,1.5);
#369 = AXIS2_PLACEMENT_3D('',#370,#371,#372);
#370 = CARTESIAN_POINT('',(39.999954,10.000055,10.));
#371 = DIRECTION('',(0.,-0.,1.));
#372 = DIRECTION('',(-1.,0.,0.));
#373 = FACE_BOUND('',#374,.T.);
#374 = EDGE_LOOP('',(#375));
#375 = ORIENTED_EDGE('',*,*,#376,.F.);
#376 = EDGE_CURVE('',#377,#377,#379,.T.);
#377 = VERTEX_POINT('',#378);
#378 = CARTESIAN_POINT('',(8.499999,40.,10.));
#379 = CIRCLE('',#380,1.5);
#380 = AXIS2_PLACEMENT_3D('',#381,#382,#383);
#381 = CARTESIAN_POINT('',(9.999999,40.,10.));
#382 = DIRECTION('',(0.,-0.,1.));
#383 = DIRECTION('',(-1.,0.,0.));
#384 = FACE_BOUND('',#385,.T.);
#385 = EDGE_LOOP('',(#386));
#386 = ORIENTED_EDGE('',*,*,#387,.F.);
#387 = EDGE_CURVE('',#388,#388,#390,.T.);
#388 = VERTEX_POINT('',#389);
#389 = CARTESIAN_POINT('',(38.5,50.,10.));
#390 = CIRCLE('',#391,1.5);
#391 = AXIS2_PLACEMENT_3D('',#392,#393,#394);
#392 = CARTESIAN_POINT('',(40.,50.,10.));
#393 = DIRECTION('',(0.,-0.,1.));
#394 = DIRECTION('',(-1.,0.,0.));
#395 = PLANE('',#396);
#396 = AXIS2_PLACEMENT_3D('',#397,#398,#399);
#397 = CARTESIAN_POINT('',(-1.187139278007E-02,2.318958068277,10.));
#398 = DIRECTION('',(0.,0.,1.));
#399 = DIRECTION('',(1.,0.,0.));
#400 = ADVANCED_FACE('',(#401,#412,#423,#434),#445,.F.);
#401 = FACE_BOUND('',#402,.F.);
#402 = EDGE_LOOP('',(#403,#404,#405,#411));
#403 = ORIENTED_EDGE('',*,*,#39,.T.);
#404 = ORIENTED_EDGE('',*,*,#249,.T.);
#405 = ORIENTED_EDGE('',*,*,#406,.F.);
#406 = EDGE_CURVE('',#160,#250,#407,.T.);
#407 = LINE('',#408,#409);
#408 = CARTESIAN_POINT('',(57.987202,-56.00003846156,0.));
#409 = VECTOR('',#410,1.);
#410 = DIRECTION('',(0.,0.,1.));
#411 = ORIENTED_EDGE('',*,*,#159,.F.);
#412 = FACE_BOUND('',#413,.F.);
#413 = EDGE_LOOP('',(#414));
#414 = ORIENTED_EDGE('',*,*,#415,.T.);
#415 = EDGE_CURVE('',#416,#416,#418,.T.);
#416 = VERTEX_POINT('',#417);
#417 = CARTESIAN_POINT('',(-28.350011,-56.00003846156,4.999995));
#418 = CIRCLE('',#419,1.65);
#419 = AXIS2_PLACEMENT_3D('',#420,#421,#422);
#420 = CARTESIAN_POINT('',(-30.000011,-56.00003846156,4.999995));
#421 = DIRECTION('',(0.,-1.,2.22044604925E-16));
#422 = DIRECTION('',(1.,0.,0.));
#423 = FACE_BOUND('',#424,.F.);
#424 = EDGE_LOOP('',(#425));
#425 = ORIENTED_EDGE('',*,*,#426,.T.);
#426 = EDGE_CURVE('',#427,#427,#429,.T.);
#427 = VERTEX_POINT('',#428);
#428 = CARTESIAN_POINT('',(31.650002,-56.00003846156,4.999995));
#429 = CIRCLE('',#430,1.65);
#430 = AXIS2_PLACEMENT_3D('',#431,#432,#433);
#431 = CARTESIAN_POINT('',(30.000002,-56.00003846156,4.999995));
#432 = DIRECTION('',(0.,-1.,2.22044604925E-16));
#433 = DIRECTION('',(1.,0.,0.));
#434 = FACE_BOUND('',#435,.F.);
#435 = EDGE_LOOP('',(#436));
#436 = ORIENTED_EDGE('',*,*,#437,.T.);
#437 = EDGE_CURVE('',#438,#438,#440,.T.);
#438 = VERTEX_POINT('',#439);
#439 = CARTESIAN_POINT('',(1.65,-56.00003846156,4.999951));
#440 = CIRCLE('',#441,1.65);
#441 = AXIS2_PLACEMENT_3D('',#442,#443,#444);
#442 = CARTESIAN_POINT('',(0.,-56.00003846156,4.999951));
#443 = DIRECTION('',(0.,-1.,2.22044604925E-16));
#444 = DIRECTION('',(1.,0.,0.));
#445 = PLANE('',#446);
#446 = AXIS2_PLACEMENT_3D('',#447,#448,#449);
#447 = CARTESIAN_POINT('',(-58.012798,-56.00003846156,0.));
#448 = DIRECTION('',(0.,1.,0.));
#449 = DIRECTION('',(1.,0.,0.));
#450 = ADVANCED_FACE('',(#451),#470,.F.);
#451 = FACE_BOUND('',#452,.F.);
#452 = EDGE_LOOP('',(#453,#461,#468,#469));
#453 = ORIENTED_EDGE('',*,*,#454,.T.);
#454 = EDGE_CURVE('',#56,#455,#457,.T.);
#455 = VERTEX_POINT('',#456);
#456 = CARTESIAN_POINT('',(-43.012798,28.349998,4.999998));
#457 = LINE('',#458,#459);
#458 = CARTESIAN_POINT('',(-58.012798,28.349998,4.999998));
#459 = VECTOR('',#460,1.);
#460 = DIRECTION('',(1.,0.,0.));
#461 = ORIENTED_EDGE('',*,*,#462,.T.);
#462 = EDGE_CURVE('',#455,#455,#463,.T.);
#463 = CIRCLE('',#464,1.65);
#464 = AXIS2_PLACEMENT_3D('',#465,#466,#467);
#465 = CARTESIAN_POINT('',(-43.012798,29.999998,4.999998));
#466 = DIRECTION('',(-1.,0.,0.));
#467 = DIRECTION('',(0.,-1.,0.));
#468 = ORIENTED_EDGE('',*,*,#454,.F.);
#469 = ORIENTED_EDGE('',*,*,#55,.F.);
#470 = CYLINDRICAL_SURFACE('',#471,1.65);
#471 = AXIS2_PLACEMENT_3D('',#472,#473,#474);
#472 = CARTESIAN_POINT('',(-58.012798,29.999998,4.999998));
#473 = DIRECTION('',(-1.,0.,0.));
#474 = DIRECTION('',(0.,-1.,0.));
#475 = ADVANCED_FACE('',(#476),#495,.F.);
#476 = FACE_BOUND('',#477,.F.);
#477 = EDGE_LOOP('',(#478,#486,#493,#494));
#478 = ORIENTED_EDGE('',*,*,#479,.T.);
#479 = EDGE_CURVE('',#67,#480,#482,.T.);
#480 = VERTEX_POINT('',#481);
#481 = CARTESIAN_POINT('',(-43.012798,-31.64999,4.999971));
#482 = LINE('',#483,#484);
#483 = CARTESIAN_POINT('',(-58.012798,-31.64999,4.999971));
#484 = VECTOR('',#485,1.);
#485 = DIRECTION('',(1.,0.,0.));
#486 = ORIENTED_EDGE('',*,*,#487,.T.);
#487 = EDGE_CURVE('',#480,#480,#488,.T.);
#488 = CIRCLE('',#489,1.65);
#489 = AXIS2_PLACEMENT_3D('',#490,#491,#492);
#490 = CARTESIAN_POINT('',(-43.012798,-29.99999,4.999971));
#491 = DIRECTION('',(-1.,0.,0.));
#492 = DIRECTION('',(0.,-1.,0.));
#493 = ORIENTED_EDGE('',*,*,#479,.F.);
#494 = ORIENTED_EDGE('',*,*,#66,.F.);
#495 = CYLINDRICAL_SURFACE('',#496,1.65);
#496 = AXIS2_PLACEMENT_3D('',#497,#498,#499);
#497 = CARTESIAN_POINT('',(-58.012798,-29.99999,4.999971));
#498 = DIRECTION('',(-1.,0.,0.));
#499 = DIRECTION('',(0.,-1.,0.));
#500 = ADVANCED_FACE('',(#501),#520,.F.);
#501 = FACE_BOUND('',#502,.F.);
#502 = EDGE_LOOP('',(#503,#511,#518,#519));
#503 = ORIENTED_EDGE('',*,*,#504,.T.);
#504 = EDGE_CURVE('',#78,#505,#507,.T.);
#505 = VERTEX_POINT('',#506);
#506 = CARTESIAN_POINT('',(-43.012798,-1.65,4.99991));
#507 = LINE('',#508,#509);
#508 = CARTESIAN_POINT('',(-58.012798,-1.65,4.99991));
#509 = VECTOR('',#510,1.);
#510 = DIRECTION('',(1.,0.,0.));
#511 = ORIENTED_EDGE('',*,*,#512,.T.);
#512 = EDGE_CURVE('',#505,#505,#513,.T.);
#513 = CIRCLE('',#514,1.65);
#514 = AXIS2_PLACEMENT_3D('',#515,#516,#517);
#515 = CARTESIAN_POINT('',(-43.012798,0.,4.99991));
#516 = DIRECTION('',(-1.,0.,0.));
#517 = DIRECTION('',(0.,-1.,0.));
#518 = ORIENTED_EDGE('',*,*,#504,.F.);
#519 = ORIENTED_EDGE('',*,*,#77,.F.);
#520 = CYLINDRICAL_SURFACE('',#521,1.65);
#521 = AXIS2_PLACEMENT_3D('',#522,#523,#524);
#522 = CARTESIAN_POINT('',(-58.012798,0.,4.99991));
#523 = DIRECTION('',(-1.,0.,0.));
#524 = DIRECTION('',(0.,-1.,0.));
#525 = ADVANCED_FACE('',(#526,#532,#543,#554),#565,.F.);
#526 = FACE_BOUND('',#527,.F.);
#527 = EDGE_LOOP('',(#528,#529,#530,#531));
#528 = ORIENTED_EDGE('',*,*,#406,.T.);
#529 = ORIENTED_EDGE('',*,*,#257,.T.);
#530 = ORIENTED_EDGE('',*,*,#94,.F.);
#531 = ORIENTED_EDGE('',*,*,#167,.F.);
#532 = FACE_BOUND('',#533,.F.);
#533 = EDGE_LOOP('',(#534));
#534 = ORIENTED_EDGE('',*,*,#535,.T.);
#535 = EDGE_CURVE('',#536,#536,#538,.T.);
#536 = VERTEX_POINT('',#537);
#537 = CARTESIAN_POINT('',(57.987202,-28.35,5.));
#538 = CIRCLE('',#539,1.65);
#539 = AXIS2_PLACEMENT_3D('',#540,#541,#542);
#540 = CARTESIAN_POINT('',(57.987202,-30.,5.));
#541 = DIRECTION('',(1.,4.930380657631E-32,2.22044604925E-16));
#542 = DIRECTION('',(0.,1.,-2.22044604925E-16));
#543 = FACE_BOUND('',#544,.F.);
#544 = EDGE_LOOP('',(#545));
#545 = ORIENTED_EDGE('',*,*,#546,.T.);
#546 = EDGE_CURVE('',#547,#547,#549,.T.);
#547 = VERTEX_POINT('',#548);
#548 = CARTESIAN_POINT('',(57.987202,1.65,5.));
#549 = CIRCLE('',#550,1.65);
#550 = AXIS2_PLACEMENT_3D('',#551,#552,#553);
#551 = CARTESIAN_POINT('',(57.987202,1.110223024625E-15,5.));
#552 = DIRECTION('',(1.,4.930380657631E-32,2.22044604925E-16));
#553 = DIRECTION('',(0.,1.,-2.22044604925E-16));
#554 = FACE_BOUND('',#555,.F.);
#555 = EDGE_LOOP('',(#556));
#556 = ORIENTED_EDGE('',*,*,#557,.T.);
#557 = EDGE_CURVE('',#558,#558,#560,.T.);
#558 = VERTEX_POINT('',#559);
#559 = CARTESIAN_POINT('',(57.987202,31.65,5.));
#560 = CIRCLE('',#561,1.65);
#561 = AXIS2_PLACEMENT_3D('',#562,#563,#564);
#562 = CARTESIAN_POINT('',(57.987202,30.,5.));
#563 = DIRECTION('',(1.,4.930380657631E-32,2.22044604925E-16));
#564 = DIRECTION('',(0.,1.,-2.22044604925E-16));
#565 = PLANE('',#566);
#566 = AXIS2_PLACEMENT_3D('',#567,#568,#569);
#567 = CARTESIAN_POINT('',(57.987202,-56.00003846156,0.));
#568 = DIRECTION('',(-1.,0.,0.));
#569 = DIRECTION('',(0.,1.,0.));
#570 = ADVANCED_FACE('',(#571),#590,.F.);
#571 = FACE_BOUND('',#572,.F.);
#572 = EDGE_LOOP('',(#573,#581,#588,#589));
#573 = ORIENTED_EDGE('',*,*,#574,.T.);
#574 = EDGE_CURVE('',#120,#575,#577,.T.);
#575 = VERTEX_POINT('',#576);
#576 = CARTESIAN_POINT('',(28.35,45.999961538433,5.));
#577 = LINE('',#578,#579);
#578 = CARTESIAN_POINT('',(28.35,60.999961538433,5.));
#579 = VECTOR('',#580,1.);
#580 = DIRECTION('',(0.,-1.,2.22044604925E-16));
#581 = ORIENTED_EDGE('',*,*,#582,.T.);
#582 = EDGE_CURVE('',#575,#575,#583,.T.);
#583 = CIRCLE('',#584,1.65);
#584 = AXIS2_PLACEMENT_3D('',#585,#586,#587);
#585 = CARTESIAN_POINT('',(30.,45.999961538433,5.));
#586 = DIRECTION('',(0.,1.,-2.22044604925E-16));
#587 = DIRECTION('',(-1.,0.,0.));
#588 = ORIENTED_EDGE('',*,*,#574,.F.);
#589 = ORIENTED_EDGE('',*,*,#119,.F.);
#590 = CYLINDRICAL_SURFACE('',#591,1.65);
#591 = AXIS2_PLACEMENT_3D('',#592,#593,#594);
#592 = CARTESIAN_POINT('',(30.,60.999961538433,5.));
#593 = DIRECTION('',(0.,1.,-2.22044604925E-16));
#594 = DIRECTION('',(-1.,0.,0.));
#595 = ADVANCED_FACE('',(#596),#615,.F.);
#596 = FACE_BOUND('',#597,.F.);
#597 = EDGE_LOOP('',(#598,#606,#613,#614));
#598 = ORIENTED_EDGE('',*,*,#599,.T.);
#599 = EDGE_CURVE('',#131,#600,#602,.T.);
#600 = VERTEX_POINT('',#601);
#601 = CARTESIAN_POINT('',(-1.65,45.999961538433,5.000001));
#602 = LINE('',#603,#604);
#603 = CARTESIAN_POINT('',(-1.65,60.999961538433,5.000001));
#604 = VECTOR('',#605,1.);
#605 = DIRECTION('',(0.,-1.,2.22044604925E-16));
#606 = ORIENTED_EDGE('',*,*,#607,.T.);
#607 = EDGE_CURVE('',#600,#600,#608,.T.);
#608 = CIRCLE('',#609,1.65);
#609 = AXIS2_PLACEMENT_3D('',#610,#611,#612);
#610 = CARTESIAN_POINT('',(0.,45.999961538433,5.000001));
#611 = DIRECTION('',(0.,1.,-2.22044604925E-16));
#612 = DIRECTION('',(-1.,0.,0.));
#613 = ORIENTED_EDGE('',*,*,#599,.F.);
#614 = ORIENTED_EDGE('',*,*,#130,.F.);
#615 = CYLINDRICAL_SURFACE('',#616,1.65);
#616 = AXIS2_PLACEMENT_3D('',#617,#618,#619);
#617 = CARTESIAN_POINT('',(0.,60.999961538433,5.000001));
#618 = DIRECTION('',(0.,1.,-2.22044604925E-16));
#619 = DIRECTION('',(-1.,0.,0.));
#620 = ADVANCED_FACE('',(#621),#640,.F.);
#621 = FACE_BOUND('',#622,.F.);
#622 = EDGE_LOOP('',(#623,#631,#638,#639));
#623 = ORIENTED_EDGE('',*,*,#624,.T.);
#624 = EDGE_CURVE('',#142,#625,#627,.T.);
#625 = VERTEX_POINT('',#626);
#626 = CARTESIAN_POINT('',(-31.650004,45.999961538433,4.999991));
#627 = LINE('',#628,#629);
#628 = CARTESIAN_POINT('',(-31.650004,60.999961538433,4.999991));
#629 = VECTOR('',#630,1.);
#630 = DIRECTION('',(0.,-1.,2.22044604925E-16));
#631 = ORIENTED_EDGE('',*,*,#632,.T.);
#632 = EDGE_CURVE('',#625,#625,#633,.T.);
#633 = CIRCLE('',#634,1.65);
#634 = AXIS2_PLACEMENT_3D('',#635,#636,#637);
#635 = CARTESIAN_POINT('',(-30.000004,45.999961538433,4.999991));
#636 = DIRECTION('',(0.,1.,-2.22044604925E-16));
#637 = DIRECTION('',(-1.,0.,0.));
#638 = ORIENTED_EDGE('',*,*,#624,.F.);
#639 = ORIENTED_EDGE('',*,*,#141,.F.);
#640 = CYLINDRICAL_SURFACE('',#641,1.65);
#641 = AXIS2_PLACEMENT_3D('',#642,#643,#644);
#642 = CARTESIAN_POINT('',(-30.000004,60.999961538433,4.999991));
#643 = DIRECTION('',(0.,1.,-2.22044604925E-16));
#644 = DIRECTION('',(-1.,0.,0.));
#645 = ADVANCED_FACE('',(#646),#665,.F.);
#646 = FACE_BOUND('',#647,.T.);
#647 = EDGE_LOOP('',(#648,#656,#657,#658));
#648 = ORIENTED_EDGE('',*,*,#649,.F.);
#649 = EDGE_CURVE('',#177,#650,#652,.T.);
#650 = VERTEX_POINT('',#651);
#651 = CARTESIAN_POINT('',(-42.500015,-7.999982,1.95));
#652 = LINE('',#653,#654);
#653 = CARTESIAN_POINT('',(-44.450015,-7.999982,0.));
#654 = VECTOR('',#655,1.);
#655 = DIRECTION('',(0.707106781187,0.,0.707106781187));
#656 = ORIENTED_EDGE('',*,*,#176,.T.);
#657 = ORIENTED_EDGE('',*,*,#649,.T.);
#658 = ORIENTED_EDGE('',*,*,#659,.F.);
#659 = EDGE_CURVE('',#650,#650,#660,.T.);
#660 = CIRCLE('',#661,1.5);
#661 = AXIS2_PLACEMENT_3D('',#662,#663,#664);
#662 = CARTESIAN_POINT('',(-41.000015,-7.999982,1.95));
#663 = DIRECTION('',(0.,0.,-1.));
#664 = DIRECTION('',(-1.,0.,0.));
#665 = CONICAL_SURFACE('',#666,3.45,0.785398163397);
#666 = AXIS2_PLACEMENT_3D('',#667,#668,#669);
#667 = CARTESIAN_POINT('',(-41.000015,-7.999982,0.));
#668 = DIRECTION('',(-0.,-0.,-1.));
#669 = DIRECTION('',(-1.,0.,0.));
#670 = ADVANCED_FACE('',(#671),#690,.F.);
#671 = FACE_BOUND('',#672,.F.);
#672 = EDGE_LOOP('',(#673,#681,#688,#689));
#673 = ORIENTED_EDGE('',*,*,#674,.T.);
#674 = EDGE_CURVE('',#188,#675,#677,.T.);
#675 = VERTEX_POINT('',#676);
#676 = CARTESIAN_POINT('',(36.5,0.,3.));
#677 = LINE('',#678,#679);
#678 = CARTESIAN_POINT('',(36.5,0.,0.));
#679 = VECTOR('',#680,1.);
#680 = DIRECTION('',(0.,0.,1.));
#681 = ORIENTED_EDGE('',*,*,#682,.T.);
#682 = EDGE_CURVE('',#675,#675,#683,.T.);
#683 = CIRCLE('',#684,36.5);
#684 = AXIS2_PLACEMENT_3D('',#685,#686,#687);
#685 = CARTESIAN_POINT('',(0.,0.,3.));
#686 = DIRECTION('',(0.,0.,-1.));
#687 = DIRECTION('',(1.,0.,0.));
#688 = ORIENTED_EDGE('',*,*,#674,.F.);
#689 = ORIENTED_EDGE('',*,*,#187,.F.);
#690 = CYLINDRICAL_SURFACE('',#691,36.5);
#691 = AXIS2_PLACEMENT_3D('',#692,#693,#694);
#692 = CARTESIAN_POINT('',(0.,0.,0.));
#693 = DIRECTION('',(0.,0.,-1.));
#694 = DIRECTION('',(1.,0.,0.));
#695 = ADVANCED_FACE('',(#696),#715,.F.);
#696 = FACE_BOUND('',#697,.T.);
#697 = EDGE_LOOP('',(#698,#706,#707,#708));
#698 = ORIENTED_EDGE('',*,*,#699,.F.);
#699 = EDGE_CURVE('',#199,#700,#702,.T.);
#700 = VERTEX_POINT('',#701);
#701 = CARTESIAN_POINT('',(48.5,-7.999997,1.95));
#702 = LINE('',#703,#704);
#703 = CARTESIAN_POINT('',(46.55,-7.999997,0.));
#704 = VECTOR('',#705,1.);
#705 = DIRECTION('',(0.707106781187,0.,0.707106781187));
#706 = ORIENTED_EDGE('',*,*,#198,.T.);
#707 = ORIENTED_EDGE('',*,*,#699,.T.);
#708 = ORIENTED_EDGE('',*,*,#709,.F.);
#709 = EDGE_CURVE('',#700,#700,#710,.T.);
#710 = CIRCLE('',#711,1.5);
#711 = AXIS2_PLACEMENT_3D('',#712,#713,#714);
#712 = CARTESIAN_POINT('',(50.,-7.999997,1.95));
#713 = DIRECTION('',(0.,0.,-1.));
#714 = DIRECTION('',(-1.,0.,0.));
#715 = CONICAL_SURFACE('',#716,3.45,0.785398163397);
#716 = AXIS2_PLACEMENT_3D('',#717,#718,#719);
#717 = CARTESIAN_POINT('',(50.,-7.999997,0.));
#718 = DIRECTION('',(-0.,-0.,-1.));
#719 = DIRECTION('',(-1.,0.,0.));
#720 = ADVANCED_FACE('',(#721),#740,.F.);
#721 = FACE_BOUND('',#722,.T.);
#722 = EDGE_LOOP('',(#723,#731,#732,#733));
#723 = ORIENTED_EDGE('',*,*,#724,.F.);
#724 = EDGE_CURVE('',#210,#725,#727,.T.);
#725 = VERTEX_POINT('',#726);
#726 = CARTESIAN_POINT('',(38.499954,10.000055,1.95));
#727 = LINE('',#728,#729);
#728 = CARTESIAN_POINT('',(36.549954,10.000055,0.));
#729 = VECTOR('',#730,1.);
#730 = DIRECTION('',(0.707106781187,0.,0.707106781187));
#731 = ORIENTED_EDGE('',*,*,#209,.T.);
#732 = ORIENTED_EDGE('',*,*,#724,.T.);
#733 = ORIENTED_EDGE('',*,*,#734,.F.);
#734 = EDGE_CURVE('',#725,#725,#735,.T.);
#735 = CIRCLE('',#736,1.5);
#736 = AXIS2_PLACEMENT_3D('',#737,#738,#739);
#737 = CARTESIAN_POINT('',(39.999954,10.000055,1.95));
#738 = DIRECTION('',(0.,0.,-1.));
#739 = DIRECTION('',(-1.,0.,0.));
#740 = CONICAL_SURFACE('',#741,3.45,0.785398163397);
#741 = AXIS2_PLACEMENT_3D('',#742,#743,#744);
#742 = CARTESIAN_POINT('',(39.999954,10.000055,0.));
#743 = DIRECTION('',(-0.,-0.,-1.));
#744 = DIRECTION('',(-1.,0.,0.));
#745 = ADVANCED_FACE('',(#746),#765,.F.);
#746 = FACE_BOUND('',#747,.T.);
#747 = EDGE_LOOP('',(#748,#756,#757,#758));
#748 = ORIENTED_EDGE('',*,*,#749,.F.);
#749 = EDGE_CURVE('',#221,#750,#752,.T.);
#750 = VERTEX_POINT('',#751);
#751 = CARTESIAN_POINT('',(8.499999,40.,1.95));
#752 = LINE('',#753,#754);
#753 = CARTESIAN_POINT('',(6.549999,40.,0.));
#754 = VECTOR('',#755,1.);
#755 = DIRECTION('',(0.707106781187,0.,0.707106781187));
#756 = ORIENTED_EDGE('',*,*,#220,.T.);
#757 = ORIENTED_EDGE('',*,*,#749,.T.);
#758 = ORIENTED_EDGE('',*,*,#759,.F.);
#759 = EDGE_CURVE('',#750,#750,#760,.T.);
#760 = CIRCLE('',#761,1.5);
#761 = AXIS2_PLACEMENT_3D('',#762,#763,#764);
#762 = CARTESIAN_POINT('',(9.999999,40.,1.95));
#763 = DIRECTION('',(0.,0.,-1.));
#764 = DIRECTION('',(-1.,0.,0.));
#765 = CONICAL_SURFACE('',#766,3.45,0.785398163397);
#766 = AXIS2_PLACEMENT_3D('',#767,#768,#769);
#767 = CARTESIAN_POINT('',(9.999999,40.,0.));
#768 = DIRECTION('',(-0.,-0.,-1.));
#769 = DIRECTION('',(-1.,0.,0.));
#770 = ADVANCED_FACE('',(#771),#790,.F.);
#771 = FACE_BOUND('',#772,.T.);
#772 = EDGE_LOOP('',(#773,#781,#782,#783));
#773 = ORIENTED_EDGE('',*,*,#774,.F.);
#774 = EDGE_CURVE('',#232,#775,#777,.T.);
#775 = VERTEX_POINT('',#776);
#776 = CARTESIAN_POINT('',(38.5,50.,1.95));
#777 = LINE('',#778,#779);
#778 = CARTESIAN_POINT('',(36.55,50.,0.));
#779 = VECTOR('',#780,1.);
#780 = DIRECTION('',(0.707106781187,0.,0.707106781187));
#781 = ORIENTED_EDGE('',*,*,#231,.T.);
#782 = ORIENTED_EDGE('',*,*,#774,.T.);
#783 = ORIENTED_EDGE('',*,*,#784,.F.);
#784 = EDGE_CURVE('',#775,#775,#785,.T.);
#785 = CIRCLE('',#786,1.5);
#786 = AXIS2_PLACEMENT_3D('',#787,#788,#789);
#787 = CARTESIAN_POINT('',(40.,50.,1.95));
#788 = DIRECTION('',(0.,0.,-1.));
#789 = DIRECTION('',(-1.,0.,0.));
#790 = CONICAL_SURFACE('',#791,3.45,0.785398163397);
#791 = AXIS2_PLACEMENT_3D('',#792,#793,#794);
#792 = CARTESIAN_POINT('',(40.,50.,0.));
#793 = DIRECTION('',(-0.,-0.,-1.));
#794 = DIRECTION('',(-1.,0.,0.));
#795 = ADVANCED_FACE('',(#796),#815,.F.);
#796 = FACE_BOUND('',#797,.T.);
#797 = EDGE_LOOP('',(#798,#806,#813,#814));
#798 = ORIENTED_EDGE('',*,*,#799,.F.);
#799 = EDGE_CURVE('',#800,#267,#802,.T.);
#800 = VERTEX_POINT('',#801);
#801 = CARTESIAN_POINT('',(-29.17082562299,-14.47464792224,3.));
#802 = LINE('',#803,#804);
#803 = CARTESIAN_POINT('',(-29.17082562299,-14.47464792224,3.));
#804 = VECTOR('',#805,1.);
#805 = DIRECTION('',(3.063396992051E-17,-5.305959233986E-17,1.));
#806 = ORIENTED_EDGE('',*,*,#807,.T.);
#807 = EDGE_CURVE('',#800,#800,#808,.T.);
#808 = CIRCLE('',#809,2.05);
#809 = AXIS2_PLACEMENT_3D('',#810,#811,#812);
#810 = CARTESIAN_POINT('',(-28.14582562299,-16.25,3.));
#811 = DIRECTION('',(0.,0.,-1.));
#812 = DIRECTION('',(-0.5,0.866025403784,0.));
#813 = ORIENTED_EDGE('',*,*,#799,.T.);
#814 = ORIENTED_EDGE('',*,*,#266,.T.);
#815 = CYLINDRICAL_SURFACE('',#816,2.05);
#816 = AXIS2_PLACEMENT_3D('',#817,#818,#819);
#817 = CARTESIAN_POINT('',(-28.14582562299,-16.25,3.));
#818 = DIRECTION('',(0.,0.,1.));
#819 = DIRECTION('',(-0.5,0.866025403784,0.));
#820 = ADVANCED_FACE('',(#821),#840,.F.);
#821 = FACE_BOUND('',#822,.T.);
#822 = EDGE_LOOP('',(#823,#831,#838,#839));
#823 = ORIENTED_EDGE('',*,*,#824,.F.);
#824 = EDGE_CURVE('',#825,#278,#827,.T.);
#825 = VERTEX_POINT('',#826);
#826 = CARTESIAN_POINT('',(-2.05,-32.5,3.));
#827 = LINE('',#828,#829);
#828 = CARTESIAN_POINT('',(-2.05,-32.5,3.));
#829 = VECTOR('',#830,1.);
#830 = DIRECTION('',(6.126793984102E-17,0.,1.));
#831 = ORIENTED_EDGE('',*,*,#832,.T.);
#832 = EDGE_CURVE('',#825,#825,#833,.T.);
#833 = CIRCLE('',#834,2.05);
#834 = AXIS2_PLACEMENT_3D('',#835,#836,#837);
#835 = CARTESIAN_POINT('',(0.,-32.5,3.));
#836 = DIRECTION('',(0.,0.,-1.));
#837 = DIRECTION('',(-1.,0.,0.));
#838 = ORIENTED_EDGE('',*,*,#824,.T.);
#839 = ORIENTED_EDGE('',*,*,#277,.T.);
#840 = CYLINDRICAL_SURFACE('',#841,2.05);
#841 = AXIS2_PLACEMENT_3D('',#842,#843,#844);
#842 = CARTESIAN_POINT('',(0.,-32.5,3.));
#843 = DIRECTION('',(0.,0.,1.));
#844 = DIRECTION('',(-1.,0.,0.));
#845 = ADVANCED_FACE('',(#846),#857,.F.);
#846 = FACE_BOUND('',#847,.T.);
#847 = EDGE_LOOP('',(#848,#854,#855,#856));
#848 = ORIENTED_EDGE('',*,*,#849,.F.);
#849 = EDGE_CURVE('',#650,#289,#850,.T.);
#850 = LINE('',#851,#852);
#851 = CARTESIAN_POINT('',(-42.500015,-7.999982,1.95));
#852 = VECTOR('',#853,1.);
#853 = DIRECTION('',(6.095849591239E-17,0.,1.));
#854 = ORIENTED_EDGE('',*,*,#659,.T.);
#855 = ORIENTED_EDGE('',*,*,#849,.T.);
#856 = ORIENTED_EDGE('',*,*,#288,.T.);
#857 = CYLINDRICAL_SURFACE('',#858,1.5);
#858 = AXIS2_PLACEMENT_3D('',#859,#860,#861);
#859 = CARTESIAN_POINT('',(-41.000015,-7.999982,1.95));
#860 = DIRECTION('',(0.,0.,1.));
#861 = DIRECTION('',(-1.,0.,0.));
#862 = ADVANCED_FACE('',(#863),#882,.F.);
#863 = FACE_BOUND('',#864,.T.);
#864 = EDGE_LOOP('',(#865,#874,#880,#881));
#865 = ORIENTED_EDGE('',*,*,#866,.T.);
#866 = EDGE_CURVE('',#867,#867,#869,.T.);
#867 = VERTEX_POINT('',#868);
#868 = CARTESIAN_POINT('',(7.,0.,6.));
#869 = CIRCLE('',#870,7.);
#870 = AXIS2_PLACEMENT_3D('',#871,#872,#873);
#871 = CARTESIAN_POINT('',(0.,0.,6.));
#872 = DIRECTION('',(0.,0.,-1.));
#873 = DIRECTION('',(1.,0.,0.));
#874 = ORIENTED_EDGE('',*,*,#875,.T.);
#875 = EDGE_CURVE('',#867,#300,#876,.T.);
#876 = LINE('',#877,#878);
#877 = CARTESIAN_POINT('',(7.,0.,0.));
#878 = VECTOR('',#879,1.);
#879 = DIRECTION('',(0.,0.,1.));
#880 = ORIENTED_EDGE('',*,*,#299,.T.);
#881 = ORIENTED_EDGE('',*,*,#875,.F.);
#882 = CYLINDRICAL_SURFACE('',#883,7.);
#883 = AXIS2_PLACEMENT_3D('',#884,#885,#886);
#884 = CARTESIAN_POINT('',(0.,0.,0.));
#885 = DIRECTION('',(-0.,-0.,-1.));
#886 = DIRECTION('',(1.,0.,0.));
#887 = ADVANCED_FACE('',(#888),#907,.F.);
#888 = FACE_BOUND('',#889,.T.);
#889 = EDGE_LOOP('',(#890,#898,#905,#906));
#890 = ORIENTED_EDGE('',*,*,#891,.F.);
#891 = EDGE_CURVE('',#892,#311,#894,.T.);
#892 = VERTEX_POINT('',#893);
#893 = CARTESIAN_POINT('',(27.120825622994,-18.02535207775,3.));
#894 = LINE('',#895,#896);
#895 = CARTESIAN_POINT('',(27.120825622994,-18.02535207775,3.));
#896 = VECTOR('',#897,1.);
#897 = DIRECTION('',(3.063396992051E-17,5.305959233986E-17,1.));
#898 = ORIENTED_EDGE('',*,*,#899,.T.);
#899 = EDGE_CURVE('',#892,#892,#900,.T.);
#900 = CIRCLE('',#901,2.05);
#901 = AXIS2_PLACEMENT_3D('',#902,#903,#904);
#902 = CARTESIAN_POINT('',(28.145825622994,-16.25,3.));
#903 = DIRECTION('',(-0.,0.,-1.));
#904 = DIRECTION('',(-0.5,-0.866025403784,0.));
#905 = ORIENTED_EDGE('',*,*,#891,.T.);
#906 = ORIENTED_EDGE('',*,*,#310,.T.);
#907 = CYLINDRICAL_SURFACE('',#908,2.05);
#908 = AXIS2_PLACEMENT_3D('',#909,#910,#911);
#909 = CARTESIAN_POINT('',(28.145825622994,-16.25,3.));
#910 = DIRECTION('',(0.,0.,1.));
#911 = DIRECTION('',(-0.5,-0.866025403784,0.));
#912 = ADVANCED_FACE('',(#913),#924,.F.);
#913 = FACE_BOUND('',#914,.T.);
#914 = EDGE_LOOP('',(#915,#921,#922,#923));
#915 = ORIENTED_EDGE('',*,*,#916,.F.);
#916 = EDGE_CURVE('',#700,#322,#917,.T.);
#917 = LINE('',#918,#919);
#918 = CARTESIAN_POINT('',(48.5,-7.999997,1.95));
#919 = VECTOR('',#920,1.);
#920 = DIRECTION('',(6.095849591239E-17,0.,1.));
#921 = ORIENTED_EDGE('',*,*,#709,.T.);
#922 = ORIENTED_EDGE('',*,*,#916,.T.);
#923 = ORIENTED_EDGE('',*,*,#321,.T.);
#924 = CYLINDRICAL_SURFACE('',#925,1.5);
#925 = AXIS2_PLACEMENT_3D('',#926,#927,#928);
#926 = CARTESIAN_POINT('',(50.,-7.999997,1.95));
#927 = DIRECTION('',(0.,0.,1.));
#928 = DIRECTION('',(-1.,0.,0.));
#929 = ADVANCED_FACE('',(#930),#949,.F.);
#930 = FACE_BOUND('',#931,.T.);
#931 = EDGE_LOOP('',(#932,#940,#947,#948));
#932 = ORIENTED_EDGE('',*,*,#933,.F.);
#933 = EDGE_CURVE('',#934,#333,#936,.T.);
#934 = VERTEX_POINT('',#935);
#935 = CARTESIAN_POINT('',(-27.12082562299,18.025352077758,3.));
#936 = LINE('',#937,#938);
#937 = CARTESIAN_POINT('',(-27.12082562299,18.025352077758,3.));
#938 = VECTOR('',#939,1.);
#939 = DIRECTION('',(-3.063396992051E-17,-5.305959233986E-17,1.));
#940 = ORIENTED_EDGE('',*,*,#941,.T.);
#941 = EDGE_CURVE('',#934,#934,#942,.T.);
#942 = CIRCLE('',#943,2.05);
#943 = AXIS2_PLACEMENT_3D('',#944,#945,#946);
#944 = CARTESIAN_POINT('',(-28.14582562299,16.25,3.));
#945 = DIRECTION('',(0.,0.,-1.));
#946 = DIRECTION('',(0.5,0.866025403784,0.));
#947 = ORIENTED_EDGE('',*,*,#933,.T.);
#948 = ORIENTED_EDGE('',*,*,#332,.T.);
#949 = CYLINDRICAL_SURFACE('',#950,2.05);
#950 = AXIS2_PLACEMENT_3D('',#951,#952,#953);
#951 = CARTESIAN_POINT('',(-28.14582562299,16.25,3.));
#952 = DIRECTION('',(0.,0.,1.));
#953 = DIRECTION('',(0.5,0.866025403784,0.));
#954 = ADVANCED_FACE('',(#955),#974,.F.);
#955 = FACE_BOUND('',#956,.T.);
#956 = EDGE_LOOP('',(#957,#965,#972,#973));
#957 = ORIENTED_EDGE('',*,*,#958,.F.);
#958 = EDGE_CURVE('',#959,#344,#961,.T.);
#959 = VERTEX_POINT('',#960);
#960 = CARTESIAN_POINT('',(2.05,32.5,3.));
#961 = LINE('',#962,#963);
#962 = CARTESIAN_POINT('',(2.05,32.5,3.));
#963 = VECTOR('',#964,1.);
#964 = DIRECTION('',(-6.126793984102E-17,-7.503158641666E-33,1.));
#965 = ORIENTED_EDGE('',*,*,#966,.T.);
#966 = EDGE_CURVE('',#959,#959,#967,.T.);
#967 = CIRCLE('',#968,2.05);
#968 = AXIS2_PLACEMENT_3D('',#969,#970,#971);
#969 = CARTESIAN_POINT('',(-3.980102097229E-15,32.5,3.));
#970 = DIRECTION('',(0.,0.,-1.));
#971 = DIRECTION('',(1.,1.224646799147E-16,0.));
#972 = ORIENTED_EDGE('',*,*,#958,.T.);
#973 = ORIENTED_EDGE('',*,*,#343,.T.);
#974 = CYLINDRICAL_SURFACE('',#975,2.05);
#975 = AXIS2_PLACEMENT_3D('',#976,#977,#978);
#976 = CARTESIAN_POINT('',(-3.980102097229E-15,32.5,3.));
#977 = DIRECTION('',(0.,0.,1.));
#978 = DIRECTION('',(1.,1.224646799147E-16,0.));
#979 = ADVANCED_FACE('',(#980),#999,.F.);
#980 = FACE_BOUND('',#981,.T.);
#981 = EDGE_LOOP('',(#982,#990,#997,#998));
#982 = ORIENTED_EDGE('',*,*,#983,.F.);
#983 = EDGE_CURVE('',#984,#355,#986,.T.);
#984 = VERTEX_POINT('',#985);
#985 = CARTESIAN_POINT('',(29.170825622994,14.474647922242,3.));
#986 = LINE('',#987,#988);
#987 = CARTESIAN_POINT('',(29.170825622994,14.474647922242,3.));
#988 = VECTOR('',#989,1.);
#989 = DIRECTION('',(-3.063396992051E-17,5.305959233986E-17,1.));
#990 = ORIENTED_EDGE('',*,*,#991,.T.);
#991 = EDGE_CURVE('',#984,#984,#992,.T.);
#992 = CIRCLE('',#993,2.05);
#993 = AXIS2_PLACEMENT_3D('',#994,#995,#996);
#994 = CARTESIAN_POINT('',(28.145825622994,16.25,3.));
#995 = DIRECTION('',(0.,-0.,-1.));
#996 = DIRECTION('',(0.5,-0.866025403784,0.));
#997 = ORIENTED_EDGE('',*,*,#983,.T.);
#998 = ORIENTED_EDGE('',*,*,#354,.T.);
#999 = CYLINDRICAL_SURFACE('',#1000,2.05);
#1000 = AXIS2_PLACEMENT_3D('',#1001,#1002,#1003);
#1001 = CARTESIAN_POINT('',(28.145825622994,16.25,3.));
#1002 = DIRECTION('',(0.,0.,1.));
#1003 = DIRECTION('',(0.5,-0.866025403784,0.));
#1004 = ADVANCED_FACE('',(#1005),#1016,.F.);
#1005 = FACE_BOUND('',#1006,.T.);
#1006 = EDGE_LOOP('',(#1007,#1013,#1014,#1015));
#1007 = ORIENTED_EDGE('',*,*,#1008,.F.);
#1008 = EDGE_CURVE('',#725,#366,#1009,.T.);
#1009 = LINE('',#1010,#1011);
#1010 = CARTESIAN_POINT('',(38.499954,10.000055,1.95));
#1011 = VECTOR('',#1012,1.);
#1012 = DIRECTION('',(6.095849591239E-17,0.,1.));
#1013 = ORIENTED_EDGE('',*,*,#734,.T.);
#1014 = ORIENTED_EDGE('',*,*,#1008,.T.);
#1015 = ORIENTED_EDGE('',*,*,#365,.T.);
#1016 = CYLINDRICAL_SURFACE('',#1017,1.5);
#1017 = AXIS2_PLACEMENT_3D('',#1018,#1019,#1020);
#1018 = CARTESIAN_POINT('',(39.999954,10.000055,1.95));
#1019 = DIRECTION('',(0.,0.,1.));
#1020 = DIRECTION('',(-1.,0.,0.));
#1021 = ADVANCED_FACE('',(#1022),#1033,.F.);
#1022 = FACE_BOUND('',#1023,.T.);
#1023 = EDGE_LOOP('',(#1024,#1030,#1031,#1032));
#1024 = ORIENTED_EDGE('',*,*,#1025,.F.);
#1025 = EDGE_CURVE('',#750,#377,#1026,.T.);
#1026 = LINE('',#1027,#1028);
#1027 = CARTESIAN_POINT('',(8.499999,40.,1.95));
#1028 = VECTOR('',#1029,1.);
#1029 = DIRECTION('',(6.095849591239E-17,0.,1.));
#1030 = ORIENTED_EDGE('',*,*,#759,.T.);
#1031 = ORIENTED_EDGE('',*,*,#1025,.T.);
#1032 = ORIENTED_EDGE('',*,*,#376,.T.);
#1033 = CYLINDRICAL_SURFACE('',#1034,1.5);
#1034 = AXIS2_PLACEMENT_3D('',#1035,#1036,#1037);
#1035 = CARTESIAN_POINT('',(9.999999,40.,1.95));
#1036 = DIRECTION('',(0.,0.,1.));
#1037 = DIRECTION('',(-1.,0.,0.));
#1038 = ADVANCED_FACE('',(#1039),#1050,.F.);
#1039 = FACE_BOUND('',#1040,.T.);
#1040 = EDGE_LOOP('',(#1041,#1047,#1048,#1049));
#1041 = ORIENTED_EDGE('',*,*,#1042,.F.);
#1042 = EDGE_CURVE('',#775,#388,#1043,.T.);
#1043 = LINE('',#1044,#1045);
#1044 = CARTESIAN_POINT('',(38.5,50.,1.95));
#1045 = VECTOR('',#1046,1.);
#1046 = DIRECTION('',(6.095849591239E-17,0.,1.));
#1047 = ORIENTED_EDGE('',*,*,#784,.T.);
#1048 = ORIENTED_EDGE('',*,*,#1042,.T.);
#1049 = ORIENTED_EDGE('',*,*,#387,.T.);
#1050 = CYLINDRICAL_SURFACE('',#1051,1.5);
#1051 = AXIS2_PLACEMENT_3D('',#1052,#1053,#1054);
#1052 = CARTESIAN_POINT('',(40.,50.,1.95));
#1053 = DIRECTION('',(0.,0.,1.));
#1054 = DIRECTION('',(-1.,0.,0.));
#1055 = ADVANCED_FACE('',(#1056),#1075,.F.);
#1056 = FACE_BOUND('',#1057,.F.);
#1057 = EDGE_LOOP('',(#1058,#1066,#1073,#1074));
#1058 = ORIENTED_EDGE('',*,*,#1059,.T.);
#1059 = EDGE_CURVE('',#416,#1060,#1062,.T.);
#1060 = VERTEX_POINT('',#1061);
#1061 = CARTESIAN_POINT('',(-28.350011,-41.00003846156,4.999995));
#1062 = LINE('',#1063,#1064);
#1063 = CARTESIAN_POINT('',(-28.350011,-56.00003846156,4.999995));
#1064 = VECTOR('',#1065,1.);
#1065 = DIRECTION('',(0.,1.,-2.22044604925E-16));
#1066 = ORIENTED_EDGE('',*,*,#1067,.T.);
#1067 = EDGE_CURVE('',#1060,#1060,#1068,.T.);
#1068 = CIRCLE('',#1069,1.65);
#1069 = AXIS2_PLACEMENT_3D('',#1070,#1071,#1072);
#1070 = CARTESIAN_POINT('',(-30.000011,-41.00003846156,4.999995));
#1071 = DIRECTION('',(0.,-1.,2.22044604925E-16));
#1072 = DIRECTION('',(1.,0.,0.));
#1073 = ORIENTED_EDGE('',*,*,#1059,.F.);
#1074 = ORIENTED_EDGE('',*,*,#415,.F.);
#1075 = CYLINDRICAL_SURFACE('',#1076,1.65);
#1076 = AXIS2_PLACEMENT_3D('',#1077,#1078,#1079);
#1077 = CARTESIAN_POINT('',(-30.000011,-56.00003846156,4.999995));
#1078 = DIRECTION('',(0.,-1.,2.22044604925E-16));
#1079 = DIRECTION('',(1.,0.,0.));
#1080 = ADVANCED_FACE('',(#1081),#1100,.F.);
#1081 = FACE_BOUND('',#1082,.F.);
#1082 = EDGE_LOOP('',(#1083,#1091,#1098,#1099));
#1083 = ORIENTED_EDGE('',*,*,#1084,.T.);
#1084 = EDGE_CURVE('',#427,#1085,#1087,.T.);
#1085 = VERTEX_POINT('',#1086);
#1086 = CARTESIAN_POINT('',(31.650002,-41.00003846156,4.999995));
#1087 = LINE('',#1088,#1089);
#1088 = CARTESIAN_POINT('',(31.650002,-56.00003846156,4.999995));
#1089 = VECTOR('',#1090,1.);
#1090 = DIRECTION('',(0.,1.,-2.22044604925E-16));
#1091 = ORIENTED_EDGE('',*,*,#1092,.T.);
#1092 = EDGE_CURVE('',#1085,#1085,#1093,.T.);
#1093 = CIRCLE('',#1094,1.65);
#1094 = AXIS2_PLACEMENT_3D('',#1095,#1096,#1097);
#1095 = CARTESIAN_POINT('',(30.000002,-41.00003846156,4.999995));
#1096 = DIRECTION('',(0.,-1.,2.22044604925E-16));
#1097 = DIRECTION('',(1.,0.,0.));
#1098 = ORIENTED_EDGE('',*,*,#1084,.F.);
#1099 = ORIENTED_EDGE('',*,*,#426,.F.);
#1100 = CYLINDRICAL_SURFACE('',#1101,1.65);
#1101 = AXIS2_PLACEMENT_3D('',#1102,#1103,#1104);
#1102 = CARTESIAN_POINT('',(30.000002,-56.00003846156,4.999995));
#1103 = DIRECTION('',(0.,-1.,2.22044604925E-16));
#1104 = DIRECTION('',(1.,0.,0.));
#1105 = ADVANCED_FACE('',(#1106),#1125,.F.);
#1106 = FACE_BOUND('',#1107,.F.);
#1107 = EDGE_LOOP('',(#1108,#1116,#1123,#1124));
#1108 = ORIENTED_EDGE('',*,*,#1109,.T.);
#1109 = EDGE_CURVE('',#438,#1110,#1112,.T.);
#1110 = VERTEX_POINT('',#1111);
#1111 = CARTESIAN_POINT('',(1.65,-41.00003846156,4.999951));
#1112 = LINE('',#1113,#1114);
#1113 = CARTESIAN_POINT('',(1.65,-56.00003846156,4.999951));
#1114 = VECTOR('',#1115,1.);
#1115 = DIRECTION('',(0.,1.,-2.22044604925E-16));
#1116 = ORIENTED_EDGE('',*,*,#1117,.T.);
#1117 = EDGE_CURVE('',#1110,#1110,#1118,.T.);
#1118 = CIRCLE('',#1119,1.65);
#1119 = AXIS2_PLACEMENT_3D('',#1120,#1121,#1122);
#1120 = CARTESIAN_POINT('',(0.,-41.00003846156,4.999951));
#1121 = DIRECTION('',(0.,-1.,2.22044604925E-16));
#1122 = DIRECTION('',(1.,0.,0.));
#1123 = ORIENTED_EDGE('',*,*,#1109,.F.);
#1124 = ORIENTED_EDGE('',*,*,#437,.F.);
#1125 = CYLINDRICAL_SURFACE('',#1126,1.65);
#1126 = AXIS2_PLACEMENT_3D('',#1127,#1128,#1129);
#1127 = CARTESIAN_POINT('',(0.,-56.00003846156,4.999951));
#1128 = DIRECTION('',(0.,-1.,2.22044604925E-16));
#1129 = DIRECTION('',(1.,0.,0.));
#1130 = ADVANCED_FACE('',(#1131),#1134,.F.);
#1131 = FACE_BOUND('',#1132,.T.);
#1132 = EDGE_LOOP('',(#1133));
#1133 = ORIENTED_EDGE('',*,*,#462,.T.);
#1134 = PLANE('',#1135);
#1135 = AXIS2_PLACEMENT_3D('',#1136,#1137,#1138);
#1136 = CARTESIAN_POINT('',(-43.012798,2.666666667137E-06,4.999959666667
    ));
#1137 = DIRECTION('',(1.,0.,0.));
#1138 = DIRECTION('',(0.,0.,1.));
#1139 = ADVANCED_FACE('',(#1140),#1143,.F.);
#1140 = FACE_BOUND('',#1141,.T.);
#1141 = EDGE_LOOP('',(#1142));
#1142 = ORIENTED_EDGE('',*,*,#487,.T.);
#1143 = PLANE('',#1144);
#1144 = AXIS2_PLACEMENT_3D('',#1145,#1146,#1147);
#1145 = CARTESIAN_POINT('',(-43.012798,2.666666667137E-06,4.999959666667
    ));
#1146 = DIRECTION('',(1.,0.,0.));
#1147 = DIRECTION('',(0.,0.,1.));
#1148 = ADVANCED_FACE('',(#1149),#1152,.F.);
#1149 = FACE_BOUND('',#1150,.T.);
#1150 = EDGE_LOOP('',(#1151));
#1151 = ORIENTED_EDGE('',*,*,#512,.T.);
#1152 = PLANE('',#1153);
#1153 = AXIS2_PLACEMENT_3D('',#1154,#1155,#1156);
#1154 = CARTESIAN_POINT('',(-43.012798,2.666666667137E-06,4.999959666667
    ));
#1155 = DIRECTION('',(1.,0.,0.));
#1156 = DIRECTION('',(0.,0.,1.));
#1157 = ADVANCED_FACE('',(#1158),#1177,.F.);
#1158 = FACE_BOUND('',#1159,.F.);
#1159 = EDGE_LOOP('',(#1160,#1161,#1169,#1176));
#1160 = ORIENTED_EDGE('',*,*,#535,.F.);
#1161 = ORIENTED_EDGE('',*,*,#1162,.T.);
#1162 = EDGE_CURVE('',#536,#1163,#1165,.T.);
#1163 = VERTEX_POINT('',#1164);
#1164 = CARTESIAN_POINT('',(43.,-28.35,5.));
#1165 = LINE('',#1166,#1167);
#1166 = CARTESIAN_POINT('',(58.,-28.35,5.));
#1167 = VECTOR('',#1168,1.);
#1168 = DIRECTION('',(-1.,1.110223024625E-16,-1.665334536938E-16));
#1169 = ORIENTED_EDGE('',*,*,#1170,.T.);
#1170 = EDGE_CURVE('',#1163,#1163,#1171,.T.);
#1171 = CIRCLE('',#1172,1.65);
#1172 = AXIS2_PLACEMENT_3D('',#1173,#1174,#1175);
#1173 = CARTESIAN_POINT('',(43.,-30.,5.));
#1174 = DIRECTION('',(1.,4.930380657631E-32,2.22044604925E-16));
#1175 = DIRECTION('',(0.,1.,-2.22044604925E-16));
#1176 = ORIENTED_EDGE('',*,*,#1162,.F.);
#1177 = CYLINDRICAL_SURFACE('',#1178,1.65);
#1178 = AXIS2_PLACEMENT_3D('',#1179,#1180,#1181);
#1179 = CARTESIAN_POINT('',(58.,-30.,5.));
#1180 = DIRECTION('',(1.,4.930380657631E-32,2.22044604925E-16));
#1181 = DIRECTION('',(0.,1.,-2.22044604925E-16));
#1182 = ADVANCED_FACE('',(#1183),#1202,.F.);
#1183 = FACE_BOUND('',#1184,.F.);
#1184 = EDGE_LOOP('',(#1185,#1186,#1194,#1201));
#1185 = ORIENTED_EDGE('',*,*,#546,.F.);
#1186 = ORIENTED_EDGE('',*,*,#1187,.T.);
#1187 = EDGE_CURVE('',#547,#1188,#1190,.T.);
#1188 = VERTEX_POINT('',#1189);
#1189 = CARTESIAN_POINT('',(43.,1.65,5.));
#1190 = LINE('',#1191,#1192);
#1191 = CARTESIAN_POINT('',(58.,1.65,5.));
#1192 = VECTOR('',#1193,1.);
#1193 = DIRECTION('',(-1.,1.110223024625E-16,-1.665334536938E-16));
#1194 = ORIENTED_EDGE('',*,*,#1195,.T.);
#1195 = EDGE_CURVE('',#1188,#1188,#1196,.T.);
#1196 = CIRCLE('',#1197,1.65);
#1197 = AXIS2_PLACEMENT_3D('',#1198,#1199,#1200);
#1198 = CARTESIAN_POINT('',(43.,2.775557561563E-15,5.));
#1199 = DIRECTION('',(1.,4.930380657631E-32,2.22044604925E-16));
#1200 = DIRECTION('',(0.,1.,-2.22044604925E-16));
#1201 = ORIENTED_EDGE('',*,*,#1187,.F.);
#1202 = CYLINDRICAL_SURFACE('',#1203,1.65);
#1203 = AXIS2_PLACEMENT_3D('',#1204,#1205,#1206);
#1204 = CARTESIAN_POINT('',(58.,1.110223024625E-15,5.));
#1205 = DIRECTION('',(1.,4.930380657631E-32,2.22044604925E-16));
#1206 = DIRECTION('',(0.,1.,-2.22044604925E-16));
#1207 = ADVANCED_FACE('',(#1208),#1227,.F.);
#1208 = FACE_BOUND('',#1209,.F.);
#1209 = EDGE_LOOP('',(#1210,#1211,#1219,#1226));
#1210 = ORIENTED_EDGE('',*,*,#557,.F.);
#1211 = ORIENTED_EDGE('',*,*,#1212,.T.);
#1212 = EDGE_CURVE('',#558,#1213,#1215,.T.);
#1213 = VERTEX_POINT('',#1214);
#1214 = CARTESIAN_POINT('',(43.,31.65,5.));
#1215 = LINE('',#1216,#1217);
#1216 = CARTESIAN_POINT('',(58.,31.65,5.));
#1217 = VECTOR('',#1218,1.);
#1218 = DIRECTION('',(-1.,1.110223024625E-16,-1.665334536938E-16));
#1219 = ORIENTED_EDGE('',*,*,#1220,.T.);
#1220 = EDGE_CURVE('',#1213,#1213,#1221,.T.);
#1221 = CIRCLE('',#1222,1.65);
#1222 = AXIS2_PLACEMENT_3D('',#1223,#1224,#1225);
#1223 = CARTESIAN_POINT('',(43.,30.,5.));
#1224 = DIRECTION('',(1.,4.930380657631E-32,2.22044604925E-16));
#1225 = DIRECTION('',(0.,1.,-2.22044604925E-16));
#1226 = ORIENTED_EDGE('',*,*,#1212,.F.);
#1227 = CYLINDRICAL_SURFACE('',#1228,1.65);
#1228 = AXIS2_PLACEMENT_3D('',#1229,#1230,#1231);
#1229 = CARTESIAN_POINT('',(58.,30.,5.));
#1230 = DIRECTION('',(1.,4.930380657631E-32,2.22044604925E-16));
#1231 = DIRECTION('',(0.,1.,-2.22044604925E-16));
#1232 = ADVANCED_FACE('',(#1233),#1236,.T.);
#1233 = FACE_BOUND('',#1234,.T.);
#1234 = EDGE_LOOP('',(#1235));
#1235 = ORIENTED_EDGE('',*,*,#582,.T.);
#1236 = PLANE('',#1237);
#1237 = AXIS2_PLACEMENT_3D('',#1238,#1239,#1240);
#1238 = CARTESIAN_POINT('',(-1.33333333495E-06,45.999961538433,
    4.999997333333));
#1239 = DIRECTION('',(0.,1.,0.));
#1240 = DIRECTION('',(0.,0.,1.));
#1241 = ADVANCED_FACE('',(#1242),#1245,.T.);
#1242 = FACE_BOUND('',#1243,.T.);
#1243 = EDGE_LOOP('',(#1244));
#1244 = ORIENTED_EDGE('',*,*,#607,.T.);
#1245 = PLANE('',#1246);
#1246 = AXIS2_PLACEMENT_3D('',#1247,#1248,#1249);
#1247 = CARTESIAN_POINT('',(-1.33333333495E-06,45.999961538433,
    4.999997333333));
#1248 = DIRECTION('',(0.,1.,0.));
#1249 = DIRECTION('',(0.,0.,1.));
#1250 = ADVANCED_FACE('',(#1251),#1254,.T.);
#1251 = FACE_BOUND('',#1252,.T.);
#1252 = EDGE_LOOP('',(#1253));
#1253 = ORIENTED_EDGE('',*,*,#632,.T.);
#1254 = PLANE('',#1255);
#1255 = AXIS2_PLACEMENT_3D('',#1256,#1257,#1258);
#1256 = CARTESIAN_POINT('',(-1.33333333495E-06,45.999961538433,
    4.999997333333));
#1257 = DIRECTION('',(0.,1.,0.));
#1258 = DIRECTION('',(0.,0.,1.));
#1259 = ADVANCED_FACE('',(#1260,#1263,#1266,#1269,#1272,#1275,#1286,
    #1289),#1292,.F.);
#1260 = FACE_BOUND('',#1261,.F.);
#1261 = EDGE_LOOP('',(#1262));
#1262 = ORIENTED_EDGE('',*,*,#682,.F.);
#1263 = FACE_BOUND('',#1264,.F.);
#1264 = EDGE_LOOP('',(#1265));
#1265 = ORIENTED_EDGE('',*,*,#832,.T.);
#1266 = FACE_BOUND('',#1267,.F.);
#1267 = EDGE_LOOP('',(#1268));
#1268 = ORIENTED_EDGE('',*,*,#807,.T.);
#1269 = FACE_BOUND('',#1270,.F.);
#1270 = EDGE_LOOP('',(#1271));
#1271 = ORIENTED_EDGE('',*,*,#899,.T.);
#1272 = FACE_BOUND('',#1273,.F.);
#1273 = EDGE_LOOP('',(#1274));
#1274 = ORIENTED_EDGE('',*,*,#941,.T.);
#1275 = FACE_BOUND('',#1276,.F.);
#1276 = EDGE_LOOP('',(#1277));
#1277 = ORIENTED_EDGE('',*,*,#1278,.T.);
#1278 = EDGE_CURVE('',#1279,#1279,#1281,.T.);
#1279 = VERTEX_POINT('',#1280);
#1280 = CARTESIAN_POINT('',(21.,0.,3.));
#1281 = CIRCLE('',#1282,21.);
#1282 = AXIS2_PLACEMENT_3D('',#1283,#1284,#1285);
#1283 = CARTESIAN_POINT('',(0.,0.,3.));
#1284 = DIRECTION('',(0.,0.,-1.));
#1285 = DIRECTION('',(1.,0.,0.));
#1286 = FACE_BOUND('',#1287,.F.);
#1287 = EDGE_LOOP('',(#1288));
#1288 = ORIENTED_EDGE('',*,*,#966,.T.);
#1289 = FACE_BOUND('',#1290,.F.);
#1290 = EDGE_LOOP('',(#1291));
#1291 = ORIENTED_EDGE('',*,*,#991,.T.);
#1292 = PLANE('',#1293);
#1293 = AXIS2_PLACEMENT_3D('',#1294,#1295,#1296);
#1294 = CARTESIAN_POINT('',(-3.596554869145E-15,-9.077163071339E-16,3.)
  );
#1295 = DIRECTION('',(0.,0.,1.));
#1296 = DIRECTION('',(1.,0.,0.));
#1297 = ADVANCED_FACE('',(#1298,#1309),#1312,.F.);
#1298 = FACE_BOUND('',#1299,.F.);
#1299 = EDGE_LOOP('',(#1300));
#1300 = ORIENTED_EDGE('',*,*,#1301,.F.);
#1301 = EDGE_CURVE('',#1302,#1302,#1304,.T.);
#1302 = VERTEX_POINT('',#1303);
#1303 = CARTESIAN_POINT('',(8.1,7.347880794884E-16,6.));
#1304 = CIRCLE('',#1305,8.1);
#1305 = AXIS2_PLACEMENT_3D('',#1306,#1307,#1308);
#1306 = CARTESIAN_POINT('',(0.,7.347880794884E-16,6.));
#1307 = DIRECTION('',(0.,-1.224646799147E-16,-1.));
#1308 = DIRECTION('',(1.,0.,0.));
#1309 = FACE_BOUND('',#1310,.F.);
#1310 = EDGE_LOOP('',(#1311));
#1311 = ORIENTED_EDGE('',*,*,#866,.T.);
#1312 = PLANE('',#1313);
#1313 = AXIS2_PLACEMENT_3D('',#1314,#1315,#1316);
#1314 = CARTESIAN_POINT('',(-3.376395388986E-16,3.90163637461E-16,6.));
#1315 = DIRECTION('',(0.,0.,1.));
#1316 = DIRECTION('',(1.,0.,0.));
#1317 = ADVANCED_FACE('',(#1318),#1321,.F.);
#1318 = FACE_BOUND('',#1319,.T.);
#1319 = EDGE_LOOP('',(#1320));
#1320 = ORIENTED_EDGE('',*,*,#1067,.T.);
#1321 = PLANE('',#1322);
#1322 = AXIS2_PLACEMENT_3D('',#1323,#1324,#1325);
#1323 = CARTESIAN_POINT('',(-3.000000000529E-06,-41.00003846156,
    4.999980333333));
#1324 = DIRECTION('',(0.,1.,0.));
#1325 = DIRECTION('',(0.,0.,1.));
#1326 = ADVANCED_FACE('',(#1327),#1330,.F.);
#1327 = FACE_BOUND('',#1328,.T.);
#1328 = EDGE_LOOP('',(#1329));
#1329 = ORIENTED_EDGE('',*,*,#1092,.T.);
#1330 = PLANE('',#1331);
#1331 = AXIS2_PLACEMENT_3D('',#1332,#1333,#1334);
#1332 = CARTESIAN_POINT('',(-3.000000000529E-06,-41.00003846156,
    4.999980333333));
#1333 = DIRECTION('',(0.,1.,0.));
#1334 = DIRECTION('',(0.,0.,1.));
#1335 = ADVANCED_FACE('',(#1336),#1339,.F.);
#1336 = FACE_BOUND('',#1337,.T.);
#1337 = EDGE_LOOP('',(#1338));
#1338 = ORIENTED_EDGE('',*,*,#1117,.T.);
#1339 = PLANE('',#1340);
#1340 = AXIS2_PLACEMENT_3D('',#1341,#1342,#1343);
#1341 = CARTESIAN_POINT('',(-3.000000000529E-06,-41.00003846156,
    4.999980333333));
#1342 = DIRECTION('',(0.,1.,0.));
#1343 = DIRECTION('',(0.,0.,1.));
#1344 = ADVANCED_FACE('',(#1345),#1348,.T.);
#1345 = FACE_BOUND('',#1346,.T.);
#1346 = EDGE_LOOP('',(#1347));
#1347 = ORIENTED_EDGE('',*,*,#1170,.T.);
#1348 = PLANE('',#1349);
#1349 = AXIS2_PLACEMENT_3D('',#1350,#1351,#1352);
#1350 = CARTESIAN_POINT('',(43.,8.365829414593E-16,5.));
#1351 = DIRECTION('',(1.,0.,0.));
#1352 = DIRECTION('',(0.,0.,1.));
#1353 = ADVANCED_FACE('',(#1354),#1357,.T.);
#1354 = FACE_BOUND('',#1355,.T.);
#1355 = EDGE_LOOP('',(#1356));
#1356 = ORIENTED_EDGE('',*,*,#1195,.T.);
#1357 = PLANE('',#1358);
#1358 = AXIS2_PLACEMENT_3D('',#1359,#1360,#1361);
#1359 = CARTESIAN_POINT('',(43.,8.365829414593E-16,5.));
#1360 = DIRECTION('',(1.,0.,0.));
#1361 = DIRECTION('',(0.,0.,1.));
#1362 = ADVANCED_FACE('',(#1363),#1366,.T.);
#1363 = FACE_BOUND('',#1364,.T.);
#1364 = EDGE_LOOP('',(#1365));
#1365 = ORIENTED_EDGE('',*,*,#1220,.T.);
#1366 = PLANE('',#1367);
#1367 = AXIS2_PLACEMENT_3D('',#1368,#1369,#1370);
#1368 = CARTESIAN_POINT('',(43.,8.365829414593E-16,5.));
#1369 = DIRECTION('',(1.,0.,0.));
#1370 = DIRECTION('',(0.,0.,1.));
#1371 = ADVANCED_FACE('',(#1372),#1391,.F.);
#1372 = FACE_BOUND('',#1373,.F.);
#1373 = EDGE_LOOP('',(#1374,#1382,#1389,#1390));
#1374 = ORIENTED_EDGE('',*,*,#1375,.T.);
#1375 = EDGE_CURVE('',#1279,#1376,#1378,.T.);
#1376 = VERTEX_POINT('',#1377);
#1377 = CARTESIAN_POINT('',(21.,0.,5.));
#1378 = LINE('',#1379,#1380);
#1379 = CARTESIAN_POINT('',(21.,0.,3.));
#1380 = VECTOR('',#1381,1.);
#1381 = DIRECTION('',(0.,0.,1.));
#1382 = ORIENTED_EDGE('',*,*,#1383,.T.);
#1383 = EDGE_CURVE('',#1376,#1376,#1384,.T.);
#1384 = CIRCLE('',#1385,21.);
#1385 = AXIS2_PLACEMENT_3D('',#1386,#1387,#1388);
#1386 = CARTESIAN_POINT('',(0.,0.,5.));
#1387 = DIRECTION('',(0.,0.,-1.));
#1388 = DIRECTION('',(1.,0.,0.));
#1389 = ORIENTED_EDGE('',*,*,#1375,.F.);
#1390 = ORIENTED_EDGE('',*,*,#1278,.F.);
#1391 = CYLINDRICAL_SURFACE('',#1392,21.);
#1392 = AXIS2_PLACEMENT_3D('',#1393,#1394,#1395);
#1393 = CARTESIAN_POINT('',(0.,0.,3.));
#1394 = DIRECTION('',(0.,0.,-1.));
#1395 = DIRECTION('',(1.,0.,0.));
#1396 = ADVANCED_FACE('',(#1397),#1416,.F.);
#1397 = FACE_BOUND('',#1398,.F.);
#1398 = EDGE_LOOP('',(#1399,#1408,#1414,#1415));
#1399 = ORIENTED_EDGE('',*,*,#1400,.F.);
#1400 = EDGE_CURVE('',#1401,#1401,#1403,.T.);
#1401 = VERTEX_POINT('',#1402);
#1402 = CARTESIAN_POINT('',(8.1,6.123233995737E-16,5.));
#1403 = CIRCLE('',#1404,8.1);
#1404 = AXIS2_PLACEMENT_3D('',#1405,#1406,#1407);
#1405 = CARTESIAN_POINT('',(0.,6.123233995737E-16,5.));
#1406 = DIRECTION('',(0.,-1.224646799147E-16,-1.));
#1407 = DIRECTION('',(1.,0.,0.));
#1408 = ORIENTED_EDGE('',*,*,#1409,.T.);
#1409 = EDGE_CURVE('',#1401,#1302,#1410,.T.);
#1410 = LINE('',#1411,#1412);
#1411 = CARTESIAN_POINT('',(8.1,0.,0.));
#1412 = VECTOR('',#1413,1.);
#1413 = DIRECTION('',(0.,1.224646799147E-16,1.));
#1414 = ORIENTED_EDGE('',*,*,#1301,.T.);
#1415 = ORIENTED_EDGE('',*,*,#1409,.F.);
#1416 = CYLINDRICAL_SURFACE('',#1417,8.1);
#1417 = AXIS2_PLACEMENT_3D('',#1418,#1419,#1420);
#1418 = CARTESIAN_POINT('',(0.,0.,0.));
#1419 = DIRECTION('',(0.,-1.224646799147E-16,-1.));
#1420 = DIRECTION('',(1.,0.,0.));
#1421 = ADVANCED_FACE('',(#1422,#1425),#1428,.F.);
#1422 = FACE_BOUND('',#1423,.F.);
#1423 = EDGE_LOOP('',(#1424));
#1424 = ORIENTED_EDGE('',*,*,#1383,.F.);
#1425 = FACE_BOUND('',#1426,.F.);
#1426 = EDGE_LOOP('',(#1427));
#1427 = ORIENTED_EDGE('',*,*,#1400,.T.);
#1428 = PLANE('',#1429);
#1429 = AXIS2_PLACEMENT_3D('',#1430,#1431,#1432);
#1430 = CARTESIAN_POINT('',(-2.083718297203E-15,-1.846063891983E-16,5.)
  );
#1431 = DIRECTION('',(0.,0.,1.));
#1432 = DIRECTION('',(1.,0.,0.));
#1433 = ( GEOMETRIC_REPRESENTATION_CONTEXT(3) 
GLOBAL_UNCERTAINTY_ASSIGNED_CONTEXT((#1437)) 
GLOBAL_UNIT_ASSIGNED_CONTEXT((#1434,#1435,#1436)) REPRESENTATION_CONTEXT
('Context #1','3D Context with UNIT and UNCERTAINTY') );
#1434 = ( LENGTH_UNIT() NAMED_UNIT(*) SI_UNIT(.MILLI.,.METRE.) );
#1435 = ( NAMED_UNIT(*) PLANE_ANGLE_UNIT() SI_UNIT($,.RADIAN.) );
#1436 = ( NAMED_UNIT(*) SI_UNIT($,.STERADIAN.) SOLID_ANGLE_UNIT() );
#1437 = UNCERTAINTY_MEASURE_WITH_UNIT(LENGTH_MEASURE(1.E-07),#1434,
  'distance_accuracy_value','confusion accuracy');
#1438 = PRODUCT_RELATED_PRODUCT_CATEGORY('part',$,(#7));
#1439 = MECHANICAL_DESIGN_GEOMETRIC_PRESENTATION_REPRESENTATION('',(
    #1440),#1433);
#1440 = STYLED_ITEM('color',(#1441),#15);
#1441 = PRESENTATION_STYLE_ASSIGNMENT((#1442,#1448));
#1442 = SURFACE_STYLE_USAGE(.BOTH.,#1443);
#1443 = SURFACE_SIDE_STYLE('',(#1444));
#1444 = SURFACE_STYLE_FILL_AREA(#1445);
#1445 = FILL_AREA_STYLE('',(#1446));
#1446 = FILL_AREA_STYLE_COLOUR('',#1447);
#1447 = COLOUR_RGB('',0.678431390124,0.709803936702,0.741176476869);
#1448 = CURVE_STYLE('',#1449,POSITIVE_LENGTH_MEASURE(0.1),#1450);
#1449 = DRAUGHTING_PRE_DEFINED_CURVE_FONT('continuous');
#1450 = COLOUR_RGB('',9.803921802644E-02,9.803921802644E-02,
  9.803921802644E-02);
ENDSEC;
END-ISO-10303-21;
