ISO-10303-21;
HEADER;
FILE_DESCRIPTION(('FreeCAD Model'),'2;1');
FILE_NAME('Open CASCADE Shape Model','2026-07-26T17:03:32',(''),(''),
  'Open CASCADE STEP processor 7.8','FreeCAD','Unknown');
FILE_SCHEMA(('AUTOMOTIVE_DESIGN { 1 0 10303 214 1 1 1 1 }'));
ENDSEC;
DATA;
#1 = APPLICATION_PROTOCOL_DEFINITION('international standard',
  'automotive_design',2000,#2);
#2 = APPLICATION_CONTEXT(
  'core data for automotive mechanical design processes');
#3 = SHAPE_DEFINITION_REPRESENTATION(#4,#10);
#4 = PRODUCT_DEFINITION_SHAPE('','',#5);
#5 = PRODUCT_DEFINITION('design','',#6,#9);
#6 = PRODUCT_DEFINITION_FORMATION('','',#7);
#7 = PRODUCT('CW Plate','CW Plate','',(#8));
#8 = PRODUCT_CONTEXT('',#2,'mechanical');
#9 = PRODUCT_DEFINITION_CONTEXT('part definition',#2,'design');
#10 = ADVANCED_BREP_SHAPE_REPRESENTATION('',(#11,#15),#984);
#11 = AXIS2_PLACEMENT_3D('',#12,#13,#14);
#12 = CARTESIAN_POINT('',(0.,0.,0.));
#13 = DIRECTION('',(0.,0.,1.));
#14 = DIRECTION('',(1.,0.,-0.));
#15 = MANIFOLD_SOLID_BREP('',#16);
#16 = CLOSED_SHELL('',(#17,#90,#170,#238,#339,#405,#430,#455,#480,#535,
    #547,#559,#584,#609,#634,#651,#668,#685,#702,#727,#752,#777,#802,
    #827,#852,#861,#870,#879,#896,#913,#930,#939,#948,#957,#966,#975));
#17 = ADVANCED_FACE('',(#18,#52,#63,#74),#85,.T.);
#18 = FACE_BOUND('',#19,.T.);
#19 = EDGE_LOOP('',(#20,#30,#38,#46));
#20 = ORIENTED_EDGE('',*,*,#21,.T.);
#21 = EDGE_CURVE('',#22,#24,#26,.T.);
#22 = VERTEX_POINT('',#23);
#23 = CARTESIAN_POINT('',(57.986998,-51.,124.012421));
#24 = VERTEX_POINT('',#25);
#25 = CARTESIAN_POINT('',(57.986998,-41.,124.012421));
#26 = LINE('',#27,#28);
#27 = CARTESIAN_POINT('',(57.986998,-51.,124.012421));
#28 = VECTOR('',#29,1.);
#29 = DIRECTION('',(0.,1.,2.22044604925E-16));
#30 = ORIENTED_EDGE('',*,*,#31,.T.);
#31 = EDGE_CURVE('',#24,#32,#34,.T.);
#32 = VERTEX_POINT('',#33);
#33 = CARTESIAN_POINT('',(-58.01298950381,-41.,124.012421));
#34 = LINE('',#35,#36);
#35 = CARTESIAN_POINT('',(57.986998,-41.,124.012421));
#36 = VECTOR('',#37,1.);
#37 = DIRECTION('',(-1.,0.,0.));
#38 = ORIENTED_EDGE('',*,*,#39,.F.);
#39 = EDGE_CURVE('',#40,#32,#42,.T.);
#40 = VERTEX_POINT('',#41);
#41 = CARTESIAN_POINT('',(-58.01298950381,-51.,124.012421));
#42 = LINE('',#43,#44);
#43 = CARTESIAN_POINT('',(-58.01298950381,-51.,124.012421));
#44 = VECTOR('',#45,1.);
#45 = DIRECTION('',(0.,1.,2.22044604925E-16));
#46 = ORIENTED_EDGE('',*,*,#47,.F.);
#47 = EDGE_CURVE('',#22,#40,#48,.T.);
#48 = LINE('',#49,#50);
#49 = CARTESIAN_POINT('',(57.986998,-51.,124.012421));
#50 = VECTOR('',#51,1.);
#51 = DIRECTION('',(-1.,0.,0.));
#52 = FACE_BOUND('',#53,.T.);
#53 = EDGE_LOOP('',(#54));
#54 = ORIENTED_EDGE('',*,*,#55,.F.);
#55 = EDGE_CURVE('',#56,#56,#58,.T.);
#56 = VERTEX_POINT('',#57);
#57 = CARTESIAN_POINT('',(31.648987,-46.000347,124.012421));
#58 = CIRCLE('',#59,1.65);
#59 = AXIS2_PLACEMENT_3D('',#60,#61,#62);
#60 = CARTESIAN_POINT('',(29.998987,-46.000347,124.012421));
#61 = DIRECTION('',(0.,0.,1.));
#62 = DIRECTION('',(1.,0.,0.));
#63 = FACE_BOUND('',#64,.T.);
#64 = EDGE_LOOP('',(#65));
#65 = ORIENTED_EDGE('',*,*,#66,.F.);
#66 = EDGE_CURVE('',#67,#67,#69,.T.);
#67 = VERTEX_POINT('',#68);
#68 = CARTESIAN_POINT('',(-28.350341,-45.999893,124.012421));
#69 = CIRCLE('',#70,1.65);
#70 = AXIS2_PLACEMENT_3D('',#71,#72,#73);
#71 = CARTESIAN_POINT('',(-30.000341,-45.999893,124.012421));
#72 = DIRECTION('',(0.,0.,1.));
#73 = DIRECTION('',(1.,0.,0.));
#74 = FACE_BOUND('',#75,.T.);
#75 = EDGE_LOOP('',(#76));
#76 = ORIENTED_EDGE('',*,*,#77,.F.);
#77 = EDGE_CURVE('',#78,#78,#80,.T.);
#78 = VERTEX_POINT('',#79);
#79 = CARTESIAN_POINT('',(1.65,-46.028862,124.012421));
#80 = CIRCLE('',#81,1.65);
#81 = AXIS2_PLACEMENT_3D('',#82,#83,#84);
#82 = CARTESIAN_POINT('',(0.,-46.028862,124.012421));
#83 = DIRECTION('',(0.,0.,1.));
#84 = DIRECTION('',(1.,0.,0.));
#85 = PLANE('',#86);
#86 = AXIS2_PLACEMENT_3D('',#87,#88,#89);
#87 = CARTESIAN_POINT('',(57.986998,-51.,124.012421));
#88 = DIRECTION('',(0.,-2.22044604925E-16,1.));
#89 = DIRECTION('',(-1.,0.,0.));
#90 = ADVANCED_FACE('',(#91,#132,#143,#154),#165,.T.);
#91 = FACE_BOUND('',#92,.T.);
#92 = EDGE_LOOP('',(#93,#103,#111,#117,#118,#126));
#93 = ORIENTED_EDGE('',*,*,#94,.F.);
#94 = EDGE_CURVE('',#95,#97,#99,.T.);
#95 = VERTEX_POINT('',#96);
#96 = CARTESIAN_POINT('',(57.986998,-46.,-2.138740579025E-03));
#97 = VERTEX_POINT('',#98);
#98 = CARTESIAN_POINT('',(57.986998,-46.,9.999949));
#99 = LINE('',#100,#101);
#100 = CARTESIAN_POINT('',(57.986998,-46.,1.88852712971));
#101 = VECTOR('',#102,1.);
#102 = DIRECTION('',(0.,0.,1.));
#103 = ORIENTED_EDGE('',*,*,#104,.T.);
#104 = EDGE_CURVE('',#95,#105,#107,.T.);
#105 = VERTEX_POINT('',#106);
#106 = CARTESIAN_POINT('',(57.986998,-41.,-2.138740579023E-03));
#107 = LINE('',#108,#109);
#108 = CARTESIAN_POINT('',(57.986998,-51.,-2.138740579026E-03));
#109 = VECTOR('',#110,1.);
#110 = DIRECTION('',(0.,1.,2.22044604925E-16));
#111 = ORIENTED_EDGE('',*,*,#112,.T.);
#112 = EDGE_CURVE('',#105,#24,#113,.T.);
#113 = LINE('',#114,#115);
#114 = CARTESIAN_POINT('',(57.986998,-41.,-2.138740579023E-03));
#115 = VECTOR('',#116,1.);
#116 = DIRECTION('',(0.,-2.22044604925E-16,1.));
#117 = ORIENTED_EDGE('',*,*,#21,.F.);
#118 = ORIENTED_EDGE('',*,*,#119,.F.);
#119 = EDGE_CURVE('',#120,#22,#122,.T.);
#120 = VERTEX_POINT('',#121);
#121 = CARTESIAN_POINT('',(57.986998,-51.,9.999949));
#122 = LINE('',#123,#124);
#123 = CARTESIAN_POINT('',(57.986998,-51.,-2.138740579026E-03));
#124 = VECTOR('',#125,1.);
#125 = DIRECTION('',(0.,-2.22044604925E-16,1.));
#126 = ORIENTED_EDGE('',*,*,#127,.F.);
#127 = EDGE_CURVE('',#97,#120,#128,.T.);
#128 = LINE('',#129,#130);
#129 = CARTESIAN_POINT('',(57.986998,-51.,9.999949));
#130 = VECTOR('',#131,1.);
#131 = DIRECTION('',(0.,-1.,2.22044604925E-16));
#132 = FACE_BOUND('',#133,.T.);
#133 = EDGE_LOOP('',(#134));
#134 = ORIENTED_EDGE('',*,*,#135,.F.);
#135 = EDGE_CURVE('',#136,#136,#138,.T.);
#136 = VERTEX_POINT('',#137);
#137 = CARTESIAN_POINT('',(57.986998,-44.350008,34.999996));
#138 = CIRCLE('',#139,1.65);
#139 = AXIS2_PLACEMENT_3D('',#140,#141,#142);
#140 = CARTESIAN_POINT('',(57.986998,-46.000008,34.999996));
#141 = DIRECTION('',(1.,0.,0.));
#142 = DIRECTION('',(0.,1.,0.));
#143 = FACE_BOUND('',#144,.T.);
#144 = EDGE_LOOP('',(#145));
#145 = ORIENTED_EDGE('',*,*,#146,.F.);
#146 = EDGE_CURVE('',#147,#147,#149,.T.);
#147 = VERTEX_POINT('',#148);
#148 = CARTESIAN_POINT('',(57.986998,-44.350076,94.999802));
#149 = CIRCLE('',#150,1.65);
#150 = AXIS2_PLACEMENT_3D('',#151,#152,#153);
#151 = CARTESIAN_POINT('',(57.986998,-46.000076,94.999802));
#152 = DIRECTION('',(1.,0.,0.));
#153 = DIRECTION('',(0.,1.,0.));
#154 = FACE_BOUND('',#155,.T.);
#155 = EDGE_LOOP('',(#156));
#156 = ORIENTED_EDGE('',*,*,#157,.F.);
#157 = EDGE_CURVE('',#158,#158,#160,.T.);
#158 = VERTEX_POINT('',#159);
#159 = CARTESIAN_POINT('',(57.986998,-44.352666,64.997284));
#160 = CIRCLE('',#161,1.65);
#161 = AXIS2_PLACEMENT_3D('',#162,#163,#164);
#162 = CARTESIAN_POINT('',(57.986998,-46.002666,64.997284));
#163 = DIRECTION('',(1.,0.,0.));
#164 = DIRECTION('',(0.,1.,0.));
#165 = PLANE('',#166);
#166 = AXIS2_PLACEMENT_3D('',#167,#168,#169);
#167 = CARTESIAN_POINT('',(57.986998,-51.,-2.138740579026E-03));
#168 = DIRECTION('',(1.,0.,0.));
#169 = DIRECTION('',(0.,-2.22044604925E-16,1.));
#170 = ADVANCED_FACE('',(#171,#189,#200,#211,#222),#233,.F.);
#171 = FACE_BOUND('',#172,.F.);
#172 = EDGE_LOOP('',(#173,#174,#175,#183));
#173 = ORIENTED_EDGE('',*,*,#47,.F.);
#174 = ORIENTED_EDGE('',*,*,#119,.F.);
#175 = ORIENTED_EDGE('',*,*,#176,.T.);
#176 = EDGE_CURVE('',#120,#177,#179,.T.);
#177 = VERTEX_POINT('',#178);
#178 = CARTESIAN_POINT('',(-58.01298950381,-51.,9.999949));
#179 = LINE('',#180,#181);
#180 = CARTESIAN_POINT('',(59.969681,-51.,9.999949));
#181 = VECTOR('',#182,1.);
#182 = DIRECTION('',(-1.,0.,0.));
#183 = ORIENTED_EDGE('',*,*,#184,.F.);
#184 = EDGE_CURVE('',#40,#177,#185,.T.);
#185 = LINE('',#186,#187);
#186 = CARTESIAN_POINT('',(-58.01298950381,-51.,124.012421));
#187 = VECTOR('',#188,1.);
#188 = DIRECTION('',(0.,2.22044604925E-16,-1.));
#189 = FACE_BOUND('',#190,.F.);
#190 = EDGE_LOOP('',(#191));
#191 = ORIENTED_EDGE('',*,*,#192,.T.);
#192 = EDGE_CURVE('',#193,#193,#195,.T.);
#193 = VERTEX_POINT('',#194);
#194 = CARTESIAN_POINT('',(-12.750003,-51.,65.000008));
#195 = CIRCLE('',#196,2.25);
#196 = AXIS2_PLACEMENT_3D('',#197,#198,#199);
#197 = CARTESIAN_POINT('',(-15.000003,-51.,65.000008));
#198 = DIRECTION('',(0.,-1.,2.22044604925E-16));
#199 = DIRECTION('',(1.,0.,0.));
#200 = FACE_BOUND('',#201,.F.);
#201 = EDGE_LOOP('',(#202));
#202 = ORIENTED_EDGE('',*,*,#203,.T.);
#203 = EDGE_CURVE('',#204,#204,#206,.T.);
#204 = VERTEX_POINT('',#205);
#205 = CARTESIAN_POINT('',(5.1,-51.,65.015076));
#206 = CIRCLE('',#207,5.1);
#207 = AXIS2_PLACEMENT_3D('',#208,#209,#210);
#208 = CARTESIAN_POINT('',(0.,-51.,65.015076));
#209 = DIRECTION('',(0.,-1.,2.22044604925E-16));
#210 = DIRECTION('',(1.,0.,0.));
#211 = FACE_BOUND('',#212,.F.);
#212 = EDGE_LOOP('',(#213));
#213 = ORIENTED_EDGE('',*,*,#214,.T.);
#214 = EDGE_CURVE('',#215,#215,#217,.T.);
#215 = VERTEX_POINT('',#216);
#216 = CARTESIAN_POINT('',(6.388050770784,-51.,53.980783503672));
#217 = CIRCLE('',#218,2.25);
#218 = AXIS2_PLACEMENT_3D('',#219,#220,#221);
#219 = CARTESIAN_POINT('',(7.513050770784,-51.,52.032226345157));
#220 = DIRECTION('',(0.,-1.,2.22044604925E-16));
#221 = DIRECTION('',(-0.5,1.922962686384E-16,0.866025403784));
#222 = FACE_BOUND('',#223,.F.);
#223 = EDGE_LOOP('',(#224));
#224 = ORIENTED_EDGE('',*,*,#225,.T.);
#225 = EDGE_CURVE('',#226,#226,#228,.T.);
#226 = VERTEX_POINT('',#227);
#227 = CARTESIAN_POINT('',(6.361952229216,-51.,76.064436496328));
#228 = CIRCLE('',#229,2.25);
#229 = AXIS2_PLACEMENT_3D('',#230,#231,#232);
#230 = CARTESIAN_POINT('',(7.486952229216,-51.,78.012993654843));
#231 = DIRECTION('',(0.,-1.,2.22044604925E-16));
#232 = DIRECTION('',(-0.5,-1.922962686384E-16,-0.866025403784));
#233 = PLANE('',#234);
#234 = AXIS2_PLACEMENT_3D('',#235,#236,#237);
#235 = CARTESIAN_POINT('',(-1.299575190919E-02,-51.,62.00514112971));
#236 = DIRECTION('',(0.,1.,2.291804243781E-16));
#237 = DIRECTION('',(0.,-2.291804243781E-16,1.));
#238 = ADVANCED_FACE('',(#239,#257,#268,#279,#290,#301,#312,#323),#334,
  .T.);
#239 = FACE_BOUND('',#240,.T.);
#240 = EDGE_LOOP('',(#241,#242,#243,#251));
#241 = ORIENTED_EDGE('',*,*,#31,.F.);
#242 = ORIENTED_EDGE('',*,*,#112,.F.);
#243 = ORIENTED_EDGE('',*,*,#244,.F.);
#244 = EDGE_CURVE('',#245,#105,#247,.T.);
#245 = VERTEX_POINT('',#246);
#246 = CARTESIAN_POINT('',(-58.01298950381,-41.,-2.138740579023E-03));
#247 = LINE('',#248,#249);
#248 = CARTESIAN_POINT('',(-58.01298950381,-41.,-2.138740579023E-03));
#249 = VECTOR('',#250,1.);
#250 = DIRECTION('',(1.,0.,0.));
#251 = ORIENTED_EDGE('',*,*,#252,.F.);
#252 = EDGE_CURVE('',#32,#245,#253,.T.);
#253 = LINE('',#254,#255);
#254 = CARTESIAN_POINT('',(-58.01298950381,-41.,124.012421));
#255 = VECTOR('',#256,1.);
#256 = DIRECTION('',(0.,2.22044604925E-16,-1.));
#257 = FACE_BOUND('',#258,.T.);
#258 = EDGE_LOOP('',(#259));
#259 = ORIENTED_EDGE('',*,*,#260,.F.);
#260 = EDGE_CURVE('',#261,#261,#263,.T.);
#261 = VERTEX_POINT('',#262);
#262 = CARTESIAN_POINT('',(-25.994305,-41.,5.00097));
#263 = CIRCLE('',#264,4.);
#264 = AXIS2_PLACEMENT_3D('',#265,#266,#267);
#265 = CARTESIAN_POINT('',(-29.994305,-41.,5.00097));
#266 = DIRECTION('',(0.,1.,-2.22044604925E-16));
#267 = DIRECTION('',(1.,0.,0.));
#268 = FACE_BOUND('',#269,.T.);
#269 = EDGE_LOOP('',(#270));
#270 = ORIENTED_EDGE('',*,*,#271,.F.);
#271 = EDGE_CURVE('',#272,#272,#274,.T.);
#272 = VERTEX_POINT('',#273);
#273 = CARTESIAN_POINT('',(4.,-41.,4.999869));
#274 = CIRCLE('',#275,4.);
#275 = AXIS2_PLACEMENT_3D('',#276,#277,#278);
#276 = CARTESIAN_POINT('',(0.,-41.,4.999869));
#277 = DIRECTION('',(0.,1.,-2.22044604925E-16));
#278 = DIRECTION('',(1.,0.,0.));
#279 = FACE_BOUND('',#280,.T.);
#280 = EDGE_LOOP('',(#281));
#281 = ORIENTED_EDGE('',*,*,#282,.F.);
#282 = EDGE_CURVE('',#283,#283,#285,.T.);
#283 = VERTEX_POINT('',#284);
#284 = CARTESIAN_POINT('',(-12.750003,-41.,65.000008));
#285 = CIRCLE('',#286,2.25);
#286 = AXIS2_PLACEMENT_3D('',#287,#288,#289);
#287 = CARTESIAN_POINT('',(-15.000003,-41.,65.000008));
#288 = DIRECTION('',(0.,1.,-2.22044604925E-16));
#289 = DIRECTION('',(1.,0.,0.));
#290 = FACE_BOUND('',#291,.T.);
#291 = EDGE_LOOP('',(#292));
#292 = ORIENTED_EDGE('',*,*,#293,.F.);
#293 = EDGE_CURVE('',#294,#294,#296,.T.);
#294 = VERTEX_POINT('',#295);
#295 = CARTESIAN_POINT('',(5.1,-41.,65.015076));
#296 = CIRCLE('',#297,5.1);
#297 = AXIS2_PLACEMENT_3D('',#298,#299,#300);
#298 = CARTESIAN_POINT('',(0.,-41.,65.015076));
#299 = DIRECTION('',(0.,1.,-2.22044604925E-16));
#300 = DIRECTION('',(1.,0.,0.));
#301 = FACE_BOUND('',#302,.T.);
#302 = EDGE_LOOP('',(#303));
#303 = ORIENTED_EDGE('',*,*,#304,.F.);
#304 = EDGE_CURVE('',#305,#305,#307,.T.);
#305 = VERTEX_POINT('',#306);
#306 = CARTESIAN_POINT('',(34.000422,-41.,4.99977));
#307 = CIRCLE('',#308,4.);
#308 = AXIS2_PLACEMENT_3D('',#309,#310,#311);
#309 = CARTESIAN_POINT('',(30.000422,-41.,4.99977));
#310 = DIRECTION('',(0.,1.,-2.22044604925E-16));
#311 = DIRECTION('',(1.,0.,0.));
#312 = FACE_BOUND('',#313,.T.);
#313 = EDGE_LOOP('',(#314));
#314 = ORIENTED_EDGE('',*,*,#315,.F.);
#315 = EDGE_CURVE('',#316,#316,#318,.T.);
#316 = VERTEX_POINT('',#317);
#317 = CARTESIAN_POINT('',(6.388050770784,-41.,53.980783503672));
#318 = CIRCLE('',#319,2.25);
#319 = AXIS2_PLACEMENT_3D('',#320,#321,#322);
#320 = CARTESIAN_POINT('',(7.513050770784,-41.,52.032226345157));
#321 = DIRECTION('',(0.,1.,-2.22044604925E-16));
#322 = DIRECTION('',(-0.5,1.922962686384E-16,0.866025403784));
#323 = FACE_BOUND('',#324,.T.);
#324 = EDGE_LOOP('',(#325));
#325 = ORIENTED_EDGE('',*,*,#326,.F.);
#326 = EDGE_CURVE('',#327,#327,#329,.T.);
#327 = VERTEX_POINT('',#328);
#328 = CARTESIAN_POINT('',(6.361952229216,-41.,76.064436496328));
#329 = CIRCLE('',#330,2.25);
#330 = AXIS2_PLACEMENT_3D('',#331,#332,#333);
#331 = CARTESIAN_POINT('',(7.486952229216,-41.,78.012993654843));
#332 = DIRECTION('',(-2.465190328816E-32,1.,-2.22044604925E-16));
#333 = DIRECTION('',(-0.5,-1.922962686384E-16,-0.866025403784));
#334 = PLANE('',#335);
#335 = AXIS2_PLACEMENT_3D('',#336,#337,#338);
#336 = CARTESIAN_POINT('',(-1.299575190919E-02,-41.,62.00514112971));
#337 = DIRECTION('',(0.,1.,2.291804243781E-16));
#338 = DIRECTION('',(0.,-2.291804243781E-16,1.));
#339 = ADVANCED_FACE('',(#340,#367,#378,#389),#400,.T.);
#340 = FACE_BOUND('',#341,.T.);
#341 = EDGE_LOOP('',(#342,#343,#344,#345,#353,#361));
#342 = ORIENTED_EDGE('',*,*,#184,.F.);
#343 = ORIENTED_EDGE('',*,*,#39,.T.);
#344 = ORIENTED_EDGE('',*,*,#252,.T.);
#345 = ORIENTED_EDGE('',*,*,#346,.F.);
#346 = EDGE_CURVE('',#347,#245,#349,.T.);
#347 = VERTEX_POINT('',#348);
#348 = CARTESIAN_POINT('',(-58.01298950381,-46.,-2.138740579025E-03));
#349 = LINE('',#350,#351);
#350 = CARTESIAN_POINT('',(-58.01298950381,-51.,-2.138740579026E-03));
#351 = VECTOR('',#352,1.);
#352 = DIRECTION('',(0.,1.,2.22044604925E-16));
#353 = ORIENTED_EDGE('',*,*,#354,.F.);
#354 = EDGE_CURVE('',#355,#347,#357,.T.);
#355 = VERTEX_POINT('',#356);
#356 = CARTESIAN_POINT('',(-58.01298950381,-46.,9.999949));
#357 = LINE('',#358,#359);
#358 = CARTESIAN_POINT('',(-58.01298950381,-46.,63.895807));
#359 = VECTOR('',#360,1.);
#360 = DIRECTION('',(0.,0.,-1.));
#361 = ORIENTED_EDGE('',*,*,#362,.F.);
#362 = EDGE_CURVE('',#177,#355,#363,.T.);
#363 = LINE('',#364,#365);
#364 = CARTESIAN_POINT('',(-58.01298950381,-51.,9.999949));
#365 = VECTOR('',#366,1.);
#366 = DIRECTION('',(0.,1.,-2.22044604925E-16));
#367 = FACE_BOUND('',#368,.T.);
#368 = EDGE_LOOP('',(#369));
#369 = ORIENTED_EDGE('',*,*,#370,.F.);
#370 = EDGE_CURVE('',#371,#371,#373,.T.);
#371 = VERTEX_POINT('',#372);
#372 = CARTESIAN_POINT('',(-58.01298950381,-47.650038,94.999992));
#373 = CIRCLE('',#374,1.65);
#374 = AXIS2_PLACEMENT_3D('',#375,#376,#377);
#375 = CARTESIAN_POINT('',(-58.01298950381,-46.000038,94.999992));
#376 = DIRECTION('',(-1.,0.,0.));
#377 = DIRECTION('',(0.,-1.,0.));
#378 = FACE_BOUND('',#379,.T.);
#379 = EDGE_LOOP('',(#380));
#380 = ORIENTED_EDGE('',*,*,#381,.F.);
#381 = EDGE_CURVE('',#382,#382,#384,.T.);
#382 = VERTEX_POINT('',#383);
#383 = CARTESIAN_POINT('',(-58.01298950381,-47.650008,64.999947));
#384 = CIRCLE('',#385,1.65);
#385 = AXIS2_PLACEMENT_3D('',#386,#387,#388);
#386 = CARTESIAN_POINT('',(-58.01298950381,-46.000008,64.999947));
#387 = DIRECTION('',(-1.,0.,0.));
#388 = DIRECTION('',(0.,-1.,0.));
#389 = FACE_BOUND('',#390,.T.);
#390 = EDGE_LOOP('',(#391));
#391 = ORIENTED_EDGE('',*,*,#392,.F.);
#392 = EDGE_CURVE('',#393,#393,#395,.T.);
#393 = VERTEX_POINT('',#394);
#394 = CARTESIAN_POINT('',(-58.01298950381,-47.650473,34.995972));
#395 = CIRCLE('',#396,1.65);
#396 = AXIS2_PLACEMENT_3D('',#397,#398,#399);
#397 = CARTESIAN_POINT('',(-58.01298950381,-46.000473,34.995972));
#398 = DIRECTION('',(-1.,0.,0.));
#399 = DIRECTION('',(0.,-1.,0.));
#400 = PLANE('',#401);
#401 = AXIS2_PLACEMENT_3D('',#402,#403,#404);
#402 = CARTESIAN_POINT('',(-58.01298950381,-51.,124.012421));
#403 = DIRECTION('',(-1.,0.,0.));
#404 = DIRECTION('',(0.,2.22044604925E-16,-1.));
#405 = ADVANCED_FACE('',(#406),#425,.F.);
#406 = FACE_BOUND('',#407,.F.);
#407 = EDGE_LOOP('',(#408,#416,#423,#424));
#408 = ORIENTED_EDGE('',*,*,#409,.T.);
#409 = EDGE_CURVE('',#56,#410,#412,.T.);
#410 = VERTEX_POINT('',#411);
#411 = CARTESIAN_POINT('',(31.648987,-46.000347,109.012421));
#412 = LINE('',#413,#414);
#413 = CARTESIAN_POINT('',(31.648987,-46.000347,124.012421));
#414 = VECTOR('',#415,1.);
#415 = DIRECTION('',(-0.,-0.,-1.));
#416 = ORIENTED_EDGE('',*,*,#417,.T.);
#417 = EDGE_CURVE('',#410,#410,#418,.T.);
#418 = CIRCLE('',#419,1.65);
#419 = AXIS2_PLACEMENT_3D('',#420,#421,#422);
#420 = CARTESIAN_POINT('',(29.998987,-46.000347,109.012421));
#421 = DIRECTION('',(0.,0.,1.));
#422 = DIRECTION('',(1.,0.,0.));
#423 = ORIENTED_EDGE('',*,*,#409,.F.);
#424 = ORIENTED_EDGE('',*,*,#55,.F.);
#425 = CYLINDRICAL_SURFACE('',#426,1.65);
#426 = AXIS2_PLACEMENT_3D('',#427,#428,#429);
#427 = CARTESIAN_POINT('',(29.998987,-46.000347,124.012421));
#428 = DIRECTION('',(0.,0.,1.));
#429 = DIRECTION('',(1.,0.,0.));
#430 = ADVANCED_FACE('',(#431),#450,.F.);
#431 = FACE_BOUND('',#432,.F.);
#432 = EDGE_LOOP('',(#433,#441,#448,#449));
#433 = ORIENTED_EDGE('',*,*,#434,.T.);
#434 = EDGE_CURVE('',#67,#435,#437,.T.);
#435 = VERTEX_POINT('',#436);
#436 = CARTESIAN_POINT('',(-28.350341,-45.999893,109.012421));
#437 = LINE('',#438,#439);
#438 = CARTESIAN_POINT('',(-28.350341,-45.999893,124.012421));
#439 = VECTOR('',#440,1.);
#440 = DIRECTION('',(-0.,-0.,-1.));
#441 = ORIENTED_EDGE('',*,*,#442,.T.);
#442 = EDGE_CURVE('',#435,#435,#443,.T.);
#443 = CIRCLE('',#444,1.65);
#444 = AXIS2_PLACEMENT_3D('',#445,#446,#447);
#445 = CARTESIAN_POINT('',(-30.000341,-45.999893,109.012421));
#446 = DIRECTION('',(0.,0.,1.));
#447 = DIRECTION('',(1.,0.,0.));
#448 = ORIENTED_EDGE('',*,*,#434,.F.);
#449 = ORIENTED_EDGE('',*,*,#66,.F.);
#450 = CYLINDRICAL_SURFACE('',#451,1.65);
#451 = AXIS2_PLACEMENT_3D('',#452,#453,#454);
#452 = CARTESIAN_POINT('',(-30.000341,-45.999893,124.012421));
#453 = DIRECTION('',(0.,0.,1.));
#454 = DIRECTION('',(1.,0.,0.));
#455 = ADVANCED_FACE('',(#456),#475,.F.);
#456 = FACE_BOUND('',#457,.F.);
#457 = EDGE_LOOP('',(#458,#466,#473,#474));
#458 = ORIENTED_EDGE('',*,*,#459,.T.);
#459 = EDGE_CURVE('',#78,#460,#462,.T.);
#460 = VERTEX_POINT('',#461);
#461 = CARTESIAN_POINT('',(1.65,-46.028862,109.012421));
#462 = LINE('',#463,#464);
#463 = CARTESIAN_POINT('',(1.65,-46.028862,124.012421));
#464 = VECTOR('',#465,1.);
#465 = DIRECTION('',(-0.,-0.,-1.));
#466 = ORIENTED_EDGE('',*,*,#467,.T.);
#467 = EDGE_CURVE('',#460,#460,#468,.T.);
#468 = CIRCLE('',#469,1.65);
#469 = AXIS2_PLACEMENT_3D('',#470,#471,#472);
#470 = CARTESIAN_POINT('',(0.,-46.028862,109.012421));
#471 = DIRECTION('',(0.,0.,1.));
#472 = DIRECTION('',(1.,0.,0.));
#473 = ORIENTED_EDGE('',*,*,#459,.F.);
#474 = ORIENTED_EDGE('',*,*,#77,.F.);
#475 = CYLINDRICAL_SURFACE('',#476,1.65);
#476 = AXIS2_PLACEMENT_3D('',#477,#478,#479);
#477 = CARTESIAN_POINT('',(0.,-46.028862,124.012421));
#478 = DIRECTION('',(0.,0.,1.));
#479 = DIRECTION('',(1.,0.,0.));
#480 = ADVANCED_FACE('',(#481,#497,#508,#519),#530,.F.);
#481 = FACE_BOUND('',#482,.F.);
#482 = EDGE_LOOP('',(#483,#484,#490,#491));
#483 = ORIENTED_EDGE('',*,*,#354,.F.);
#484 = ORIENTED_EDGE('',*,*,#485,.F.);
#485 = EDGE_CURVE('',#97,#355,#486,.T.);
#486 = LINE('',#487,#488);
#487 = CARTESIAN_POINT('',(59.969681,-46.,9.999949));
#488 = VECTOR('',#489,1.);
#489 = DIRECTION('',(-1.,0.,0.));
#490 = ORIENTED_EDGE('',*,*,#94,.F.);
#491 = ORIENTED_EDGE('',*,*,#492,.F.);
#492 = EDGE_CURVE('',#347,#95,#493,.T.);
#493 = LINE('',#494,#495);
#494 = CARTESIAN_POINT('',(-28.7640860019,-46.,-2.138740579025E-03));
#495 = VECTOR('',#496,1.);
#496 = DIRECTION('',(1.,0.,0.));
#497 = FACE_BOUND('',#498,.F.);
#498 = EDGE_LOOP('',(#499));
#499 = ORIENTED_EDGE('',*,*,#500,.T.);
#500 = EDGE_CURVE('',#501,#501,#503,.T.);
#501 = VERTEX_POINT('',#502);
#502 = CARTESIAN_POINT('',(2.25,-46.,4.999869));
#503 = CIRCLE('',#504,2.25);
#504 = AXIS2_PLACEMENT_3D('',#505,#506,#507);
#505 = CARTESIAN_POINT('',(0.,-46.,4.999869));
#506 = DIRECTION('',(0.,-1.,2.22044604925E-16));
#507 = DIRECTION('',(1.,0.,0.));
#508 = FACE_BOUND('',#509,.F.);
#509 = EDGE_LOOP('',(#510));
#510 = ORIENTED_EDGE('',*,*,#511,.T.);
#511 = EDGE_CURVE('',#512,#512,#514,.T.);
#512 = VERTEX_POINT('',#513);
#513 = CARTESIAN_POINT('',(-27.744305,-46.,5.00097));
#514 = CIRCLE('',#515,2.25);
#515 = AXIS2_PLACEMENT_3D('',#516,#517,#518);
#516 = CARTESIAN_POINT('',(-29.994305,-46.,5.00097));
#517 = DIRECTION('',(0.,-1.,2.22044604925E-16));
#518 = DIRECTION('',(1.,0.,0.));
#519 = FACE_BOUND('',#520,.F.);
#520 = EDGE_LOOP('',(#521));
#521 = ORIENTED_EDGE('',*,*,#522,.T.);
#522 = EDGE_CURVE('',#523,#523,#525,.T.);
#523 = VERTEX_POINT('',#524);
#524 = CARTESIAN_POINT('',(32.250422,-46.,4.99977));
#525 = CIRCLE('',#526,2.25);
#526 = AXIS2_PLACEMENT_3D('',#527,#528,#529);
#527 = CARTESIAN_POINT('',(30.000422,-46.,4.99977));
#528 = DIRECTION('',(0.,-1.,2.22044604925E-16));
#529 = DIRECTION('',(1.,0.,0.));
#530 = PLANE('',#531);
#531 = AXIS2_PLACEMENT_3D('',#532,#533,#534);
#532 = CARTESIAN_POINT('',(0.4848175,-46.,3.779193));
#533 = DIRECTION('',(0.,1.,0.));
#534 = DIRECTION('',(0.,0.,1.));
#535 = ADVANCED_FACE('',(#536),#542,.F.);
#536 = FACE_BOUND('',#537,.F.);
#537 = EDGE_LOOP('',(#538,#539,#540,#541));
#538 = ORIENTED_EDGE('',*,*,#176,.F.);
#539 = ORIENTED_EDGE('',*,*,#127,.F.);
#540 = ORIENTED_EDGE('',*,*,#485,.T.);
#541 = ORIENTED_EDGE('',*,*,#362,.F.);
#542 = PLANE('',#543);
#543 = AXIS2_PLACEMENT_3D('',#544,#545,#546);
#544 = CARTESIAN_POINT('',(59.969681,-51.,9.999949));
#545 = DIRECTION('',(0.,2.22044604925E-16,1.));
#546 = DIRECTION('',(-1.,0.,0.));
#547 = ADVANCED_FACE('',(#548),#554,.T.);
#548 = FACE_BOUND('',#549,.T.);
#549 = EDGE_LOOP('',(#550,#551,#552,#553));
#550 = ORIENTED_EDGE('',*,*,#492,.F.);
#551 = ORIENTED_EDGE('',*,*,#346,.T.);
#552 = ORIENTED_EDGE('',*,*,#244,.T.);
#553 = ORIENTED_EDGE('',*,*,#104,.F.);
#554 = PLANE('',#555);
#555 = AXIS2_PLACEMENT_3D('',#556,#557,#558);
#556 = CARTESIAN_POINT('',(-58.01298950381,-51.,-2.138740579026E-03));
#557 = DIRECTION('',(0.,2.22044604925E-16,-1.));
#558 = DIRECTION('',(1.,0.,0.));
#559 = ADVANCED_FACE('',(#560),#579,.F.);
#560 = FACE_BOUND('',#561,.F.);
#561 = EDGE_LOOP('',(#562,#570,#577,#578));
#562 = ORIENTED_EDGE('',*,*,#563,.T.);
#563 = EDGE_CURVE('',#136,#564,#566,.T.);
#564 = VERTEX_POINT('',#565);
#565 = CARTESIAN_POINT('',(42.986998,-44.350008,34.999996));
#566 = LINE('',#567,#568);
#567 = CARTESIAN_POINT('',(57.986998,-44.350008,34.999996));
#568 = VECTOR('',#569,1.);
#569 = DIRECTION('',(-1.,-0.,-0.));
#570 = ORIENTED_EDGE('',*,*,#571,.T.);
#571 = EDGE_CURVE('',#564,#564,#572,.T.);
#572 = CIRCLE('',#573,1.65);
#573 = AXIS2_PLACEMENT_3D('',#574,#575,#576);
#574 = CARTESIAN_POINT('',(42.986998,-46.000008,34.999996));
#575 = DIRECTION('',(1.,0.,0.));
#576 = DIRECTION('',(0.,1.,0.));
#577 = ORIENTED_EDGE('',*,*,#563,.F.);
#578 = ORIENTED_EDGE('',*,*,#135,.F.);
#579 = CYLINDRICAL_SURFACE('',#580,1.65);
#580 = AXIS2_PLACEMENT_3D('',#581,#582,#583);
#581 = CARTESIAN_POINT('',(57.986998,-46.000008,34.999996));
#582 = DIRECTION('',(1.,0.,0.));
#583 = DIRECTION('',(0.,1.,0.));
#584 = ADVANCED_FACE('',(#585),#604,.F.);
#585 = FACE_BOUND('',#586,.F.);
#586 = EDGE_LOOP('',(#587,#595,#602,#603));
#587 = ORIENTED_EDGE('',*,*,#588,.T.);
#588 = EDGE_CURVE('',#147,#589,#591,.T.);
#589 = VERTEX_POINT('',#590);
#590 = CARTESIAN_POINT('',(42.986998,-44.350076,94.999802));
#591 = LINE('',#592,#593);
#592 = CARTESIAN_POINT('',(57.986998,-44.350076,94.999802));
#593 = VECTOR('',#594,1.);
#594 = DIRECTION('',(-1.,-0.,-0.));
#595 = ORIENTED_EDGE('',*,*,#596,.T.);
#596 = EDGE_CURVE('',#589,#589,#597,.T.);
#597 = CIRCLE('',#598,1.65);
#598 = AXIS2_PLACEMENT_3D('',#599,#600,#601);
#599 = CARTESIAN_POINT('',(42.986998,-46.000076,94.999802));
#600 = DIRECTION('',(1.,0.,0.));
#601 = DIRECTION('',(0.,1.,0.));
#602 = ORIENTED_EDGE('',*,*,#588,.F.);
#603 = ORIENTED_EDGE('',*,*,#146,.F.);
#604 = CYLINDRICAL_SURFACE('',#605,1.65);
#605 = AXIS2_PLACEMENT_3D('',#606,#607,#608);
#606 = CARTESIAN_POINT('',(57.986998,-46.000076,94.999802));
#607 = DIRECTION('',(1.,0.,0.));
#608 = DIRECTION('',(0.,1.,0.));
#609 = ADVANCED_FACE('',(#610),#629,.F.);
#610 = FACE_BOUND('',#611,.F.);
#611 = EDGE_LOOP('',(#612,#620,#627,#628));
#612 = ORIENTED_EDGE('',*,*,#613,.T.);
#613 = EDGE_CURVE('',#158,#614,#616,.T.);
#614 = VERTEX_POINT('',#615);
#615 = CARTESIAN_POINT('',(42.986998,-44.352666,64.997284));
#616 = LINE('',#617,#618);
#617 = CARTESIAN_POINT('',(57.986998,-44.352666,64.997284));
#618 = VECTOR('',#619,1.);
#619 = DIRECTION('',(-1.,-0.,-0.));
#620 = ORIENTED_EDGE('',*,*,#621,.T.);
#621 = EDGE_CURVE('',#614,#614,#622,.T.);
#622 = CIRCLE('',#623,1.65);
#623 = AXIS2_PLACEMENT_3D('',#624,#625,#626);
#624 = CARTESIAN_POINT('',(42.986998,-46.002666,64.997284));
#625 = DIRECTION('',(1.,0.,0.));
#626 = DIRECTION('',(0.,1.,0.));
#627 = ORIENTED_EDGE('',*,*,#613,.F.);
#628 = ORIENTED_EDGE('',*,*,#157,.F.);
#629 = CYLINDRICAL_SURFACE('',#630,1.65);
#630 = AXIS2_PLACEMENT_3D('',#631,#632,#633);
#631 = CARTESIAN_POINT('',(57.986998,-46.002666,64.997284));
#632 = DIRECTION('',(1.,0.,0.));
#633 = DIRECTION('',(0.,1.,0.));
#634 = ADVANCED_FACE('',(#635),#646,.F.);
#635 = FACE_BOUND('',#636,.T.);
#636 = EDGE_LOOP('',(#637,#643,#644,#645));
#637 = ORIENTED_EDGE('',*,*,#638,.F.);
#638 = EDGE_CURVE('',#283,#193,#639,.T.);
#639 = LINE('',#640,#641);
#640 = CARTESIAN_POINT('',(-12.750003,-41.,65.000008));
#641 = VECTOR('',#642,1.);
#642 = DIRECTION('',(-6.074358258687E-17,-1.,2.22044604925E-16));
#643 = ORIENTED_EDGE('',*,*,#282,.T.);
#644 = ORIENTED_EDGE('',*,*,#638,.T.);
#645 = ORIENTED_EDGE('',*,*,#192,.T.);
#646 = CYLINDRICAL_SURFACE('',#647,2.25);
#647 = AXIS2_PLACEMENT_3D('',#648,#649,#650);
#648 = CARTESIAN_POINT('',(-15.000003,-41.,65.000008));
#649 = DIRECTION('',(0.,-1.,2.22044604925E-16));
#650 = DIRECTION('',(1.,0.,0.));
#651 = ADVANCED_FACE('',(#652),#663,.F.);
#652 = FACE_BOUND('',#653,.T.);
#653 = EDGE_LOOP('',(#654,#660,#661,#662));
#654 = ORIENTED_EDGE('',*,*,#655,.F.);
#655 = EDGE_CURVE('',#294,#204,#656,.T.);
#656 = LINE('',#657,#658);
#657 = CARTESIAN_POINT('',(5.1,-41.,65.015076));
#658 = VECTOR('',#659,1.);
#659 = DIRECTION('',(-6.203599923766E-17,-1.,2.22044604925E-16));
#660 = ORIENTED_EDGE('',*,*,#293,.T.);
#661 = ORIENTED_EDGE('',*,*,#655,.T.);
#662 = ORIENTED_EDGE('',*,*,#203,.T.);
#663 = CYLINDRICAL_SURFACE('',#664,5.1);
#664 = AXIS2_PLACEMENT_3D('',#665,#666,#667);
#665 = CARTESIAN_POINT('',(0.,-41.,65.015076));
#666 = DIRECTION('',(0.,-1.,2.22044604925E-16));
#667 = DIRECTION('',(1.,0.,0.));
#668 = ADVANCED_FACE('',(#669),#680,.F.);
#669 = FACE_BOUND('',#670,.T.);
#670 = EDGE_LOOP('',(#671,#677,#678,#679));
#671 = ORIENTED_EDGE('',*,*,#672,.F.);
#672 = EDGE_CURVE('',#316,#215,#673,.T.);
#673 = LINE('',#674,#675);
#674 = CARTESIAN_POINT('',(6.388050770784,-41.,53.980783503672));
#675 = VECTOR('',#676,1.);
#676 = DIRECTION('',(3.037179129344E-17,-1.,1.694391192879E-16));
#677 = ORIENTED_EDGE('',*,*,#315,.T.);
#678 = ORIENTED_EDGE('',*,*,#672,.T.);
#679 = ORIENTED_EDGE('',*,*,#214,.T.);
#680 = CYLINDRICAL_SURFACE('',#681,2.25);
#681 = AXIS2_PLACEMENT_3D('',#682,#683,#684);
#682 = CARTESIAN_POINT('',(7.513050770784,-41.,52.032226345157));
#683 = DIRECTION('',(2.465190328816E-32,-1.,2.22044604925E-16));
#684 = DIRECTION('',(-0.5,1.922962686384E-16,0.866025403784));
#685 = ADVANCED_FACE('',(#686),#697,.F.);
#686 = FACE_BOUND('',#687,.T.);
#687 = EDGE_LOOP('',(#688,#694,#695,#696));
#688 = ORIENTED_EDGE('',*,*,#689,.F.);
#689 = EDGE_CURVE('',#327,#226,#690,.T.);
#690 = LINE('',#691,#692);
#691 = CARTESIAN_POINT('',(6.361952229216,-41.,76.064436496328));
#692 = VECTOR('',#693,1.);
#693 = DIRECTION('',(3.037179129344E-17,-1.,2.746500905621E-16));
#694 = ORIENTED_EDGE('',*,*,#326,.T.);
#695 = ORIENTED_EDGE('',*,*,#689,.T.);
#696 = ORIENTED_EDGE('',*,*,#225,.T.);
#697 = CYLINDRICAL_SURFACE('',#698,2.25);
#698 = AXIS2_PLACEMENT_3D('',#699,#700,#701);
#699 = CARTESIAN_POINT('',(7.486952229216,-41.,78.012993654843));
#700 = DIRECTION('',(-2.465190328816E-32,-1.,2.22044604925E-16));
#701 = DIRECTION('',(-0.5,-1.922962686384E-16,-0.866025403784));
#702 = ADVANCED_FACE('',(#703),#722,.F.);
#703 = FACE_BOUND('',#704,.T.);
#704 = EDGE_LOOP('',(#705,#713,#714,#715));
#705 = ORIENTED_EDGE('',*,*,#706,.F.);
#706 = EDGE_CURVE('',#261,#707,#709,.T.);
#707 = VERTEX_POINT('',#708);
#708 = CARTESIAN_POINT('',(-27.744305,-42.75,5.00097));
#709 = LINE('',#710,#711);
#710 = CARTESIAN_POINT('',(-25.994305,-41.,5.00097));
#711 = VECTOR('',#712,1.);
#712 = DIRECTION('',(-0.707106781187,-0.707106781187,1.570092458684E-16)
  );
#713 = ORIENTED_EDGE('',*,*,#260,.T.);
#714 = ORIENTED_EDGE('',*,*,#706,.T.);
#715 = ORIENTED_EDGE('',*,*,#716,.F.);
#716 = EDGE_CURVE('',#707,#707,#717,.T.);
#717 = CIRCLE('',#718,2.25);
#718 = AXIS2_PLACEMENT_3D('',#719,#720,#721);
#719 = CARTESIAN_POINT('',(-29.994305,-42.75,5.00097));
#720 = DIRECTION('',(0.,1.,-2.22044604925E-16));
#721 = DIRECTION('',(1.,0.,0.));
#722 = CONICAL_SURFACE('',#723,4.,0.785398163397);
#723 = AXIS2_PLACEMENT_3D('',#724,#725,#726);
#724 = CARTESIAN_POINT('',(-29.994305,-41.,5.00097));
#725 = DIRECTION('',(0.,1.,-2.22044604925E-16));
#726 = DIRECTION('',(1.,0.,0.));
#727 = ADVANCED_FACE('',(#728),#747,.F.);
#728 = FACE_BOUND('',#729,.T.);
#729 = EDGE_LOOP('',(#730,#738,#739,#740));
#730 = ORIENTED_EDGE('',*,*,#731,.F.);
#731 = EDGE_CURVE('',#272,#732,#734,.T.);
#732 = VERTEX_POINT('',#733);
#733 = CARTESIAN_POINT('',(2.25,-42.75,4.999869));
#734 = LINE('',#735,#736);
#735 = CARTESIAN_POINT('',(4.,-41.,4.999869));
#736 = VECTOR('',#737,1.);
#737 = DIRECTION('',(-0.707106781187,-0.707106781187,1.570092458684E-16)
  );
#738 = ORIENTED_EDGE('',*,*,#271,.T.);
#739 = ORIENTED_EDGE('',*,*,#731,.T.);
#740 = ORIENTED_EDGE('',*,*,#741,.F.);
#741 = EDGE_CURVE('',#732,#732,#742,.T.);
#742 = CIRCLE('',#743,2.25);
#743 = AXIS2_PLACEMENT_3D('',#744,#745,#746);
#744 = CARTESIAN_POINT('',(0.,-42.75,4.999869));
#745 = DIRECTION('',(0.,1.,-2.22044604925E-16));
#746 = DIRECTION('',(1.,0.,0.));
#747 = CONICAL_SURFACE('',#748,4.,0.785398163397);
#748 = AXIS2_PLACEMENT_3D('',#749,#750,#751);
#749 = CARTESIAN_POINT('',(0.,-41.,4.999869));
#750 = DIRECTION('',(0.,1.,-2.22044604925E-16));
#751 = DIRECTION('',(1.,0.,0.));
#752 = ADVANCED_FACE('',(#753),#772,.F.);
#753 = FACE_BOUND('',#754,.T.);
#754 = EDGE_LOOP('',(#755,#763,#764,#765));
#755 = ORIENTED_EDGE('',*,*,#756,.F.);
#756 = EDGE_CURVE('',#305,#757,#759,.T.);
#757 = VERTEX_POINT('',#758);
#758 = CARTESIAN_POINT('',(32.250422,-42.75,4.99977));
#759 = LINE('',#760,#761);
#760 = CARTESIAN_POINT('',(34.000422,-41.,4.99977));
#761 = VECTOR('',#762,1.);
#762 = DIRECTION('',(-0.707106781187,-0.707106781187,1.570092458684E-16)
  );
#763 = ORIENTED_EDGE('',*,*,#304,.T.);
#764 = ORIENTED_EDGE('',*,*,#756,.T.);
#765 = ORIENTED_EDGE('',*,*,#766,.F.);
#766 = EDGE_CURVE('',#757,#757,#767,.T.);
#767 = CIRCLE('',#768,2.25);
#768 = AXIS2_PLACEMENT_3D('',#769,#770,#771);
#769 = CARTESIAN_POINT('',(30.000422,-42.75,4.99977));
#770 = DIRECTION('',(0.,1.,-2.22044604925E-16));
#771 = DIRECTION('',(1.,0.,0.));
#772 = CONICAL_SURFACE('',#773,4.,0.785398163397);
#773 = AXIS2_PLACEMENT_3D('',#774,#775,#776);
#774 = CARTESIAN_POINT('',(30.000422,-41.,4.99977));
#775 = DIRECTION('',(0.,1.,-2.22044604925E-16));
#776 = DIRECTION('',(1.,0.,0.));
#777 = ADVANCED_FACE('',(#778),#797,.F.);
#778 = FACE_BOUND('',#779,.F.);
#779 = EDGE_LOOP('',(#780,#788,#795,#796));
#780 = ORIENTED_EDGE('',*,*,#781,.T.);
#781 = EDGE_CURVE('',#371,#782,#784,.T.);
#782 = VERTEX_POINT('',#783);
#783 = CARTESIAN_POINT('',(-43.01298950381,-47.650038,94.999992));
#784 = LINE('',#785,#786);
#785 = CARTESIAN_POINT('',(-58.01298950381,-47.650038,94.999992));
#786 = VECTOR('',#787,1.);
#787 = DIRECTION('',(1.,0.,0.));
#788 = ORIENTED_EDGE('',*,*,#789,.T.);
#789 = EDGE_CURVE('',#782,#782,#790,.T.);
#790 = CIRCLE('',#791,1.65);
#791 = AXIS2_PLACEMENT_3D('',#792,#793,#794);
#792 = CARTESIAN_POINT('',(-43.01298950381,-46.000038,94.999992));
#793 = DIRECTION('',(-1.,0.,0.));
#794 = DIRECTION('',(0.,-1.,0.));
#795 = ORIENTED_EDGE('',*,*,#781,.F.);
#796 = ORIENTED_EDGE('',*,*,#370,.F.);
#797 = CYLINDRICAL_SURFACE('',#798,1.65);
#798 = AXIS2_PLACEMENT_3D('',#799,#800,#801);
#799 = CARTESIAN_POINT('',(-58.01298950381,-46.000038,94.999992));
#800 = DIRECTION('',(-1.,0.,0.));
#801 = DIRECTION('',(0.,-1.,0.));
#802 = ADVANCED_FACE('',(#803),#822,.F.);
#803 = FACE_BOUND('',#804,.F.);
#804 = EDGE_LOOP('',(#805,#813,#820,#821));
#805 = ORIENTED_EDGE('',*,*,#806,.T.);
#806 = EDGE_CURVE('',#382,#807,#809,.T.);
#807 = VERTEX_POINT('',#808);
#808 = CARTESIAN_POINT('',(-43.01298950381,-47.650008,64.999947));
#809 = LINE('',#810,#811);
#810 = CARTESIAN_POINT('',(-58.01298950381,-47.650008,64.999947));
#811 = VECTOR('',#812,1.);
#812 = DIRECTION('',(1.,0.,0.));
#813 = ORIENTED_EDGE('',*,*,#814,.T.);
#814 = EDGE_CURVE('',#807,#807,#815,.T.);
#815 = CIRCLE('',#816,1.65);
#816 = AXIS2_PLACEMENT_3D('',#817,#818,#819);
#817 = CARTESIAN_POINT('',(-43.01298950381,-46.000008,64.999947));
#818 = DIRECTION('',(-1.,0.,0.));
#819 = DIRECTION('',(0.,-1.,0.));
#820 = ORIENTED_EDGE('',*,*,#806,.F.);
#821 = ORIENTED_EDGE('',*,*,#381,.F.);
#822 = CYLINDRICAL_SURFACE('',#823,1.65);
#823 = AXIS2_PLACEMENT_3D('',#824,#825,#826);
#824 = CARTESIAN_POINT('',(-58.01298950381,-46.000008,64.999947));
#825 = DIRECTION('',(-1.,0.,0.));
#826 = DIRECTION('',(0.,-1.,0.));
#827 = ADVANCED_FACE('',(#828),#847,.F.);
#828 = FACE_BOUND('',#829,.F.);
#829 = EDGE_LOOP('',(#830,#838,#845,#846));
#830 = ORIENTED_EDGE('',*,*,#831,.T.);
#831 = EDGE_CURVE('',#393,#832,#834,.T.);
#832 = VERTEX_POINT('',#833);
#833 = CARTESIAN_POINT('',(-43.01298950381,-47.650473,34.995972));
#834 = LINE('',#835,#836);
#835 = CARTESIAN_POINT('',(-58.01298950381,-47.650473,34.995972));
#836 = VECTOR('',#837,1.);
#837 = DIRECTION('',(1.,0.,0.));
#838 = ORIENTED_EDGE('',*,*,#839,.T.);
#839 = EDGE_CURVE('',#832,#832,#840,.T.);
#840 = CIRCLE('',#841,1.65);
#841 = AXIS2_PLACEMENT_3D('',#842,#843,#844);
#842 = CARTESIAN_POINT('',(-43.01298950381,-46.000473,34.995972));
#843 = DIRECTION('',(-1.,0.,0.));
#844 = DIRECTION('',(0.,-1.,0.));
#845 = ORIENTED_EDGE('',*,*,#831,.F.);
#846 = ORIENTED_EDGE('',*,*,#392,.F.);
#847 = CYLINDRICAL_SURFACE('',#848,1.65);
#848 = AXIS2_PLACEMENT_3D('',#849,#850,#851);
#849 = CARTESIAN_POINT('',(-58.01298950381,-46.000473,34.995972));
#850 = DIRECTION('',(-1.,0.,0.));
#851 = DIRECTION('',(0.,-1.,0.));
#852 = ADVANCED_FACE('',(#853),#856,.T.);
#853 = FACE_BOUND('',#854,.T.);
#854 = EDGE_LOOP('',(#855));
#855 = ORIENTED_EDGE('',*,*,#417,.T.);
#856 = PLANE('',#857);
#857 = AXIS2_PLACEMENT_3D('',#858,#859,#860);
#858 = CARTESIAN_POINT('',(-4.513333333347E-04,-46.00970066666,
    109.012421));
#859 = DIRECTION('',(0.,0.,1.));
#860 = DIRECTION('',(1.,0.,0.));
#861 = ADVANCED_FACE('',(#862),#865,.T.);
#862 = FACE_BOUND('',#863,.T.);
#863 = EDGE_LOOP('',(#864));
#864 = ORIENTED_EDGE('',*,*,#442,.T.);
#865 = PLANE('',#866);
#866 = AXIS2_PLACEMENT_3D('',#867,#868,#869);
#867 = CARTESIAN_POINT('',(-4.513333333347E-04,-46.00970066666,
    109.012421));
#868 = DIRECTION('',(0.,0.,1.));
#869 = DIRECTION('',(1.,0.,0.));
#870 = ADVANCED_FACE('',(#871),#874,.T.);
#871 = FACE_BOUND('',#872,.T.);
#872 = EDGE_LOOP('',(#873));
#873 = ORIENTED_EDGE('',*,*,#467,.T.);
#874 = PLANE('',#875);
#875 = AXIS2_PLACEMENT_3D('',#876,#877,#878);
#876 = CARTESIAN_POINT('',(-4.513333333347E-04,-46.00970066666,
    109.012421));
#877 = DIRECTION('',(0.,0.,1.));
#878 = DIRECTION('',(1.,0.,0.));
#879 = ADVANCED_FACE('',(#880),#891,.F.);
#880 = FACE_BOUND('',#881,.T.);
#881 = EDGE_LOOP('',(#882,#883,#889,#890));
#882 = ORIENTED_EDGE('',*,*,#741,.T.);
#883 = ORIENTED_EDGE('',*,*,#884,.T.);
#884 = EDGE_CURVE('',#732,#501,#885,.T.);
#885 = LINE('',#886,#887);
#886 = CARTESIAN_POINT('',(2.25,-42.75,4.999869));
#887 = VECTOR('',#888,1.);
#888 = DIRECTION('',(-6.105453094734E-17,-1.,2.22044604925E-16));
#889 = ORIENTED_EDGE('',*,*,#500,.T.);
#890 = ORIENTED_EDGE('',*,*,#884,.F.);
#891 = CYLINDRICAL_SURFACE('',#892,2.25);
#892 = AXIS2_PLACEMENT_3D('',#893,#894,#895);
#893 = CARTESIAN_POINT('',(0.,-42.75,4.999869));
#894 = DIRECTION('',(0.,-1.,2.22044604925E-16));
#895 = DIRECTION('',(1.,0.,0.));
#896 = ADVANCED_FACE('',(#897),#908,.F.);
#897 = FACE_BOUND('',#898,.T.);
#898 = EDGE_LOOP('',(#899,#900,#906,#907));
#899 = ORIENTED_EDGE('',*,*,#716,.T.);
#900 = ORIENTED_EDGE('',*,*,#901,.T.);
#901 = EDGE_CURVE('',#707,#512,#902,.T.);
#902 = LINE('',#903,#904);
#903 = CARTESIAN_POINT('',(-27.744305,-42.75,5.00097));
#904 = VECTOR('',#905,1.);
#905 = DIRECTION('',(-6.105453094734E-17,-1.,2.22044604925E-16));
#906 = ORIENTED_EDGE('',*,*,#511,.T.);
#907 = ORIENTED_EDGE('',*,*,#901,.F.);
#908 = CYLINDRICAL_SURFACE('',#909,2.25);
#909 = AXIS2_PLACEMENT_3D('',#910,#911,#912);
#910 = CARTESIAN_POINT('',(-29.994305,-42.75,5.00097));
#911 = DIRECTION('',(0.,-1.,2.22044604925E-16));
#912 = DIRECTION('',(1.,0.,0.));
#913 = ADVANCED_FACE('',(#914),#925,.F.);
#914 = FACE_BOUND('',#915,.T.);
#915 = EDGE_LOOP('',(#916,#917,#923,#924));
#916 = ORIENTED_EDGE('',*,*,#766,.T.);
#917 = ORIENTED_EDGE('',*,*,#918,.T.);
#918 = EDGE_CURVE('',#757,#523,#919,.T.);
#919 = LINE('',#920,#921);
#920 = CARTESIAN_POINT('',(32.250422,-42.75,4.99977));
#921 = VECTOR('',#922,1.);
#922 = DIRECTION('',(-6.105453094734E-17,-1.,2.22044604925E-16));
#923 = ORIENTED_EDGE('',*,*,#522,.T.);
#924 = ORIENTED_EDGE('',*,*,#918,.F.);
#925 = CYLINDRICAL_SURFACE('',#926,2.25);
#926 = AXIS2_PLACEMENT_3D('',#927,#928,#929);
#927 = CARTESIAN_POINT('',(30.000422,-42.75,4.99977));
#928 = DIRECTION('',(0.,-1.,2.22044604925E-16));
#929 = DIRECTION('',(1.,0.,0.));
#930 = ADVANCED_FACE('',(#931),#934,.T.);
#931 = FACE_BOUND('',#932,.T.);
#932 = EDGE_LOOP('',(#933));
#933 = ORIENTED_EDGE('',*,*,#571,.T.);
#934 = PLANE('',#935);
#935 = AXIS2_PLACEMENT_3D('',#936,#937,#938);
#936 = CARTESIAN_POINT('',(42.986998,-46.00091666666,64.999027333333));
#937 = DIRECTION('',(1.,0.,0.));
#938 = DIRECTION('',(0.,0.,1.));
#939 = ADVANCED_FACE('',(#940),#943,.T.);
#940 = FACE_BOUND('',#941,.T.);
#941 = EDGE_LOOP('',(#942));
#942 = ORIENTED_EDGE('',*,*,#596,.T.);
#943 = PLANE('',#944);
#944 = AXIS2_PLACEMENT_3D('',#945,#946,#947);
#945 = CARTESIAN_POINT('',(42.986998,-46.00091666666,64.999027333333));
#946 = DIRECTION('',(1.,0.,0.));
#947 = DIRECTION('',(0.,0.,1.));
#948 = ADVANCED_FACE('',(#949),#952,.T.);
#949 = FACE_BOUND('',#950,.T.);
#950 = EDGE_LOOP('',(#951));
#951 = ORIENTED_EDGE('',*,*,#621,.T.);
#952 = PLANE('',#953);
#953 = AXIS2_PLACEMENT_3D('',#954,#955,#956);
#954 = CARTESIAN_POINT('',(42.986998,-46.00091666666,64.999027333333));
#955 = DIRECTION('',(1.,0.,0.));
#956 = DIRECTION('',(0.,0.,1.));
#957 = ADVANCED_FACE('',(#958),#961,.F.);
#958 = FACE_BOUND('',#959,.T.);
#959 = EDGE_LOOP('',(#960));
#960 = ORIENTED_EDGE('',*,*,#789,.T.);
#961 = PLANE('',#962);
#962 = AXIS2_PLACEMENT_3D('',#963,#964,#965);
#963 = CARTESIAN_POINT('',(-43.01298950381,-46.000173,64.998637));
#964 = DIRECTION('',(1.,0.,0.));
#965 = DIRECTION('',(0.,0.,1.));
#966 = ADVANCED_FACE('',(#967),#970,.F.);
#967 = FACE_BOUND('',#968,.T.);
#968 = EDGE_LOOP('',(#969));
#969 = ORIENTED_EDGE('',*,*,#814,.T.);
#970 = PLANE('',#971);
#971 = AXIS2_PLACEMENT_3D('',#972,#973,#974);
#972 = CARTESIAN_POINT('',(-43.01298950381,-46.000173,64.998637));
#973 = DIRECTION('',(1.,0.,0.));
#974 = DIRECTION('',(0.,0.,1.));
#975 = ADVANCED_FACE('',(#976),#979,.F.);
#976 = FACE_BOUND('',#977,.T.);
#977 = EDGE_LOOP('',(#978));
#978 = ORIENTED_EDGE('',*,*,#839,.T.);
#979 = PLANE('',#980);
#980 = AXIS2_PLACEMENT_3D('',#981,#982,#983);
#981 = CARTESIAN_POINT('',(-43.01298950381,-46.000173,64.998637));
#982 = DIRECTION('',(1.,0.,0.));
#983 = DIRECTION('',(0.,0.,1.));
#984 = ( GEOMETRIC_REPRESENTATION_CONTEXT(3) 
GLOBAL_UNCERTAINTY_ASSIGNED_CONTEXT((#988)) GLOBAL_UNIT_ASSIGNED_CONTEXT
((#985,#986,#987)) REPRESENTATION_CONTEXT('Context #1',
  '3D Context with UNIT and UNCERTAINTY') );
#985 = ( LENGTH_UNIT() NAMED_UNIT(*) SI_UNIT(.MILLI.,.METRE.) );
#986 = ( NAMED_UNIT(*) PLANE_ANGLE_UNIT() SI_UNIT($,.RADIAN.) );
#987 = ( NAMED_UNIT(*) SI_UNIT($,.STERADIAN.) SOLID_ANGLE_UNIT() );
#988 = UNCERTAINTY_MEASURE_WITH_UNIT(LENGTH_MEASURE(1.E-05),#985,
  'distance_accuracy_value','confusion accuracy');
#989 = PRODUCT_RELATED_PRODUCT_CATEGORY('part',$,(#7));
#990 = MECHANICAL_DESIGN_GEOMETRIC_PRESENTATION_REPRESENTATION('',(#991)
  ,#984);
#991 = STYLED_ITEM('color',(#992),#15);
#992 = PRESENTATION_STYLE_ASSIGNMENT((#993,#999));
#993 = SURFACE_STYLE_USAGE(.BOTH.,#994);
#994 = SURFACE_SIDE_STYLE('',(#995));
#995 = SURFACE_STYLE_FILL_AREA(#996);
#996 = FILL_AREA_STYLE('',(#997));
#997 = FILL_AREA_STYLE_COLOUR('',#998);
#998 = COLOUR_RGB('',0.678431390124,0.709803936702,0.741176476869);
#999 = CURVE_STYLE('',#1000,POSITIVE_LENGTH_MEASURE(0.1),#1001);
#1000 = DRAUGHTING_PRE_DEFINED_CURVE_FONT('continuous');
#1001 = COLOUR_RGB('',9.803921802644E-02,9.803921802644E-02,
  9.803921802644E-02);
ENDSEC;
END-ISO-10303-21;
