ISO-10303-21;
HEADER;
FILE_DESCRIPTION(('FreeCAD Model'),'2;1');
FILE_NAME('Open CASCADE Shape Model','2026-08-29T15:53:13',(''),(''),
  'Open CASCADE STEP processor 7.8','FreeCAD','Unknown');
FILE_SCHEMA(('AUTOMOTIVE_DESIGN { 1 0 10303 214 1 1 1 1 }'));
ENDSEC;
DATA;
#1 = APPLICATION_PROTOCOL_DEFINITION('international standard',
  'automotive_design',2000,#2);
#2 = APPLICATION_CONTEXT(
  'core data for automotive mechanical design processes');
#3 = SHAPE_DEFINITION_REPRESENTATION(#4,#10);
#4 = PRODUCT_DEFINITION_SHAPE('','',#5);
#5 = PRODUCT_DEFINITION('design','',#6,#9);
#6 = PRODUCT_DEFINITION_FORMATION('','',#7);
#7 = PRODUCT('Vixen Saddle','Vixen Saddle','',(#8));
#8 = PRODUCT_CONTEXT('',#2,'mechanical');
#9 = PRODUCT_DEFINITION_CONTEXT('part definition',#2,'design');
#10 = ADVANCED_BREP_SHAPE_REPRESENTATION('',(#11,#15),#1152);
#11 = AXIS2_PLACEMENT_3D('',#12,#13,#14);
#12 = CARTESIAN_POINT('',(0.,0.,0.));
#13 = DIRECTION('',(0.,0.,1.));
#14 = DIRECTION('',(1.,0.,-0.));
#15 = MANIFOLD_SOLID_BREP('',#16);
#16 = CLOSED_SHELL('',(#17,#89,#229,#253,#277,#308,#339,#401,#441,#535,
    #581,#605,#629,#653,#679,#704,#729,#746,#771,#796,#821,#846,#862,
    #878,#902,#926,#943,#960,#977,#994,#1011,#1028,#1045,#1062,#1079,
    #1096,#1113,#1130,#1141));
#17 = ADVANCED_FACE('',(#18),#84,.F.);
#18 = FACE_BOUND('',#19,.F.);
#19 = EDGE_LOOP('',(#20,#30,#38,#46,#54,#62,#70,#78));
#20 = ORIENTED_EDGE('',*,*,#21,.F.);
#21 = EDGE_CURVE('',#22,#24,#26,.T.);
#22 = VERTEX_POINT('',#23);
#23 = CARTESIAN_POINT('',(-34.,-35.,0.));
#24 = VERTEX_POINT('',#25);
#25 = CARTESIAN_POINT('',(34.,-35.,0.));
#26 = LINE('',#27,#28);
#27 = CARTESIAN_POINT('',(-35.,-35.,0.));
#28 = VECTOR('',#29,1.);
#29 = DIRECTION('',(1.,0.,0.));
#30 = ORIENTED_EDGE('',*,*,#31,.T.);
#31 = EDGE_CURVE('',#22,#32,#34,.T.);
#32 = VERTEX_POINT('',#33);
#33 = CARTESIAN_POINT('',(-34.,-35.,21.));
#34 = LINE('',#35,#36);
#35 = CARTESIAN_POINT('',(-34.,-35.,0.));
#36 = VECTOR('',#37,1.);
#37 = DIRECTION('',(0.,0.,1.));
#38 = ORIENTED_EDGE('',*,*,#39,.T.);
#39 = EDGE_CURVE('',#32,#40,#42,.T.);
#40 = VERTEX_POINT('',#41);
#41 = CARTESIAN_POINT('',(-23.041576,-35.,21.));
#42 = LINE('',#43,#44);
#43 = CARTESIAN_POINT('',(-35.,-35.,21.));
#44 = VECTOR('',#45,1.);
#45 = DIRECTION('',(1.,0.,0.));
#46 = ORIENTED_EDGE('',*,*,#47,.F.);
#47 = EDGE_CURVE('',#48,#40,#50,.T.);
#48 = VERTEX_POINT('',#49);
#49 = CARTESIAN_POINT('',(-23.041576,-35.,10.08804));
#50 = LINE('',#51,#52);
#51 = CARTESIAN_POINT('',(-23.041576,-35.,5.04402));
#52 = VECTOR('',#53,1.);
#53 = DIRECTION('',(0.,0.,1.));
#54 = ORIENTED_EDGE('',*,*,#55,.T.);
#55 = EDGE_CURVE('',#48,#56,#58,.T.);
#56 = VERTEX_POINT('',#57);
#57 = CARTESIAN_POINT('',(22.958424,-35.,10.08804));
#58 = LINE('',#59,#60);
#59 = CARTESIAN_POINT('',(-29.020788,-35.,10.08804));
#60 = VECTOR('',#61,1.);
#61 = DIRECTION('',(1.,0.,0.));
#62 = ORIENTED_EDGE('',*,*,#63,.T.);
#63 = EDGE_CURVE('',#56,#64,#66,.T.);
#64 = VERTEX_POINT('',#65);
#65 = CARTESIAN_POINT('',(20.034573843629,-35.,21.));
#66 = LINE('',#67,#68);
#67 = CARTESIAN_POINT('',(22.278190504273,-35.,12.626706586541));
#68 = VECTOR('',#69,1.);
#69 = DIRECTION('',(-0.258818986177,0.,0.965925842078));
#70 = ORIENTED_EDGE('',*,*,#71,.T.);
#71 = EDGE_CURVE('',#64,#72,#74,.T.);
#72 = VERTEX_POINT('',#73);
#73 = CARTESIAN_POINT('',(34.,-35.,21.));
#74 = LINE('',#75,#76);
#75 = CARTESIAN_POINT('',(19.766624716582,-35.,21.));
#76 = VECTOR('',#77,1.);
#77 = DIRECTION('',(1.,0.,0.));
#78 = ORIENTED_EDGE('',*,*,#79,.F.);
#79 = EDGE_CURVE('',#24,#72,#80,.T.);
#80 = LINE('',#81,#82);
#81 = CARTESIAN_POINT('',(34.,-35.,0.));
#82 = VECTOR('',#83,1.);
#83 = DIRECTION('',(0.,0.,1.));
#84 = PLANE('',#85);
#85 = AXIS2_PLACEMENT_3D('',#86,#87,#88);
#86 = CARTESIAN_POINT('',(-35.,-35.,0.));
#87 = DIRECTION('',(0.,1.,0.));
#88 = DIRECTION('',(1.,0.,0.));
#89 = ADVANCED_FACE('',(#90,#147,#158,#169,#180,#191,#202,#213),#224,.F.
  );
#90 = FACE_BOUND('',#91,.F.);
#91 = EDGE_LOOP('',(#92,#93,#101,#109,#117,#125,#133,#141));
#92 = ORIENTED_EDGE('',*,*,#21,.T.);
#93 = ORIENTED_EDGE('',*,*,#94,.T.);
#94 = EDGE_CURVE('',#24,#95,#97,.T.);
#95 = VERTEX_POINT('',#96);
#96 = CARTESIAN_POINT('',(35.,-34.,0.));
#97 = LINE('',#98,#99);
#98 = CARTESIAN_POINT('',(34.499999939123,-34.50000006087,0.));
#99 = VECTOR('',#100,1.);
#100 = DIRECTION('',(0.707106781187,0.707106781187,0.));
#101 = ORIENTED_EDGE('',*,*,#102,.T.);
#102 = EDGE_CURVE('',#95,#103,#105,.T.);
#103 = VERTEX_POINT('',#104);
#104 = CARTESIAN_POINT('',(35.,34.,0.));
#105 = LINE('',#106,#107);
#106 = CARTESIAN_POINT('',(35.,-35.,0.));
#107 = VECTOR('',#108,1.);
#108 = DIRECTION('',(0.,1.,0.));
#109 = ORIENTED_EDGE('',*,*,#110,.T.);
#110 = EDGE_CURVE('',#103,#111,#113,.T.);
#111 = VERTEX_POINT('',#112);
#112 = CARTESIAN_POINT('',(34.,35.,0.));
#113 = LINE('',#114,#115);
#114 = CARTESIAN_POINT('',(34.500000060877,34.499999939123,0.));
#115 = VECTOR('',#116,1.);
#116 = DIRECTION('',(-0.707106781187,0.707106781187,0.));
#117 = ORIENTED_EDGE('',*,*,#118,.T.);
#118 = EDGE_CURVE('',#111,#119,#121,.T.);
#119 = VERTEX_POINT('',#120);
#120 = CARTESIAN_POINT('',(-34.,35.,0.));
#121 = LINE('',#122,#123);
#122 = CARTESIAN_POINT('',(35.,35.,0.));
#123 = VECTOR('',#124,1.);
#124 = DIRECTION('',(-1.,0.,0.));
#125 = ORIENTED_EDGE('',*,*,#126,.F.);
#126 = EDGE_CURVE('',#127,#119,#129,.T.);
#127 = VERTEX_POINT('',#128);
#128 = CARTESIAN_POINT('',(-35.,34.,0.));
#129 = LINE('',#130,#131);
#130 = CARTESIAN_POINT('',(-34.50000006087,34.499999939123,0.));
#131 = VECTOR('',#132,1.);
#132 = DIRECTION('',(0.707106781187,0.707106781187,0.));
#133 = ORIENTED_EDGE('',*,*,#134,.T.);
#134 = EDGE_CURVE('',#127,#135,#137,.T.);
#135 = VERTEX_POINT('',#136);
#136 = CARTESIAN_POINT('',(-35.,-34.,0.));
#137 = LINE('',#138,#139);
#138 = CARTESIAN_POINT('',(-35.,35.,0.));
#139 = VECTOR('',#140,1.);
#140 = DIRECTION('',(0.,-1.,0.));
#141 = ORIENTED_EDGE('',*,*,#142,.F.);
#142 = EDGE_CURVE('',#22,#135,#143,.T.);
#143 = LINE('',#144,#145);
#144 = CARTESIAN_POINT('',(-34.49999993912,-34.50000006087,0.));
#145 = VECTOR('',#146,1.);
#146 = DIRECTION('',(-0.707106781187,0.707106781187,0.));
#147 = FACE_BOUND('',#148,.F.);
#148 = EDGE_LOOP('',(#149));
#149 = ORIENTED_EDGE('',*,*,#150,.T.);
#150 = EDGE_CURVE('',#151,#151,#153,.T.);
#151 = VERTEX_POINT('',#152);
#152 = CARTESIAN_POINT('',(-3.6,-9.786087062764,0.));
#153 = CIRCLE('',#154,2.05);
#154 = AXIS2_PLACEMENT_3D('',#155,#156,#157);
#155 = CARTESIAN_POINT('',(-5.65,-9.786087062764,0.));
#156 = DIRECTION('',(0.,0.,-1.));
#157 = DIRECTION('',(1.,0.,0.));
#158 = FACE_BOUND('',#159,.F.);
#159 = EDGE_LOOP('',(#160));
#160 = ORIENTED_EDGE('',*,*,#161,.T.);
#161 = EDGE_CURVE('',#162,#162,#164,.T.);
#162 = VERTEX_POINT('',#163);
#163 = CARTESIAN_POINT('',(7.7,-9.786087062764,0.));
#164 = CIRCLE('',#165,2.05);
#165 = AXIS2_PLACEMENT_3D('',#166,#167,#168);
#166 = CARTESIAN_POINT('',(5.65,-9.786087062764,0.));
#167 = DIRECTION('',(0.,0.,-1.));
#168 = DIRECTION('',(1.,0.,0.));
#169 = FACE_BOUND('',#170,.F.);
#170 = EDGE_LOOP('',(#171));
#171 = ORIENTED_EDGE('',*,*,#172,.F.);
#172 = EDGE_CURVE('',#173,#173,#175,.T.);
#173 = VERTEX_POINT('',#174);
#174 = CARTESIAN_POINT('',(2.,-6.8043488058E-06,0.));
#175 = CIRCLE('',#176,2.);
#176 = AXIS2_PLACEMENT_3D('',#177,#178,#179);
#177 = CARTESIAN_POINT('',(0.,-6.8043488058E-06,0.));
#178 = DIRECTION('',(0.,0.,1.));
#179 = DIRECTION('',(1.,0.,0.));
#180 = FACE_BOUND('',#181,.F.);
#181 = EDGE_LOOP('',(#182));
#182 = ORIENTED_EDGE('',*,*,#183,.T.);
#183 = EDGE_CURVE('',#184,#184,#186,.T.);
#184 = VERTEX_POINT('',#185);
#185 = CARTESIAN_POINT('',(-9.25,3.239994856268E-15,0.));
#186 = CIRCLE('',#187,2.05);
#187 = AXIS2_PLACEMENT_3D('',#188,#189,#190);
#188 = CARTESIAN_POINT('',(-11.3,3.239994856268E-15,0.));
#189 = DIRECTION('',(0.,0.,-1.));
#190 = DIRECTION('',(1.,0.,0.));
#191 = FACE_BOUND('',#192,.F.);
#192 = EDGE_LOOP('',(#193));
#193 = ORIENTED_EDGE('',*,*,#194,.T.);
#194 = EDGE_CURVE('',#195,#195,#197,.T.);
#195 = VERTEX_POINT('',#196);
#196 = CARTESIAN_POINT('',(-3.6,9.786087062764,0.));
#197 = CIRCLE('',#198,2.05);
#198 = AXIS2_PLACEMENT_3D('',#199,#200,#201);
#199 = CARTESIAN_POINT('',(-5.65,9.786087062764,0.));
#200 = DIRECTION('',(0.,0.,-1.));
#201 = DIRECTION('',(1.,0.,0.));
#202 = FACE_BOUND('',#203,.F.);
#203 = EDGE_LOOP('',(#204));
#204 = ORIENTED_EDGE('',*,*,#205,.T.);
#205 = EDGE_CURVE('',#206,#206,#208,.T.);
#206 = VERTEX_POINT('',#207);
#207 = CARTESIAN_POINT('',(13.35,2.239994856268E-15,0.));
#208 = CIRCLE('',#209,2.05);
#209 = AXIS2_PLACEMENT_3D('',#210,#211,#212);
#210 = CARTESIAN_POINT('',(11.3,2.239994856268E-15,0.));
#211 = DIRECTION('',(0.,0.,-1.));
#212 = DIRECTION('',(1.,0.,0.));
#213 = FACE_BOUND('',#214,.F.);
#214 = EDGE_LOOP('',(#215));
#215 = ORIENTED_EDGE('',*,*,#216,.T.);
#216 = EDGE_CURVE('',#217,#217,#219,.T.);
#217 = VERTEX_POINT('',#218);
#218 = CARTESIAN_POINT('',(7.7,9.786087062764,0.));
#219 = CIRCLE('',#220,2.05);
#220 = AXIS2_PLACEMENT_3D('',#221,#222,#223);
#221 = CARTESIAN_POINT('',(5.65,9.786087062764,0.));
#222 = DIRECTION('',(0.,0.,-1.));
#223 = DIRECTION('',(1.,0.,0.));
#224 = PLANE('',#225);
#225 = AXIS2_PLACEMENT_3D('',#226,#227,#228);
#226 = CARTESIAN_POINT('',(0.,-2.435080607172E-07,0.));
#227 = DIRECTION('',(0.,0.,1.));
#228 = DIRECTION('',(1.,0.,0.));
#229 = ADVANCED_FACE('',(#230),#248,.T.);
#230 = FACE_BOUND('',#231,.T.);
#231 = EDGE_LOOP('',(#232,#233,#234,#242));
#232 = ORIENTED_EDGE('',*,*,#142,.F.);
#233 = ORIENTED_EDGE('',*,*,#31,.T.);
#234 = ORIENTED_EDGE('',*,*,#235,.F.);
#235 = EDGE_CURVE('',#236,#32,#238,.T.);
#236 = VERTEX_POINT('',#237);
#237 = CARTESIAN_POINT('',(-35.,-34.,21.));
#238 = LINE('',#239,#240);
#239 = CARTESIAN_POINT('',(-34.75,-34.25,21.));
#240 = VECTOR('',#241,1.);
#241 = DIRECTION('',(0.707106781187,-0.707106781187,0.));
#242 = ORIENTED_EDGE('',*,*,#243,.F.);
#243 = EDGE_CURVE('',#135,#236,#244,.T.);
#244 = LINE('',#245,#246);
#245 = CARTESIAN_POINT('',(-35.,-34.,0.));
#246 = VECTOR('',#247,1.);
#247 = DIRECTION('',(0.,0.,1.));
#248 = PLANE('',#249);
#249 = AXIS2_PLACEMENT_3D('',#250,#251,#252);
#250 = CARTESIAN_POINT('',(-34.5,-34.5,0.));
#251 = DIRECTION('',(-0.707106781187,-0.707106781187,0.));
#252 = DIRECTION('',(0.,0.,1.));
#253 = ADVANCED_FACE('',(#254),#272,.T.);
#254 = FACE_BOUND('',#255,.F.);
#255 = EDGE_LOOP('',(#256,#257,#258,#266));
#256 = ORIENTED_EDGE('',*,*,#94,.F.);
#257 = ORIENTED_EDGE('',*,*,#79,.T.);
#258 = ORIENTED_EDGE('',*,*,#259,.T.);
#259 = EDGE_CURVE('',#72,#260,#262,.T.);
#260 = VERTEX_POINT('',#261);
#261 = CARTESIAN_POINT('',(35.,-34.,21.));
#262 = LINE('',#263,#264);
#263 = CARTESIAN_POINT('',(34.25,-34.75,21.));
#264 = VECTOR('',#265,1.);
#265 = DIRECTION('',(0.707106781187,0.707106781187,0.));
#266 = ORIENTED_EDGE('',*,*,#267,.F.);
#267 = EDGE_CURVE('',#95,#260,#268,.T.);
#268 = LINE('',#269,#270);
#269 = CARTESIAN_POINT('',(35.,-34.,0.));
#270 = VECTOR('',#271,1.);
#271 = DIRECTION('',(0.,0.,1.));
#272 = PLANE('',#273);
#273 = AXIS2_PLACEMENT_3D('',#274,#275,#276);
#274 = CARTESIAN_POINT('',(34.5,-34.5,0.));
#275 = DIRECTION('',(0.707106781187,-0.707106781187,0.));
#276 = DIRECTION('',(-0.,-0.,-1.));
#277 = ADVANCED_FACE('',(#278),#303,.F.);
#278 = FACE_BOUND('',#279,.T.);
#279 = EDGE_LOOP('',(#280,#281,#289,#297));
#280 = ORIENTED_EDGE('',*,*,#39,.T.);
#281 = ORIENTED_EDGE('',*,*,#282,.T.);
#282 = EDGE_CURVE('',#40,#283,#285,.T.);
#283 = VERTEX_POINT('',#284);
#284 = CARTESIAN_POINT('',(-23.041576,-34.,22.));
#285 = LINE('',#286,#287);
#286 = CARTESIAN_POINT('',(-23.041576,-19.97799,36.02201));
#287 = VECTOR('',#288,1.);
#288 = DIRECTION('',(0.,0.707106781187,0.707106781187));
#289 = ORIENTED_EDGE('',*,*,#290,.F.);
#290 = EDGE_CURVE('',#291,#283,#293,.T.);
#291 = VERTEX_POINT('',#292);
#292 = CARTESIAN_POINT('',(-34.,-34.,22.));
#293 = LINE('',#294,#295);
#294 = CARTESIAN_POINT('',(-35.,-34.,22.));
#295 = VECTOR('',#296,1.);
#296 = DIRECTION('',(1.,0.,0.));
#297 = ORIENTED_EDGE('',*,*,#298,.F.);
#298 = EDGE_CURVE('',#32,#291,#299,.T.);
#299 = LINE('',#300,#301);
#300 = CARTESIAN_POINT('',(-34.,-34.5,21.5));
#301 = VECTOR('',#302,1.);
#302 = DIRECTION('',(0.,0.707106781187,0.707106781187));
#303 = PLANE('',#304);
#304 = AXIS2_PLACEMENT_3D('',#305,#306,#307);
#305 = CARTESIAN_POINT('',(-35.,-34.5,21.5));
#306 = DIRECTION('',(0.,0.707106781187,-0.707106781187));
#307 = DIRECTION('',(-1.,-0.,-0.));
#308 = ADVANCED_FACE('',(#309),#334,.F.);
#309 = FACE_BOUND('',#310,.T.);
#310 = EDGE_LOOP('',(#311,#319,#320,#328));
#311 = ORIENTED_EDGE('',*,*,#312,.F.);
#312 = EDGE_CURVE('',#64,#313,#315,.T.);
#313 = VERTEX_POINT('',#314);
#314 = CARTESIAN_POINT('',(19.766624716582,-34.,22.));
#315 = LINE('',#316,#317);
#316 = CARTESIAN_POINT('',(16.194946969029,-20.6703139252,35.3296860748)
  );
#317 = VECTOR('',#318,1.);
#318 = DIRECTION('',(-0.186156744046,0.694746596482,0.694746596482));
#319 = ORIENTED_EDGE('',*,*,#71,.T.);
#320 = ORIENTED_EDGE('',*,*,#321,.T.);
#321 = EDGE_CURVE('',#72,#322,#324,.T.);
#322 = VERTEX_POINT('',#323);
#323 = CARTESIAN_POINT('',(34.,-34.,22.));
#324 = LINE('',#325,#326);
#325 = CARTESIAN_POINT('',(34.,-34.75,21.25));
#326 = VECTOR('',#327,1.);
#327 = DIRECTION('',(0.,0.707106781187,0.707106781187));
#328 = ORIENTED_EDGE('',*,*,#329,.F.);
#329 = EDGE_CURVE('',#313,#322,#330,.T.);
#330 = LINE('',#331,#332);
#331 = CARTESIAN_POINT('',(19.766624716582,-34.,22.));
#332 = VECTOR('',#333,1.);
#333 = DIRECTION('',(1.,0.,0.));
#334 = PLANE('',#335);
#335 = AXIS2_PLACEMENT_3D('',#336,#337,#338);
#336 = CARTESIAN_POINT('',(19.766624716582,-34.5,21.5));
#337 = DIRECTION('',(0.,0.707106781187,-0.707106781187));
#338 = DIRECTION('',(-1.,-0.,-0.));
#339 = ADVANCED_FACE('',(#340,#374,#385),#396,.F.);
#340 = FACE_BOUND('',#341,.F.);
#341 = EDGE_LOOP('',(#342,#352,#358,#359,#360,#368));
#342 = ORIENTED_EDGE('',*,*,#343,.F.);
#343 = EDGE_CURVE('',#344,#346,#348,.T.);
#344 = VERTEX_POINT('',#345);
#345 = CARTESIAN_POINT('',(-23.041576,35.,10.08804));
#346 = VERTEX_POINT('',#347);
#347 = CARTESIAN_POINT('',(-23.041576,35.,21.));
#348 = LINE('',#349,#350);
#349 = CARTESIAN_POINT('',(-23.041576,35.,10.08804));
#350 = VECTOR('',#351,1.);
#351 = DIRECTION('',(0.,2.22044604925E-16,1.));
#352 = ORIENTED_EDGE('',*,*,#353,.T.);
#353 = EDGE_CURVE('',#344,#48,#354,.T.);
#354 = LINE('',#355,#356);
#355 = CARTESIAN_POINT('',(-23.041576,35.,10.08804));
#356 = VECTOR('',#357,1.);
#357 = DIRECTION('',(0.,-1.,2.22044604925E-16));
#358 = ORIENTED_EDGE('',*,*,#47,.T.);
#359 = ORIENTED_EDGE('',*,*,#282,.T.);
#360 = ORIENTED_EDGE('',*,*,#361,.F.);
#361 = EDGE_CURVE('',#362,#283,#364,.T.);
#362 = VERTEX_POINT('',#363);
#363 = CARTESIAN_POINT('',(-23.041576,34.,22.));
#364 = LINE('',#365,#366);
#365 = CARTESIAN_POINT('',(-23.041576,17.499999878246,22.));
#366 = VECTOR('',#367,1.);
#367 = DIRECTION('',(0.,-1.,0.));
#368 = ORIENTED_EDGE('',*,*,#369,.T.);
#369 = EDGE_CURVE('',#362,#346,#370,.T.);
#370 = LINE('',#371,#372);
#371 = CARTESIAN_POINT('',(-23.041576,37.47799,18.52201));
#372 = VECTOR('',#373,1.);
#373 = DIRECTION('',(0.,0.707106781187,-0.707106781187));
#374 = FACE_BOUND('',#375,.F.);
#375 = EDGE_LOOP('',(#376));
#376 = ORIENTED_EDGE('',*,*,#377,.F.);
#377 = EDGE_CURVE('',#378,#378,#380,.T.);
#378 = VERTEX_POINT('',#379);
#379 = CARTESIAN_POINT('',(-23.041576,-22.500811,17.007444));
#380 = CIRCLE('',#381,2.5);
#381 = AXIS2_PLACEMENT_3D('',#382,#383,#384);
#382 = CARTESIAN_POINT('',(-23.041576,-20.000811,17.007444));
#383 = DIRECTION('',(-1.,0.,0.));
#384 = DIRECTION('',(0.,-1.,0.));
#385 = FACE_BOUND('',#386,.F.);
#386 = EDGE_LOOP('',(#387));
#387 = ORIENTED_EDGE('',*,*,#388,.F.);
#388 = EDGE_CURVE('',#389,#389,#391,.T.);
#389 = VERTEX_POINT('',#390);
#390 = CARTESIAN_POINT('',(-23.041576,17.502163,17.003685));
#391 = CIRCLE('',#392,2.5);
#392 = AXIS2_PLACEMENT_3D('',#393,#394,#395);
#393 = CARTESIAN_POINT('',(-23.041576,20.002163,17.003685));
#394 = DIRECTION('',(-1.,0.,0.));
#395 = DIRECTION('',(0.,-1.,0.));
#396 = PLANE('',#397);
#397 = AXIS2_PLACEMENT_3D('',#398,#399,#400);
#398 = CARTESIAN_POINT('',(-23.041576,35.,10.08804));
#399 = DIRECTION('',(-1.,0.,0.));
#400 = DIRECTION('',(0.,2.22044604925E-16,1.));
#401 = ADVANCED_FACE('',(#402),#436,.T.);
#402 = FACE_BOUND('',#403,.T.);
#403 = EDGE_LOOP('',(#404,#414,#420,#421,#422,#430));
#404 = ORIENTED_EDGE('',*,*,#405,.F.);
#405 = EDGE_CURVE('',#406,#408,#410,.T.);
#406 = VERTEX_POINT('',#407);
#407 = CARTESIAN_POINT('',(22.958424,35.,10.08804));
#408 = VERTEX_POINT('',#409);
#409 = CARTESIAN_POINT('',(20.034573843629,35.,21.));
#410 = LINE('',#411,#412);
#411 = CARTESIAN_POINT('',(22.958424,35.,10.08804));
#412 = VECTOR('',#413,1.);
#413 = DIRECTION('',(-0.258818986177,2.144786219911E-16,0.965925842078)
  );
#414 = ORIENTED_EDGE('',*,*,#415,.T.);
#415 = EDGE_CURVE('',#406,#56,#416,.T.);
#416 = LINE('',#417,#418);
#417 = CARTESIAN_POINT('',(22.958424,35.,10.08804));
#418 = VECTOR('',#419,1.);
#419 = DIRECTION('',(0.,-1.,2.22044604925E-16));
#420 = ORIENTED_EDGE('',*,*,#63,.T.);
#421 = ORIENTED_EDGE('',*,*,#312,.T.);
#422 = ORIENTED_EDGE('',*,*,#423,.F.);
#423 = EDGE_CURVE('',#424,#313,#426,.T.);
#424 = VERTEX_POINT('',#425);
#425 = CARTESIAN_POINT('',(19.766624716582,34.,22.));
#426 = LINE('',#427,#428);
#427 = CARTESIAN_POINT('',(19.766624716582,17.499999878246,22.));
#428 = VECTOR('',#429,1.);
#429 = DIRECTION('',(5.949665805515E-17,-1.,0.));
#430 = ORIENTED_EDGE('',*,*,#431,.T.);
#431 = EDGE_CURVE('',#424,#408,#432,.T.);
#432 = LINE('',#433,#434);
#433 = CARTESIAN_POINT('',(20.985509953454,38.548942742623,
    17.451057257377));
#434 = VECTOR('',#435,1.);
#435 = DIRECTION('',(0.186156744046,0.694746596482,-0.694746596482));
#436 = PLANE('',#437);
#437 = AXIS2_PLACEMENT_3D('',#438,#439,#440);
#438 = CARTESIAN_POINT('',(22.958424,35.,10.08804));
#439 = DIRECTION('',(-0.965925842078,-5.746935953276E-17,-0.258818986177
    ));
#440 = DIRECTION('',(-0.258818986177,2.144786219911E-16,0.965925842078)
  );
#441 = ADVANCED_FACE('',(#442,#453,#464,#475,#486,#497,#508,#519),#530,
  .T.);
#442 = FACE_BOUND('',#443,.T.);
#443 = EDGE_LOOP('',(#444,#450,#451,#452));
#444 = ORIENTED_EDGE('',*,*,#445,.F.);
#445 = EDGE_CURVE('',#344,#406,#446,.T.);
#446 = LINE('',#447,#448);
#447 = CARTESIAN_POINT('',(-23.041576,35.,10.08804));
#448 = VECTOR('',#449,1.);
#449 = DIRECTION('',(1.,0.,0.));
#450 = ORIENTED_EDGE('',*,*,#353,.T.);
#451 = ORIENTED_EDGE('',*,*,#55,.T.);
#452 = ORIENTED_EDGE('',*,*,#415,.F.);
#453 = FACE_BOUND('',#454,.T.);
#454 = EDGE_LOOP('',(#455));
#455 = ORIENTED_EDGE('',*,*,#456,.F.);
#456 = EDGE_CURVE('',#457,#457,#459,.T.);
#457 = VERTEX_POINT('',#458);
#458 = CARTESIAN_POINT('',(-1.65,-9.786087062764,10.08804));
#459 = CIRCLE('',#460,4.);
#460 = AXIS2_PLACEMENT_3D('',#461,#462,#463);
#461 = CARTESIAN_POINT('',(-5.65,-9.786087062764,10.08804));
#462 = DIRECTION('',(0.,0.,1.));
#463 = DIRECTION('',(1.,0.,0.));
#464 = FACE_BOUND('',#465,.T.);
#465 = EDGE_LOOP('',(#466));
#466 = ORIENTED_EDGE('',*,*,#467,.F.);
#467 = EDGE_CURVE('',#468,#468,#470,.T.);
#468 = VERTEX_POINT('',#469);
#469 = CARTESIAN_POINT('',(-7.3,3.239994856268E-15,10.08804));
#470 = CIRCLE('',#471,4.);
#471 = AXIS2_PLACEMENT_3D('',#472,#473,#474);
#472 = CARTESIAN_POINT('',(-11.3,3.239994856268E-15,10.08804));
#473 = DIRECTION('',(0.,0.,1.));
#474 = DIRECTION('',(1.,0.,0.));
#475 = FACE_BOUND('',#476,.T.);
#476 = EDGE_LOOP('',(#477));
#477 = ORIENTED_EDGE('',*,*,#478,.T.);
#478 = EDGE_CURVE('',#479,#479,#481,.T.);
#479 = VERTEX_POINT('',#480);
#480 = CARTESIAN_POINT('',(2.,-6.8043488058E-06,10.08804));
#481 = CIRCLE('',#482,2.);
#482 = AXIS2_PLACEMENT_3D('',#483,#484,#485);
#483 = CARTESIAN_POINT('',(0.,-6.8043488058E-06,10.08804));
#484 = DIRECTION('',(0.,0.,-1.));
#485 = DIRECTION('',(1.,0.,0.));
#486 = FACE_BOUND('',#487,.T.);
#487 = EDGE_LOOP('',(#488));
#488 = ORIENTED_EDGE('',*,*,#489,.F.);
#489 = EDGE_CURVE('',#490,#490,#492,.T.);
#490 = VERTEX_POINT('',#491);
#491 = CARTESIAN_POINT('',(9.65,-9.786087062764,10.08804));
#492 = CIRCLE('',#493,4.);
#493 = AXIS2_PLACEMENT_3D('',#494,#495,#496);
#494 = CARTESIAN_POINT('',(5.65,-9.786087062764,10.08804));
#495 = DIRECTION('',(0.,0.,1.));
#496 = DIRECTION('',(1.,0.,0.));
#497 = FACE_BOUND('',#498,.T.);
#498 = EDGE_LOOP('',(#499));
#499 = ORIENTED_EDGE('',*,*,#500,.F.);
#500 = EDGE_CURVE('',#501,#501,#503,.T.);
#501 = VERTEX_POINT('',#502);
#502 = CARTESIAN_POINT('',(15.3,2.239994856268E-15,10.08804));
#503 = CIRCLE('',#504,4.);
#504 = AXIS2_PLACEMENT_3D('',#505,#506,#507);
#505 = CARTESIAN_POINT('',(11.3,2.239994856268E-15,10.08804));
#506 = DIRECTION('',(0.,0.,1.));
#507 = DIRECTION('',(1.,0.,0.));
#508 = FACE_BOUND('',#509,.T.);
#509 = EDGE_LOOP('',(#510));
#510 = ORIENTED_EDGE('',*,*,#511,.F.);
#511 = EDGE_CURVE('',#512,#512,#514,.T.);
#512 = VERTEX_POINT('',#513);
#513 = CARTESIAN_POINT('',(-1.65,9.786087062764,10.08804));
#514 = CIRCLE('',#515,4.);
#515 = AXIS2_PLACEMENT_3D('',#516,#517,#518);
#516 = CARTESIAN_POINT('',(-5.65,9.786087062764,10.08804));
#517 = DIRECTION('',(0.,0.,1.));
#518 = DIRECTION('',(1.,0.,0.));
#519 = FACE_BOUND('',#520,.T.);
#520 = EDGE_LOOP('',(#521));
#521 = ORIENTED_EDGE('',*,*,#522,.F.);
#522 = EDGE_CURVE('',#523,#523,#525,.T.);
#523 = VERTEX_POINT('',#524);
#524 = CARTESIAN_POINT('',(9.65,9.786087062764,10.08804));
#525 = CIRCLE('',#526,4.);
#526 = AXIS2_PLACEMENT_3D('',#527,#528,#529);
#527 = CARTESIAN_POINT('',(5.65,9.786087062764,10.08804));
#528 = DIRECTION('',(0.,0.,1.));
#529 = DIRECTION('',(1.,0.,0.));
#530 = PLANE('',#531);
#531 = AXIS2_PLACEMENT_3D('',#532,#533,#534);
#532 = CARTESIAN_POINT('',(-23.041576,35.,10.08804));
#533 = DIRECTION('',(0.,2.22044604925E-16,1.));
#534 = DIRECTION('',(1.,0.,0.));
#535 = ADVANCED_FACE('',(#536,#554,#565),#576,.F.);
#536 = FACE_BOUND('',#537,.F.);
#537 = EDGE_LOOP('',(#538,#539,#547,#553));
#538 = ORIENTED_EDGE('',*,*,#134,.F.);
#539 = ORIENTED_EDGE('',*,*,#540,.T.);
#540 = EDGE_CURVE('',#127,#541,#543,.T.);
#541 = VERTEX_POINT('',#542);
#542 = CARTESIAN_POINT('',(-35.,34.,21.));
#543 = LINE('',#544,#545);
#544 = CARTESIAN_POINT('',(-35.,34.,0.));
#545 = VECTOR('',#546,1.);
#546 = DIRECTION('',(0.,0.,1.));
#547 = ORIENTED_EDGE('',*,*,#548,.T.);
#548 = EDGE_CURVE('',#541,#236,#549,.T.);
#549 = LINE('',#550,#551);
#550 = CARTESIAN_POINT('',(-35.,35.,21.));
#551 = VECTOR('',#552,1.);
#552 = DIRECTION('',(0.,-1.,0.));
#553 = ORIENTED_EDGE('',*,*,#243,.F.);
#554 = FACE_BOUND('',#555,.F.);
#555 = EDGE_LOOP('',(#556));
#556 = ORIENTED_EDGE('',*,*,#557,.T.);
#557 = EDGE_CURVE('',#558,#558,#560,.T.);
#558 = VERTEX_POINT('',#559);
#559 = CARTESIAN_POINT('',(-35.,-22.500811,17.007444));
#560 = CIRCLE('',#561,2.5);
#561 = AXIS2_PLACEMENT_3D('',#562,#563,#564);
#562 = CARTESIAN_POINT('',(-35.,-20.000811,17.007444));
#563 = DIRECTION('',(-1.,0.,0.));
#564 = DIRECTION('',(0.,-1.,0.));
#565 = FACE_BOUND('',#566,.F.);
#566 = EDGE_LOOP('',(#567));
#567 = ORIENTED_EDGE('',*,*,#568,.T.);
#568 = EDGE_CURVE('',#569,#569,#571,.T.);
#569 = VERTEX_POINT('',#570);
#570 = CARTESIAN_POINT('',(-35.,17.502163,17.003685));
#571 = CIRCLE('',#572,2.5);
#572 = AXIS2_PLACEMENT_3D('',#573,#574,#575);
#573 = CARTESIAN_POINT('',(-35.,20.002163,17.003685));
#574 = DIRECTION('',(-1.,0.,0.));
#575 = DIRECTION('',(0.,-1.,0.));
#576 = PLANE('',#577);
#577 = AXIS2_PLACEMENT_3D('',#578,#579,#580);
#578 = CARTESIAN_POINT('',(-35.,35.,0.));
#579 = DIRECTION('',(1.,0.,0.));
#580 = DIRECTION('',(0.,-1.,0.));
#581 = ADVANCED_FACE('',(#582),#600,.F.);
#582 = FACE_BOUND('',#583,.F.);
#583 = EDGE_LOOP('',(#584,#585,#586,#594));
#584 = ORIENTED_EDGE('',*,*,#102,.F.);
#585 = ORIENTED_EDGE('',*,*,#267,.T.);
#586 = ORIENTED_EDGE('',*,*,#587,.T.);
#587 = EDGE_CURVE('',#260,#588,#590,.T.);
#588 = VERTEX_POINT('',#589);
#589 = CARTESIAN_POINT('',(35.,34.,21.));
#590 = LINE('',#591,#592);
#591 = CARTESIAN_POINT('',(35.,-35.,21.));
#592 = VECTOR('',#593,1.);
#593 = DIRECTION('',(0.,1.,0.));
#594 = ORIENTED_EDGE('',*,*,#595,.F.);
#595 = EDGE_CURVE('',#103,#588,#596,.T.);
#596 = LINE('',#597,#598);
#597 = CARTESIAN_POINT('',(35.,34.,0.));
#598 = VECTOR('',#599,1.);
#599 = DIRECTION('',(0.,0.,1.));
#600 = PLANE('',#601);
#601 = AXIS2_PLACEMENT_3D('',#602,#603,#604);
#602 = CARTESIAN_POINT('',(35.,-35.,0.));
#603 = DIRECTION('',(-1.,0.,0.));
#604 = DIRECTION('',(0.,1.,0.));
#605 = ADVANCED_FACE('',(#606),#624,.T.);
#606 = FACE_BOUND('',#607,.T.);
#607 = EDGE_LOOP('',(#608,#609,#610,#618));
#608 = ORIENTED_EDGE('',*,*,#126,.F.);
#609 = ORIENTED_EDGE('',*,*,#540,.T.);
#610 = ORIENTED_EDGE('',*,*,#611,.F.);
#611 = EDGE_CURVE('',#612,#541,#614,.T.);
#612 = VERTEX_POINT('',#613);
#613 = CARTESIAN_POINT('',(-34.,35.,21.));
#614 = LINE('',#615,#616);
#615 = CARTESIAN_POINT('',(-34.25,34.75,21.));
#616 = VECTOR('',#617,1.);
#617 = DIRECTION('',(-0.707106781187,-0.707106781187,-0.));
#618 = ORIENTED_EDGE('',*,*,#619,.F.);
#619 = EDGE_CURVE('',#119,#612,#620,.T.);
#620 = LINE('',#621,#622);
#621 = CARTESIAN_POINT('',(-34.,35.,0.));
#622 = VECTOR('',#623,1.);
#623 = DIRECTION('',(0.,0.,1.));
#624 = PLANE('',#625);
#625 = AXIS2_PLACEMENT_3D('',#626,#627,#628);
#626 = CARTESIAN_POINT('',(-34.5,34.5,0.));
#627 = DIRECTION('',(-0.707106781187,0.707106781187,0.));
#628 = DIRECTION('',(0.,0.,1.));
#629 = ADVANCED_FACE('',(#630),#648,.T.);
#630 = FACE_BOUND('',#631,.F.);
#631 = EDGE_LOOP('',(#632,#633,#634,#642));
#632 = ORIENTED_EDGE('',*,*,#110,.F.);
#633 = ORIENTED_EDGE('',*,*,#595,.T.);
#634 = ORIENTED_EDGE('',*,*,#635,.F.);
#635 = EDGE_CURVE('',#636,#588,#638,.T.);
#636 = VERTEX_POINT('',#637);
#637 = CARTESIAN_POINT('',(34.,35.,21.));
#638 = LINE('',#639,#640);
#639 = CARTESIAN_POINT('',(34.25,34.75,21.));
#640 = VECTOR('',#641,1.);
#641 = DIRECTION('',(0.707106781187,-0.707106781187,0.));
#642 = ORIENTED_EDGE('',*,*,#643,.F.);
#643 = EDGE_CURVE('',#111,#636,#644,.T.);
#644 = LINE('',#645,#646);
#645 = CARTESIAN_POINT('',(34.,35.,0.));
#646 = VECTOR('',#647,1.);
#647 = DIRECTION('',(0.,0.,1.));
#648 = PLANE('',#649);
#649 = AXIS2_PLACEMENT_3D('',#650,#651,#652);
#650 = CARTESIAN_POINT('',(34.5,34.5,0.));
#651 = DIRECTION('',(0.707106781187,0.707106781187,0.));
#652 = DIRECTION('',(-0.,-0.,-1.));
#653 = ADVANCED_FACE('',(#654),#674,.F.);
#654 = FACE_BOUND('',#655,.F.);
#655 = EDGE_LOOP('',(#656,#657,#658,#664,#665,#666,#667,#673));
#656 = ORIENTED_EDGE('',*,*,#118,.F.);
#657 = ORIENTED_EDGE('',*,*,#643,.T.);
#658 = ORIENTED_EDGE('',*,*,#659,.T.);
#659 = EDGE_CURVE('',#636,#408,#660,.T.);
#660 = LINE('',#661,#662);
#661 = CARTESIAN_POINT('',(35.,35.,21.));
#662 = VECTOR('',#663,1.);
#663 = DIRECTION('',(-1.,0.,0.));
#664 = ORIENTED_EDGE('',*,*,#405,.F.);
#665 = ORIENTED_EDGE('',*,*,#445,.F.);
#666 = ORIENTED_EDGE('',*,*,#343,.T.);
#667 = ORIENTED_EDGE('',*,*,#668,.T.);
#668 = EDGE_CURVE('',#346,#612,#669,.T.);
#669 = LINE('',#670,#671);
#670 = CARTESIAN_POINT('',(-23.041576,35.,21.));
#671 = VECTOR('',#672,1.);
#672 = DIRECTION('',(-1.,0.,0.));
#673 = ORIENTED_EDGE('',*,*,#619,.F.);
#674 = PLANE('',#675);
#675 = AXIS2_PLACEMENT_3D('',#676,#677,#678);
#676 = CARTESIAN_POINT('',(35.,35.,0.));
#677 = DIRECTION('',(0.,-1.,0.));
#678 = DIRECTION('',(-1.,0.,0.));
#679 = ADVANCED_FACE('',(#680),#699,.F.);
#680 = FACE_BOUND('',#681,.T.);
#681 = EDGE_LOOP('',(#682,#690,#697,#698));
#682 = ORIENTED_EDGE('',*,*,#683,.F.);
#683 = EDGE_CURVE('',#684,#151,#686,.T.);
#684 = VERTEX_POINT('',#685);
#685 = CARTESIAN_POINT('',(-3.6,-9.786087062764,8.13804));
#686 = LINE('',#687,#688);
#687 = CARTESIAN_POINT('',(-3.6,-9.786087062764,8.13804));
#688 = VECTOR('',#689,1.);
#689 = DIRECTION('',(-6.128438109578E-17,0.,-1.));
#690 = ORIENTED_EDGE('',*,*,#691,.T.);
#691 = EDGE_CURVE('',#684,#684,#692,.T.);
#692 = CIRCLE('',#693,2.05);
#693 = AXIS2_PLACEMENT_3D('',#694,#695,#696);
#694 = CARTESIAN_POINT('',(-5.65,-9.786087062764,8.13804));
#695 = DIRECTION('',(0.,0.,1.));
#696 = DIRECTION('',(1.,0.,0.));
#697 = ORIENTED_EDGE('',*,*,#683,.T.);
#698 = ORIENTED_EDGE('',*,*,#150,.T.);
#699 = CYLINDRICAL_SURFACE('',#700,2.05);
#700 = AXIS2_PLACEMENT_3D('',#701,#702,#703);
#701 = CARTESIAN_POINT('',(-5.65,-9.786087062764,8.13804));
#702 = DIRECTION('',(-0.,-0.,-1.));
#703 = DIRECTION('',(1.,0.,0.));
#704 = ADVANCED_FACE('',(#705),#724,.F.);
#705 = FACE_BOUND('',#706,.T.);
#706 = EDGE_LOOP('',(#707,#715,#722,#723));
#707 = ORIENTED_EDGE('',*,*,#708,.F.);
#708 = EDGE_CURVE('',#709,#162,#711,.T.);
#709 = VERTEX_POINT('',#710);
#710 = CARTESIAN_POINT('',(7.7,-9.786087062764,8.13804));
#711 = LINE('',#712,#713);
#712 = CARTESIAN_POINT('',(7.7,-9.786087062764,8.13804));
#713 = VECTOR('',#714,1.);
#714 = DIRECTION('',(-6.128438109578E-17,0.,-1.));
#715 = ORIENTED_EDGE('',*,*,#716,.T.);
#716 = EDGE_CURVE('',#709,#709,#717,.T.);
#717 = CIRCLE('',#718,2.05);
#718 = AXIS2_PLACEMENT_3D('',#719,#720,#721);
#719 = CARTESIAN_POINT('',(5.65,-9.786087062764,8.13804));
#720 = DIRECTION('',(0.,0.,1.));
#721 = DIRECTION('',(1.,0.,0.));
#722 = ORIENTED_EDGE('',*,*,#708,.T.);
#723 = ORIENTED_EDGE('',*,*,#161,.T.);
#724 = CYLINDRICAL_SURFACE('',#725,2.05);
#725 = AXIS2_PLACEMENT_3D('',#726,#727,#728);
#726 = CARTESIAN_POINT('',(5.65,-9.786087062764,8.13804));
#727 = DIRECTION('',(-0.,-0.,-1.));
#728 = DIRECTION('',(1.,0.,0.));
#729 = ADVANCED_FACE('',(#730),#741,.F.);
#730 = FACE_BOUND('',#731,.T.);
#731 = EDGE_LOOP('',(#732,#733,#739,#740));
#732 = ORIENTED_EDGE('',*,*,#172,.F.);
#733 = ORIENTED_EDGE('',*,*,#734,.T.);
#734 = EDGE_CURVE('',#173,#479,#735,.T.);
#735 = LINE('',#736,#737);
#736 = CARTESIAN_POINT('',(2.,-6.8043488058E-06,0.));
#737 = VECTOR('',#738,1.);
#738 = DIRECTION('',(0.,0.,1.));
#739 = ORIENTED_EDGE('',*,*,#478,.F.);
#740 = ORIENTED_EDGE('',*,*,#734,.F.);
#741 = CYLINDRICAL_SURFACE('',#742,2.);
#742 = AXIS2_PLACEMENT_3D('',#743,#744,#745);
#743 = CARTESIAN_POINT('',(0.,-6.8043488058E-06,0.));
#744 = DIRECTION('',(-0.,-0.,-1.));
#745 = DIRECTION('',(1.,0.,0.));
#746 = ADVANCED_FACE('',(#747),#766,.F.);
#747 = FACE_BOUND('',#748,.T.);
#748 = EDGE_LOOP('',(#749,#757,#764,#765));
#749 = ORIENTED_EDGE('',*,*,#750,.F.);
#750 = EDGE_CURVE('',#751,#184,#753,.T.);
#751 = VERTEX_POINT('',#752);
#752 = CARTESIAN_POINT('',(-9.25,3.239994856268E-15,8.13804));
#753 = LINE('',#754,#755);
#754 = CARTESIAN_POINT('',(-9.25,3.239994856268E-15,8.13804));
#755 = VECTOR('',#756,1.);
#756 = DIRECTION('',(-6.128438109578E-17,0.,-1.));
#757 = ORIENTED_EDGE('',*,*,#758,.T.);
#758 = EDGE_CURVE('',#751,#751,#759,.T.);
#759 = CIRCLE('',#760,2.05);
#760 = AXIS2_PLACEMENT_3D('',#761,#762,#763);
#761 = CARTESIAN_POINT('',(-11.3,3.239994856268E-15,8.13804));
#762 = DIRECTION('',(0.,0.,1.));
#763 = DIRECTION('',(1.,0.,0.));
#764 = ORIENTED_EDGE('',*,*,#750,.T.);
#765 = ORIENTED_EDGE('',*,*,#183,.T.);
#766 = CYLINDRICAL_SURFACE('',#767,2.05);
#767 = AXIS2_PLACEMENT_3D('',#768,#769,#770);
#768 = CARTESIAN_POINT('',(-11.3,3.239994856268E-15,8.13804));
#769 = DIRECTION('',(-0.,-0.,-1.));
#770 = DIRECTION('',(1.,0.,0.));
#771 = ADVANCED_FACE('',(#772),#791,.F.);
#772 = FACE_BOUND('',#773,.T.);
#773 = EDGE_LOOP('',(#774,#782,#789,#790));
#774 = ORIENTED_EDGE('',*,*,#775,.F.);
#775 = EDGE_CURVE('',#776,#195,#778,.T.);
#776 = VERTEX_POINT('',#777);
#777 = CARTESIAN_POINT('',(-3.6,9.786087062764,8.13804));
#778 = LINE('',#779,#780);
#779 = CARTESIAN_POINT('',(-3.6,9.786087062764,8.13804));
#780 = VECTOR('',#781,1.);
#781 = DIRECTION('',(-6.128438109578E-17,0.,-1.));
#782 = ORIENTED_EDGE('',*,*,#783,.T.);
#783 = EDGE_CURVE('',#776,#776,#784,.T.);
#784 = CIRCLE('',#785,2.05);
#785 = AXIS2_PLACEMENT_3D('',#786,#787,#788);
#786 = CARTESIAN_POINT('',(-5.65,9.786087062764,8.13804));
#787 = DIRECTION('',(0.,0.,1.));
#788 = DIRECTION('',(1.,0.,0.));
#789 = ORIENTED_EDGE('',*,*,#775,.T.);
#790 = ORIENTED_EDGE('',*,*,#194,.T.);
#791 = CYLINDRICAL_SURFACE('',#792,2.05);
#792 = AXIS2_PLACEMENT_3D('',#793,#794,#795);
#793 = CARTESIAN_POINT('',(-5.65,9.786087062764,8.13804));
#794 = DIRECTION('',(-0.,-0.,-1.));
#795 = DIRECTION('',(1.,0.,0.));
#796 = ADVANCED_FACE('',(#797),#816,.F.);
#797 = FACE_BOUND('',#798,.T.);
#798 = EDGE_LOOP('',(#799,#807,#814,#815));
#799 = ORIENTED_EDGE('',*,*,#800,.F.);
#800 = EDGE_CURVE('',#801,#206,#803,.T.);
#801 = VERTEX_POINT('',#802);
#802 = CARTESIAN_POINT('',(13.35,2.239994856268E-15,8.13804));
#803 = LINE('',#804,#805);
#804 = CARTESIAN_POINT('',(13.35,2.239994856268E-15,8.13804));
#805 = VECTOR('',#806,1.);
#806 = DIRECTION('',(-6.128438109578E-17,0.,-1.));
#807 = ORIENTED_EDGE('',*,*,#808,.T.);
#808 = EDGE_CURVE('',#801,#801,#809,.T.);
#809 = CIRCLE('',#810,2.05);
#810 = AXIS2_PLACEMENT_3D('',#811,#812,#813);
#811 = CARTESIAN_POINT('',(11.3,2.239994856268E-15,8.13804));
#812 = DIRECTION('',(0.,0.,1.));
#813 = DIRECTION('',(1.,0.,0.));
#814 = ORIENTED_EDGE('',*,*,#800,.T.);
#815 = ORIENTED_EDGE('',*,*,#205,.T.);
#816 = CYLINDRICAL_SURFACE('',#817,2.05);
#817 = AXIS2_PLACEMENT_3D('',#818,#819,#820);
#818 = CARTESIAN_POINT('',(11.3,2.239994856268E-15,8.13804));
#819 = DIRECTION('',(-0.,-0.,-1.));
#820 = DIRECTION('',(1.,0.,0.));
#821 = ADVANCED_FACE('',(#822),#841,.F.);
#822 = FACE_BOUND('',#823,.T.);
#823 = EDGE_LOOP('',(#824,#832,#839,#840));
#824 = ORIENTED_EDGE('',*,*,#825,.F.);
#825 = EDGE_CURVE('',#826,#217,#828,.T.);
#826 = VERTEX_POINT('',#827);
#827 = CARTESIAN_POINT('',(7.7,9.786087062764,8.13804));
#828 = LINE('',#829,#830);
#829 = CARTESIAN_POINT('',(7.7,9.786087062764,8.13804));
#830 = VECTOR('',#831,1.);
#831 = DIRECTION('',(-6.128438109578E-17,0.,-1.));
#832 = ORIENTED_EDGE('',*,*,#833,.T.);
#833 = EDGE_CURVE('',#826,#826,#834,.T.);
#834 = CIRCLE('',#835,2.05);
#835 = AXIS2_PLACEMENT_3D('',#836,#837,#838);
#836 = CARTESIAN_POINT('',(5.65,9.786087062764,8.13804));
#837 = DIRECTION('',(0.,0.,1.));
#838 = DIRECTION('',(1.,0.,0.));
#839 = ORIENTED_EDGE('',*,*,#825,.T.);
#840 = ORIENTED_EDGE('',*,*,#216,.T.);
#841 = CYLINDRICAL_SURFACE('',#842,2.05);
#842 = AXIS2_PLACEMENT_3D('',#843,#844,#845);
#843 = CARTESIAN_POINT('',(5.65,9.786087062764,8.13804));
#844 = DIRECTION('',(-0.,-0.,-1.));
#845 = DIRECTION('',(1.,0.,0.));
#846 = ADVANCED_FACE('',(#847),#857,.F.);
#847 = FACE_BOUND('',#848,.F.);
#848 = EDGE_LOOP('',(#849,#850,#856));
#849 = ORIENTED_EDGE('',*,*,#235,.F.);
#850 = ORIENTED_EDGE('',*,*,#851,.T.);
#851 = EDGE_CURVE('',#236,#291,#852,.T.);
#852 = LINE('',#853,#854);
#853 = CARTESIAN_POINT('',(-34.75,-34.,21.25));
#854 = VECTOR('',#855,1.);
#855 = DIRECTION('',(0.707106781187,0.,0.707106781187));
#856 = ORIENTED_EDGE('',*,*,#298,.F.);
#857 = PLANE('',#858);
#858 = AXIS2_PLACEMENT_3D('',#859,#860,#861);
#859 = CARTESIAN_POINT('',(-35.,-34.,21.));
#860 = DIRECTION('',(0.57735026919,0.57735026919,-0.57735026919));
#861 = DIRECTION('',(0.,0.707106781187,0.707106781187));
#862 = ADVANCED_FACE('',(#863),#873,.F.);
#863 = FACE_BOUND('',#864,.F.);
#864 = EDGE_LOOP('',(#865,#866,#867));
#865 = ORIENTED_EDGE('',*,*,#259,.F.);
#866 = ORIENTED_EDGE('',*,*,#321,.T.);
#867 = ORIENTED_EDGE('',*,*,#868,.F.);
#868 = EDGE_CURVE('',#260,#322,#869,.T.);
#869 = LINE('',#870,#871);
#870 = CARTESIAN_POINT('',(34.5,-34.,21.5));
#871 = VECTOR('',#872,1.);
#872 = DIRECTION('',(-0.707106781187,0.,0.707106781187));
#873 = PLANE('',#874);
#874 = AXIS2_PLACEMENT_3D('',#875,#876,#877);
#875 = CARTESIAN_POINT('',(34.,-35.,21.));
#876 = DIRECTION('',(-0.57735026919,0.57735026919,-0.57735026919));
#877 = DIRECTION('',(-0.707106781187,0.,0.707106781187));
#878 = ADVANCED_FACE('',(#879),#897,.T.);
#879 = FACE_BOUND('',#880,.T.);
#880 = EDGE_LOOP('',(#881,#882,#890,#896));
#881 = ORIENTED_EDGE('',*,*,#361,.F.);
#882 = ORIENTED_EDGE('',*,*,#883,.T.);
#883 = EDGE_CURVE('',#362,#884,#886,.T.);
#884 = VERTEX_POINT('',#885);
#885 = CARTESIAN_POINT('',(-34.,34.,22.));
#886 = LINE('',#887,#888);
#887 = CARTESIAN_POINT('',(-23.041576,34.,22.));
#888 = VECTOR('',#889,1.);
#889 = DIRECTION('',(-1.,0.,0.));
#890 = ORIENTED_EDGE('',*,*,#891,.T.);
#891 = EDGE_CURVE('',#884,#291,#892,.T.);
#892 = LINE('',#893,#894);
#893 = CARTESIAN_POINT('',(-34.,35.,22.));
#894 = VECTOR('',#895,1.);
#895 = DIRECTION('',(0.,-1.,0.));
#896 = ORIENTED_EDGE('',*,*,#290,.T.);
#897 = PLANE('',#898);
#898 = AXIS2_PLACEMENT_3D('',#899,#900,#901);
#899 = CARTESIAN_POINT('',(0.,-2.435080607172E-07,22.));
#900 = DIRECTION('',(0.,0.,1.));
#901 = DIRECTION('',(1.,0.,0.));
#902 = ADVANCED_FACE('',(#903),#921,.T.);
#903 = FACE_BOUND('',#904,.T.);
#904 = EDGE_LOOP('',(#905,#906,#907,#915));
#905 = ORIENTED_EDGE('',*,*,#423,.T.);
#906 = ORIENTED_EDGE('',*,*,#329,.T.);
#907 = ORIENTED_EDGE('',*,*,#908,.T.);
#908 = EDGE_CURVE('',#322,#909,#911,.T.);
#909 = VERTEX_POINT('',#910);
#910 = CARTESIAN_POINT('',(34.,34.,22.));
#911 = LINE('',#912,#913);
#912 = CARTESIAN_POINT('',(34.,-35.,22.));
#913 = VECTOR('',#914,1.);
#914 = DIRECTION('',(0.,1.,0.));
#915 = ORIENTED_EDGE('',*,*,#916,.T.);
#916 = EDGE_CURVE('',#909,#424,#917,.T.);
#917 = LINE('',#918,#919);
#918 = CARTESIAN_POINT('',(35.,34.,22.));
#919 = VECTOR('',#920,1.);
#920 = DIRECTION('',(-1.,0.,0.));
#921 = PLANE('',#922);
#922 = AXIS2_PLACEMENT_3D('',#923,#924,#925);
#923 = CARTESIAN_POINT('',(0.,-2.435080607172E-07,22.));
#924 = DIRECTION('',(0.,0.,1.));
#925 = DIRECTION('',(1.,0.,0.));
#926 = ADVANCED_FACE('',(#927),#938,.F.);
#927 = FACE_BOUND('',#928,.F.);
#928 = EDGE_LOOP('',(#929,#930,#931,#937));
#929 = ORIENTED_EDGE('',*,*,#369,.F.);
#930 = ORIENTED_EDGE('',*,*,#883,.T.);
#931 = ORIENTED_EDGE('',*,*,#932,.F.);
#932 = EDGE_CURVE('',#612,#884,#933,.T.);
#933 = LINE('',#934,#935);
#934 = CARTESIAN_POINT('',(-34.,34.75,21.25));
#935 = VECTOR('',#936,1.);
#936 = DIRECTION('',(0.,-0.707106781187,0.707106781187));
#937 = ORIENTED_EDGE('',*,*,#668,.F.);
#938 = PLANE('',#939);
#939 = AXIS2_PLACEMENT_3D('',#940,#941,#942);
#940 = CARTESIAN_POINT('',(-23.041576,34.5,21.5));
#941 = DIRECTION('',(0.,-0.707106781187,-0.707106781187));
#942 = DIRECTION('',(-1.,0.,0.));
#943 = ADVANCED_FACE('',(#944),#955,.F.);
#944 = FACE_BOUND('',#945,.F.);
#945 = EDGE_LOOP('',(#946,#947,#953,#954));
#946 = ORIENTED_EDGE('',*,*,#557,.F.);
#947 = ORIENTED_EDGE('',*,*,#948,.T.);
#948 = EDGE_CURVE('',#558,#378,#949,.T.);
#949 = LINE('',#950,#951);
#950 = CARTESIAN_POINT('',(-35.,-22.500811,17.007444));
#951 = VECTOR('',#952,1.);
#952 = DIRECTION('',(1.,0.,0.));
#953 = ORIENTED_EDGE('',*,*,#377,.T.);
#954 = ORIENTED_EDGE('',*,*,#948,.F.);
#955 = CYLINDRICAL_SURFACE('',#956,2.5);
#956 = AXIS2_PLACEMENT_3D('',#957,#958,#959);
#957 = CARTESIAN_POINT('',(-35.,-20.000811,17.007444));
#958 = DIRECTION('',(-1.,0.,0.));
#959 = DIRECTION('',(0.,-1.,0.));
#960 = ADVANCED_FACE('',(#961),#972,.F.);
#961 = FACE_BOUND('',#962,.F.);
#962 = EDGE_LOOP('',(#963,#964,#970,#971));
#963 = ORIENTED_EDGE('',*,*,#568,.F.);
#964 = ORIENTED_EDGE('',*,*,#965,.T.);
#965 = EDGE_CURVE('',#569,#389,#966,.T.);
#966 = LINE('',#967,#968);
#967 = CARTESIAN_POINT('',(-35.,17.502163,17.003685));
#968 = VECTOR('',#969,1.);
#969 = DIRECTION('',(1.,0.,0.));
#970 = ORIENTED_EDGE('',*,*,#388,.T.);
#971 = ORIENTED_EDGE('',*,*,#965,.F.);
#972 = CYLINDRICAL_SURFACE('',#973,2.5);
#973 = AXIS2_PLACEMENT_3D('',#974,#975,#976);
#974 = CARTESIAN_POINT('',(-35.,20.002163,17.003685));
#975 = DIRECTION('',(-1.,0.,0.));
#976 = DIRECTION('',(0.,-1.,0.));
#977 = ADVANCED_FACE('',(#978),#989,.F.);
#978 = FACE_BOUND('',#979,.F.);
#979 = EDGE_LOOP('',(#980,#986,#987,#988));
#980 = ORIENTED_EDGE('',*,*,#981,.T.);
#981 = EDGE_CURVE('',#636,#909,#982,.T.);
#982 = LINE('',#983,#984);
#983 = CARTESIAN_POINT('',(34.,34.75,21.25));
#984 = VECTOR('',#985,1.);
#985 = DIRECTION('',(0.,-0.707106781187,0.707106781187));
#986 = ORIENTED_EDGE('',*,*,#916,.T.);
#987 = ORIENTED_EDGE('',*,*,#431,.T.);
#988 = ORIENTED_EDGE('',*,*,#659,.F.);
#989 = PLANE('',#990);
#990 = AXIS2_PLACEMENT_3D('',#991,#992,#993);
#991 = CARTESIAN_POINT('',(35.,34.5,21.5));
#992 = DIRECTION('',(0.,-0.707106781187,-0.707106781187));
#993 = DIRECTION('',(-1.,0.,0.));
#994 = ADVANCED_FACE('',(#995),#1006,.F.);
#995 = FACE_BOUND('',#996,.T.);
#996 = EDGE_LOOP('',(#997,#1003,#1004,#1005));
#997 = ORIENTED_EDGE('',*,*,#998,.F.);
#998 = EDGE_CURVE('',#457,#684,#999,.T.);
#999 = LINE('',#1000,#1001);
#1000 = CARTESIAN_POINT('',(-1.65,-9.786087062764,10.08804));
#1001 = VECTOR('',#1002,1.);
#1002 = DIRECTION('',(-0.707106781187,0.,-0.707106781187));
#1003 = ORIENTED_EDGE('',*,*,#456,.T.);
#1004 = ORIENTED_EDGE('',*,*,#998,.T.);
#1005 = ORIENTED_EDGE('',*,*,#691,.F.);
#1006 = CONICAL_SURFACE('',#1007,4.,0.785398163397);
#1007 = AXIS2_PLACEMENT_3D('',#1008,#1009,#1010);
#1008 = CARTESIAN_POINT('',(-5.65,-9.786087062764,10.08804));
#1009 = DIRECTION('',(0.,0.,1.));
#1010 = DIRECTION('',(1.,0.,0.));
#1011 = ADVANCED_FACE('',(#1012),#1023,.F.);
#1012 = FACE_BOUND('',#1013,.T.);
#1013 = EDGE_LOOP('',(#1014,#1020,#1021,#1022));
#1014 = ORIENTED_EDGE('',*,*,#1015,.F.);
#1015 = EDGE_CURVE('',#468,#751,#1016,.T.);
#1016 = LINE('',#1017,#1018);
#1017 = CARTESIAN_POINT('',(-7.3,3.239994856268E-15,10.08804));
#1018 = VECTOR('',#1019,1.);
#1019 = DIRECTION('',(-0.707106781187,0.,-0.707106781187));
#1020 = ORIENTED_EDGE('',*,*,#467,.T.);
#1021 = ORIENTED_EDGE('',*,*,#1015,.T.);
#1022 = ORIENTED_EDGE('',*,*,#758,.F.);
#1023 = CONICAL_SURFACE('',#1024,4.,0.785398163397);
#1024 = AXIS2_PLACEMENT_3D('',#1025,#1026,#1027);
#1025 = CARTESIAN_POINT('',(-11.3,3.239994856268E-15,10.08804));
#1026 = DIRECTION('',(0.,0.,1.));
#1027 = DIRECTION('',(1.,0.,0.));
#1028 = ADVANCED_FACE('',(#1029),#1040,.F.);
#1029 = FACE_BOUND('',#1030,.T.);
#1030 = EDGE_LOOP('',(#1031,#1037,#1038,#1039));
#1031 = ORIENTED_EDGE('',*,*,#1032,.F.);
#1032 = EDGE_CURVE('',#490,#709,#1033,.T.);
#1033 = LINE('',#1034,#1035);
#1034 = CARTESIAN_POINT('',(9.65,-9.786087062764,10.08804));
#1035 = VECTOR('',#1036,1.);
#1036 = DIRECTION('',(-0.707106781187,0.,-0.707106781187));
#1037 = ORIENTED_EDGE('',*,*,#489,.T.);
#1038 = ORIENTED_EDGE('',*,*,#1032,.T.);
#1039 = ORIENTED_EDGE('',*,*,#716,.F.);
#1040 = CONICAL_SURFACE('',#1041,4.,0.785398163397);
#1041 = AXIS2_PLACEMENT_3D('',#1042,#1043,#1044);
#1042 = CARTESIAN_POINT('',(5.65,-9.786087062764,10.08804));
#1043 = DIRECTION('',(0.,0.,1.));
#1044 = DIRECTION('',(1.,0.,0.));
#1045 = ADVANCED_FACE('',(#1046),#1057,.F.);
#1046 = FACE_BOUND('',#1047,.T.);
#1047 = EDGE_LOOP('',(#1048,#1054,#1055,#1056));
#1048 = ORIENTED_EDGE('',*,*,#1049,.F.);
#1049 = EDGE_CURVE('',#501,#801,#1050,.T.);
#1050 = LINE('',#1051,#1052);
#1051 = CARTESIAN_POINT('',(15.3,2.239994856268E-15,10.08804));
#1052 = VECTOR('',#1053,1.);
#1053 = DIRECTION('',(-0.707106781187,0.,-0.707106781187));
#1054 = ORIENTED_EDGE('',*,*,#500,.T.);
#1055 = ORIENTED_EDGE('',*,*,#1049,.T.);
#1056 = ORIENTED_EDGE('',*,*,#808,.F.);
#1057 = CONICAL_SURFACE('',#1058,4.,0.785398163397);
#1058 = AXIS2_PLACEMENT_3D('',#1059,#1060,#1061);
#1059 = CARTESIAN_POINT('',(11.3,2.239994856268E-15,10.08804));
#1060 = DIRECTION('',(0.,0.,1.));
#1061 = DIRECTION('',(1.,0.,0.));
#1062 = ADVANCED_FACE('',(#1063),#1074,.F.);
#1063 = FACE_BOUND('',#1064,.T.);
#1064 = EDGE_LOOP('',(#1065,#1071,#1072,#1073));
#1065 = ORIENTED_EDGE('',*,*,#1066,.F.);
#1066 = EDGE_CURVE('',#512,#776,#1067,.T.);
#1067 = LINE('',#1068,#1069);
#1068 = CARTESIAN_POINT('',(-1.65,9.786087062764,10.08804));
#1069 = VECTOR('',#1070,1.);
#1070 = DIRECTION('',(-0.707106781187,0.,-0.707106781187));
#1071 = ORIENTED_EDGE('',*,*,#511,.T.);
#1072 = ORIENTED_EDGE('',*,*,#1066,.T.);
#1073 = ORIENTED_EDGE('',*,*,#783,.F.);
#1074 = CONICAL_SURFACE('',#1075,4.,0.785398163397);
#1075 = AXIS2_PLACEMENT_3D('',#1076,#1077,#1078);
#1076 = CARTESIAN_POINT('',(-5.65,9.786087062764,10.08804));
#1077 = DIRECTION('',(0.,0.,1.));
#1078 = DIRECTION('',(1.,0.,0.));
#1079 = ADVANCED_FACE('',(#1080),#1091,.F.);
#1080 = FACE_BOUND('',#1081,.T.);
#1081 = EDGE_LOOP('',(#1082,#1088,#1089,#1090));
#1082 = ORIENTED_EDGE('',*,*,#1083,.F.);
#1083 = EDGE_CURVE('',#523,#826,#1084,.T.);
#1084 = LINE('',#1085,#1086);
#1085 = CARTESIAN_POINT('',(9.65,9.786087062764,10.08804));
#1086 = VECTOR('',#1087,1.);
#1087 = DIRECTION('',(-0.707106781187,0.,-0.707106781187));
#1088 = ORIENTED_EDGE('',*,*,#522,.T.);
#1089 = ORIENTED_EDGE('',*,*,#1083,.T.);
#1090 = ORIENTED_EDGE('',*,*,#833,.F.);
#1091 = CONICAL_SURFACE('',#1092,4.,0.785398163397);
#1092 = AXIS2_PLACEMENT_3D('',#1093,#1094,#1095);
#1093 = CARTESIAN_POINT('',(5.65,9.786087062764,10.08804));
#1094 = DIRECTION('',(0.,0.,1.));
#1095 = DIRECTION('',(1.,0.,0.));
#1096 = ADVANCED_FACE('',(#1097),#1108,.F.);
#1097 = FACE_BOUND('',#1098,.F.);
#1098 = EDGE_LOOP('',(#1099,#1100,#1101,#1102));
#1099 = ORIENTED_EDGE('',*,*,#891,.T.);
#1100 = ORIENTED_EDGE('',*,*,#851,.F.);
#1101 = ORIENTED_EDGE('',*,*,#548,.F.);
#1102 = ORIENTED_EDGE('',*,*,#1103,.F.);
#1103 = EDGE_CURVE('',#884,#541,#1104,.T.);
#1104 = LINE('',#1105,#1106);
#1105 = CARTESIAN_POINT('',(-34.5,34.,21.5));
#1106 = VECTOR('',#1107,1.);
#1107 = DIRECTION('',(-0.707106781187,-0.,-0.707106781187));
#1108 = PLANE('',#1109);
#1109 = AXIS2_PLACEMENT_3D('',#1110,#1111,#1112);
#1110 = CARTESIAN_POINT('',(-34.5,35.,21.5));
#1111 = DIRECTION('',(0.707106781187,0.,-0.707106781187));
#1112 = DIRECTION('',(0.,-1.,0.));
#1113 = ADVANCED_FACE('',(#1114),#1125,.F.);
#1114 = FACE_BOUND('',#1115,.T.);
#1115 = EDGE_LOOP('',(#1116,#1117,#1123,#1124));
#1116 = ORIENTED_EDGE('',*,*,#587,.T.);
#1117 = ORIENTED_EDGE('',*,*,#1118,.F.);
#1118 = EDGE_CURVE('',#909,#588,#1119,.T.);
#1119 = LINE('',#1120,#1121);
#1120 = CARTESIAN_POINT('',(34.5,34.,21.5));
#1121 = VECTOR('',#1122,1.);
#1122 = DIRECTION('',(0.707106781187,0.,-0.707106781187));
#1123 = ORIENTED_EDGE('',*,*,#908,.F.);
#1124 = ORIENTED_EDGE('',*,*,#868,.F.);
#1125 = PLANE('',#1126);
#1126 = AXIS2_PLACEMENT_3D('',#1127,#1128,#1129);
#1127 = CARTESIAN_POINT('',(34.5,-35.,21.5));
#1128 = DIRECTION('',(-0.707106781187,0.,-0.707106781187));
#1129 = DIRECTION('',(-0.,-1.,-0.));
#1130 = ADVANCED_FACE('',(#1131),#1136,.T.);
#1131 = FACE_BOUND('',#1132,.T.);
#1132 = EDGE_LOOP('',(#1133,#1134,#1135));
#1133 = ORIENTED_EDGE('',*,*,#932,.F.);
#1134 = ORIENTED_EDGE('',*,*,#611,.T.);
#1135 = ORIENTED_EDGE('',*,*,#1103,.F.);
#1136 = PLANE('',#1137);
#1137 = AXIS2_PLACEMENT_3D('',#1138,#1139,#1140);
#1138 = CARTESIAN_POINT('',(-34.,35.,21.));
#1139 = DIRECTION('',(-0.57735026919,0.57735026919,0.57735026919));
#1140 = DIRECTION('',(-0.707106781187,0.,-0.707106781187));
#1141 = ADVANCED_FACE('',(#1142),#1147,.F.);
#1142 = FACE_BOUND('',#1143,.F.);
#1143 = EDGE_LOOP('',(#1144,#1145,#1146));
#1144 = ORIENTED_EDGE('',*,*,#981,.F.);
#1145 = ORIENTED_EDGE('',*,*,#635,.T.);
#1146 = ORIENTED_EDGE('',*,*,#1118,.F.);
#1147 = PLANE('',#1148);
#1148 = AXIS2_PLACEMENT_3D('',#1149,#1150,#1151);
#1149 = CARTESIAN_POINT('',(34.,35.,21.));
#1150 = DIRECTION('',(-0.57735026919,-0.57735026919,-0.57735026919));
#1151 = DIRECTION('',(0.707106781187,0.,-0.707106781187));
#1152 = ( GEOMETRIC_REPRESENTATION_CONTEXT(3) 
GLOBAL_UNCERTAINTY_ASSIGNED_CONTEXT((#1156)) 
GLOBAL_UNIT_ASSIGNED_CONTEXT((#1153,#1154,#1155)) REPRESENTATION_CONTEXT
('Context #1','3D Context with UNIT and UNCERTAINTY') );
#1153 = ( LENGTH_UNIT() NAMED_UNIT(*) SI_UNIT(.MILLI.,.METRE.) );
#1154 = ( NAMED_UNIT(*) PLANE_ANGLE_UNIT() SI_UNIT($,.RADIAN.) );
#1155 = ( NAMED_UNIT(*) SI_UNIT($,.STERADIAN.) SOLID_ANGLE_UNIT() );
#1156 = UNCERTAINTY_MEASURE_WITH_UNIT(LENGTH_MEASURE(1.E-05),#1153,
  'distance_accuracy_value','confusion accuracy');
#1157 = PRODUCT_RELATED_PRODUCT_CATEGORY('part',$,(#7));
#1158 = MECHANICAL_DESIGN_GEOMETRIC_PRESENTATION_REPRESENTATION('',(
    #1159),#1152);
#1159 = STYLED_ITEM('color',(#1160),#15);
#1160 = PRESENTATION_STYLE_ASSIGNMENT((#1161,#1167));
#1161 = SURFACE_STYLE_USAGE(.BOTH.,#1162);
#1162 = SURFACE_SIDE_STYLE('',(#1163));
#1163 = SURFACE_STYLE_FILL_AREA(#1164);
#1164 = FILL_AREA_STYLE('',(#1165));
#1165 = FILL_AREA_STYLE_COLOUR('',#1166);
#1166 = COLOUR_RGB('',0.678431390124,0.709803936702,0.741176476869);
#1167 = CURVE_STYLE('',#1168,POSITIVE_LENGTH_MEASURE(0.1),#1169);
#1168 = DRAUGHTING_PRE_DEFINED_CURVE_FONT('continuous');
#1169 = COLOUR_RGB('',9.803921802644E-02,9.803921802644E-02,
  9.803921802644E-02);
ENDSEC;
END-ISO-10303-21;
