ISO-10303-21;
HEADER;
FILE_DESCRIPTION(('FreeCAD Model'),'2;1');
FILE_NAME('Open CASCADE Shape Model','2026-08-29T15:52:39',(''),(''),
  'Open CASCADE STEP processor 7.8','FreeCAD','Unknown');
FILE_SCHEMA(('AUTOMOTIVE_DESIGN { 1 0 10303 214 1 1 1 1 }'));
ENDSEC;
DATA;
#1 = APPLICATION_PROTOCOL_DEFINITION('international standard',
  'automotive_design',2000,#2);
#2 = APPLICATION_CONTEXT(
  'core data for automotive mechanical design processes');
#3 = SHAPE_DEFINITION_REPRESENTATION(#4,#10);
#4 = PRODUCT_DEFINITION_SHAPE('','',#5);
#5 = PRODUCT_DEFINITION('design','',#6,#9);
#6 = PRODUCT_DEFINITION_FORMATION('','',#7);
#7 = PRODUCT('Vixen Baseplate','Vixen Baseplate','',(#8));
#8 = PRODUCT_CONTEXT('',#2,'mechanical');
#9 = PRODUCT_DEFINITION_CONTEXT('part definition',#2,'design');
#10 = ADVANCED_BREP_SHAPE_REPRESENTATION('',(#11,#15),#1205);
#11 = AXIS2_PLACEMENT_3D('',#12,#13,#14);
#12 = CARTESIAN_POINT('',(0.,0.,0.));
#13 = DIRECTION('',(0.,0.,1.));
#14 = DIRECTION('',(1.,0.,-0.));
#15 = MANIFOLD_SOLID_BREP('',#16);
#16 = CLOSED_SHELL('',(#17,#59,#90,#234,#286,#338,#355,#372,#403,#428,
    #452,#477,#502,#526,#551,#575,#600,#624,#649,#673,#691,#708,#725,
    #814,#874,#907,#967,#1008,#1025,#1042,#1067,#1084,#1125,#1158,#1175,
    #1190));
#17 = ADVANCED_FACE('',(#18),#54,.T.);
#18 = FACE_BOUND('',#19,.F.);
#19 = EDGE_LOOP('',(#20,#30,#39,#47));
#20 = ORIENTED_EDGE('',*,*,#21,.T.);
#21 = EDGE_CURVE('',#22,#24,#26,.T.);
#22 = VERTEX_POINT('',#23);
#23 = CARTESIAN_POINT('',(-21.30080118796,0.804858678073,0.));
#24 = VERTEX_POINT('',#25);
#25 = CARTESIAN_POINT('',(-21.30080118796,0.804858678073,80.));
#26 = LINE('',#27,#28);
#27 = CARTESIAN_POINT('',(-21.30080118796,0.804858678073,0.));
#28 = VECTOR('',#29,1.);
#29 = DIRECTION('',(0.,0.,1.));
#30 = ORIENTED_EDGE('',*,*,#31,.T.);
#31 = EDGE_CURVE('',#24,#32,#34,.T.);
#32 = VERTEX_POINT('',#33);
#33 = CARTESIAN_POINT('',(-20.67197682145,0.,80.));
#34 = CIRCLE('',#35,0.648075);
#35 = AXIS2_PLACEMENT_3D('',#36,#37,#38);
#36 = CARTESIAN_POINT('',(-20.67197682145,0.648075,80.));
#37 = DIRECTION('',(0.,0.,1.));
#38 = DIRECTION('',(1.,0.,0.));
#39 = ORIENTED_EDGE('',*,*,#40,.F.);
#40 = EDGE_CURVE('',#41,#32,#43,.T.);
#41 = VERTEX_POINT('',#42);
#42 = CARTESIAN_POINT('',(-20.67197682145,0.,0.));
#43 = LINE('',#44,#45);
#44 = CARTESIAN_POINT('',(-20.67197682145,0.,0.));
#45 = VECTOR('',#46,1.);
#46 = DIRECTION('',(0.,0.,1.));
#47 = ORIENTED_EDGE('',*,*,#48,.F.);
#48 = EDGE_CURVE('',#22,#41,#49,.T.);
#49 = CIRCLE('',#50,0.648075);
#50 = AXIS2_PLACEMENT_3D('',#51,#52,#53);
#51 = CARTESIAN_POINT('',(-20.67197682145,0.648075,0.));
#52 = DIRECTION('',(0.,0.,1.));
#53 = DIRECTION('',(1.,0.,0.));
#54 = CYLINDRICAL_SURFACE('',#55,0.648075);
#55 = AXIS2_PLACEMENT_3D('',#56,#57,#58);
#56 = CARTESIAN_POINT('',(-20.67197682145,0.648075,0.));
#57 = DIRECTION('',(-0.,-0.,-1.));
#58 = DIRECTION('',(1.,0.,0.));
#59 = ADVANCED_FACE('',(#60),#85,.T.);
#60 = FACE_BOUND('',#61,.T.);
#61 = EDGE_LOOP('',(#62,#63,#71,#79));
#62 = ORIENTED_EDGE('',*,*,#21,.T.);
#63 = ORIENTED_EDGE('',*,*,#64,.T.);
#64 = EDGE_CURVE('',#24,#65,#67,.T.);
#65 = VERTEX_POINT('',#66);
#66 = CARTESIAN_POINT('',(-17.66962911103,15.368680046599,80.));
#67 = LINE('',#68,#69);
#68 = CARTESIAN_POINT('',(-21.30080118796,0.804858678073,80.));
#69 = VECTOR('',#70,1.);
#70 = DIRECTION('',(0.241922120238,0.970295670267,0.));
#71 = ORIENTED_EDGE('',*,*,#72,.F.);
#72 = EDGE_CURVE('',#73,#65,#75,.T.);
#73 = VERTEX_POINT('',#74);
#74 = CARTESIAN_POINT('',(-17.66962911103,15.368680046599,0.));
#75 = LINE('',#76,#77);
#76 = CARTESIAN_POINT('',(-17.66962911103,15.368680046599,0.));
#77 = VECTOR('',#78,1.);
#78 = DIRECTION('',(0.,0.,1.));
#79 = ORIENTED_EDGE('',*,*,#80,.F.);
#80 = EDGE_CURVE('',#22,#73,#81,.T.);
#81 = LINE('',#82,#83);
#82 = CARTESIAN_POINT('',(-21.30080118796,0.804858678073,0.));
#83 = VECTOR('',#84,1.);
#84 = DIRECTION('',(0.241922120238,0.970295670267,0.));
#85 = PLANE('',#86);
#86 = AXIS2_PLACEMENT_3D('',#87,#88,#89);
#87 = CARTESIAN_POINT('',(-21.30080118796,0.804858678073,0.));
#88 = DIRECTION('',(-0.970295670267,0.241922120238,0.));
#89 = DIRECTION('',(0.241922120238,0.970295670267,0.));
#90 = ADVANCED_FACE('',(#91,#116),#229,.F.);
#91 = FACE_BOUND('',#92,.F.);
#92 = EDGE_LOOP('',(#93,#94,#102,#110));
#93 = ORIENTED_EDGE('',*,*,#40,.T.);
#94 = ORIENTED_EDGE('',*,*,#95,.T.);
#95 = EDGE_CURVE('',#32,#96,#98,.T.);
#96 = VERTEX_POINT('',#97);
#97 = CARTESIAN_POINT('',(20.664127380445,0.,80.));
#98 = LINE('',#99,#100);
#99 = CARTESIAN_POINT('',(-20.67197682145,0.,80.));
#100 = VECTOR('',#101,1.);
#101 = DIRECTION('',(1.,0.,0.));
#102 = ORIENTED_EDGE('',*,*,#103,.F.);
#103 = EDGE_CURVE('',#104,#96,#106,.T.);
#104 = VERTEX_POINT('',#105);
#105 = CARTESIAN_POINT('',(20.664127380445,0.,0.));
#106 = LINE('',#107,#108);
#107 = CARTESIAN_POINT('',(20.664127380445,0.,0.));
#108 = VECTOR('',#109,1.);
#109 = DIRECTION('',(0.,0.,1.));
#110 = ORIENTED_EDGE('',*,*,#111,.F.);
#111 = EDGE_CURVE('',#41,#104,#112,.T.);
#112 = LINE('',#113,#114);
#113 = CARTESIAN_POINT('',(-20.67197682145,0.,0.));
#114 = VECTOR('',#115,1.);
#115 = DIRECTION('',(1.,0.,0.));
#116 = FACE_BOUND('',#117,.F.);
#117 = EDGE_LOOP('',(#118,#128,#137,#145,#154,#162,#171,#179,#188,#196,
    #205,#214,#222));
#118 = ORIENTED_EDGE('',*,*,#119,.T.);
#119 = EDGE_CURVE('',#120,#122,#124,.T.);
#120 = VERTEX_POINT('',#121);
#121 = CARTESIAN_POINT('',(7.994823,1.6654787105E-14,75.006493));
#122 = VERTEX_POINT('',#123);
#123 = CARTESIAN_POINT('',(-8.021241,1.6654787105E-14,75.006493));
#124 = LINE('',#125,#126);
#125 = CARTESIAN_POINT('',(7.994823,1.6654787105E-14,75.006493));
#126 = VECTOR('',#127,1.);
#127 = DIRECTION('',(-1.,0.,0.));
#128 = ORIENTED_EDGE('',*,*,#129,.T.);
#129 = EDGE_CURVE('',#122,#130,#132,.T.);
#130 = VERTEX_POINT('',#131);
#131 = CARTESIAN_POINT('',(-11.035585,1.598546828241E-14,71.992149));
#132 = CIRCLE('',#133,3.014344);
#133 = AXIS2_PLACEMENT_3D('',#134,#135,#136);
#134 = CARTESIAN_POINT('',(-8.021241,1.598546828241E-14,71.992149));
#135 = DIRECTION('',(0.,-1.,2.22044604925E-16));
#136 = DIRECTION('',(1.,0.,0.));
#137 = ORIENTED_EDGE('',*,*,#138,.T.);
#138 = EDGE_CURVE('',#130,#139,#141,.T.);
#139 = VERTEX_POINT('',#140);
#140 = CARTESIAN_POINT('',(-11.035585,1.016005108227E-14,45.756802268199
    ));
#141 = LINE('',#142,#143);
#142 = CARTESIAN_POINT('',(-11.035585,1.598546828241E-14,71.992149));
#143 = VECTOR('',#144,1.);
#144 = DIRECTION('',(0.,-2.22044604925E-16,-1.));
#145 = ORIENTED_EDGE('',*,*,#146,.T.);
#146 = EDGE_CURVE('',#139,#147,#149,.T.);
#147 = VERTEX_POINT('',#148);
#148 = CARTESIAN_POINT('',(-11.035585,7.6045555923E-15,34.247873731801)
  );
#149 = CIRCLE('',#150,6.5);
#150 = AXIS2_PLACEMENT_3D('',#151,#152,#153);
#151 = CARTESIAN_POINT('',(-8.01298,8.882303337288E-15,40.002338));
#152 = DIRECTION('',(0.,-1.,2.22044604925E-16));
#153 = DIRECTION('',(1.,0.,0.));
#154 = ORIENTED_EDGE('',*,*,#155,.T.);
#155 = EDGE_CURVE('',#147,#156,#158,.T.);
#156 = VERTEX_POINT('',#157);
#157 = CARTESIAN_POINT('',(-11.035585,1.775436464513E-15,7.995855));
#158 = LINE('',#159,#160);
#159 = CARTESIAN_POINT('',(-11.035585,1.598546828241E-14,71.992149));
#160 = VECTOR('',#161,1.);
#161 = DIRECTION('',(0.,-2.22044604925E-16,-1.));
#162 = ORIENTED_EDGE('',*,*,#163,.T.);
#163 = EDGE_CURVE('',#156,#164,#166,.T.);
#164 = VERTEX_POINT('',#165);
#165 = CARTESIAN_POINT('',(-8.046223,1.111664760245E-15,5.006493));
#166 = CIRCLE('',#167,2.989362);
#167 = AXIS2_PLACEMENT_3D('',#168,#169,#170);
#168 = CARTESIAN_POINT('',(-8.046223,1.775436464513E-15,7.995855));
#169 = DIRECTION('',(0.,-1.,2.22044604925E-16));
#170 = DIRECTION('',(1.,0.,0.));
#171 = ORIENTED_EDGE('',*,*,#172,.T.);
#172 = EDGE_CURVE('',#164,#173,#175,.T.);
#173 = VERTEX_POINT('',#174);
#174 = CARTESIAN_POINT('',(7.99935,1.111664760245E-15,5.006493));
#175 = LINE('',#176,#177);
#176 = CARTESIAN_POINT('',(-8.046223,1.111664760245E-15,5.006493));
#177 = VECTOR('',#178,1.);
#178 = DIRECTION('',(1.,0.,0.));
#179 = ORIENTED_EDGE('',*,*,#180,.T.);
#180 = EDGE_CURVE('',#173,#181,#183,.T.);
#181 = VERTEX_POINT('',#182);
#182 = CARTESIAN_POINT('',(10.964415,1.770041446747E-15,7.971558));
#183 = CIRCLE('',#184,2.965065);
#184 = AXIS2_PLACEMENT_3D('',#185,#186,#187);
#185 = CARTESIAN_POINT('',(7.99935,1.770041446747E-15,7.971558));
#186 = DIRECTION('',(0.,-1.,2.22044604925E-16));
#187 = DIRECTION('',(1.,0.,0.));
#188 = ORIENTED_EDGE('',*,*,#189,.T.);
#189 = EDGE_CURVE('',#181,#190,#192,.T.);
#190 = VERTEX_POINT('',#191);
#191 = CARTESIAN_POINT('',(10.964415,7.603216330371E-15,34.241842232276)
  );
#192 = LINE('',#193,#194);
#193 = CARTESIAN_POINT('',(10.964415,1.770041446747E-15,7.971558));
#194 = VECTOR('',#195,1.);
#195 = DIRECTION('',(0.,2.22044604925E-16,1.));
#196 = ORIENTED_EDGE('',*,*,#197,.T.);
#197 = EDGE_CURVE('',#190,#198,#200,.T.);
#198 = VERTEX_POINT('',#199);
#199 = CARTESIAN_POINT('',(14.510811,8.888270786045E-15,40.029213));
#200 = CIRCLE('',#201,6.495409);
#201 = AXIS2_PLACEMENT_3D('',#202,#203,#204);
#202 = CARTESIAN_POINT('',(8.015402,8.888270786045E-15,40.029213));
#203 = DIRECTION('',(0.,-1.,2.22044604925E-16));
#204 = DIRECTION('',(1.,0.,0.));
#205 = ORIENTED_EDGE('',*,*,#206,.T.);
#206 = EDGE_CURVE('',#198,#207,#209,.T.);
#207 = VERTEX_POINT('',#208);
#208 = CARTESIAN_POINT('',(10.964415,1.017332524172E-14,45.816583767724)
  );
#209 = CIRCLE('',#210,6.495409);
#210 = AXIS2_PLACEMENT_3D('',#211,#212,#213);
#211 = CARTESIAN_POINT('',(8.015402,8.888270786045E-15,40.029213));
#212 = DIRECTION('',(0.,-1.,2.22044604925E-16));
#213 = DIRECTION('',(1.,0.,0.));
#214 = ORIENTED_EDGE('',*,*,#215,.T.);
#215 = EDGE_CURVE('',#207,#216,#218,.T.);
#216 = VERTEX_POINT('',#217);
#217 = CARTESIAN_POINT('',(10.964415,1.599540522257E-14,72.036901));
#218 = LINE('',#219,#220);
#219 = CARTESIAN_POINT('',(10.964415,1.770041446747E-15,7.971558));
#220 = VECTOR('',#221,1.);
#221 = DIRECTION('',(0.,2.22044604925E-16,1.));
#222 = ORIENTED_EDGE('',*,*,#223,.T.);
#223 = EDGE_CURVE('',#216,#120,#224,.T.);
#224 = CIRCLE('',#225,2.969592);
#225 = AXIS2_PLACEMENT_3D('',#226,#227,#228);
#226 = CARTESIAN_POINT('',(7.994823,1.599540522257E-14,72.036901));
#227 = DIRECTION('',(0.,-1.,2.22044604925E-16));
#228 = DIRECTION('',(1.,0.,0.));
#229 = PLANE('',#230);
#230 = AXIS2_PLACEMENT_3D('',#231,#232,#233);
#231 = CARTESIAN_POINT('',(-20.67197682145,0.,0.));
#232 = DIRECTION('',(0.,1.,0.));
#233 = DIRECTION('',(1.,0.,0.));
#234 = ADVANCED_FACE('',(#235),#281,.F.);
#235 = FACE_BOUND('',#236,.F.);
#236 = EDGE_LOOP('',(#237,#238,#239,#248,#256,#265,#273,#280));
#237 = ORIENTED_EDGE('',*,*,#48,.T.);
#238 = ORIENTED_EDGE('',*,*,#111,.T.);
#239 = ORIENTED_EDGE('',*,*,#240,.T.);
#240 = EDGE_CURVE('',#104,#241,#243,.T.);
#241 = VERTEX_POINT('',#242);
#242 = CARTESIAN_POINT('',(21.296666141856,0.809612342529,0.));
#243 = CIRCLE('',#244,0.651903);
#244 = AXIS2_PLACEMENT_3D('',#245,#246,#247);
#245 = CARTESIAN_POINT('',(20.664127380445,0.651903,0.));
#246 = DIRECTION('',(0.,0.,1.));
#247 = DIRECTION('',(1.,0.,0.));
#248 = ORIENTED_EDGE('',*,*,#249,.T.);
#249 = EDGE_CURVE('',#241,#250,#252,.T.);
#250 = VERTEX_POINT('',#251);
#251 = CARTESIAN_POINT('',(17.667258635341,15.366396943978,0.));
#252 = LINE('',#253,#254);
#253 = CARTESIAN_POINT('',(21.296666141856,0.809612342529,0.));
#254 = VECTOR('',#255,1.);
#255 = DIRECTION('',(-0.241921486063,0.970295828385,0.));
#256 = ORIENTED_EDGE('',*,*,#257,.T.);
#257 = EDGE_CURVE('',#250,#258,#260,.T.);
#258 = VERTEX_POINT('',#259);
#259 = CARTESIAN_POINT('',(16.856161184111,16.000095999976,0.));
#260 = CIRCLE('',#261,0.835928);
#261 = AXIS2_PLACEMENT_3D('',#262,#263,#264);
#262 = CARTESIAN_POINT('',(16.856161184111,15.164167999976,0.));
#263 = DIRECTION('',(0.,0.,1.));
#264 = DIRECTION('',(1.,0.,0.));
#265 = ORIENTED_EDGE('',*,*,#266,.F.);
#266 = EDGE_CURVE('',#267,#258,#269,.T.);
#267 = VERTEX_POINT('',#268);
#268 = CARTESIAN_POINT('',(-16.86145335223,16.000095999976,0.));
#269 = LINE('',#270,#271);
#270 = CARTESIAN_POINT('',(-16.86145335223,16.000095999976,0.));
#271 = VECTOR('',#272,1.);
#272 = DIRECTION('',(1.,0.,0.));
#273 = ORIENTED_EDGE('',*,*,#274,.T.);
#274 = EDGE_CURVE('',#267,#73,#275,.T.);
#275 = CIRCLE('',#276,0.832917);
#276 = AXIS2_PLACEMENT_3D('',#277,#278,#279);
#277 = CARTESIAN_POINT('',(-16.86145335223,15.167178999976,0.));
#278 = DIRECTION('',(0.,0.,1.));
#279 = DIRECTION('',(1.,0.,0.));
#280 = ORIENTED_EDGE('',*,*,#80,.F.);
#281 = PLANE('',#282);
#282 = AXIS2_PLACEMENT_3D('',#283,#284,#285);
#283 = CARTESIAN_POINT('',(-2.178289140239E-03,7.460391671822,0.));
#284 = DIRECTION('',(0.,0.,1.));
#285 = DIRECTION('',(1.,0.,0.));
#286 = ADVANCED_FACE('',(#287),#333,.T.);
#287 = FACE_BOUND('',#288,.T.);
#288 = EDGE_LOOP('',(#289,#290,#291,#300,#308,#317,#325,#332));
#289 = ORIENTED_EDGE('',*,*,#31,.T.);
#290 = ORIENTED_EDGE('',*,*,#95,.T.);
#291 = ORIENTED_EDGE('',*,*,#292,.T.);
#292 = EDGE_CURVE('',#96,#293,#295,.T.);
#293 = VERTEX_POINT('',#294);
#294 = CARTESIAN_POINT('',(21.296666141856,0.809612342529,80.));
#295 = CIRCLE('',#296,0.651903);
#296 = AXIS2_PLACEMENT_3D('',#297,#298,#299);
#297 = CARTESIAN_POINT('',(20.664127380445,0.651903,80.));
#298 = DIRECTION('',(0.,0.,1.));
#299 = DIRECTION('',(1.,0.,0.));
#300 = ORIENTED_EDGE('',*,*,#301,.T.);
#301 = EDGE_CURVE('',#293,#302,#304,.T.);
#302 = VERTEX_POINT('',#303);
#303 = CARTESIAN_POINT('',(17.667258635341,15.366396943978,80.));
#304 = LINE('',#305,#306);
#305 = CARTESIAN_POINT('',(21.296666141856,0.809612342529,80.));
#306 = VECTOR('',#307,1.);
#307 = DIRECTION('',(-0.241921486063,0.970295828385,0.));
#308 = ORIENTED_EDGE('',*,*,#309,.T.);
#309 = EDGE_CURVE('',#302,#310,#312,.T.);
#310 = VERTEX_POINT('',#311);
#311 = CARTESIAN_POINT('',(16.856161184111,16.000095999976,80.));
#312 = CIRCLE('',#313,0.835928);
#313 = AXIS2_PLACEMENT_3D('',#314,#315,#316);
#314 = CARTESIAN_POINT('',(16.856161184111,15.164167999976,80.));
#315 = DIRECTION('',(0.,0.,1.));
#316 = DIRECTION('',(1.,0.,0.));
#317 = ORIENTED_EDGE('',*,*,#318,.F.);
#318 = EDGE_CURVE('',#319,#310,#321,.T.);
#319 = VERTEX_POINT('',#320);
#320 = CARTESIAN_POINT('',(-16.86145335223,16.000095999976,80.));
#321 = LINE('',#322,#323);
#322 = CARTESIAN_POINT('',(-16.86145335223,16.000095999976,80.));
#323 = VECTOR('',#324,1.);
#324 = DIRECTION('',(1.,0.,0.));
#325 = ORIENTED_EDGE('',*,*,#326,.T.);
#326 = EDGE_CURVE('',#319,#65,#327,.T.);
#327 = CIRCLE('',#328,0.832917);
#328 = AXIS2_PLACEMENT_3D('',#329,#330,#331);
#329 = CARTESIAN_POINT('',(-16.86145335223,15.167178999976,80.));
#330 = DIRECTION('',(0.,0.,1.));
#331 = DIRECTION('',(1.,0.,0.));
#332 = ORIENTED_EDGE('',*,*,#64,.F.);
#333 = PLANE('',#334);
#334 = AXIS2_PLACEMENT_3D('',#335,#336,#337);
#335 = CARTESIAN_POINT('',(-2.178289140239E-03,7.460391671822,80.));
#336 = DIRECTION('',(0.,0.,1.));
#337 = DIRECTION('',(1.,0.,0.));
#338 = ADVANCED_FACE('',(#339),#350,.T.);
#339 = FACE_BOUND('',#340,.F.);
#340 = EDGE_LOOP('',(#341,#347,#348,#349));
#341 = ORIENTED_EDGE('',*,*,#342,.T.);
#342 = EDGE_CURVE('',#267,#319,#343,.T.);
#343 = LINE('',#344,#345);
#344 = CARTESIAN_POINT('',(-16.86145335223,16.000095999976,0.));
#345 = VECTOR('',#346,1.);
#346 = DIRECTION('',(0.,0.,1.));
#347 = ORIENTED_EDGE('',*,*,#326,.T.);
#348 = ORIENTED_EDGE('',*,*,#72,.F.);
#349 = ORIENTED_EDGE('',*,*,#274,.F.);
#350 = CYLINDRICAL_SURFACE('',#351,0.832917);
#351 = AXIS2_PLACEMENT_3D('',#352,#353,#354);
#352 = CARTESIAN_POINT('',(-16.86145335223,15.167178999976,0.));
#353 = DIRECTION('',(-0.,-0.,-1.));
#354 = DIRECTION('',(1.,0.,0.));
#355 = ADVANCED_FACE('',(#356),#367,.T.);
#356 = FACE_BOUND('',#357,.F.);
#357 = EDGE_LOOP('',(#358,#359,#360,#366));
#358 = ORIENTED_EDGE('',*,*,#103,.T.);
#359 = ORIENTED_EDGE('',*,*,#292,.T.);
#360 = ORIENTED_EDGE('',*,*,#361,.F.);
#361 = EDGE_CURVE('',#241,#293,#362,.T.);
#362 = LINE('',#363,#364);
#363 = CARTESIAN_POINT('',(21.296666141856,0.809612342529,0.));
#364 = VECTOR('',#365,1.);
#365 = DIRECTION('',(0.,0.,1.));
#366 = ORIENTED_EDGE('',*,*,#240,.F.);
#367 = CYLINDRICAL_SURFACE('',#368,0.651903);
#368 = AXIS2_PLACEMENT_3D('',#369,#370,#371);
#369 = CARTESIAN_POINT('',(20.664127380445,0.651903,0.));
#370 = DIRECTION('',(-0.,-0.,-1.));
#371 = DIRECTION('',(1.,0.,0.));
#372 = ADVANCED_FACE('',(#373),#398,.F.);
#373 = FACE_BOUND('',#374,.F.);
#374 = EDGE_LOOP('',(#375,#383,#391,#397));
#375 = ORIENTED_EDGE('',*,*,#376,.T.);
#376 = EDGE_CURVE('',#120,#377,#379,.T.);
#377 = VERTEX_POINT('',#378);
#378 = CARTESIAN_POINT('',(7.994823,9.,75.006493));
#379 = LINE('',#380,#381);
#380 = CARTESIAN_POINT('',(7.994823,1.6654787105E-14,75.006493));
#381 = VECTOR('',#382,1.);
#382 = DIRECTION('',(0.,1.,-2.22044604925E-16));
#383 = ORIENTED_EDGE('',*,*,#384,.T.);
#384 = EDGE_CURVE('',#377,#385,#387,.T.);
#385 = VERTEX_POINT('',#386);
#386 = CARTESIAN_POINT('',(-8.021241,9.,75.006493));
#387 = LINE('',#388,#389);
#388 = CARTESIAN_POINT('',(7.994823,9.,75.006493));
#389 = VECTOR('',#390,1.);
#390 = DIRECTION('',(-1.,0.,0.));
#391 = ORIENTED_EDGE('',*,*,#392,.F.);
#392 = EDGE_CURVE('',#122,#385,#393,.T.);
#393 = LINE('',#394,#395);
#394 = CARTESIAN_POINT('',(-8.021241,1.6654787105E-14,75.006493));
#395 = VECTOR('',#396,1.);
#396 = DIRECTION('',(0.,1.,-2.22044604925E-16));
#397 = ORIENTED_EDGE('',*,*,#119,.F.);
#398 = PLANE('',#399);
#399 = AXIS2_PLACEMENT_3D('',#400,#401,#402);
#400 = CARTESIAN_POINT('',(7.994823,1.6654787105E-14,75.006493));
#401 = DIRECTION('',(0.,2.22044604925E-16,1.));
#402 = DIRECTION('',(-1.,0.,0.));
#403 = ADVANCED_FACE('',(#404),#423,.F.);
#404 = FACE_BOUND('',#405,.F.);
#405 = EDGE_LOOP('',(#406,#414,#421,#422));
#406 = ORIENTED_EDGE('',*,*,#407,.T.);
#407 = EDGE_CURVE('',#216,#408,#410,.T.);
#408 = VERTEX_POINT('',#409);
#409 = CARTESIAN_POINT('',(10.964415,9.,72.036901));
#410 = LINE('',#411,#412);
#411 = CARTESIAN_POINT('',(10.964415,1.599540522257E-14,72.036901));
#412 = VECTOR('',#413,1.);
#413 = DIRECTION('',(0.,1.,-2.22044604925E-16));
#414 = ORIENTED_EDGE('',*,*,#415,.T.);
#415 = EDGE_CURVE('',#408,#377,#416,.T.);
#416 = CIRCLE('',#417,2.969592);
#417 = AXIS2_PLACEMENT_3D('',#418,#419,#420);
#418 = CARTESIAN_POINT('',(7.994823,9.,72.036901));
#419 = DIRECTION('',(0.,-1.,2.22044604925E-16));
#420 = DIRECTION('',(1.,0.,0.));
#421 = ORIENTED_EDGE('',*,*,#376,.F.);
#422 = ORIENTED_EDGE('',*,*,#223,.F.);
#423 = CYLINDRICAL_SURFACE('',#424,2.969592);
#424 = AXIS2_PLACEMENT_3D('',#425,#426,#427);
#425 = CARTESIAN_POINT('',(7.994823,1.599540522257E-14,72.036901));
#426 = DIRECTION('',(0.,-1.,2.22044604925E-16));
#427 = DIRECTION('',(1.,0.,0.));
#428 = ADVANCED_FACE('',(#429),#447,.F.);
#429 = FACE_BOUND('',#430,.F.);
#430 = EDGE_LOOP('',(#431,#432,#440,#446));
#431 = ORIENTED_EDGE('',*,*,#215,.F.);
#432 = ORIENTED_EDGE('',*,*,#433,.F.);
#433 = EDGE_CURVE('',#434,#207,#436,.T.);
#434 = VERTEX_POINT('',#435);
#435 = CARTESIAN_POINT('',(10.964415,9.,45.816583767724));
#436 = LINE('',#437,#438);
#437 = CARTESIAN_POINT('',(10.964415,1.017332524172E-14,45.816583767724)
  );
#438 = VECTOR('',#439,1.);
#439 = DIRECTION('',(0.,-1.,2.22044604925E-16));
#440 = ORIENTED_EDGE('',*,*,#441,.T.);
#441 = EDGE_CURVE('',#434,#408,#442,.T.);
#442 = LINE('',#443,#444);
#443 = CARTESIAN_POINT('',(10.964415,9.,7.971558));
#444 = VECTOR('',#445,1.);
#445 = DIRECTION('',(0.,2.22044604925E-16,1.));
#446 = ORIENTED_EDGE('',*,*,#407,.F.);
#447 = PLANE('',#448);
#448 = AXIS2_PLACEMENT_3D('',#449,#450,#451);
#449 = CARTESIAN_POINT('',(10.964415,1.770041446747E-15,7.971558));
#450 = DIRECTION('',(1.,0.,0.));
#451 = DIRECTION('',(0.,2.22044604925E-16,1.));
#452 = ADVANCED_FACE('',(#453),#472,.F.);
#453 = FACE_BOUND('',#454,.F.);
#454 = EDGE_LOOP('',(#455,#456,#464,#471));
#455 = ORIENTED_EDGE('',*,*,#206,.F.);
#456 = ORIENTED_EDGE('',*,*,#457,.T.);
#457 = EDGE_CURVE('',#198,#458,#460,.T.);
#458 = VERTEX_POINT('',#459);
#459 = CARTESIAN_POINT('',(14.510811,9.,40.029213));
#460 = LINE('',#461,#462);
#461 = CARTESIAN_POINT('',(14.510811,8.888270786045E-15,40.029213));
#462 = VECTOR('',#463,1.);
#463 = DIRECTION('',(0.,1.,-2.22044604925E-16));
#464 = ORIENTED_EDGE('',*,*,#465,.T.);
#465 = EDGE_CURVE('',#458,#434,#466,.T.);
#466 = CIRCLE('',#467,6.495409);
#467 = AXIS2_PLACEMENT_3D('',#468,#469,#470);
#468 = CARTESIAN_POINT('',(8.015402,9.,40.029213));
#469 = DIRECTION('',(0.,-1.,2.22044604925E-16));
#470 = DIRECTION('',(1.,0.,0.));
#471 = ORIENTED_EDGE('',*,*,#433,.T.);
#472 = CYLINDRICAL_SURFACE('',#473,6.495409);
#473 = AXIS2_PLACEMENT_3D('',#474,#475,#476);
#474 = CARTESIAN_POINT('',(8.015402,8.888270786045E-15,40.029213));
#475 = DIRECTION('',(0.,-1.,2.22044604925E-16));
#476 = DIRECTION('',(1.,0.,0.));
#477 = ADVANCED_FACE('',(#478),#497,.F.);
#478 = FACE_BOUND('',#479,.F.);
#479 = EDGE_LOOP('',(#480,#481,#482,#490));
#480 = ORIENTED_EDGE('',*,*,#457,.F.);
#481 = ORIENTED_EDGE('',*,*,#197,.F.);
#482 = ORIENTED_EDGE('',*,*,#483,.F.);
#483 = EDGE_CURVE('',#484,#190,#486,.T.);
#484 = VERTEX_POINT('',#485);
#485 = CARTESIAN_POINT('',(10.964415,9.,34.241842232276));
#486 = LINE('',#487,#488);
#487 = CARTESIAN_POINT('',(10.964415,7.603216330371E-15,34.241842232276)
  );
#488 = VECTOR('',#489,1.);
#489 = DIRECTION('',(0.,-1.,2.22044604925E-16));
#490 = ORIENTED_EDGE('',*,*,#491,.T.);
#491 = EDGE_CURVE('',#484,#458,#492,.T.);
#492 = CIRCLE('',#493,6.495409);
#493 = AXIS2_PLACEMENT_3D('',#494,#495,#496);
#494 = CARTESIAN_POINT('',(8.015402,9.,40.029213));
#495 = DIRECTION('',(0.,-1.,2.22044604925E-16));
#496 = DIRECTION('',(1.,0.,0.));
#497 = CYLINDRICAL_SURFACE('',#498,6.495409);
#498 = AXIS2_PLACEMENT_3D('',#499,#500,#501);
#499 = CARTESIAN_POINT('',(8.015402,8.888270786045E-15,40.029213));
#500 = DIRECTION('',(0.,-1.,2.22044604925E-16));
#501 = DIRECTION('',(1.,0.,0.));
#502 = ADVANCED_FACE('',(#503),#521,.F.);
#503 = FACE_BOUND('',#504,.F.);
#504 = EDGE_LOOP('',(#505,#506,#514,#520));
#505 = ORIENTED_EDGE('',*,*,#189,.F.);
#506 = ORIENTED_EDGE('',*,*,#507,.T.);
#507 = EDGE_CURVE('',#181,#508,#510,.T.);
#508 = VERTEX_POINT('',#509);
#509 = CARTESIAN_POINT('',(10.964415,9.,7.971558));
#510 = LINE('',#511,#512);
#511 = CARTESIAN_POINT('',(10.964415,1.770041446747E-15,7.971558));
#512 = VECTOR('',#513,1.);
#513 = DIRECTION('',(0.,1.,-2.22044604925E-16));
#514 = ORIENTED_EDGE('',*,*,#515,.T.);
#515 = EDGE_CURVE('',#508,#484,#516,.T.);
#516 = LINE('',#517,#518);
#517 = CARTESIAN_POINT('',(10.964415,9.,7.971558));
#518 = VECTOR('',#519,1.);
#519 = DIRECTION('',(0.,2.22044604925E-16,1.));
#520 = ORIENTED_EDGE('',*,*,#483,.T.);
#521 = PLANE('',#522);
#522 = AXIS2_PLACEMENT_3D('',#523,#524,#525);
#523 = CARTESIAN_POINT('',(10.964415,1.770041446747E-15,7.971558));
#524 = DIRECTION('',(1.,0.,0.));
#525 = DIRECTION('',(0.,2.22044604925E-16,1.));
#526 = ADVANCED_FACE('',(#527),#546,.F.);
#527 = FACE_BOUND('',#528,.F.);
#528 = EDGE_LOOP('',(#529,#537,#544,#545));
#529 = ORIENTED_EDGE('',*,*,#530,.T.);
#530 = EDGE_CURVE('',#173,#531,#533,.T.);
#531 = VERTEX_POINT('',#532);
#532 = CARTESIAN_POINT('',(7.99935,9.,5.006493));
#533 = LINE('',#534,#535);
#534 = CARTESIAN_POINT('',(7.99935,1.111664760245E-15,5.006493));
#535 = VECTOR('',#536,1.);
#536 = DIRECTION('',(0.,1.,-2.22044604925E-16));
#537 = ORIENTED_EDGE('',*,*,#538,.T.);
#538 = EDGE_CURVE('',#531,#508,#539,.T.);
#539 = CIRCLE('',#540,2.965065);
#540 = AXIS2_PLACEMENT_3D('',#541,#542,#543);
#541 = CARTESIAN_POINT('',(7.99935,9.,7.971558));
#542 = DIRECTION('',(0.,-1.,2.22044604925E-16));
#543 = DIRECTION('',(1.,0.,0.));
#544 = ORIENTED_EDGE('',*,*,#507,.F.);
#545 = ORIENTED_EDGE('',*,*,#180,.F.);
#546 = CYLINDRICAL_SURFACE('',#547,2.965065);
#547 = AXIS2_PLACEMENT_3D('',#548,#549,#550);
#548 = CARTESIAN_POINT('',(7.99935,1.770041446747E-15,7.971558));
#549 = DIRECTION('',(0.,-1.,2.22044604925E-16));
#550 = DIRECTION('',(1.,0.,0.));
#551 = ADVANCED_FACE('',(#552),#570,.F.);
#552 = FACE_BOUND('',#553,.F.);
#553 = EDGE_LOOP('',(#554,#562,#568,#569));
#554 = ORIENTED_EDGE('',*,*,#555,.T.);
#555 = EDGE_CURVE('',#164,#556,#558,.T.);
#556 = VERTEX_POINT('',#557);
#557 = CARTESIAN_POINT('',(-8.046223,9.,5.006493));
#558 = LINE('',#559,#560);
#559 = CARTESIAN_POINT('',(-8.046223,1.111664760245E-15,5.006493));
#560 = VECTOR('',#561,1.);
#561 = DIRECTION('',(0.,1.,-2.22044604925E-16));
#562 = ORIENTED_EDGE('',*,*,#563,.T.);
#563 = EDGE_CURVE('',#556,#531,#564,.T.);
#564 = LINE('',#565,#566);
#565 = CARTESIAN_POINT('',(-8.046223,9.,5.006493));
#566 = VECTOR('',#567,1.);
#567 = DIRECTION('',(1.,0.,0.));
#568 = ORIENTED_EDGE('',*,*,#530,.F.);
#569 = ORIENTED_EDGE('',*,*,#172,.F.);
#570 = PLANE('',#571);
#571 = AXIS2_PLACEMENT_3D('',#572,#573,#574);
#572 = CARTESIAN_POINT('',(-8.046223,1.111664760245E-15,5.006493));
#573 = DIRECTION('',(0.,-2.22044604925E-16,-1.));
#574 = DIRECTION('',(1.,0.,0.));
#575 = ADVANCED_FACE('',(#576),#595,.F.);
#576 = FACE_BOUND('',#577,.F.);
#577 = EDGE_LOOP('',(#578,#586,#593,#594));
#578 = ORIENTED_EDGE('',*,*,#579,.T.);
#579 = EDGE_CURVE('',#156,#580,#582,.T.);
#580 = VERTEX_POINT('',#581);
#581 = CARTESIAN_POINT('',(-11.035585,9.,7.995855));
#582 = LINE('',#583,#584);
#583 = CARTESIAN_POINT('',(-11.035585,1.775436464513E-15,7.995855));
#584 = VECTOR('',#585,1.);
#585 = DIRECTION('',(0.,1.,-2.22044604925E-16));
#586 = ORIENTED_EDGE('',*,*,#587,.T.);
#587 = EDGE_CURVE('',#580,#556,#588,.T.);
#588 = CIRCLE('',#589,2.989362);
#589 = AXIS2_PLACEMENT_3D('',#590,#591,#592);
#590 = CARTESIAN_POINT('',(-8.046223,9.,7.995855));
#591 = DIRECTION('',(0.,-1.,2.22044604925E-16));
#592 = DIRECTION('',(1.,0.,0.));
#593 = ORIENTED_EDGE('',*,*,#555,.F.);
#594 = ORIENTED_EDGE('',*,*,#163,.F.);
#595 = CYLINDRICAL_SURFACE('',#596,2.989362);
#596 = AXIS2_PLACEMENT_3D('',#597,#598,#599);
#597 = CARTESIAN_POINT('',(-8.046223,1.775436464513E-15,7.995855));
#598 = DIRECTION('',(0.,-1.,2.22044604925E-16));
#599 = DIRECTION('',(1.,0.,0.));
#600 = ADVANCED_FACE('',(#601),#619,.F.);
#601 = FACE_BOUND('',#602,.F.);
#602 = EDGE_LOOP('',(#603,#604,#612,#618));
#603 = ORIENTED_EDGE('',*,*,#155,.F.);
#604 = ORIENTED_EDGE('',*,*,#605,.F.);
#605 = EDGE_CURVE('',#606,#147,#608,.T.);
#606 = VERTEX_POINT('',#607);
#607 = CARTESIAN_POINT('',(-11.035585,9.,34.247873731801));
#608 = LINE('',#609,#610);
#609 = CARTESIAN_POINT('',(-11.035585,7.6045555923E-15,34.247873731801)
  );
#610 = VECTOR('',#611,1.);
#611 = DIRECTION('',(0.,-1.,2.22044604925E-16));
#612 = ORIENTED_EDGE('',*,*,#613,.T.);
#613 = EDGE_CURVE('',#606,#580,#614,.T.);
#614 = LINE('',#615,#616);
#615 = CARTESIAN_POINT('',(-11.035585,9.,71.992149));
#616 = VECTOR('',#617,1.);
#617 = DIRECTION('',(0.,-2.22044604925E-16,-1.));
#618 = ORIENTED_EDGE('',*,*,#579,.F.);
#619 = PLANE('',#620);
#620 = AXIS2_PLACEMENT_3D('',#621,#622,#623);
#621 = CARTESIAN_POINT('',(-11.035585,1.598546828241E-14,71.992149));
#622 = DIRECTION('',(-1.,0.,0.));
#623 = DIRECTION('',(0.,-2.22044604925E-16,-1.));
#624 = ADVANCED_FACE('',(#625),#644,.F.);
#625 = FACE_BOUND('',#626,.F.);
#626 = EDGE_LOOP('',(#627,#628,#636,#643));
#627 = ORIENTED_EDGE('',*,*,#146,.F.);
#628 = ORIENTED_EDGE('',*,*,#629,.F.);
#629 = EDGE_CURVE('',#630,#139,#632,.T.);
#630 = VERTEX_POINT('',#631);
#631 = CARTESIAN_POINT('',(-11.035585,9.,45.756802268199));
#632 = LINE('',#633,#634);
#633 = CARTESIAN_POINT('',(-11.035585,1.016005108227E-14,45.756802268199
    ));
#634 = VECTOR('',#635,1.);
#635 = DIRECTION('',(0.,-1.,2.22044604925E-16));
#636 = ORIENTED_EDGE('',*,*,#637,.T.);
#637 = EDGE_CURVE('',#630,#606,#638,.T.);
#638 = CIRCLE('',#639,6.5);
#639 = AXIS2_PLACEMENT_3D('',#640,#641,#642);
#640 = CARTESIAN_POINT('',(-8.01298,9.,40.002338));
#641 = DIRECTION('',(0.,-1.,2.22044604925E-16));
#642 = DIRECTION('',(1.,0.,0.));
#643 = ORIENTED_EDGE('',*,*,#605,.T.);
#644 = CYLINDRICAL_SURFACE('',#645,6.5);
#645 = AXIS2_PLACEMENT_3D('',#646,#647,#648);
#646 = CARTESIAN_POINT('',(-8.01298,8.882303337288E-15,40.002338));
#647 = DIRECTION('',(0.,-1.,2.22044604925E-16));
#648 = DIRECTION('',(1.,0.,0.));
#649 = ADVANCED_FACE('',(#650),#668,.F.);
#650 = FACE_BOUND('',#651,.F.);
#651 = EDGE_LOOP('',(#652,#653,#661,#667));
#652 = ORIENTED_EDGE('',*,*,#138,.F.);
#653 = ORIENTED_EDGE('',*,*,#654,.T.);
#654 = EDGE_CURVE('',#130,#655,#657,.T.);
#655 = VERTEX_POINT('',#656);
#656 = CARTESIAN_POINT('',(-11.035585,9.,71.992149));
#657 = LINE('',#658,#659);
#658 = CARTESIAN_POINT('',(-11.035585,1.598546828241E-14,71.992149));
#659 = VECTOR('',#660,1.);
#660 = DIRECTION('',(0.,1.,-2.22044604925E-16));
#661 = ORIENTED_EDGE('',*,*,#662,.T.);
#662 = EDGE_CURVE('',#655,#630,#663,.T.);
#663 = LINE('',#664,#665);
#664 = CARTESIAN_POINT('',(-11.035585,9.,71.992149));
#665 = VECTOR('',#666,1.);
#666 = DIRECTION('',(0.,-2.22044604925E-16,-1.));
#667 = ORIENTED_EDGE('',*,*,#629,.T.);
#668 = PLANE('',#669);
#669 = AXIS2_PLACEMENT_3D('',#670,#671,#672);
#670 = CARTESIAN_POINT('',(-11.035585,1.598546828241E-14,71.992149));
#671 = DIRECTION('',(-1.,0.,0.));
#672 = DIRECTION('',(0.,-2.22044604925E-16,-1.));
#673 = ADVANCED_FACE('',(#674),#686,.F.);
#674 = FACE_BOUND('',#675,.F.);
#675 = EDGE_LOOP('',(#676,#677,#684,#685));
#676 = ORIENTED_EDGE('',*,*,#392,.T.);
#677 = ORIENTED_EDGE('',*,*,#678,.T.);
#678 = EDGE_CURVE('',#385,#655,#679,.T.);
#679 = CIRCLE('',#680,3.014344);
#680 = AXIS2_PLACEMENT_3D('',#681,#682,#683);
#681 = CARTESIAN_POINT('',(-8.021241,9.,71.992149));
#682 = DIRECTION('',(0.,-1.,2.22044604925E-16));
#683 = DIRECTION('',(1.,0.,0.));
#684 = ORIENTED_EDGE('',*,*,#654,.F.);
#685 = ORIENTED_EDGE('',*,*,#129,.F.);
#686 = CYLINDRICAL_SURFACE('',#687,3.014344);
#687 = AXIS2_PLACEMENT_3D('',#688,#689,#690);
#688 = CARTESIAN_POINT('',(-8.021241,1.598546828241E-14,71.992149));
#689 = DIRECTION('',(0.,-1.,2.22044604925E-16));
#690 = DIRECTION('',(1.,0.,0.));
#691 = ADVANCED_FACE('',(#692),#703,.F.);
#692 = FACE_BOUND('',#693,.F.);
#693 = EDGE_LOOP('',(#694,#695,#696,#702));
#694 = ORIENTED_EDGE('',*,*,#361,.T.);
#695 = ORIENTED_EDGE('',*,*,#301,.T.);
#696 = ORIENTED_EDGE('',*,*,#697,.F.);
#697 = EDGE_CURVE('',#250,#302,#698,.T.);
#698 = LINE('',#699,#700);
#699 = CARTESIAN_POINT('',(17.667258635341,15.366396943978,0.));
#700 = VECTOR('',#701,1.);
#701 = DIRECTION('',(0.,0.,1.));
#702 = ORIENTED_EDGE('',*,*,#249,.F.);
#703 = PLANE('',#704);
#704 = AXIS2_PLACEMENT_3D('',#705,#706,#707);
#705 = CARTESIAN_POINT('',(21.296666141856,0.809612342529,0.));
#706 = DIRECTION('',(-0.970295828385,-0.241921486063,0.));
#707 = DIRECTION('',(-0.241921486063,0.970295828385,0.));
#708 = ADVANCED_FACE('',(#709),#720,.T.);
#709 = FACE_BOUND('',#710,.F.);
#710 = EDGE_LOOP('',(#711,#712,#713,#719));
#711 = ORIENTED_EDGE('',*,*,#697,.T.);
#712 = ORIENTED_EDGE('',*,*,#309,.T.);
#713 = ORIENTED_EDGE('',*,*,#714,.F.);
#714 = EDGE_CURVE('',#258,#310,#715,.T.);
#715 = LINE('',#716,#717);
#716 = CARTESIAN_POINT('',(16.856161184111,16.000095999976,0.));
#717 = VECTOR('',#718,1.);
#718 = DIRECTION('',(0.,0.,1.));
#719 = ORIENTED_EDGE('',*,*,#257,.F.);
#720 = CYLINDRICAL_SURFACE('',#721,0.835928);
#721 = AXIS2_PLACEMENT_3D('',#722,#723,#724);
#722 = CARTESIAN_POINT('',(16.856161184111,15.164167999976,0.));
#723 = DIRECTION('',(-0.,-0.,-1.));
#724 = DIRECTION('',(1.,0.,0.));
#725 = ADVANCED_FACE('',(#726,#732,#743,#754,#765,#776,#787,#798),#809,
  .T.);
#726 = FACE_BOUND('',#727,.T.);
#727 = EDGE_LOOP('',(#728,#729,#730,#731));
#728 = ORIENTED_EDGE('',*,*,#342,.T.);
#729 = ORIENTED_EDGE('',*,*,#318,.T.);
#730 = ORIENTED_EDGE('',*,*,#714,.F.);
#731 = ORIENTED_EDGE('',*,*,#266,.F.);
#732 = FACE_BOUND('',#733,.T.);
#733 = EDGE_LOOP('',(#734));
#734 = ORIENTED_EDGE('',*,*,#735,.F.);
#735 = EDGE_CURVE('',#736,#736,#738,.T.);
#736 = VERTEX_POINT('',#737);
#737 = CARTESIAN_POINT('',(-7.3,16.000095999976,49.093266739737));
#738 = CIRCLE('',#739,2.05);
#739 = AXIS2_PLACEMENT_3D('',#740,#741,#742);
#740 = CARTESIAN_POINT('',(-5.25,16.000095999976,49.093266739737));
#741 = DIRECTION('',(0.,1.,-2.22044604925E-16));
#742 = DIRECTION('',(-1.,0.,0.));
#743 = FACE_BOUND('',#744,.T.);
#744 = EDGE_LOOP('',(#745));
#745 = ORIENTED_EDGE('',*,*,#746,.F.);
#746 = EDGE_CURVE('',#747,#747,#749,.T.);
#747 = VERTEX_POINT('',#748);
#748 = CARTESIAN_POINT('',(3.2,16.000095999976,49.093266739737));
#749 = CIRCLE('',#750,2.05);
#750 = AXIS2_PLACEMENT_3D('',#751,#752,#753);
#751 = CARTESIAN_POINT('',(5.25,16.000095999976,49.093266739737));
#752 = DIRECTION('',(0.,1.,-2.22044604925E-16));
#753 = DIRECTION('',(-1.,0.,0.));
#754 = FACE_BOUND('',#755,.T.);
#755 = EDGE_LOOP('',(#756));
#756 = ORIENTED_EDGE('',*,*,#757,.F.);
#757 = EDGE_CURVE('',#758,#758,#760,.T.);
#758 = VERTEX_POINT('',#759);
#759 = CARTESIAN_POINT('',(-12.55,16.000095999976,40.));
#760 = CIRCLE('',#761,2.05);
#761 = AXIS2_PLACEMENT_3D('',#762,#763,#764);
#762 = CARTESIAN_POINT('',(-10.5,16.000095999976,40.));
#763 = DIRECTION('',(0.,1.,-2.22044604925E-16));
#764 = DIRECTION('',(-1.,0.,0.));
#765 = FACE_BOUND('',#766,.T.);
#766 = EDGE_LOOP('',(#767));
#767 = ORIENTED_EDGE('',*,*,#768,.F.);
#768 = EDGE_CURVE('',#769,#769,#771,.T.);
#769 = VERTEX_POINT('',#770);
#770 = CARTESIAN_POINT('',(-7.3,16.000095999976,30.906733260263));
#771 = CIRCLE('',#772,2.05);
#772 = AXIS2_PLACEMENT_3D('',#773,#774,#775);
#773 = CARTESIAN_POINT('',(-5.25,16.000095999976,30.906733260263));
#774 = DIRECTION('',(0.,1.,-2.22044604925E-16));
#775 = DIRECTION('',(-1.,0.,0.));
#776 = FACE_BOUND('',#777,.T.);
#777 = EDGE_LOOP('',(#778));
#778 = ORIENTED_EDGE('',*,*,#779,.F.);
#779 = EDGE_CURVE('',#780,#780,#782,.T.);
#780 = VERTEX_POINT('',#781);
#781 = CARTESIAN_POINT('',(-2.05,16.000095999976,40.));
#782 = CIRCLE('',#783,2.05);
#783 = AXIS2_PLACEMENT_3D('',#784,#785,#786);
#784 = CARTESIAN_POINT('',(0.,16.000095999976,40.));
#785 = DIRECTION('',(0.,1.,-2.22044604925E-16));
#786 = DIRECTION('',(-1.,0.,0.));
#787 = FACE_BOUND('',#788,.T.);
#788 = EDGE_LOOP('',(#789));
#789 = ORIENTED_EDGE('',*,*,#790,.F.);
#790 = EDGE_CURVE('',#791,#791,#793,.T.);
#791 = VERTEX_POINT('',#792);
#792 = CARTESIAN_POINT('',(8.45,16.000095999976,40.));
#793 = CIRCLE('',#794,2.05);
#794 = AXIS2_PLACEMENT_3D('',#795,#796,#797);
#795 = CARTESIAN_POINT('',(10.5,16.000095999976,40.));
#796 = DIRECTION('',(0.,1.,-2.22044604925E-16));
#797 = DIRECTION('',(-1.,0.,0.));
#798 = FACE_BOUND('',#799,.T.);
#799 = EDGE_LOOP('',(#800));
#800 = ORIENTED_EDGE('',*,*,#801,.F.);
#801 = EDGE_CURVE('',#802,#802,#804,.T.);
#802 = VERTEX_POINT('',#803);
#803 = CARTESIAN_POINT('',(3.2,16.000095999976,30.906733260263));
#804 = CIRCLE('',#805,2.05);
#805 = AXIS2_PLACEMENT_3D('',#806,#807,#808);
#806 = CARTESIAN_POINT('',(5.25,16.000095999976,30.906733260263));
#807 = DIRECTION('',(0.,1.,-2.22044604925E-16));
#808 = DIRECTION('',(-1.,0.,0.));
#809 = PLANE('',#810);
#810 = AXIS2_PLACEMENT_3D('',#811,#812,#813);
#811 = CARTESIAN_POINT('',(-16.86145335223,16.000095999976,0.));
#812 = DIRECTION('',(0.,1.,0.));
#813 = DIRECTION('',(1.,0.,0.));
#814 = ADVANCED_FACE('',(#815,#847,#858),#869,.F.);
#815 = FACE_BOUND('',#816,.F.);
#816 = EDGE_LOOP('',(#817,#818,#819,#820,#821,#822,#831,#840));
#817 = ORIENTED_EDGE('',*,*,#662,.F.);
#818 = ORIENTED_EDGE('',*,*,#678,.F.);
#819 = ORIENTED_EDGE('',*,*,#384,.F.);
#820 = ORIENTED_EDGE('',*,*,#415,.F.);
#821 = ORIENTED_EDGE('',*,*,#441,.F.);
#822 = ORIENTED_EDGE('',*,*,#823,.T.);
#823 = EDGE_CURVE('',#434,#824,#826,.T.);
#824 = VERTEX_POINT('',#825);
#825 = CARTESIAN_POINT('',(1.633562595886,9.,41.238536735556));
#826 = CIRCLE('',#827,6.495409);
#827 = AXIS2_PLACEMENT_3D('',#828,#829,#830);
#828 = CARTESIAN_POINT('',(8.015402,9.,40.029213));
#829 = DIRECTION('',(0.,-1.,2.22044604925E-16));
#830 = DIRECTION('',(1.,0.,0.));
#831 = ORIENTED_EDGE('',*,*,#832,.T.);
#832 = EDGE_CURVE('',#824,#833,#835,.T.);
#833 = VERTEX_POINT('',#834);
#834 = CARTESIAN_POINT('',(-1.632011623381,9.,41.240579727849));
#835 = CIRCLE('',#836,2.05);
#836 = AXIS2_PLACEMENT_3D('',#837,#838,#839);
#837 = CARTESIAN_POINT('',(0.,9.,40.));
#838 = DIRECTION('',(0.,-1.,2.22044604925E-16));
#839 = DIRECTION('',(-1.,0.,0.));
#840 = ORIENTED_EDGE('',*,*,#841,.T.);
#841 = EDGE_CURVE('',#833,#630,#842,.T.);
#842 = CIRCLE('',#843,6.5);
#843 = AXIS2_PLACEMENT_3D('',#844,#845,#846);
#844 = CARTESIAN_POINT('',(-8.01298,9.,40.002338));
#845 = DIRECTION('',(0.,-1.,2.22044604925E-16));
#846 = DIRECTION('',(1.,0.,0.));
#847 = FACE_BOUND('',#848,.F.);
#848 = EDGE_LOOP('',(#849));
#849 = ORIENTED_EDGE('',*,*,#850,.T.);
#850 = EDGE_CURVE('',#851,#851,#853,.T.);
#851 = VERTEX_POINT('',#852);
#852 = CARTESIAN_POINT('',(-7.3,9.,49.093266739737));
#853 = CIRCLE('',#854,2.05);
#854 = AXIS2_PLACEMENT_3D('',#855,#856,#857);
#855 = CARTESIAN_POINT('',(-5.25,9.,49.093266739737));
#856 = DIRECTION('',(0.,-1.,2.22044604925E-16));
#857 = DIRECTION('',(-1.,0.,0.));
#858 = FACE_BOUND('',#859,.F.);
#859 = EDGE_LOOP('',(#860));
#860 = ORIENTED_EDGE('',*,*,#861,.T.);
#861 = EDGE_CURVE('',#862,#862,#864,.T.);
#862 = VERTEX_POINT('',#863);
#863 = CARTESIAN_POINT('',(3.2,9.,49.093266739737));
#864 = CIRCLE('',#865,2.05);
#865 = AXIS2_PLACEMENT_3D('',#866,#867,#868);
#866 = CARTESIAN_POINT('',(5.25,9.,49.093266739737));
#867 = DIRECTION('',(0.,-1.,2.22044604925E-16));
#868 = DIRECTION('',(-1.,0.,0.));
#869 = PLANE('',#870);
#870 = AXIS2_PLACEMENT_3D('',#871,#872,#873);
#871 = CARTESIAN_POINT('',(-3.348350180027E-02,9.,40.003822373842));
#872 = DIRECTION('',(0.,1.,0.));
#873 = DIRECTION('',(0.,0.,1.));
#874 = ADVANCED_FACE('',(#875),#902,.F.);
#875 = FACE_BOUND('',#876,.F.);
#876 = EDGE_LOOP('',(#877,#878,#879,#887,#896));
#877 = ORIENTED_EDGE('',*,*,#465,.F.);
#878 = ORIENTED_EDGE('',*,*,#491,.F.);
#879 = ORIENTED_EDGE('',*,*,#880,.T.);
#880 = EDGE_CURVE('',#484,#881,#883,.T.);
#881 = VERTEX_POINT('',#882);
#882 = CARTESIAN_POINT('',(10.964415,9.,38.003298042327));
#883 = LINE('',#884,#885);
#884 = CARTESIAN_POINT('',(10.964415,9.,7.971558));
#885 = VECTOR('',#886,1.);
#886 = DIRECTION('',(0.,2.22044604925E-16,1.));
#887 = ORIENTED_EDGE('',*,*,#888,.T.);
#888 = EDGE_CURVE('',#881,#889,#891,.T.);
#889 = VERTEX_POINT('',#890);
#890 = CARTESIAN_POINT('',(10.964415,9.,41.996701957673));
#891 = CIRCLE('',#892,2.05);
#892 = AXIS2_PLACEMENT_3D('',#893,#894,#895);
#893 = CARTESIAN_POINT('',(10.5,9.,40.));
#894 = DIRECTION('',(0.,-1.,2.22044604925E-16));
#895 = DIRECTION('',(-1.,0.,0.));
#896 = ORIENTED_EDGE('',*,*,#897,.T.);
#897 = EDGE_CURVE('',#889,#434,#898,.T.);
#898 = LINE('',#899,#900);
#899 = CARTESIAN_POINT('',(10.964415,9.,7.971558));
#900 = VECTOR('',#901,1.);
#901 = DIRECTION('',(0.,2.22044604925E-16,1.));
#902 = PLANE('',#903);
#903 = AXIS2_PLACEMENT_3D('',#904,#905,#906);
#904 = CARTESIAN_POINT('',(-1.620242239547E-03,9.,40.015770752819));
#905 = DIRECTION('',(0.,1.,-2.22044604925E-16));
#906 = DIRECTION('',(0.,2.22044604925E-16,1.));
#907 = ADVANCED_FACE('',(#908,#940,#951),#962,.F.);
#908 = FACE_BOUND('',#909,.F.);
#909 = EDGE_LOOP('',(#910,#919,#928,#935,#936,#937,#938,#939));
#910 = ORIENTED_EDGE('',*,*,#911,.T.);
#911 = EDGE_CURVE('',#606,#912,#914,.T.);
#912 = VERTEX_POINT('',#913);
#913 = CARTESIAN_POINT('',(-1.632735289693,9.,38.760372848881));
#914 = CIRCLE('',#915,6.5);
#915 = AXIS2_PLACEMENT_3D('',#916,#917,#918);
#916 = CARTESIAN_POINT('',(-8.01298,9.,40.002338));
#917 = DIRECTION('',(0.,-1.,2.22044604925E-16));
#918 = DIRECTION('',(1.,0.,0.));
#919 = ORIENTED_EDGE('',*,*,#920,.T.);
#920 = EDGE_CURVE('',#912,#921,#923,.T.);
#921 = VERTEX_POINT('',#922);
#922 = CARTESIAN_POINT('',(1.642547041097,9.,38.77340340055));
#923 = CIRCLE('',#924,2.05);
#924 = AXIS2_PLACEMENT_3D('',#925,#926,#927);
#925 = CARTESIAN_POINT('',(0.,9.,40.));
#926 = DIRECTION('',(0.,-1.,2.22044604925E-16));
#927 = DIRECTION('',(-1.,0.,0.));
#928 = ORIENTED_EDGE('',*,*,#929,.T.);
#929 = EDGE_CURVE('',#921,#484,#930,.T.);
#930 = CIRCLE('',#931,6.495409);
#931 = AXIS2_PLACEMENT_3D('',#932,#933,#934);
#932 = CARTESIAN_POINT('',(8.015402,9.,40.029213));
#933 = DIRECTION('',(0.,-1.,2.22044604925E-16));
#934 = DIRECTION('',(1.,0.,0.));
#935 = ORIENTED_EDGE('',*,*,#515,.F.);
#936 = ORIENTED_EDGE('',*,*,#538,.F.);
#937 = ORIENTED_EDGE('',*,*,#563,.F.);
#938 = ORIENTED_EDGE('',*,*,#587,.F.);
#939 = ORIENTED_EDGE('',*,*,#613,.F.);
#940 = FACE_BOUND('',#941,.F.);
#941 = EDGE_LOOP('',(#942));
#942 = ORIENTED_EDGE('',*,*,#943,.T.);
#943 = EDGE_CURVE('',#944,#944,#946,.T.);
#944 = VERTEX_POINT('',#945);
#945 = CARTESIAN_POINT('',(-7.3,9.,30.906733260263));
#946 = CIRCLE('',#947,2.05);
#947 = AXIS2_PLACEMENT_3D('',#948,#949,#950);
#948 = CARTESIAN_POINT('',(-5.25,9.,30.906733260263));
#949 = DIRECTION('',(0.,-1.,2.22044604925E-16));
#950 = DIRECTION('',(-1.,0.,0.));
#951 = FACE_BOUND('',#952,.F.);
#952 = EDGE_LOOP('',(#953));
#953 = ORIENTED_EDGE('',*,*,#954,.T.);
#954 = EDGE_CURVE('',#955,#955,#957,.T.);
#955 = VERTEX_POINT('',#956);
#956 = CARTESIAN_POINT('',(3.2,9.,30.906733260263));
#957 = CIRCLE('',#958,2.05);
#958 = AXIS2_PLACEMENT_3D('',#959,#960,#961);
#959 = CARTESIAN_POINT('',(5.25,9.,30.906733260263));
#960 = DIRECTION('',(0.,-1.,2.22044604925E-16));
#961 = DIRECTION('',(-1.,0.,0.));
#962 = PLANE('',#963);
#963 = AXIS2_PLACEMENT_3D('',#964,#965,#966);
#964 = CARTESIAN_POINT('',(-3.348350180027E-02,9.,40.003822373842));
#965 = DIRECTION('',(0.,1.,0.));
#966 = DIRECTION('',(0.,0.,1.));
#967 = ADVANCED_FACE('',(#968),#1003,.F.);
#968 = FACE_BOUND('',#969,.F.);
#969 = EDGE_LOOP('',(#970,#971,#979,#988,#997));
#970 = ORIENTED_EDGE('',*,*,#637,.F.);
#971 = ORIENTED_EDGE('',*,*,#972,.T.);
#972 = EDGE_CURVE('',#630,#973,#975,.T.);
#973 = VERTEX_POINT('',#974);
#974 = CARTESIAN_POINT('',(-11.035585,9.,41.978799814983));
#975 = LINE('',#976,#977);
#976 = CARTESIAN_POINT('',(-11.035585,9.,71.992149));
#977 = VECTOR('',#978,1.);
#978 = DIRECTION('',(0.,-2.22044604925E-16,-1.));
#979 = ORIENTED_EDGE('',*,*,#980,.T.);
#980 = EDGE_CURVE('',#973,#981,#983,.T.);
#981 = VERTEX_POINT('',#982);
#982 = CARTESIAN_POINT('',(-12.55,9.,40.));
#983 = CIRCLE('',#984,2.05);
#984 = AXIS2_PLACEMENT_3D('',#985,#986,#987);
#985 = CARTESIAN_POINT('',(-10.5,9.,40.));
#986 = DIRECTION('',(0.,-1.,2.22044604925E-16));
#987 = DIRECTION('',(-1.,0.,0.));
#988 = ORIENTED_EDGE('',*,*,#989,.T.);
#989 = EDGE_CURVE('',#981,#990,#992,.T.);
#990 = VERTEX_POINT('',#991);
#991 = CARTESIAN_POINT('',(-11.035585,9.,38.021200185017));
#992 = CIRCLE('',#993,2.05);
#993 = AXIS2_PLACEMENT_3D('',#994,#995,#996);
#994 = CARTESIAN_POINT('',(-10.5,9.,40.));
#995 = DIRECTION('',(0.,-1.,2.22044604925E-16));
#996 = DIRECTION('',(-1.,0.,0.));
#997 = ORIENTED_EDGE('',*,*,#998,.T.);
#998 = EDGE_CURVE('',#990,#606,#999,.T.);
#999 = LINE('',#1000,#1001);
#1000 = CARTESIAN_POINT('',(-11.035585,9.,71.992149));
#1001 = VECTOR('',#1002,1.);
#1002 = DIRECTION('',(0.,-2.22044604925E-16,-1.));
#1003 = PLANE('',#1004);
#1004 = AXIS2_PLACEMENT_3D('',#1005,#1006,#1007);
#1005 = CARTESIAN_POINT('',(-1.620242239547E-03,9.,40.015770752819));
#1006 = DIRECTION('',(0.,1.,-2.22044604925E-16));
#1007 = DIRECTION('',(0.,2.22044604925E-16,1.));
#1008 = ADVANCED_FACE('',(#1009),#1020,.F.);
#1009 = FACE_BOUND('',#1010,.T.);
#1010 = EDGE_LOOP('',(#1011,#1017,#1018,#1019));
#1011 = ORIENTED_EDGE('',*,*,#1012,.F.);
#1012 = EDGE_CURVE('',#851,#736,#1013,.T.);
#1013 = LINE('',#1014,#1015);
#1014 = CARTESIAN_POINT('',(-7.3,9.,49.093266739737));
#1015 = VECTOR('',#1016,1.);
#1016 = DIRECTION('',(6.209441486942E-17,1.,-2.22044604925E-16));
#1017 = ORIENTED_EDGE('',*,*,#850,.T.);
#1018 = ORIENTED_EDGE('',*,*,#1012,.T.);
#1019 = ORIENTED_EDGE('',*,*,#735,.T.);
#1020 = CYLINDRICAL_SURFACE('',#1021,2.05);
#1021 = AXIS2_PLACEMENT_3D('',#1022,#1023,#1024);
#1022 = CARTESIAN_POINT('',(-5.25,9.,49.093266739737));
#1023 = DIRECTION('',(0.,1.,-2.22044604925E-16));
#1024 = DIRECTION('',(-1.,0.,0.));
#1025 = ADVANCED_FACE('',(#1026),#1037,.F.);
#1026 = FACE_BOUND('',#1027,.T.);
#1027 = EDGE_LOOP('',(#1028,#1034,#1035,#1036));
#1028 = ORIENTED_EDGE('',*,*,#1029,.F.);
#1029 = EDGE_CURVE('',#862,#747,#1030,.T.);
#1030 = LINE('',#1031,#1032);
#1031 = CARTESIAN_POINT('',(3.2,9.,49.093266739737));
#1032 = VECTOR('',#1033,1.);
#1033 = DIRECTION('',(6.209441486942E-17,1.,-2.22044604925E-16));
#1034 = ORIENTED_EDGE('',*,*,#861,.T.);
#1035 = ORIENTED_EDGE('',*,*,#1029,.T.);
#1036 = ORIENTED_EDGE('',*,*,#746,.T.);
#1037 = CYLINDRICAL_SURFACE('',#1038,2.05);
#1038 = AXIS2_PLACEMENT_3D('',#1039,#1040,#1041);
#1039 = CARTESIAN_POINT('',(5.25,9.,49.093266739737));
#1040 = DIRECTION('',(0.,1.,-2.22044604925E-16));
#1041 = DIRECTION('',(-1.,0.,0.));
#1042 = ADVANCED_FACE('',(#1043),#1062,.F.);
#1043 = FACE_BOUND('',#1044,.T.);
#1044 = EDGE_LOOP('',(#1045,#1051,#1052,#1059,#1060,#1061));
#1045 = ORIENTED_EDGE('',*,*,#1046,.F.);
#1046 = EDGE_CURVE('',#981,#758,#1047,.T.);
#1047 = LINE('',#1048,#1049);
#1048 = CARTESIAN_POINT('',(-12.55,9.,40.));
#1049 = VECTOR('',#1050,1.);
#1050 = DIRECTION('',(6.209441486942E-17,1.,-2.22044604925E-16));
#1051 = ORIENTED_EDGE('',*,*,#989,.T.);
#1052 = ORIENTED_EDGE('',*,*,#1053,.T.);
#1053 = EDGE_CURVE('',#990,#973,#1054,.T.);
#1054 = CIRCLE('',#1055,2.05);
#1055 = AXIS2_PLACEMENT_3D('',#1056,#1057,#1058);
#1056 = CARTESIAN_POINT('',(-10.5,9.,40.));
#1057 = DIRECTION('',(0.,-1.,2.22044604925E-16));
#1058 = DIRECTION('',(-1.,0.,0.));
#1059 = ORIENTED_EDGE('',*,*,#980,.T.);
#1060 = ORIENTED_EDGE('',*,*,#1046,.T.);
#1061 = ORIENTED_EDGE('',*,*,#757,.T.);
#1062 = CYLINDRICAL_SURFACE('',#1063,2.05);
#1063 = AXIS2_PLACEMENT_3D('',#1064,#1065,#1066);
#1064 = CARTESIAN_POINT('',(-10.5,9.,40.));
#1065 = DIRECTION('',(0.,1.,-2.22044604925E-16));
#1066 = DIRECTION('',(-1.,0.,0.));
#1067 = ADVANCED_FACE('',(#1068),#1079,.F.);
#1068 = FACE_BOUND('',#1069,.T.);
#1069 = EDGE_LOOP('',(#1070,#1076,#1077,#1078));
#1070 = ORIENTED_EDGE('',*,*,#1071,.F.);
#1071 = EDGE_CURVE('',#944,#769,#1072,.T.);
#1072 = LINE('',#1073,#1074);
#1073 = CARTESIAN_POINT('',(-7.3,9.,30.906733260263));
#1074 = VECTOR('',#1075,1.);
#1075 = DIRECTION('',(6.209441486942E-17,1.,-2.22044604925E-16));
#1076 = ORIENTED_EDGE('',*,*,#943,.T.);
#1077 = ORIENTED_EDGE('',*,*,#1071,.T.);
#1078 = ORIENTED_EDGE('',*,*,#768,.T.);
#1079 = CYLINDRICAL_SURFACE('',#1080,2.05);
#1080 = AXIS2_PLACEMENT_3D('',#1081,#1082,#1083);
#1081 = CARTESIAN_POINT('',(-5.25,9.,30.906733260263));
#1082 = DIRECTION('',(0.,1.,-2.22044604925E-16));
#1083 = DIRECTION('',(-1.,0.,0.));
#1084 = ADVANCED_FACE('',(#1085),#1120,.F.);
#1085 = FACE_BOUND('',#1086,.T.);
#1086 = EDGE_LOOP('',(#1087,#1095,#1102,#1103,#1110,#1111,#1118,#1119));
#1087 = ORIENTED_EDGE('',*,*,#1088,.F.);
#1088 = EDGE_CURVE('',#1089,#780,#1091,.T.);
#1089 = VERTEX_POINT('',#1090);
#1090 = CARTESIAN_POINT('',(-2.05,9.,40.));
#1091 = LINE('',#1092,#1093);
#1092 = CARTESIAN_POINT('',(-2.05,9.,40.));
#1093 = VECTOR('',#1094,1.);
#1094 = DIRECTION('',(6.209441486942E-17,1.,-2.22044604925E-16));
#1095 = ORIENTED_EDGE('',*,*,#1096,.T.);
#1096 = EDGE_CURVE('',#1089,#912,#1097,.T.);
#1097 = CIRCLE('',#1098,2.05);
#1098 = AXIS2_PLACEMENT_3D('',#1099,#1100,#1101);
#1099 = CARTESIAN_POINT('',(0.,9.,40.));
#1100 = DIRECTION('',(0.,-1.,2.22044604925E-16));
#1101 = DIRECTION('',(-1.,0.,0.));
#1102 = ORIENTED_EDGE('',*,*,#920,.T.);
#1103 = ORIENTED_EDGE('',*,*,#1104,.T.);
#1104 = EDGE_CURVE('',#921,#824,#1105,.T.);
#1105 = CIRCLE('',#1106,2.05);
#1106 = AXIS2_PLACEMENT_3D('',#1107,#1108,#1109);
#1107 = CARTESIAN_POINT('',(0.,9.,40.));
#1108 = DIRECTION('',(0.,-1.,2.22044604925E-16));
#1109 = DIRECTION('',(-1.,0.,0.));
#1110 = ORIENTED_EDGE('',*,*,#832,.T.);
#1111 = ORIENTED_EDGE('',*,*,#1112,.T.);
#1112 = EDGE_CURVE('',#833,#1089,#1113,.T.);
#1113 = CIRCLE('',#1114,2.05);
#1114 = AXIS2_PLACEMENT_3D('',#1115,#1116,#1117);
#1115 = CARTESIAN_POINT('',(0.,9.,40.));
#1116 = DIRECTION('',(0.,-1.,2.22044604925E-16));
#1117 = DIRECTION('',(-1.,0.,0.));
#1118 = ORIENTED_EDGE('',*,*,#1088,.T.);
#1119 = ORIENTED_EDGE('',*,*,#779,.T.);
#1120 = CYLINDRICAL_SURFACE('',#1121,2.05);
#1121 = AXIS2_PLACEMENT_3D('',#1122,#1123,#1124);
#1122 = CARTESIAN_POINT('',(0.,9.,40.));
#1123 = DIRECTION('',(0.,1.,-2.22044604925E-16));
#1124 = DIRECTION('',(-1.,0.,0.));
#1125 = ADVANCED_FACE('',(#1126),#1153,.F.);
#1126 = FACE_BOUND('',#1127,.T.);
#1127 = EDGE_LOOP('',(#1128,#1136,#1143,#1144,#1151,#1152));
#1128 = ORIENTED_EDGE('',*,*,#1129,.F.);
#1129 = EDGE_CURVE('',#1130,#791,#1132,.T.);
#1130 = VERTEX_POINT('',#1131);
#1131 = CARTESIAN_POINT('',(8.45,9.,40.));
#1132 = LINE('',#1133,#1134);
#1133 = CARTESIAN_POINT('',(8.45,9.,40.));
#1134 = VECTOR('',#1135,1.);
#1135 = DIRECTION('',(6.209441486942E-17,1.,-2.22044604925E-16));
#1136 = ORIENTED_EDGE('',*,*,#1137,.T.);
#1137 = EDGE_CURVE('',#1130,#881,#1138,.T.);
#1138 = CIRCLE('',#1139,2.05);
#1139 = AXIS2_PLACEMENT_3D('',#1140,#1141,#1142);
#1140 = CARTESIAN_POINT('',(10.5,9.,40.));
#1141 = DIRECTION('',(0.,-1.,2.22044604925E-16));
#1142 = DIRECTION('',(-1.,0.,0.));
#1143 = ORIENTED_EDGE('',*,*,#888,.T.);
#1144 = ORIENTED_EDGE('',*,*,#1145,.T.);
#1145 = EDGE_CURVE('',#889,#1130,#1146,.T.);
#1146 = CIRCLE('',#1147,2.05);
#1147 = AXIS2_PLACEMENT_3D('',#1148,#1149,#1150);
#1148 = CARTESIAN_POINT('',(10.5,9.,40.));
#1149 = DIRECTION('',(0.,-1.,2.22044604925E-16));
#1150 = DIRECTION('',(-1.,0.,0.));
#1151 = ORIENTED_EDGE('',*,*,#1129,.T.);
#1152 = ORIENTED_EDGE('',*,*,#790,.T.);
#1153 = CYLINDRICAL_SURFACE('',#1154,2.05);
#1154 = AXIS2_PLACEMENT_3D('',#1155,#1156,#1157);
#1155 = CARTESIAN_POINT('',(10.5,9.,40.));
#1156 = DIRECTION('',(0.,1.,-2.22044604925E-16));
#1157 = DIRECTION('',(-1.,0.,0.));
#1158 = ADVANCED_FACE('',(#1159),#1170,.F.);
#1159 = FACE_BOUND('',#1160,.T.);
#1160 = EDGE_LOOP('',(#1161,#1167,#1168,#1169));
#1161 = ORIENTED_EDGE('',*,*,#1162,.F.);
#1162 = EDGE_CURVE('',#955,#802,#1163,.T.);
#1163 = LINE('',#1164,#1165);
#1164 = CARTESIAN_POINT('',(3.2,9.,30.906733260263));
#1165 = VECTOR('',#1166,1.);
#1166 = DIRECTION('',(6.209441486942E-17,1.,-2.22044604925E-16));
#1167 = ORIENTED_EDGE('',*,*,#954,.T.);
#1168 = ORIENTED_EDGE('',*,*,#1162,.T.);
#1169 = ORIENTED_EDGE('',*,*,#801,.T.);
#1170 = CYLINDRICAL_SURFACE('',#1171,2.05);
#1171 = AXIS2_PLACEMENT_3D('',#1172,#1173,#1174);
#1172 = CARTESIAN_POINT('',(5.25,9.,30.906733260263));
#1173 = DIRECTION('',(0.,1.,-2.22044604925E-16));
#1174 = DIRECTION('',(-1.,0.,0.));
#1175 = ADVANCED_FACE('',(#1176),#1185,.F.);
#1176 = FACE_BOUND('',#1177,.F.);
#1177 = EDGE_LOOP('',(#1178,#1179,#1180,#1181,#1182,#1183,#1184));
#1178 = ORIENTED_EDGE('',*,*,#972,.F.);
#1179 = ORIENTED_EDGE('',*,*,#841,.F.);
#1180 = ORIENTED_EDGE('',*,*,#1112,.T.);
#1181 = ORIENTED_EDGE('',*,*,#1096,.T.);
#1182 = ORIENTED_EDGE('',*,*,#911,.F.);
#1183 = ORIENTED_EDGE('',*,*,#998,.F.);
#1184 = ORIENTED_EDGE('',*,*,#1053,.T.);
#1185 = PLANE('',#1186);
#1186 = AXIS2_PLACEMENT_3D('',#1187,#1188,#1189);
#1187 = CARTESIAN_POINT('',(-3.348350180027E-02,9.,40.003822373842));
#1188 = DIRECTION('',(0.,1.,0.));
#1189 = DIRECTION('',(0.,0.,1.));
#1190 = ADVANCED_FACE('',(#1191),#1200,.F.);
#1191 = FACE_BOUND('',#1192,.F.);
#1192 = EDGE_LOOP('',(#1193,#1194,#1195,#1196,#1197,#1198,#1199));
#1193 = ORIENTED_EDGE('',*,*,#823,.F.);
#1194 = ORIENTED_EDGE('',*,*,#897,.F.);
#1195 = ORIENTED_EDGE('',*,*,#1145,.T.);
#1196 = ORIENTED_EDGE('',*,*,#1137,.T.);
#1197 = ORIENTED_EDGE('',*,*,#880,.F.);
#1198 = ORIENTED_EDGE('',*,*,#929,.F.);
#1199 = ORIENTED_EDGE('',*,*,#1104,.T.);
#1200 = PLANE('',#1201);
#1201 = AXIS2_PLACEMENT_3D('',#1202,#1203,#1204);
#1202 = CARTESIAN_POINT('',(-3.348350180027E-02,9.,40.003822373842));
#1203 = DIRECTION('',(0.,1.,0.));
#1204 = DIRECTION('',(0.,0.,1.));
#1205 = ( GEOMETRIC_REPRESENTATION_CONTEXT(3) 
GLOBAL_UNCERTAINTY_ASSIGNED_CONTEXT((#1209)) 
GLOBAL_UNIT_ASSIGNED_CONTEXT((#1206,#1207,#1208)) REPRESENTATION_CONTEXT
('Context #1','3D Context with UNIT and UNCERTAINTY') );
#1206 = ( LENGTH_UNIT() NAMED_UNIT(*) SI_UNIT(.MILLI.,.METRE.) );
#1207 = ( NAMED_UNIT(*) PLANE_ANGLE_UNIT() SI_UNIT($,.RADIAN.) );
#1208 = ( NAMED_UNIT(*) SI_UNIT($,.STERADIAN.) SOLID_ANGLE_UNIT() );
#1209 = UNCERTAINTY_MEASURE_WITH_UNIT(LENGTH_MEASURE(1.E-07),#1206,
  'distance_accuracy_value','confusion accuracy');
#1210 = PRODUCT_RELATED_PRODUCT_CATEGORY('part',$,(#7));
#1211 = MECHANICAL_DESIGN_GEOMETRIC_PRESENTATION_REPRESENTATION('',(
    #1212),#1205);
#1212 = STYLED_ITEM('color',(#1213),#15);
#1213 = PRESENTATION_STYLE_ASSIGNMENT((#1214,#1220));
#1214 = SURFACE_STYLE_USAGE(.BOTH.,#1215);
#1215 = SURFACE_SIDE_STYLE('',(#1216));
#1216 = SURFACE_STYLE_FILL_AREA(#1217);
#1217 = FILL_AREA_STYLE('',(#1218));
#1218 = FILL_AREA_STYLE_COLOUR('',#1219);
#1219 = COLOUR_RGB('',0.678431390124,0.709803936702,0.741176476869);
#1220 = CURVE_STYLE('',#1221,POSITIVE_LENGTH_MEASURE(0.1),#1222);
#1221 = DRAUGHTING_PRE_DEFINED_CURVE_FONT('continuous');
#1222 = COLOUR_RGB('',9.803921802644E-02,9.803921802644E-02,
  9.803921802644E-02);
ENDSEC;
END-ISO-10303-21;
