ISO-10303-21;
HEADER;
FILE_DESCRIPTION(('FreeCAD Model'),'2;1');
FILE_NAME('Open CASCADE Shape Model','2026-07-26T17:03:10',(''),(''),
  'Open CASCADE STEP processor 7.8','FreeCAD','Unknown');
FILE_SCHEMA(('AUTOMOTIVE_DESIGN { 1 0 10303 214 1 1 1 1 }'));
ENDSEC;
DATA;
#1 = APPLICATION_PROTOCOL_DEFINITION('international standard',
  'automotive_design',2000,#2);
#2 = APPLICATION_CONTEXT(
  'core data for automotive mechanical design processes');
#3 = SHAPE_DEFINITION_REPRESENTATION(#4,#10);
#4 = PRODUCT_DEFINITION_SHAPE('','',#5);
#5 = PRODUCT_DEFINITION('design','',#6,#9);
#6 = PRODUCT_DEFINITION_FORMATION('','',#7);
#7 = PRODUCT('DEC Drive Plate','DEC Drive Plate','',(#8));
#8 = PRODUCT_CONTEXT('',#2,'mechanical');
#9 = PRODUCT_DEFINITION_CONTEXT('part definition',#2,'design');
#10 = ADVANCED_BREP_SHAPE_REPRESENTATION('',(#11,#15),#1556);
#11 = AXIS2_PLACEMENT_3D('',#12,#13,#14);
#12 = CARTESIAN_POINT('',(0.,0.,0.));
#13 = DIRECTION('',(0.,0.,1.));
#14 = DIRECTION('',(1.,0.,-0.));
#15 = MANIFOLD_SOLID_BREP('',#16);
#16 = CLOSED_SHELL('',(#17,#90,#170,#326,#449,#515,#540,#565,#590,#645,
    #657,#669,#694,#719,#744,#769,#794,#819,#844,#869,#894,#919,#944,
    #969,#994,#1019,#1044,#1069,#1086,#1103,#1120,#1137,#1162,#1187,
    #1204,#1229,#1254,#1279,#1304,#1313,#1322,#1331,#1348,#1365,#1382,
    #1391,#1400,#1409,#1447,#1467,#1476,#1485,#1494,#1519,#1544));
#17 = ADVANCED_FACE('',(#18,#52,#63,#74),#85,.F.);
#18 = FACE_BOUND('',#19,.F.);
#19 = EDGE_LOOP('',(#20,#30,#38,#46));
#20 = ORIENTED_EDGE('',*,*,#21,.T.);
#21 = EDGE_CURVE('',#22,#24,#26,.T.);
#22 = VERTEX_POINT('',#23);
#23 = CARTESIAN_POINT('',(-57.995137,-59.022411,0.));
#24 = VERTEX_POINT('',#25);
#25 = CARTESIAN_POINT('',(-57.995137,-59.022411,10.));
#26 = LINE('',#27,#28);
#27 = CARTESIAN_POINT('',(-57.995137,-59.022411,0.));
#28 = VECTOR('',#29,1.);
#29 = DIRECTION('',(0.,0.,1.));
#30 = ORIENTED_EDGE('',*,*,#31,.T.);
#31 = EDGE_CURVE('',#24,#32,#34,.T.);
#32 = VERTEX_POINT('',#33);
#33 = CARTESIAN_POINT('',(58.005717,-59.022411,10.));
#34 = LINE('',#35,#36);
#35 = CARTESIAN_POINT('',(-57.995137,-59.022411,10.));
#36 = VECTOR('',#37,1.);
#37 = DIRECTION('',(1.,0.,0.));
#38 = ORIENTED_EDGE('',*,*,#39,.F.);
#39 = EDGE_CURVE('',#40,#32,#42,.T.);
#40 = VERTEX_POINT('',#41);
#41 = CARTESIAN_POINT('',(58.005717,-59.022411,0.));
#42 = LINE('',#43,#44);
#43 = CARTESIAN_POINT('',(58.005717,-59.022411,0.));
#44 = VECTOR('',#45,1.);
#45 = DIRECTION('',(0.,0.,1.));
#46 = ORIENTED_EDGE('',*,*,#47,.F.);
#47 = EDGE_CURVE('',#22,#40,#48,.T.);
#48 = LINE('',#49,#50);
#49 = CARTESIAN_POINT('',(-57.995137,-59.022411,0.));
#50 = VECTOR('',#51,1.);
#51 = DIRECTION('',(1.,0.,0.));
#52 = FACE_BOUND('',#53,.F.);
#53 = EDGE_LOOP('',(#54));
#54 = ORIENTED_EDGE('',*,*,#55,.T.);
#55 = EDGE_CURVE('',#56,#56,#58,.T.);
#56 = VERTEX_POINT('',#57);
#57 = CARTESIAN_POINT('',(-28.349968,-59.022411,4.999928));
#58 = CIRCLE('',#59,1.65);
#59 = AXIS2_PLACEMENT_3D('',#60,#61,#62);
#60 = CARTESIAN_POINT('',(-29.999968,-59.022411,4.999928));
#61 = DIRECTION('',(0.,-1.,2.22044604925E-16));
#62 = DIRECTION('',(1.,0.,0.));
#63 = FACE_BOUND('',#64,.F.);
#64 = EDGE_LOOP('',(#65));
#65 = ORIENTED_EDGE('',*,*,#66,.T.);
#66 = EDGE_CURVE('',#67,#67,#69,.T.);
#67 = VERTEX_POINT('',#68);
#68 = CARTESIAN_POINT('',(1.65,-59.022411,4.999962));
#69 = CIRCLE('',#70,1.65);
#70 = AXIS2_PLACEMENT_3D('',#71,#72,#73);
#71 = CARTESIAN_POINT('',(0.,-59.022411,4.999962));
#72 = DIRECTION('',(0.,-1.,2.22044604925E-16));
#73 = DIRECTION('',(1.,0.,0.));
#74 = FACE_BOUND('',#75,.F.);
#75 = EDGE_LOOP('',(#76));
#76 = ORIENTED_EDGE('',*,*,#77,.T.);
#77 = EDGE_CURVE('',#78,#78,#80,.T.);
#78 = VERTEX_POINT('',#79);
#79 = CARTESIAN_POINT('',(31.649964,-59.022411,4.999107));
#80 = CIRCLE('',#81,1.65);
#81 = AXIS2_PLACEMENT_3D('',#82,#83,#84);
#82 = CARTESIAN_POINT('',(29.999964,-59.022411,4.999107));
#83 = DIRECTION('',(0.,-1.,2.22044604925E-16));
#84 = DIRECTION('',(1.,0.,0.));
#85 = PLANE('',#86);
#86 = AXIS2_PLACEMENT_3D('',#87,#88,#89);
#87 = CARTESIAN_POINT('',(-57.995137,-59.022411,0.));
#88 = DIRECTION('',(0.,1.,0.));
#89 = DIRECTION('',(1.,0.,0.));
#90 = ADVANCED_FACE('',(#91,#132,#143,#154),#165,.F.);
#91 = FACE_BOUND('',#92,.F.);
#92 = EDGE_LOOP('',(#93,#103,#111,#117,#118,#126));
#93 = ORIENTED_EDGE('',*,*,#94,.F.);
#94 = EDGE_CURVE('',#95,#97,#99,.T.);
#95 = VERTEX_POINT('',#96);
#96 = CARTESIAN_POINT('',(-57.995137,65.000519,5.));
#97 = VERTEX_POINT('',#98);
#98 = CARTESIAN_POINT('',(-57.995137,55.000076,5.));
#99 = LINE('',#100,#101);
#100 = CARTESIAN_POINT('',(-57.995137,62.76216325,5.));
#101 = VECTOR('',#102,1.);
#102 = DIRECTION('',(0.,-1.,0.));
#103 = ORIENTED_EDGE('',*,*,#104,.T.);
#104 = EDGE_CURVE('',#95,#105,#107,.T.);
#105 = VERTEX_POINT('',#106);
#106 = CARTESIAN_POINT('',(-57.995137,65.000519,10.));
#107 = LINE('',#108,#109);
#108 = CARTESIAN_POINT('',(-57.995137,65.000519,0.));
#109 = VECTOR('',#110,1.);
#110 = DIRECTION('',(0.,0.,1.));
#111 = ORIENTED_EDGE('',*,*,#112,.T.);
#112 = EDGE_CURVE('',#105,#24,#113,.T.);
#113 = LINE('',#114,#115);
#114 = CARTESIAN_POINT('',(-57.995137,65.000519,10.));
#115 = VECTOR('',#116,1.);
#116 = DIRECTION('',(0.,-1.,0.));
#117 = ORIENTED_EDGE('',*,*,#21,.F.);
#118 = ORIENTED_EDGE('',*,*,#119,.F.);
#119 = EDGE_CURVE('',#120,#22,#122,.T.);
#120 = VERTEX_POINT('',#121);
#121 = CARTESIAN_POINT('',(-57.995137,55.000076,0.));
#122 = LINE('',#123,#124);
#123 = CARTESIAN_POINT('',(-57.995137,65.000519,0.));
#124 = VECTOR('',#125,1.);
#125 = DIRECTION('',(0.,-1.,0.));
#126 = ORIENTED_EDGE('',*,*,#127,.F.);
#127 = EDGE_CURVE('',#97,#120,#128,.T.);
#128 = LINE('',#129,#130);
#129 = CARTESIAN_POINT('',(-57.995137,55.000076,0.));
#130 = VECTOR('',#131,1.);
#131 = DIRECTION('',(0.,0.,-1.));
#132 = FACE_BOUND('',#133,.F.);
#133 = EDGE_LOOP('',(#134));
#134 = ORIENTED_EDGE('',*,*,#135,.T.);
#135 = EDGE_CURVE('',#136,#136,#138,.T.);
#136 = VERTEX_POINT('',#137);
#137 = CARTESIAN_POINT('',(-57.995137,28.350002,4.999999));
#138 = CIRCLE('',#139,1.65);
#139 = AXIS2_PLACEMENT_3D('',#140,#141,#142);
#140 = CARTESIAN_POINT('',(-57.995137,30.000002,4.999999));
#141 = DIRECTION('',(-1.,0.,0.));
#142 = DIRECTION('',(0.,-1.,0.));
#143 = FACE_BOUND('',#144,.F.);
#144 = EDGE_LOOP('',(#145));
#145 = ORIENTED_EDGE('',*,*,#146,.T.);
#146 = EDGE_CURVE('',#147,#147,#149,.T.);
#147 = VERTEX_POINT('',#148);
#148 = CARTESIAN_POINT('',(-57.995137,-1.65,4.999998));
#149 = CIRCLE('',#150,1.65);
#150 = AXIS2_PLACEMENT_3D('',#151,#152,#153);
#151 = CARTESIAN_POINT('',(-57.995137,0.,4.999998));
#152 = DIRECTION('',(-1.,0.,0.));
#153 = DIRECTION('',(0.,-1.,0.));
#154 = FACE_BOUND('',#155,.F.);
#155 = EDGE_LOOP('',(#156));
#156 = ORIENTED_EDGE('',*,*,#157,.T.);
#157 = EDGE_CURVE('',#158,#158,#160,.T.);
#158 = VERTEX_POINT('',#159);
#159 = CARTESIAN_POINT('',(-57.995137,-31.649998,4.999997));
#160 = CIRCLE('',#161,1.65);
#161 = AXIS2_PLACEMENT_3D('',#162,#163,#164);
#162 = CARTESIAN_POINT('',(-57.995137,-29.999998,4.999997));
#163 = DIRECTION('',(-1.,0.,0.));
#164 = DIRECTION('',(0.,-1.,0.));
#165 = PLANE('',#166);
#166 = AXIS2_PLACEMENT_3D('',#167,#168,#169);
#167 = CARTESIAN_POINT('',(-57.995137,65.000519,0.));
#168 = DIRECTION('',(1.,0.,0.));
#169 = DIRECTION('',(0.,-1.,0.));
#170 = ADVANCED_FACE('',(#171,#189,#200,#211,#222,#233,#244,#255,#266,
    #277,#288,#299,#310),#321,.F.);
#171 = FACE_BOUND('',#172,.F.);
#172 = EDGE_LOOP('',(#173,#174,#175,#183));
#173 = ORIENTED_EDGE('',*,*,#119,.T.);
#174 = ORIENTED_EDGE('',*,*,#47,.T.);
#175 = ORIENTED_EDGE('',*,*,#176,.T.);
#176 = EDGE_CURVE('',#40,#177,#179,.T.);
#177 = VERTEX_POINT('',#178);
#178 = CARTESIAN_POINT('',(58.005717,55.000076,0.));
#179 = LINE('',#180,#181);
#180 = CARTESIAN_POINT('',(58.005717,-59.022411,0.));
#181 = VECTOR('',#182,1.);
#182 = DIRECTION('',(0.,1.,0.));
#183 = ORIENTED_EDGE('',*,*,#184,.T.);
#184 = EDGE_CURVE('',#177,#120,#185,.T.);
#185 = LINE('',#186,#187);
#186 = CARTESIAN_POINT('',(60.033913,55.000076,0.));
#187 = VECTOR('',#188,1.);
#188 = DIRECTION('',(-1.,0.,0.));
#189 = FACE_BOUND('',#190,.F.);
#190 = EDGE_LOOP('',(#191));
#191 = ORIENTED_EDGE('',*,*,#192,.F.);
#192 = EDGE_CURVE('',#193,#193,#195,.T.);
#193 = VERTEX_POINT('',#194);
#194 = CARTESIAN_POINT('',(-2.75,-32.5,0.));
#195 = CIRCLE('',#196,2.75);
#196 = AXIS2_PLACEMENT_3D('',#197,#198,#199);
#197 = CARTESIAN_POINT('',(3.980102097229E-15,-32.5,0.));
#198 = DIRECTION('',(0.,0.,1.));
#199 = DIRECTION('',(-1.,-1.224646799147E-16,0.));
#200 = FACE_BOUND('',#201,.F.);
#201 = EDGE_LOOP('',(#202));
#202 = ORIENTED_EDGE('',*,*,#203,.F.);
#203 = EDGE_CURVE('',#204,#204,#206,.T.);
#204 = VERTEX_POINT('',#205);
#205 = CARTESIAN_POINT('',(-29.52082562299,-13.86843013959,0.));
#206 = CIRCLE('',#207,2.75);
#207 = AXIS2_PLACEMENT_3D('',#208,#209,#210);
#208 = CARTESIAN_POINT('',(-28.14582562299,-16.25,0.));
#209 = DIRECTION('',(0.,0.,1.));
#210 = DIRECTION('',(-0.5,0.866025403784,0.));
#211 = FACE_BOUND('',#212,.F.);
#212 = EDGE_LOOP('',(#213));
#213 = ORIENTED_EDGE('',*,*,#214,.T.);
#214 = EDGE_CURVE('',#215,#215,#217,.T.);
#215 = VERTEX_POINT('',#216);
#216 = CARTESIAN_POINT('',(11.499999,-40.,0.));
#217 = CIRCLE('',#218,1.5);
#218 = AXIS2_PLACEMENT_3D('',#219,#220,#221);
#219 = CARTESIAN_POINT('',(9.999999,-40.,0.));
#220 = DIRECTION('',(0.,0.,-1.));
#221 = DIRECTION('',(1.,0.,0.));
#222 = FACE_BOUND('',#223,.F.);
#223 = EDGE_LOOP('',(#224));
#224 = ORIENTED_EDGE('',*,*,#225,.T.);
#225 = EDGE_CURVE('',#226,#226,#228,.T.);
#226 = VERTEX_POINT('',#227);
#227 = CARTESIAN_POINT('',(41.5,-50.,0.));
#228 = CIRCLE('',#229,1.5);
#229 = AXIS2_PLACEMENT_3D('',#230,#231,#232);
#230 = CARTESIAN_POINT('',(40.,-50.,0.));
#231 = DIRECTION('',(0.,0.,-1.));
#232 = DIRECTION('',(1.,0.,0.));
#233 = FACE_BOUND('',#234,.F.);
#234 = EDGE_LOOP('',(#235));
#235 = ORIENTED_EDGE('',*,*,#236,.F.);
#236 = EDGE_CURVE('',#237,#237,#239,.T.);
#237 = VERTEX_POINT('',#238);
#238 = CARTESIAN_POINT('',(26.770825622994,-18.6315698604,0.));
#239 = CIRCLE('',#240,2.75);
#240 = AXIS2_PLACEMENT_3D('',#241,#242,#243);
#241 = CARTESIAN_POINT('',(28.145825622994,-16.25,0.));
#242 = DIRECTION('',(0.,0.,1.));
#243 = DIRECTION('',(-0.5,-0.866025403784,0.));
#244 = FACE_BOUND('',#245,.F.);
#245 = EDGE_LOOP('',(#246));
#246 = ORIENTED_EDGE('',*,*,#247,.T.);
#247 = EDGE_CURVE('',#248,#248,#250,.T.);
#248 = VERTEX_POINT('',#249);
#249 = CARTESIAN_POINT('',(41.499954,-10.000055,0.));
#250 = CIRCLE('',#251,1.5);
#251 = AXIS2_PLACEMENT_3D('',#252,#253,#254);
#252 = CARTESIAN_POINT('',(39.999954,-10.000055,0.));
#253 = DIRECTION('',(0.,0.,-1.));
#254 = DIRECTION('',(1.,0.,0.));
#255 = FACE_BOUND('',#256,.F.);
#256 = EDGE_LOOP('',(#257));
#257 = ORIENTED_EDGE('',*,*,#258,.T.);
#258 = EDGE_CURVE('',#259,#259,#261,.T.);
#259 = VERTEX_POINT('',#260);
#260 = CARTESIAN_POINT('',(-39.500015,7.999982,0.));
#261 = CIRCLE('',#262,1.5);
#262 = AXIS2_PLACEMENT_3D('',#263,#264,#265);
#263 = CARTESIAN_POINT('',(-41.000015,7.999982,0.));
#264 = DIRECTION('',(0.,0.,-1.));
#265 = DIRECTION('',(1.,0.,0.));
#266 = FACE_BOUND('',#267,.F.);
#267 = EDGE_LOOP('',(#268));
#268 = ORIENTED_EDGE('',*,*,#269,.F.);
#269 = EDGE_CURVE('',#270,#270,#272,.T.);
#270 = VERTEX_POINT('',#271);
#271 = CARTESIAN_POINT('',(-7.,-8.572527594031E-16,0.));
#272 = CIRCLE('',#273,7.);
#273 = AXIS2_PLACEMENT_3D('',#274,#275,#276);
#274 = CARTESIAN_POINT('',(0.,0.,0.));
#275 = DIRECTION('',(0.,0.,1.));
#276 = DIRECTION('',(-1.,-1.224646799147E-16,0.));
#277 = FACE_BOUND('',#278,.F.);
#278 = EDGE_LOOP('',(#279));
#279 = ORIENTED_EDGE('',*,*,#280,.F.);
#280 = EDGE_CURVE('',#281,#281,#283,.T.);
#281 = VERTEX_POINT('',#282);
#282 = CARTESIAN_POINT('',(-26.77082562299,18.631569860407,0.));
#283 = CIRCLE('',#284,2.75);
#284 = AXIS2_PLACEMENT_3D('',#285,#286,#287);
#285 = CARTESIAN_POINT('',(-28.14582562299,16.25,0.));
#286 = DIRECTION('',(0.,-0.,1.));
#287 = DIRECTION('',(0.5,0.866025403784,0.));
#288 = FACE_BOUND('',#289,.F.);
#289 = EDGE_LOOP('',(#290));
#290 = ORIENTED_EDGE('',*,*,#291,.F.);
#291 = EDGE_CURVE('',#292,#292,#294,.T.);
#292 = VERTEX_POINT('',#293);
#293 = CARTESIAN_POINT('',(2.75,32.5,0.));
#294 = CIRCLE('',#295,2.75);
#295 = AXIS2_PLACEMENT_3D('',#296,#297,#298);
#296 = CARTESIAN_POINT('',(0.,32.5,0.));
#297 = DIRECTION('',(0.,0.,1.));
#298 = DIRECTION('',(1.,0.,0.));
#299 = FACE_BOUND('',#300,.F.);
#300 = EDGE_LOOP('',(#301));
#301 = ORIENTED_EDGE('',*,*,#302,.T.);
#302 = EDGE_CURVE('',#303,#303,#305,.T.);
#303 = VERTEX_POINT('',#304);
#304 = CARTESIAN_POINT('',(51.5,7.999997,0.));
#305 = CIRCLE('',#306,1.5);
#306 = AXIS2_PLACEMENT_3D('',#307,#308,#309);
#307 = CARTESIAN_POINT('',(50.,7.999997,0.));
#308 = DIRECTION('',(0.,0.,-1.));
#309 = DIRECTION('',(1.,0.,0.));
#310 = FACE_BOUND('',#311,.F.);
#311 = EDGE_LOOP('',(#312));
#312 = ORIENTED_EDGE('',*,*,#313,.F.);
#313 = EDGE_CURVE('',#314,#314,#316,.T.);
#314 = VERTEX_POINT('',#315);
#315 = CARTESIAN_POINT('',(29.520825622994,13.868430139593,0.));
#316 = CIRCLE('',#317,2.75);
#317 = AXIS2_PLACEMENT_3D('',#318,#319,#320);
#318 = CARTESIAN_POINT('',(28.145825622994,16.25,0.));
#319 = DIRECTION('',(-0.,0.,1.));
#320 = DIRECTION('',(0.5,-0.866025403784,0.));
#321 = PLANE('',#322);
#322 = AXIS2_PLACEMENT_3D('',#323,#324,#325);
#323 = CARTESIAN_POINT('',(4.917409303214E-03,2.77852588798,0.));
#324 = DIRECTION('',(0.,0.,1.));
#325 = DIRECTION('',(1.,0.,0.));
#326 = ADVANCED_FACE('',(#327,#345,#356,#367,#378,#389,#400,#411,#422,
    #433),#444,.T.);
#327 = FACE_BOUND('',#328,.T.);
#328 = EDGE_LOOP('',(#329,#330,#338,#344));
#329 = ORIENTED_EDGE('',*,*,#31,.T.);
#330 = ORIENTED_EDGE('',*,*,#331,.T.);
#331 = EDGE_CURVE('',#32,#332,#334,.T.);
#332 = VERTEX_POINT('',#333);
#333 = CARTESIAN_POINT('',(58.005717,65.000519,10.));
#334 = LINE('',#335,#336);
#335 = CARTESIAN_POINT('',(58.005717,-59.022411,10.));
#336 = VECTOR('',#337,1.);
#337 = DIRECTION('',(0.,1.,0.));
#338 = ORIENTED_EDGE('',*,*,#339,.T.);
#339 = EDGE_CURVE('',#332,#105,#340,.T.);
#340 = LINE('',#341,#342);
#341 = CARTESIAN_POINT('',(58.005717,65.000519,10.));
#342 = VECTOR('',#343,1.);
#343 = DIRECTION('',(-1.,0.,0.));
#344 = ORIENTED_EDGE('',*,*,#112,.T.);
#345 = FACE_BOUND('',#346,.T.);
#346 = EDGE_LOOP('',(#347));
#347 = ORIENTED_EDGE('',*,*,#348,.F.);
#348 = EDGE_CURVE('',#349,#349,#351,.T.);
#349 = VERTEX_POINT('',#350);
#350 = CARTESIAN_POINT('',(36.5,0.,10.));
#351 = CIRCLE('',#352,36.5);
#352 = AXIS2_PLACEMENT_3D('',#353,#354,#355);
#353 = CARTESIAN_POINT('',(0.,0.,10.));
#354 = DIRECTION('',(0.,0.,1.));
#355 = DIRECTION('',(1.,0.,0.));
#356 = FACE_BOUND('',#357,.T.);
#357 = EDGE_LOOP('',(#358));
#358 = ORIENTED_EDGE('',*,*,#359,.F.);
#359 = EDGE_CURVE('',#360,#360,#362,.T.);
#360 = VERTEX_POINT('',#361);
#361 = CARTESIAN_POINT('',(13.449999,-40.,10.));
#362 = CIRCLE('',#363,3.45);
#363 = AXIS2_PLACEMENT_3D('',#364,#365,#366);
#364 = CARTESIAN_POINT('',(9.999999,-40.,10.));
#365 = DIRECTION('',(0.,0.,1.));
#366 = DIRECTION('',(1.,0.,0.));
#367 = FACE_BOUND('',#368,.T.);
#368 = EDGE_LOOP('',(#369));
#369 = ORIENTED_EDGE('',*,*,#370,.F.);
#370 = EDGE_CURVE('',#371,#371,#373,.T.);
#371 = VERTEX_POINT('',#372);
#372 = CARTESIAN_POINT('',(43.45,-50.,10.));
#373 = CIRCLE('',#374,3.45);
#374 = AXIS2_PLACEMENT_3D('',#375,#376,#377);
#375 = CARTESIAN_POINT('',(40.,-50.,10.));
#376 = DIRECTION('',(0.,0.,1.));
#377 = DIRECTION('',(1.,0.,0.));
#378 = FACE_BOUND('',#379,.T.);
#379 = EDGE_LOOP('',(#380));
#380 = ORIENTED_EDGE('',*,*,#381,.F.);
#381 = EDGE_CURVE('',#382,#382,#384,.T.);
#382 = VERTEX_POINT('',#383);
#383 = CARTESIAN_POINT('',(43.449954,-10.000055,10.));
#384 = CIRCLE('',#385,3.45);
#385 = AXIS2_PLACEMENT_3D('',#386,#387,#388);
#386 = CARTESIAN_POINT('',(39.999954,-10.000055,10.));
#387 = DIRECTION('',(0.,0.,1.));
#388 = DIRECTION('',(1.,0.,0.));
#389 = FACE_BOUND('',#390,.T.);
#390 = EDGE_LOOP('',(#391));
#391 = ORIENTED_EDGE('',*,*,#392,.F.);
#392 = EDGE_CURVE('',#393,#393,#395,.T.);
#393 = VERTEX_POINT('',#394);
#394 = CARTESIAN_POINT('',(-37.550015,7.999982,10.));
#395 = CIRCLE('',#396,3.45);
#396 = AXIS2_PLACEMENT_3D('',#397,#398,#399);
#397 = CARTESIAN_POINT('',(-41.000015,7.999982,10.));
#398 = DIRECTION('',(0.,0.,1.));
#399 = DIRECTION('',(1.,0.,0.));
#400 = FACE_BOUND('',#401,.T.);
#401 = EDGE_LOOP('',(#402));
#402 = ORIENTED_EDGE('',*,*,#403,.F.);
#403 = EDGE_CURVE('',#404,#404,#406,.T.);
#404 = VERTEX_POINT('',#405);
#405 = CARTESIAN_POINT('',(-26.000086,59.999934,10.));
#406 = CIRCLE('',#407,4.);
#407 = AXIS2_PLACEMENT_3D('',#408,#409,#410);
#408 = CARTESIAN_POINT('',(-30.000086,59.999934,10.));
#409 = DIRECTION('',(0.,0.,1.));
#410 = DIRECTION('',(1.,0.,0.));
#411 = FACE_BOUND('',#412,.T.);
#412 = EDGE_LOOP('',(#413));
#413 = ORIENTED_EDGE('',*,*,#414,.F.);
#414 = EDGE_CURVE('',#415,#415,#417,.T.);
#415 = VERTEX_POINT('',#416);
#416 = CARTESIAN_POINT('',(4.,59.999803,10.));
#417 = CIRCLE('',#418,4.);
#418 = AXIS2_PLACEMENT_3D('',#419,#420,#421);
#419 = CARTESIAN_POINT('',(0.,59.999803,10.));
#420 = DIRECTION('',(0.,0.,1.));
#421 = DIRECTION('',(1.,0.,0.));
#422 = FACE_BOUND('',#423,.T.);
#423 = EDGE_LOOP('',(#424));
#424 = ORIENTED_EDGE('',*,*,#425,.F.);
#425 = EDGE_CURVE('',#426,#426,#428,.T.);
#426 = VERTEX_POINT('',#427);
#427 = CARTESIAN_POINT('',(53.45,7.999997,10.));
#428 = CIRCLE('',#429,3.45);
#429 = AXIS2_PLACEMENT_3D('',#430,#431,#432);
#430 = CARTESIAN_POINT('',(50.,7.999997,10.));
#431 = DIRECTION('',(0.,0.,1.));
#432 = DIRECTION('',(1.,0.,0.));
#433 = FACE_BOUND('',#434,.T.);
#434 = EDGE_LOOP('',(#435));
#435 = ORIENTED_EDGE('',*,*,#436,.F.);
#436 = EDGE_CURVE('',#437,#437,#439,.T.);
#437 = VERTEX_POINT('',#438);
#438 = CARTESIAN_POINT('',(34.000015,59.999982,10.));
#439 = CIRCLE('',#440,4.);
#440 = AXIS2_PLACEMENT_3D('',#441,#442,#443);
#441 = CARTESIAN_POINT('',(30.000015,59.999982,10.));
#442 = DIRECTION('',(0.,0.,1.));
#443 = DIRECTION('',(1.,0.,0.));
#444 = PLANE('',#445);
#445 = AXIS2_PLACEMENT_3D('',#446,#447,#448);
#446 = CARTESIAN_POINT('',(4.917409303214E-03,2.77852588798,10.));
#447 = DIRECTION('',(0.,0.,1.));
#448 = DIRECTION('',(1.,0.,0.));
#449 = ADVANCED_FACE('',(#450,#477,#488,#499),#510,.F.);
#450 = FACE_BOUND('',#451,.F.);
#451 = EDGE_LOOP('',(#452,#453,#454,#455,#463,#471));
#452 = ORIENTED_EDGE('',*,*,#176,.F.);
#453 = ORIENTED_EDGE('',*,*,#39,.T.);
#454 = ORIENTED_EDGE('',*,*,#331,.T.);
#455 = ORIENTED_EDGE('',*,*,#456,.F.);
#456 = EDGE_CURVE('',#457,#332,#459,.T.);
#457 = VERTEX_POINT('',#458);
#458 = CARTESIAN_POINT('',(58.005717,65.000519,5.));
#459 = LINE('',#460,#461);
#460 = CARTESIAN_POINT('',(58.005717,65.000519,0.));
#461 = VECTOR('',#462,1.);
#462 = DIRECTION('',(0.,0.,1.));
#463 = ORIENTED_EDGE('',*,*,#464,.F.);
#464 = EDGE_CURVE('',#465,#457,#467,.T.);
#465 = VERTEX_POINT('',#466);
#466 = CARTESIAN_POINT('',(58.005717,55.000076,5.));
#467 = LINE('',#468,#469);
#468 = CARTESIAN_POINT('',(58.005717,0.75069825,5.));
#469 = VECTOR('',#470,1.);
#470 = DIRECTION('',(0.,1.,0.));
#471 = ORIENTED_EDGE('',*,*,#472,.F.);
#472 = EDGE_CURVE('',#177,#465,#473,.T.);
#473 = LINE('',#474,#475);
#474 = CARTESIAN_POINT('',(58.005717,55.000076,0.));
#475 = VECTOR('',#476,1.);
#476 = DIRECTION('',(0.,0.,1.));
#477 = FACE_BOUND('',#478,.F.);
#478 = EDGE_LOOP('',(#479));
#479 = ORIENTED_EDGE('',*,*,#480,.T.);
#480 = EDGE_CURVE('',#481,#481,#483,.T.);
#481 = VERTEX_POINT('',#482);
#482 = CARTESIAN_POINT('',(58.005717,1.65,5.));
#483 = CIRCLE('',#484,1.65);
#484 = AXIS2_PLACEMENT_3D('',#485,#486,#487);
#485 = CARTESIAN_POINT('',(58.005717,0.,5.));
#486 = DIRECTION('',(1.,0.,0.));
#487 = DIRECTION('',(0.,1.,0.));
#488 = FACE_BOUND('',#489,.F.);
#489 = EDGE_LOOP('',(#490));
#490 = ORIENTED_EDGE('',*,*,#491,.T.);
#491 = EDGE_CURVE('',#492,#492,#494,.T.);
#492 = VERTEX_POINT('',#493);
#493 = CARTESIAN_POINT('',(58.005717,31.65,4.999999));
#494 = CIRCLE('',#495,1.65);
#495 = AXIS2_PLACEMENT_3D('',#496,#497,#498);
#496 = CARTESIAN_POINT('',(58.005717,30.,4.999999));
#497 = DIRECTION('',(1.,0.,0.));
#498 = DIRECTION('',(0.,1.,0.));
#499 = FACE_BOUND('',#500,.F.);
#500 = EDGE_LOOP('',(#501));
#501 = ORIENTED_EDGE('',*,*,#502,.T.);
#502 = EDGE_CURVE('',#503,#503,#505,.T.);
#503 = VERTEX_POINT('',#504);
#504 = CARTESIAN_POINT('',(58.005717,-28.350004,4.999996));
#505 = CIRCLE('',#506,1.65);
#506 = AXIS2_PLACEMENT_3D('',#507,#508,#509);
#507 = CARTESIAN_POINT('',(58.005717,-30.000004,4.999996));
#508 = DIRECTION('',(1.,0.,0.));
#509 = DIRECTION('',(0.,1.,0.));
#510 = PLANE('',#511);
#511 = AXIS2_PLACEMENT_3D('',#512,#513,#514);
#512 = CARTESIAN_POINT('',(58.005717,-59.022411,0.));
#513 = DIRECTION('',(-1.,0.,0.));
#514 = DIRECTION('',(0.,1.,0.));
#515 = ADVANCED_FACE('',(#516),#535,.F.);
#516 = FACE_BOUND('',#517,.F.);
#517 = EDGE_LOOP('',(#518,#526,#533,#534));
#518 = ORIENTED_EDGE('',*,*,#519,.T.);
#519 = EDGE_CURVE('',#56,#520,#522,.T.);
#520 = VERTEX_POINT('',#521);
#521 = CARTESIAN_POINT('',(-28.349968,-44.022411,4.999928));
#522 = LINE('',#523,#524);
#523 = CARTESIAN_POINT('',(-28.349968,-59.022411,4.999928));
#524 = VECTOR('',#525,1.);
#525 = DIRECTION('',(0.,1.,-2.22044604925E-16));
#526 = ORIENTED_EDGE('',*,*,#527,.T.);
#527 = EDGE_CURVE('',#520,#520,#528,.T.);
#528 = CIRCLE('',#529,1.65);
#529 = AXIS2_PLACEMENT_3D('',#530,#531,#532);
#530 = CARTESIAN_POINT('',(-29.999968,-44.022411,4.999928));
#531 = DIRECTION('',(0.,-1.,2.22044604925E-16));
#532 = DIRECTION('',(1.,0.,0.));
#533 = ORIENTED_EDGE('',*,*,#519,.F.);
#534 = ORIENTED_EDGE('',*,*,#55,.F.);
#535 = CYLINDRICAL_SURFACE('',#536,1.65);
#536 = AXIS2_PLACEMENT_3D('',#537,#538,#539);
#537 = CARTESIAN_POINT('',(-29.999968,-59.022411,4.999928));
#538 = DIRECTION('',(0.,-1.,2.22044604925E-16));
#539 = DIRECTION('',(1.,0.,0.));
#540 = ADVANCED_FACE('',(#541),#560,.F.);
#541 = FACE_BOUND('',#542,.F.);
#542 = EDGE_LOOP('',(#543,#551,#558,#559));
#543 = ORIENTED_EDGE('',*,*,#544,.T.);
#544 = EDGE_CURVE('',#67,#545,#547,.T.);
#545 = VERTEX_POINT('',#546);
#546 = CARTESIAN_POINT('',(1.65,-44.022411,4.999962));
#547 = LINE('',#548,#549);
#548 = CARTESIAN_POINT('',(1.65,-59.022411,4.999962));
#549 = VECTOR('',#550,1.);
#550 = DIRECTION('',(0.,1.,-2.22044604925E-16));
#551 = ORIENTED_EDGE('',*,*,#552,.T.);
#552 = EDGE_CURVE('',#545,#545,#553,.T.);
#553 = CIRCLE('',#554,1.65);
#554 = AXIS2_PLACEMENT_3D('',#555,#556,#557);
#555 = CARTESIAN_POINT('',(0.,-44.022411,4.999962));
#556 = DIRECTION('',(0.,-1.,2.22044604925E-16));
#557 = DIRECTION('',(1.,0.,0.));
#558 = ORIENTED_EDGE('',*,*,#544,.F.);
#559 = ORIENTED_EDGE('',*,*,#66,.F.);
#560 = CYLINDRICAL_SURFACE('',#561,1.65);
#561 = AXIS2_PLACEMENT_3D('',#562,#563,#564);
#562 = CARTESIAN_POINT('',(0.,-59.022411,4.999962));
#563 = DIRECTION('',(0.,-1.,2.22044604925E-16));
#564 = DIRECTION('',(1.,0.,0.));
#565 = ADVANCED_FACE('',(#566),#585,.F.);
#566 = FACE_BOUND('',#567,.F.);
#567 = EDGE_LOOP('',(#568,#576,#583,#584));
#568 = ORIENTED_EDGE('',*,*,#569,.T.);
#569 = EDGE_CURVE('',#78,#570,#572,.T.);
#570 = VERTEX_POINT('',#571);
#571 = CARTESIAN_POINT('',(31.649964,-44.022411,4.999107));
#572 = LINE('',#573,#574);
#573 = CARTESIAN_POINT('',(31.649964,-59.022411,4.999107));
#574 = VECTOR('',#575,1.);
#575 = DIRECTION('',(0.,1.,-2.22044604925E-16));
#576 = ORIENTED_EDGE('',*,*,#577,.T.);
#577 = EDGE_CURVE('',#570,#570,#578,.T.);
#578 = CIRCLE('',#579,1.65);
#579 = AXIS2_PLACEMENT_3D('',#580,#581,#582);
#580 = CARTESIAN_POINT('',(29.999964,-44.022411,4.999107));
#581 = DIRECTION('',(0.,-1.,2.22044604925E-16));
#582 = DIRECTION('',(1.,0.,0.));
#583 = ORIENTED_EDGE('',*,*,#569,.F.);
#584 = ORIENTED_EDGE('',*,*,#77,.F.);
#585 = CYLINDRICAL_SURFACE('',#586,1.65);
#586 = AXIS2_PLACEMENT_3D('',#587,#588,#589);
#587 = CARTESIAN_POINT('',(29.999964,-59.022411,4.999107));
#588 = DIRECTION('',(0.,-1.,2.22044604925E-16));
#589 = DIRECTION('',(1.,0.,0.));
#590 = ADVANCED_FACE('',(#591,#607,#618,#629),#640,.F.);
#591 = FACE_BOUND('',#592,.F.);
#592 = EDGE_LOOP('',(#593,#594,#600,#601));
#593 = ORIENTED_EDGE('',*,*,#94,.T.);
#594 = ORIENTED_EDGE('',*,*,#595,.F.);
#595 = EDGE_CURVE('',#465,#97,#596,.T.);
#596 = LINE('',#597,#598);
#597 = CARTESIAN_POINT('',(60.033913,55.000076,5.));
#598 = VECTOR('',#599,1.);
#599 = DIRECTION('',(-1.,0.,0.));
#600 = ORIENTED_EDGE('',*,*,#464,.T.);
#601 = ORIENTED_EDGE('',*,*,#602,.T.);
#602 = EDGE_CURVE('',#457,#95,#603,.T.);
#603 = LINE('',#604,#605);
#604 = CARTESIAN_POINT('',(29.01132425,65.000519,5.));
#605 = VECTOR('',#606,1.);
#606 = DIRECTION('',(-1.,0.,0.));
#607 = FACE_BOUND('',#608,.F.);
#608 = EDGE_LOOP('',(#609));
#609 = ORIENTED_EDGE('',*,*,#610,.T.);
#610 = EDGE_CURVE('',#611,#611,#613,.T.);
#611 = VERTEX_POINT('',#612);
#612 = CARTESIAN_POINT('',(2.25,59.999803,5.));
#613 = CIRCLE('',#614,2.25);
#614 = AXIS2_PLACEMENT_3D('',#615,#616,#617);
#615 = CARTESIAN_POINT('',(0.,59.999803,5.));
#616 = DIRECTION('',(0.,0.,-1.));
#617 = DIRECTION('',(1.,0.,0.));
#618 = FACE_BOUND('',#619,.F.);
#619 = EDGE_LOOP('',(#620));
#620 = ORIENTED_EDGE('',*,*,#621,.T.);
#621 = EDGE_CURVE('',#622,#622,#624,.T.);
#622 = VERTEX_POINT('',#623);
#623 = CARTESIAN_POINT('',(-27.750086,59.999934,5.));
#624 = CIRCLE('',#625,2.25);
#625 = AXIS2_PLACEMENT_3D('',#626,#627,#628);
#626 = CARTESIAN_POINT('',(-30.000086,59.999934,5.));
#627 = DIRECTION('',(0.,0.,-1.));
#628 = DIRECTION('',(1.,0.,0.));
#629 = FACE_BOUND('',#630,.F.);
#630 = EDGE_LOOP('',(#631));
#631 = ORIENTED_EDGE('',*,*,#632,.T.);
#632 = EDGE_CURVE('',#633,#633,#635,.T.);
#633 = VERTEX_POINT('',#634);
#634 = CARTESIAN_POINT('',(32.250015,59.999982,5.));
#635 = CIRCLE('',#636,2.25);
#636 = AXIS2_PLACEMENT_3D('',#637,#638,#639);
#637 = CARTESIAN_POINT('',(30.000015,59.999982,5.));
#638 = DIRECTION('',(0.,0.,-1.));
#639 = DIRECTION('',(1.,0.,0.));
#640 = PLANE('',#641);
#641 = AXIS2_PLACEMENT_3D('',#642,#643,#644);
#642 = CARTESIAN_POINT('',(1.69315E-02,60.5238075,5.));
#643 = DIRECTION('',(0.,0.,1.));
#644 = DIRECTION('',(1.,0.,0.));
#645 = ADVANCED_FACE('',(#646),#652,.F.);
#646 = FACE_BOUND('',#647,.F.);
#647 = EDGE_LOOP('',(#648,#649,#650,#651));
#648 = ORIENTED_EDGE('',*,*,#184,.F.);
#649 = ORIENTED_EDGE('',*,*,#472,.T.);
#650 = ORIENTED_EDGE('',*,*,#595,.T.);
#651 = ORIENTED_EDGE('',*,*,#127,.T.);
#652 = PLANE('',#653);
#653 = AXIS2_PLACEMENT_3D('',#654,#655,#656);
#654 = CARTESIAN_POINT('',(60.033913,55.000076,0.));
#655 = DIRECTION('',(0.,-1.,0.));
#656 = DIRECTION('',(-1.,0.,0.));
#657 = ADVANCED_FACE('',(#658),#664,.F.);
#658 = FACE_BOUND('',#659,.F.);
#659 = EDGE_LOOP('',(#660,#661,#662,#663));
#660 = ORIENTED_EDGE('',*,*,#602,.F.);
#661 = ORIENTED_EDGE('',*,*,#456,.T.);
#662 = ORIENTED_EDGE('',*,*,#339,.T.);
#663 = ORIENTED_EDGE('',*,*,#104,.F.);
#664 = PLANE('',#665);
#665 = AXIS2_PLACEMENT_3D('',#666,#667,#668);
#666 = CARTESIAN_POINT('',(58.005717,65.000519,0.));
#667 = DIRECTION('',(0.,-1.,0.));
#668 = DIRECTION('',(-1.,0.,0.));
#669 = ADVANCED_FACE('',(#670),#689,.F.);
#670 = FACE_BOUND('',#671,.F.);
#671 = EDGE_LOOP('',(#672,#680,#687,#688));
#672 = ORIENTED_EDGE('',*,*,#673,.T.);
#673 = EDGE_CURVE('',#136,#674,#676,.T.);
#674 = VERTEX_POINT('',#675);
#675 = CARTESIAN_POINT('',(-42.995137,28.350002,4.999999));
#676 = LINE('',#677,#678);
#677 = CARTESIAN_POINT('',(-57.995137,28.350002,4.999999));
#678 = VECTOR('',#679,1.);
#679 = DIRECTION('',(1.,0.,0.));
#680 = ORIENTED_EDGE('',*,*,#681,.T.);
#681 = EDGE_CURVE('',#674,#674,#682,.T.);
#682 = CIRCLE('',#683,1.65);
#683 = AXIS2_PLACEMENT_3D('',#684,#685,#686);
#684 = CARTESIAN_POINT('',(-42.995137,30.000002,4.999999));
#685 = DIRECTION('',(-1.,0.,0.));
#686 = DIRECTION('',(0.,-1.,0.));
#687 = ORIENTED_EDGE('',*,*,#673,.F.);
#688 = ORIENTED_EDGE('',*,*,#135,.F.);
#689 = CYLINDRICAL_SURFACE('',#690,1.65);
#690 = AXIS2_PLACEMENT_3D('',#691,#692,#693);
#691 = CARTESIAN_POINT('',(-57.995137,30.000002,4.999999));
#692 = DIRECTION('',(-1.,0.,0.));
#693 = DIRECTION('',(0.,-1.,0.));
#694 = ADVANCED_FACE('',(#695),#714,.F.);
#695 = FACE_BOUND('',#696,.F.);
#696 = EDGE_LOOP('',(#697,#705,#712,#713));
#697 = ORIENTED_EDGE('',*,*,#698,.T.);
#698 = EDGE_CURVE('',#147,#699,#701,.T.);
#699 = VERTEX_POINT('',#700);
#700 = CARTESIAN_POINT('',(-42.995137,-1.65,4.999998));
#701 = LINE('',#702,#703);
#702 = CARTESIAN_POINT('',(-57.995137,-1.65,4.999998));
#703 = VECTOR('',#704,1.);
#704 = DIRECTION('',(1.,0.,0.));
#705 = ORIENTED_EDGE('',*,*,#706,.T.);
#706 = EDGE_CURVE('',#699,#699,#707,.T.);
#707 = CIRCLE('',#708,1.65);
#708 = AXIS2_PLACEMENT_3D('',#709,#710,#711);
#709 = CARTESIAN_POINT('',(-42.995137,0.,4.999998));
#710 = DIRECTION('',(-1.,0.,0.));
#711 = DIRECTION('',(0.,-1.,0.));
#712 = ORIENTED_EDGE('',*,*,#698,.F.);
#713 = ORIENTED_EDGE('',*,*,#146,.F.);
#714 = CYLINDRICAL_SURFACE('',#715,1.65);
#715 = AXIS2_PLACEMENT_3D('',#716,#717,#718);
#716 = CARTESIAN_POINT('',(-57.995137,0.,4.999998));
#717 = DIRECTION('',(-1.,0.,0.));
#718 = DIRECTION('',(0.,-1.,0.));
#719 = ADVANCED_FACE('',(#720),#739,.F.);
#720 = FACE_BOUND('',#721,.F.);
#721 = EDGE_LOOP('',(#722,#730,#737,#738));
#722 = ORIENTED_EDGE('',*,*,#723,.T.);
#723 = EDGE_CURVE('',#158,#724,#726,.T.);
#724 = VERTEX_POINT('',#725);
#725 = CARTESIAN_POINT('',(-42.995137,-31.649998,4.999997));
#726 = LINE('',#727,#728);
#727 = CARTESIAN_POINT('',(-57.995137,-31.649998,4.999997));
#728 = VECTOR('',#729,1.);
#729 = DIRECTION('',(1.,0.,0.));
#730 = ORIENTED_EDGE('',*,*,#731,.T.);
#731 = EDGE_CURVE('',#724,#724,#732,.T.);
#732 = CIRCLE('',#733,1.65);
#733 = AXIS2_PLACEMENT_3D('',#734,#735,#736);
#734 = CARTESIAN_POINT('',(-42.995137,-29.999998,4.999997));
#735 = DIRECTION('',(-1.,0.,0.));
#736 = DIRECTION('',(0.,-1.,0.));
#737 = ORIENTED_EDGE('',*,*,#723,.F.);
#738 = ORIENTED_EDGE('',*,*,#157,.F.);
#739 = CYLINDRICAL_SURFACE('',#740,1.65);
#740 = AXIS2_PLACEMENT_3D('',#741,#742,#743);
#741 = CARTESIAN_POINT('',(-57.995137,-29.999998,4.999997));
#742 = DIRECTION('',(-1.,0.,0.));
#743 = DIRECTION('',(0.,-1.,0.));
#744 = ADVANCED_FACE('',(#745),#764,.F.);
#745 = FACE_BOUND('',#746,.F.);
#746 = EDGE_LOOP('',(#747,#756,#762,#763));
#747 = ORIENTED_EDGE('',*,*,#748,.F.);
#748 = EDGE_CURVE('',#749,#749,#751,.T.);
#749 = VERTEX_POINT('',#750);
#750 = CARTESIAN_POINT('',(-2.75,-32.5,7.));
#751 = CIRCLE('',#752,2.75);
#752 = AXIS2_PLACEMENT_3D('',#753,#754,#755);
#753 = CARTESIAN_POINT('',(3.980102097229E-15,-32.5,7.));
#754 = DIRECTION('',(0.,0.,1.));
#755 = DIRECTION('',(-1.,-1.224646799147E-16,0.));
#756 = ORIENTED_EDGE('',*,*,#757,.T.);
#757 = EDGE_CURVE('',#749,#193,#758,.T.);
#758 = LINE('',#759,#760);
#759 = CARTESIAN_POINT('',(-2.75,-32.5,7.));
#760 = VECTOR('',#761,1.);
#761 = DIRECTION('',(0.,0.,-1.));
#762 = ORIENTED_EDGE('',*,*,#192,.T.);
#763 = ORIENTED_EDGE('',*,*,#757,.F.);
#764 = CYLINDRICAL_SURFACE('',#765,2.75);
#765 = AXIS2_PLACEMENT_3D('',#766,#767,#768);
#766 = CARTESIAN_POINT('',(3.980102097229E-15,-32.5,7.));
#767 = DIRECTION('',(0.,0.,1.));
#768 = DIRECTION('',(-1.,-1.224646799147E-16,0.));
#769 = ADVANCED_FACE('',(#770),#789,.F.);
#770 = FACE_BOUND('',#771,.F.);
#771 = EDGE_LOOP('',(#772,#781,#787,#788));
#772 = ORIENTED_EDGE('',*,*,#773,.F.);
#773 = EDGE_CURVE('',#774,#774,#776,.T.);
#774 = VERTEX_POINT('',#775);
#775 = CARTESIAN_POINT('',(-29.52082562299,-13.86843013959,7.));
#776 = CIRCLE('',#777,2.75);
#777 = AXIS2_PLACEMENT_3D('',#778,#779,#780);
#778 = CARTESIAN_POINT('',(-28.14582562299,-16.25,7.));
#779 = DIRECTION('',(0.,0.,1.));
#780 = DIRECTION('',(-0.5,0.866025403784,0.));
#781 = ORIENTED_EDGE('',*,*,#782,.T.);
#782 = EDGE_CURVE('',#774,#204,#783,.T.);
#783 = LINE('',#784,#785);
#784 = CARTESIAN_POINT('',(-29.52082562299,-13.86843013959,7.));
#785 = VECTOR('',#786,1.);
#786 = DIRECTION('',(0.,0.,-1.));
#787 = ORIENTED_EDGE('',*,*,#203,.T.);
#788 = ORIENTED_EDGE('',*,*,#782,.F.);
#789 = CYLINDRICAL_SURFACE('',#790,2.75);
#790 = AXIS2_PLACEMENT_3D('',#791,#792,#793);
#791 = CARTESIAN_POINT('',(-28.14582562299,-16.25,7.));
#792 = DIRECTION('',(0.,0.,1.));
#793 = DIRECTION('',(-0.5,0.866025403784,0.));
#794 = ADVANCED_FACE('',(#795),#814,.F.);
#795 = FACE_BOUND('',#796,.T.);
#796 = EDGE_LOOP('',(#797,#805,#812,#813));
#797 = ORIENTED_EDGE('',*,*,#798,.F.);
#798 = EDGE_CURVE('',#799,#215,#801,.T.);
#799 = VERTEX_POINT('',#800);
#800 = CARTESIAN_POINT('',(11.499999,-40.,8.05));
#801 = LINE('',#802,#803);
#802 = CARTESIAN_POINT('',(11.499999,-40.,8.05));
#803 = VECTOR('',#804,1.);
#804 = DIRECTION('',(-6.108785331807E-17,0.,-1.));
#805 = ORIENTED_EDGE('',*,*,#806,.T.);
#806 = EDGE_CURVE('',#799,#799,#807,.T.);
#807 = CIRCLE('',#808,1.5);
#808 = AXIS2_PLACEMENT_3D('',#809,#810,#811);
#809 = CARTESIAN_POINT('',(9.999999,-40.,8.05));
#810 = DIRECTION('',(0.,0.,1.));
#811 = DIRECTION('',(1.,0.,0.));
#812 = ORIENTED_EDGE('',*,*,#798,.T.);
#813 = ORIENTED_EDGE('',*,*,#214,.T.);
#814 = CYLINDRICAL_SURFACE('',#815,1.5);
#815 = AXIS2_PLACEMENT_3D('',#816,#817,#818);
#816 = CARTESIAN_POINT('',(9.999999,-40.,8.05));
#817 = DIRECTION('',(-0.,-0.,-1.));
#818 = DIRECTION('',(1.,0.,0.));
#819 = ADVANCED_FACE('',(#820),#839,.F.);
#820 = FACE_BOUND('',#821,.T.);
#821 = EDGE_LOOP('',(#822,#830,#837,#838));
#822 = ORIENTED_EDGE('',*,*,#823,.F.);
#823 = EDGE_CURVE('',#824,#226,#826,.T.);
#824 = VERTEX_POINT('',#825);
#825 = CARTESIAN_POINT('',(41.5,-50.,8.05));
#826 = LINE('',#827,#828);
#827 = CARTESIAN_POINT('',(41.5,-50.,8.05));
#828 = VECTOR('',#829,1.);
#829 = DIRECTION('',(-6.108785331807E-17,0.,-1.));
#830 = ORIENTED_EDGE('',*,*,#831,.T.);
#831 = EDGE_CURVE('',#824,#824,#832,.T.);
#832 = CIRCLE('',#833,1.5);
#833 = AXIS2_PLACEMENT_3D('',#834,#835,#836);
#834 = CARTESIAN_POINT('',(40.,-50.,8.05));
#835 = DIRECTION('',(0.,0.,1.));
#836 = DIRECTION('',(1.,0.,0.));
#837 = ORIENTED_EDGE('',*,*,#823,.T.);
#838 = ORIENTED_EDGE('',*,*,#225,.T.);
#839 = CYLINDRICAL_SURFACE('',#840,1.5);
#840 = AXIS2_PLACEMENT_3D('',#841,#842,#843);
#841 = CARTESIAN_POINT('',(40.,-50.,8.05));
#842 = DIRECTION('',(-0.,-0.,-1.));
#843 = DIRECTION('',(1.,0.,0.));
#844 = ADVANCED_FACE('',(#845),#864,.F.);
#845 = FACE_BOUND('',#846,.F.);
#846 = EDGE_LOOP('',(#847,#856,#862,#863));
#847 = ORIENTED_EDGE('',*,*,#848,.F.);
#848 = EDGE_CURVE('',#849,#849,#851,.T.);
#849 = VERTEX_POINT('',#850);
#850 = CARTESIAN_POINT('',(26.770825622994,-18.6315698604,7.));
#851 = CIRCLE('',#852,2.75);
#852 = AXIS2_PLACEMENT_3D('',#853,#854,#855);
#853 = CARTESIAN_POINT('',(28.145825622994,-16.25,7.));
#854 = DIRECTION('',(0.,0.,1.));
#855 = DIRECTION('',(-0.5,-0.866025403784,0.));
#856 = ORIENTED_EDGE('',*,*,#857,.T.);
#857 = EDGE_CURVE('',#849,#237,#858,.T.);
#858 = LINE('',#859,#860);
#859 = CARTESIAN_POINT('',(26.770825622994,-18.6315698604,7.));
#860 = VECTOR('',#861,1.);
#861 = DIRECTION('',(0.,0.,-1.));
#862 = ORIENTED_EDGE('',*,*,#236,.T.);
#863 = ORIENTED_EDGE('',*,*,#857,.F.);
#864 = CYLINDRICAL_SURFACE('',#865,2.75);
#865 = AXIS2_PLACEMENT_3D('',#866,#867,#868);
#866 = CARTESIAN_POINT('',(28.145825622994,-16.25,7.));
#867 = DIRECTION('',(0.,0.,1.));
#868 = DIRECTION('',(-0.5,-0.866025403784,0.));
#869 = ADVANCED_FACE('',(#870),#889,.F.);
#870 = FACE_BOUND('',#871,.T.);
#871 = EDGE_LOOP('',(#872,#880,#887,#888));
#872 = ORIENTED_EDGE('',*,*,#873,.F.);
#873 = EDGE_CURVE('',#874,#248,#876,.T.);
#874 = VERTEX_POINT('',#875);
#875 = CARTESIAN_POINT('',(41.499954,-10.000055,8.05));
#876 = LINE('',#877,#878);
#877 = CARTESIAN_POINT('',(41.499954,-10.000055,8.05));
#878 = VECTOR('',#879,1.);
#879 = DIRECTION('',(-6.108785331807E-17,0.,-1.));
#880 = ORIENTED_EDGE('',*,*,#881,.T.);
#881 = EDGE_CURVE('',#874,#874,#882,.T.);
#882 = CIRCLE('',#883,1.5);
#883 = AXIS2_PLACEMENT_3D('',#884,#885,#886);
#884 = CARTESIAN_POINT('',(39.999954,-10.000055,8.05));
#885 = DIRECTION('',(0.,0.,1.));
#886 = DIRECTION('',(1.,0.,0.));
#887 = ORIENTED_EDGE('',*,*,#873,.T.);
#888 = ORIENTED_EDGE('',*,*,#247,.T.);
#889 = CYLINDRICAL_SURFACE('',#890,1.5);
#890 = AXIS2_PLACEMENT_3D('',#891,#892,#893);
#891 = CARTESIAN_POINT('',(39.999954,-10.000055,8.05));
#892 = DIRECTION('',(-0.,-0.,-1.));
#893 = DIRECTION('',(1.,0.,0.));
#894 = ADVANCED_FACE('',(#895),#914,.F.);
#895 = FACE_BOUND('',#896,.T.);
#896 = EDGE_LOOP('',(#897,#905,#912,#913));
#897 = ORIENTED_EDGE('',*,*,#898,.F.);
#898 = EDGE_CURVE('',#899,#259,#901,.T.);
#899 = VERTEX_POINT('',#900);
#900 = CARTESIAN_POINT('',(-39.500015,7.999982,8.05));
#901 = LINE('',#902,#903);
#902 = CARTESIAN_POINT('',(-39.500015,7.999982,8.05));
#903 = VECTOR('',#904,1.);
#904 = DIRECTION('',(-6.108785331807E-17,0.,-1.));
#905 = ORIENTED_EDGE('',*,*,#906,.T.);
#906 = EDGE_CURVE('',#899,#899,#907,.T.);
#907 = CIRCLE('',#908,1.5);
#908 = AXIS2_PLACEMENT_3D('',#909,#910,#911);
#909 = CARTESIAN_POINT('',(-41.000015,7.999982,8.05));
#910 = DIRECTION('',(0.,0.,1.));
#911 = DIRECTION('',(1.,0.,0.));
#912 = ORIENTED_EDGE('',*,*,#898,.T.);
#913 = ORIENTED_EDGE('',*,*,#258,.T.);
#914 = CYLINDRICAL_SURFACE('',#915,1.5);
#915 = AXIS2_PLACEMENT_3D('',#916,#917,#918);
#916 = CARTESIAN_POINT('',(-41.000015,7.999982,8.05));
#917 = DIRECTION('',(-0.,-0.,-1.));
#918 = DIRECTION('',(1.,0.,0.));
#919 = ADVANCED_FACE('',(#920),#939,.F.);
#920 = FACE_BOUND('',#921,.T.);
#921 = EDGE_LOOP('',(#922,#923,#931,#938));
#922 = ORIENTED_EDGE('',*,*,#269,.F.);
#923 = ORIENTED_EDGE('',*,*,#924,.T.);
#924 = EDGE_CURVE('',#270,#925,#927,.T.);
#925 = VERTEX_POINT('',#926);
#926 = CARTESIAN_POINT('',(-7.,-8.572527594031E-16,4.));
#927 = LINE('',#928,#929);
#928 = CARTESIAN_POINT('',(-7.,-8.572527594031E-16,0.));
#929 = VECTOR('',#930,1.);
#930 = DIRECTION('',(0.,0.,1.));
#931 = ORIENTED_EDGE('',*,*,#932,.F.);
#932 = EDGE_CURVE('',#925,#925,#933,.T.);
#933 = CIRCLE('',#934,7.);
#934 = AXIS2_PLACEMENT_3D('',#935,#936,#937);
#935 = CARTESIAN_POINT('',(0.,0.,4.));
#936 = DIRECTION('',(-0.,0.,-1.));
#937 = DIRECTION('',(-1.,-1.224646799147E-16,0.));
#938 = ORIENTED_EDGE('',*,*,#924,.F.);
#939 = CYLINDRICAL_SURFACE('',#940,7.);
#940 = AXIS2_PLACEMENT_3D('',#941,#942,#943);
#941 = CARTESIAN_POINT('',(0.,0.,0.));
#942 = DIRECTION('',(-0.,-0.,-1.));
#943 = DIRECTION('',(-1.,-1.224646799147E-16,0.));
#944 = ADVANCED_FACE('',(#945),#964,.F.);
#945 = FACE_BOUND('',#946,.F.);
#946 = EDGE_LOOP('',(#947,#956,#962,#963));
#947 = ORIENTED_EDGE('',*,*,#948,.F.);
#948 = EDGE_CURVE('',#949,#949,#951,.T.);
#949 = VERTEX_POINT('',#950);
#950 = CARTESIAN_POINT('',(-26.77082562299,18.631569860407,7.));
#951 = CIRCLE('',#952,2.75);
#952 = AXIS2_PLACEMENT_3D('',#953,#954,#955);
#953 = CARTESIAN_POINT('',(-28.14582562299,16.25,7.));
#954 = DIRECTION('',(0.,-0.,1.));
#955 = DIRECTION('',(0.5,0.866025403784,0.));
#956 = ORIENTED_EDGE('',*,*,#957,.T.);
#957 = EDGE_CURVE('',#949,#281,#958,.T.);
#958 = LINE('',#959,#960);
#959 = CARTESIAN_POINT('',(-26.77082562299,18.631569860407,7.));
#960 = VECTOR('',#961,1.);
#961 = DIRECTION('',(0.,-0.,-1.));
#962 = ORIENTED_EDGE('',*,*,#280,.T.);
#963 = ORIENTED_EDGE('',*,*,#957,.F.);
#964 = CYLINDRICAL_SURFACE('',#965,2.75);
#965 = AXIS2_PLACEMENT_3D('',#966,#967,#968);
#966 = CARTESIAN_POINT('',(-28.14582562299,16.25,7.));
#967 = DIRECTION('',(0.,0.,1.));
#968 = DIRECTION('',(0.5,0.866025403784,0.));
#969 = ADVANCED_FACE('',(#970),#989,.F.);
#970 = FACE_BOUND('',#971,.F.);
#971 = EDGE_LOOP('',(#972,#981,#987,#988));
#972 = ORIENTED_EDGE('',*,*,#973,.F.);
#973 = EDGE_CURVE('',#974,#974,#976,.T.);
#974 = VERTEX_POINT('',#975);
#975 = CARTESIAN_POINT('',(2.75,32.5,7.));
#976 = CIRCLE('',#977,2.75);
#977 = AXIS2_PLACEMENT_3D('',#978,#979,#980);
#978 = CARTESIAN_POINT('',(0.,32.5,7.));
#979 = DIRECTION('',(0.,0.,1.));
#980 = DIRECTION('',(1.,0.,0.));
#981 = ORIENTED_EDGE('',*,*,#982,.T.);
#982 = EDGE_CURVE('',#974,#292,#983,.T.);
#983 = LINE('',#984,#985);
#984 = CARTESIAN_POINT('',(2.75,32.5,7.));
#985 = VECTOR('',#986,1.);
#986 = DIRECTION('',(-0.,-0.,-1.));
#987 = ORIENTED_EDGE('',*,*,#291,.T.);
#988 = ORIENTED_EDGE('',*,*,#982,.F.);
#989 = CYLINDRICAL_SURFACE('',#990,2.75);
#990 = AXIS2_PLACEMENT_3D('',#991,#992,#993);
#991 = CARTESIAN_POINT('',(0.,32.5,7.));
#992 = DIRECTION('',(0.,0.,1.));
#993 = DIRECTION('',(1.,0.,0.));
#994 = ADVANCED_FACE('',(#995),#1014,.F.);
#995 = FACE_BOUND('',#996,.T.);
#996 = EDGE_LOOP('',(#997,#1005,#1012,#1013));
#997 = ORIENTED_EDGE('',*,*,#998,.F.);
#998 = EDGE_CURVE('',#999,#303,#1001,.T.);
#999 = VERTEX_POINT('',#1000);
#1000 = CARTESIAN_POINT('',(51.5,7.999997,8.05));
#1001 = LINE('',#1002,#1003);
#1002 = CARTESIAN_POINT('',(51.5,7.999997,8.05));
#1003 = VECTOR('',#1004,1.);
#1004 = DIRECTION('',(-6.108785331807E-17,0.,-1.));
#1005 = ORIENTED_EDGE('',*,*,#1006,.T.);
#1006 = EDGE_CURVE('',#999,#999,#1007,.T.);
#1007 = CIRCLE('',#1008,1.5);
#1008 = AXIS2_PLACEMENT_3D('',#1009,#1010,#1011);
#1009 = CARTESIAN_POINT('',(50.,7.999997,8.05));
#1010 = DIRECTION('',(0.,0.,1.));
#1011 = DIRECTION('',(1.,0.,0.));
#1012 = ORIENTED_EDGE('',*,*,#998,.T.);
#1013 = ORIENTED_EDGE('',*,*,#302,.T.);
#1014 = CYLINDRICAL_SURFACE('',#1015,1.5);
#1015 = AXIS2_PLACEMENT_3D('',#1016,#1017,#1018);
#1016 = CARTESIAN_POINT('',(50.,7.999997,8.05));
#1017 = DIRECTION('',(-0.,-0.,-1.));
#1018 = DIRECTION('',(1.,0.,0.));
#1019 = ADVANCED_FACE('',(#1020),#1039,.F.);
#1020 = FACE_BOUND('',#1021,.F.);
#1021 = EDGE_LOOP('',(#1022,#1031,#1037,#1038));
#1022 = ORIENTED_EDGE('',*,*,#1023,.F.);
#1023 = EDGE_CURVE('',#1024,#1024,#1026,.T.);
#1024 = VERTEX_POINT('',#1025);
#1025 = CARTESIAN_POINT('',(29.520825622994,13.868430139593,7.));
#1026 = CIRCLE('',#1027,2.75);
#1027 = AXIS2_PLACEMENT_3D('',#1028,#1029,#1030);
#1028 = CARTESIAN_POINT('',(28.145825622994,16.25,7.));
#1029 = DIRECTION('',(-0.,0.,1.));
#1030 = DIRECTION('',(0.5,-0.866025403784,0.));
#1031 = ORIENTED_EDGE('',*,*,#1032,.T.);
#1032 = EDGE_CURVE('',#1024,#314,#1033,.T.);
#1033 = LINE('',#1034,#1035);
#1034 = CARTESIAN_POINT('',(29.520825622994,13.868430139593,7.));
#1035 = VECTOR('',#1036,1.);
#1036 = DIRECTION('',(-0.,0.,-1.));
#1037 = ORIENTED_EDGE('',*,*,#313,.T.);
#1038 = ORIENTED_EDGE('',*,*,#1032,.F.);
#1039 = CYLINDRICAL_SURFACE('',#1040,2.75);
#1040 = AXIS2_PLACEMENT_3D('',#1041,#1042,#1043);
#1041 = CARTESIAN_POINT('',(28.145825622994,16.25,7.));
#1042 = DIRECTION('',(0.,0.,1.));
#1043 = DIRECTION('',(0.5,-0.866025403784,0.));
#1044 = ADVANCED_FACE('',(#1045),#1064,.F.);
#1045 = FACE_BOUND('',#1046,.F.);
#1046 = EDGE_LOOP('',(#1047,#1055,#1062,#1063));
#1047 = ORIENTED_EDGE('',*,*,#1048,.T.);
#1048 = EDGE_CURVE('',#349,#1049,#1051,.T.);
#1049 = VERTEX_POINT('',#1050);
#1050 = CARTESIAN_POINT('',(36.5,0.,7.));
#1051 = LINE('',#1052,#1053);
#1052 = CARTESIAN_POINT('',(36.5,0.,10.));
#1053 = VECTOR('',#1054,1.);
#1054 = DIRECTION('',(-0.,-0.,-1.));
#1055 = ORIENTED_EDGE('',*,*,#1056,.T.);
#1056 = EDGE_CURVE('',#1049,#1049,#1057,.T.);
#1057 = CIRCLE('',#1058,36.5);
#1058 = AXIS2_PLACEMENT_3D('',#1059,#1060,#1061);
#1059 = CARTESIAN_POINT('',(0.,0.,7.));
#1060 = DIRECTION('',(0.,0.,1.));
#1061 = DIRECTION('',(1.,0.,0.));
#1062 = ORIENTED_EDGE('',*,*,#1048,.F.);
#1063 = ORIENTED_EDGE('',*,*,#348,.F.);
#1064 = CYLINDRICAL_SURFACE('',#1065,36.5);
#1065 = AXIS2_PLACEMENT_3D('',#1066,#1067,#1068);
#1066 = CARTESIAN_POINT('',(0.,0.,10.));
#1067 = DIRECTION('',(0.,0.,1.));
#1068 = DIRECTION('',(1.,0.,0.));
#1069 = ADVANCED_FACE('',(#1070),#1081,.F.);
#1070 = FACE_BOUND('',#1071,.T.);
#1071 = EDGE_LOOP('',(#1072,#1078,#1079,#1080));
#1072 = ORIENTED_EDGE('',*,*,#1073,.F.);
#1073 = EDGE_CURVE('',#360,#799,#1074,.T.);
#1074 = LINE('',#1075,#1076);
#1075 = CARTESIAN_POINT('',(13.449999,-40.,10.));
#1076 = VECTOR('',#1077,1.);
#1077 = DIRECTION('',(-0.707106781187,0.,-0.707106781187));
#1078 = ORIENTED_EDGE('',*,*,#359,.T.);
#1079 = ORIENTED_EDGE('',*,*,#1073,.T.);
#1080 = ORIENTED_EDGE('',*,*,#806,.F.);
#1081 = CONICAL_SURFACE('',#1082,3.45,0.785398163397);
#1082 = AXIS2_PLACEMENT_3D('',#1083,#1084,#1085);
#1083 = CARTESIAN_POINT('',(9.999999,-40.,10.));
#1084 = DIRECTION('',(0.,0.,1.));
#1085 = DIRECTION('',(1.,0.,0.));
#1086 = ADVANCED_FACE('',(#1087),#1098,.F.);
#1087 = FACE_BOUND('',#1088,.T.);
#1088 = EDGE_LOOP('',(#1089,#1095,#1096,#1097));
#1089 = ORIENTED_EDGE('',*,*,#1090,.F.);
#1090 = EDGE_CURVE('',#371,#824,#1091,.T.);
#1091 = LINE('',#1092,#1093);
#1092 = CARTESIAN_POINT('',(43.45,-50.,10.));
#1093 = VECTOR('',#1094,1.);
#1094 = DIRECTION('',(-0.707106781187,0.,-0.707106781187));
#1095 = ORIENTED_EDGE('',*,*,#370,.T.);
#1096 = ORIENTED_EDGE('',*,*,#1090,.T.);
#1097 = ORIENTED_EDGE('',*,*,#831,.F.);
#1098 = CONICAL_SURFACE('',#1099,3.45,0.785398163397);
#1099 = AXIS2_PLACEMENT_3D('',#1100,#1101,#1102);
#1100 = CARTESIAN_POINT('',(40.,-50.,10.));
#1101 = DIRECTION('',(0.,0.,1.));
#1102 = DIRECTION('',(1.,0.,0.));
#1103 = ADVANCED_FACE('',(#1104),#1115,.F.);
#1104 = FACE_BOUND('',#1105,.T.);
#1105 = EDGE_LOOP('',(#1106,#1112,#1113,#1114));
#1106 = ORIENTED_EDGE('',*,*,#1107,.F.);
#1107 = EDGE_CURVE('',#382,#874,#1108,.T.);
#1108 = LINE('',#1109,#1110);
#1109 = CARTESIAN_POINT('',(43.449954,-10.000055,10.));
#1110 = VECTOR('',#1111,1.);
#1111 = DIRECTION('',(-0.707106781187,0.,-0.707106781187));
#1112 = ORIENTED_EDGE('',*,*,#381,.T.);
#1113 = ORIENTED_EDGE('',*,*,#1107,.T.);
#1114 = ORIENTED_EDGE('',*,*,#881,.F.);
#1115 = CONICAL_SURFACE('',#1116,3.45,0.785398163397);
#1116 = AXIS2_PLACEMENT_3D('',#1117,#1118,#1119);
#1117 = CARTESIAN_POINT('',(39.999954,-10.000055,10.));
#1118 = DIRECTION('',(0.,0.,1.));
#1119 = DIRECTION('',(1.,0.,0.));
#1120 = ADVANCED_FACE('',(#1121),#1132,.F.);
#1121 = FACE_BOUND('',#1122,.T.);
#1122 = EDGE_LOOP('',(#1123,#1129,#1130,#1131));
#1123 = ORIENTED_EDGE('',*,*,#1124,.F.);
#1124 = EDGE_CURVE('',#393,#899,#1125,.T.);
#1125 = LINE('',#1126,#1127);
#1126 = CARTESIAN_POINT('',(-37.550015,7.999982,10.));
#1127 = VECTOR('',#1128,1.);
#1128 = DIRECTION('',(-0.707106781187,0.,-0.707106781187));
#1129 = ORIENTED_EDGE('',*,*,#392,.T.);
#1130 = ORIENTED_EDGE('',*,*,#1124,.T.);
#1131 = ORIENTED_EDGE('',*,*,#906,.F.);
#1132 = CONICAL_SURFACE('',#1133,3.45,0.785398163397);
#1133 = AXIS2_PLACEMENT_3D('',#1134,#1135,#1136);
#1134 = CARTESIAN_POINT('',(-41.000015,7.999982,10.));
#1135 = DIRECTION('',(0.,0.,1.));
#1136 = DIRECTION('',(1.,0.,0.));
#1137 = ADVANCED_FACE('',(#1138),#1157,.F.);
#1138 = FACE_BOUND('',#1139,.T.);
#1139 = EDGE_LOOP('',(#1140,#1148,#1149,#1150));
#1140 = ORIENTED_EDGE('',*,*,#1141,.F.);
#1141 = EDGE_CURVE('',#404,#1142,#1144,.T.);
#1142 = VERTEX_POINT('',#1143);
#1143 = CARTESIAN_POINT('',(-27.750086,59.999934,8.25));
#1144 = LINE('',#1145,#1146);
#1145 = CARTESIAN_POINT('',(-26.000086,59.999934,10.));
#1146 = VECTOR('',#1147,1.);
#1147 = DIRECTION('',(-0.707106781187,0.,-0.707106781187));
#1148 = ORIENTED_EDGE('',*,*,#403,.T.);
#1149 = ORIENTED_EDGE('',*,*,#1141,.T.);
#1150 = ORIENTED_EDGE('',*,*,#1151,.F.);
#1151 = EDGE_CURVE('',#1142,#1142,#1152,.T.);
#1152 = CIRCLE('',#1153,2.25);
#1153 = AXIS2_PLACEMENT_3D('',#1154,#1155,#1156);
#1154 = CARTESIAN_POINT('',(-30.000086,59.999934,8.25));
#1155 = DIRECTION('',(0.,0.,1.));
#1156 = DIRECTION('',(1.,0.,0.));
#1157 = CONICAL_SURFACE('',#1158,4.,0.785398163397);
#1158 = AXIS2_PLACEMENT_3D('',#1159,#1160,#1161);
#1159 = CARTESIAN_POINT('',(-30.000086,59.999934,10.));
#1160 = DIRECTION('',(0.,0.,1.));
#1161 = DIRECTION('',(1.,0.,0.));
#1162 = ADVANCED_FACE('',(#1163),#1182,.F.);
#1163 = FACE_BOUND('',#1164,.T.);
#1164 = EDGE_LOOP('',(#1165,#1173,#1174,#1175));
#1165 = ORIENTED_EDGE('',*,*,#1166,.F.);
#1166 = EDGE_CURVE('',#415,#1167,#1169,.T.);
#1167 = VERTEX_POINT('',#1168);
#1168 = CARTESIAN_POINT('',(2.25,59.999803,8.25));
#1169 = LINE('',#1170,#1171);
#1170 = CARTESIAN_POINT('',(4.,59.999803,10.));
#1171 = VECTOR('',#1172,1.);
#1172 = DIRECTION('',(-0.707106781187,0.,-0.707106781187));
#1173 = ORIENTED_EDGE('',*,*,#414,.T.);
#1174 = ORIENTED_EDGE('',*,*,#1166,.T.);
#1175 = ORIENTED_EDGE('',*,*,#1176,.F.);
#1176 = EDGE_CURVE('',#1167,#1167,#1177,.T.);
#1177 = CIRCLE('',#1178,2.25);
#1178 = AXIS2_PLACEMENT_3D('',#1179,#1180,#1181);
#1179 = CARTESIAN_POINT('',(0.,59.999803,8.25));
#1180 = DIRECTION('',(0.,0.,1.));
#1181 = DIRECTION('',(1.,0.,0.));
#1182 = CONICAL_SURFACE('',#1183,4.,0.785398163397);
#1183 = AXIS2_PLACEMENT_3D('',#1184,#1185,#1186);
#1184 = CARTESIAN_POINT('',(0.,59.999803,10.));
#1185 = DIRECTION('',(0.,0.,1.));
#1186 = DIRECTION('',(1.,0.,0.));
#1187 = ADVANCED_FACE('',(#1188),#1199,.F.);
#1188 = FACE_BOUND('',#1189,.T.);
#1189 = EDGE_LOOP('',(#1190,#1196,#1197,#1198));
#1190 = ORIENTED_EDGE('',*,*,#1191,.F.);
#1191 = EDGE_CURVE('',#426,#999,#1192,.T.);
#1192 = LINE('',#1193,#1194);
#1193 = CARTESIAN_POINT('',(53.45,7.999997,10.));
#1194 = VECTOR('',#1195,1.);
#1195 = DIRECTION('',(-0.707106781187,0.,-0.707106781187));
#1196 = ORIENTED_EDGE('',*,*,#425,.T.);
#1197 = ORIENTED_EDGE('',*,*,#1191,.T.);
#1198 = ORIENTED_EDGE('',*,*,#1006,.F.);
#1199 = CONICAL_SURFACE('',#1200,3.45,0.785398163397);
#1200 = AXIS2_PLACEMENT_3D('',#1201,#1202,#1203);
#1201 = CARTESIAN_POINT('',(50.,7.999997,10.));
#1202 = DIRECTION('',(0.,0.,1.));
#1203 = DIRECTION('',(1.,0.,0.));
#1204 = ADVANCED_FACE('',(#1205),#1224,.F.);
#1205 = FACE_BOUND('',#1206,.T.);
#1206 = EDGE_LOOP('',(#1207,#1215,#1216,#1217));
#1207 = ORIENTED_EDGE('',*,*,#1208,.F.);
#1208 = EDGE_CURVE('',#437,#1209,#1211,.T.);
#1209 = VERTEX_POINT('',#1210);
#1210 = CARTESIAN_POINT('',(32.250015,59.999982,8.25));
#1211 = LINE('',#1212,#1213);
#1212 = CARTESIAN_POINT('',(34.000015,59.999982,10.));
#1213 = VECTOR('',#1214,1.);
#1214 = DIRECTION('',(-0.707106781187,0.,-0.707106781187));
#1215 = ORIENTED_EDGE('',*,*,#436,.T.);
#1216 = ORIENTED_EDGE('',*,*,#1208,.T.);
#1217 = ORIENTED_EDGE('',*,*,#1218,.F.);
#1218 = EDGE_CURVE('',#1209,#1209,#1219,.T.);
#1219 = CIRCLE('',#1220,2.25);
#1220 = AXIS2_PLACEMENT_3D('',#1221,#1222,#1223);
#1221 = CARTESIAN_POINT('',(30.000015,59.999982,8.25));
#1222 = DIRECTION('',(0.,0.,1.));
#1223 = DIRECTION('',(1.,0.,0.));
#1224 = CONICAL_SURFACE('',#1225,4.,0.785398163397);
#1225 = AXIS2_PLACEMENT_3D('',#1226,#1227,#1228);
#1226 = CARTESIAN_POINT('',(30.000015,59.999982,10.));
#1227 = DIRECTION('',(0.,0.,1.));
#1228 = DIRECTION('',(1.,0.,0.));
#1229 = ADVANCED_FACE('',(#1230),#1249,.F.);
#1230 = FACE_BOUND('',#1231,.F.);
#1231 = EDGE_LOOP('',(#1232,#1240,#1247,#1248));
#1232 = ORIENTED_EDGE('',*,*,#1233,.T.);
#1233 = EDGE_CURVE('',#481,#1234,#1236,.T.);
#1234 = VERTEX_POINT('',#1235);
#1235 = CARTESIAN_POINT('',(43.005717,1.65,5.));
#1236 = LINE('',#1237,#1238);
#1237 = CARTESIAN_POINT('',(58.005717,1.65,5.));
#1238 = VECTOR('',#1239,1.);
#1239 = DIRECTION('',(-1.,-0.,-0.));
#1240 = ORIENTED_EDGE('',*,*,#1241,.T.);
#1241 = EDGE_CURVE('',#1234,#1234,#1242,.T.);
#1242 = CIRCLE('',#1243,1.65);
#1243 = AXIS2_PLACEMENT_3D('',#1244,#1245,#1246);
#1244 = CARTESIAN_POINT('',(43.005717,0.,5.));
#1245 = DIRECTION('',(1.,0.,0.));
#1246 = DIRECTION('',(0.,1.,0.));
#1247 = ORIENTED_EDGE('',*,*,#1233,.F.);
#1248 = ORIENTED_EDGE('',*,*,#480,.F.);
#1249 = CYLINDRICAL_SURFACE('',#1250,1.65);
#1250 = AXIS2_PLACEMENT_3D('',#1251,#1252,#1253);
#1251 = CARTESIAN_POINT('',(58.005717,0.,5.));
#1252 = DIRECTION('',(1.,0.,0.));
#1253 = DIRECTION('',(0.,1.,0.));
#1254 = ADVANCED_FACE('',(#1255),#1274,.F.);
#1255 = FACE_BOUND('',#1256,.F.);
#1256 = EDGE_LOOP('',(#1257,#1265,#1272,#1273));
#1257 = ORIENTED_EDGE('',*,*,#1258,.T.);
#1258 = EDGE_CURVE('',#492,#1259,#1261,.T.);
#1259 = VERTEX_POINT('',#1260);
#1260 = CARTESIAN_POINT('',(43.005717,31.65,4.999999));
#1261 = LINE('',#1262,#1263);
#1262 = CARTESIAN_POINT('',(58.005717,31.65,4.999999));
#1263 = VECTOR('',#1264,1.);
#1264 = DIRECTION('',(-1.,-0.,-0.));
#1265 = ORIENTED_EDGE('',*,*,#1266,.T.);
#1266 = EDGE_CURVE('',#1259,#1259,#1267,.T.);
#1267 = CIRCLE('',#1268,1.65);
#1268 = AXIS2_PLACEMENT_3D('',#1269,#1270,#1271);
#1269 = CARTESIAN_POINT('',(43.005717,30.,4.999999));
#1270 = DIRECTION('',(1.,0.,0.));
#1271 = DIRECTION('',(0.,1.,0.));
#1272 = ORIENTED_EDGE('',*,*,#1258,.F.);
#1273 = ORIENTED_EDGE('',*,*,#491,.F.);
#1274 = CYLINDRICAL_SURFACE('',#1275,1.65);
#1275 = AXIS2_PLACEMENT_3D('',#1276,#1277,#1278);
#1276 = CARTESIAN_POINT('',(58.005717,30.,4.999999));
#1277 = DIRECTION('',(1.,0.,0.));
#1278 = DIRECTION('',(0.,1.,0.));
#1279 = ADVANCED_FACE('',(#1280),#1299,.F.);
#1280 = FACE_BOUND('',#1281,.F.);
#1281 = EDGE_LOOP('',(#1282,#1290,#1297,#1298));
#1282 = ORIENTED_EDGE('',*,*,#1283,.T.);
#1283 = EDGE_CURVE('',#503,#1284,#1286,.T.);
#1284 = VERTEX_POINT('',#1285);
#1285 = CARTESIAN_POINT('',(43.005717,-28.350004,4.999996));
#1286 = LINE('',#1287,#1288);
#1287 = CARTESIAN_POINT('',(58.005717,-28.350004,4.999996));
#1288 = VECTOR('',#1289,1.);
#1289 = DIRECTION('',(-1.,-0.,-0.));
#1290 = ORIENTED_EDGE('',*,*,#1291,.T.);
#1291 = EDGE_CURVE('',#1284,#1284,#1292,.T.);
#1292 = CIRCLE('',#1293,1.65);
#1293 = AXIS2_PLACEMENT_3D('',#1294,#1295,#1296);
#1294 = CARTESIAN_POINT('',(43.005717,-30.000004,4.999996));
#1295 = DIRECTION('',(1.,0.,0.));
#1296 = DIRECTION('',(0.,1.,0.));
#1297 = ORIENTED_EDGE('',*,*,#1283,.F.);
#1298 = ORIENTED_EDGE('',*,*,#502,.F.);
#1299 = CYLINDRICAL_SURFACE('',#1300,1.65);
#1300 = AXIS2_PLACEMENT_3D('',#1301,#1302,#1303);
#1301 = CARTESIAN_POINT('',(58.005717,-30.000004,4.999996));
#1302 = DIRECTION('',(1.,0.,0.));
#1303 = DIRECTION('',(0.,1.,0.));
#1304 = ADVANCED_FACE('',(#1305),#1308,.F.);
#1305 = FACE_BOUND('',#1306,.T.);
#1306 = EDGE_LOOP('',(#1307));
#1307 = ORIENTED_EDGE('',*,*,#527,.T.);
#1308 = PLANE('',#1309);
#1309 = AXIS2_PLACEMENT_3D('',#1310,#1311,#1312);
#1310 = CARTESIAN_POINT('',(-1.333333333568E-06,-44.022411,
    4.999665666667));
#1311 = DIRECTION('',(0.,1.,0.));
#1312 = DIRECTION('',(0.,0.,1.));
#1313 = ADVANCED_FACE('',(#1314),#1317,.F.);
#1314 = FACE_BOUND('',#1315,.T.);
#1315 = EDGE_LOOP('',(#1316));
#1316 = ORIENTED_EDGE('',*,*,#552,.T.);
#1317 = PLANE('',#1318);
#1318 = AXIS2_PLACEMENT_3D('',#1319,#1320,#1321);
#1319 = CARTESIAN_POINT('',(-1.333333333568E-06,-44.022411,
    4.999665666667));
#1320 = DIRECTION('',(0.,1.,0.));
#1321 = DIRECTION('',(0.,0.,1.));
#1322 = ADVANCED_FACE('',(#1323),#1326,.F.);
#1323 = FACE_BOUND('',#1324,.T.);
#1324 = EDGE_LOOP('',(#1325));
#1325 = ORIENTED_EDGE('',*,*,#577,.T.);
#1326 = PLANE('',#1327);
#1327 = AXIS2_PLACEMENT_3D('',#1328,#1329,#1330);
#1328 = CARTESIAN_POINT('',(-1.333333333568E-06,-44.022411,
    4.999665666667));
#1329 = DIRECTION('',(0.,1.,0.));
#1330 = DIRECTION('',(0.,0.,1.));
#1331 = ADVANCED_FACE('',(#1332),#1343,.F.);
#1332 = FACE_BOUND('',#1333,.T.);
#1333 = EDGE_LOOP('',(#1334,#1340,#1341,#1342));
#1334 = ORIENTED_EDGE('',*,*,#1335,.F.);
#1335 = EDGE_CURVE('',#1167,#611,#1336,.T.);
#1336 = LINE('',#1337,#1338);
#1337 = CARTESIAN_POINT('',(2.25,59.999803,8.25));
#1338 = VECTOR('',#1339,1.);
#1339 = DIRECTION('',(-6.105211636649E-17,0.,-1.));
#1340 = ORIENTED_EDGE('',*,*,#1176,.T.);
#1341 = ORIENTED_EDGE('',*,*,#1335,.T.);
#1342 = ORIENTED_EDGE('',*,*,#610,.T.);
#1343 = CYLINDRICAL_SURFACE('',#1344,2.25);
#1344 = AXIS2_PLACEMENT_3D('',#1345,#1346,#1347);
#1345 = CARTESIAN_POINT('',(0.,59.999803,8.25));
#1346 = DIRECTION('',(-0.,-0.,-1.));
#1347 = DIRECTION('',(1.,0.,0.));
#1348 = ADVANCED_FACE('',(#1349),#1360,.F.);
#1349 = FACE_BOUND('',#1350,.T.);
#1350 = EDGE_LOOP('',(#1351,#1357,#1358,#1359));
#1351 = ORIENTED_EDGE('',*,*,#1352,.F.);
#1352 = EDGE_CURVE('',#1142,#622,#1353,.T.);
#1353 = LINE('',#1354,#1355);
#1354 = CARTESIAN_POINT('',(-27.750086,59.999934,8.25));
#1355 = VECTOR('',#1356,1.);
#1356 = DIRECTION('',(-6.105211636649E-17,0.,-1.));
#1357 = ORIENTED_EDGE('',*,*,#1151,.T.);
#1358 = ORIENTED_EDGE('',*,*,#1352,.T.);
#1359 = ORIENTED_EDGE('',*,*,#621,.T.);
#1360 = CYLINDRICAL_SURFACE('',#1361,2.25);
#1361 = AXIS2_PLACEMENT_3D('',#1362,#1363,#1364);
#1362 = CARTESIAN_POINT('',(-30.000086,59.999934,8.25));
#1363 = DIRECTION('',(-0.,-0.,-1.));
#1364 = DIRECTION('',(1.,0.,0.));
#1365 = ADVANCED_FACE('',(#1366),#1377,.F.);
#1366 = FACE_BOUND('',#1367,.T.);
#1367 = EDGE_LOOP('',(#1368,#1374,#1375,#1376));
#1368 = ORIENTED_EDGE('',*,*,#1369,.F.);
#1369 = EDGE_CURVE('',#1209,#633,#1370,.T.);
#1370 = LINE('',#1371,#1372);
#1371 = CARTESIAN_POINT('',(32.250015,59.999982,8.25));
#1372 = VECTOR('',#1373,1.);
#1373 = DIRECTION('',(-6.105211636649E-17,0.,-1.));
#1374 = ORIENTED_EDGE('',*,*,#1218,.T.);
#1375 = ORIENTED_EDGE('',*,*,#1369,.T.);
#1376 = ORIENTED_EDGE('',*,*,#632,.T.);
#1377 = CYLINDRICAL_SURFACE('',#1378,2.25);
#1378 = AXIS2_PLACEMENT_3D('',#1379,#1380,#1381);
#1379 = CARTESIAN_POINT('',(30.000015,59.999982,8.25));
#1380 = DIRECTION('',(-0.,-0.,-1.));
#1381 = DIRECTION('',(1.,0.,0.));
#1382 = ADVANCED_FACE('',(#1383),#1386,.F.);
#1383 = FACE_BOUND('',#1384,.T.);
#1384 = EDGE_LOOP('',(#1385));
#1385 = ORIENTED_EDGE('',*,*,#681,.T.);
#1386 = PLANE('',#1387);
#1387 = AXIS2_PLACEMENT_3D('',#1388,#1389,#1390);
#1388 = CARTESIAN_POINT('',(-42.995137,1.333333331635E-06,4.999998));
#1389 = DIRECTION('',(1.,0.,0.));
#1390 = DIRECTION('',(0.,0.,1.));
#1391 = ADVANCED_FACE('',(#1392),#1395,.F.);
#1392 = FACE_BOUND('',#1393,.T.);
#1393 = EDGE_LOOP('',(#1394));
#1394 = ORIENTED_EDGE('',*,*,#706,.T.);
#1395 = PLANE('',#1396);
#1396 = AXIS2_PLACEMENT_3D('',#1397,#1398,#1399);
#1397 = CARTESIAN_POINT('',(-42.995137,1.333333331635E-06,4.999998));
#1398 = DIRECTION('',(1.,0.,0.));
#1399 = DIRECTION('',(0.,0.,1.));
#1400 = ADVANCED_FACE('',(#1401),#1404,.F.);
#1401 = FACE_BOUND('',#1402,.T.);
#1402 = EDGE_LOOP('',(#1403));
#1403 = ORIENTED_EDGE('',*,*,#731,.T.);
#1404 = PLANE('',#1405);
#1405 = AXIS2_PLACEMENT_3D('',#1406,#1407,#1408);
#1406 = CARTESIAN_POINT('',(-42.995137,1.333333331635E-06,4.999998));
#1407 = DIRECTION('',(1.,0.,0.));
#1408 = DIRECTION('',(0.,0.,1.));
#1409 = ADVANCED_FACE('',(#1410,#1413,#1416,#1419,#1422,#1425,#1436,
    #1439),#1442,.T.);
#1410 = FACE_BOUND('',#1411,.T.);
#1411 = EDGE_LOOP('',(#1412));
#1412 = ORIENTED_EDGE('',*,*,#1056,.T.);
#1413 = FACE_BOUND('',#1414,.T.);
#1414 = EDGE_LOOP('',(#1415));
#1415 = ORIENTED_EDGE('',*,*,#773,.F.);
#1416 = FACE_BOUND('',#1417,.T.);
#1417 = EDGE_LOOP('',(#1418));
#1418 = ORIENTED_EDGE('',*,*,#748,.F.);
#1419 = FACE_BOUND('',#1420,.T.);
#1420 = EDGE_LOOP('',(#1421));
#1421 = ORIENTED_EDGE('',*,*,#848,.F.);
#1422 = FACE_BOUND('',#1423,.T.);
#1423 = EDGE_LOOP('',(#1424));
#1424 = ORIENTED_EDGE('',*,*,#948,.F.);
#1425 = FACE_BOUND('',#1426,.T.);
#1426 = EDGE_LOOP('',(#1427));
#1427 = ORIENTED_EDGE('',*,*,#1428,.F.);
#1428 = EDGE_CURVE('',#1429,#1429,#1431,.T.);
#1429 = VERTEX_POINT('',#1430);
#1430 = CARTESIAN_POINT('',(21.,0.,7.));
#1431 = CIRCLE('',#1432,21.);
#1432 = AXIS2_PLACEMENT_3D('',#1433,#1434,#1435);
#1433 = CARTESIAN_POINT('',(0.,0.,7.));
#1434 = DIRECTION('',(0.,0.,1.));
#1435 = DIRECTION('',(1.,0.,0.));
#1436 = FACE_BOUND('',#1437,.T.);
#1437 = EDGE_LOOP('',(#1438));
#1438 = ORIENTED_EDGE('',*,*,#1023,.F.);
#1439 = FACE_BOUND('',#1440,.T.);
#1440 = EDGE_LOOP('',(#1441));
#1441 = ORIENTED_EDGE('',*,*,#973,.F.);
#1442 = PLANE('',#1443);
#1443 = AXIS2_PLACEMENT_3D('',#1444,#1445,#1446);
#1444 = CARTESIAN_POINT('',(-3.596554869145E-15,9.077163071339E-16,7.));
#1445 = DIRECTION('',(0.,0.,1.));
#1446 = DIRECTION('',(1.,0.,0.));
#1447 = ADVANCED_FACE('',(#1448,#1459),#1462,.T.);
#1448 = FACE_BOUND('',#1449,.T.);
#1449 = EDGE_LOOP('',(#1450));
#1450 = ORIENTED_EDGE('',*,*,#1451,.T.);
#1451 = EDGE_CURVE('',#1452,#1452,#1454,.T.);
#1452 = VERTEX_POINT('',#1453);
#1453 = CARTESIAN_POINT('',(8.099299,0.,4.));
#1454 = CIRCLE('',#1455,8.099299);
#1455 = AXIS2_PLACEMENT_3D('',#1456,#1457,#1458);
#1456 = CARTESIAN_POINT('',(0.,0.,4.));
#1457 = DIRECTION('',(0.,0.,1.));
#1458 = DIRECTION('',(1.,0.,0.));
#1459 = FACE_BOUND('',#1460,.T.);
#1460 = EDGE_LOOP('',(#1461));
#1461 = ORIENTED_EDGE('',*,*,#932,.T.);
#1462 = PLANE('',#1463);
#1463 = AXIS2_PLACEMENT_3D('',#1464,#1465,#1466);
#1464 = CARTESIAN_POINT('',(-5.065031427557E-16,3.44711503818E-16,4.));
#1465 = DIRECTION('',(0.,0.,1.));
#1466 = DIRECTION('',(1.,0.,0.));
#1467 = ADVANCED_FACE('',(#1468),#1471,.T.);
#1468 = FACE_BOUND('',#1469,.T.);
#1469 = EDGE_LOOP('',(#1470));
#1470 = ORIENTED_EDGE('',*,*,#1241,.T.);
#1471 = PLANE('',#1472);
#1472 = AXIS2_PLACEMENT_3D('',#1473,#1474,#1475);
#1473 = CARTESIAN_POINT('',(43.005717,-1.333333332187E-06,4.999998333333
    ));
#1474 = DIRECTION('',(1.,0.,0.));
#1475 = DIRECTION('',(0.,0.,1.));
#1476 = ADVANCED_FACE('',(#1477),#1480,.T.);
#1477 = FACE_BOUND('',#1478,.T.);
#1478 = EDGE_LOOP('',(#1479));
#1479 = ORIENTED_EDGE('',*,*,#1266,.T.);
#1480 = PLANE('',#1481);
#1481 = AXIS2_PLACEMENT_3D('',#1482,#1483,#1484);
#1482 = CARTESIAN_POINT('',(43.005717,-1.333333332187E-06,4.999998333333
    ));
#1483 = DIRECTION('',(1.,0.,0.));
#1484 = DIRECTION('',(0.,0.,1.));
#1485 = ADVANCED_FACE('',(#1486),#1489,.T.);
#1486 = FACE_BOUND('',#1487,.T.);
#1487 = EDGE_LOOP('',(#1488));
#1488 = ORIENTED_EDGE('',*,*,#1291,.T.);
#1489 = PLANE('',#1490);
#1490 = AXIS2_PLACEMENT_3D('',#1491,#1492,#1493);
#1491 = CARTESIAN_POINT('',(43.005717,-1.333333332187E-06,4.999998333333
    ));
#1492 = DIRECTION('',(1.,0.,0.));
#1493 = DIRECTION('',(0.,0.,1.));
#1494 = ADVANCED_FACE('',(#1495),#1514,.F.);
#1495 = FACE_BOUND('',#1496,.F.);
#1496 = EDGE_LOOP('',(#1497,#1505,#1512,#1513));
#1497 = ORIENTED_EDGE('',*,*,#1498,.T.);
#1498 = EDGE_CURVE('',#1429,#1499,#1501,.T.);
#1499 = VERTEX_POINT('',#1500);
#1500 = CARTESIAN_POINT('',(21.,0.,5.));
#1501 = LINE('',#1502,#1503);
#1502 = CARTESIAN_POINT('',(21.,0.,7.));
#1503 = VECTOR('',#1504,1.);
#1504 = DIRECTION('',(-0.,-0.,-1.));
#1505 = ORIENTED_EDGE('',*,*,#1506,.T.);
#1506 = EDGE_CURVE('',#1499,#1499,#1507,.T.);
#1507 = CIRCLE('',#1508,21.);
#1508 = AXIS2_PLACEMENT_3D('',#1509,#1510,#1511);
#1509 = CARTESIAN_POINT('',(0.,0.,5.));
#1510 = DIRECTION('',(0.,0.,1.));
#1511 = DIRECTION('',(1.,0.,0.));
#1512 = ORIENTED_EDGE('',*,*,#1498,.F.);
#1513 = ORIENTED_EDGE('',*,*,#1428,.F.);
#1514 = CYLINDRICAL_SURFACE('',#1515,21.);
#1515 = AXIS2_PLACEMENT_3D('',#1516,#1517,#1518);
#1516 = CARTESIAN_POINT('',(0.,0.,7.));
#1517 = DIRECTION('',(0.,0.,1.));
#1518 = DIRECTION('',(1.,0.,0.));
#1519 = ADVANCED_FACE('',(#1520),#1539,.F.);
#1520 = FACE_BOUND('',#1521,.F.);
#1521 = EDGE_LOOP('',(#1522,#1530,#1531,#1532));
#1522 = ORIENTED_EDGE('',*,*,#1523,.T.);
#1523 = EDGE_CURVE('',#1524,#1452,#1526,.T.);
#1524 = VERTEX_POINT('',#1525);
#1525 = CARTESIAN_POINT('',(8.099299,0.,5.));
#1526 = LINE('',#1527,#1528);
#1527 = CARTESIAN_POINT('',(8.099299,0.,5.));
#1528 = VECTOR('',#1529,1.);
#1529 = DIRECTION('',(-0.,-0.,-1.));
#1530 = ORIENTED_EDGE('',*,*,#1451,.T.);
#1531 = ORIENTED_EDGE('',*,*,#1523,.F.);
#1532 = ORIENTED_EDGE('',*,*,#1533,.F.);
#1533 = EDGE_CURVE('',#1524,#1524,#1534,.T.);
#1534 = CIRCLE('',#1535,8.099299);
#1535 = AXIS2_PLACEMENT_3D('',#1536,#1537,#1538);
#1536 = CARTESIAN_POINT('',(0.,0.,5.));
#1537 = DIRECTION('',(0.,0.,1.));
#1538 = DIRECTION('',(1.,0.,0.));
#1539 = CYLINDRICAL_SURFACE('',#1540,8.099299);
#1540 = AXIS2_PLACEMENT_3D('',#1541,#1542,#1543);
#1541 = CARTESIAN_POINT('',(0.,0.,5.));
#1542 = DIRECTION('',(0.,0.,1.));
#1543 = DIRECTION('',(1.,0.,0.));
#1544 = ADVANCED_FACE('',(#1545,#1548),#1551,.T.);
#1545 = FACE_BOUND('',#1546,.T.);
#1546 = EDGE_LOOP('',(#1547));
#1547 = ORIENTED_EDGE('',*,*,#1506,.T.);
#1548 = FACE_BOUND('',#1549,.T.);
#1549 = EDGE_LOOP('',(#1550));
#1550 = ORIENTED_EDGE('',*,*,#1533,.F.);
#1551 = PLANE('',#1552);
#1552 = AXIS2_PLACEMENT_3D('',#1553,#1554,#1555);
#1553 = CARTESIAN_POINT('',(-2.083718297203E-15,1.846063891983E-16,5.));
#1554 = DIRECTION('',(0.,0.,1.));
#1555 = DIRECTION('',(1.,0.,0.));
#1556 = ( GEOMETRIC_REPRESENTATION_CONTEXT(3) 
GLOBAL_UNCERTAINTY_ASSIGNED_CONTEXT((#1560)) 
GLOBAL_UNIT_ASSIGNED_CONTEXT((#1557,#1558,#1559)) REPRESENTATION_CONTEXT
('Context #1','3D Context with UNIT and UNCERTAINTY') );
#1557 = ( LENGTH_UNIT() NAMED_UNIT(*) SI_UNIT(.MILLI.,.METRE.) );
#1558 = ( NAMED_UNIT(*) PLANE_ANGLE_UNIT() SI_UNIT($,.RADIAN.) );
#1559 = ( NAMED_UNIT(*) SI_UNIT($,.STERADIAN.) SOLID_ANGLE_UNIT() );
#1560 = UNCERTAINTY_MEASURE_WITH_UNIT(LENGTH_MEASURE(5.E-06),#1557,
  'distance_accuracy_value','confusion accuracy');
#1561 = PRODUCT_RELATED_PRODUCT_CATEGORY('part',$,(#7));
#1562 = MECHANICAL_DESIGN_GEOMETRIC_PRESENTATION_REPRESENTATION('',(
    #1563),#1556);
#1563 = STYLED_ITEM('color',(#1564),#15);
#1564 = PRESENTATION_STYLE_ASSIGNMENT((#1565,#1571));
#1565 = SURFACE_STYLE_USAGE(.BOTH.,#1566);
#1566 = SURFACE_SIDE_STYLE('',(#1567));
#1567 = SURFACE_STYLE_FILL_AREA(#1568);
#1568 = FILL_AREA_STYLE('',(#1569));
#1569 = FILL_AREA_STYLE_COLOUR('',#1570);
#1570 = COLOUR_RGB('',0.678431390124,0.709803936702,0.741176476869);
#1571 = CURVE_STYLE('',#1572,POSITIVE_LENGTH_MEASURE(0.1),#1573);
#1572 = DRAUGHTING_PRE_DEFINED_CURVE_FONT('continuous');
#1573 = COLOUR_RGB('',9.803921802644E-02,9.803921802644E-02,
  9.803921802644E-02);
ENDSEC;
END-ISO-10303-21;
