ISO-10303-21;
HEADER;
FILE_DESCRIPTION(('FreeCAD Model'),'2;1');
FILE_NAME('Open CASCADE Shape Model','2026-08-25T01:10:52',(''),(''),
  'Open CASCADE STEP processor 7.8','FreeCAD','Unknown');
FILE_SCHEMA(('AUTOMOTIVE_DESIGN { 1 0 10303 214 1 1 1 1 }'));
ENDSEC;
DATA;
#1 = APPLICATION_PROTOCOL_DEFINITION('international standard',
  'automotive_design',2000,#2);
#2 = APPLICATION_CONTEXT(
  'core data for automotive mechanical design processes');
#3 = SHAPE_DEFINITION_REPRESENTATION(#4,#10);
#4 = PRODUCT_DEFINITION_SHAPE('','',#5);
#5 = PRODUCT_DEFINITION('design','',#6,#9);
#6 = PRODUCT_DEFINITION_FORMATION('','',#7);
#7 = PRODUCT('Side plate 2','Side plate 2','',(#8));
#8 = PRODUCT_CONTEXT('',#2,'mechanical');
#9 = PRODUCT_DEFINITION_CONTEXT('part definition',#2,'design');
#10 = ADVANCED_BREP_SHAPE_REPRESENTATION('',(#11,#15),#1147);
#11 = AXIS2_PLACEMENT_3D('',#12,#13,#14);
#12 = CARTESIAN_POINT('',(0.,0.,0.));
#13 = DIRECTION('',(0.,0.,1.));
#14 = DIRECTION('',(1.,0.,-0.));
#15 = MANIFOLD_SOLID_BREP('',#16);
#16 = CLOSED_SHELL('',(#17,#73,#104,#128,#283,#406,#430,#447,#484,#515,
    #532,#549,#574,#599,#624,#649,#674,#699,#724,#749,#774,#791,#808,
    #825,#842,#859,#876,#893,#910,#927,#989,#1020,#1044,#1068,#1092,
    #1116,#1133));
#17 = ADVANCED_FACE('',(#18),#68,.T.);
#18 = FACE_BOUND('',#19,.T.);
#19 = EDGE_LOOP('',(#20,#30,#38,#46,#54,#62));
#20 = ORIENTED_EDGE('',*,*,#21,.F.);
#21 = EDGE_CURVE('',#22,#24,#26,.T.);
#22 = VERTEX_POINT('',#23);
#23 = CARTESIAN_POINT('',(-2.,65.999908,-2.109000000004E-03));
#24 = VERTEX_POINT('',#25);
#25 = CARTESIAN_POINT('',(-4.5,65.999908,-2.109000000003E-03));
#26 = LINE('',#27,#28);
#27 = CARTESIAN_POINT('',(0.,65.999908,-2.109000000004E-03));
#28 = VECTOR('',#29,1.);
#29 = DIRECTION('',(-1.,0.,2.2E-16));
#30 = ORIENTED_EDGE('',*,*,#31,.T.);
#31 = EDGE_CURVE('',#22,#32,#34,.T.);
#32 = VERTEX_POINT('',#33);
#33 = CARTESIAN_POINT('',(-2.,-61.000206,-2.109000000004E-03));
#34 = LINE('',#35,#36);
#35 = CARTESIAN_POINT('',(-2.,-30.57704864818,-2.109000000004E-03));
#36 = VECTOR('',#37,1.);
#37 = DIRECTION('',(0.,-1.,0.));
#38 = ORIENTED_EDGE('',*,*,#39,.T.);
#39 = EDGE_CURVE('',#32,#40,#42,.T.);
#40 = VERTEX_POINT('',#41);
#41 = CARTESIAN_POINT('',(-4.5,-61.000206,-2.109000000004E-03));
#42 = LINE('',#43,#44);
#43 = CARTESIAN_POINT('',(0.,-61.000206,-2.109000000004E-03));
#44 = VECTOR('',#45,1.);
#45 = DIRECTION('',(-1.,0.,2.2E-16));
#46 = ORIENTED_EDGE('',*,*,#47,.F.);
#47 = EDGE_CURVE('',#48,#40,#50,.T.);
#48 = VERTEX_POINT('',#49);
#49 = CARTESIAN_POINT('',(-5.,-60.500206,-2.109000000004E-03));
#50 = LINE('',#51,#52);
#51 = CARTESIAN_POINT('',(-3.5,-62.000206,-2.10899999999E-03));
#52 = VECTOR('',#53,1.);
#53 = DIRECTION('',(0.707106781187,-0.707106781187,-1.6E-16));
#54 = ORIENTED_EDGE('',*,*,#55,.T.);
#55 = EDGE_CURVE('',#48,#56,#58,.T.);
#56 = VERTEX_POINT('',#57);
#57 = CARTESIAN_POINT('',(-5.,65.499908,-2.109000000004E-03));
#58 = LINE('',#59,#60);
#59 = CARTESIAN_POINT('',(-5.,-61.000206,-2.109000000003E-03));
#60 = VECTOR('',#61,1.);
#61 = DIRECTION('',(0.,1.,0.));
#62 = ORIENTED_EDGE('',*,*,#63,.F.);
#63 = EDGE_CURVE('',#24,#56,#64,.T.);
#64 = LINE('',#65,#66);
#65 = CARTESIAN_POINT('',(-35.2500285,35.2498795,-2.108999999997E-03));
#66 = VECTOR('',#67,1.);
#67 = DIRECTION('',(-0.707106781187,-0.707106781187,1.6E-16));
#68 = PLANE('',#69);
#69 = AXIS2_PLACEMENT_3D('',#70,#71,#72);
#70 = CARTESIAN_POINT('',(0.,-61.000206,-2.109000000004E-03));
#71 = DIRECTION('',(-2.2E-16,0.,-1.));
#72 = DIRECTION('',(0.,1.,0.));
#73 = ADVANCED_FACE('',(#74),#99,.T.);
#74 = FACE_BOUND('',#75,.T.);
#75 = EDGE_LOOP('',(#76,#86,#92,#93));
#76 = ORIENTED_EDGE('',*,*,#77,.F.);
#77 = EDGE_CURVE('',#78,#80,#82,.T.);
#78 = VERTEX_POINT('',#79);
#79 = CARTESIAN_POINT('',(-2.,65.999908,124.018199));
#80 = VERTEX_POINT('',#81);
#81 = CARTESIAN_POINT('',(-4.5,65.999908,124.018199));
#82 = LINE('',#83,#84);
#83 = CARTESIAN_POINT('',(-2.754E-14,65.999908,124.018199));
#84 = VECTOR('',#85,1.);
#85 = DIRECTION('',(-1.,0.,2.2E-16));
#86 = ORIENTED_EDGE('',*,*,#87,.T.);
#87 = EDGE_CURVE('',#78,#22,#88,.T.);
#88 = LINE('',#89,#90);
#89 = CARTESIAN_POINT('',(-2.,65.999908,22.946910927949));
#90 = VECTOR('',#91,1.);
#91 = DIRECTION('',(0.,0.,-1.));
#92 = ORIENTED_EDGE('',*,*,#21,.T.);
#93 = ORIENTED_EDGE('',*,*,#94,.T.);
#94 = EDGE_CURVE('',#24,#80,#95,.T.);
#95 = LINE('',#96,#97);
#96 = CARTESIAN_POINT('',(-4.5,65.999908,-2.109000000004E-03));
#97 = VECTOR('',#98,1.);
#98 = DIRECTION('',(-2.2E-16,0.,1.));
#99 = PLANE('',#100);
#100 = AXIS2_PLACEMENT_3D('',#101,#102,#103);
#101 = CARTESIAN_POINT('',(0.,65.999908,-2.109000000004E-03));
#102 = DIRECTION('',(0.,1.,0.));
#103 = DIRECTION('',(-2.2E-16,0.,1.));
#104 = ADVANCED_FACE('',(#105),#123,.F.);
#105 = FACE_BOUND('',#106,.F.);
#106 = EDGE_LOOP('',(#107,#108,#109,#117));
#107 = ORIENTED_EDGE('',*,*,#63,.F.);
#108 = ORIENTED_EDGE('',*,*,#94,.T.);
#109 = ORIENTED_EDGE('',*,*,#110,.T.);
#110 = EDGE_CURVE('',#80,#111,#113,.T.);
#111 = VERTEX_POINT('',#112);
#112 = CARTESIAN_POINT('',(-5.,65.499908,124.018199));
#113 = LINE('',#114,#115);
#114 = CARTESIAN_POINT('',(-3.5,66.999908,124.018199));
#115 = VECTOR('',#116,1.);
#116 = DIRECTION('',(-0.707106781187,-0.707106781187,1.6E-16));
#117 = ORIENTED_EDGE('',*,*,#118,.F.);
#118 = EDGE_CURVE('',#56,#111,#119,.T.);
#119 = LINE('',#120,#121);
#120 = CARTESIAN_POINT('',(-5.,65.499908,-2.109000000004E-03));
#121 = VECTOR('',#122,1.);
#122 = DIRECTION('',(-2.2E-16,0.,1.));
#123 = PLANE('',#124);
#124 = AXIS2_PLACEMENT_3D('',#125,#126,#127);
#125 = CARTESIAN_POINT('',(-4.75,65.749908,-2.109000000004E-03));
#126 = DIRECTION('',(0.707106781187,-0.707106781187,0.));
#127 = DIRECTION('',(-1.1E-16,-1.1E-16,1.));
#128 = ADVANCED_FACE('',(#129,#179,#190,#201,#212,#223,#234,#245,#256,
    #267),#278,.T.);
#129 = FACE_BOUND('',#130,.T.);
#130 = EDGE_LOOP('',(#131,#141,#149,#157,#163,#164,#165,#173));
#131 = ORIENTED_EDGE('',*,*,#132,.F.);
#132 = EDGE_CURVE('',#133,#135,#137,.T.);
#133 = VERTEX_POINT('',#134);
#134 = CARTESIAN_POINT('',(-2.,-50.899868,10.134783));
#135 = VERTEX_POINT('',#136);
#136 = CARTESIAN_POINT('',(-2.,55.897556,10.134783));
#137 = LINE('',#138,#139);
#138 = CARTESIAN_POINT('',(-2.,-50.899868,10.134783));
#139 = VECTOR('',#140,1.);
#140 = DIRECTION('',(0.,1.,0.));
#141 = ORIENTED_EDGE('',*,*,#142,.T.);
#142 = EDGE_CURVE('',#133,#143,#145,.T.);
#143 = VERTEX_POINT('',#144);
#144 = CARTESIAN_POINT('',(-2.,-50.899868,124.018199));
#145 = LINE('',#146,#147);
#146 = CARTESIAN_POINT('',(-2.,-50.899868,10.134783));
#147 = VECTOR('',#148,1.);
#148 = DIRECTION('',(0.,0.,1.));
#149 = ORIENTED_EDGE('',*,*,#150,.F.);
#150 = EDGE_CURVE('',#151,#143,#153,.T.);
#151 = VERTEX_POINT('',#152);
#152 = CARTESIAN_POINT('',(-2.,-61.000206,124.018199));
#153 = LINE('',#154,#155);
#154 = CARTESIAN_POINT('',(-2.,32.923008351816,124.018199));
#155 = VECTOR('',#156,1.);
#156 = DIRECTION('',(0.,1.,0.));
#157 = ORIENTED_EDGE('',*,*,#158,.F.);
#158 = EDGE_CURVE('',#32,#151,#159,.T.);
#159 = LINE('',#160,#161);
#160 = CARTESIAN_POINT('',(-2.,-61.000206,84.957064927949));
#161 = VECTOR('',#162,1.);
#162 = DIRECTION('',(0.,0.,1.));
#163 = ORIENTED_EDGE('',*,*,#31,.F.);
#164 = ORIENTED_EDGE('',*,*,#87,.F.);
#165 = ORIENTED_EDGE('',*,*,#166,.F.);
#166 = EDGE_CURVE('',#167,#78,#169,.T.);
#167 = VERTEX_POINT('',#168);
#168 = CARTESIAN_POINT('',(-2.,55.897556,124.018199));
#169 = LINE('',#170,#171);
#170 = CARTESIAN_POINT('',(-2.,32.923008351816,124.018199));
#171 = VECTOR('',#172,1.);
#172 = DIRECTION('',(0.,1.,0.));
#173 = ORIENTED_EDGE('',*,*,#174,.F.);
#174 = EDGE_CURVE('',#135,#167,#175,.T.);
#175 = LINE('',#176,#177);
#176 = CARTESIAN_POINT('',(-2.,55.897556,10.134783));
#177 = VECTOR('',#178,1.);
#178 = DIRECTION('',(0.,0.,1.));
#179 = FACE_BOUND('',#180,.T.);
#180 = EDGE_LOOP('',(#181));
#181 = ORIENTED_EDGE('',*,*,#182,.F.);
#182 = EDGE_CURVE('',#183,#183,#185,.T.);
#183 = VERTEX_POINT('',#184);
#184 = CARTESIAN_POINT('',(-2.,61.000004,37.249973));
#185 = CIRCLE('',#186,2.25);
#186 = AXIS2_PLACEMENT_3D('',#187,#188,#189);
#187 = CARTESIAN_POINT('',(-2.,61.000004,34.999973));
#188 = DIRECTION('',(1.,0.,-0.));
#189 = DIRECTION('',(0.,0.,1.));
#190 = FACE_BOUND('',#191,.T.);
#191 = EDGE_LOOP('',(#192));
#192 = ORIENTED_EDGE('',*,*,#193,.F.);
#193 = EDGE_CURVE('',#194,#194,#196,.T.);
#194 = VERTEX_POINT('',#195);
#195 = CARTESIAN_POINT('',(-2.,30.000013,7.249959));
#196 = CIRCLE('',#197,2.25);
#197 = AXIS2_PLACEMENT_3D('',#198,#199,#200);
#198 = CARTESIAN_POINT('',(-2.,30.000013,4.999959));
#199 = DIRECTION('',(1.,0.,-0.));
#200 = DIRECTION('',(0.,0.,1.));
#201 = FACE_BOUND('',#202,.T.);
#202 = EDGE_LOOP('',(#203));
#203 = ORIENTED_EDGE('',*,*,#204,.F.);
#204 = EDGE_CURVE('',#205,#205,#207,.T.);
#205 = VERTEX_POINT('',#206);
#206 = CARTESIAN_POINT('',(-2.,61.000015,67.249962));
#207 = CIRCLE('',#208,2.25);
#208 = AXIS2_PLACEMENT_3D('',#209,#210,#211);
#209 = CARTESIAN_POINT('',(-2.,61.000015,64.999962));
#210 = DIRECTION('',(1.,0.,-0.));
#211 = DIRECTION('',(0.,0.,1.));
#212 = FACE_BOUND('',#213,.T.);
#213 = EDGE_LOOP('',(#214));
#214 = ORIENTED_EDGE('',*,*,#215,.F.);
#215 = EDGE_CURVE('',#216,#216,#218,.T.);
#216 = VERTEX_POINT('',#217);
#217 = CARTESIAN_POINT('',(-2.,61.000027,97.25));
#218 = CIRCLE('',#219,2.25);
#219 = AXIS2_PLACEMENT_3D('',#220,#221,#222);
#220 = CARTESIAN_POINT('',(-2.,61.000027,95.));
#221 = DIRECTION('',(1.,0.,-0.));
#222 = DIRECTION('',(0.,0.,1.));
#223 = FACE_BOUND('',#224,.T.);
#224 = EDGE_LOOP('',(#225));
#225 = ORIENTED_EDGE('',*,*,#226,.F.);
#226 = EDGE_CURVE('',#227,#227,#229,.T.);
#227 = VERTEX_POINT('',#228);
#228 = CARTESIAN_POINT('',(-2.,0.,7.249972));
#229 = CIRCLE('',#230,2.25);
#230 = AXIS2_PLACEMENT_3D('',#231,#232,#233);
#231 = CARTESIAN_POINT('',(-2.,0.,4.999972));
#232 = DIRECTION('',(1.,0.,-0.));
#233 = DIRECTION('',(0.,0.,1.));
#234 = FACE_BOUND('',#235,.T.);
#235 = EDGE_LOOP('',(#236));
#236 = ORIENTED_EDGE('',*,*,#237,.F.);
#237 = EDGE_CURVE('',#238,#238,#240,.T.);
#238 = VERTEX_POINT('',#239);
#239 = CARTESIAN_POINT('',(-2.,-29.999798,7.249826));
#240 = CIRCLE('',#241,2.25);
#241 = AXIS2_PLACEMENT_3D('',#242,#243,#244);
#242 = CARTESIAN_POINT('',(-2.,-29.999798,4.999826));
#243 = DIRECTION('',(1.,0.,-0.));
#244 = DIRECTION('',(0.,0.,1.));
#245 = FACE_BOUND('',#246,.T.);
#246 = EDGE_LOOP('',(#247));
#247 = ORIENTED_EDGE('',*,*,#248,.F.);
#248 = EDGE_CURVE('',#249,#249,#251,.T.);
#249 = VERTEX_POINT('',#250);
#250 = CARTESIAN_POINT('',(-2.,-55.999943,37.249931));
#251 = CIRCLE('',#252,2.25);
#252 = AXIS2_PLACEMENT_3D('',#253,#254,#255);
#253 = CARTESIAN_POINT('',(-2.,-55.999943,34.999931));
#254 = DIRECTION('',(1.,0.,-0.));
#255 = DIRECTION('',(0.,0.,1.));
#256 = FACE_BOUND('',#257,.T.);
#257 = EDGE_LOOP('',(#258));
#258 = ORIENTED_EDGE('',*,*,#259,.F.);
#259 = EDGE_CURVE('',#260,#260,#262,.T.);
#260 = VERTEX_POINT('',#261);
#261 = CARTESIAN_POINT('',(-2.,-56.000008,67.249969));
#262 = CIRCLE('',#263,2.25);
#263 = AXIS2_PLACEMENT_3D('',#264,#265,#266);
#264 = CARTESIAN_POINT('',(-2.,-56.000008,64.999969));
#265 = DIRECTION('',(1.,0.,-0.));
#266 = DIRECTION('',(0.,0.,1.));
#267 = FACE_BOUND('',#268,.T.);
#268 = EDGE_LOOP('',(#269));
#269 = ORIENTED_EDGE('',*,*,#270,.F.);
#270 = EDGE_CURVE('',#271,#271,#273,.T.);
#271 = VERTEX_POINT('',#272);
#272 = CARTESIAN_POINT('',(-2.,-55.999874,97.249763));
#273 = CIRCLE('',#274,2.25);
#274 = AXIS2_PLACEMENT_3D('',#275,#276,#277);
#275 = CARTESIAN_POINT('',(-2.,-55.999874,94.999763));
#276 = DIRECTION('',(1.,0.,-0.));
#277 = DIRECTION('',(0.,0.,1.));
#278 = PLANE('',#279);
#279 = AXIS2_PLACEMENT_3D('',#280,#281,#282);
#280 = CARTESIAN_POINT('',(-2.,-0.153891296368,45.895930855898));
#281 = DIRECTION('',(1.,0.,0.));
#282 = DIRECTION('',(0.,0.,1.));
#283 = ADVANCED_FACE('',(#284,#302,#313,#324,#335,#346,#357,#368,#379,
    #390),#401,.F.);
#284 = FACE_BOUND('',#285,.F.);
#285 = EDGE_LOOP('',(#286,#287,#288,#296));
#286 = ORIENTED_EDGE('',*,*,#55,.T.);
#287 = ORIENTED_EDGE('',*,*,#118,.T.);
#288 = ORIENTED_EDGE('',*,*,#289,.T.);
#289 = EDGE_CURVE('',#111,#290,#292,.T.);
#290 = VERTEX_POINT('',#291);
#291 = CARTESIAN_POINT('',(-5.,-60.500206,124.018199));
#292 = LINE('',#293,#294);
#293 = CARTESIAN_POINT('',(-5.,65.999908,124.018199));
#294 = VECTOR('',#295,1.);
#295 = DIRECTION('',(0.,-1.,0.));
#296 = ORIENTED_EDGE('',*,*,#297,.T.);
#297 = EDGE_CURVE('',#290,#48,#298,.T.);
#298 = LINE('',#299,#300);
#299 = CARTESIAN_POINT('',(-5.,-60.500206,124.018199));
#300 = VECTOR('',#301,1.);
#301 = DIRECTION('',(2.2E-16,0.,-1.));
#302 = FACE_BOUND('',#303,.F.);
#303 = EDGE_LOOP('',(#304));
#304 = ORIENTED_EDGE('',*,*,#305,.T.);
#305 = EDGE_CURVE('',#306,#306,#308,.T.);
#306 = VERTEX_POINT('',#307);
#307 = CARTESIAN_POINT('',(-5.,61.000004,38.999973));
#308 = CIRCLE('',#309,4.);
#309 = AXIS2_PLACEMENT_3D('',#310,#311,#312);
#310 = CARTESIAN_POINT('',(-5.,61.000004,34.999973));
#311 = DIRECTION('',(-1.,0.,0.));
#312 = DIRECTION('',(0.,0.,1.));
#313 = FACE_BOUND('',#314,.F.);
#314 = EDGE_LOOP('',(#315));
#315 = ORIENTED_EDGE('',*,*,#316,.T.);
#316 = EDGE_CURVE('',#317,#317,#319,.T.);
#317 = VERTEX_POINT('',#318);
#318 = CARTESIAN_POINT('',(-5.,30.000013,8.999959));
#319 = CIRCLE('',#320,4.);
#320 = AXIS2_PLACEMENT_3D('',#321,#322,#323);
#321 = CARTESIAN_POINT('',(-5.,30.000013,4.999959));
#322 = DIRECTION('',(-1.,0.,0.));
#323 = DIRECTION('',(0.,0.,1.));
#324 = FACE_BOUND('',#325,.F.);
#325 = EDGE_LOOP('',(#326));
#326 = ORIENTED_EDGE('',*,*,#327,.T.);
#327 = EDGE_CURVE('',#328,#328,#330,.T.);
#328 = VERTEX_POINT('',#329);
#329 = CARTESIAN_POINT('',(-5.,61.000015,68.999962));
#330 = CIRCLE('',#331,4.);
#331 = AXIS2_PLACEMENT_3D('',#332,#333,#334);
#332 = CARTESIAN_POINT('',(-5.,61.000015,64.999962));
#333 = DIRECTION('',(-1.,0.,0.));
#334 = DIRECTION('',(0.,0.,1.));
#335 = FACE_BOUND('',#336,.F.);
#336 = EDGE_LOOP('',(#337));
#337 = ORIENTED_EDGE('',*,*,#338,.T.);
#338 = EDGE_CURVE('',#339,#339,#341,.T.);
#339 = VERTEX_POINT('',#340);
#340 = CARTESIAN_POINT('',(-5.,61.000027,99.));
#341 = CIRCLE('',#342,4.);
#342 = AXIS2_PLACEMENT_3D('',#343,#344,#345);
#343 = CARTESIAN_POINT('',(-5.,61.000027,95.));
#344 = DIRECTION('',(-1.,0.,0.));
#345 = DIRECTION('',(0.,0.,1.));
#346 = FACE_BOUND('',#347,.F.);
#347 = EDGE_LOOP('',(#348));
#348 = ORIENTED_EDGE('',*,*,#349,.T.);
#349 = EDGE_CURVE('',#350,#350,#352,.T.);
#350 = VERTEX_POINT('',#351);
#351 = CARTESIAN_POINT('',(-5.,0.,8.999972));
#352 = CIRCLE('',#353,4.);
#353 = AXIS2_PLACEMENT_3D('',#354,#355,#356);
#354 = CARTESIAN_POINT('',(-5.,0.,4.999972));
#355 = DIRECTION('',(-1.,0.,0.));
#356 = DIRECTION('',(0.,0.,1.));
#357 = FACE_BOUND('',#358,.F.);
#358 = EDGE_LOOP('',(#359));
#359 = ORIENTED_EDGE('',*,*,#360,.T.);
#360 = EDGE_CURVE('',#361,#361,#363,.T.);
#361 = VERTEX_POINT('',#362);
#362 = CARTESIAN_POINT('',(-5.,-29.999798,8.999826));
#363 = CIRCLE('',#364,4.);
#364 = AXIS2_PLACEMENT_3D('',#365,#366,#367);
#365 = CARTESIAN_POINT('',(-5.,-29.999798,4.999826));
#366 = DIRECTION('',(-1.,0.,0.));
#367 = DIRECTION('',(0.,0.,1.));
#368 = FACE_BOUND('',#369,.F.);
#369 = EDGE_LOOP('',(#370));
#370 = ORIENTED_EDGE('',*,*,#371,.T.);
#371 = EDGE_CURVE('',#372,#372,#374,.T.);
#372 = VERTEX_POINT('',#373);
#373 = CARTESIAN_POINT('',(-5.,-55.999943,38.999931));
#374 = CIRCLE('',#375,4.);
#375 = AXIS2_PLACEMENT_3D('',#376,#377,#378);
#376 = CARTESIAN_POINT('',(-5.,-55.999943,34.999931));
#377 = DIRECTION('',(-1.,0.,0.));
#378 = DIRECTION('',(0.,0.,1.));
#379 = FACE_BOUND('',#380,.F.);
#380 = EDGE_LOOP('',(#381));
#381 = ORIENTED_EDGE('',*,*,#382,.T.);
#382 = EDGE_CURVE('',#383,#383,#385,.T.);
#383 = VERTEX_POINT('',#384);
#384 = CARTESIAN_POINT('',(-5.,-56.000008,68.999969));
#385 = CIRCLE('',#386,4.);
#386 = AXIS2_PLACEMENT_3D('',#387,#388,#389);
#387 = CARTESIAN_POINT('',(-5.,-56.000008,64.999969));
#388 = DIRECTION('',(-1.,0.,0.));
#389 = DIRECTION('',(0.,0.,1.));
#390 = FACE_BOUND('',#391,.F.);
#391 = EDGE_LOOP('',(#392));
#392 = ORIENTED_EDGE('',*,*,#393,.T.);
#393 = EDGE_CURVE('',#394,#394,#396,.T.);
#394 = VERTEX_POINT('',#395);
#395 = CARTESIAN_POINT('',(-5.,-55.999874,98.999763));
#396 = CIRCLE('',#397,4.);
#397 = AXIS2_PLACEMENT_3D('',#398,#399,#400);
#398 = CARTESIAN_POINT('',(-5.,-55.999874,94.999763));
#399 = DIRECTION('',(-1.,0.,0.));
#400 = DIRECTION('',(0.,0.,1.));
#401 = PLANE('',#402);
#402 = AXIS2_PLACEMENT_3D('',#403,#404,#405);
#403 = CARTESIAN_POINT('',(-5.,2.499851,62.008045));
#404 = DIRECTION('',(1.,0.,0.));
#405 = DIRECTION('',(0.,0.,1.));
#406 = ADVANCED_FACE('',(#407),#425,.T.);
#407 = FACE_BOUND('',#408,.T.);
#408 = EDGE_LOOP('',(#409,#410,#411,#419));
#409 = ORIENTED_EDGE('',*,*,#39,.F.);
#410 = ORIENTED_EDGE('',*,*,#158,.T.);
#411 = ORIENTED_EDGE('',*,*,#412,.T.);
#412 = EDGE_CURVE('',#151,#413,#415,.T.);
#413 = VERTEX_POINT('',#414);
#414 = CARTESIAN_POINT('',(-4.5,-61.000206,124.018199));
#415 = LINE('',#416,#417);
#416 = CARTESIAN_POINT('',(-2.754E-14,-61.000206,124.018199));
#417 = VECTOR('',#418,1.);
#418 = DIRECTION('',(-1.,0.,2.2E-16));
#419 = ORIENTED_EDGE('',*,*,#420,.T.);
#420 = EDGE_CURVE('',#413,#40,#421,.T.);
#421 = LINE('',#422,#423);
#422 = CARTESIAN_POINT('',(-4.5,-61.000206,124.018199));
#423 = VECTOR('',#424,1.);
#424 = DIRECTION('',(2.2E-16,0.,-1.));
#425 = PLANE('',#426);
#426 = AXIS2_PLACEMENT_3D('',#427,#428,#429);
#427 = CARTESIAN_POINT('',(-2.754E-14,-61.000206,124.018199));
#428 = DIRECTION('',(-0.,-1.,-0.));
#429 = DIRECTION('',(2.2E-16,0.,-1.));
#430 = ADVANCED_FACE('',(#431),#442,.F.);
#431 = FACE_BOUND('',#432,.T.);
#432 = EDGE_LOOP('',(#433,#439,#440,#441));
#433 = ORIENTED_EDGE('',*,*,#434,.F.);
#434 = EDGE_CURVE('',#290,#413,#435,.T.);
#435 = LINE('',#436,#437);
#436 = CARTESIAN_POINT('',(-35.2500285,-30.2501775,124.018199));
#437 = VECTOR('',#438,1.);
#438 = DIRECTION('',(0.707106781187,-0.707106781187,-1.6E-16));
#439 = ORIENTED_EDGE('',*,*,#297,.T.);
#440 = ORIENTED_EDGE('',*,*,#47,.T.);
#441 = ORIENTED_EDGE('',*,*,#420,.F.);
#442 = PLANE('',#443);
#443 = AXIS2_PLACEMENT_3D('',#444,#445,#446);
#444 = CARTESIAN_POINT('',(-4.75,-60.750206,124.018199));
#445 = DIRECTION('',(0.707106781187,0.707106781187,0.));
#446 = DIRECTION('',(-1.1E-16,1.1E-16,1.));
#447 = ADVANCED_FACE('',(#448),#479,.T.);
#448 = FACE_BOUND('',#449,.T.);
#449 = EDGE_LOOP('',(#450,#451,#452,#460,#468,#474,#475,#476,#477,#478)
  );
#450 = ORIENTED_EDGE('',*,*,#412,.F.);
#451 = ORIENTED_EDGE('',*,*,#150,.T.);
#452 = ORIENTED_EDGE('',*,*,#453,.F.);
#453 = EDGE_CURVE('',#454,#143,#456,.T.);
#454 = VERTEX_POINT('',#455);
#455 = CARTESIAN_POINT('',(-2.1E-14,-50.899868,124.018199));
#456 = LINE('',#457,#458);
#457 = CARTESIAN_POINT('',(-8.01E-15,-50.899868,124.018199));
#458 = VECTOR('',#459,1.);
#459 = DIRECTION('',(-1.,0.,2.2E-16));
#460 = ORIENTED_EDGE('',*,*,#461,.F.);
#461 = EDGE_CURVE('',#462,#454,#464,.T.);
#462 = VERTEX_POINT('',#463);
#463 = CARTESIAN_POINT('',(-2.1E-14,55.897556,124.018199));
#464 = LINE('',#465,#466);
#465 = CARTESIAN_POINT('',(0.,65.999908,124.018199));
#466 = VECTOR('',#467,1.);
#467 = DIRECTION('',(0.,-1.,0.));
#468 = ORIENTED_EDGE('',*,*,#469,.T.);
#469 = EDGE_CURVE('',#462,#167,#470,.T.);
#470 = LINE('',#471,#472);
#471 = CARTESIAN_POINT('',(-8.01E-15,55.897556,124.018199));
#472 = VECTOR('',#473,1.);
#473 = DIRECTION('',(-1.,0.,2.2E-16));
#474 = ORIENTED_EDGE('',*,*,#166,.T.);
#475 = ORIENTED_EDGE('',*,*,#77,.T.);
#476 = ORIENTED_EDGE('',*,*,#110,.T.);
#477 = ORIENTED_EDGE('',*,*,#289,.T.);
#478 = ORIENTED_EDGE('',*,*,#434,.T.);
#479 = PLANE('',#480);
#480 = AXIS2_PLACEMENT_3D('',#481,#482,#483);
#481 = CARTESIAN_POINT('',(-2.754E-14,65.999908,124.018199));
#482 = DIRECTION('',(2.2E-16,0.,1.));
#483 = DIRECTION('',(0.,-1.,0.));
#484 = ADVANCED_FACE('',(#485),#510,.T.);
#485 = FACE_BOUND('',#486,.T.);
#486 = EDGE_LOOP('',(#487,#495,#496,#504));
#487 = ORIENTED_EDGE('',*,*,#488,.T.);
#488 = EDGE_CURVE('',#489,#133,#491,.T.);
#489 = VERTEX_POINT('',#490);
#490 = CARTESIAN_POINT('',(-1.4E-14,-50.899868,10.134783));
#491 = LINE('',#492,#493);
#492 = CARTESIAN_POINT('',(-1.377E-14,-50.899868,10.134783));
#493 = VECTOR('',#494,1.);
#494 = DIRECTION('',(-1.,-0.,-0.));
#495 = ORIENTED_EDGE('',*,*,#132,.T.);
#496 = ORIENTED_EDGE('',*,*,#497,.F.);
#497 = EDGE_CURVE('',#498,#135,#500,.T.);
#498 = VERTEX_POINT('',#499);
#499 = CARTESIAN_POINT('',(-1.4E-14,55.897556,10.134783));
#500 = LINE('',#501,#502);
#501 = CARTESIAN_POINT('',(-1.377E-14,55.897556,10.134783));
#502 = VECTOR('',#503,1.);
#503 = DIRECTION('',(-1.,-0.,-0.));
#504 = ORIENTED_EDGE('',*,*,#505,.F.);
#505 = EDGE_CURVE('',#489,#498,#506,.T.);
#506 = LINE('',#507,#508);
#507 = CARTESIAN_POINT('',(-1.4E-14,-50.899868,10.134783));
#508 = VECTOR('',#509,1.);
#509 = DIRECTION('',(0.,1.,0.));
#510 = PLANE('',#511);
#511 = AXIS2_PLACEMENT_3D('',#512,#513,#514);
#512 = CARTESIAN_POINT('',(-1.377E-14,-50.899868,10.134783));
#513 = DIRECTION('',(0.,0.,-1.));
#514 = DIRECTION('',(0.,1.,0.));
#515 = ADVANCED_FACE('',(#516),#527,.F.);
#516 = FACE_BOUND('',#517,.F.);
#517 = EDGE_LOOP('',(#518,#524,#525,#526));
#518 = ORIENTED_EDGE('',*,*,#519,.F.);
#519 = EDGE_CURVE('',#489,#454,#520,.T.);
#520 = LINE('',#521,#522);
#521 = CARTESIAN_POINT('',(-1.4E-14,-50.899868,10.134783));
#522 = VECTOR('',#523,1.);
#523 = DIRECTION('',(0.,0.,1.));
#524 = ORIENTED_EDGE('',*,*,#488,.T.);
#525 = ORIENTED_EDGE('',*,*,#142,.T.);
#526 = ORIENTED_EDGE('',*,*,#453,.F.);
#527 = PLANE('',#528);
#528 = AXIS2_PLACEMENT_3D('',#529,#530,#531);
#529 = CARTESIAN_POINT('',(-1.377E-14,-50.899868,10.134783));
#530 = DIRECTION('',(0.,1.,0.));
#531 = DIRECTION('',(0.,0.,1.));
#532 = ADVANCED_FACE('',(#533),#544,.T.);
#533 = FACE_BOUND('',#534,.T.);
#534 = EDGE_LOOP('',(#535,#541,#542,#543));
#535 = ORIENTED_EDGE('',*,*,#536,.F.);
#536 = EDGE_CURVE('',#498,#462,#537,.T.);
#537 = LINE('',#538,#539);
#538 = CARTESIAN_POINT('',(-1.4E-14,55.897556,10.134783));
#539 = VECTOR('',#540,1.);
#540 = DIRECTION('',(0.,0.,1.));
#541 = ORIENTED_EDGE('',*,*,#497,.T.);
#542 = ORIENTED_EDGE('',*,*,#174,.T.);
#543 = ORIENTED_EDGE('',*,*,#469,.F.);
#544 = PLANE('',#545);
#545 = AXIS2_PLACEMENT_3D('',#546,#547,#548);
#546 = CARTESIAN_POINT('',(-1.377E-14,55.897556,10.134783));
#547 = DIRECTION('',(0.,1.,0.));
#548 = DIRECTION('',(0.,0.,1.));
#549 = ADVANCED_FACE('',(#550),#569,.F.);
#550 = FACE_BOUND('',#551,.T.);
#551 = EDGE_LOOP('',(#552,#560,#567,#568));
#552 = ORIENTED_EDGE('',*,*,#553,.F.);
#553 = EDGE_CURVE('',#554,#183,#556,.T.);
#554 = VERTEX_POINT('',#555);
#555 = CARTESIAN_POINT('',(-3.25,61.000004,37.249973));
#556 = LINE('',#557,#558);
#557 = CARTESIAN_POINT('',(-3.25,61.000004,37.249973));
#558 = VECTOR('',#559,1.);
#559 = DIRECTION('',(1.,0.,-6.E-17));
#560 = ORIENTED_EDGE('',*,*,#561,.T.);
#561 = EDGE_CURVE('',#554,#554,#562,.T.);
#562 = CIRCLE('',#563,2.25);
#563 = AXIS2_PLACEMENT_3D('',#564,#565,#566);
#564 = CARTESIAN_POINT('',(-3.25,61.000004,34.999973));
#565 = DIRECTION('',(-1.,0.,0.));
#566 = DIRECTION('',(0.,0.,1.));
#567 = ORIENTED_EDGE('',*,*,#553,.T.);
#568 = ORIENTED_EDGE('',*,*,#182,.T.);
#569 = CYLINDRICAL_SURFACE('',#570,2.25);
#570 = AXIS2_PLACEMENT_3D('',#571,#572,#573);
#571 = CARTESIAN_POINT('',(-3.25,61.000004,34.999973));
#572 = DIRECTION('',(1.,0.,0.));
#573 = DIRECTION('',(0.,0.,1.));
#574 = ADVANCED_FACE('',(#575),#594,.F.);
#575 = FACE_BOUND('',#576,.T.);
#576 = EDGE_LOOP('',(#577,#585,#592,#593));
#577 = ORIENTED_EDGE('',*,*,#578,.F.);
#578 = EDGE_CURVE('',#579,#194,#581,.T.);
#579 = VERTEX_POINT('',#580);
#580 = CARTESIAN_POINT('',(-3.25,30.000013,7.249959));
#581 = LINE('',#582,#583);
#582 = CARTESIAN_POINT('',(-3.25,30.000013,7.249959));
#583 = VECTOR('',#584,1.);
#584 = DIRECTION('',(1.,0.,-6.E-17));
#585 = ORIENTED_EDGE('',*,*,#586,.T.);
#586 = EDGE_CURVE('',#579,#579,#587,.T.);
#587 = CIRCLE('',#588,2.25);
#588 = AXIS2_PLACEMENT_3D('',#589,#590,#591);
#589 = CARTESIAN_POINT('',(-3.25,30.000013,4.999959));
#590 = DIRECTION('',(-1.,0.,0.));
#591 = DIRECTION('',(0.,0.,1.));
#592 = ORIENTED_EDGE('',*,*,#578,.T.);
#593 = ORIENTED_EDGE('',*,*,#193,.T.);
#594 = CYLINDRICAL_SURFACE('',#595,2.25);
#595 = AXIS2_PLACEMENT_3D('',#596,#597,#598);
#596 = CARTESIAN_POINT('',(-3.25,30.000013,4.999959));
#597 = DIRECTION('',(1.,0.,0.));
#598 = DIRECTION('',(0.,0.,1.));
#599 = ADVANCED_FACE('',(#600),#619,.F.);
#600 = FACE_BOUND('',#601,.T.);
#601 = EDGE_LOOP('',(#602,#610,#617,#618));
#602 = ORIENTED_EDGE('',*,*,#603,.F.);
#603 = EDGE_CURVE('',#604,#205,#606,.T.);
#604 = VERTEX_POINT('',#605);
#605 = CARTESIAN_POINT('',(-3.25,61.000015,67.249962));
#606 = LINE('',#607,#608);
#607 = CARTESIAN_POINT('',(-3.25,61.000015,67.249962));
#608 = VECTOR('',#609,1.);
#609 = DIRECTION('',(1.,0.,-6.E-17));
#610 = ORIENTED_EDGE('',*,*,#611,.T.);
#611 = EDGE_CURVE('',#604,#604,#612,.T.);
#612 = CIRCLE('',#613,2.25);
#613 = AXIS2_PLACEMENT_3D('',#614,#615,#616);
#614 = CARTESIAN_POINT('',(-3.25,61.000015,64.999962));
#615 = DIRECTION('',(-1.,0.,0.));
#616 = DIRECTION('',(0.,0.,1.));
#617 = ORIENTED_EDGE('',*,*,#603,.T.);
#618 = ORIENTED_EDGE('',*,*,#204,.T.);
#619 = CYLINDRICAL_SURFACE('',#620,2.25);
#620 = AXIS2_PLACEMENT_3D('',#621,#622,#623);
#621 = CARTESIAN_POINT('',(-3.25,61.000015,64.999962));
#622 = DIRECTION('',(1.,0.,0.));
#623 = DIRECTION('',(0.,0.,1.));
#624 = ADVANCED_FACE('',(#625),#644,.F.);
#625 = FACE_BOUND('',#626,.T.);
#626 = EDGE_LOOP('',(#627,#635,#642,#643));
#627 = ORIENTED_EDGE('',*,*,#628,.F.);
#628 = EDGE_CURVE('',#629,#216,#631,.T.);
#629 = VERTEX_POINT('',#630);
#630 = CARTESIAN_POINT('',(-3.25,61.000027,97.25));
#631 = LINE('',#632,#633);
#632 = CARTESIAN_POINT('',(-3.25,61.000027,97.25));
#633 = VECTOR('',#634,1.);
#634 = DIRECTION('',(1.,0.,-6.E-17));
#635 = ORIENTED_EDGE('',*,*,#636,.T.);
#636 = EDGE_CURVE('',#629,#629,#637,.T.);
#637 = CIRCLE('',#638,2.25);
#638 = AXIS2_PLACEMENT_3D('',#639,#640,#641);
#639 = CARTESIAN_POINT('',(-3.25,61.000027,95.));
#640 = DIRECTION('',(-1.,0.,0.));
#641 = DIRECTION('',(0.,0.,1.));
#642 = ORIENTED_EDGE('',*,*,#628,.T.);
#643 = ORIENTED_EDGE('',*,*,#215,.T.);
#644 = CYLINDRICAL_SURFACE('',#645,2.25);
#645 = AXIS2_PLACEMENT_3D('',#646,#647,#648);
#646 = CARTESIAN_POINT('',(-3.25,61.000027,95.));
#647 = DIRECTION('',(1.,0.,0.));
#648 = DIRECTION('',(0.,0.,1.));
#649 = ADVANCED_FACE('',(#650),#669,.F.);
#650 = FACE_BOUND('',#651,.T.);
#651 = EDGE_LOOP('',(#652,#660,#667,#668));
#652 = ORIENTED_EDGE('',*,*,#653,.F.);
#653 = EDGE_CURVE('',#654,#227,#656,.T.);
#654 = VERTEX_POINT('',#655);
#655 = CARTESIAN_POINT('',(-3.25,0.,7.249972));
#656 = LINE('',#657,#658);
#657 = CARTESIAN_POINT('',(-3.25,0.,7.249972));
#658 = VECTOR('',#659,1.);
#659 = DIRECTION('',(1.,0.,-6.E-17));
#660 = ORIENTED_EDGE('',*,*,#661,.T.);
#661 = EDGE_CURVE('',#654,#654,#662,.T.);
#662 = CIRCLE('',#663,2.25);
#663 = AXIS2_PLACEMENT_3D('',#664,#665,#666);
#664 = CARTESIAN_POINT('',(-3.25,0.,4.999972));
#665 = DIRECTION('',(-1.,0.,0.));
#666 = DIRECTION('',(0.,0.,1.));
#667 = ORIENTED_EDGE('',*,*,#653,.T.);
#668 = ORIENTED_EDGE('',*,*,#226,.T.);
#669 = CYLINDRICAL_SURFACE('',#670,2.25);
#670 = AXIS2_PLACEMENT_3D('',#671,#672,#673);
#671 = CARTESIAN_POINT('',(-3.25,0.,4.999972));
#672 = DIRECTION('',(1.,0.,0.));
#673 = DIRECTION('',(0.,0.,1.));
#674 = ADVANCED_FACE('',(#675),#694,.F.);
#675 = FACE_BOUND('',#676,.T.);
#676 = EDGE_LOOP('',(#677,#685,#692,#693));
#677 = ORIENTED_EDGE('',*,*,#678,.F.);
#678 = EDGE_CURVE('',#679,#238,#681,.T.);
#679 = VERTEX_POINT('',#680);
#680 = CARTESIAN_POINT('',(-3.25,-29.999798,7.249826));
#681 = LINE('',#682,#683);
#682 = CARTESIAN_POINT('',(-3.25,-29.999798,7.249826));
#683 = VECTOR('',#684,1.);
#684 = DIRECTION('',(1.,0.,-6.E-17));
#685 = ORIENTED_EDGE('',*,*,#686,.T.);
#686 = EDGE_CURVE('',#679,#679,#687,.T.);
#687 = CIRCLE('',#688,2.25);
#688 = AXIS2_PLACEMENT_3D('',#689,#690,#691);
#689 = CARTESIAN_POINT('',(-3.25,-29.999798,4.999826));
#690 = DIRECTION('',(-1.,0.,0.));
#691 = DIRECTION('',(0.,0.,1.));
#692 = ORIENTED_EDGE('',*,*,#678,.T.);
#693 = ORIENTED_EDGE('',*,*,#237,.T.);
#694 = CYLINDRICAL_SURFACE('',#695,2.25);
#695 = AXIS2_PLACEMENT_3D('',#696,#697,#698);
#696 = CARTESIAN_POINT('',(-3.25,-29.999798,4.999826));
#697 = DIRECTION('',(1.,0.,0.));
#698 = DIRECTION('',(0.,0.,1.));
#699 = ADVANCED_FACE('',(#700),#719,.F.);
#700 = FACE_BOUND('',#701,.T.);
#701 = EDGE_LOOP('',(#702,#710,#717,#718));
#702 = ORIENTED_EDGE('',*,*,#703,.F.);
#703 = EDGE_CURVE('',#704,#249,#706,.T.);
#704 = VERTEX_POINT('',#705);
#705 = CARTESIAN_POINT('',(-3.25,-55.999943,37.249931));
#706 = LINE('',#707,#708);
#707 = CARTESIAN_POINT('',(-3.25,-55.999943,37.249931));
#708 = VECTOR('',#709,1.);
#709 = DIRECTION('',(1.,0.,-6.E-17));
#710 = ORIENTED_EDGE('',*,*,#711,.T.);
#711 = EDGE_CURVE('',#704,#704,#712,.T.);
#712 = CIRCLE('',#713,2.25);
#713 = AXIS2_PLACEMENT_3D('',#714,#715,#716);
#714 = CARTESIAN_POINT('',(-3.25,-55.999943,34.999931));
#715 = DIRECTION('',(-1.,0.,0.));
#716 = DIRECTION('',(0.,0.,1.));
#717 = ORIENTED_EDGE('',*,*,#703,.T.);
#718 = ORIENTED_EDGE('',*,*,#248,.T.);
#719 = CYLINDRICAL_SURFACE('',#720,2.25);
#720 = AXIS2_PLACEMENT_3D('',#721,#722,#723);
#721 = CARTESIAN_POINT('',(-3.25,-55.999943,34.999931));
#722 = DIRECTION('',(1.,0.,0.));
#723 = DIRECTION('',(0.,0.,1.));
#724 = ADVANCED_FACE('',(#725),#744,.F.);
#725 = FACE_BOUND('',#726,.T.);
#726 = EDGE_LOOP('',(#727,#735,#742,#743));
#727 = ORIENTED_EDGE('',*,*,#728,.F.);
#728 = EDGE_CURVE('',#729,#260,#731,.T.);
#729 = VERTEX_POINT('',#730);
#730 = CARTESIAN_POINT('',(-3.25,-56.000008,67.249969));
#731 = LINE('',#732,#733);
#732 = CARTESIAN_POINT('',(-3.25,-56.000008,67.249969));
#733 = VECTOR('',#734,1.);
#734 = DIRECTION('',(1.,0.,-6.E-17));
#735 = ORIENTED_EDGE('',*,*,#736,.T.);
#736 = EDGE_CURVE('',#729,#729,#737,.T.);
#737 = CIRCLE('',#738,2.25);
#738 = AXIS2_PLACEMENT_3D('',#739,#740,#741);
#739 = CARTESIAN_POINT('',(-3.25,-56.000008,64.999969));
#740 = DIRECTION('',(-1.,0.,0.));
#741 = DIRECTION('',(0.,0.,1.));
#742 = ORIENTED_EDGE('',*,*,#728,.T.);
#743 = ORIENTED_EDGE('',*,*,#259,.T.);
#744 = CYLINDRICAL_SURFACE('',#745,2.25);
#745 = AXIS2_PLACEMENT_3D('',#746,#747,#748);
#746 = CARTESIAN_POINT('',(-3.25,-56.000008,64.999969));
#747 = DIRECTION('',(1.,0.,0.));
#748 = DIRECTION('',(0.,0.,1.));
#749 = ADVANCED_FACE('',(#750),#769,.F.);
#750 = FACE_BOUND('',#751,.T.);
#751 = EDGE_LOOP('',(#752,#760,#767,#768));
#752 = ORIENTED_EDGE('',*,*,#753,.F.);
#753 = EDGE_CURVE('',#754,#271,#756,.T.);
#754 = VERTEX_POINT('',#755);
#755 = CARTESIAN_POINT('',(-3.25,-55.999874,97.249763));
#756 = LINE('',#757,#758);
#757 = CARTESIAN_POINT('',(-3.25,-55.999874,97.249763));
#758 = VECTOR('',#759,1.);
#759 = DIRECTION('',(1.,0.,-6.E-17));
#760 = ORIENTED_EDGE('',*,*,#761,.T.);
#761 = EDGE_CURVE('',#754,#754,#762,.T.);
#762 = CIRCLE('',#763,2.25);
#763 = AXIS2_PLACEMENT_3D('',#764,#765,#766);
#764 = CARTESIAN_POINT('',(-3.25,-55.999874,94.999763));
#765 = DIRECTION('',(-1.,0.,0.));
#766 = DIRECTION('',(0.,0.,1.));
#767 = ORIENTED_EDGE('',*,*,#753,.T.);
#768 = ORIENTED_EDGE('',*,*,#270,.T.);
#769 = CYLINDRICAL_SURFACE('',#770,2.25);
#770 = AXIS2_PLACEMENT_3D('',#771,#772,#773);
#771 = CARTESIAN_POINT('',(-3.25,-55.999874,94.999763));
#772 = DIRECTION('',(1.,0.,0.));
#773 = DIRECTION('',(0.,0.,1.));
#774 = ADVANCED_FACE('',(#775),#786,.F.);
#775 = FACE_BOUND('',#776,.T.);
#776 = EDGE_LOOP('',(#777,#783,#784,#785));
#777 = ORIENTED_EDGE('',*,*,#778,.F.);
#778 = EDGE_CURVE('',#306,#554,#779,.T.);
#779 = LINE('',#780,#781);
#780 = CARTESIAN_POINT('',(-5.,61.000004,38.999973));
#781 = VECTOR('',#782,1.);
#782 = DIRECTION('',(0.707106781187,0.,-0.707106781187));
#783 = ORIENTED_EDGE('',*,*,#305,.T.);
#784 = ORIENTED_EDGE('',*,*,#778,.T.);
#785 = ORIENTED_EDGE('',*,*,#561,.F.);
#786 = CONICAL_SURFACE('',#787,4.,0.785398163397);
#787 = AXIS2_PLACEMENT_3D('',#788,#789,#790);
#788 = CARTESIAN_POINT('',(-5.,61.000004,34.999973));
#789 = DIRECTION('',(-1.,-0.,-0.));
#790 = DIRECTION('',(0.,0.,1.));
#791 = ADVANCED_FACE('',(#792),#803,.F.);
#792 = FACE_BOUND('',#793,.T.);
#793 = EDGE_LOOP('',(#794,#800,#801,#802));
#794 = ORIENTED_EDGE('',*,*,#795,.F.);
#795 = EDGE_CURVE('',#317,#579,#796,.T.);
#796 = LINE('',#797,#798);
#797 = CARTESIAN_POINT('',(-5.,30.000013,8.999959));
#798 = VECTOR('',#799,1.);
#799 = DIRECTION('',(0.707106781187,0.,-0.707106781187));
#800 = ORIENTED_EDGE('',*,*,#316,.T.);
#801 = ORIENTED_EDGE('',*,*,#795,.T.);
#802 = ORIENTED_EDGE('',*,*,#586,.F.);
#803 = CONICAL_SURFACE('',#804,4.,0.785398163397);
#804 = AXIS2_PLACEMENT_3D('',#805,#806,#807);
#805 = CARTESIAN_POINT('',(-5.,30.000013,4.999959));
#806 = DIRECTION('',(-1.,-0.,-0.));
#807 = DIRECTION('',(0.,0.,1.));
#808 = ADVANCED_FACE('',(#809),#820,.F.);
#809 = FACE_BOUND('',#810,.T.);
#810 = EDGE_LOOP('',(#811,#817,#818,#819));
#811 = ORIENTED_EDGE('',*,*,#812,.F.);
#812 = EDGE_CURVE('',#328,#604,#813,.T.);
#813 = LINE('',#814,#815);
#814 = CARTESIAN_POINT('',(-5.,61.000015,68.999962));
#815 = VECTOR('',#816,1.);
#816 = DIRECTION('',(0.707106781187,0.,-0.707106781187));
#817 = ORIENTED_EDGE('',*,*,#327,.T.);
#818 = ORIENTED_EDGE('',*,*,#812,.T.);
#819 = ORIENTED_EDGE('',*,*,#611,.F.);
#820 = CONICAL_SURFACE('',#821,4.,0.785398163397);
#821 = AXIS2_PLACEMENT_3D('',#822,#823,#824);
#822 = CARTESIAN_POINT('',(-5.,61.000015,64.999962));
#823 = DIRECTION('',(-1.,-0.,-0.));
#824 = DIRECTION('',(0.,0.,1.));
#825 = ADVANCED_FACE('',(#826),#837,.F.);
#826 = FACE_BOUND('',#827,.T.);
#827 = EDGE_LOOP('',(#828,#834,#835,#836));
#828 = ORIENTED_EDGE('',*,*,#829,.F.);
#829 = EDGE_CURVE('',#339,#629,#830,.T.);
#830 = LINE('',#831,#832);
#831 = CARTESIAN_POINT('',(-5.,61.000027,99.));
#832 = VECTOR('',#833,1.);
#833 = DIRECTION('',(0.707106781187,0.,-0.707106781187));
#834 = ORIENTED_EDGE('',*,*,#338,.T.);
#835 = ORIENTED_EDGE('',*,*,#829,.T.);
#836 = ORIENTED_EDGE('',*,*,#636,.F.);
#837 = CONICAL_SURFACE('',#838,4.,0.785398163397);
#838 = AXIS2_PLACEMENT_3D('',#839,#840,#841);
#839 = CARTESIAN_POINT('',(-5.,61.000027,95.));
#840 = DIRECTION('',(-1.,-0.,-0.));
#841 = DIRECTION('',(0.,0.,1.));
#842 = ADVANCED_FACE('',(#843),#854,.F.);
#843 = FACE_BOUND('',#844,.T.);
#844 = EDGE_LOOP('',(#845,#851,#852,#853));
#845 = ORIENTED_EDGE('',*,*,#846,.F.);
#846 = EDGE_CURVE('',#350,#654,#847,.T.);
#847 = LINE('',#848,#849);
#848 = CARTESIAN_POINT('',(-5.,0.,8.999972));
#849 = VECTOR('',#850,1.);
#850 = DIRECTION('',(0.707106781187,0.,-0.707106781187));
#851 = ORIENTED_EDGE('',*,*,#349,.T.);
#852 = ORIENTED_EDGE('',*,*,#846,.T.);
#853 = ORIENTED_EDGE('',*,*,#661,.F.);
#854 = CONICAL_SURFACE('',#855,4.,0.785398163397);
#855 = AXIS2_PLACEMENT_3D('',#856,#857,#858);
#856 = CARTESIAN_POINT('',(-5.,0.,4.999972));
#857 = DIRECTION('',(-1.,-0.,-0.));
#858 = DIRECTION('',(0.,0.,1.));
#859 = ADVANCED_FACE('',(#860),#871,.F.);
#860 = FACE_BOUND('',#861,.T.);
#861 = EDGE_LOOP('',(#862,#868,#869,#870));
#862 = ORIENTED_EDGE('',*,*,#863,.F.);
#863 = EDGE_CURVE('',#361,#679,#864,.T.);
#864 = LINE('',#865,#866);
#865 = CARTESIAN_POINT('',(-5.,-29.999798,8.999826));
#866 = VECTOR('',#867,1.);
#867 = DIRECTION('',(0.707106781187,0.,-0.707106781187));
#868 = ORIENTED_EDGE('',*,*,#360,.T.);
#869 = ORIENTED_EDGE('',*,*,#863,.T.);
#870 = ORIENTED_EDGE('',*,*,#686,.F.);
#871 = CONICAL_SURFACE('',#872,4.,0.785398163397);
#872 = AXIS2_PLACEMENT_3D('',#873,#874,#875);
#873 = CARTESIAN_POINT('',(-5.,-29.999798,4.999826));
#874 = DIRECTION('',(-1.,-0.,-0.));
#875 = DIRECTION('',(0.,0.,1.));
#876 = ADVANCED_FACE('',(#877),#888,.F.);
#877 = FACE_BOUND('',#878,.T.);
#878 = EDGE_LOOP('',(#879,#885,#886,#887));
#879 = ORIENTED_EDGE('',*,*,#880,.F.);
#880 = EDGE_CURVE('',#372,#704,#881,.T.);
#881 = LINE('',#882,#883);
#882 = CARTESIAN_POINT('',(-5.,-55.999943,38.999931));
#883 = VECTOR('',#884,1.);
#884 = DIRECTION('',(0.707106781187,0.,-0.707106781187));
#885 = ORIENTED_EDGE('',*,*,#371,.T.);
#886 = ORIENTED_EDGE('',*,*,#880,.T.);
#887 = ORIENTED_EDGE('',*,*,#711,.F.);
#888 = CONICAL_SURFACE('',#889,4.,0.785398163397);
#889 = AXIS2_PLACEMENT_3D('',#890,#891,#892);
#890 = CARTESIAN_POINT('',(-5.,-55.999943,34.999931));
#891 = DIRECTION('',(-1.,-0.,-0.));
#892 = DIRECTION('',(0.,0.,1.));
#893 = ADVANCED_FACE('',(#894),#905,.F.);
#894 = FACE_BOUND('',#895,.T.);
#895 = EDGE_LOOP('',(#896,#902,#903,#904));
#896 = ORIENTED_EDGE('',*,*,#897,.F.);
#897 = EDGE_CURVE('',#383,#729,#898,.T.);
#898 = LINE('',#899,#900);
#899 = CARTESIAN_POINT('',(-5.,-56.000008,68.999969));
#900 = VECTOR('',#901,1.);
#901 = DIRECTION('',(0.707106781187,0.,-0.707106781187));
#902 = ORIENTED_EDGE('',*,*,#382,.T.);
#903 = ORIENTED_EDGE('',*,*,#897,.T.);
#904 = ORIENTED_EDGE('',*,*,#736,.F.);
#905 = CONICAL_SURFACE('',#906,4.,0.785398163397);
#906 = AXIS2_PLACEMENT_3D('',#907,#908,#909);
#907 = CARTESIAN_POINT('',(-5.,-56.000008,64.999969));
#908 = DIRECTION('',(-1.,-0.,-0.));
#909 = DIRECTION('',(0.,0.,1.));
#910 = ADVANCED_FACE('',(#911),#922,.F.);
#911 = FACE_BOUND('',#912,.T.);
#912 = EDGE_LOOP('',(#913,#919,#920,#921));
#913 = ORIENTED_EDGE('',*,*,#914,.F.);
#914 = EDGE_CURVE('',#394,#754,#915,.T.);
#915 = LINE('',#916,#917);
#916 = CARTESIAN_POINT('',(-5.,-55.999874,98.999763));
#917 = VECTOR('',#918,1.);
#918 = DIRECTION('',(0.707106781187,0.,-0.707106781187));
#919 = ORIENTED_EDGE('',*,*,#393,.T.);
#920 = ORIENTED_EDGE('',*,*,#914,.T.);
#921 = ORIENTED_EDGE('',*,*,#761,.F.);
#922 = CONICAL_SURFACE('',#923,4.,0.785398163397);
#923 = AXIS2_PLACEMENT_3D('',#924,#925,#926);
#924 = CARTESIAN_POINT('',(-5.,-55.999874,94.999763));
#925 = DIRECTION('',(-1.,-0.,-0.));
#926 = DIRECTION('',(0.,0.,1.));
#927 = ADVANCED_FACE('',(#928,#934),#984,.T.);
#928 = FACE_BOUND('',#929,.T.);
#929 = EDGE_LOOP('',(#930,#931,#932,#933));
#930 = ORIENTED_EDGE('',*,*,#461,.T.);
#931 = ORIENTED_EDGE('',*,*,#519,.F.);
#932 = ORIENTED_EDGE('',*,*,#505,.T.);
#933 = ORIENTED_EDGE('',*,*,#536,.T.);
#934 = FACE_BOUND('',#935,.T.);
#935 = EDGE_LOOP('',(#936,#946,#954,#962,#970,#978));
#936 = ORIENTED_EDGE('',*,*,#937,.F.);
#937 = EDGE_CURVE('',#938,#940,#942,.T.);
#938 = VERTEX_POINT('',#939);
#939 = CARTESIAN_POINT('',(-1.377E-14,0.,80.044487));
#940 = VERTEX_POINT('',#941);
#941 = CARTESIAN_POINT('',(-1.377E-14,0.,60.044487));
#942 = LINE('',#943,#944);
#943 = CARTESIAN_POINT('',(-1.377E-14,0.,80.044487));
#944 = VECTOR('',#945,1.);
#945 = DIRECTION('',(0.,0.,-1.));
#946 = ORIENTED_EDGE('',*,*,#947,.F.);
#947 = EDGE_CURVE('',#948,#938,#950,.T.);
#948 = VERTEX_POINT('',#949);
#949 = CARTESIAN_POINT('',(-1.377E-14,3.,80.044487));
#950 = LINE('',#951,#952);
#951 = CARTESIAN_POINT('',(-1.377E-14,3.,80.044487));
#952 = VECTOR('',#953,1.);
#953 = DIRECTION('',(0.,-1.,0.));
#954 = ORIENTED_EDGE('',*,*,#955,.F.);
#955 = EDGE_CURVE('',#956,#948,#958,.T.);
#956 = VERTEX_POINT('',#957);
#957 = CARTESIAN_POINT('',(-1.377E-14,3.,63.044487));
#958 = LINE('',#959,#960);
#959 = CARTESIAN_POINT('',(-1.377E-14,3.,63.044487));
#960 = VECTOR('',#961,1.);
#961 = DIRECTION('',(0.,0.,1.));
#962 = ORIENTED_EDGE('',*,*,#963,.F.);
#963 = EDGE_CURVE('',#964,#956,#966,.T.);
#964 = VERTEX_POINT('',#965);
#965 = CARTESIAN_POINT('',(-1.377E-14,15.,63.044487));
#966 = LINE('',#967,#968);
#967 = CARTESIAN_POINT('',(-1.377E-14,15.,63.044487));
#968 = VECTOR('',#969,1.);
#969 = DIRECTION('',(0.,-1.,0.));
#970 = ORIENTED_EDGE('',*,*,#971,.F.);
#971 = EDGE_CURVE('',#972,#964,#974,.T.);
#972 = VERTEX_POINT('',#973);
#973 = CARTESIAN_POINT('',(-1.377E-14,15.,60.044487));
#974 = LINE('',#975,#976);
#975 = CARTESIAN_POINT('',(-1.377E-14,15.,60.044487));
#976 = VECTOR('',#977,1.);
#977 = DIRECTION('',(0.,0.,1.));
#978 = ORIENTED_EDGE('',*,*,#979,.F.);
#979 = EDGE_CURVE('',#940,#972,#980,.T.);
#980 = LINE('',#981,#982);
#981 = CARTESIAN_POINT('',(-1.377E-14,0.,60.044487));
#982 = VECTOR('',#983,1.);
#983 = DIRECTION('',(0.,1.,0.));
#984 = PLANE('',#985);
#985 = AXIS2_PLACEMENT_3D('',#986,#987,#988);
#986 = CARTESIAN_POINT('',(-1.377E-14,2.499851,62.008045));
#987 = DIRECTION('',(1.,0.,0.));
#988 = DIRECTION('',(0.,0.,1.));
#989 = ADVANCED_FACE('',(#990),#1015,.F.);
#990 = FACE_BOUND('',#991,.F.);
#991 = EDGE_LOOP('',(#992,#1000,#1008,#1014));
#992 = ORIENTED_EDGE('',*,*,#993,.T.);
#993 = EDGE_CURVE('',#938,#994,#996,.T.);
#994 = VERTEX_POINT('',#995);
#995 = CARTESIAN_POINT('',(-0.2,0.,80.044487));
#996 = LINE('',#997,#998);
#997 = CARTESIAN_POINT('',(-1.377E-14,0.,80.044487));
#998 = VECTOR('',#999,1.);
#999 = DIRECTION('',(-1.,-0.,-0.));
#1000 = ORIENTED_EDGE('',*,*,#1001,.T.);
#1001 = EDGE_CURVE('',#994,#1002,#1004,.T.);
#1002 = VERTEX_POINT('',#1003);
#1003 = CARTESIAN_POINT('',(-0.2,0.,60.044487));
#1004 = LINE('',#1005,#1006);
#1005 = CARTESIAN_POINT('',(-0.2,0.,80.044487));
#1006 = VECTOR('',#1007,1.);
#1007 = DIRECTION('',(0.,0.,-1.));
#1008 = ORIENTED_EDGE('',*,*,#1009,.F.);
#1009 = EDGE_CURVE('',#940,#1002,#1010,.T.);
#1010 = LINE('',#1011,#1012);
#1011 = CARTESIAN_POINT('',(-1.377E-14,0.,60.044487));
#1012 = VECTOR('',#1013,1.);
#1013 = DIRECTION('',(-1.,-0.,-0.));
#1014 = ORIENTED_EDGE('',*,*,#937,.F.);
#1015 = PLANE('',#1016);
#1016 = AXIS2_PLACEMENT_3D('',#1017,#1018,#1019);
#1017 = CARTESIAN_POINT('',(-1.377E-14,0.,80.044487));
#1018 = DIRECTION('',(0.,-1.,0.));
#1019 = DIRECTION('',(0.,0.,-1.));
#1020 = ADVANCED_FACE('',(#1021),#1039,.F.);
#1021 = FACE_BOUND('',#1022,.F.);
#1022 = EDGE_LOOP('',(#1023,#1024,#1032,#1038));
#1023 = ORIENTED_EDGE('',*,*,#1009,.T.);
#1024 = ORIENTED_EDGE('',*,*,#1025,.T.);
#1025 = EDGE_CURVE('',#1002,#1026,#1028,.T.);
#1026 = VERTEX_POINT('',#1027);
#1027 = CARTESIAN_POINT('',(-0.2,15.,60.044487));
#1028 = LINE('',#1029,#1030);
#1029 = CARTESIAN_POINT('',(-0.2,0.,60.044487));
#1030 = VECTOR('',#1031,1.);
#1031 = DIRECTION('',(0.,1.,0.));
#1032 = ORIENTED_EDGE('',*,*,#1033,.F.);
#1033 = EDGE_CURVE('',#972,#1026,#1034,.T.);
#1034 = LINE('',#1035,#1036);
#1035 = CARTESIAN_POINT('',(-1.377E-14,15.,60.044487));
#1036 = VECTOR('',#1037,1.);
#1037 = DIRECTION('',(-1.,-0.,-0.));
#1038 = ORIENTED_EDGE('',*,*,#979,.F.);
#1039 = PLANE('',#1040);
#1040 = AXIS2_PLACEMENT_3D('',#1041,#1042,#1043);
#1041 = CARTESIAN_POINT('',(-1.377E-14,0.,60.044487));
#1042 = DIRECTION('',(0.,0.,-1.));
#1043 = DIRECTION('',(0.,1.,0.));
#1044 = ADVANCED_FACE('',(#1045),#1063,.F.);
#1045 = FACE_BOUND('',#1046,.F.);
#1046 = EDGE_LOOP('',(#1047,#1048,#1056,#1062));
#1047 = ORIENTED_EDGE('',*,*,#1033,.T.);
#1048 = ORIENTED_EDGE('',*,*,#1049,.T.);
#1049 = EDGE_CURVE('',#1026,#1050,#1052,.T.);
#1050 = VERTEX_POINT('',#1051);
#1051 = CARTESIAN_POINT('',(-0.2,15.,63.044487));
#1052 = LINE('',#1053,#1054);
#1053 = CARTESIAN_POINT('',(-0.2,15.,60.044487));
#1054 = VECTOR('',#1055,1.);
#1055 = DIRECTION('',(0.,0.,1.));
#1056 = ORIENTED_EDGE('',*,*,#1057,.F.);
#1057 = EDGE_CURVE('',#964,#1050,#1058,.T.);
#1058 = LINE('',#1059,#1060);
#1059 = CARTESIAN_POINT('',(-1.377E-14,15.,63.044487));
#1060 = VECTOR('',#1061,1.);
#1061 = DIRECTION('',(-1.,-0.,-0.));
#1062 = ORIENTED_EDGE('',*,*,#971,.F.);
#1063 = PLANE('',#1064);
#1064 = AXIS2_PLACEMENT_3D('',#1065,#1066,#1067);
#1065 = CARTESIAN_POINT('',(-1.377E-14,15.,60.044487));
#1066 = DIRECTION('',(0.,1.,0.));
#1067 = DIRECTION('',(0.,0.,1.));
#1068 = ADVANCED_FACE('',(#1069),#1087,.F.);
#1069 = FACE_BOUND('',#1070,.F.);
#1070 = EDGE_LOOP('',(#1071,#1072,#1080,#1086));
#1071 = ORIENTED_EDGE('',*,*,#1057,.T.);
#1072 = ORIENTED_EDGE('',*,*,#1073,.T.);
#1073 = EDGE_CURVE('',#1050,#1074,#1076,.T.);
#1074 = VERTEX_POINT('',#1075);
#1075 = CARTESIAN_POINT('',(-0.2,3.,63.044487));
#1076 = LINE('',#1077,#1078);
#1077 = CARTESIAN_POINT('',(-0.2,15.,63.044487));
#1078 = VECTOR('',#1079,1.);
#1079 = DIRECTION('',(0.,-1.,0.));
#1080 = ORIENTED_EDGE('',*,*,#1081,.F.);
#1081 = EDGE_CURVE('',#956,#1074,#1082,.T.);
#1082 = LINE('',#1083,#1084);
#1083 = CARTESIAN_POINT('',(-1.377E-14,3.,63.044487));
#1084 = VECTOR('',#1085,1.);
#1085 = DIRECTION('',(-1.,-0.,-0.));
#1086 = ORIENTED_EDGE('',*,*,#963,.F.);
#1087 = PLANE('',#1088);
#1088 = AXIS2_PLACEMENT_3D('',#1089,#1090,#1091);
#1089 = CARTESIAN_POINT('',(-1.377E-14,15.,63.044487));
#1090 = DIRECTION('',(0.,0.,1.));
#1091 = DIRECTION('',(0.,-1.,0.));
#1092 = ADVANCED_FACE('',(#1093),#1111,.F.);
#1093 = FACE_BOUND('',#1094,.F.);
#1094 = EDGE_LOOP('',(#1095,#1096,#1104,#1110));
#1095 = ORIENTED_EDGE('',*,*,#1081,.T.);
#1096 = ORIENTED_EDGE('',*,*,#1097,.T.);
#1097 = EDGE_CURVE('',#1074,#1098,#1100,.T.);
#1098 = VERTEX_POINT('',#1099);
#1099 = CARTESIAN_POINT('',(-0.2,3.,80.044487));
#1100 = LINE('',#1101,#1102);
#1101 = CARTESIAN_POINT('',(-0.2,3.,63.044487));
#1102 = VECTOR('',#1103,1.);
#1103 = DIRECTION('',(0.,0.,1.));
#1104 = ORIENTED_EDGE('',*,*,#1105,.F.);
#1105 = EDGE_CURVE('',#948,#1098,#1106,.T.);
#1106 = LINE('',#1107,#1108);
#1107 = CARTESIAN_POINT('',(-1.377E-14,3.,80.044487));
#1108 = VECTOR('',#1109,1.);
#1109 = DIRECTION('',(-1.,-0.,-0.));
#1110 = ORIENTED_EDGE('',*,*,#955,.F.);
#1111 = PLANE('',#1112);
#1112 = AXIS2_PLACEMENT_3D('',#1113,#1114,#1115);
#1113 = CARTESIAN_POINT('',(-1.377E-14,3.,63.044487));
#1114 = DIRECTION('',(0.,1.,0.));
#1115 = DIRECTION('',(0.,0.,1.));
#1116 = ADVANCED_FACE('',(#1117),#1128,.F.);
#1117 = FACE_BOUND('',#1118,.F.);
#1118 = EDGE_LOOP('',(#1119,#1120,#1126,#1127));
#1119 = ORIENTED_EDGE('',*,*,#1105,.T.);
#1120 = ORIENTED_EDGE('',*,*,#1121,.T.);
#1121 = EDGE_CURVE('',#1098,#994,#1122,.T.);
#1122 = LINE('',#1123,#1124);
#1123 = CARTESIAN_POINT('',(-0.2,3.,80.044487));
#1124 = VECTOR('',#1125,1.);
#1125 = DIRECTION('',(0.,-1.,0.));
#1126 = ORIENTED_EDGE('',*,*,#993,.F.);
#1127 = ORIENTED_EDGE('',*,*,#947,.F.);
#1128 = PLANE('',#1129);
#1129 = AXIS2_PLACEMENT_3D('',#1130,#1131,#1132);
#1130 = CARTESIAN_POINT('',(-1.377E-14,3.,80.044487));
#1131 = DIRECTION('',(0.,0.,1.));
#1132 = DIRECTION('',(0.,-1.,0.));
#1133 = ADVANCED_FACE('',(#1134),#1142,.T.);
#1134 = FACE_BOUND('',#1135,.T.);
#1135 = EDGE_LOOP('',(#1136,#1137,#1138,#1139,#1140,#1141));
#1136 = ORIENTED_EDGE('',*,*,#1001,.T.);
#1137 = ORIENTED_EDGE('',*,*,#1025,.T.);
#1138 = ORIENTED_EDGE('',*,*,#1049,.T.);
#1139 = ORIENTED_EDGE('',*,*,#1073,.T.);
#1140 = ORIENTED_EDGE('',*,*,#1097,.T.);
#1141 = ORIENTED_EDGE('',*,*,#1121,.T.);
#1142 = PLANE('',#1143);
#1143 = AXIS2_PLACEMENT_3D('',#1144,#1145,#1146);
#1144 = CARTESIAN_POINT('',(-0.2,4.585714285714,67.130201285714));
#1145 = DIRECTION('',(1.,0.,0.));
#1146 = DIRECTION('',(0.,0.,1.));
#1147 = ( GEOMETRIC_REPRESENTATION_CONTEXT(3) 
GLOBAL_UNCERTAINTY_ASSIGNED_CONTEXT((#1151)) 
GLOBAL_UNIT_ASSIGNED_CONTEXT((#1148,#1149,#1150)) REPRESENTATION_CONTEXT
('Context #1','3D Context with UNIT and UNCERTAINTY') );
#1148 = ( LENGTH_UNIT() NAMED_UNIT(*) SI_UNIT(.MILLI.,.METRE.) );
#1149 = ( NAMED_UNIT(*) PLANE_ANGLE_UNIT() SI_UNIT($,.RADIAN.) );
#1150 = ( NAMED_UNIT(*) SI_UNIT($,.STERADIAN.) SOLID_ANGLE_UNIT() );
#1151 = UNCERTAINTY_MEASURE_WITH_UNIT(LENGTH_MEASURE(1.E-05),#1148,
  'distance_accuracy_value','confusion accuracy');
#1152 = PRODUCT_RELATED_PRODUCT_CATEGORY('part',$,(#7));
#1153 = MECHANICAL_DESIGN_GEOMETRIC_PRESENTATION_REPRESENTATION('',(
    #1154),#1147);
#1154 = STYLED_ITEM('color',(#1155),#15);
#1155 = PRESENTATION_STYLE_ASSIGNMENT((#1156,#1162));
#1156 = SURFACE_STYLE_USAGE(.BOTH.,#1157);
#1157 = SURFACE_SIDE_STYLE('',(#1158));
#1158 = SURFACE_STYLE_FILL_AREA(#1159);
#1159 = FILL_AREA_STYLE('',(#1160));
#1160 = FILL_AREA_STYLE_COLOUR('',#1161);
#1161 = COLOUR_RGB('',0.678431390124,0.709803936702,0.741176476869);
#1162 = CURVE_STYLE('',#1163,POSITIVE_LENGTH_MEASURE(0.1),#1164);
#1163 = DRAUGHTING_PRE_DEFINED_CURVE_FONT('continuous');
#1164 = COLOUR_RGB('',9.803921802644E-02,9.803921802644E-02,
  9.803921802644E-02);
ENDSEC;
END-ISO-10303-21;
