ISO-10303-21;
HEADER;
FILE_DESCRIPTION(('FreeCAD Model'),'2;1');
FILE_NAME('Open CASCADE Shape Model','2025-10-28T15:59:56',(''),(''),
  'Open CASCADE STEP processor 7.8','FreeCAD','Unknown');
FILE_SCHEMA(('AUTOMOTIVE_DESIGN { 1 0 10303 214 1 1 1 1 }'));
ENDSEC;
DATA;
#1 = APPLICATION_PROTOCOL_DEFINITION('international standard',
  'automotive_design',2000,#2);
#2 = APPLICATION_CONTEXT(
  'core data for automotive mechanical design processes');
#3 = SHAPE_DEFINITION_REPRESENTATION(#4,#10);
#4 = PRODUCT_DEFINITION_SHAPE('','',#5);
#5 = PRODUCT_DEFINITION('design','',#6,#9);
#6 = PRODUCT_DEFINITION_FORMATION('','',#7);
#7 = PRODUCT('Body','Body','',(#8));
#8 = PRODUCT_CONTEXT('',#2,'mechanical');
#9 = PRODUCT_DEFINITION_CONTEXT('part definition',#2,'design');
#10 = ADVANCED_BREP_SHAPE_REPRESENTATION('',(#11,#15),#1175);
#11 = AXIS2_PLACEMENT_3D('',#12,#13,#14);
#12 = CARTESIAN_POINT('',(0.,0.,0.));
#13 = DIRECTION('',(0.,0.,1.));
#14 = DIRECTION('',(1.,0.,-0.));
#15 = MANIFOLD_SOLID_BREP('',#16);
#16 = CLOSED_SHELL('',(#17,#77,#188,#417,#536,#561,#578,#597,#654,#679,
    #704,#721,#746,#771,#796,#821,#848,#864,#1053,#1073,#1090,#1107,
    #1124,#1141,#1158));
#17 = ADVANCED_FACE('',(#18),#72,.T.);
#18 = FACE_BOUND('',#19,.T.);
#19 = EDGE_LOOP('',(#20,#31,#39,#48,#57,#66));
#20 = ORIENTED_EDGE('',*,*,#21,.F.);
#21 = EDGE_CURVE('',#22,#24,#26,.T.);
#22 = VERTEX_POINT('',#23);
#23 = CARTESIAN_POINT('',(35.,0.,0.));
#24 = VERTEX_POINT('',#25);
#25 = CARTESIAN_POINT('',(1.53330385E-07,-35.,0.));
#26 = CIRCLE('',#27,35.);
#27 = AXIS2_PLACEMENT_3D('',#28,#29,#30);
#28 = CARTESIAN_POINT('',(0.,0.,0.));
#29 = DIRECTION('',(0.,0.,-1.));
#30 = DIRECTION('',(1.,0.,0.));
#31 = ORIENTED_EDGE('',*,*,#32,.T.);
#32 = EDGE_CURVE('',#22,#33,#35,.T.);
#33 = VERTEX_POINT('',#34);
#34 = CARTESIAN_POINT('',(35.,0.,22.));
#35 = LINE('',#36,#37);
#36 = CARTESIAN_POINT('',(35.,0.,0.));
#37 = VECTOR('',#38,1.);
#38 = DIRECTION('',(0.,0.,1.));
#39 = ORIENTED_EDGE('',*,*,#40,.T.);
#40 = EDGE_CURVE('',#33,#41,#43,.T.);
#41 = VERTEX_POINT('',#42);
#42 = CARTESIAN_POINT('',(19.766624169349,-28.88391540196,22.));
#43 = CIRCLE('',#44,35.);
#44 = AXIS2_PLACEMENT_3D('',#45,#46,#47);
#45 = CARTESIAN_POINT('',(0.,0.,22.));
#46 = DIRECTION('',(0.,0.,-1.));
#47 = DIRECTION('',(1.,0.,0.));
#48 = ORIENTED_EDGE('',*,*,#49,.F.);
#49 = EDGE_CURVE('',#50,#41,#52,.T.);
#50 = VERTEX_POINT('',#51);
#51 = CARTESIAN_POINT('',(22.958423499162,-26.41800125734,
    10.088039826852));
#52 = ELLIPSE('',#53,135.22964646833,35.);
#53 = AXIS2_PLACEMENT_3D('',#54,#55,#56);
#54 = CARTESIAN_POINT('',(0.,0.,95.770063695278));
#55 = DIRECTION('',(-0.965925842078,-6.E-17,-0.258818986177));
#56 = DIRECTION('',(0.258818986177,2.E-17,-0.965925842078));
#57 = ORIENTED_EDGE('',*,*,#58,.T.);
#58 = EDGE_CURVE('',#50,#59,#61,.T.);
#59 = VERTEX_POINT('',#60);
#60 = CARTESIAN_POINT('',(0.,-35.,10.088039826852));
#61 = CIRCLE('',#62,35.);
#62 = AXIS2_PLACEMENT_3D('',#63,#64,#65);
#63 = CARTESIAN_POINT('',(0.,0.,10.088039826852));
#64 = DIRECTION('',(0.,0.,-1.));
#65 = DIRECTION('',(1.,0.,0.));
#66 = ORIENTED_EDGE('',*,*,#67,.T.);
#67 = EDGE_CURVE('',#59,#24,#68,.T.);
#68 = LINE('',#69,#70);
#69 = CARTESIAN_POINT('',(0.,-35.,0.));
#70 = VECTOR('',#71,1.);
#71 = DIRECTION('',(0.,0.,-1.));
#72 = CYLINDRICAL_SURFACE('',#73,35.);
#73 = AXIS2_PLACEMENT_3D('',#74,#75,#76);
#74 = CARTESIAN_POINT('',(0.,0.,0.));
#75 = DIRECTION('',(0.,0.,-1.));
#76 = DIRECTION('',(1.,0.,0.));
#77 = ADVANCED_FACE('',(#78,#106,#117,#128,#139,#150,#161,#172),#183,.F.
  );
#78 = FACE_BOUND('',#79,.F.);
#79 = EDGE_LOOP('',(#80,#89,#90,#99));
#80 = ORIENTED_EDGE('',*,*,#81,.F.);
#81 = EDGE_CURVE('',#24,#82,#84,.T.);
#82 = VERTEX_POINT('',#83);
#83 = CARTESIAN_POINT('',(-35.,-3.5E-14,0.));
#84 = CIRCLE('',#85,35.);
#85 = AXIS2_PLACEMENT_3D('',#86,#87,#88);
#86 = CARTESIAN_POINT('',(0.,0.,0.));
#87 = DIRECTION('',(0.,0.,-1.));
#88 = DIRECTION('',(1.,0.,0.));
#89 = ORIENTED_EDGE('',*,*,#21,.F.);
#90 = ORIENTED_EDGE('',*,*,#91,.F.);
#91 = EDGE_CURVE('',#92,#22,#94,.T.);
#92 = VERTEX_POINT('',#93);
#93 = CARTESIAN_POINT('',(-1.8954721E-08,35.,0.));
#94 = CIRCLE('',#95,35.);
#95 = AXIS2_PLACEMENT_3D('',#96,#97,#98);
#96 = CARTESIAN_POINT('',(0.,0.,0.));
#97 = DIRECTION('',(0.,0.,-1.));
#98 = DIRECTION('',(1.,0.,0.));
#99 = ORIENTED_EDGE('',*,*,#100,.F.);
#100 = EDGE_CURVE('',#82,#92,#101,.T.);
#101 = CIRCLE('',#102,35.);
#102 = AXIS2_PLACEMENT_3D('',#103,#104,#105);
#103 = CARTESIAN_POINT('',(0.,0.,0.));
#104 = DIRECTION('',(0.,0.,-1.));
#105 = DIRECTION('',(1.,0.,0.));
#106 = FACE_BOUND('',#107,.F.);
#107 = EDGE_LOOP('',(#108));
#108 = ORIENTED_EDGE('',*,*,#109,.T.);
#109 = EDGE_CURVE('',#110,#110,#112,.T.);
#110 = VERTEX_POINT('',#111);
#111 = CARTESIAN_POINT('',(-3.5,-9.786087062764,0.));
#112 = CIRCLE('',#113,2.15);
#113 = AXIS2_PLACEMENT_3D('',#114,#115,#116);
#114 = CARTESIAN_POINT('',(-5.65,-9.786087062764,0.));
#115 = DIRECTION('',(0.,0.,-1.));
#116 = DIRECTION('',(1.,0.,0.));
#117 = FACE_BOUND('',#118,.F.);
#118 = EDGE_LOOP('',(#119));
#119 = ORIENTED_EDGE('',*,*,#120,.T.);
#120 = EDGE_CURVE('',#121,#121,#123,.T.);
#121 = VERTEX_POINT('',#122);
#122 = CARTESIAN_POINT('',(7.8,-9.786087062764,0.));
#123 = CIRCLE('',#124,2.15);
#124 = AXIS2_PLACEMENT_3D('',#125,#126,#127);
#125 = CARTESIAN_POINT('',(5.65,-9.786087062764,0.));
#126 = DIRECTION('',(0.,0.,-1.));
#127 = DIRECTION('',(1.,0.,0.));
#128 = FACE_BOUND('',#129,.F.);
#129 = EDGE_LOOP('',(#130));
#130 = ORIENTED_EDGE('',*,*,#131,.F.);
#131 = EDGE_CURVE('',#132,#132,#134,.T.);
#132 = VERTEX_POINT('',#133);
#133 = CARTESIAN_POINT('',(2.,-6.804348806E-06,0.));
#134 = CIRCLE('',#135,2.);
#135 = AXIS2_PLACEMENT_3D('',#136,#137,#138);
#136 = CARTESIAN_POINT('',(0.,-6.8043488058E-06,0.));
#137 = DIRECTION('',(0.,0.,1.));
#138 = DIRECTION('',(1.,0.,0.));
#139 = FACE_BOUND('',#140,.F.);
#140 = EDGE_LOOP('',(#141));
#141 = ORIENTED_EDGE('',*,*,#142,.T.);
#142 = EDGE_CURVE('',#143,#143,#145,.T.);
#143 = VERTEX_POINT('',#144);
#144 = CARTESIAN_POINT('',(-9.15,3.219368761908E-15,0.));
#145 = CIRCLE('',#146,2.15);
#146 = AXIS2_PLACEMENT_3D('',#147,#148,#149);
#147 = CARTESIAN_POINT('',(-11.3,3.219368761908E-15,0.));
#148 = DIRECTION('',(0.,0.,-1.));
#149 = DIRECTION('',(1.,0.,0.));
#150 = FACE_BOUND('',#151,.F.);
#151 = EDGE_LOOP('',(#152));
#152 = ORIENTED_EDGE('',*,*,#153,.T.);
#153 = EDGE_CURVE('',#154,#154,#156,.T.);
#154 = VERTEX_POINT('',#155);
#155 = CARTESIAN_POINT('',(-3.5,9.786087062764,0.));
#156 = CIRCLE('',#157,2.15);
#157 = AXIS2_PLACEMENT_3D('',#158,#159,#160);
#158 = CARTESIAN_POINT('',(-5.65,9.786087062764,0.));
#159 = DIRECTION('',(0.,0.,-1.));
#160 = DIRECTION('',(1.,0.,0.));
#161 = FACE_BOUND('',#162,.F.);
#162 = EDGE_LOOP('',(#163));
#163 = ORIENTED_EDGE('',*,*,#164,.T.);
#164 = EDGE_CURVE('',#165,#165,#167,.T.);
#165 = VERTEX_POINT('',#166);
#166 = CARTESIAN_POINT('',(13.45,2.219368761908E-15,0.));
#167 = CIRCLE('',#168,2.15);
#168 = AXIS2_PLACEMENT_3D('',#169,#170,#171);
#169 = CARTESIAN_POINT('',(11.3,2.219368761908E-15,0.));
#170 = DIRECTION('',(0.,0.,-1.));
#171 = DIRECTION('',(1.,0.,0.));
#172 = FACE_BOUND('',#173,.F.);
#173 = EDGE_LOOP('',(#174));
#174 = ORIENTED_EDGE('',*,*,#175,.T.);
#175 = EDGE_CURVE('',#176,#176,#178,.T.);
#176 = VERTEX_POINT('',#177);
#177 = CARTESIAN_POINT('',(7.8,9.786087062764,0.));
#178 = CIRCLE('',#179,2.15);
#179 = AXIS2_PLACEMENT_3D('',#180,#181,#182);
#180 = CARTESIAN_POINT('',(5.65,9.786087062764,0.));
#181 = DIRECTION('',(0.,0.,-1.));
#182 = DIRECTION('',(1.,0.,0.));
#183 = PLANE('',#184);
#184 = AXIS2_PLACEMENT_3D('',#185,#186,#187);
#185 = CARTESIAN_POINT('',(0.,-2.4350806072E-07,0.));
#186 = DIRECTION('',(0.,0.,1.));
#187 = DIRECTION('',(1.,0.,0.));
#188 = ADVANCED_FACE('',(#189,#271),#412,.T.);
#189 = FACE_BOUND('',#190,.T.);
#190 = EDGE_LOOP('',(#191,#192,#193,#202,#210,#219,#227,#246,#265));
#191 = ORIENTED_EDGE('',*,*,#81,.F.);
#192 = ORIENTED_EDGE('',*,*,#67,.F.);
#193 = ORIENTED_EDGE('',*,*,#194,.T.);
#194 = EDGE_CURVE('',#59,#195,#197,.T.);
#195 = VERTEX_POINT('',#196);
#196 = CARTESIAN_POINT('',(-23.04157650083,-26.34550725182,
    10.088039826852));
#197 = CIRCLE('',#198,35.);
#198 = AXIS2_PLACEMENT_3D('',#199,#200,#201);
#199 = CARTESIAN_POINT('',(0.,0.,10.088039826852));
#200 = DIRECTION('',(0.,0.,-1.));
#201 = DIRECTION('',(1.,0.,0.));
#202 = ORIENTED_EDGE('',*,*,#203,.F.);
#203 = EDGE_CURVE('',#204,#195,#206,.T.);
#204 = VERTEX_POINT('',#205);
#205 = CARTESIAN_POINT('',(-23.04157650083,-26.34550725182,22.));
#206 = LINE('',#207,#208);
#207 = CARTESIAN_POINT('',(-23.04157650083,-26.34550725182,0.));
#208 = VECTOR('',#209,1.);
#209 = DIRECTION('',(0.,0.,-1.));
#210 = ORIENTED_EDGE('',*,*,#211,.T.);
#211 = EDGE_CURVE('',#204,#212,#214,.T.);
#212 = VERTEX_POINT('',#213);
#213 = CARTESIAN_POINT('',(-35.,0.,22.));
#214 = CIRCLE('',#215,35.);
#215 = AXIS2_PLACEMENT_3D('',#216,#217,#218);
#216 = CARTESIAN_POINT('',(0.,0.,22.));
#217 = DIRECTION('',(0.,0.,-1.));
#218 = DIRECTION('',(1.,0.,0.));
#219 = ORIENTED_EDGE('',*,*,#220,.T.);
#220 = EDGE_CURVE('',#212,#221,#223,.T.);
#221 = VERTEX_POINT('',#222);
#222 = CARTESIAN_POINT('',(-35.,0.,20.520481));
#223 = LINE('',#224,#225);
#224 = CARTESIAN_POINT('',(-35.,0.,0.));
#225 = VECTOR('',#226,1.);
#226 = DIRECTION('',(0.,0.,-1.));
#227 = ORIENTED_EDGE('',*,*,#228,.F.);
#228 = EDGE_CURVE('',#229,#221,#231,.T.);
#229 = VERTEX_POINT('',#230);
#230 = CARTESIAN_POINT('',(-34.91060010942,-2.5,18.020481));
#231 = B_SPLINE_CURVE_WITH_KNOTS('',7,(#232,#233,#234,#235,#236,#237,
    #238,#239,#240,#241,#242,#243,#244,#245),.UNSPECIFIED.,.F.,.F.,(8,6,
    8),(0.,0.511542129327,1.),.UNSPECIFIED.);
#232 = CARTESIAN_POINT('',(-34.91060010942,-2.5,18.020481));
#233 = CARTESIAN_POINT('',(-34.91060010942,-2.5,18.26904584802));
#234 = CARTESIAN_POINT('',(-34.91266479908,-2.471167913724,
    18.517375615381));
#235 = CARTESIAN_POINT('',(-34.91678763201,-2.413597053137,
    18.763585442543));
#236 = CARTESIAN_POINT('',(-34.92286519271,-2.326619468654,
    19.005588453492));
#237 = CARTESIAN_POINT('',(-34.93068870468,-2.208991442314,
    19.240716438116));
#238 = CARTESIAN_POINT('',(-34.93986274153,-2.059096459276,
    19.465259178889));
#239 = CARTESIAN_POINT('',(-34.9591437744,-1.699754042178,19.87285314323
    ));
#240 = CARTESIAN_POINT('',(-34.96944719904,-1.4885063949,20.06275625184)
  );
#241 = CARTESIAN_POINT('',(-34.97986847285,-1.241775106412,
    20.231904609019));
#242 = CARTESIAN_POINT('',(-34.98925779551,-0.96283762802,
    20.370086386366));
#243 = CARTESIAN_POINT('',(-34.99629504668,-0.657466266547,
    20.468612461439));
#244 = CARTESIAN_POINT('',(-35.,-0.333388850466,20.520481));
#245 = CARTESIAN_POINT('',(-35.,-8.9E-16,20.520481));
#246 = ORIENTED_EDGE('',*,*,#247,.F.);
#247 = EDGE_CURVE('',#248,#229,#250,.T.);
#248 = VERTEX_POINT('',#249);
#249 = CARTESIAN_POINT('',(-35.,0.,15.520481));
#250 = B_SPLINE_CURVE_WITH_KNOTS('',7,(#251,#252,#253,#254,#255,#256,
    #257,#258,#259,#260,#261,#262,#263,#264),.UNSPECIFIED.,.F.,.F.,(8,6,
    8),(0.,0.44841858086,1.),.UNSPECIFIED.);
#251 = CARTESIAN_POINT('',(-35.,-1.78E-15,15.520481));
#252 = CARTESIAN_POINT('',(-35.,-0.30505500927,15.520481));
#253 = CARTESIAN_POINT('',(-34.99689802001,-0.603243037305,
    15.563908013831));
#254 = CARTESIAN_POINT('',(-34.99094566208,-0.886892391514,
    15.647244934366));
#255 = CARTESIAN_POINT('',(-34.9828511966,-1.149378751299,
    15.765284138491));
#256 = CARTESIAN_POINT('',(-34.97362632623,-1.385502847205,
    15.911245963719));
#257 = CARTESIAN_POINT('',(-34.96421960413,-1.591959424746,
    16.076906518813));
#258 = CARTESIAN_POINT('',(-34.94439221686,-1.984020627659,
    16.468967721727));
#259 = CARTESIAN_POINT('',(-34.9339281397,-2.159989887111,
    16.706664277535));
#260 = CARTESIAN_POINT('',(-34.92488358994,-2.297669334796,
    16.958119956227));
#261 = CARTESIAN_POINT('',(-34.91781609948,-2.399237860548,
    17.218369870777));
#262 = CARTESIAN_POINT('',(-34.91300867887,-2.46636522127,
    17.483860722032));
#263 = CARTESIAN_POINT('',(-34.91060010942,-2.5,17.752014612622));
#264 = CARTESIAN_POINT('',(-34.91060010942,-2.5,18.020481));
#265 = ORIENTED_EDGE('',*,*,#266,.T.);
#266 = EDGE_CURVE('',#248,#82,#267,.T.);
#267 = LINE('',#268,#269);
#268 = CARTESIAN_POINT('',(-35.,0.,0.));
#269 = VECTOR('',#270,1.);
#270 = DIRECTION('',(0.,0.,-1.));
#271 = FACE_BOUND('',#272,.T.);
#272 = EDGE_LOOP('',(#273));
#273 = ORIENTED_EDGE('',*,*,#274,.T.);
#274 = EDGE_CURVE('',#275,#275,#277,.T.);
#275 = VERTEX_POINT('',#276);
#276 = CARTESIAN_POINT('',(-29.52977390761,-18.78809338291,17.945474));
#277 = B_SPLINE_CURVE_WITH_KNOTS('',7,(#278,#279,#280,#281,#282,#283,
    #284,#285,#286,#287,#288,#289,#290,#291,#292,#293,#294,#295,#296,
    #297,#298,#299,#300,#301,#302,#303,#304,#305,#306,#307,#308,#309,
    #310,#311,#312,#313,#314,#315,#316,#317,#318,#319,#320,#321,#322,
    #323,#324,#325,#326,#327,#328,#329,#330,#331,#332,#333,#334,#335,
    #336,#337,#338,#339,#340,#341,#342,#343,#344,#345,#346,#347,#348,
    #349,#350,#351,#352,#353,#354,#355,#356,#357,#358,#359,#360,#361,
    #362,#363,#364,#365,#366,#367,#368,#369,#370,#371,#372,#373,#374,
    #375,#376,#377,#378,#379,#380,#381,#382,#383,#384,#385,#386,#387,
    #388,#389,#390,#391,#392,#393,#394,#395,#396,#397,#398,#399,#400,
    #401,#402,#403,#404,#405,#406,#407,#408,#409,#410,#411),
  .UNSPECIFIED.,.T.,.F.,(8,6,6,6,6,6,6,6,6,6,6,6,6,6,6,6,6,6,6,6,6,6,8),
  (0.,0.122255568289,0.164980117053,0.198453742205,0.216289661061,
    0.252703181862,0.289116997975,0.306959584349,0.340478514762,
    0.382306569268,0.413945553409,0.500714924383,0.585958375166,
    0.617554658146,0.65933024644,0.692818221393,0.710649237483,
    0.747048979014,0.78346079827,0.801301597237,0.834797279074,
    0.877574110197,1.),.UNSPECIFIED.);
#278 = CARTESIAN_POINT('',(-29.52977390761,-18.78809338291,17.945474));
#279 = CARTESIAN_POINT('',(-29.52977390761,-18.78809338291,
    17.785316613553));
#280 = CARTESIAN_POINT('',(-29.53821276369,-18.77482988154,
    17.625350735195));
#281 = CARTESIAN_POINT('',(-29.55505706038,-18.74835477882,
    17.466720310634));
#282 = CARTESIAN_POINT('',(-29.58044466998,-18.70837069606,
    17.310910760832));
#283 = CARTESIAN_POINT('',(-29.61454072493,-18.65444881925,
    17.159811248486));
#284 = CARTESIAN_POINT('',(-29.65744934398,-18.58616030633,
    17.015651637712));
#285 = CARTESIAN_POINT('',(-29.72755313795,-18.47359639508,
    16.83431911868));
#286 = CARTESIAN_POINT('',(-29.74680140307,-18.44261554973,
    16.788582361571));
#287 = CARTESIAN_POINT('',(-29.76714582999,-18.40978371399,
    16.744200317326));
#288 = CARTESIAN_POINT('',(-29.7885839863,-18.37508627353,
    16.701325624877));
#289 = CARTESIAN_POINT('',(-29.81110662553,-18.33851794585,
    16.660129073118));
#290 = CARTESIAN_POINT('',(-29.83469583204,-18.3000861455,
    16.620797286511));
#291 = CARTESIAN_POINT('',(-29.87861807177,-18.22826239498,
    16.554332737026));
#292 = CARTESIAN_POINT('',(-29.89854918842,-18.19558266934,
    16.526404184634));
#293 = CARTESIAN_POINT('',(-29.91910172356,-18.16178841194,
    16.499841860697));
#294 = CARTESIAN_POINT('',(-29.94025508721,-18.12690190538,
    16.474750510261));
#295 = CARTESIAN_POINT('',(-29.96198185111,-18.09095667234,
    16.451239360022));
#296 = CARTESIAN_POINT('',(-29.98424670815,-18.05399967269,
    16.429418962111));
#297 = CARTESIAN_POINT('',(-30.01913207611,-17.99589576544,
    16.398730188852));
#298 = CARTESIAN_POINT('',(-30.03139882385,-17.9754287548,
    16.388573177325));
#299 = CARTESIAN_POINT('',(-30.04379886783,-17.95470210347,
    16.378943785656));
#300 = CARTESIAN_POINT('',(-30.0563246432,-17.93372683192,
    16.369858195624));
#301 = CARTESIAN_POINT('',(-30.06896782734,-17.91251534618,
    16.361331988441));
#302 = CARTESIAN_POINT('',(-30.08171933992,-17.89108143786,
    16.353380144751));
#303 = CARTESIAN_POINT('',(-30.12080369911,-17.82525805788,
    16.330984659609));
#304 = CARTESIAN_POINT('',(-30.14745238105,-17.78020568122,
    16.318403628129));
#305 = CARTESIAN_POINT('',(-30.17442592929,-17.73442218088,
    16.30839775463));
#306 = CARTESIAN_POINT('',(-30.20162706991,-17.68806283356,
    16.30106815482));
#307 = CARTESIAN_POINT('',(-30.22895128324,-17.64129900021,
    16.296487073293));
#308 = CARTESIAN_POINT('',(-30.25628737253,-17.59431796034,
    16.294691701143));
#309 = CARTESIAN_POINT('',(-30.31074891365,-17.50032715124,
    16.296664294006));
#310 = CARTESIAN_POINT('',(-30.33788072059,-17.45330641072,
    16.300432523263));
#311 = CARTESIAN_POINT('',(-30.3647958428,-17.40646380661,
    16.306979642838));
#312 = CARTESIAN_POINT('',(-30.39138738867,-17.35998933815,
    16.31626178017));
#313 = CARTESIAN_POINT('',(-30.41755905763,-17.3140590927,
    16.328200137392));
#314 = CARTESIAN_POINT('',(-30.44322501213,-17.2688346164,
    16.342686900077));
#315 = CARTESIAN_POINT('',(-30.48060114456,-17.20272006597,
    16.367874141292));
#316 = CARTESIAN_POINT('',(-30.49275387356,-17.18118086326,
    16.376738265237));
#317 = CARTESIAN_POINT('',(-30.50475974087,-17.15986070857,
    16.386168347286));
#318 = CARTESIAN_POINT('',(-30.51661139662,-17.13877424438,
    16.396148644764));
#319 = CARTESIAN_POINT('',(-30.52830233684,-17.11793472378,
    16.406662842868));
#320 = CARTESIAN_POINT('',(-30.53982690347,-17.09735401047,
    16.417694054659));
#321 = CARTESIAN_POINT('',(-30.57250864862,-17.03888569644,
    16.450886420385));
#322 = CARTESIAN_POINT('',(-30.59323243919,-17.00167984639,
    16.474311183367));
#323 = CARTESIAN_POINT('',(-30.6133203306,-16.96549323504,
    16.499385707319));
#324 = CARTESIAN_POINT('',(-30.63275043124,-16.93037791102,
    16.525995300459));
#325 = CARTESIAN_POINT('',(-30.65150881117,-16.89637190688,
    16.554027232443));
#326 = CARTESIAN_POINT('',(-30.66958802994,-16.86350138086,
    16.583373984894));
#327 = CARTESIAN_POINT('',(-30.70869605886,-16.79220129695,
    16.652075267487));
#328 = CARTESIAN_POINT('',(-30.72934364171,-16.75441621851,
    16.692104676001));
#329 = CARTESIAN_POINT('',(-30.74892590671,-16.71845569634,
    16.733834066158));
#330 = CARTESIAN_POINT('',(-30.76744835685,-16.68433192048,
    16.777086534762));
#331 = CARTESIAN_POINT('',(-30.78492259419,-16.6520442958,
    16.821701044325));
#332 = CARTESIAN_POINT('',(-30.80136440985,-16.62158263975,
    16.867534530663));
#333 = CARTESIAN_POINT('',(-30.82846129757,-16.57125764408,
    16.949961742446));
#334 = CARTESIAN_POINT('',(-30.83954978627,-16.55062124454,16.9860849132
    ));
#335 = CARTESIAN_POINT('',(-30.85006512463,-16.53101410031,
    17.022779288821));
#336 = CARTESIAN_POINT('',(-30.86001501358,-16.51242867668,
    17.05999456497));
#337 = CARTESIAN_POINT('',(-30.86940707034,-16.49485698536,
    17.097684366887));
#338 = CARTESIAN_POINT('',(-30.87824882838,-16.47829058456,
    17.135806249395));
#339 = CARTESIAN_POINT('',(-30.90930735317,-16.42002010588,
    17.279949650621));
#340 = CARTESIAN_POINT('',(-30.92797553588,-16.38482987521,
    17.388499491327));
#341 = CARTESIAN_POINT('',(-30.94271832684,-16.35694381631,
    17.499224720212));
#342 = CARTESIAN_POINT('',(-30.9536476109,-16.33622460607,
    17.611477661867));
#343 = CARTESIAN_POINT('',(-30.96084305526,-16.32256865789,17.7246880002
    ));
#344 = CARTESIAN_POINT('',(-30.96435237591,-16.31590886506,
    17.838351421892));
#345 = CARTESIAN_POINT('',(-30.96399069608,-16.3165952429,
    18.063706197924));
#346 = CARTESIAN_POINT('',(-30.96024850455,-16.32369696749,
    18.175333020619));
#347 = CARTESIAN_POINT('',(-30.95294574844,-16.33755501207,
    18.286490362396));
#348 = CARTESIAN_POINT('',(-30.94203562142,-16.35823486407,
    18.396698151803));
#349 = CARTESIAN_POINT('',(-30.92744141875,-16.38583614334,
    18.505413518917));
#350 = CARTESIAN_POINT('',(-30.90905629575,-16.42049004559,
    18.612020420489));
#351 = CARTESIAN_POINT('',(-30.87844562065,-16.47792176776,
    18.75428070303));
#352 = CARTESIAN_POINT('',(-30.86962647736,-16.49444627588,
    18.792359405393));
#353 = CARTESIAN_POINT('',(-30.86025864286,-16.51197322265,
    18.830007872902));
#354 = CARTESIAN_POINT('',(-30.85033461788,-16.5305110167,
    18.867183878797));
#355 = CARTESIAN_POINT('',(-30.83984681685,-16.55006762138,
    18.903841294095));
#356 = CARTESIAN_POINT('',(-30.82878756797,-16.57065055476,
    18.939930087588));
#357 = CARTESIAN_POINT('',(-30.80176112277,-16.62084731192,
    19.022288644425));
#358 = CARTESIAN_POINT('',(-30.78536160141,-16.651232361,19.068089819425
    ));
#359 = CARTESIAN_POINT('',(-30.76793253281,-16.68343859737,
    19.112677509553));
#360 = CARTESIAN_POINT('',(-30.74945814818,-16.71747626293,
    19.155909432258));
#361 = CARTESIAN_POINT('',(-30.72992681479,-16.75334611708,
    19.197625439829));
#362 = CARTESIAN_POINT('',(-30.70933292466,-16.79103627273,
    19.237649595497));
#363 = CARTESIAN_POINT('',(-30.67032047957,-16.86216903941,
    19.306368006711));
#364 = CARTESIAN_POINT('',(-30.65228178085,-16.89496929275,
    19.335733071392));
#365 = CARTESIAN_POINT('',(-30.63356499311,-16.92890362295,
    19.363788823436));
#366 = CARTESIAN_POINT('',(-30.6141773957,-16.9639462059,19.39042819041)
  );
#367 = CARTESIAN_POINT('',(-30.59413270332,-17.00005943368,
    19.415538863491));
#368 = CARTESIAN_POINT('',(-30.57345252813,-17.03719178539,
    19.439006513346));
#369 = CARTESIAN_POINT('',(-30.5408345921,-17.09555386832,
    19.472278513209));
#370 = CARTESIAN_POINT('',(-30.52933008082,-17.11610161683,
    19.483341174934));
#371 = CARTESIAN_POINT('',(-30.51765907017,-17.13690855899,
    19.493888559393));
#372 = CARTESIAN_POINT('',(-30.50582716506,-17.15796292477,
    19.503903794942));
#373 = CARTESIAN_POINT('',(-30.49384081311,-17.17925155871,
    19.513370570091));
#374 = CARTESIAN_POINT('',(-30.48170730469,-17.20075991994,
    19.522273133506));
#375 = CARTESIAN_POINT('',(-30.44438196698,-17.26679468762,
    19.547586962935));
#376 = CARTESIAN_POINT('',(-30.41874617724,-17.31197310692,
    19.562166067439));
#377 = CARTESIAN_POINT('',(-30.39260239383,-17.35786181494,
    19.574202409565));
#378 = CARTESIAN_POINT('',(-30.36603598295,-17.4043000103,19.58358762129
    ));
#379 = CARTESIAN_POINT('',(-30.33914283456,-17.45111221724,
    19.590242123773));
#380 = CARTESIAN_POINT('',(-30.31202951005,-17.4981088876,
    19.594121086602));
#381 = CARTESIAN_POINT('',(-30.25758823933,-17.5920807057,19.59632005224
    ));
#382 = CARTESIAN_POINT('',(-30.23025387267,-17.63906680677,
    19.594638457141));
#383 = CARTESIAN_POINT('',(-30.20292755075,-17.68584221593,
    19.590170466578));
#384 = CARTESIAN_POINT('',(-30.17572055019,-17.73221938658,
    19.582952237353));
#385 = CARTESIAN_POINT('',(-30.14873758209,-17.77802651191,
    19.573055097788));
#386 = CARTESIAN_POINT('',(-30.1220762105,-17.82310772125,
    19.560579427274));
#387 = CARTESIAN_POINT('',(-30.0829645162,-17.88898769323,
    19.538332805979));
#388 = CARTESIAN_POINT('',(-30.07020061552,-17.91044581921,
    19.530427027645));
#389 = CARTESIAN_POINT('',(-30.05754445797,-17.93168238372,
    19.521945537192));
#390 = CARTESIAN_POINT('',(-30.04500517407,-17.95268350435,
    19.512903283299));
#391 = CARTESIAN_POINT('',(-30.03259113593,-17.97343668692,
    19.503315826951));
#392 = CARTESIAN_POINT('',(-30.02030995725,-17.99393082545,
    19.493199341442));
#393 = CARTESIAN_POINT('',(-29.9853731794,-18.05212887285,
    19.462615422698));
#394 = CARTESIAN_POINT('',(-29.96307073823,-18.08915345766,
    19.440854409151));
#395 = CARTESIAN_POINT('',(-29.94130576331,-18.12516674617,
    19.417396439087));
#396 = CARTESIAN_POINT('',(-29.92011387433,-18.1601212697,19.3923523127)
  );
#397 = CARTESIAN_POINT('',(-29.89952276225,-18.19398309227,
    19.365831574586));
#398 = CARTESIAN_POINT('',(-29.8795532342,-18.22672960152,
    19.337939325321));
#399 = CARTESIAN_POINT('',(-29.83553040618,-18.29872578603,
    19.271525200111));
#400 = CARTESIAN_POINT('',(-29.81188041662,-18.3372604925,
    19.232202099274));
#401 = CARTESIAN_POINT('',(-29.78929911267,-18.37392741916,
    19.191004944875));
#402 = CARTESIAN_POINT('',(-29.76780467749,-18.40871882299,
    19.148121397067));
#403 = CARTESIAN_POINT('',(-29.74740652985,-18.44163981331,
    19.103723209616));
#404 = CARTESIAN_POINT('',(-29.72810719962,-18.47270494709,
    19.057963877721));
#405 = CARTESIAN_POINT('',(-29.65780782308,-18.58558977575,
    18.876499336674));
#406 = CARTESIAN_POINT('',(-29.61477793994,-18.65407367237,
    18.732187429784));
#407 = CARTESIAN_POINT('',(-29.58058584865,-18.70814834813,
    18.580903493244));
#408 = CARTESIAN_POINT('',(-29.55512732381,-18.74824433986,
    18.424888824692));
#409 = CARTESIAN_POINT('',(-29.53823628706,-18.77479291012,
    18.266041950338));
#410 = CARTESIAN_POINT('',(-29.52977390761,-18.78809338291,
    18.105854478391));
#411 = CARTESIAN_POINT('',(-29.52977390761,-18.78809338291,17.945474));
#412 = CYLINDRICAL_SURFACE('',#413,35.);
#413 = AXIS2_PLACEMENT_3D('',#414,#415,#416);
#414 = CARTESIAN_POINT('',(0.,0.,0.));
#415 = DIRECTION('',(0.,0.,-1.));
#416 = DIRECTION('',(1.,0.,0.));
#417 = ADVANCED_FACE('',(#418,#454,#465,#476,#487,#498,#509,#520),#531,
  .T.);
#418 = FACE_BOUND('',#419,.T.);
#419 = EDGE_LOOP('',(#420,#431,#440,#446,#447,#448));
#420 = ORIENTED_EDGE('',*,*,#421,.F.);
#421 = EDGE_CURVE('',#422,#424,#426,.T.);
#422 = VERTEX_POINT('',#423);
#423 = CARTESIAN_POINT('',(0.,35.,10.088039826852));
#424 = VERTEX_POINT('',#425);
#425 = CARTESIAN_POINT('',(22.958423499162,26.418001257346,
    10.088039826852));
#426 = CIRCLE('',#427,35.);
#427 = AXIS2_PLACEMENT_3D('',#428,#429,#430);
#428 = CARTESIAN_POINT('',(0.,0.,10.088039826852));
#429 = DIRECTION('',(0.,0.,-1.));
#430 = DIRECTION('',(1.,0.,0.));
#431 = ORIENTED_EDGE('',*,*,#432,.F.);
#432 = EDGE_CURVE('',#433,#422,#435,.T.);
#433 = VERTEX_POINT('',#434);
#434 = CARTESIAN_POINT('',(-23.04157650083,26.345507251826,
    10.088039826852));
#435 = CIRCLE('',#436,35.);
#436 = AXIS2_PLACEMENT_3D('',#437,#438,#439);
#437 = CARTESIAN_POINT('',(0.,0.,10.088039826852));
#438 = DIRECTION('',(0.,0.,-1.));
#439 = DIRECTION('',(1.,0.,0.));
#440 = ORIENTED_EDGE('',*,*,#441,.T.);
#441 = EDGE_CURVE('',#433,#195,#442,.T.);
#442 = LINE('',#443,#444);
#443 = CARTESIAN_POINT('',(-23.04157650083,35.,10.088039826852));
#444 = VECTOR('',#445,1.);
#445 = DIRECTION('',(0.,-1.,2.2E-16));
#446 = ORIENTED_EDGE('',*,*,#194,.F.);
#447 = ORIENTED_EDGE('',*,*,#58,.F.);
#448 = ORIENTED_EDGE('',*,*,#449,.F.);
#449 = EDGE_CURVE('',#424,#50,#450,.T.);
#450 = LINE('',#451,#452);
#451 = CARTESIAN_POINT('',(22.958423499162,35.,10.088039826852));
#452 = VECTOR('',#453,1.);
#453 = DIRECTION('',(0.,-1.,2.2E-16));
#454 = FACE_BOUND('',#455,.T.);
#455 = EDGE_LOOP('',(#456));
#456 = ORIENTED_EDGE('',*,*,#457,.F.);
#457 = EDGE_CURVE('',#458,#458,#460,.T.);
#458 = VERTEX_POINT('',#459);
#459 = CARTESIAN_POINT('',(-0.9,-9.786087062764,10.088039826852));
#460 = CIRCLE('',#461,4.75);
#461 = AXIS2_PLACEMENT_3D('',#462,#463,#464);
#462 = CARTESIAN_POINT('',(-5.65,-9.786087062764,10.088039826852));
#463 = DIRECTION('',(0.,0.,1.));
#464 = DIRECTION('',(1.,0.,0.));
#465 = FACE_BOUND('',#466,.T.);
#466 = EDGE_LOOP('',(#467));
#467 = ORIENTED_EDGE('',*,*,#468,.F.);
#468 = EDGE_CURVE('',#469,#469,#471,.T.);
#469 = VERTEX_POINT('',#470);
#470 = CARTESIAN_POINT('',(-6.55,3.219368761908E-15,10.088039826852));
#471 = CIRCLE('',#472,4.75);
#472 = AXIS2_PLACEMENT_3D('',#473,#474,#475);
#473 = CARTESIAN_POINT('',(-11.3,3.219368761908E-15,10.088039826852));
#474 = DIRECTION('',(0.,0.,1.));
#475 = DIRECTION('',(1.,0.,0.));
#476 = FACE_BOUND('',#477,.T.);
#477 = EDGE_LOOP('',(#478));
#478 = ORIENTED_EDGE('',*,*,#479,.F.);
#479 = EDGE_CURVE('',#480,#480,#482,.T.);
#480 = VERTEX_POINT('',#481);
#481 = CARTESIAN_POINT('',(10.4,-9.786087062764,10.088039826852));
#482 = CIRCLE('',#483,4.75);
#483 = AXIS2_PLACEMENT_3D('',#484,#485,#486);
#484 = CARTESIAN_POINT('',(5.65,-9.786087062764,10.088039826852));
#485 = DIRECTION('',(0.,0.,1.));
#486 = DIRECTION('',(1.,0.,0.));
#487 = FACE_BOUND('',#488,.T.);
#488 = EDGE_LOOP('',(#489));
#489 = ORIENTED_EDGE('',*,*,#490,.T.);
#490 = EDGE_CURVE('',#491,#491,#493,.T.);
#491 = VERTEX_POINT('',#492);
#492 = CARTESIAN_POINT('',(2.,-6.804348806E-06,10.088039826852));
#493 = CIRCLE('',#494,2.);
#494 = AXIS2_PLACEMENT_3D('',#495,#496,#497);
#495 = CARTESIAN_POINT('',(0.,-6.8043488058E-06,10.088039826852));
#496 = DIRECTION('',(0.,0.,-1.));
#497 = DIRECTION('',(1.,0.,0.));
#498 = FACE_BOUND('',#499,.T.);
#499 = EDGE_LOOP('',(#500));
#500 = ORIENTED_EDGE('',*,*,#501,.F.);
#501 = EDGE_CURVE('',#502,#502,#504,.T.);
#502 = VERTEX_POINT('',#503);
#503 = CARTESIAN_POINT('',(16.05,2.219368761908E-15,10.088039826852));
#504 = CIRCLE('',#505,4.75);
#505 = AXIS2_PLACEMENT_3D('',#506,#507,#508);
#506 = CARTESIAN_POINT('',(11.3,2.219368761908E-15,10.088039826852));
#507 = DIRECTION('',(0.,0.,1.));
#508 = DIRECTION('',(1.,0.,0.));
#509 = FACE_BOUND('',#510,.T.);
#510 = EDGE_LOOP('',(#511));
#511 = ORIENTED_EDGE('',*,*,#512,.F.);
#512 = EDGE_CURVE('',#513,#513,#515,.T.);
#513 = VERTEX_POINT('',#514);
#514 = CARTESIAN_POINT('',(-0.9,9.786087062764,10.088039826852));
#515 = CIRCLE('',#516,4.75);
#516 = AXIS2_PLACEMENT_3D('',#517,#518,#519);
#517 = CARTESIAN_POINT('',(-5.65,9.786087062764,10.088039826852));
#518 = DIRECTION('',(0.,0.,1.));
#519 = DIRECTION('',(1.,0.,0.));
#520 = FACE_BOUND('',#521,.T.);
#521 = EDGE_LOOP('',(#522));
#522 = ORIENTED_EDGE('',*,*,#523,.F.);
#523 = EDGE_CURVE('',#524,#524,#526,.T.);
#524 = VERTEX_POINT('',#525);
#525 = CARTESIAN_POINT('',(10.4,9.786087062764,10.088039826852));
#526 = CIRCLE('',#527,4.75);
#527 = AXIS2_PLACEMENT_3D('',#528,#529,#530);
#528 = CARTESIAN_POINT('',(5.65,9.786087062764,10.088039826852));
#529 = DIRECTION('',(0.,0.,1.));
#530 = DIRECTION('',(1.,0.,0.));
#531 = PLANE('',#532);
#532 = AXIS2_PLACEMENT_3D('',#533,#534,#535);
#533 = CARTESIAN_POINT('',(-23.04157650083,35.,10.088039826852));
#534 = DIRECTION('',(0.,2.2E-16,1.));
#535 = DIRECTION('',(1.,0.,0.));
#536 = ADVANCED_FACE('',(#537),#556,.T.);
#537 = FACE_BOUND('',#538,.T.);
#538 = EDGE_LOOP('',(#539,#548,#549,#550));
#539 = ORIENTED_EDGE('',*,*,#540,.T.);
#540 = EDGE_CURVE('',#541,#424,#543,.T.);
#541 = VERTEX_POINT('',#542);
#542 = CARTESIAN_POINT('',(19.766624169349,28.883915401962,22.));
#543 = ELLIPSE('',#544,135.22964646833,35.);
#544 = AXIS2_PLACEMENT_3D('',#545,#546,#547);
#545 = CARTESIAN_POINT('',(0.,0.,95.770063695278));
#546 = DIRECTION('',(-0.965925842078,-6.E-17,-0.258818986177));
#547 = DIRECTION('',(0.258818986177,2.E-17,-0.965925842078));
#548 = ORIENTED_EDGE('',*,*,#449,.T.);
#549 = ORIENTED_EDGE('',*,*,#49,.T.);
#550 = ORIENTED_EDGE('',*,*,#551,.F.);
#551 = EDGE_CURVE('',#541,#41,#552,.T.);
#552 = LINE('',#553,#554);
#553 = CARTESIAN_POINT('',(19.766624169349,17.499999878246,22.));
#554 = VECTOR('',#555,1.);
#555 = DIRECTION('',(6.E-17,-1.,0.));
#556 = PLANE('',#557);
#557 = AXIS2_PLACEMENT_3D('',#558,#559,#560);
#558 = CARTESIAN_POINT('',(22.958423499162,35.,10.088039826852));
#559 = DIRECTION('',(-0.965925842078,-6.E-17,-0.258818986177));
#560 = DIRECTION('',(-0.258818986177,2.1E-16,0.965925842078));
#561 = ADVANCED_FACE('',(#562),#573,.T.);
#562 = FACE_BOUND('',#563,.T.);
#563 = EDGE_LOOP('',(#564,#571,#572));
#564 = ORIENTED_EDGE('',*,*,#565,.F.);
#565 = EDGE_CURVE('',#541,#33,#566,.T.);
#566 = CIRCLE('',#567,35.);
#567 = AXIS2_PLACEMENT_3D('',#568,#569,#570);
#568 = CARTESIAN_POINT('',(0.,0.,22.));
#569 = DIRECTION('',(0.,0.,-1.));
#570 = DIRECTION('',(1.,0.,0.));
#571 = ORIENTED_EDGE('',*,*,#551,.T.);
#572 = ORIENTED_EDGE('',*,*,#40,.F.);
#573 = PLANE('',#574);
#574 = AXIS2_PLACEMENT_3D('',#575,#576,#577);
#575 = CARTESIAN_POINT('',(0.,-2.4350806072E-07,22.));
#576 = DIRECTION('',(0.,0.,1.));
#577 = DIRECTION('',(1.,0.,0.));
#578 = ADVANCED_FACE('',(#579),#592,.T.);
#579 = FACE_BOUND('',#580,.T.);
#580 = EDGE_LOOP('',(#581,#582,#583,#589,#590,#591));
#581 = ORIENTED_EDGE('',*,*,#32,.F.);
#582 = ORIENTED_EDGE('',*,*,#91,.F.);
#583 = ORIENTED_EDGE('',*,*,#584,.F.);
#584 = EDGE_CURVE('',#422,#92,#585,.T.);
#585 = LINE('',#586,#587);
#586 = CARTESIAN_POINT('',(0.,35.,0.));
#587 = VECTOR('',#588,1.);
#588 = DIRECTION('',(0.,0.,-1.));
#589 = ORIENTED_EDGE('',*,*,#421,.T.);
#590 = ORIENTED_EDGE('',*,*,#540,.F.);
#591 = ORIENTED_EDGE('',*,*,#565,.T.);
#592 = CYLINDRICAL_SURFACE('',#593,35.);
#593 = AXIS2_PLACEMENT_3D('',#594,#595,#596);
#594 = CARTESIAN_POINT('',(0.,0.,0.));
#595 = DIRECTION('',(0.,0.,-1.));
#596 = DIRECTION('',(1.,0.,0.));
#597 = ADVANCED_FACE('',(#598),#649,.T.);
#598 = FACE_BOUND('',#599,.T.);
#599 = EDGE_LOOP('',(#600,#601,#602,#603,#632,#633,#642,#648));
#600 = ORIENTED_EDGE('',*,*,#584,.T.);
#601 = ORIENTED_EDGE('',*,*,#100,.F.);
#602 = ORIENTED_EDGE('',*,*,#266,.F.);
#603 = ORIENTED_EDGE('',*,*,#604,.F.);
#604 = EDGE_CURVE('',#221,#248,#605,.T.);
#605 = B_SPLINE_CURVE_WITH_KNOTS('',7,(#606,#607,#608,#609,#610,#611,
    #612,#613,#614,#615,#616,#617,#618,#619,#620,#621,#622,#623,#624,
    #625,#626,#627,#628,#629,#630,#631),.UNSPECIFIED.,.F.,.F.,(8,6,6,6,8
    ),(0.,0.244278111517,0.500047328891,0.755821534399,1.),
  .UNSPECIFIED.);
#606 = CARTESIAN_POINT('',(-35.,-1.11E-15,20.520481));
#607 = CARTESIAN_POINT('',(-35.,0.333470546619,20.520481));
#608 = CARTESIAN_POINT('',(-34.99629322837,0.657554073342,
    20.468587029657));
#609 = CARTESIAN_POINT('',(-34.98925547292,0.962883309925,
    20.370053795449));
#610 = CARTESIAN_POINT('',(-34.97986809426,1.241769540848,
    20.231892815146));
#611 = CARTESIAN_POINT('',(-34.96944878671,1.488469074233,
    20.062778698307));
#612 = CARTESIAN_POINT('',(-34.95914565239,1.699719041892,
    19.872892843262));
#613 = CARTESIAN_POINT('',(-34.93986283197,2.059094773684,
    19.465261090818));
#614 = CARTESIAN_POINT('',(-34.93068878988,2.208990245503,
    19.240718826769));
#615 = CARTESIAN_POINT('',(-34.9228651565,2.326620244358,19.005588617252
    ));
#616 = CARTESIAN_POINT('',(-34.91678750086,2.413598820398,
    18.763582044213));
#617 = CARTESIAN_POINT('',(-34.91266472255,2.471169005703,
    18.517369864453));
#618 = CARTESIAN_POINT('',(-34.91060010942,2.5,18.269041000483));
#619 = CARTESIAN_POINT('',(-34.91060010942,2.5,17.77191615198));
#620 = CARTESIAN_POINT('',(-34.91266479908,2.471167913724,
    17.523586384619));
#621 = CARTESIAN_POINT('',(-34.91678763201,2.413597053137,
    17.277376557457));
#622 = CARTESIAN_POINT('',(-34.92286519271,2.326619468654,
    17.035373546508));
#623 = CARTESIAN_POINT('',(-34.93068870468,2.208991442314,
    16.800245561884));
#624 = CARTESIAN_POINT('',(-34.93986274153,2.059096459276,
    16.575702821111));
#625 = CARTESIAN_POINT('',(-34.95914171256,1.699792468953,16.16815244339
    ));
#626 = CARTESIAN_POINT('',(-34.96944598861,1.48853730241,15.978219033038
    ));
#627 = CARTESIAN_POINT('',(-34.97986972617,1.241762228974,
    15.809032951091));
#628 = CARTESIAN_POINT('',(-34.9892605462,0.962771390886,15.670837341284
    ));
#629 = CARTESIAN_POINT('',(-34.9962967871,0.657369623389,15.572325116371
    ));
#630 = CARTESIAN_POINT('',(-35.,0.333310350294,15.520481));
#631 = CARTESIAN_POINT('',(-35.,-1.91E-15,15.520481));
#632 = ORIENTED_EDGE('',*,*,#220,.F.);
#633 = ORIENTED_EDGE('',*,*,#634,.T.);
#634 = EDGE_CURVE('',#212,#635,#637,.T.);
#635 = VERTEX_POINT('',#636);
#636 = CARTESIAN_POINT('',(-23.04157650083,26.345507251826,22.));
#637 = CIRCLE('',#638,35.);
#638 = AXIS2_PLACEMENT_3D('',#639,#640,#641);
#639 = CARTESIAN_POINT('',(0.,0.,22.));
#640 = DIRECTION('',(0.,0.,-1.));
#641 = DIRECTION('',(1.,0.,0.));
#642 = ORIENTED_EDGE('',*,*,#643,.T.);
#643 = EDGE_CURVE('',#635,#433,#644,.T.);
#644 = LINE('',#645,#646);
#645 = CARTESIAN_POINT('',(-23.04157650083,26.345507251826,0.));
#646 = VECTOR('',#647,1.);
#647 = DIRECTION('',(0.,0.,-1.));
#648 = ORIENTED_EDGE('',*,*,#432,.T.);
#649 = CYLINDRICAL_SURFACE('',#650,35.);
#650 = AXIS2_PLACEMENT_3D('',#651,#652,#653);
#651 = CARTESIAN_POINT('',(0.,0.,0.));
#652 = DIRECTION('',(0.,0.,-1.));
#653 = DIRECTION('',(1.,0.,0.));
#654 = ADVANCED_FACE('',(#655),#674,.F.);
#655 = FACE_BOUND('',#656,.T.);
#656 = EDGE_LOOP('',(#657,#665,#672,#673));
#657 = ORIENTED_EDGE('',*,*,#658,.F.);
#658 = EDGE_CURVE('',#659,#110,#661,.T.);
#659 = VERTEX_POINT('',#660);
#660 = CARTESIAN_POINT('',(-3.5,-9.786087062764,7.488039826852));
#661 = LINE('',#662,#663);
#662 = CARTESIAN_POINT('',(-3.5,-9.786087062764,7.488039826852));
#663 = VECTOR('',#664,1.);
#664 = DIRECTION('',(-3.965082230804E-17,0.,-1.));
#665 = ORIENTED_EDGE('',*,*,#666,.T.);
#666 = EDGE_CURVE('',#659,#659,#667,.T.);
#667 = CIRCLE('',#668,2.15);
#668 = AXIS2_PLACEMENT_3D('',#669,#670,#671);
#669 = CARTESIAN_POINT('',(-5.65,-9.786087062764,7.488039826852));
#670 = DIRECTION('',(0.,0.,1.));
#671 = DIRECTION('',(1.,0.,0.));
#672 = ORIENTED_EDGE('',*,*,#658,.T.);
#673 = ORIENTED_EDGE('',*,*,#109,.T.);
#674 = CYLINDRICAL_SURFACE('',#675,2.15);
#675 = AXIS2_PLACEMENT_3D('',#676,#677,#678);
#676 = CARTESIAN_POINT('',(-5.65,-9.786087062764,7.488039826852));
#677 = DIRECTION('',(-0.,-0.,-1.));
#678 = DIRECTION('',(1.,0.,0.));
#679 = ADVANCED_FACE('',(#680),#699,.F.);
#680 = FACE_BOUND('',#681,.T.);
#681 = EDGE_LOOP('',(#682,#690,#697,#698));
#682 = ORIENTED_EDGE('',*,*,#683,.F.);
#683 = EDGE_CURVE('',#684,#121,#686,.T.);
#684 = VERTEX_POINT('',#685);
#685 = CARTESIAN_POINT('',(7.8,-9.786087062764,7.488039826852));
#686 = LINE('',#687,#688);
#687 = CARTESIAN_POINT('',(7.8,-9.786087062764,7.488039826852));
#688 = VECTOR('',#689,1.);
#689 = DIRECTION('',(-3.965082230804E-17,0.,-1.));
#690 = ORIENTED_EDGE('',*,*,#691,.T.);
#691 = EDGE_CURVE('',#684,#684,#692,.T.);
#692 = CIRCLE('',#693,2.15);
#693 = AXIS2_PLACEMENT_3D('',#694,#695,#696);
#694 = CARTESIAN_POINT('',(5.65,-9.786087062764,7.488039826852));
#695 = DIRECTION('',(0.,0.,1.));
#696 = DIRECTION('',(1.,0.,0.));
#697 = ORIENTED_EDGE('',*,*,#683,.T.);
#698 = ORIENTED_EDGE('',*,*,#120,.T.);
#699 = CYLINDRICAL_SURFACE('',#700,2.15);
#700 = AXIS2_PLACEMENT_3D('',#701,#702,#703);
#701 = CARTESIAN_POINT('',(5.65,-9.786087062764,7.488039826852));
#702 = DIRECTION('',(-0.,-0.,-1.));
#703 = DIRECTION('',(1.,0.,0.));
#704 = ADVANCED_FACE('',(#705),#716,.F.);
#705 = FACE_BOUND('',#706,.T.);
#706 = EDGE_LOOP('',(#707,#708,#714,#715));
#707 = ORIENTED_EDGE('',*,*,#131,.F.);
#708 = ORIENTED_EDGE('',*,*,#709,.T.);
#709 = EDGE_CURVE('',#132,#491,#710,.T.);
#710 = LINE('',#711,#712);
#711 = CARTESIAN_POINT('',(2.,-6.8043488058E-06,0.));
#712 = VECTOR('',#713,1.);
#713 = DIRECTION('',(0.,0.,1.));
#714 = ORIENTED_EDGE('',*,*,#490,.F.);
#715 = ORIENTED_EDGE('',*,*,#709,.F.);
#716 = CYLINDRICAL_SURFACE('',#717,2.);
#717 = AXIS2_PLACEMENT_3D('',#718,#719,#720);
#718 = CARTESIAN_POINT('',(0.,-6.8043488058E-06,0.));
#719 = DIRECTION('',(-0.,-0.,-1.));
#720 = DIRECTION('',(1.,0.,0.));
#721 = ADVANCED_FACE('',(#722),#741,.F.);
#722 = FACE_BOUND('',#723,.T.);
#723 = EDGE_LOOP('',(#724,#732,#739,#740));
#724 = ORIENTED_EDGE('',*,*,#725,.F.);
#725 = EDGE_CURVE('',#726,#143,#728,.T.);
#726 = VERTEX_POINT('',#727);
#727 = CARTESIAN_POINT('',(-9.15,3.219368761908E-15,7.488039826852));
#728 = LINE('',#729,#730);
#729 = CARTESIAN_POINT('',(-9.15,3.219368761908E-15,7.488039826852));
#730 = VECTOR('',#731,1.);
#731 = DIRECTION('',(-3.965082230804E-17,0.,-1.));
#732 = ORIENTED_EDGE('',*,*,#733,.T.);
#733 = EDGE_CURVE('',#726,#726,#734,.T.);
#734 = CIRCLE('',#735,2.15);
#735 = AXIS2_PLACEMENT_3D('',#736,#737,#738);
#736 = CARTESIAN_POINT('',(-11.3,3.219368761908E-15,7.488039826852));
#737 = DIRECTION('',(0.,0.,1.));
#738 = DIRECTION('',(1.,0.,0.));
#739 = ORIENTED_EDGE('',*,*,#725,.T.);
#740 = ORIENTED_EDGE('',*,*,#142,.T.);
#741 = CYLINDRICAL_SURFACE('',#742,2.15);
#742 = AXIS2_PLACEMENT_3D('',#743,#744,#745);
#743 = CARTESIAN_POINT('',(-11.3,3.219368761908E-15,7.488039826852));
#744 = DIRECTION('',(-0.,-0.,-1.));
#745 = DIRECTION('',(1.,0.,0.));
#746 = ADVANCED_FACE('',(#747),#766,.F.);
#747 = FACE_BOUND('',#748,.T.);
#748 = EDGE_LOOP('',(#749,#757,#764,#765));
#749 = ORIENTED_EDGE('',*,*,#750,.F.);
#750 = EDGE_CURVE('',#751,#154,#753,.T.);
#751 = VERTEX_POINT('',#752);
#752 = CARTESIAN_POINT('',(-3.5,9.786087062764,7.488039826852));
#753 = LINE('',#754,#755);
#754 = CARTESIAN_POINT('',(-3.5,9.786087062764,7.488039826852));
#755 = VECTOR('',#756,1.);
#756 = DIRECTION('',(-3.965082230804E-17,0.,-1.));
#757 = ORIENTED_EDGE('',*,*,#758,.T.);
#758 = EDGE_CURVE('',#751,#751,#759,.T.);
#759 = CIRCLE('',#760,2.15);
#760 = AXIS2_PLACEMENT_3D('',#761,#762,#763);
#761 = CARTESIAN_POINT('',(-5.65,9.786087062764,7.488039826852));
#762 = DIRECTION('',(0.,0.,1.));
#763 = DIRECTION('',(1.,0.,0.));
#764 = ORIENTED_EDGE('',*,*,#750,.T.);
#765 = ORIENTED_EDGE('',*,*,#153,.T.);
#766 = CYLINDRICAL_SURFACE('',#767,2.15);
#767 = AXIS2_PLACEMENT_3D('',#768,#769,#770);
#768 = CARTESIAN_POINT('',(-5.65,9.786087062764,7.488039826852));
#769 = DIRECTION('',(-0.,-0.,-1.));
#770 = DIRECTION('',(1.,0.,0.));
#771 = ADVANCED_FACE('',(#772),#791,.F.);
#772 = FACE_BOUND('',#773,.T.);
#773 = EDGE_LOOP('',(#774,#782,#789,#790));
#774 = ORIENTED_EDGE('',*,*,#775,.F.);
#775 = EDGE_CURVE('',#776,#165,#778,.T.);
#776 = VERTEX_POINT('',#777);
#777 = CARTESIAN_POINT('',(13.45,2.219368761908E-15,7.488039826852));
#778 = LINE('',#779,#780);
#779 = CARTESIAN_POINT('',(13.45,2.219368761908E-15,7.488039826852));
#780 = VECTOR('',#781,1.);
#781 = DIRECTION('',(-3.965082230804E-17,0.,-1.));
#782 = ORIENTED_EDGE('',*,*,#783,.T.);
#783 = EDGE_CURVE('',#776,#776,#784,.T.);
#784 = CIRCLE('',#785,2.15);
#785 = AXIS2_PLACEMENT_3D('',#786,#787,#788);
#786 = CARTESIAN_POINT('',(11.3,2.219368761908E-15,7.488039826852));
#787 = DIRECTION('',(0.,0.,1.));
#788 = DIRECTION('',(1.,0.,0.));
#789 = ORIENTED_EDGE('',*,*,#775,.T.);
#790 = ORIENTED_EDGE('',*,*,#164,.T.);
#791 = CYLINDRICAL_SURFACE('',#792,2.15);
#792 = AXIS2_PLACEMENT_3D('',#793,#794,#795);
#793 = CARTESIAN_POINT('',(11.3,2.219368761908E-15,7.488039826852));
#794 = DIRECTION('',(-0.,-0.,-1.));
#795 = DIRECTION('',(1.,0.,0.));
#796 = ADVANCED_FACE('',(#797),#816,.F.);
#797 = FACE_BOUND('',#798,.T.);
#798 = EDGE_LOOP('',(#799,#807,#814,#815));
#799 = ORIENTED_EDGE('',*,*,#800,.F.);
#800 = EDGE_CURVE('',#801,#176,#803,.T.);
#801 = VERTEX_POINT('',#802);
#802 = CARTESIAN_POINT('',(7.8,9.786087062764,7.488039826852));
#803 = LINE('',#804,#805);
#804 = CARTESIAN_POINT('',(7.8,9.786087062764,7.488039826852));
#805 = VECTOR('',#806,1.);
#806 = DIRECTION('',(-3.965082230804E-17,0.,-1.));
#807 = ORIENTED_EDGE('',*,*,#808,.T.);
#808 = EDGE_CURVE('',#801,#801,#809,.T.);
#809 = CIRCLE('',#810,2.15);
#810 = AXIS2_PLACEMENT_3D('',#811,#812,#813);
#811 = CARTESIAN_POINT('',(5.65,9.786087062764,7.488039826852));
#812 = DIRECTION('',(0.,0.,1.));
#813 = DIRECTION('',(1.,0.,0.));
#814 = ORIENTED_EDGE('',*,*,#800,.T.);
#815 = ORIENTED_EDGE('',*,*,#175,.T.);
#816 = CYLINDRICAL_SURFACE('',#817,2.15);
#817 = AXIS2_PLACEMENT_3D('',#818,#819,#820);
#818 = CARTESIAN_POINT('',(5.65,9.786087062764,7.488039826852));
#819 = DIRECTION('',(-0.,-0.,-1.));
#820 = DIRECTION('',(1.,0.,0.));
#821 = ADVANCED_FACE('',(#822),#843,.F.);
#822 = FACE_BOUND('',#823,.F.);
#823 = EDGE_LOOP('',(#824,#825,#826,#834,#841,#842));
#824 = ORIENTED_EDGE('',*,*,#604,.F.);
#825 = ORIENTED_EDGE('',*,*,#228,.F.);
#826 = ORIENTED_EDGE('',*,*,#827,.T.);
#827 = EDGE_CURVE('',#229,#828,#830,.T.);
#828 = VERTEX_POINT('',#829);
#829 = CARTESIAN_POINT('',(-23.04157650083,-2.5,18.020481));
#830 = LINE('',#831,#832);
#831 = CARTESIAN_POINT('',(-35.,-2.5,18.020481));
#832 = VECTOR('',#833,1.);
#833 = DIRECTION('',(1.,0.,0.));
#834 = ORIENTED_EDGE('',*,*,#835,.T.);
#835 = EDGE_CURVE('',#828,#828,#836,.T.);
#836 = CIRCLE('',#837,2.5);
#837 = AXIS2_PLACEMENT_3D('',#838,#839,#840);
#838 = CARTESIAN_POINT('',(-23.04157650083,0.,18.020481));
#839 = DIRECTION('',(-1.,0.,0.));
#840 = DIRECTION('',(0.,-1.,0.));
#841 = ORIENTED_EDGE('',*,*,#827,.F.);
#842 = ORIENTED_EDGE('',*,*,#247,.F.);
#843 = CYLINDRICAL_SURFACE('',#844,2.5);
#844 = AXIS2_PLACEMENT_3D('',#845,#846,#847);
#845 = CARTESIAN_POINT('',(-35.,0.,18.020481));
#846 = DIRECTION('',(-1.,0.,0.));
#847 = DIRECTION('',(0.,-1.,0.));
#848 = ADVANCED_FACE('',(#849),#859,.T.);
#849 = FACE_BOUND('',#850,.T.);
#850 = EDGE_LOOP('',(#851,#852,#853));
#851 = ORIENTED_EDGE('',*,*,#634,.F.);
#852 = ORIENTED_EDGE('',*,*,#211,.F.);
#853 = ORIENTED_EDGE('',*,*,#854,.F.);
#854 = EDGE_CURVE('',#635,#204,#855,.T.);
#855 = LINE('',#856,#857);
#856 = CARTESIAN_POINT('',(-23.04157650083,17.499999878246,22.));
#857 = VECTOR('',#858,1.);
#858 = DIRECTION('',(0.,-1.,0.));
#859 = PLANE('',#860);
#860 = AXIS2_PLACEMENT_3D('',#861,#862,#863);
#861 = CARTESIAN_POINT('',(0.,-2.4350806072E-07,22.));
#862 = DIRECTION('',(0.,0.,1.));
#863 = DIRECTION('',(1.,0.,0.));
#864 = ADVANCED_FACE('',(#865,#871,#1045),#1048,.F.);
#865 = FACE_BOUND('',#866,.F.);
#866 = EDGE_LOOP('',(#867,#868,#869,#870));
#867 = ORIENTED_EDGE('',*,*,#643,.T.);
#868 = ORIENTED_EDGE('',*,*,#441,.T.);
#869 = ORIENTED_EDGE('',*,*,#203,.F.);
#870 = ORIENTED_EDGE('',*,*,#854,.F.);
#871 = FACE_BOUND('',#872,.F.);
#872 = EDGE_LOOP('',(#873));
#873 = ORIENTED_EDGE('',*,*,#874,.T.);
#874 = EDGE_CURVE('',#875,#875,#877,.T.);
#875 = VERTEX_POINT('',#876);
#876 = CARTESIAN_POINT('',(-23.04157650083,-15.04213191904,17.945474));
#877 = B_SPLINE_CURVE_WITH_KNOTS('',6,(#878,#879,#880,#881,#882,#883,
    #884,#885,#886,#887,#888,#889,#890,#891,#892,#893,#894,#895,#896,
    #897,#898,#899,#900,#901,#902,#903,#904,#905,#906,#907,#908,#909,
    #910,#911,#912,#913,#914,#915,#916,#917,#918,#919,#920,#921,#922,
    #923,#924,#925,#926,#927,#928,#929,#930,#931,#932,#933,#934,#935,
    #936,#937,#938,#939,#940,#941,#942,#943,#944,#945,#946,#947,#948,
    #949,#950,#951,#952,#953,#954,#955,#956,#957,#958,#959,#960,#961,
    #962,#963,#964,#965,#966,#967,#968,#969,#970,#971,#972,#973,#974,
    #975,#976,#977,#978,#979,#980,#981,#982,#983,#984,#985,#986,#987,
    #988,#989,#990,#991,#992,#993,#994,#995,#996,#997,#998,#999,#1000,
    #1001,#1002,#1003,#1004,#1005,#1006,#1007,#1008,#1009,#1010,#1011,
    #1012,#1013,#1014,#1015,#1016,#1017,#1018,#1019,#1020,#1021,#1022,
    #1023,#1024,#1025,#1026,#1027,#1028,#1029,#1030,#1031,#1032,#1033,
    #1034,#1035,#1036,#1037,#1038,#1039,#1040,#1041,#1042,#1043,#1044),
  .UNSPECIFIED.,.T.,.F.,(7,5,5,5,5,5,5,5,5,5,5,5,5,5,5,5,5,5,5,5,5,5,5,5
    ,5,5,5,5,5,5,5,5,5,7),(0.,2.000034379686E-02,4.900084230595E-02,
    7.800134081505E-02,0.107001839324,0.136002337833,0.165002836342,
    0.194003334851,0.223003833361,0.251004314679,0.277004761616,
    0.308005294508,0.337005793017,0.360006188384,0.389006686893,
    0.416007151021,0.44500764953,0.474008148039,0.501008612167,
    0.530009110676,0.559009609185,0.587010090504,0.616010589013,
    0.643011053141,0.668011482888,0.697011981397,0.721012393954,
    0.749012875273,0.781013425356,0.806013855103,0.834014336421,
    0.86301483493,0.882015161537,1.),.UNSPECIFIED.);
#878 = CARTESIAN_POINT('',(-23.04157650083,-15.04213191904,17.945474));
#879 = CARTESIAN_POINT('',(-23.04157650083,-15.0421319193,17.91091648679
    ));
#880 = CARTESIAN_POINT('',(-23.04157650083,-15.04126339342,
    17.876358952058));
#881 = CARTESIAN_POINT('',(-23.04157650083,-15.03952634335,
    17.841828727959));
#882 = CARTESIAN_POINT('',(-23.04157650083,-15.03692191162,
    17.807353074889));
#883 = CARTESIAN_POINT('',(-23.04157650083,-15.03345238134,
    17.772959181484));
#884 = CARTESIAN_POINT('',(-23.04157650083,-15.02284093521,
    17.68896091919));
#885 = CARTESIAN_POINT('',(-23.04157650083,-15.01474899315,
    17.639476405963));
#886 = CARTESIAN_POINT('',(-23.04157650083,-15.00485583099,
    17.590303446279));
#887 = CARTESIAN_POINT('',(-23.04157650083,-14.99317686297,
    17.541523775027));
#888 = CARTESIAN_POINT('',(-23.04157650083,-14.97973243657,
    17.493218040642));
#889 = CARTESIAN_POINT('',(-23.04157650083,-14.94936323305,
    17.39771356813));
#890 = CARTESIAN_POINT('',(-23.04157650083,-14.93243837242,
    17.350514567416));
#891 = CARTESIAN_POINT('',(-23.04157650083,-14.91379856583,
    17.303948354003));
#892 = CARTESIAN_POINT('',(-23.04157650083,-14.89347378315,
    17.258092516528));
#893 = CARTESIAN_POINT('',(-23.04157650083,-14.87149864899,
    17.213022681226));
#894 = CARTESIAN_POINT('',(-23.04157650083,-14.82432624053,
    17.124602340394));
#895 = CARTESIAN_POINT('',(-23.04157650083,-14.79912883653,
    17.081251591755));
#896 = CARTESIAN_POINT('',(-23.04157650083,-14.77235954185,
    17.038833912847));
#897 = CARTESIAN_POINT('',(-23.04157650083,-14.74406188974,
    16.997420177127));
#898 = CARTESIAN_POINT('',(-23.04157650083,-14.7142836355,
    16.957078484675));
#899 = CARTESIAN_POINT('',(-23.04157650083,-14.65186988121,
    16.878669836757));
#900 = CARTESIAN_POINT('',(-23.04157650083,-14.61923420956,
    16.840602665708));
#901 = CARTESIAN_POINT('',(-23.04157650083,-14.58522174717,
    16.803737953262));
#902 = CARTESIAN_POINT('',(-23.04157650083,-14.54988814928,
    16.768137511107));
#903 = CARTESIAN_POINT('',(-23.04157650083,-14.51329272074,
    16.733859658404));
#904 = CARTESIAN_POINT('',(-23.04157650083,-14.43770411444,
    16.668058781585));
#905 = CARTESIAN_POINT('',(-23.04157650083,-14.39871072885,
    16.636535576552));
#906 = CARTESIAN_POINT('',(-23.04157650083,-14.35858123743,
    16.606444406083));
#907 = CARTESIAN_POINT('',(-23.04157650083,-14.31738157471,
    16.577835973538));
#908 = CARTESIAN_POINT('',(-23.04157650083,-14.27518063152,
    16.550756886233));
#909 = CARTESIAN_POINT('',(-23.04157650083,-14.18891988097,
    16.499742420567));
#910 = CARTESIAN_POINT('',(-23.04157650083,-14.14485983644,
    16.475806901944));
#911 = CARTESIAN_POINT('',(-23.04157650083,-14.099941987,16.45348557977)
  );
#912 = CARTESIAN_POINT('',(-23.04157650083,-14.05424036338,
    16.432816370306));
#913 = CARTESIAN_POINT('',(-23.04157650083,-14.00783116146,
    16.413832625877));
#914 = CARTESIAN_POINT('',(-23.04157650083,-13.91375432474,
    16.379293639407));
#915 = CARTESIAN_POINT('',(-23.04157650083,-13.86608643129,
    16.363738302402));
#916 = CARTESIAN_POINT('',(-23.04157650083,-13.81786743541,
    16.349925878349));
#917 = CARTESIAN_POINT('',(-23.04157650083,-13.76917701292,
    16.337880241018));
#918 = CARTESIAN_POINT('',(-23.04157650083,-13.72009614191,
    16.32762038346));
#919 = CARTESIAN_POINT('',(-23.04157650083,-13.62302112999,
    16.310992170523));
#920 = CARTESIAN_POINT('',(-23.04157650083,-13.57504763524,
    16.304501782572));
#921 = CARTESIAN_POINT('',(-23.04157650083,-13.52686066465,
    16.299701922845));
#922 = CARTESIAN_POINT('',(-23.04157650083,-13.47853462251,
    16.296600884677));
#923 = CARTESIAN_POINT('',(-23.04157650083,-13.43014427125,
    16.29520258605));
#924 = CARTESIAN_POINT('',(-23.04157650083,-13.3368408655,
    16.295788837043));
#925 = CARTESIAN_POINT('',(-23.04157650083,-13.29192614214,
    16.297538888163));
#926 = CARTESIAN_POINT('',(-23.04157650083,-13.24708067947,
    16.30075633583));
#927 = CARTESIAN_POINT('',(-23.04157650083,-13.20236430883,
    16.305437541666));
#928 = CARTESIAN_POINT('',(-23.04157650083,-13.15783657481,
    16.311575616026));
#929 = CARTESIAN_POINT('',(-23.04157650083,-13.06076156769,
    16.328203826255));
#930 = CARTESIAN_POINT('',(-23.04157650083,-13.00831850608,
    16.339303957215));
#931 = CARTESIAN_POINT('',(-23.04157650083,-12.95632810575,
    16.352443559192));
#932 = CARTESIAN_POINT('',(-23.04157650083,-12.9048891816,
    16.367599018539));
#933 = CARTESIAN_POINT('',(-23.04157650083,-12.85409880807,
    16.384740359646));
#934 = CARTESIAN_POINT('',(-23.04157650083,-12.75723462306,
    16.421690459078));
#935 = CARTESIAN_POINT('',(-23.04157650083,-12.7110676359,
    16.441255884512));
#936 = CARTESIAN_POINT('',(-23.04157650083,-12.6656293508,
    16.462497750447));
#937 = CARTESIAN_POINT('',(-23.04157650083,-12.62099553851,
    16.485381749711));
#938 = CARTESIAN_POINT('',(-23.04157650083,-12.57723974746,
    16.509869038763));
#939 = CARTESIAN_POINT('',(-23.04157650083,-12.50048334863,
    16.556574368404));
#940 = CARTESIAN_POINT('',(-23.04157650083,-12.46713043268,
    16.578213767515));
#941 = CARTESIAN_POINT('',(-23.04157650083,-12.43441008433,
    16.600812811137));
#942 = CARTESIAN_POINT('',(-23.04157650083,-12.40235667246,
    16.624348247331));
#943 = CARTESIAN_POINT('',(-23.04157650083,-12.37100340642,
    16.648795196106));
#944 = CARTESIAN_POINT('',(-23.04157650083,-12.30177317598,
    16.706067421243));
#945 = CARTESIAN_POINT('',(-23.04157650083,-12.26432789897,
    16.739414802021));
#946 = CARTESIAN_POINT('',(-23.04157650083,-12.2281108173,
    16.774116064487));
#947 = CARTESIAN_POINT('',(-23.04157650083,-12.19318268266,
    16.810114398236));
#948 = CARTESIAN_POINT('',(-23.04157650083,-12.15960068607,
    16.847349409721));
#949 = CARTESIAN_POINT('',(-23.04157650083,-12.097455685,16.921516031405
    ));
#950 = CARTESIAN_POINT('',(-23.04157650083,-12.0687061266,
    16.958291631604));
#951 = CARTESIAN_POINT('',(-23.04157650083,-12.04121302387,
    16.996032298483));
#952 = CARTESIAN_POINT('',(-23.04157650083,-12.01501651264,
    17.034684225126));
#953 = CARTESIAN_POINT('',(-23.04157650083,-11.99015362326,
    17.074191422068));
#954 = CARTESIAN_POINT('',(-23.04157650083,-11.94142254364,
    17.157785505639));
#955 = CARTESIAN_POINT('',(-23.04157650083,-11.91776433309,
    17.20199507077));
#956 = CARTESIAN_POINT('',(-23.04157650083,-11.89572567683,
    17.247052281646));
#957 = CARTESIAN_POINT('',(-23.04157650083,-11.87534402524,
    17.292882870775));
#958 = CARTESIAN_POINT('',(-23.04157650083,-11.85665225123,
    17.339410434219));
#959 = CARTESIAN_POINT('',(-23.04157650083,-11.82270504484,
    17.433702427362));
#960 = CARTESIAN_POINT('',(-23.04157650083,-11.80744951912,
    17.481467116314));
#961 = CARTESIAN_POINT('',(-23.04157650083,-11.79394033461,
    17.529771945837));
#962 = CARTESIAN_POINT('',(-23.04157650083,-11.78220086398,
    17.578537091698));
#963 = CARTESIAN_POINT('',(-23.04157650083,-11.77224959112,
    17.627681458051));
#964 = CARTESIAN_POINT('',(-23.04157650083,-11.75651265904,
    17.72315416566));
#965 = CARTESIAN_POINT('',(-23.04157650083,-11.75048700945,
    17.769443186229));
#966 = CARTESIAN_POINT('',(-23.04157650083,-11.74603410298,
    17.815923292276));
#967 = CARTESIAN_POINT('',(-23.04157650083,-11.74316109626,
    17.862527739129));
#968 = CARTESIAN_POINT('',(-23.04157650083,-11.74187136193,
    17.909189484312));
#969 = CARTESIAN_POINT('',(-23.04157650083,-11.74247932432,
    18.005948563014));
#970 = CARTESIAN_POINT('',(-23.04157650083,-11.74462020784,
    18.056044602712));
#971 = CARTESIAN_POINT('',(-23.04157650083,-11.7485865966,
    18.106045826514));
#972 = CARTESIAN_POINT('',(-23.04157650083,-11.75437292047,
    18.155869245481));
#973 = CARTESIAN_POINT('',(-23.04157650083,-11.76196858179,
    18.205432361856));
#974 = CARTESIAN_POINT('',(-23.04157650083,-11.78074732423,
    18.303873977166));
#975 = CARTESIAN_POINT('',(-23.04157650083,-11.79193045699,
    18.352752746764));
#976 = CARTESIAN_POINT('',(-23.04157650083,-11.80489169293,
    18.401207478053));
#977 = CARTESIAN_POINT('',(-23.04157650083,-11.81961051608,
    18.449157565296));
#978 = CARTESIAN_POINT('',(-23.04157650083,-11.83606155513,
    18.49652379683));
#979 = CARTESIAN_POINT('',(-23.04157650083,-11.87174164317,
    18.588322417319));
#980 = CARTESIAN_POINT('',(-23.04157650083,-11.89085542477,
    18.63279988001));
#981 = CARTESIAN_POINT('',(-23.04157650083,-11.91152869978,
    18.676590729365));
#982 = CARTESIAN_POINT('',(-23.04157650083,-11.93373030349,
    18.719626895324));
#983 = CARTESIAN_POINT('',(-23.04157650083,-11.95742513488,
    18.761842251527));
#984 = CARTESIAN_POINT('',(-23.04157650083,-12.00862135162,
    18.845979061535));
#985 = CARTESIAN_POINT('',(-23.04157650083,-12.03622859961,
    18.887836395828));
#986 = CARTESIAN_POINT('',(-23.04157650083,-12.06535248995,
    18.928673310898));
#987 = CARTESIAN_POINT('',(-23.04157650083,-12.09594555334,
    18.96842150701));
#988 = CARTESIAN_POINT('',(-23.04157650083,-12.12795626187,
    19.007015691998));
#989 = CARTESIAN_POINT('',(-23.04157650083,-12.19240022925,
    19.079193694172));
#990 = CARTESIAN_POINT('',(-23.04157650083,-12.22465223855,
    19.112939653549));
#991 = CARTESIAN_POINT('',(-23.04157650083,-12.25804019796,
    19.145581234406));
#992 = CARTESIAN_POINT('',(-23.04157650083,-12.29251664142,
    19.177070970518));
#993 = CARTESIAN_POINT('',(-23.04157650083,-12.32803149587,
    19.20736415443));
#994 = CARTESIAN_POINT('',(-23.04157650083,-12.39832892318,
    19.263321327702));
#995 = CARTESIAN_POINT('',(-23.04157650083,-12.43297098571,
    19.289162096434));
#996 = CARTESIAN_POINT('',(-23.04157650083,-12.46841645774,
    19.31390787124));
#997 = CARTESIAN_POINT('',(-23.04157650083,-12.50462196722,
    19.337527692191));
#998 = CARTESIAN_POINT('',(-23.04157650083,-12.54154258112,
    19.359992911836));
#999 = CARTESIAN_POINT('',(-23.04157650083,-12.62273528913,
    19.405966958526));
#1000 = CARTESIAN_POINT('',(-23.04157650083,-12.66723865367,
    19.429067761968));
#1001 = CARTESIAN_POINT('',(-23.04157650083,-12.71256924565,
    19.450538487435));
#1002 = CARTESIAN_POINT('',(-23.04157650083,-12.75865233284,
    19.470342620765));
#1003 = CARTESIAN_POINT('',(-23.04157650083,-12.80541110424,
    19.488448251733));
#1004 = CARTESIAN_POINT('',(-23.04157650083,-12.89195749824,
    19.518383797136));
#1005 = CARTESIAN_POINT('',(-23.04157650083,-12.93155720897,
    19.53075756709));
#1006 = CARTESIAN_POINT('',(-23.04157650083,-12.97152113167,
    19.541933938908));
#1007 = CARTESIAN_POINT('',(-23.04157650083,-13.01180399195,
    19.551899759104));
#1008 = CARTESIAN_POINT('',(-23.04157650083,-13.05235991169,
    19.560644165703));
#1009 = CARTESIAN_POINT('',(-23.04157650083,-13.14072197428,
    19.576925414629));
#1010 = CARTESIAN_POINT('',(-23.04157650083,-13.18861012277,
    19.584018126975));
#1011 = CARTESIAN_POINT('',(-23.04157650083,-13.23673297349,
    19.58942312712));
#1012 = CARTESIAN_POINT('',(-23.04157650083,-13.28501623224,
    19.593131187415));
#1013 = CARTESIAN_POINT('',(-23.04157650083,-13.33338519173,
    19.595137450723));
#1014 = CARTESIAN_POINT('',(-23.04157650083,-13.43705560818,
    19.595788842094));
#1015 = CARTESIAN_POINT('',(-23.04157650083,-13.49236068032,
    19.593912858725));
#1016 = CARTESIAN_POINT('',(-23.04157650083,-13.54756770025,
    19.589812807608));
#1017 = CARTESIAN_POINT('',(-23.04157650083,-13.60256512504,
    19.583495471579));
#1018 = CARTESIAN_POINT('',(-23.04157650083,-13.65724211654,
    19.574975089004));
#1019 = CARTESIAN_POINT('',(-23.04157650083,-13.75386859161,
    19.555912621447));
#1020 = CARTESIAN_POINT('',(-23.04157650083,-13.79598604529,
    19.546220463763));
#1021 = CARTESIAN_POINT('',(-23.04157650083,-13.83778847995,
    19.535207230176));
#1022 = CARTESIAN_POINT('',(-23.04157650083,-13.8792242263,
    19.522885956575));
#1023 = CARTESIAN_POINT('',(-23.04157650083,-13.92024236811,
    19.509272365299));
#1024 = CARTESIAN_POINT('',(-23.04157650083,-14.00620915141,
    19.4777108718));
#1025 = CARTESIAN_POINT('',(-23.04157650083,-14.05103897775,
    19.459438816496));
#1026 = CARTESIAN_POINT('',(-23.04157650083,-14.09521170674,
    19.43959460322));
#1027 = CARTESIAN_POINT('',(-23.04157650083,-14.13865869302,
    19.418208108161));
#1028 = CARTESIAN_POINT('',(-23.04157650083,-14.18131316036,
    19.395313179691));
#1029 = CARTESIAN_POINT('',(-23.04157650083,-14.26639999247,
    19.345711905435));
#1030 = CARTESIAN_POINT('',(-23.04157650083,-14.30877024446,
    19.318898507249));
#1031 = CARTESIAN_POINT('',(-23.04157650083,-14.35014884484,
    19.290549502822));
#1032 = CARTESIAN_POINT('',(-23.04157650083,-14.39046661129,
    19.260711065699));
#1033 = CARTESIAN_POINT('',(-23.04157650083,-14.42965729202,
    19.229433483962));
#1034 = CARTESIAN_POINT('',(-23.04157650083,-14.49255431352,
    19.175371694739));
#1035 = CARTESIAN_POINT('',(-23.04157650083,-14.51694013749,
    19.153377780443));
#1036 = CARTESIAN_POINT('',(-23.04157650083,-14.54079727019,
    19.130804690895));
#1037 = CARTESIAN_POINT('',(-23.04157650083,-14.56410859193,
    19.107668368125));
#1038 = CARTESIAN_POINT('',(-23.04157650083,-14.5868576308,
    19.083985422634));
#1039 = CARTESIAN_POINT('',(-23.04157650083,-14.74670118694,
    18.909424777187));
#1040 = CARTESIAN_POINT('',(-23.04157650083,-14.86215872982,
    18.738579933902));
#1041 = CARTESIAN_POINT('',(-23.04157650083,-14.95140071914,
    18.551527195725));
#1042 = CARTESIAN_POINT('',(-23.04157650083,-15.01190643234,
    18.353305304428));
#1043 = CARTESIAN_POINT('',(-23.04157650083,-15.04213210774,
    18.149332724823));
#1044 = CARTESIAN_POINT('',(-23.04157650083,-15.04213191904,17.945474));
#1045 = FACE_BOUND('',#1046,.F.);
#1046 = EDGE_LOOP('',(#1047));
#1047 = ORIENTED_EDGE('',*,*,#835,.F.);
#1048 = PLANE('',#1049);
#1049 = AXIS2_PLACEMENT_3D('',#1050,#1051,#1052);
#1050 = CARTESIAN_POINT('',(-23.04157650083,35.,10.088039826852));
#1051 = DIRECTION('',(-1.,0.,0.));
#1052 = DIRECTION('',(0.,2.2E-16,1.));
#1053 = ADVANCED_FACE('',(#1054),#1065,.F.);
#1054 = FACE_BOUND('',#1055,.F.);
#1055 = EDGE_LOOP('',(#1056,#1057,#1063,#1064));
#1056 = ORIENTED_EDGE('',*,*,#274,.T.);
#1057 = ORIENTED_EDGE('',*,*,#1058,.T.);
#1058 = EDGE_CURVE('',#275,#875,#1059,.T.);
#1059 = LINE('',#1060,#1061);
#1060 = CARTESIAN_POINT('',(-35.,-21.946329,17.945474));
#1061 = VECTOR('',#1062,1.);
#1062 = DIRECTION('',(0.866025464789,0.499999894338,0.));
#1063 = ORIENTED_EDGE('',*,*,#874,.F.);
#1064 = ORIENTED_EDGE('',*,*,#1058,.F.);
#1065 = SURFACE_OF_LINEAR_EXTRUSION('',#1066,#1071);
#1066 = CIRCLE('',#1067,1.65);
#1067 = AXIS2_PLACEMENT_3D('',#1068,#1069,#1070);
#1068 = CARTESIAN_POINT('',(-35.,-20.296329,17.945474));
#1069 = DIRECTION('',(-1.,0.,0.));
#1070 = DIRECTION('',(0.,-1.,0.));
#1071 = VECTOR('',#1072,1.);
#1072 = DIRECTION('',(-0.866025464789,-0.499999894338,-0.));
#1073 = ADVANCED_FACE('',(#1074),#1085,.F.);
#1074 = FACE_BOUND('',#1075,.T.);
#1075 = EDGE_LOOP('',(#1076,#1082,#1083,#1084));
#1076 = ORIENTED_EDGE('',*,*,#1077,.F.);
#1077 = EDGE_CURVE('',#458,#659,#1078,.T.);
#1078 = LINE('',#1079,#1080);
#1079 = CARTESIAN_POINT('',(-0.9,-9.786087062764,10.088039826852));
#1080 = VECTOR('',#1081,1.);
#1081 = DIRECTION('',(-0.707106781187,0.,-0.707106781187));
#1082 = ORIENTED_EDGE('',*,*,#457,.T.);
#1083 = ORIENTED_EDGE('',*,*,#1077,.T.);
#1084 = ORIENTED_EDGE('',*,*,#666,.F.);
#1085 = CONICAL_SURFACE('',#1086,4.75,0.785398163397);
#1086 = AXIS2_PLACEMENT_3D('',#1087,#1088,#1089);
#1087 = CARTESIAN_POINT('',(-5.65,-9.786087062764,10.088039826852));
#1088 = DIRECTION('',(0.,0.,1.));
#1089 = DIRECTION('',(1.,0.,0.));
#1090 = ADVANCED_FACE('',(#1091),#1102,.F.);
#1091 = FACE_BOUND('',#1092,.T.);
#1092 = EDGE_LOOP('',(#1093,#1099,#1100,#1101));
#1093 = ORIENTED_EDGE('',*,*,#1094,.F.);
#1094 = EDGE_CURVE('',#469,#726,#1095,.T.);
#1095 = LINE('',#1096,#1097);
#1096 = CARTESIAN_POINT('',(-6.55,3.219368761908E-15,10.088039826852));
#1097 = VECTOR('',#1098,1.);
#1098 = DIRECTION('',(-0.707106781187,0.,-0.707106781187));
#1099 = ORIENTED_EDGE('',*,*,#468,.T.);
#1100 = ORIENTED_EDGE('',*,*,#1094,.T.);
#1101 = ORIENTED_EDGE('',*,*,#733,.F.);
#1102 = CONICAL_SURFACE('',#1103,4.75,0.785398163397);
#1103 = AXIS2_PLACEMENT_3D('',#1104,#1105,#1106);
#1104 = CARTESIAN_POINT('',(-11.3,3.219368761908E-15,10.088039826852));
#1105 = DIRECTION('',(0.,0.,1.));
#1106 = DIRECTION('',(1.,0.,0.));
#1107 = ADVANCED_FACE('',(#1108),#1119,.F.);
#1108 = FACE_BOUND('',#1109,.T.);
#1109 = EDGE_LOOP('',(#1110,#1116,#1117,#1118));
#1110 = ORIENTED_EDGE('',*,*,#1111,.F.);
#1111 = EDGE_CURVE('',#480,#684,#1112,.T.);
#1112 = LINE('',#1113,#1114);
#1113 = CARTESIAN_POINT('',(10.4,-9.786087062764,10.088039826852));
#1114 = VECTOR('',#1115,1.);
#1115 = DIRECTION('',(-0.707106781187,0.,-0.707106781187));
#1116 = ORIENTED_EDGE('',*,*,#479,.T.);
#1117 = ORIENTED_EDGE('',*,*,#1111,.T.);
#1118 = ORIENTED_EDGE('',*,*,#691,.F.);
#1119 = CONICAL_SURFACE('',#1120,4.75,0.785398163397);
#1120 = AXIS2_PLACEMENT_3D('',#1121,#1122,#1123);
#1121 = CARTESIAN_POINT('',(5.65,-9.786087062764,10.088039826852));
#1122 = DIRECTION('',(0.,0.,1.));
#1123 = DIRECTION('',(1.,0.,0.));
#1124 = ADVANCED_FACE('',(#1125),#1136,.F.);
#1125 = FACE_BOUND('',#1126,.T.);
#1126 = EDGE_LOOP('',(#1127,#1133,#1134,#1135));
#1127 = ORIENTED_EDGE('',*,*,#1128,.F.);
#1128 = EDGE_CURVE('',#502,#776,#1129,.T.);
#1129 = LINE('',#1130,#1131);
#1130 = CARTESIAN_POINT('',(16.05,2.219368761908E-15,10.088039826852));
#1131 = VECTOR('',#1132,1.);
#1132 = DIRECTION('',(-0.707106781187,0.,-0.707106781187));
#1133 = ORIENTED_EDGE('',*,*,#501,.T.);
#1134 = ORIENTED_EDGE('',*,*,#1128,.T.);
#1135 = ORIENTED_EDGE('',*,*,#783,.F.);
#1136 = CONICAL_SURFACE('',#1137,4.75,0.785398163397);
#1137 = AXIS2_PLACEMENT_3D('',#1138,#1139,#1140);
#1138 = CARTESIAN_POINT('',(11.3,2.219368761908E-15,10.088039826852));
#1139 = DIRECTION('',(0.,0.,1.));
#1140 = DIRECTION('',(1.,0.,0.));
#1141 = ADVANCED_FACE('',(#1142),#1153,.F.);
#1142 = FACE_BOUND('',#1143,.T.);
#1143 = EDGE_LOOP('',(#1144,#1150,#1151,#1152));
#1144 = ORIENTED_EDGE('',*,*,#1145,.F.);
#1145 = EDGE_CURVE('',#513,#751,#1146,.T.);
#1146 = LINE('',#1147,#1148);
#1147 = CARTESIAN_POINT('',(-0.9,9.786087062764,10.088039826852));
#1148 = VECTOR('',#1149,1.);
#1149 = DIRECTION('',(-0.707106781187,0.,-0.707106781187));
#1150 = ORIENTED_EDGE('',*,*,#512,.T.);
#1151 = ORIENTED_EDGE('',*,*,#1145,.T.);
#1152 = ORIENTED_EDGE('',*,*,#758,.F.);
#1153 = CONICAL_SURFACE('',#1154,4.75,0.785398163397);
#1154 = AXIS2_PLACEMENT_3D('',#1155,#1156,#1157);
#1155 = CARTESIAN_POINT('',(-5.65,9.786087062764,10.088039826852));
#1156 = DIRECTION('',(0.,0.,1.));
#1157 = DIRECTION('',(1.,0.,0.));
#1158 = ADVANCED_FACE('',(#1159),#1170,.F.);
#1159 = FACE_BOUND('',#1160,.T.);
#1160 = EDGE_LOOP('',(#1161,#1167,#1168,#1169));
#1161 = ORIENTED_EDGE('',*,*,#1162,.F.);
#1162 = EDGE_CURVE('',#524,#801,#1163,.T.);
#1163 = LINE('',#1164,#1165);
#1164 = CARTESIAN_POINT('',(10.4,9.786087062764,10.088039826852));
#1165 = VECTOR('',#1166,1.);
#1166 = DIRECTION('',(-0.707106781187,0.,-0.707106781187));
#1167 = ORIENTED_EDGE('',*,*,#523,.T.);
#1168 = ORIENTED_EDGE('',*,*,#1162,.T.);
#1169 = ORIENTED_EDGE('',*,*,#808,.F.);
#1170 = CONICAL_SURFACE('',#1171,4.75,0.785398163397);
#1171 = AXIS2_PLACEMENT_3D('',#1172,#1173,#1174);
#1172 = CARTESIAN_POINT('',(5.65,9.786087062764,10.088039826852));
#1173 = DIRECTION('',(0.,0.,1.));
#1174 = DIRECTION('',(1.,0.,0.));
#1175 = ( GEOMETRIC_REPRESENTATION_CONTEXT(3) 
GLOBAL_UNCERTAINTY_ASSIGNED_CONTEXT((#1179)) 
GLOBAL_UNIT_ASSIGNED_CONTEXT((#1176,#1177,#1178)) REPRESENTATION_CONTEXT
('Context #1','3D Context with UNIT and UNCERTAINTY') );
#1176 = ( LENGTH_UNIT() NAMED_UNIT(*) SI_UNIT(.MILLI.,.METRE.) );
#1177 = ( NAMED_UNIT(*) PLANE_ANGLE_UNIT() SI_UNIT($,.RADIAN.) );
#1178 = ( NAMED_UNIT(*) SI_UNIT($,.STERADIAN.) SOLID_ANGLE_UNIT() );
#1179 = UNCERTAINTY_MEASURE_WITH_UNIT(LENGTH_MEASURE(1.E-05),#1176,
  'distance_accuracy_value','confusion accuracy');
#1180 = PRODUCT_RELATED_PRODUCT_CATEGORY('part',$,(#7));
#1181 = MECHANICAL_DESIGN_GEOMETRIC_PRESENTATION_REPRESENTATION('',(
    #1182),#1175);
#1182 = STYLED_ITEM('color',(#1183),#15);
#1183 = PRESENTATION_STYLE_ASSIGNMENT((#1184,#1190));
#1184 = SURFACE_STYLE_USAGE(.BOTH.,#1185);
#1185 = SURFACE_SIDE_STYLE('',(#1186));
#1186 = SURFACE_STYLE_FILL_AREA(#1187);
#1187 = FILL_AREA_STYLE('',(#1188));
#1188 = FILL_AREA_STYLE_COLOUR('',#1189);
#1189 = COLOUR_RGB('',0.678431390124,0.709803936702,0.741176476869);
#1190 = CURVE_STYLE('',#1191,POSITIVE_LENGTH_MEASURE(0.1),#1192);
#1191 = DRAUGHTING_PRE_DEFINED_CURVE_FONT('continuous');
#1192 = COLOUR_RGB('',9.803921802644E-02,9.803921802644E-02,
  9.803921802644E-02);
ENDSEC;
END-ISO-10303-21;
